<svg id="Layer_1" xmlns="http://www.w3.org/2000/svg" viewBox="0 0 283.7 283.7"><style>.st0,.st1{fill-rule:evenodd;clip-rule:evenodd;fill:#e6e7e8;stroke:#e6e7e8;stroke-width:.5;stroke-miterlimit:22.9256}.st1{fill:#ed1c24;stroke:#ed1c24}</style><path class="st0" d="M141.2 283.2c78 0 141.6-63.6 141.6-141.5S219.2.2 141.2.2-.5 63.8-.5 141.7s63.7 141.5 141.7 141.5z"/><path class="st1" d="M222.2 44.6h-15.5l3.9 15.5-15.6-3.9.2 15.5 15.4-3.8-3.9 15.5h15.5l-3.9-15.5 15.5 3.8V56.2l-15.5 3.9zm-147.1 0H59.6l3.9 15.5L48 56.2l.1 15.5 15.4-3.8-3.9 15.5h15.5l-3.9-15.5 15.5 3.8V56.2l-15.5 3.9zm147.1 153.8h-15.5l3.9 15.5L195 210l.2 15.5 15.4-3.9-3.9 15.5h15.5l-3.9-15.5 15.5 3.9V210l-15.5 3.9zm-147.1 0H59.6l3.9 15.5L48 210l.1 15.5 15.4-3.9-3.9 15.5h15.5l-3.9-15.5 15.5 3.9V210l-15.5 3.9zm39.1-84h165.7c1.8 9 2.7 18.3 2.7 27.8 0 10.2-1.1 20.2-3.1 29.8H2.5c-2.1-9.6-3.2-19.6-3.2-29.8 0-9.3.9-18.6 2.7-27.7h88.5l23.7-.1z"/><path class="st1" d="M172 3.6l-.1 276.7c-10 2.2-20.3 3.4-30.9 3.4-9.1 0-18-.9-26.6-2.5l-.3-278.4C122.8 1.1 131.8.2 141 .2c10.6 0 21 1.1 31 3.4z"/></svg>