<svg id="Layer_1" xmlns="http://www.w3.org/2000/svg" viewBox="0 0 283.7 283.7"><style>.st0{fill:#e6e7e8;stroke:#e6e7e8}.st0,.st1,.st2{fill-rule:evenodd;clip-rule:evenodd;stroke-width:.5;stroke-miterlimit:22.9256}.st1{fill:#ed1c24;stroke:#ed1c24}.st2{fill:#2959a9;stroke:#2959a9}</style><path class="st0" d="M276.5 97.4C258.6 39.7 204.9 0 141.5 0 77.9 0 24.2 39.8 6.3 97.7l270.2-.3z"/><path class="st1" d="M6.3 185.5c17.7 58 71.6 97.9 135.2 97.9 63.5 0 117.2-39.8 135.1-97.6l-270.3-.3z"/><path class="st2" d="M7.7 93.4l267.4-.4c5.7 15.1 7.7 30.7 7.8 45.9 0 15.4-1.9 36.5-7.7 51.3l-267.5-.4c-5.4-15.7-8.2-36.6-8.3-51.4-.1-15.6 2.1-29.2 8.3-45z"/></svg>