<svg width="9" height="10" viewBox="0 0 9 10" fill="none" xmlns="http://www.w3.org/2000/svg">
<g clip-path="url(#clip0_1882_41238)">
<path d="M6.58532 1.40034V0.620117H1.77066L1.76143 1.40034H0.177735V2.88617C0.177735 2.88617 0.168504 4.67258 2.03324 4.39119C2.03324 4.39119 2.44967 5.53807 3.69898 5.88662V6.88321H2.79431V7.67303H2.16042V9.25905H6.16683V7.63465H5.59962V6.86935H4.71854V5.81627C4.71854 5.81627 5.73193 5.75338 6.31146 4.39972C6.31146 4.39972 7.96182 4.48392 8.27876 2.87658V1.40034H6.58635H6.58532ZM1.75732 3.63762C0.988043 3.56194 0.952143 2.9416 0.952143 2.9416V2.36816H1.75732V3.63762ZM4.89701 7.76363V8.63551H3.55744V7.76363H4.89701ZM5.34524 2.75081L4.81803 3.26456L4.95445 4.00215C4.9647 4.05757 4.90829 4.10021 4.86008 4.07356L4.22722 3.71116L3.59436 4.07356C3.54718 4.10127 3.48974 4.05757 3.5 4.00215L3.63642 3.26456L3.1092 2.75081C3.0692 2.71243 3.09074 2.64315 3.1451 2.63569L3.86207 2.54296L4.16876 1.86293C4.19235 1.81177 4.2621 1.81177 4.28466 1.86293L4.59135 2.54296L5.30832 2.63569C5.36268 2.64315 5.38422 2.71243 5.34422 2.75081H5.34524ZM7.3905 2.9416C7.3905 2.9416 7.3546 3.56194 6.58532 3.63762V2.36816H7.3905V2.9416Z" fill="#692E96"/>
</g>
<defs>
<clipPath id="clip0_1882_41238">
<rect width="8.1" height="8.64" fill="white" transform="translate(0.179688 0.620117)"/>
</clipPath>
</defs>
</svg>
