<svg width="570" height="835" viewBox="0 0 570 835" fill="none" xmlns="http://www.w3.org/2000/svg">
<path d="M235.007 807.906C243.055 807.799 245.747 803.904 247.18 797.716C254.691 765.302 263.616 733.108 269.628 700.462C297.69 548.127 270.259 401.593 213.303 258.354C212.499 256.327 210.59 254.673 209.142 252.772C195.477 263.234 202.266 288.251 176.341 288.925L193.933 294.718C181.22 309.435 190.497 335.338 160.62 338.234C166.73 344.428 183.426 339.68 177.18 356.255C173.03 367.267 161.835 366.012 153.64 371.788C156.86 373.107 158.562 374.364 160.321 374.433C174.279 374.957 175.248 382.894 174.64 393.338C172.993 421.547 173.191 449.715 182.453 477.116C182.847 478.26 182.263 479.682 181.947 482.849C175.236 479.03 169.402 476.362 164.375 472.741C128.491 446.878 106.127 412.89 95.9899 372.333C84.5367 326.507 100.104 289.294 141.379 261.669C152.491 254.232 164.793 248.311 175.496 242.288C168.147 237.599 160.321 232.599 151.06 226.692C151.61 230.364 151.453 232.245 152.185 233.762C157.018 243.779 152.241 247.812 142.119 251.823C122.602 259.556 103.764 268.816 84.9801 278.027C64.6855 287.982 64.8626 288.267 52.0866 270.838C51.7638 270.395 50.7638 270.367 49.5264 269.966C48.8216 272.409 47.2702 274.879 47.5943 277.121C50.0628 294.319 37.3898 301.953 23.8638 308.53C21.0875 309.876 15.5211 308.702 12.6003 306.863C8.62433 304.357 5.95604 300.092 2.72498 296.585C0.745134 304.87 1.44235 311.942 1.3205 319.004C1.26271 322.741 1.17105 327.793 -1.28491 329.958C-16.7681 343.601 -32.9184 356.597 -50.1152 370.855C-50.1152 365.575 -50.5724 361.717 -50.0473 357.977C-43.7812 313.785 -25.7239 274.092 4.49005 239.285C31.3272 208.368 66.634 193.076 109.527 192.555C117.901 192.454 126.275 192.54 134.647 192.54L135.284 190.688C110.164 184.443 85.0404 178.198 60.0072 171.971C60.8703 160.765 61.7107 149.793 62.5574 138.823L59.2321 138.269C54.133 143.972 49.348 149.951 43.8143 155.26C41.0706 157.889 36.5858 161.338 33.4917 160.892C15.6882 158.329 -1.93567 154.712 -20.0658 151.367C-18.9553 145.821 -18.1174 141.621 -17.1551 136.831C-19.8158 137.192 -21.0143 137.158 -22.0356 137.534C-23.8232 138.196 -25.9915 138.723 -27.141 139.975C-39.3931 153.288 -55.6603 151.348 -71.9437 150.761C-88.7121 150.157 -105.522 150.626 -125 150.626C-87.5777 114.278 -46.5977 87.4602 5.52521 79.9515C88.2464 68.0329 155.429 91.5021 201.212 160.476C214.684 68.3037 241.285 30.0925 306.358 9.25006C348.822 -4.34869 390.658 -3.03301 431.744 13.7236C410.714 27.3478 391.363 40.2117 371.528 52.408C368.457 54.2965 363.073 53.7769 358.938 53.225C352.744 52.3976 346.706 50.552 338.292 48.6033C340.193 53.4298 340.468 56.097 342.019 57.7343C349.221 65.3159 345.946 70.6828 339.007 76.634C329.41 84.8613 321.006 94.2688 311.388 102.466C308.147 105.226 302.887 106.496 298.313 107.273C292.262 108.299 285.982 108.174 278.864 108.602C282.727 118.958 288.2 119.047 296.088 116.692C331.854 106.013 368.611 101.433 405.914 106.606C466.056 114.947 516.915 140.977 561.008 178.903C563.692 181.213 565.824 184.061 570 188.605C564.236 187.769 561.339 187.314 558.427 186.937C537.378 184.225 516.395 180.588 495.241 179.193C483.144 178.393 472.566 177.121 463.95 168.466C460.764 165.258 456.04 163.344 450.289 159.769C450.747 168.364 451.088 174.815 451.452 181.611C433.248 182.458 416.33 183.516 399.402 183.733C396.883 183.767 393.614 180.242 391.898 177.679C388.882 173.159 386.789 168.108 383.518 161.741C375.158 174.225 379.096 191.001 357.234 193.634C364.456 195.949 368.389 197.255 372.352 198.476C412.796 210.931 443.538 234.064 463.007 269.191C487.147 312.739 493.026 359.442 490.144 407.539C490.094 408.379 489.038 409.169 488.541 409.851C475.661 396.277 462.548 383.233 450.544 369.375C446.627 364.848 444.747 358.359 443.453 352.486C442.006 345.885 442.273 338.965 441.798 332.181L439.309 332.137L431.326 345.471C413.341 332.118 395.959 319.209 378.57 306.301C377.063 305.182 374.78 304.346 374.184 302.913C372.91 299.838 371.988 296.477 371.844 293.199C371.511 285.783 371.738 278.345 371.738 268.65C365.002 273.881 360.275 276.991 356.289 280.769C349.309 287.39 342.488 284.804 335.239 281.462C327.947 278.097 320.212 275.735 321.039 265.705C321.502 260.089 319.767 254.319 319.027 248.656C316.109 249 315.28 248.936 314.62 249.21C313.577 249.649 312.427 250.141 311.698 250.911C302.562 260.531 292.999 258.837 281.748 253.529C269.579 247.792 256.35 243.967 243.582 239.307C243.124 240.001 242.662 240.695 242.203 241.389C243.074 242.848 243.803 244.398 244.834 245.752C287.406 301.651 313.54 364.441 334.84 429.149C358.83 502.039 374.525 576.529 383.166 652.249C389.494 707.655 392.412 763.191 387.093 818.831C386.362 826.494 388.514 829.969 396.633 832.932C398.54 833.624 400.45 834.311 402.357 835C338.72 832.704 277.349 823.491 219.378 808.286C224.578 808.109 229.788 807.974 235.007 807.906ZM150.761 174.717C140.641 191.711 141.417 195.132 155.404 196.473C153.977 189.763 152.649 183.563 150.761 174.717ZM301.259 193.553C295.548 186.593 291.866 182.108 286.067 175.037L282.673 196.457C288.768 195.505 293.37 194.788 301.259 193.553Z" fill="#EBEBEB" fill-opacity="0.45"/>
</svg>
