<svg width="65" height="64" viewBox="0 0 65 64" fill="none" xmlns="http://www.w3.org/2000/svg">
<path d="M52.3121 63.4971C38.8637 56.3801 24.5222 55.5151 9.28772 60.9022C15.8204 45.5186 14.0203 32.2734 0 21.1752C5.21431 19.6284 8.85673 17.4814 12.3132 17.7435C21.9559 18.4704 26.6547 13.4496 29.6379 5.31821C30.4154 3.21353 31.1506 0.297391 33.7958 0.0269093C37.3791 -0.345003 38.1988 3.22199 38.8496 5.54644C41.8497 16.222 48.0781 22.1726 59.6815 22.2064C64.0338 22.2149 67.3973 25.8664 62.5041 28.6726C48.4078 36.7617 51.0952 49.6434 52.3037 63.5056L52.3121 63.4971Z" fill="#EAEAEA"/>
</svg>
