<svg width="92" height="92" viewBox="0 0 92 92" fill="none" xmlns="http://www.w3.org/2000/svg">
<g clip-path="url(#clip0_347_12182)">
<path d="M2.78788 22.303H0V25.0909H2.78788V22.303Z" fill="white"/>
<path d="M2.78788 25.0909H0V27.8788H2.78788V25.0909Z" fill="white"/>
<path d="M2.78788 33.4546H0V36.2425H2.78788V33.4546Z" fill="white"/>
<path d="M2.78788 39.0303H0V41.8182H2.78788V39.0303Z" fill="white"/>
<path d="M2.78788 41.8182H0V44.6061H2.78788V41.8182Z" fill="white"/>
<path d="M2.78788 61.3334H0V64.1212H2.78788V61.3334Z" fill="white"/>
<path d="M2.78788 64.1212H0V66.9091H2.78788V64.1212Z" fill="white"/>
<path d="M2.78788 66.9091H0V69.6969H2.78788V66.9091Z" fill="white"/>
<path d="M5.57578 30.6666H2.7879V33.4545H5.57578V30.6666Z" fill="white"/>
<path d="M5.57578 36.2424H2.7879V39.0303H5.57578V36.2424Z" fill="white"/>
<path d="M5.57578 39.0303H2.7879V41.8182H5.57578V39.0303Z" fill="white"/>
<path d="M5.57578 41.8182H2.7879V44.6061H5.57578V41.8182Z" fill="white"/>
<path d="M5.57578 44.6061H2.7879V47.394H5.57578V44.6061Z" fill="white"/>
<path d="M5.57578 50.1818H2.7879V52.9696H5.57578V50.1818Z" fill="white"/>
<path d="M5.57578 64.1212H2.7879V66.9091H5.57578V64.1212Z" fill="white"/>
<path d="M8.36362 27.8788H5.57574V30.6667H8.36362V27.8788Z" fill="white"/>
<path d="M8.36362 30.6666H5.57574V33.4545H8.36362V30.6666Z" fill="white"/>
<path d="M8.36362 33.4546H5.57574V36.2425H8.36362V33.4546Z" fill="white"/>
<path d="M8.36362 39.0303H5.57574V41.8182H8.36362V39.0303Z" fill="white"/>
<path d="M8.36362 44.6061H5.57574V47.394H8.36362V44.6061Z" fill="white"/>
<path d="M8.36362 64.1212H5.57574V66.9091H8.36362V64.1212Z" fill="white"/>
<path d="M8.36362 66.9091H5.57574V69.6969H8.36362V66.9091Z" fill="white"/>
<path d="M11.1515 22.303H8.36365V25.0909H11.1515V22.303Z" fill="white"/>
<path d="M11.1515 27.8788H8.36365V30.6667H11.1515V27.8788Z" fill="white"/>
<path d="M11.1515 30.6666H8.36365V33.4545H11.1515V30.6666Z" fill="white"/>
<path d="M11.1515 41.8182H8.36365V44.6061H11.1515V41.8182Z" fill="white"/>
<path d="M11.1515 44.6061H8.36365V47.394H11.1515V44.6061Z" fill="white"/>
<path d="M11.1515 47.3939H8.36365V50.1818H11.1515V47.3939Z" fill="white"/>
<path d="M11.1515 50.1818H8.36365V52.9696H11.1515V50.1818Z" fill="white"/>
<path d="M11.1515 52.9697H8.36365V55.7576H11.1515V52.9697Z" fill="white"/>
<path d="M11.1515 55.7576H8.36365V58.5454H11.1515V55.7576Z" fill="white"/>
<path d="M11.1515 61.3334H8.36365V64.1212H11.1515V61.3334Z" fill="white"/>
<path d="M11.1515 66.9091H8.36365V69.6969H11.1515V66.9091Z" fill="white"/>
<path d="M13.9394 27.8788H11.1515V30.6667H13.9394V27.8788Z" fill="white"/>
<path d="M13.9394 36.2424H11.1515V39.0303H13.9394V36.2424Z" fill="white"/>
<path d="M13.9394 44.6061H11.1515V47.394H13.9394V44.6061Z" fill="white"/>
<path d="M13.9394 55.7576H11.1515V58.5454H13.9394V55.7576Z" fill="white"/>
<path d="M13.9394 58.5454H11.1515V61.3333H13.9394V58.5454Z" fill="white"/>
<path d="M13.9394 61.3334H11.1515V64.1212H13.9394V61.3334Z" fill="white"/>
<path d="M13.9394 66.9091H11.1515V69.6969H13.9394V66.9091Z" fill="white"/>
<path d="M16.7273 33.4546H13.9394V36.2425H16.7273V33.4546Z" fill="white"/>
<path d="M16.7273 39.0303H13.9394V41.8182H16.7273V39.0303Z" fill="white"/>
<path d="M16.7273 47.3939H13.9394V50.1818H16.7273V47.3939Z" fill="white"/>
<path d="M16.7273 52.9697H13.9394V55.7576H16.7273V52.9697Z" fill="white"/>
<path d="M16.7273 58.5454H13.9394V61.3333H16.7273V58.5454Z" fill="white"/>
<path d="M16.7273 64.1212H13.9394V66.9091H16.7273V64.1212Z" fill="white"/>
<path d="M16.7273 66.9091H13.9394V69.6969H16.7273V66.9091Z" fill="white"/>
<path d="M19.5152 22.303H16.7273V25.0909H19.5152V22.303Z" fill="white"/>
<path d="M19.5152 27.8788H16.7273V30.6667H19.5152V27.8788Z" fill="white"/>
<path d="M19.5152 33.4546H16.7273V36.2425H19.5152V33.4546Z" fill="white"/>
<path d="M19.5152 39.0303H16.7273V41.8182H19.5152V39.0303Z" fill="white"/>
<path d="M19.5152 44.6061H16.7273V47.394H19.5152V44.6061Z" fill="white"/>
<path d="M19.5152 50.1818H16.7273V52.9696H19.5152V50.1818Z" fill="white"/>
<path d="M19.5152 55.7576H16.7273V58.5454H19.5152V55.7576Z" fill="white"/>
<path d="M19.5152 61.3334H16.7273V64.1212H19.5152V61.3334Z" fill="white"/>
<path d="M19.5152 66.9091H16.7273V69.6969H19.5152V66.9091Z" fill="white"/>
<path d="M22.303 25.0909H19.5151V27.8788H22.303V25.0909Z" fill="white"/>
<path d="M22.303 33.4546H19.5151V36.2425H22.303V33.4546Z" fill="white"/>
<path d="M22.303 39.0303H19.5151V41.8182H22.303V39.0303Z" fill="white"/>
<path d="M22.303 44.6061H19.5151V47.394H22.303V44.6061Z" fill="white"/>
<path d="M22.303 52.9697H19.5151V55.7576H22.303V52.9697Z" fill="white"/>
<path d="M22.303 58.5454H19.5151V61.3333H22.303V58.5454Z" fill="white"/>
<path d="M22.303 61.3334H19.5151V64.1212H22.303V61.3334Z" fill="white"/>
<path d="M22.303 64.1212H19.5151V66.9091H22.303V64.1212Z" fill="white"/>
<path d="M25.0909 5.57581H22.303V8.36368H25.0909V5.57581Z" fill="white"/>
<path d="M25.0909 11.1515H22.303V13.9394H25.0909V11.1515Z" fill="white"/>
<path d="M25.0909 13.9395H22.303V16.7273H25.0909V13.9395Z" fill="white"/>
<path d="M25.0909 16.7273H22.303V19.5152H25.0909V16.7273Z" fill="white"/>
<path d="M25.0909 22.303H22.303V25.0909H25.0909V22.303Z" fill="white"/>
<path d="M25.0909 25.0909H22.303V27.8788H25.0909V25.0909Z" fill="white"/>
<path d="M25.0909 36.2424H22.303V39.0303H25.0909V36.2424Z" fill="white"/>
<path d="M25.0909 47.3939H22.303V50.1818H25.0909V47.3939Z" fill="white"/>
<path d="M25.0909 52.9697H22.303V55.7576H25.0909V52.9697Z" fill="white"/>
<path d="M25.0909 69.697H22.303V72.4849H25.0909V69.697Z" fill="white"/>
<path d="M25.0909 80.8485H22.303V83.6364H25.0909V80.8485Z" fill="white"/>
<path d="M25.0909 89.2122H22.303V92H25.0909V89.2122Z" fill="white"/>
<path d="M27.8788 0H25.0909V2.78788H27.8788V0Z" fill="white"/>
<path d="M27.8788 2.78784H25.0909V5.57572H27.8788V2.78784Z" fill="white"/>
<path d="M27.8788 5.57581H25.0909V8.36368H27.8788V5.57581Z" fill="white"/>
<path d="M27.8788 8.36365H25.0909V11.1515H27.8788V8.36365Z" fill="white"/>
<path d="M27.8788 19.5151H25.0909V22.303H27.8788V19.5151Z" fill="white"/>
<path d="M27.8788 25.0909H25.0909V27.8788H27.8788V25.0909Z" fill="white"/>
<path d="M27.8788 30.6666H25.0909V33.4545H27.8788V30.6666Z" fill="white"/>
<path d="M27.8788 33.4546H25.0909V36.2425H27.8788V33.4546Z" fill="white"/>
<path d="M27.8788 41.8182H25.0909V44.6061H27.8788V41.8182Z" fill="white"/>
<path d="M27.8788 44.6061H25.0909V47.394H27.8788V44.6061Z" fill="white"/>
<path d="M27.8788 61.3334H25.0909V64.1212H27.8788V61.3334Z" fill="white"/>
<path d="M27.8788 64.1212H25.0909V66.9091H27.8788V64.1212Z" fill="white"/>
<path d="M27.8788 66.9091H25.0909V69.6969H27.8788V66.9091Z" fill="white"/>
<path d="M27.8788 72.4849H25.0909V75.2727H27.8788V72.4849Z" fill="white"/>
<path d="M27.8788 83.6364H25.0909V86.4242H27.8788V83.6364Z" fill="white"/>
<path d="M27.8788 86.4242H25.0909V89.2121H27.8788V86.4242Z" fill="white"/>
<path d="M27.8788 89.2122H25.0909V92H27.8788V89.2122Z" fill="white"/>
<path d="M30.6667 2.78784H27.8788V5.57572H30.6667V2.78784Z" fill="white"/>
<path d="M30.6667 5.57581H27.8788V8.36368H30.6667V5.57581Z" fill="white"/>
<path d="M30.6667 11.1515H27.8788V13.9394H30.6667V11.1515Z" fill="white"/>
<path d="M30.6667 16.7273H27.8788V19.5152H30.6667V16.7273Z" fill="white"/>
<path d="M30.6667 19.5151H27.8788V22.303H30.6667V19.5151Z" fill="white"/>
<path d="M30.6667 25.0909H27.8788V27.8788H30.6667V25.0909Z" fill="white"/>
<path d="M30.6667 30.6666H27.8788V33.4545H30.6667V30.6666Z" fill="white"/>
<path d="M30.6667 33.4546H27.8788V36.2425H30.6667V33.4546Z" fill="white"/>
<path d="M30.6667 41.8182H27.8788V44.6061H30.6667V41.8182Z" fill="white"/>
<path d="M30.6667 50.1818H27.8788V52.9696H30.6667V50.1818Z" fill="white"/>
<path d="M30.6667 52.9697H27.8788V55.7576H30.6667V52.9697Z" fill="white"/>
<path d="M30.6667 58.5454H27.8788V61.3333H30.6667V58.5454Z" fill="white"/>
<path d="M30.6667 72.4849H27.8788V75.2727H30.6667V72.4849Z" fill="white"/>
<path d="M30.6667 78.0605H27.8788V80.8484H30.6667V78.0605Z" fill="white"/>
<path d="M30.6667 80.8485H27.8788V83.6364H30.6667V80.8485Z" fill="white"/>
<path d="M30.6667 86.4242H27.8788V89.2121H30.6667V86.4242Z" fill="white"/>
<path d="M30.6667 89.2122H27.8788V92H30.6667V89.2122Z" fill="white"/>
<path d="M33.4546 8.36365H30.6667V11.1515H33.4546V8.36365Z" fill="white"/>
<path d="M33.4546 11.1515H30.6667V13.9394H33.4546V11.1515Z" fill="white"/>
<path d="M33.4546 25.0909H30.6667V27.8788H33.4546V25.0909Z" fill="white"/>
<path d="M33.4546 27.8788H30.6667V30.6667H33.4546V27.8788Z" fill="white"/>
<path d="M33.4546 64.1212H30.6667V66.9091H33.4546V64.1212Z" fill="white"/>
<path d="M33.4546 80.8485H30.6667V83.6364H33.4546V80.8485Z" fill="white"/>
<path d="M36.2424 0H33.4545V2.78788H36.2424V0Z" fill="white"/>
<path d="M36.2424 2.78784H33.4545V5.57572H36.2424V2.78784Z" fill="white"/>
<path d="M36.2424 5.57581H33.4545V8.36368H36.2424V5.57581Z" fill="white"/>
<path d="M36.2424 11.1515H33.4545V13.9394H36.2424V11.1515Z" fill="white"/>
<path d="M36.2424 16.7273H33.4545V19.5152H36.2424V16.7273Z" fill="white"/>
<path d="M36.2424 19.5151H33.4545V22.303H36.2424V19.5151Z" fill="white"/>
<path d="M36.2424 22.303H33.4545V25.0909H36.2424V22.303Z" fill="white"/>
<path d="M36.2424 25.0909H33.4545V27.8788H36.2424V25.0909Z" fill="white"/>
<path d="M36.2424 27.8788H33.4545V30.6667H36.2424V27.8788Z" fill="white"/>
<path d="M36.2424 66.9091H33.4545V69.6969H36.2424V66.9091Z" fill="white"/>
<path d="M36.2424 69.697H33.4545V72.4849H36.2424V69.697Z" fill="white"/>
<path d="M36.2424 72.4849H33.4545V75.2727H36.2424V72.4849Z" fill="white"/>
<path d="M36.2424 78.0605H33.4545V80.8484H36.2424V78.0605Z" fill="white"/>
<path d="M36.2424 80.8485H33.4545V83.6364H36.2424V80.8485Z" fill="white"/>
<path d="M36.2424 86.4242H33.4545V89.2121H36.2424V86.4242Z" fill="white"/>
<path d="M39.0303 2.78784H36.2424V5.57572H39.0303V2.78784Z" fill="white"/>
<path d="M39.0303 5.57581H36.2424V8.36368H39.0303V5.57581Z" fill="white"/>
<path d="M39.0303 11.1515H36.2424V13.9394H39.0303V11.1515Z" fill="white"/>
<path d="M39.0303 13.9395H36.2424V16.7273H39.0303V13.9395Z" fill="white"/>
<path d="M39.0303 19.5151H36.2424V22.303H39.0303V19.5151Z" fill="white"/>
<path d="M39.0303 22.303H36.2424V25.0909H39.0303V22.303Z" fill="white"/>
<path d="M39.0303 25.0909H36.2424V27.8788H39.0303V25.0909Z" fill="white"/>
<path d="M39.0303 27.8788H36.2424V30.6667H39.0303V27.8788Z" fill="white"/>
<path d="M39.0303 66.9091H36.2424V69.6969H39.0303V66.9091Z" fill="white"/>
<path d="M39.0303 72.4849H36.2424V75.2727H39.0303V72.4849Z" fill="white"/>
<path d="M39.0303 78.0605H36.2424V80.8484H39.0303V78.0605Z" fill="white"/>
<path d="M39.0303 83.6364H36.2424V86.4242H39.0303V83.6364Z" fill="white"/>
<path d="M39.0303 86.4242H36.2424V89.2121H39.0303V86.4242Z" fill="white"/>
<path d="M39.0303 89.2122H36.2424V92H39.0303V89.2122Z" fill="white"/>
<path d="M41.8182 0H39.0303V2.78788H41.8182V0Z" fill="white"/>
<path d="M41.8182 16.7273H39.0303V19.5152H41.8182V16.7273Z" fill="white"/>
<path d="M41.8182 19.5151H39.0303V22.303H41.8182V19.5151Z" fill="white"/>
<path d="M41.8182 22.303H39.0303V25.0909H41.8182V22.303Z" fill="white"/>
<path d="M41.8182 27.8788H39.0303V30.6667H41.8182V27.8788Z" fill="white"/>
<path d="M41.8182 66.9091H39.0303V69.6969H41.8182V66.9091Z" fill="white"/>
<path d="M41.8182 86.4242H39.0303V89.2121H41.8182V86.4242Z" fill="white"/>
<path d="M41.8182 89.2122H39.0303V92H41.8182V89.2122Z" fill="white"/>
<path d="M44.6061 0H41.8182V2.78788H44.6061V0Z" fill="white"/>
<path d="M44.6061 2.78784H41.8182V5.57572H44.6061V2.78784Z" fill="white"/>
<path d="M44.6061 11.1515H41.8182V13.9394H44.6061V11.1515Z" fill="white"/>
<path d="M44.6061 13.9395H41.8182V16.7273H44.6061V13.9395Z" fill="white"/>
<path d="M44.6061 19.5151H41.8182V22.303H44.6061V19.5151Z" fill="white"/>
<path d="M44.6061 22.303H41.8182V25.0909H44.6061V22.303Z" fill="white"/>
<path d="M44.6061 25.0909H41.8182V27.8788H44.6061V25.0909Z" fill="white"/>
<path d="M44.6061 27.8788H41.8182V30.6667H44.6061V27.8788Z" fill="white"/>
<path d="M44.6061 61.3334H41.8182V64.1212H44.6061V61.3334Z" fill="white"/>
<path d="M44.6061 66.9091H41.8182V69.6969H44.6061V66.9091Z" fill="white"/>
<path d="M44.6061 69.697H41.8182V72.4849H44.6061V69.697Z" fill="white"/>
<path d="M44.6061 72.4849H41.8182V75.2727H44.6061V72.4849Z" fill="white"/>
<path d="M44.6061 78.0605H41.8182V80.8484H44.6061V78.0605Z" fill="white"/>
<path d="M44.6061 83.6364H41.8182V86.4242H44.6061V83.6364Z" fill="white"/>
<path d="M44.6061 86.4242H41.8182V89.2121H44.6061V86.4242Z" fill="white"/>
<path d="M44.6061 89.2122H41.8182V92H44.6061V89.2122Z" fill="white"/>
<path d="M47.394 2.78784H44.6061V5.57572H47.394V2.78784Z" fill="white"/>
<path d="M47.394 11.1515H44.6061V13.9394H47.394V11.1515Z" fill="white"/>
<path d="M47.394 13.9395H44.6061V16.7273H47.394V13.9395Z" fill="white"/>
<path d="M47.394 16.7273H44.6061V19.5152H47.394V16.7273Z" fill="white"/>
<path d="M47.394 19.5151H44.6061V22.303H47.394V19.5151Z" fill="white"/>
<path d="M47.394 22.303H44.6061V25.0909H47.394V22.303Z" fill="white"/>
<path d="M47.394 27.8788H44.6061V30.6667H47.394V27.8788Z" fill="white"/>
<path d="M47.394 61.3334H44.6061V64.1212H47.394V61.3334Z" fill="white"/>
<path d="M47.394 64.1212H44.6061V66.9091H47.394V64.1212Z" fill="white"/>
<path d="M47.394 69.697H44.6061V72.4849H47.394V69.697Z" fill="white"/>
<path d="M47.394 72.4849H44.6061V75.2727H47.394V72.4849Z" fill="white"/>
<path d="M47.394 75.2727H44.6061V78.0606H47.394V75.2727Z" fill="white"/>
<path d="M47.394 83.6364H44.6061V86.4242H47.394V83.6364Z" fill="white"/>
<path d="M50.1818 5.57581H47.3939V8.36368H50.1818V5.57581Z" fill="white"/>
<path d="M50.1818 19.5151H47.3939V22.303H50.1818V19.5151Z" fill="white"/>
<path d="M50.1818 25.0909H47.3939V27.8788H50.1818V25.0909Z" fill="white"/>
<path d="M50.1818 27.8788H47.3939V30.6667H50.1818V27.8788Z" fill="white"/>
<path d="M50.1818 72.4849H47.3939V75.2727H50.1818V72.4849Z" fill="white"/>
<path d="M50.1818 80.8485H47.3939V83.6364H50.1818V80.8485Z" fill="white"/>
<path d="M50.1818 83.6364H47.3939V86.4242H50.1818V83.6364Z" fill="white"/>
<path d="M50.1818 86.4242H47.3939V89.2121H50.1818V86.4242Z" fill="white"/>
<path d="M52.9697 11.1515H50.1818V13.9394H52.9697V11.1515Z" fill="white"/>
<path d="M52.9697 13.9395H50.1818V16.7273H52.9697V13.9395Z" fill="white"/>
<path d="M52.9697 16.7273H50.1818V19.5152H52.9697V16.7273Z" fill="white"/>
<path d="M52.9697 19.5151H50.1818V22.303H52.9697V19.5151Z" fill="white"/>
<path d="M52.9697 22.303H50.1818V25.0909H52.9697V22.303Z" fill="white"/>
<path d="M52.9697 27.8788H50.1818V30.6667H52.9697V27.8788Z" fill="white"/>
<path d="M52.9697 72.4849H50.1818V75.2727H52.9697V72.4849Z" fill="white"/>
<path d="M52.9697 83.6364H50.1818V86.4242H52.9697V83.6364Z" fill="white"/>
<path d="M52.9697 89.2122H50.1818V92H52.9697V89.2122Z" fill="white"/>
<path d="M55.7576 0H52.9697V2.78788H55.7576V0Z" fill="white"/>
<path d="M55.7576 5.57581H52.9697V8.36368H55.7576V5.57581Z" fill="white"/>
<path d="M55.7576 61.3334H52.9697V64.1212H55.7576V61.3334Z" fill="white"/>
<path d="M55.7576 75.2727H52.9697V78.0606H55.7576V75.2727Z" fill="white"/>
<path d="M55.7576 78.0605H52.9697V80.8484H55.7576V78.0605Z" fill="white"/>
<path d="M55.7576 86.4242H52.9697V89.2121H55.7576V86.4242Z" fill="white"/>
<path d="M58.5454 8.36365H55.7576V11.1515H58.5454V8.36365Z" fill="white"/>
<path d="M58.5454 11.1515H55.7576V13.9394H58.5454V11.1515Z" fill="white"/>
<path d="M58.5454 13.9395H55.7576V16.7273H58.5454V13.9395Z" fill="white"/>
<path d="M58.5454 16.7273H55.7576V19.5152H58.5454V16.7273Z" fill="white"/>
<path d="M58.5454 19.5151H55.7576V22.303H58.5454V19.5151Z" fill="white"/>
<path d="M58.5454 22.303H55.7576V25.0909H58.5454V22.303Z" fill="white"/>
<path d="M58.5454 25.0909H55.7576V27.8788H58.5454V25.0909Z" fill="white"/>
<path d="M58.5454 27.8788H55.7576V30.6667H58.5454V27.8788Z" fill="white"/>
<path d="M58.5454 66.9091H55.7576V69.6969H58.5454V66.9091Z" fill="white"/>
<path d="M58.5454 72.4849H55.7576V75.2727H58.5454V72.4849Z" fill="white"/>
<path d="M58.5454 75.2727H55.7576V78.0606H58.5454V75.2727Z" fill="white"/>
<path d="M58.5454 80.8485H55.7576V83.6364H58.5454V80.8485Z" fill="white"/>
<path d="M58.5454 86.4242H55.7576V89.2121H58.5454V86.4242Z" fill="white"/>
<path d="M58.5454 89.2122H55.7576V92H58.5454V89.2122Z" fill="white"/>
<path d="M61.3334 19.5151H58.5455V22.303H61.3334V19.5151Z" fill="white"/>
<path d="M61.3334 64.1212H58.5455V66.9091H61.3334V64.1212Z" fill="white"/>
<path d="M61.3334 66.9091H58.5455V69.6969H61.3334V66.9091Z" fill="white"/>
<path d="M61.3334 86.4242H58.5455V89.2121H61.3334V86.4242Z" fill="white"/>
<path d="M61.3334 89.2122H58.5455V92H61.3334V89.2122Z" fill="white"/>
<path d="M64.1212 0H61.3333V2.78788H64.1212V0Z" fill="white"/>
<path d="M64.1212 5.57581H61.3333V8.36368H64.1212V5.57581Z" fill="white"/>
<path d="M64.1212 8.36365H61.3333V11.1515H64.1212V8.36365Z" fill="white"/>
<path d="M64.1212 16.7273H61.3333V19.5152H64.1212V16.7273Z" fill="white"/>
<path d="M64.1212 25.0909H61.3333V27.8788H64.1212V25.0909Z" fill="white"/>
<path d="M64.1212 27.8788H61.3333V30.6667H64.1212V27.8788Z" fill="white"/>
<path d="M64.1212 30.6666H61.3333V33.4545H64.1212V30.6666Z" fill="white"/>
<path d="M64.1212 33.4546H61.3333V36.2425H64.1212V33.4546Z" fill="white"/>
<path d="M64.1212 36.2424H61.3333V39.0303H64.1212V36.2424Z" fill="white"/>
<path d="M64.1212 41.8182H61.3333V44.6061H64.1212V41.8182Z" fill="white"/>
<path d="M64.1212 50.1818H61.3333V52.9696H64.1212V50.1818Z" fill="white"/>
<path d="M64.1212 52.9697H61.3333V55.7576H64.1212V52.9697Z" fill="white"/>
<path d="M64.1212 58.5454H61.3333V61.3333H64.1212V58.5454Z" fill="white"/>
<path d="M64.1212 61.3334H61.3333V64.1212H64.1212V61.3334Z" fill="white"/>
<path d="M64.1212 64.1212H61.3333V66.9091H64.1212V64.1212Z" fill="white"/>
<path d="M64.1212 66.9091H61.3333V69.6969H64.1212V66.9091Z" fill="white"/>
<path d="M64.1212 72.4849H61.3333V75.2727H64.1212V72.4849Z" fill="white"/>
<path d="M64.1212 75.2727H61.3333V78.0606H64.1212V75.2727Z" fill="white"/>
<path d="M64.1212 78.0605H61.3333V80.8484H64.1212V78.0605Z" fill="white"/>
<path d="M64.1212 80.8485H61.3333V83.6364H64.1212V80.8485Z" fill="white"/>
<path d="M64.1212 83.6364H61.3333V86.4242H64.1212V83.6364Z" fill="white"/>
<path d="M64.1212 89.2122H61.3333V92H64.1212V89.2122Z" fill="white"/>
<path d="M66.9091 2.78784H64.1212V5.57572H66.9091V2.78784Z" fill="white"/>
<path d="M66.9091 11.1515H64.1212V13.9394H66.9091V11.1515Z" fill="white"/>
<path d="M66.9091 13.9395H64.1212V16.7273H66.9091V13.9395Z" fill="white"/>
<path d="M66.9091 22.303H64.1212V25.0909H66.9091V22.303Z" fill="white"/>
<path d="M66.9091 33.4546H64.1212V36.2425H66.9091V33.4546Z" fill="white"/>
<path d="M66.9091 36.2424H64.1212V39.0303H66.9091V36.2424Z" fill="white"/>
<path d="M66.9091 39.0303H64.1212V41.8182H66.9091V39.0303Z" fill="white"/>
<path d="M66.9091 41.8182H64.1212V44.6061H66.9091V41.8182Z" fill="white"/>
<path d="M66.9091 47.3939H64.1212V50.1818H66.9091V47.3939Z" fill="white"/>
<path d="M66.9091 50.1818H64.1212V52.9696H66.9091V50.1818Z" fill="white"/>
<path d="M66.9091 52.9697H64.1212V55.7576H66.9091V52.9697Z" fill="white"/>
<path d="M66.9091 55.7576H64.1212V58.5454H66.9091V55.7576Z" fill="white"/>
<path d="M66.9091 58.5454H64.1212V61.3333H66.9091V58.5454Z" fill="white"/>
<path d="M66.9091 61.3334H64.1212V64.1212H66.9091V61.3334Z" fill="white"/>
<path d="M66.9091 66.9091H64.1212V69.6969H66.9091V66.9091Z" fill="white"/>
<path d="M66.9091 69.697H64.1212V72.4849H66.9091V69.697Z" fill="white"/>
<path d="M66.9091 78.0605H64.1212V80.8484H66.9091V78.0605Z" fill="white"/>
<path d="M66.9091 80.8485H64.1212V83.6364H66.9091V80.8485Z" fill="white"/>
<path d="M69.697 0H66.9091V2.78788H69.697V0Z" fill="white"/>
<path d="M69.697 8.36365H66.9091V11.1515H69.697V8.36365Z" fill="white"/>
<path d="M69.697 13.9395H66.9091V16.7273H69.697V13.9395Z" fill="white"/>
<path d="M69.697 16.7273H66.9091V19.5152H69.697V16.7273Z" fill="white"/>
<path d="M69.697 19.5151H66.9091V22.303H69.697V19.5151Z" fill="white"/>
<path d="M69.697 25.0909H66.9091V27.8788H69.697V25.0909Z" fill="white"/>
<path d="M69.697 30.6666H66.9091V33.4545H69.697V30.6666Z" fill="white"/>
<path d="M69.697 33.4546H66.9091V36.2425H69.697V33.4546Z" fill="white"/>
<path d="M69.697 36.2424H66.9091V39.0303H69.697V36.2424Z" fill="white"/>
<path d="M69.697 39.0303H66.9091V41.8182H69.697V39.0303Z" fill="white"/>
<path d="M69.697 44.6061H66.9091V47.394H69.697V44.6061Z" fill="white"/>
<path d="M69.697 52.9697H66.9091V55.7576H69.697V52.9697Z" fill="white"/>
<path d="M69.697 58.5454H66.9091V61.3333H69.697V58.5454Z" fill="white"/>
<path d="M69.697 61.3334H66.9091V64.1212H69.697V61.3334Z" fill="white"/>
<path d="M69.697 64.1212H66.9091V66.9091H69.697V64.1212Z" fill="white"/>
<path d="M69.697 66.9091H66.9091V69.6969H69.697V66.9091Z" fill="white"/>
<path d="M69.697 69.697H66.9091V72.4849H69.697V69.697Z" fill="white"/>
<path d="M69.697 72.4849H66.9091V75.2727H69.697V72.4849Z" fill="white"/>
<path d="M69.697 75.2727H66.9091V78.0606H69.697V75.2727Z" fill="white"/>
<path d="M69.697 78.0605H66.9091V80.8484H69.697V78.0605Z" fill="white"/>
<path d="M69.697 86.4242H66.9091V89.2121H69.697V86.4242Z" fill="white"/>
<path d="M72.4848 22.303H69.697V25.0909H72.4848V22.303Z" fill="white"/>
<path d="M72.4848 25.0909H69.697V27.8788H72.4848V25.0909Z" fill="white"/>
<path d="M72.4848 30.6666H69.697V33.4545H72.4848V30.6666Z" fill="white"/>
<path d="M72.4848 36.2424H69.697V39.0303H72.4848V36.2424Z" fill="white"/>
<path d="M72.4848 41.8182H69.697V44.6061H72.4848V41.8182Z" fill="white"/>
<path d="M72.4848 52.9697H69.697V55.7576H72.4848V52.9697Z" fill="white"/>
<path d="M72.4848 55.7576H69.697V58.5454H72.4848V55.7576Z" fill="white"/>
<path d="M72.4848 58.5454H69.697V61.3333H72.4848V58.5454Z" fill="white"/>
<path d="M72.4848 61.3334H69.697V64.1212H72.4848V61.3334Z" fill="white"/>
<path d="M72.4848 66.9091H69.697V69.6969H72.4848V66.9091Z" fill="white"/>
<path d="M72.4848 78.0605H69.697V80.8484H72.4848V78.0605Z" fill="white"/>
<path d="M72.4848 86.4242H69.697V89.2121H72.4848V86.4242Z" fill="white"/>
<path d="M72.4848 89.2122H69.697V92H72.4848V89.2122Z" fill="white"/>
<path d="M75.2727 30.6666H72.4849V33.4545H75.2727V30.6666Z" fill="white"/>
<path d="M75.2727 36.2424H72.4849V39.0303H75.2727V36.2424Z" fill="white"/>
<path d="M75.2727 39.0303H72.4849V41.8182H75.2727V39.0303Z" fill="white"/>
<path d="M75.2727 52.9697H72.4849V55.7576H75.2727V52.9697Z" fill="white"/>
<path d="M75.2727 55.7576H72.4849V58.5454H75.2727V55.7576Z" fill="white"/>
<path d="M75.2727 61.3334H72.4849V64.1212H75.2727V61.3334Z" fill="white"/>
<path d="M75.2727 64.1212H72.4849V66.9091H75.2727V64.1212Z" fill="white"/>
<path d="M75.2727 66.9091H72.4849V69.6969H75.2727V66.9091Z" fill="white"/>
<path d="M75.2727 72.4849H72.4849V75.2727H75.2727V72.4849Z" fill="white"/>
<path d="M75.2727 78.0605H72.4849V80.8484H75.2727V78.0605Z" fill="white"/>
<path d="M75.2727 86.4242H72.4849V89.2121H75.2727V86.4242Z" fill="white"/>
<path d="M75.2727 89.2122H72.4849V92H75.2727V89.2122Z" fill="white"/>
<path d="M78.0606 22.303H75.2727V25.0909H78.0606V22.303Z" fill="white"/>
<path d="M78.0606 25.0909H75.2727V27.8788H78.0606V25.0909Z" fill="white"/>
<path d="M78.0606 27.8788H75.2727V30.6667H78.0606V27.8788Z" fill="white"/>
<path d="M78.0606 30.6666H75.2727V33.4545H78.0606V30.6666Z" fill="white"/>
<path d="M78.0606 39.0303H75.2727V41.8182H78.0606V39.0303Z" fill="white"/>
<path d="M78.0606 44.6061H75.2727V47.394H78.0606V44.6061Z" fill="white"/>
<path d="M78.0606 47.3939H75.2727V50.1818H78.0606V47.3939Z" fill="white"/>
<path d="M78.0606 50.1818H75.2727V52.9696H78.0606V50.1818Z" fill="white"/>
<path d="M78.0606 52.9697H75.2727V55.7576H78.0606V52.9697Z" fill="white"/>
<path d="M78.0606 55.7576H75.2727V58.5454H78.0606V55.7576Z" fill="white"/>
<path d="M78.0606 58.5454H75.2727V61.3333H78.0606V58.5454Z" fill="white"/>
<path d="M78.0606 61.3334H75.2727V64.1212H78.0606V61.3334Z" fill="white"/>
<path d="M78.0606 64.1212H75.2727V66.9091H78.0606V64.1212Z" fill="white"/>
<path d="M78.0606 66.9091H75.2727V69.6969H78.0606V66.9091Z" fill="white"/>
<path d="M78.0606 78.0605H75.2727V80.8484H78.0606V78.0605Z" fill="white"/>
<path d="M78.0606 89.2122H75.2727V92H78.0606V89.2122Z" fill="white"/>
<path d="M80.8485 22.303H78.0606V25.0909H80.8485V22.303Z" fill="white"/>
<path d="M80.8485 25.0909H78.0606V27.8788H80.8485V25.0909Z" fill="white"/>
<path d="M80.8485 36.2424H78.0606V39.0303H80.8485V36.2424Z" fill="white"/>
<path d="M80.8485 39.0303H78.0606V41.8182H80.8485V39.0303Z" fill="white"/>
<path d="M80.8485 44.6061H78.0606V47.394H80.8485V44.6061Z" fill="white"/>
<path d="M80.8485 55.7576H78.0606V58.5454H80.8485V55.7576Z" fill="white"/>
<path d="M80.8485 61.3334H78.0606V64.1212H80.8485V61.3334Z" fill="white"/>
<path d="M80.8485 66.9091H78.0606V69.6969H80.8485V66.9091Z" fill="white"/>
<path d="M80.8485 69.697H78.0606V72.4849H80.8485V69.697Z" fill="white"/>
<path d="M80.8485 72.4849H78.0606V75.2727H80.8485V72.4849Z" fill="white"/>
<path d="M80.8485 75.2727H78.0606V78.0606H80.8485V75.2727Z" fill="white"/>
<path d="M80.8485 78.0605H78.0606V80.8484H80.8485V78.0605Z" fill="white"/>
<path d="M80.8485 80.8485H78.0606V83.6364H80.8485V80.8485Z" fill="white"/>
<path d="M80.8485 83.6364H78.0606V86.4242H80.8485V83.6364Z" fill="white"/>
<path d="M80.8485 86.4242H78.0606V89.2121H80.8485V86.4242Z" fill="white"/>
<path d="M83.6364 25.0909H80.8485V27.8788H83.6364V25.0909Z" fill="white"/>
<path d="M83.6364 27.8788H80.8485V30.6667H83.6364V27.8788Z" fill="white"/>
<path d="M83.6364 33.4546H80.8485V36.2425H83.6364V33.4546Z" fill="white"/>
<path d="M83.6364 36.2424H80.8485V39.0303H83.6364V36.2424Z" fill="white"/>
<path d="M83.6364 41.8182H80.8485V44.6061H83.6364V41.8182Z" fill="white"/>
<path d="M83.6364 44.6061H80.8485V47.394H83.6364V44.6061Z" fill="white"/>
<path d="M83.6364 61.3334H80.8485V64.1212H83.6364V61.3334Z" fill="white"/>
<path d="M83.6364 64.1212H80.8485V66.9091H83.6364V64.1212Z" fill="white"/>
<path d="M83.6364 78.0605H80.8485V80.8484H83.6364V78.0605Z" fill="white"/>
<path d="M83.6364 80.8485H80.8485V83.6364H83.6364V80.8485Z" fill="white"/>
<path d="M86.4242 22.303H83.6364V25.0909H86.4242V22.303Z" fill="white"/>
<path d="M86.4242 25.0909H83.6364V27.8788H86.4242V25.0909Z" fill="white"/>
<path d="M86.4242 27.8788H83.6364V30.6667H86.4242V27.8788Z" fill="white"/>
<path d="M86.4242 33.4546H83.6364V36.2425H86.4242V33.4546Z" fill="white"/>
<path d="M86.4242 39.0303H83.6364V41.8182H86.4242V39.0303Z" fill="white"/>
<path d="M86.4242 41.8182H83.6364V44.6061H86.4242V41.8182Z" fill="white"/>
<path d="M86.4242 44.6061H83.6364V47.394H86.4242V44.6061Z" fill="white"/>
<path d="M86.4242 50.1818H83.6364V52.9696H86.4242V50.1818Z" fill="white"/>
<path d="M86.4242 52.9697H83.6364V55.7576H86.4242V52.9697Z" fill="white"/>
<path d="M86.4242 58.5454H83.6364V61.3333H86.4242V58.5454Z" fill="white"/>
<path d="M86.4242 64.1212H83.6364V66.9091H86.4242V64.1212Z" fill="white"/>
<path d="M86.4242 66.9091H83.6364V69.6969H86.4242V66.9091Z" fill="white"/>
<path d="M86.4242 69.697H83.6364V72.4849H86.4242V69.697Z" fill="white"/>
<path d="M86.4242 75.2727H83.6364V78.0606H86.4242V75.2727Z" fill="white"/>
<path d="M86.4242 78.0605H83.6364V80.8484H86.4242V78.0605Z" fill="white"/>
<path d="M86.4242 80.8485H83.6364V83.6364H86.4242V80.8485Z" fill="white"/>
<path d="M86.4242 83.6364H83.6364V86.4242H86.4242V83.6364Z" fill="white"/>
<path d="M86.4242 89.2122H83.6364V92H86.4242V89.2122Z" fill="white"/>
<path d="M89.2121 25.0909H86.4243V27.8788H89.2121V25.0909Z" fill="white"/>
<path d="M89.2121 27.8788H86.4243V30.6667H89.2121V27.8788Z" fill="white"/>
<path d="M89.2121 30.6666H86.4243V33.4545H89.2121V30.6666Z" fill="white"/>
<path d="M89.2121 33.4546H86.4243V36.2425H89.2121V33.4546Z" fill="white"/>
<path d="M89.2121 39.0303H86.4243V41.8182H89.2121V39.0303Z" fill="white"/>
<path d="M89.2121 44.6061H86.4243V47.394H89.2121V44.6061Z" fill="white"/>
<path d="M89.2121 50.1818H86.4243V52.9696H89.2121V50.1818Z" fill="white"/>
<path d="M89.2121 64.1212H86.4243V66.9091H89.2121V64.1212Z" fill="white"/>
<path d="M89.2121 66.9091H86.4243V69.6969H89.2121V66.9091Z" fill="white"/>
<path d="M89.2121 69.697H86.4243V72.4849H89.2121V69.697Z" fill="white"/>
<path d="M89.2121 75.2727H86.4243V78.0606H89.2121V75.2727Z" fill="white"/>
<path d="M89.2121 80.8485H86.4243V83.6364H89.2121V80.8485Z" fill="white"/>
<path d="M89.2121 86.4242H86.4243V89.2121H89.2121V86.4242Z" fill="white"/>
<path d="M92 33.4546H89.2122V36.2425H92V33.4546Z" fill="white"/>
<path d="M92 36.2424H89.2122V39.0303H92V36.2424Z" fill="white"/>
<path d="M92 39.0303H89.2122V41.8182H92V39.0303Z" fill="white"/>
<path d="M92 41.8182H89.2122V44.6061H92V41.8182Z" fill="white"/>
<path d="M92 44.6061H89.2122V47.394H92V44.6061Z" fill="white"/>
<path d="M92 55.7576H89.2122V58.5454H92V55.7576Z" fill="white"/>
<path d="M92 66.9091H89.2122V69.6969H92V66.9091Z" fill="white"/>
<path d="M92 75.2727H89.2122V78.0606H92V75.2727Z" fill="white"/>
<path d="M92 78.0605H89.2122V80.8484H92V78.0605Z" fill="white"/>
<path d="M92 80.8485H89.2122V83.6364H92V80.8485Z" fill="white"/>
<path d="M92 83.6364H89.2122V86.4242H92V83.6364Z" fill="white"/>
<path d="M92 86.4242H89.2122V89.2121H92V86.4242Z" fill="white"/>
<path d="M92 89.2122H89.2122V92H92V89.2122Z" fill="white"/>
<path d="M0 2.78788V16.7273C0 18.2663 1.24884 19.5152 2.78788 19.5152H16.7273C18.2663 19.5152 19.5152 18.2663 19.5152 16.7273V2.78788C19.5152 1.24884 18.2663 0 16.7273 0H2.78788C1.24884 0 0 1.24884 0 2.78788ZM4.18345 2.78788H15.335C16.1045 2.78788 16.7273 3.41067 16.7273 4.18019V15.3317C16.7273 16.1012 16.1045 16.724 15.335 16.724H4.18345C3.41393 16.724 2.79114 16.1012 2.79114 15.3317V4.18345C2.79114 3.41393 3.41393 2.79114 4.18345 2.79114V2.78788Z" fill="white"/>
<path d="M11.8493 5.57581H7.66584C6.51151 5.57581 5.57574 6.51157 5.57574 7.6659V11.8493C5.57574 13.0037 6.51151 13.9394 7.66584 13.9394H11.8493C13.0036 13.9394 13.9394 13.0037 13.9394 11.8493V7.6659C13.9394 6.51157 13.0036 5.57581 11.8493 5.57581Z" fill="white"/>
<path d="M89.2121 0H75.2727C73.7337 0 72.4849 1.24884 72.4849 2.78788V16.7273C72.4849 18.2663 73.7337 19.5152 75.2727 19.5152H89.2121C90.7512 19.5152 92 18.2663 92 16.7273V2.78788C92 1.24884 90.7512 0 89.2121 0ZM89.2121 4.18019V15.3317C89.2121 16.1012 88.5893 16.724 87.8198 16.724H76.6683C75.8988 16.724 75.276 16.1012 75.276 15.3317V4.18019C75.276 3.41067 75.8988 2.78788 76.6683 2.78788H87.8198C88.5893 2.78788 89.2121 3.41067 89.2121 4.18019Z" fill="white"/>
<path d="M84.3342 5.57581H80.1507C78.9964 5.57581 78.0606 6.51157 78.0606 7.6659V11.8493C78.0606 13.0037 78.9964 13.9394 80.1507 13.9394H84.3342C85.4885 13.9394 86.4242 13.0037 86.4242 11.8493V7.6659C86.4242 6.51157 85.4885 5.57581 84.3342 5.57581Z" fill="white"/>
<path d="M2.78788 92H16.7273C18.2663 92 19.5152 90.7512 19.5152 89.2121V75.2727C19.5152 73.7337 18.2663 72.4849 16.7273 72.4849H2.78788C1.24884 72.4849 0 73.7337 0 75.2727V89.2121C0 90.7512 1.24884 92 2.78788 92ZM2.78788 87.8198V76.6683C2.78788 75.8988 3.41067 75.276 4.18019 75.276H15.3317C16.1012 75.276 16.724 75.8988 16.724 76.6683V87.8198C16.724 88.5893 16.1012 89.2121 15.3317 89.2121H4.18019C3.41067 89.2121 2.78788 88.5893 2.78788 87.8198Z" fill="white"/>
<path d="M11.8493 78.0605H7.66584C6.51151 78.0605 5.57574 78.9963 5.57574 80.1506V84.3341C5.57574 85.4884 6.51151 86.4242 7.66584 86.4242H11.8493C13.0036 86.4242 13.9394 85.4884 13.9394 84.3341V80.1506C13.9394 78.9963 13.0036 78.0605 11.8493 78.0605Z" fill="white"/>
<g clip-path="url(#clip1_347_12182)">
<path opacity="0.39" d="M48.1506 58.988C48.0362 58.991 47.9218 58.997 47.8074 58.997C44.3124 58.997 40.8204 59 37.3253 58.997C34.8087 58.994 32.7135 57.3264 32.1355 54.8793C32.0421 54.491 32 54.0967 32 53.6993C32 48.2391 32 42.7789 32 37.3187C32.003 34.3599 34.3451 32.0121 37.3103 32.006C42.7711 31.997 48.2319 31.997 53.6927 32.006C56.7814 32.0121 59.1505 34.5405 58.991 37.6378C58.8706 37.695 58.7742 37.6198 58.6749 37.5746C58.4611 37.4813 58.2534 37.3759 58.0246 37.3157C57.534 37.1532 57.0403 37.0027 56.5435 36.8612C56.4081 36.8221 56.2696 36.807 56.1341 36.7649C55.9806 36.7167 55.8211 36.6957 55.6645 36.6565C55.5622 36.6174 55.4508 36.6295 55.3454 36.6024C55.1979 36.5693 55.0534 36.5301 54.9029 36.5211C54.7795 36.5121 54.653 36.5361 54.5326 36.482C54.5115 36.4669 54.4935 36.4488 54.4844 36.4218C54.4935 36.3856 54.5085 36.3616 54.5507 36.3796C54.5386 36.3254 54.5055 36.3706 54.4935 36.3766C54.4242 36.4037 54.355 36.4368 54.2797 36.4519C54.1473 36.4729 54.0178 36.4639 53.8854 36.4669C53.5843 36.4669 53.2833 36.4669 52.9823 36.4669C52.7565 36.4759 52.5277 36.4398 52.3019 36.491C52.2598 36.503 52.2176 36.509 52.1725 36.5121C52.0641 36.5151 51.9527 36.5181 51.8444 36.5C51.754 36.482 51.6607 36.4338 51.5704 36.5C51.5493 36.5151 51.5283 36.5271 51.5042 36.5361C51.456 36.5572 51.4048 36.5662 51.3537 36.5783C51.0978 36.6355 50.8329 36.6445 50.577 36.7107C49.9087 36.8131 49.2645 37.0117 48.6172 37.1923C47.6599 37.4452 46.7478 37.8184 45.8447 38.2187C44.1408 38.9743 42.5423 39.9194 41.001 40.9609C40.5525 41.2619 40.1551 41.6201 39.842 42.0656C39.7457 42.204 39.6764 42.3545 39.6283 42.5171C39.5259 42.8572 39.5922 43.0499 39.8842 43.2696C39.9775 43.3358 40.0979 43.3629 40.1581 43.4713C40.1671 43.5977 40.0738 43.6609 39.9895 43.7211C39.7577 43.8927 39.5922 44.1184 39.4386 44.3562C39.0473 44.6963 38.6078 44.9763 38.2254 45.3284C37.0032 46.4572 35.8713 47.6552 35.2241 49.2234C35.1187 49.4763 35.0646 49.7442 35.0284 50.0151C34.9863 50.3281 35.1067 50.602 35.2663 50.8609C35.3024 50.9813 35.2903 51.1047 35.2903 51.2281C35.2964 51.7338 35.5161 52.0318 36.0038 52.1703C36.4674 52.2997 36.937 52.2997 37.4096 52.2154C38.0749 52.098 38.6921 51.8512 39.2821 51.5291C39.3724 51.481 39.4717 51.3786 39.5861 51.496C39.5922 51.8241 39.4808 52.1341 39.4236 52.4532C39.2821 53.2087 39.246 53.9733 39.264 54.7378C39.264 54.807 39.267 54.8793 39.255 54.9485C39.2249 55.0779 39.1797 55.2044 39.2339 55.3398C39.252 55.3759 39.267 55.4121 39.2791 55.4512C39.2851 55.4783 39.2881 55.5054 39.2851 55.5325C39.255 56.0562 39.3724 56.5499 39.6403 56.9983C39.827 57.3114 40.128 57.3897 40.4652 57.2602C40.7451 57.1519 40.9619 56.9592 41.1545 56.7395C41.8078 55.996 42.3707 55.1863 42.9126 54.3616C43.3852 53.6392 43.8458 52.9077 44.4057 52.2485C44.6466 51.9656 44.9024 51.7007 45.2547 51.5502C45.5918 51.4027 45.8898 51.4629 46.1578 51.7037C46.3625 51.8873 46.519 52.104 46.6334 52.3599C47.2355 53.7054 47.5486 55.1351 47.8315 56.5709C47.967 57.2632 48.0814 57.9585 48.1807 58.6569C48.1958 58.7682 48.2289 58.8826 48.1416 58.985L48.1506 58.988Z" fill="#421961"/>
<path d="M58.991 41.3733C58.991 42.0957 58.991 42.8211 58.991 43.5435C58.7471 43.6729 58.4732 43.6248 58.2173 43.6519C57.4707 43.7301 56.7272 43.8144 55.9927 43.9559C54.6019 44.2238 53.2592 44.6482 51.9588 45.2081C50.0863 46.0148 48.3915 47.1014 46.8712 48.4499C45.1463 49.979 43.7134 51.7459 42.6326 53.7837C42.2864 54.4368 41.9493 55.096 41.4887 55.68C41.4405 55.7432 41.4074 55.8154 41.3713 55.9027C41.4255 55.8515 41.4646 55.7883 41.5399 55.8335C41.582 55.9087 41.5459 55.9719 41.4977 56.0231C41.2418 56.3121 40.9679 56.583 40.5976 56.7305C40.2243 56.881 39.8962 56.7877 39.6765 56.4716C39.5169 56.1134 39.3273 55.7673 39.3453 55.3579C39.5651 54.9094 39.7517 54.4459 39.9624 53.9913C40.7421 52.3027 41.7235 50.7345 42.8945 49.2927C43.5719 48.4589 44.3154 47.6823 45.1192 46.9629C45.8507 46.3097 46.6123 45.6987 47.4161 45.1418C48.4998 44.3923 49.6498 43.7602 50.8449 43.2154C52.2628 42.5683 53.7409 42.1047 55.2611 41.7766C56.2786 41.5569 57.3052 41.4034 58.3468 41.3612C58.5605 41.3522 58.7772 41.2288 58.988 41.3763L58.991 41.3733Z" fill="#ED9F14"/>
<path d="M58.0457 37.2526C58.3618 37.382 58.6779 37.5114 58.991 37.6378C58.991 38.282 58.991 38.9292 58.991 39.5733C58.8284 39.6787 58.6418 39.6847 58.4581 39.6907C56.5466 39.784 54.6831 40.1211 52.8528 40.675C51.7089 41.0181 50.6101 41.4696 49.5354 41.9813C48.1567 42.6375 46.8682 43.4532 45.64 44.3653C44.6104 45.1298 43.6682 45.9907 42.7862 46.9178C42.0817 47.6582 41.4074 48.4258 40.8144 49.2626C40.6879 49.4432 40.5705 49.6298 40.3899 49.7653C40.3207 49.8104 40.2454 49.8375 40.1671 49.8616C39.7818 50.1024 39.4386 50.4064 39.0262 50.6051C38.4271 50.894 37.8221 51.1679 37.1417 51.2131C36.8708 51.1168 36.8618 51.1047 37.0604 50.9362C37.3795 50.6623 37.5361 50.283 37.7438 49.9368C38.4271 48.8021 39.1978 47.7305 40.0437 46.7101C40.8595 45.7228 41.7506 44.8077 42.7019 43.9529C43.608 43.1402 44.5803 42.4118 45.5948 41.7315C47.5034 40.4522 49.5565 39.4619 51.736 38.7455C53.3646 38.2098 55.0293 37.8275 56.7392 37.6499C57.0463 37.6168 57.3473 37.5536 57.6574 37.5475C57.7628 37.5475 57.85 37.5114 57.8802 37.4001C57.9012 37.3098 57.9705 37.2766 58.0487 37.2556L58.0457 37.2526Z" fill="#F0A613"/>
<path d="M40.3658 49.7381C41.3321 48.4077 42.3918 47.1555 43.5839 46.0177C44.7308 44.9221 45.9892 43.9739 47.3288 43.1281C47.9519 42.7338 48.5931 42.3666 49.2524 42.0445C50.875 41.2528 52.5488 40.6057 54.3189 40.2084C55.2671 39.9946 56.2244 39.8441 57.1877 39.7207C57.7898 39.6425 58.3949 39.6455 58.994 39.5732C58.994 40.1722 58.994 40.7742 58.994 41.3732C58.2955 41.4244 57.6002 41.4876 56.9018 41.5719C56.0378 41.6773 55.1888 41.8518 54.349 42.0655C52.9822 42.4117 51.6667 42.8963 50.3903 43.5013C49.0838 44.1244 47.8526 44.8709 46.6966 45.7348C45.6671 46.5023 44.7098 47.3632 43.8367 48.3084C42.2262 50.0542 40.9408 52.0167 39.9474 54.1719C39.8299 54.4278 39.7095 54.6836 39.6313 54.9515C39.5861 55.111 39.3934 55.1712 39.4085 55.3518C39.27 55.3278 39.2941 55.2134 39.2881 55.1231C39.1917 54.1087 39.3031 53.1064 39.5078 52.113C39.6614 51.3635 39.8691 50.6291 40.1882 49.9278C40.2303 49.8495 40.2905 49.7863 40.3628 49.7381H40.3658Z" fill="#EEA214"/>
<path d="M49.3127 58.988L49.2886 58.994L49.2645 58.988C49.2464 58.9729 49.2284 58.9519 49.2193 58.9278C49.2043 58.8796 49.2103 58.8315 49.2254 58.7833C49.2314 58.7682 49.2434 58.7532 49.2464 58.7381C49.2525 58.7171 49.2976 58.705 49.2675 58.6719C49.2555 58.699 49.2314 58.696 49.2043 58.693C49.1802 58.6779 49.1621 58.6629 49.1471 58.6388C49.0297 58.2716 49.0116 57.8833 48.9454 57.507C48.825 56.8177 48.7256 56.1284 48.6052 55.4391C48.6052 55.3308 48.6413 55.2345 48.7076 55.1442C50.1375 53.2448 51.8895 51.7278 54.06 50.7284C55.3906 50.1144 56.7844 49.7141 58.2444 49.5575C58.4943 49.5304 58.7472 49.4311 58.991 49.5756C58.991 50.3341 58.991 51.0927 58.991 51.8512C58.7833 51.9806 58.5455 51.9264 58.3227 51.9565C56.083 52.2636 54.1202 53.1636 52.4133 54.6385C51.2032 55.689 50.285 56.9562 49.6047 58.401C49.5113 58.5997 49.4873 58.8284 49.3097 58.985L49.3127 58.988Z" fill="#E69017"/>
<path d="M41.5429 55.8395C41.4736 55.8726 41.4074 55.9087 41.3291 55.9478C41.287 55.6859 41.4857 55.5204 41.6121 55.3759C42.157 54.7468 42.4068 53.9552 42.8313 53.2599C43.3762 52.3689 43.9512 51.499 44.6164 50.6953C45.071 50.1475 45.5376 49.6087 46.0464 49.115C47.2415 47.9562 48.551 46.9418 49.996 46.111C51.7781 45.0876 53.6777 44.3742 55.6826 43.9408C56.3388 43.7993 57.0041 43.694 57.6784 43.6428C58.1149 43.6097 58.5484 43.5284 58.9879 43.5435C58.9879 44.001 58.9879 44.4615 58.9879 44.9191C58.8435 45.0334 58.6628 44.9973 58.5033 45.0063C56.5556 45.1267 54.6891 45.5963 52.8859 46.3217C51.5885 46.8425 50.3753 47.5288 49.2344 48.3415C48.3704 48.9555 47.5756 49.6538 46.8441 50.4214C46.7357 50.4696 46.6575 50.3943 46.5792 50.3461C46.2481 50.1445 45.932 50.1986 45.646 50.4214C45.2125 50.7615 44.8693 51.1829 44.5532 51.6314C43.912 52.5374 43.3521 53.4946 42.7199 54.4067C42.6296 54.5361 42.5543 54.6776 42.4219 54.7709C42.175 54.9635 42.0426 55.2435 41.8469 55.4782C41.8349 55.4993 41.8198 55.5174 41.8048 55.5354C41.7295 55.6197 41.6422 55.692 41.585 55.7883C41.573 55.8063 41.5549 55.8214 41.5368 55.8364L41.5429 55.8395Z" fill="#EB9B15"/>
<path d="M46.8171 50.4395C46.9796 50.0843 47.2987 49.8586 47.5727 49.6087C48.2801 48.9646 49.0267 48.3686 49.8365 47.8539C51.0737 47.0653 52.3682 46.4031 53.7529 45.9215C54.939 45.5091 56.1552 45.2081 57.3985 45.0395C57.9223 44.9673 58.4551 44.9071 58.991 44.9221V46.6168C58.8555 46.7191 58.696 46.7281 58.5394 46.7342C56.6579 46.8245 54.8758 47.3181 53.1599 48.0736C51.8052 48.6696 50.5589 49.4402 49.412 50.3763C48.825 50.8549 48.262 51.3606 47.7412 51.9144C47.5967 51.9295 47.5847 51.8061 47.5456 51.7188C47.4191 51.4358 47.3228 51.1378 47.1602 50.87C47.1151 50.7857 47.0489 50.7194 46.9676 50.6713C46.8983 50.6081 46.811 50.5569 46.814 50.4455L46.8171 50.4395Z" fill="#EA9815"/>
<path d="M47.7202 51.9114C47.8707 51.5773 48.1687 51.3726 48.4216 51.1378C48.9845 50.6231 49.5565 50.1144 50.1887 49.684C51.0797 49.0729 52.0009 48.5161 52.9913 48.0706C53.9908 47.6221 55.0143 47.2609 56.0799 47.0141C56.8927 46.8274 57.7086 46.6709 58.5485 46.6619C58.696 46.6619 58.8435 46.6288 58.991 46.6107C58.991 47.1766 58.991 47.7395 58.991 48.3054C58.6779 48.495 58.3227 48.4258 57.9885 48.4709C56.2455 48.7057 54.5898 49.2024 53.0214 50.0121C51.9889 50.5448 51.0376 51.192 50.1616 51.9445C49.5806 52.4442 49.0267 52.9709 48.551 53.5759C48.4758 53.6723 48.4125 53.7836 48.2861 53.8228C48.2169 53.8017 48.1958 53.7445 48.1807 53.6843C48.0453 53.1696 47.8767 52.6639 47.7081 52.1582C47.681 52.0769 47.6479 51.9896 47.7171 51.9114H47.7202Z" fill="#E89516"/>
<path d="M49.3126 58.988C49.4872 58.4432 49.7341 57.9284 50.0201 57.4408C50.574 56.5017 51.2332 55.6318 52.031 54.8853C52.7475 54.2111 53.5392 53.6331 54.4122 53.1666C55.4568 52.6067 56.5495 52.2004 57.7176 51.9896C58.139 51.9144 58.5605 51.8301 58.994 51.8512C58.994 52.4682 58.994 53.0853 58.994 53.7024C58.8766 53.7987 58.7291 53.7987 58.5936 53.8107C57.7146 53.889 56.8867 54.1539 56.0829 54.503C54.9721 54.9846 53.9757 55.6438 53.1358 56.5197C52.5488 57.1308 52.022 57.793 51.6426 58.5575C51.5674 58.705 51.4921 58.8555 51.3807 58.985C50.6914 58.985 50.005 58.985 49.3156 58.985L49.3126 58.988Z" fill="#E48C18"/>
<path d="M48.3042 53.8167C48.5028 53.4856 48.7708 53.2147 49.0357 52.9347C49.2344 52.724 49.4421 52.5254 49.6498 52.3267C50.6402 51.3785 51.751 50.605 52.9642 49.9698C54.1051 49.3709 55.3063 48.9585 56.5556 48.6605C57.3593 48.4678 58.1752 48.3956 58.991 48.3053V49.5755C57.5008 49.6327 56.0799 49.9849 54.6982 50.5327C53.777 50.8999 52.916 51.3695 52.1032 51.9324C50.9021 52.7662 49.8515 53.7535 48.9905 54.9364C48.8821 55.0869 48.6624 55.1652 48.6744 55.3999C48.5811 55.3969 48.5691 55.3217 48.554 55.2555C48.4547 54.8491 48.3674 54.4397 48.265 54.0334C48.244 53.9551 48.2409 53.8769 48.3042 53.8137V53.8167Z" fill="#E79316"/>
<path d="M51.3777 58.9909C51.438 58.6809 51.6216 58.4251 51.7781 58.1692C52.8077 56.4776 54.2436 55.2374 56.0559 54.4428C56.9921 54.0334 57.9644 53.7595 58.994 53.7053C59.003 54.3645 58.8946 55.0026 58.6327 55.6107C58.428 55.5234 58.2324 55.6016 58.0397 55.6468C56.5556 56.005 55.2972 56.7605 54.2376 57.8531C53.9606 58.1361 53.7379 58.4642 53.5061 58.7863C53.4549 58.8585 53.4128 58.9338 53.3375 58.9879C52.6842 58.9879 52.031 58.9879 51.3777 58.9879V58.9909Z" fill="#E38918"/>
<path d="M46.817 50.4395C46.8772 50.5027 46.9344 50.5689 46.9946 50.6321C47.0819 50.7013 47.1451 50.7886 47.1903 50.885C47.6027 51.7037 47.8797 52.5766 48.1205 53.4555C48.4035 54.4789 48.6293 55.5144 48.8069 56.5619C48.9273 57.2692 49.0357 57.9766 49.1531 58.684C49.1711 58.7893 49.1832 58.8947 49.1139 58.991C48.7918 58.991 48.4697 58.991 48.1476 58.988C48.0904 58.2896 47.9459 57.6034 47.8285 56.911C47.6238 55.7251 47.3529 54.5542 46.9766 53.4134C46.8471 53.0221 46.6876 52.6398 46.519 52.2636C46.3986 51.9957 46.2029 51.7729 45.941 51.6284C45.6099 51.4478 45.1944 51.5652 44.8242 51.9204C44.2311 52.4833 43.7946 53.1636 43.3491 53.8378C42.7982 54.6746 42.2533 55.5144 41.6302 56.3C41.3622 56.6341 41.1063 56.9863 40.7331 57.2211C40.1912 57.5612 39.7607 57.4408 39.4838 56.8599C39.3182 56.5137 39.258 56.1435 39.2038 55.7672C39.1887 55.6679 39.2128 55.5746 39.261 55.4873C39.4055 55.5294 39.3784 55.6679 39.4025 55.7642C39.4717 56.0171 39.5711 56.2519 39.7276 56.4595C39.9714 56.7485 40.2273 56.8117 40.5825 56.6642C40.992 56.4927 41.287 56.1856 41.5429 55.8365L41.5398 55.8304C41.594 55.692 41.7175 55.6137 41.8078 55.5084H41.8048C41.9824 55.2525 42.166 54.9967 42.3767 54.7619C42.9397 54.0274 43.4093 53.2298 43.918 52.4592C44.2763 51.9144 44.6315 51.3666 45.062 50.8759C45.2245 50.6893 45.3961 50.5117 45.6008 50.3702C46.0494 50.0572 46.4046 50.0783 46.817 50.4335V50.4395Z" fill="#371D5C"/>
<path d="M53.3345 58.991C53.5241 58.5365 53.8492 58.1723 54.1774 57.8261C55.234 56.7064 56.5164 55.9569 58.0126 55.5837C58.1661 55.5445 58.3257 55.5355 58.4762 55.4964C58.5876 55.4693 58.6207 55.5174 58.6297 55.6138C57.8892 57.4378 56.5465 58.5365 54.6169 58.9188C54.4965 58.9429 54.373 58.9429 54.2526 58.9519C54.0931 59.0061 53.9215 58.9399 53.7619 58.991C53.6205 58.991 53.479 58.991 53.3375 58.991H53.3345Z" fill="#E18619"/>
<path d="M49.1049 58.6809C48.9604 57.8441 48.831 57.0043 48.6715 56.1676C48.3584 54.5301 47.9941 52.9077 47.3559 51.3605C47.2867 51.189 47.2114 51.0204 47.1362 50.8518C47.1121 50.7946 47.1422 50.7856 47.1903 50.7946C47.383 51.0746 47.4793 51.3997 47.6148 51.7067C47.6449 51.7789 47.66 51.8542 47.7202 51.9114C47.9158 52.5465 48.1085 53.1816 48.3042 53.8137C48.4035 54.3495 48.527 54.8793 48.6745 55.403C48.6865 55.7371 48.7979 56.0562 48.843 56.3843C48.9424 57.0796 49.0508 57.7779 49.1561 58.4732C49.1652 58.5425 49.1892 58.6087 49.2073 58.6749C49.2795 58.7532 49.1892 58.8615 49.2555 58.9428C49.2585 58.9579 49.2615 58.9729 49.2615 58.988C49.2254 58.988 49.1892 58.988 49.1531 58.991C49.0839 58.8946 49.1621 58.7773 49.1019 58.6809H49.1049Z" fill="#FBC463"/>
<path d="M53.762 58.988C53.9185 58.9007 54.0901 58.9609 54.2527 58.9488C54.0931 59.0121 53.9275 58.994 53.762 58.988Z" fill="#E38918"/>
<path d="M49.1049 58.6809C49.1922 58.7742 49.138 58.8886 49.1561 58.9909L49.135 58.997L49.114 58.9909C49.1109 58.8886 49.1079 58.7832 49.1049 58.6809Z" fill="#F3BC61"/>
<path d="M58.0457 37.2525C57.9554 37.5927 57.7085 37.5987 57.4045 37.6318C56.5014 37.7311 55.5983 37.8425 54.7072 38.0321C53.6175 38.2669 52.5428 38.5469 51.4861 38.905C50.2248 39.3325 49.0116 39.8592 47.8315 40.4763C46.4498 41.1987 45.1583 42.0626 43.9331 43.0198C43.0872 43.682 42.2864 44.3893 41.5368 45.1569C40.3568 46.3669 39.2911 47.6703 38.3609 49.082C38.0418 49.5666 37.7468 50.0663 37.4608 50.5689C37.3404 50.7826 37.1628 50.9392 36.9761 51.0927C37.0243 51.1318 37.1026 51.0957 37.1357 51.1649C37.0484 51.3244 36.9039 51.2823 36.7684 51.2703C36.5878 51.201 36.3921 51.2703 36.2115 51.204C36.0459 51.0566 36.1543 50.9061 36.2266 50.7766C36.5908 50.1114 36.9611 49.4492 37.3705 48.8111C38.0809 47.7004 38.8636 46.6469 39.7336 45.6626C40.5494 44.7385 41.4194 43.8626 42.3587 43.0559C43.6441 41.9452 45.0138 40.9549 46.4859 40.1121C48.4155 39.0074 50.4445 38.1405 52.5909 37.5445C53.6295 37.2556 54.6801 37.0358 55.7428 36.8642C55.8481 36.8462 55.9535 36.8341 56.0378 36.7619C56.0679 36.7348 56.104 36.7198 56.1432 36.7137C56.7422 36.801 57.3082 37.0057 57.8741 37.2044C57.9313 37.2255 57.9885 37.2345 58.0457 37.2525Z" fill="#F1A812"/>
<path d="M40.1581 43.4893C40.0678 43.4411 39.9805 43.3929 39.8902 43.3448C39.5831 43.0618 39.529 42.806 39.7066 42.3966C39.9805 41.7765 40.4802 41.3521 41.0131 40.9759C41.7596 40.4461 42.5423 39.9705 43.3341 39.516C44.9085 38.61 46.5461 37.8424 48.2771 37.2826C48.3704 37.2525 48.4667 37.2374 48.554 37.1983C49.2223 37.0026 49.8906 36.819 50.574 36.6896C50.6944 36.7077 50.8028 36.6444 50.9202 36.6354C50.9985 36.6083 51.0888 36.7107 51.158 36.6113C51.1971 36.5722 51.2393 36.5842 51.2844 36.5933C51.4891 36.6324 51.6848 36.509 51.8895 36.5722C51.9226 36.5812 51.8775 36.5722 51.9136 36.5812C51.9136 36.5632 51.8955 36.5662 51.8895 36.5541C51.8835 36.5301 51.8895 36.509 51.9016 36.4879C51.9768 36.4668 52.0551 36.4789 52.1334 36.4789C52.1605 36.4819 52.1876 36.4879 52.2116 36.4969C52.4043 36.4969 52.597 36.4548 52.7866 36.521C52.883 36.5993 52.9913 36.6535 53.1208 36.6655C53.1629 36.6685 53.2171 36.6866 53.2231 36.7347C53.2322 36.801 53.1689 36.816 53.1208 36.8341C53.0545 36.8612 52.9853 36.8732 52.9161 36.8913C50.4807 37.5324 48.1777 38.4836 46.0012 39.7538C44.8573 40.422 43.7826 41.1896 42.747 42.0113C42.16 42.4779 41.579 42.9475 41.0733 43.5043C41.0161 43.5645 40.9468 43.6006 40.8656 43.6097C40.7662 43.6187 40.6669 43.6157 40.5645 43.6157C40.414 43.6127 40.2605 43.6157 40.1461 43.4893H40.1581Z" fill="#F2AA12"/>
<path d="M36.7654 51.216C36.8918 51.2281 37.0183 51.216 37.1357 51.1648C38.1773 50.9933 39.1105 50.5839 39.9323 49.9187C39.9955 49.8675 40.0407 49.7712 40.1491 49.7923C40.1701 49.8103 40.1822 49.8344 40.1852 49.8645C40.0136 50.3491 39.8149 50.8217 39.6855 51.3184C39.6674 51.3846 39.6343 51.4508 39.565 51.4809C38.96 51.8 38.3519 52.11 37.6715 52.2515C37.1598 52.3568 36.654 52.408 36.1423 52.2876C35.4619 52.125 35.2301 51.8331 35.2331 51.1468C35.2331 51.0505 35.2331 50.9541 35.2331 50.8548C35.2542 50.8337 35.2783 50.8277 35.3054 50.8368C35.5582 51.0715 35.8834 51.1287 36.2055 51.1919C36.3921 51.222 36.5818 51.1588 36.7684 51.219L36.7654 51.216Z" fill="#371D5C"/>
<path d="M48.5691 37.2375C46.3384 37.9358 44.2673 38.9713 42.2925 40.2114C41.5338 40.687 40.7542 41.1385 40.1491 41.8218C39.9835 42.0084 39.851 42.2131 39.7517 42.4418C39.6072 42.7699 39.6463 43.0739 39.8872 43.3478C39.5621 43.1492 39.4627 42.9084 39.553 42.5472C39.6283 42.2582 39.7908 42.0204 39.9775 41.7947C40.2334 41.4907 40.5284 41.2228 40.8565 40.997C43.1203 39.4529 45.5015 38.1405 48.1145 37.2796C48.265 37.2315 48.4155 37.1893 48.5661 37.1442C48.5962 37.1773 48.5962 37.2074 48.5661 37.2375H48.5691Z" fill="#FCC463"/>
<path d="M35.2783 50.8489H35.2542L35.2301 50.8549C34.9802 50.587 34.9411 50.2619 34.9893 49.9188C35.0886 49.2204 35.4137 48.6154 35.79 48.0375C36.7082 46.6348 37.8642 45.4579 39.2218 44.4796C39.2851 44.4345 39.3483 44.3833 39.4085 44.3352C39.7517 43.983 40.2123 43.8204 40.6397 43.6067C40.706 43.5947 40.7752 43.5977 40.8414 43.6007C40.8986 43.6067 40.9468 43.6248 40.9558 43.691C40.8595 43.7994 40.724 43.8505 40.5976 43.9047C39.6343 44.3352 38.8215 44.9793 38.0629 45.6957C37.2561 46.4633 36.4975 47.273 35.9195 48.2332C35.6425 48.6937 35.3866 49.1663 35.2512 49.693C35.1669 50.0151 35.1488 50.3342 35.2813 50.6532C35.3084 50.7164 35.3415 50.7857 35.2753 50.8489H35.2783Z" fill="#FCC364"/>
<path d="M39.5621 51.4809C39.7066 51.0415 39.848 50.602 39.9986 50.1686C40.0377 50.0542 40.1069 49.9519 40.1611 49.8435C40.2243 49.8074 40.2665 49.8074 40.2635 49.8977C39.8661 50.8759 39.5831 51.8843 39.4356 52.9318C39.3272 53.7054 39.258 54.482 39.3664 55.2615C39.3694 55.2947 39.3965 55.3248 39.4115 55.3549C39.3995 55.6589 39.5019 55.9328 39.6253 56.2037C39.6644 56.288 39.7306 56.3662 39.7276 56.4686C39.4958 56.3361 39.4567 56.0833 39.3694 55.8666C39.3212 55.7492 39.2941 55.6197 39.258 55.4963C39.267 55.4843 39.267 55.4723 39.255 55.4602C39.1828 55.3669 39.2129 55.2525 39.1858 55.1502C39.1737 55.111 39.1707 55.0719 39.1948 55.0328C39.1286 53.8318 39.2821 52.6519 39.5621 51.484V51.4809Z" fill="#FAC264"/>
<path d="M40.6518 43.6549C40.2394 43.8836 39.8239 44.1094 39.4115 44.3381C39.5379 44.0853 39.7125 43.8776 39.9353 43.709C40.0196 43.6458 40.1009 43.5826 40.1551 43.4923C40.2935 43.5134 40.429 43.5344 40.5675 43.5555C40.6096 43.5766 40.6457 43.6037 40.6518 43.6549Z" fill="#3A1F5C"/>
<path d="M48.5691 37.2375C48.5691 37.2074 48.5691 37.1743 48.5691 37.1442C49.2313 36.9425 49.8936 36.7498 50.58 36.6595C50.598 36.6716 50.6041 36.6836 50.598 36.6987C50.592 36.7107 50.586 36.7167 50.58 36.7167C50.3151 36.8371 50.02 36.8341 49.7431 36.9154C49.3517 37.0298 48.9604 37.1321 48.566 37.2405L48.5691 37.2375Z" fill="#FAC15A"/>
<path d="M50.583 36.7167C50.583 36.6986 50.583 36.6776 50.583 36.6595C50.8449 36.5782 51.1128 36.5572 51.3838 36.524C51.4259 36.5391 51.4982 36.509 51.4921 36.5963C51.4259 36.6625 51.3507 36.6414 51.2754 36.6174C51.2302 36.6174 51.1911 36.6204 51.161 36.6595C51.0948 36.7077 51.0255 36.6956 50.9563 36.6685C50.8299 36.6625 50.7155 36.7709 50.583 36.7167Z" fill="#FEC756"/>
<path d="M39.1014 54.798V53.7205C39.1014 53.7205 39.1195 53.7205 39.1285 53.7205V54.8071C39.1285 54.8071 39.1105 54.8011 39.1014 54.798Z" fill="#4E2883"/>
<path d="M52.9642 36.4007C53.2803 36.3736 53.5994 36.3766 53.9155 36.4037C53.9306 36.4338 53.9245 36.4579 53.8975 36.479C53.8312 36.5181 53.756 36.5181 53.6837 36.5241C53.5212 36.5241 53.3616 36.5241 53.199 36.5241C53.1238 36.5181 53.0485 36.5181 52.9823 36.476C52.9552 36.4549 52.9492 36.4278 52.9642 36.3977V36.4007Z" fill="#FEC251"/>
<path d="M54.921 36.4639C55.0775 36.4428 55.216 36.515 55.3635 36.5482C55.3575 36.5873 55.3304 36.6144 55.2973 36.6354C55.2611 36.6505 55.225 36.6565 55.1859 36.6565C55.1618 36.6565 55.1347 36.6505 55.1106 36.6445C55.0173 36.6114 54.9089 36.6354 54.8216 36.5752C54.7674 36.4609 54.8758 36.494 54.9179 36.4639H54.921Z" fill="#FDBA2C"/>
<path d="M56.1432 36.7107C56.1251 36.7288 56.1071 36.7498 56.089 36.7679C55.9896 36.8161 55.8963 36.7799 55.803 36.7528C55.7217 36.7197 55.6284 36.7318 55.5471 36.7017C55.523 36.6896 55.502 36.6716 55.4899 36.6475C55.4899 36.6174 55.502 36.5963 55.5291 36.5873C55.5833 36.5813 55.6374 36.5873 55.6916 36.6084C55.8452 36.6264 56.0047 36.6234 56.1432 36.7137V36.7107Z" fill="#F2AA12"/>
<path d="M52.9642 36.4006C52.9642 36.4157 52.9642 36.4338 52.9642 36.4488C52.8528 36.5542 52.7143 36.4849 52.5879 36.506C52.4765 36.4909 52.3561 36.5451 52.2598 36.4458C52.4916 36.3766 52.7294 36.4037 52.9642 36.4037V36.4006Z" fill="#FAC260"/>
<path d="M53.9185 36.4458C53.9185 36.4458 53.9185 36.4157 53.9185 36.4037C54.06 36.4037 54.2015 36.3976 54.343 36.3946C54.3942 36.3645 54.4423 36.3525 54.4875 36.4037C54.4935 36.4157 54.5025 36.4277 54.5116 36.4368C54.5025 36.4488 54.4905 36.4608 54.4815 36.4759C54.2918 36.5361 54.1022 36.5692 53.9215 36.4458H53.9185Z" fill="#F1B55A"/>
<path d="M54.9209 36.4639C54.8848 36.494 54.8487 36.5241 54.8156 36.5511C54.8005 36.5692 54.7824 36.5812 54.7584 36.5843C54.7012 36.5843 54.647 36.5662 54.5928 36.5572C54.5597 36.5511 54.5266 36.5391 54.4995 36.518C54.4844 36.497 54.4814 36.4789 54.4935 36.4548L54.5085 36.4368C54.647 36.4458 54.7824 36.4518 54.9209 36.4608V36.4639Z" fill="#F1B55A"/>
<path d="M51.4861 36.5571C51.45 36.5451 51.4169 36.5331 51.3807 36.521C51.4319 36.512 51.4801 36.503 51.5313 36.4969C51.6095 36.4367 51.6968 36.4458 51.7841 36.4638C51.8263 36.4789 51.8714 36.4729 51.9076 36.506C51.9076 36.521 51.9015 36.5391 51.9015 36.5541C51.7631 36.5872 51.6246 36.6204 51.4861 36.5571Z" fill="#FEC859"/>
<path d="M52.2598 36.4427C52.3712 36.4458 52.4825 36.4488 52.5969 36.4518C52.612 36.4849 52.606 36.509 52.5729 36.524C52.4404 36.524 52.3049 36.5481 52.1725 36.509V36.4999C52.1544 36.4879 52.1484 36.4759 52.1544 36.4638C52.1604 36.4518 52.1665 36.4458 52.1725 36.4458C52.2026 36.4458 52.2327 36.4458 52.2628 36.4427H52.2598Z" fill="#FEC251"/>
<path d="M52.1695 36.4458C52.1695 36.4639 52.1695 36.4819 52.1695 36.5C52.0822 36.5 51.9949 36.503 51.9076 36.506C51.8684 36.506 51.8323 36.503 51.7932 36.5C51.7872 36.491 51.7842 36.4819 51.7781 36.4729C51.7842 36.4639 51.7902 36.4578 51.7962 36.4488C51.9196 36.4488 52.0431 36.4488 52.1695 36.4458Z" fill="#FAC260"/>
<path d="M55.6916 36.6053L55.505 36.6113C55.4327 36.6625 55.3635 36.6745 55.2943 36.6083C55.3183 36.5872 55.3394 36.5692 55.3635 36.5481C55.4779 36.5481 55.5923 36.5391 55.6916 36.6083V36.6053Z" fill="#FCB92C"/>
<path d="M39.1948 55.0298C39.1978 55.0599 39.2008 55.09 39.2038 55.1231C39.2309 55.2164 39.2429 55.3097 39.1978 55.403C39.1165 55.2796 39.1195 55.1562 39.1948 55.0328V55.0298Z" fill="#3A1A75"/>
<path d="M39.1978 55.4001C39.1978 55.3067 39.2008 55.2134 39.2038 55.1201C39.255 55.2255 39.252 55.3398 39.255 55.4542C39.2369 55.4362 39.2159 55.4181 39.1978 55.4001Z" fill="#412659"/>
<path d="M54.4875 36.4036C54.4393 36.4006 54.3911 36.3976 54.343 36.3946C54.4182 36.3073 54.5115 36.3615 54.6109 36.3374C54.5808 36.4187 54.5236 36.3826 54.4875 36.4036Z" fill="#442085"/>
<path d="M51.5373 36.4579C51.6216 36.3646 51.7089 36.3736 51.7962 36.4458L51.8022 36.4549C51.7119 36.482 51.6246 36.482 51.5343 36.4549L51.5373 36.4579Z" fill="#452085"/>
<path d="M51.5373 36.4579C51.6276 36.4579 51.7149 36.4579 51.8052 36.4579C51.8022 36.4729 51.7992 36.485 51.7932 36.5C51.7059 36.5 51.6186 36.5 51.5312 36.5C51.5343 36.488 51.5373 36.4729 51.5373 36.4609V36.4579Z" fill="#9C6C70"/>
<path d="M40.2634 49.8977C40.2424 49.8556 40.2032 49.8435 40.1611 49.8435C40.1521 49.8285 40.149 49.8104 40.149 49.7923C40.2213 49.7743 40.2935 49.7562 40.3658 49.7382C40.3327 49.7923 40.2996 49.8435 40.2665 49.8977H40.2634Z" fill="#F5B33B"/>
<path d="M49.2314 58.1813C49.2645 58.2625 49.2705 58.3167 49.2314 58.3709C49.1922 58.3167 49.1982 58.2625 49.2314 58.1813Z" fill="#E48C18"/>
<path d="M49.2554 58.687C49.2584 58.6479 49.2615 58.6087 49.2705 58.5275C49.3247 58.6479 49.3307 58.7231 49.2584 58.7863C49.2283 58.7532 49.2283 58.7231 49.2554 58.687Z" fill="#E48C18"/>
<path d="M49.2554 58.687C49.2554 58.7201 49.2554 58.7532 49.2584 58.7863C49.2584 58.8375 49.2584 58.8916 49.2584 58.9428C49.1741 58.8646 49.2193 58.7652 49.2103 58.6749C49.2253 58.6779 49.2404 58.684 49.2584 58.687H49.2554Z" fill="#F3BC61"/>
<path d="M42.3767 54.7649C42.2081 55.0328 42.0275 55.2917 41.8047 55.5144C41.9432 55.2224 42.1088 54.9545 42.3767 54.7649Z" fill="#ED9F14"/>
<path d="M41.8078 55.5114C41.7446 55.6408 41.6542 55.7461 41.5399 55.8334C41.5459 55.6588 41.6753 55.5806 41.8078 55.5114Z" fill="#ED9F14"/>
<path d="M47.1903 50.7947C47.1723 50.8128 47.1542 50.8338 47.1361 50.8519C47.0759 50.7857 47.0157 50.7195 46.9916 50.6292C47.097 50.6382 47.1482 50.7104 47.1903 50.7947Z" fill="#EBB35B"/>
<path d="M40.3207 56.7966C40.2635 56.8418 40.2093 56.8358 40.1461 56.8057C40.2033 56.7605 40.2574 56.7695 40.3207 56.7966Z" fill="#2C1560"/>
<path d="M54.6079 36.503C54.6621 36.5211 54.7133 36.5391 54.7674 36.5602C54.8848 36.6264 55.0203 36.5421 55.1377 36.6114C55.1558 36.6114 55.1738 36.6114 55.1919 36.6144C55.2912 36.6776 55.4117 36.5993 55.508 36.6655C55.5261 36.6655 55.5441 36.6655 55.5622 36.6655C55.6404 36.7318 55.7488 36.6565 55.8271 36.7197C55.9144 36.7378 56.0047 36.7558 56.092 36.7739C55.9836 37.0177 55.7368 36.9395 55.5592 36.9665C54.5266 37.1321 53.5121 37.3548 52.5067 37.6408C50.562 38.1946 48.7076 38.9652 46.9345 39.9435C46.0946 40.407 45.2757 40.9067 44.4991 41.4665C43.7886 41.9782 43.0932 42.511 42.4279 43.089C41.7747 43.6548 41.1576 44.2568 40.5555 44.8739C39.6253 45.8341 38.7944 46.8756 38.0208 47.9652C37.3946 48.8502 36.8557 49.7833 36.3259 50.7284C36.2507 50.8639 36.1573 51.0023 36.1814 51.1709C36.1995 51.1829 36.2055 51.195 36.1995 51.207C36.1935 51.2191 36.1874 51.2251 36.1814 51.2251C35.8352 51.213 35.4981 51.1679 35.2753 50.8548C34.9773 50.2077 35.1549 49.6057 35.4349 49.0097C35.8984 48.0194 36.5457 47.1615 37.2983 46.3729C38.084 45.5481 38.9148 44.7836 39.8992 44.1966C40.2304 44.001 40.5675 43.8174 40.9408 43.706C40.989 43.6398 40.9258 43.6368 40.8896 43.6157C40.8776 43.6037 40.8746 43.5916 40.8746 43.5766C40.8746 43.5615 40.8746 43.5555 40.8776 43.5555C41.0522 43.5495 41.0823 43.3749 41.1786 43.2846C41.6964 42.7849 42.2473 42.3214 42.8133 41.8789C43.7043 41.1836 44.6165 40.5184 45.5828 39.9314C46.7328 39.2301 47.9309 38.6311 49.1682 38.1013C50.4686 37.5445 51.8082 37.111 53.187 36.7528C53.0576 36.6746 52.8348 36.813 52.8047 36.5662C52.7866 36.5391 52.7866 36.518 52.8137 36.497C52.9311 36.4669 53.0575 36.518 53.175 36.4639C53.3526 36.4639 53.5302 36.4639 53.7078 36.4639C53.8433 36.518 53.9817 36.4699 54.1202 36.491C54.2828 36.515 54.4423 36.5361 54.6079 36.512V36.503Z" fill="#F2AA12"/>
<path d="M36.1844 51.2191C36.1844 51.2011 36.1844 51.183 36.1844 51.1649C36.3771 51.192 36.5818 51.1047 36.7654 51.2161C36.5727 51.2462 36.3771 51.2552 36.1844 51.2161V51.2191Z" fill="#FEB30D"/>
<path d="M51.4861 36.5572C51.6246 36.5572 51.7631 36.5572 51.9016 36.5542C51.9527 36.5542 52.0039 36.5602 52.0521 36.5602C51.7902 36.5422 51.5403 36.7499 51.2724 36.6144C51.3446 36.5993 51.4289 36.6264 51.4861 36.5572Z" fill="#F1A812"/>
<path d="M52.8077 36.503C52.8077 36.5211 52.8077 36.5391 52.8077 36.5572C52.5969 36.5331 52.3802 36.6084 52.1725 36.509C52.311 36.509 52.4524 36.503 52.5909 36.5C52.6632 36.4639 52.7354 36.4639 52.8077 36.5V36.503Z" fill="#F1A812"/>
<path d="M40.8806 43.5494C40.8806 43.5494 40.8866 43.5795 40.8866 43.5916C40.8866 43.6157 40.8716 43.6277 40.8475 43.6337C40.7812 43.6397 40.715 43.6458 40.6518 43.6518C40.5946 43.6427 40.5765 43.6006 40.5675 43.5524C40.6729 43.5524 40.7752 43.5524 40.8806 43.5494Z" fill="#9F6D3A"/>
<path d="M50.9563 36.6686C51.0255 36.6656 51.0918 36.6626 51.161 36.6595C51.0978 36.7498 51.0285 36.7318 50.9563 36.6686Z" fill="#F1A812"/>
<path d="M40.8475 43.6338C40.8475 43.6338 40.8746 43.6067 40.8866 43.5917C40.9348 43.6007 41.001 43.5766 41.0221 43.6338C41.0431 43.697 40.9799 43.691 40.9408 43.7C40.9107 43.679 40.8776 43.6579 40.8475 43.6338Z" fill="#F2AA12"/>
<path d="M54.1292 36.503C53.9907 36.4789 53.8372 36.5542 53.7078 36.4518C53.777 36.4518 53.8493 36.4488 53.9185 36.4458C54.1112 36.4488 54.3038 36.4518 54.4935 36.4548C54.4995 36.4699 54.5025 36.4849 54.5025 36.5C54.3791 36.5451 54.2526 36.5421 54.1262 36.5L54.1292 36.503Z" fill="#F2AA12"/>
<path d="M52.8077 36.503C52.7354 36.503 52.6632 36.503 52.5909 36.503C52.5909 36.488 52.597 36.4699 52.597 36.4549C52.7204 36.4549 52.8408 36.4519 52.9642 36.4489C53.0335 36.4489 53.1057 36.4549 53.175 36.4549C53.0636 36.5512 52.9281 36.485 52.8077 36.503Z" fill="#F2AA12"/>
<path d="M55.1347 36.6083C55.0113 36.5873 54.8788 36.6565 54.7644 36.5572C54.7795 36.5572 54.7975 36.5542 54.8126 36.5511C54.9179 36.5752 55.0414 36.512 55.1347 36.6083Z" fill="#F1A812"/>
<path d="M55.508 36.6625C55.4026 36.6445 55.2852 36.7047 55.1919 36.6114C55.228 36.6114 55.2611 36.6114 55.2973 36.6053C55.3665 36.6053 55.4387 36.6053 55.508 36.6084V36.6595V36.6625Z" fill="#F1A812"/>
<path d="M55.8241 36.7137C55.7337 36.7017 55.6344 36.7498 55.5591 36.6595C55.6495 36.6716 55.7488 36.6234 55.8241 36.7137Z" fill="#F1A812"/>
<path d="M54.1292 36.5031C54.2526 36.5031 54.3791 36.5031 54.5055 36.5031C54.5386 36.5031 54.5717 36.5031 54.6079 36.5031C54.4483 36.5873 54.2918 36.5873 54.1322 36.5031H54.1292Z" fill="#F1A812"/>
</g>
</g>
<defs>
<clipPath id="clip0_347_12182">
<rect width="92" height="92" fill="white"/>
</clipPath>
<clipPath id="clip1_347_12182">
<rect width="27" height="27" fill="white" transform="translate(32 32)"/>
</clipPath>
</defs>
</svg>
