<svg width="446" height="455" viewBox="0 0 446 455" fill="none" xmlns="http://www.w3.org/2000/svg">
<g filter="url(#filter0_d_115_3746)">
<path d="M91.5155 -2.19132C68.491 30.9981 45.2759 64.1576 28.903 101.243C4.41373 156.732 -5.90964 213.74 16.0213 272.606C32.7655 317.564 64.0367 351.683 101.909 379.977C147.396 413.955 198.542 436.415 254.744 443.998C321.65 453.019 385.416 442.369 442.25 403.045C442.431 307.144 442.621 211.232 442.772 115.33C442.772 109.786 442.401 104.241 442.2 98.6958C435.087 96.4279 429.629 105.45 422.286 101.553C400.766 91.2226 398.609 72.6597 417.47 59.7616C427.111 55.1459 433.231 66.6753 442.19 65.1167C442.882 42.8272 443.805 20.5378 441.699 -1.73174C436.953 -4.61908 431.706 -3.16042 426.72 -3.17041C363.506 -3.2903 300.301 -3.23036 237.137 -3.26033C232.211 -3.45016 229.763 -1.89159 233.154 3.04386C235.772 6.86035 239.585 9.65777 242.434 13.3144C252.366 26.0727 253.55 47.1033 245.133 61.6799C237.538 74.8377 223.282 81.4616 207.701 79.0339C176.842 63.9777 171.213 33.1062 194.85 8.47886C199.679 3.44349 200.184 -0.472898 196.365 -3.27032C161.382 -2.56098 126.408 -4.63906 91.4854 -2.17133L91.5256 -2.2113L91.5155 -2.19132Z" fill="#EAEAEA"/>
<path d="M422.667 104.301C431.616 110.875 435.85 101.094 442.2 98.6958C442.2 87.5061 442.2 76.3064 442.2 65.1167C434.405 60.6109 428.375 50.8698 417.089 56.7544C400.957 74.3183 402.622 88.4452 422.667 104.301Z" fill="#DADADA"/>
<path d="M232.762 -1.15229C302.408 -1.34212 372.063 -1.54194 441.708 -1.73176C438.759 -5.22854 434.746 -3.64 431.245 -3.64C321.61 -3.72992 211.975 -3.71993 102.351 -3.68996C98.6887 -3.68996 94.8462 -4.44926 91.4753 -2.15137C127.682 -1.85165 163.89 -1.55193 200.107 -1.2522C205.274 3.40351 211.775 1.52524 217.734 2.34448C223.081 2.61424 228.388 2.69416 232.762 -1.15229Z" fill="#CBCBCB"/>
<path d="M232.762 -1.15229C227.806 -1.18227 222.84 -1.22219 217.884 -1.25216C188.279 6.51069 176.761 44.1061 196.234 69.163C199.615 73.519 204.632 76.5362 206.708 81.9412C219.399 86.457 236.786 80.5025 245.464 69.0031C258.466 51.779 261.636 17.2508 232.753 -1.14227L232.762 -1.15229Z" fill="#DADADA"/>
<path d="M299.278 391.896C310.915 398.81 321.118 393.524 330.198 387.03C344.113 377.08 350.433 361.953 349.049 345.728C347.644 329.274 341.294 313.948 323.275 307.494C316.102 304.926 309.019 303.277 302.077 308.063C288.764 321.641 281.55 337.376 284.921 356.758C287.59 372.074 294.733 384.063 308.166 390.157C306.391 390.018 302.257 387.969 299.278 391.886V391.896Z" fill="#DADADA"/>
<path d="M102.953 218.725C117.249 215.148 127.291 205.907 130.361 192.18C133.301 179.022 132.267 165.454 119.697 155.673C109.082 147.411 98.0768 146.542 86.108 151.697C81.4429 160.519 74.2798 167.912 73.8985 179.002C73.126 201.671 81.2523 213.37 102.953 218.725Z" fill="#DADADA"/>
<path d="M299.278 391.896L314.076 391.896C287.52 373.253 280.597 347.586 294.422 323.089C296.85 318.793 300.522 316.265 303.883 313.138C306.872 310.361 306.22 308.492 302.067 308.073C283.105 314.956 275.35 329.563 274.066 348.536C272.702 368.577 280.547 383.403 299.278 391.906L299.278 391.896Z" fill="#D3D3D3"/>
<path d="M206.708 81.9312C208.955 77.4054 209.216 77.1157 205.695 73.9785C183.282 54.0169 187.697 29.9291 201.471 11.0365C205.875 4.99208 212.728 3.22371 217.874 -1.25216C211.955 -1.25216 206.036 -1.2522 200.107 -1.2522C166.408 22.2062 173.441 56.7644 191.108 73.4291C195.612 77.6751 200.358 81.1819 206.708 81.9412L206.708 81.9312Z" fill="#D1D1D1"/>
<path d="M102.953 218.725C74.2396 203.07 69.7652 184.767 88.0544 156.892C90.2013 153.625 90.3718 152.096 86.108 151.697C69.3438 159.46 60.2745 176.634 64.1169 193.349C68.2102 211.132 80.0585 218.885 102.943 218.715L102.953 218.725Z" fill="#D3D3D3"/>
<path d="M198.582 249.447C209.949 249.427 223.222 238.317 223.513 229.006C223.723 222.192 220.593 218.805 213.621 218.765C202.986 218.705 188.158 230.764 188.108 240.265C188.068 247.059 192.262 250.046 198.582 249.447Z" fill="#DBDBDB"/>
<path d="M422.667 104.301C425.807 99.4551 420.42 99.4951 418.664 97.5869C407.538 85.3981 406.936 75.3773 416.748 61.3402C417.841 59.7817 418.985 58.4329 417.089 56.7544C405 59.6817 400.345 69.0831 401.348 79.5835C402.512 91.7223 407.307 103.162 422.667 104.311V104.301Z" fill="#D3D3D3"/>
<path d="M387.814 137.41C392.63 136.441 394.576 133.584 394.405 129.377C394.205 124.132 390.433 121.864 385.998 122.154C381.323 122.464 380.51 126.64 380.882 130.556C381.283 134.802 383.861 137.12 387.814 137.4V137.41Z" fill="#DBDBDB"/>
<path d="M287.801 29.02C284.4 29.2798 281.199 30.1989 280.838 34.1353C280.537 37.4123 282.855 39.4104 285.965 38.9109C289.295 38.3814 291.864 35.8537 292.405 32.5667C292.877 29.6894 290.258 29.0699 287.801 29.01V29.02Z" fill="#DDDDDD"/>
<path d="M126.599 29.6494C127.341 32.0272 128.876 33.5458 131.374 33.8655C134.063 34.2052 135.959 32.9863 135.979 30.2688C136.009 27.5813 134.063 26.3724 131.465 26.2925C129.027 26.2125 126.94 26.6921 126.599 29.6394V29.6494Z" fill="#DDDDDD"/>
</g>
<defs>
<filter id="filter0_d_115_3746" x="0" y="-4" width="447" height="459" filterUnits="userSpaceOnUse" color-interpolation-filters="sRGB">
<feFlood flood-opacity="0" result="BackgroundImageFix"/>
<feColorMatrix in="SourceAlpha" type="matrix" values="0 0 0 0 0 0 0 0 0 0 0 0 0 0 0 0 0 0 127 0" result="hardAlpha"/>
<feOffset dy="4"/>
<feGaussianBlur stdDeviation="2"/>
<feComposite in2="hardAlpha" operator="out"/>
<feColorMatrix type="matrix" values="0 0 0 0 0 0 0 0 0 0 0 0 0 0 0 0 0 0 0.25 0"/>
<feBlend mode="normal" in2="BackgroundImageFix" result="effect1_dropShadow_115_3746"/>
<feBlend mode="normal" in="SourceGraphic" in2="effect1_dropShadow_115_3746" result="shape"/>
</filter>
</defs>
</svg>
