<?xml version="1.0" standalone="no"?><!DOCTYPE svg PUBLIC "-//W3C//DTD SVG 1.1//EN" "http://www.w3.org/Graphics/SVG/1.1/DTD/svg11.dtd" ><svg xmlns="http://www.w3.org/2000/svg"><metadata></metadata><defs><font id="FONTLAB:OTFEXPORT" horiz-adv-x="1196"><font-face font-family="Loyola" font-weight="400" font-stretch="normal" units-per-em="1000" panose-1="0 0 0 0 0 0 0 0 0 0" ascent="750" descent="-250" x-height="0" bbox="-115 -298 1165 814" underline-thickness="50" underline-position="-75" unicode-range="U+0020-fb06" /><missing-glyph horiz-adv-x="306"  /><glyph glyph-name="space" unicode=" " d="" /><glyph glyph-name="exclam" unicode="!" d="M186 175 l-146 0 l0 421 l175 9 q-29 -368 -29 -430 ZM115 115 q35 0 61 -26.5 q26 -26.5 26 -60.5 q0 -35 -26 -59.5 q-26 -24.5 -61 -24.5 q-37 0 -63.5 24.5 q-26.5 24.5 -26.5 59.5 q0 35 26.5 61 q26.5 26 63.5 26 Z" /><glyph glyph-name="quotedbl" unicode="&quot;" d="M20 408 l0 220 l117 4 l0 -224 l-117 0 ZM181 408 l0 220 l117 4 l0 -224 l-117 0 Z" /><glyph glyph-name="numbersign" unicode="#" d="M596 351 l-97 -3 l-19 -84 l116 5 l0 -120 l-141 0 l-34 -149 l-136 0 l31 142 l-102 0 l-32 -142 l-136 0 l30 137 l-51 0 l0 106 l74 4 l19 89 l-93 0 l0 106 l117 5 l31 149 l144 9 l-34 -151 l100 4 l30 138 l144 9 l-31 -141 l70 4 l0 -117 ZM341 258 l18 84 l-100 0 l-20 -89 l102 5 Z" /><glyph glyph-name="dollar" unicode="$" d="M229 656 l75 14 l0 -67 q43 -4 85.5 -16 q42.5 -12 63.5 -21 q21 -9 21 -8 q0 5 -48 -133 q-99 29 -140 29 q-52 0 -52 -33 q0 -17 26.5 -27.5 q26.5 -10.5 64.5 -21 q38 -10.5 76 -26.5 q38 -16 64.5 -53 q26.5 -37 26.5 -92 q0 -92 -51.5 -140 q-51.5 -48 -136.5 -59 l0 -75 l-75 0 l0 73 q-48 1 -100.5 10 q-52.5 9 -80.5 18 l-28 8 l27 159 q133 -35 209 -35 q53 0 53 25 q0 16 -13.5 23 q-13.5 7 -49.5 15 q-95 14 -153 60.5 q-58 46.5 -58 131.5 q0 84 52.5 131.5 q52.5 47.5 141.5 56.5 l0 53 Z" /><glyph glyph-name="percent" unicode="%" d="M328 597 l179 8 l-168 -605 l-167 0 l156 597 ZM234 434 q0 -43 -13 -72 q-13 -29 -33.5 -41 q-20.5 -12 -35 -16 q-14.5 -4 -27.5 -4 q-46 0 -75.5 37.5 q-29.5 37.5 -29.5 95.5 q0 34 9.5 60 q9.5 26 22 39.5 q12.5 13.5 29 21 q16.5 7.5 27.5 9.5 q11 2 20 2 q12 0 26 -4 q14 -4 34 -15.5 q20 -11.5 33 -41 q13 -29.5 13 -71.5 ZM96 439 q0 -73 31 -73 q33 0 33 71 q0 59 -32 59 q-32 0 -32 -57 ZM647 133 q0 -43 -13 -72 q-13 -29 -33.5 -41 q-20.5 -12 -35 -16 q-14.5 -4 -27.5 -4 q-46 0 -75.5 37.5 q-29.5 37.5 -29.5 95.5 q0 34 9.5 60 q9.5 26 22 39.5 q12.5 13.5 29 21 q16.5 7.5 27.5 9.5 q11 2 20 2 q12 0 26 -4 q14 -4 34 -15.5 q20 -11.5 33 -41 q13 -29.5 13 -71.5 ZM509 138 q0 -73 31 -73 q33 0 33 71 q0 59 -32 59 q-32 0 -32 -57 Z" /><glyph glyph-name="ampersand" unicode="&amp;" d="M527 125 l105 -126 l-195 0 l-13 30 q-61 -59 -174 -59 q-93 0 -139.5 57 q-46.5 57 -46.5 133 q0 50 18.5 90.5 q18.5 40.5 37 58 q18.5 17.5 38.5 29.5 q-44 37 -44 115 q0 15 2.5 30 q2.5 15 13 38.5 q10.5 23.5 29 40.5 q18.5 17 54.5 30 q36 13 85 13 q52 0 88 -15.5 q36 -15.5 52.5 -41 q16.5 -25.5 22.5 -48 q6 -22.5 6 -47.5 q0 -101 -103 -147 l65 -71 l16 66 l157 6 q-21 -96 -75 -182 ZM299 493 q-29 0 -29 -40 q0 -19 5.5 -32.5 q5.5 -13.5 10.5 -18.5 l6 -4 q4 2 10 5.5 q6 3.5 16.5 17 q10.5 13.5 10.5 28.5 q0 24 -7.5 33.5 q-7.5 9.5 -22.5 10.5 ZM234 231 q-15 -22 -15 -49 q0 -29 20 -50 q23 -23 51 -23 q10 0 19.5 3.5 q9.5 3.5 14.5 6.5 l5 3 l-95 109 Z" /><glyph glyph-name="quotesingle" unicode="&#39;" d="M20 408 l0 220 l117 4 l0 -224 l-117 0 Z" /><glyph glyph-name="parenleft" unicode="(" d="M318 747 l34 -128 q-5 -1 -14.5 -4.5 q-9.5 -3.5 -32.5 -19.5 q-23 -16 -40.5 -39 q-17.5 -23 -32 -67.5 q-14.5 -44.5 -14.5 -99.5 l0 -259 q0 -16 1.5 -35 q1.5 -19 9 -53 q7.5 -34 20.5 -59.5 q13 -25.5 40 -45 q27 -19.5 63 -19.5 l0 -124 q-7 0 -18.5 0.5 q-11.5 0.5 -45.5 7.5 q-34 7 -65 19.5 q-31 12.5 -69 40 q-38 27.5 -65 64.5 q-27 37 -45.5 98.5 q-18.5 61.5 -18.5 137.5 l0 217 q0 15 1.5 32.5 q1.5 17.5 8 51.5 q6.5 34 17.5 65 q11 31 33 67.5 q22 36.5 52 65 q30 28.5 76.5 52.5 q46.5 24 104.5 34 Z" /><glyph glyph-name="parenright" unicode=")" d="M59 747 q58 -10 104.5 -34 q46.5 -24 76.5 -52.5 q30 -28.5 52 -65 q22 -36.5 33 -67.5 q11 -31 17.5 -65 q6.5 -34 8 -51.5 q1.5 -17.5 1.5 -32.5 l0 -217 q0 -60 -11 -110.5 q-11 -50.5 -30 -86 q-19 -35.5 -43.5 -64 q-24.5 -28.5 -52 -46 q-27.5 -17.5 -54.5 -30.5 q-27 -13 -51.5 -18.5 q-24.5 -5.5 -43.5 -9 q-19 -3.5 -30 -3.5 l-11 0 l0 124 q36 0 63 19.5 q27 19.5 40 45 q13 25.5 20.5 59.5 q7.5 34 9 53 q1.5 19 1.5 35 l0 259 q0 55 -14 99.5 q-14 44.5 -33.5 67.5 q-19.5 23 -39 38.5 q-19.5 15.5 -33.5 19.5 l-14 5 l34 128 Z" /><glyph glyph-name="asterisk" unicode="*" d="M161 617 l139 -9 l-38 -106 l101 23 l30 -114 l-106 6 l71 -97 l-106 -52 l-59 110 l-72 -98 l-82 68 l93 88 l-107 40 l45 77 l91 -38 l0 102 Z" /><glyph glyph-name="plus" unicode="+" d="M25 207 l0 150 l108 4 l-4 102 l164 7 l0 -103 l110 4 l0 -164 l-110 0 l0 -115 l-150 0 l-5 115 l-113 0 Z" /><glyph glyph-name="comma" unicode="," d="M185 2 l-46 -84 l-120 -10 l52 104 q-37 20 -37 61 q0 32 25 53 q25 21 61 21 q37 0 61.5 -21.5 q24.5 -21.5 24.5 -56.5 q0 -33 -21 -67 Z" /><glyph glyph-name="hyphen" unicode="-" d="M21 207 l0 150 l336 14 l0 -164 l-336 0 Z" /><glyph glyph-name="period" unicode="." d="M25 80 q0 33 23 56.5 q23 23.5 57 23.5 q33 0 56.5 -23.5 q23.5 -23.5 23.5 -56.5 q0 -34 -23.5 -57 q-23.5 -23 -56.5 -23 q-34 0 -57 23 q-23 23 -23 57 Z" /><glyph glyph-name="slash" unicode="/" d="M181 597 l179 8 l-168 -605 l-167 0 l156 597 Z" /><glyph glyph-name="zero" unicode="0" d="M514 305 q0 -79 -21.5 -139 q-21.5 -60 -50.5 -90.5 q-29 -30.5 -67 -48.5 q-38 -18 -62.5 -22.5 q-24.5 -4.5 -46.5 -4.5 q-107 0 -174 85.5 q-67 85.5 -67 219.5 q0 78 21.5 137 q21.5 59 50.5 89 q29 30 67 48.5 q38 18.5 62.5 22.5 q24.5 4 46.5 4 q20 0 43.5 -4 q23.5 -4 60.5 -22.5 q37 -18.5 66 -48.5 q29 -30 50 -89 q21 -59 21 -137 ZM198 315 q0 -32 2.5 -55 q2.5 -23 9 -51.5 q6.5 -28.5 21.5 -44 q15 -15.5 38 -15.5 q76 0 76 161 q0 20 -2.5 39 q-2.5 19 -9 43 q-6.5 24 -23 38.5 q-16.5 14.5 -39.5 14.5 q-23 0 -39 -14 q-16 -14 -22.5 -37 q-6.5 -23 -9 -41.5 q-2.5 -18.5 -2.5 -37.5 Z" /><glyph glyph-name="one" unicode="1" d="M35 427 l-10 121 l170 48 l154 9 l0 -605 l-216 0 l20 457 l-118 -30 Z" /><glyph glyph-name="two" unicode="2" d="M13 480 q30 40 69.5 67 q39.5 27 77 37 q37.5 10 59 13 q21.5 3 39.5 3 q59 0 102.5 -17 q43.5 -17 64 -41 q20.5 -24 32.5 -48 q12 -24 14 -41 l2 -17 q0 -54 -17.5 -103 q-17.5 -49 -42 -80.5 q-24.5 -31.5 -49 -56 q-24.5 -24.5 -42.5 -34.5 l-17 -11 q27 0 89.5 5.5 q62.5 5.5 87.5 6.5 l-11 -163 l-427 0 l0 166 q64 11 147.5 85 q83.5 74 83.5 121 q0 15 -11.5 26 q-11.5 11 -33.5 11 q-26 0 -58 -16.5 q-32 -16.5 -52 -32.5 l-19 -17 l-88 137 Z" /><glyph glyph-name="three" unicode="3" d="M416 325 q63 -49 63 -139 q0 -77 -60 -131.5 q-60 -54.5 -163 -54.5 q-27 0 -65 5 q-55 8 -98 23 q-43 15 -58 26 l-15 12 l37 134 q78 -52 155 -52 q76 0 80 55 q0 38 -71 38 q-18 0 -38.5 -2.5 q-20.5 -2.5 -32.5 -4.5 l-11 -2 l-5 136 l96 0 q75 2 75 46 q0 9 -4 17.5 q-4 8.5 -21 17 q-17 8.5 -46 8.5 q-37 0 -69.5 -18.5 q-32.5 -18.5 -46.5 -36.5 l-14 -18 l-84 130 q3 4 9.5 10 q6.5 6 30 21.5 q23.5 15.5 50.5 27.5 q27 12 72 22 q45 10 95 10 q60 0 101 -16 q41 -16 59 -42 q18 -26 24.5 -47.5 q6.5 -21.5 6.5 -43.5 q0 -32 -13.5 -69 q-13.5 -37 -38.5 -62 Z" /><glyph glyph-name="four" unicode="4" d="M536 295 l-4 -158 l-67 0 q0 -2 -0.5 -12 q-0.5 -10 -0.5 -39.5 q0 -29.5 0 -78.5 l-186 -7 l0 130 l-233 0 l-25 127 l260 327 l177 15 l0 -309 q3 0 79 5 ZM175 288 l112 0 l0 149 q-90 -113 -112 -149 Z" /><glyph glyph-name="five" unicode="5" d="M203 395 q10 1 28 1 q55 0 96.5 -17 q41.5 -17 62.5 -40 q21 -23 34 -54 q13 -31 16 -52.5 q3 -21.5 3 -43.5 l-1 -19 q-4 -71 -47 -110.5 q-43 -39.5 -104 -54.5 q-23 -8 -66 -11 q-8 -1 -22 -1 l-13 0 l-13 0 q-46 1 -85 11.5 q-39 10.5 -56 19.5 l-16 10 l27 134 q62 -20 115 -20 q77 0 78 50 l0 1 q0 59 -114 59 q-13 0 -27 -1 q-14 -1 -25 -2 q-11 -1 -20 -2 q-9 -1 -14 -2 l-6 -1 l-1 338 l388 17 l-7 -157 l-213 0 l2 -53 Z" /><glyph glyph-name="six" unicode="6" d="M272 408 q102 0 158 -58.5 q56 -58.5 56 -139.5 q0 -86 -63 -148 q-63 -62 -181 -62 q-48 0 -86 16 q-38 16 -61 43.5 q-23 27.5 -39 58 q-16 30.5 -23.5 67 q-7.5 36.5 -10 62.5 q-2.5 26 -2.5 52 q0 134 61 220 q61 86 173 86 q60 0 115.5 -9 q55.5 -9 81.5 -18 l26 -9 l-37 -139 q-76 33 -134 33 q-28 0 -50.5 -7.5 q-22.5 -7.5 -35.5 -18.5 q-13 -11 -21.5 -22 q-8.5 -11 -11.5 -19 l-3 -7 q43 19 88 19 ZM315 203 q0 66 -69 66 q-21 0 -48 -7 q-2 -10 -2 -22 q0 -85 63 -85 q23 0 39 12.5 q16 12.5 17 35.5 Z" /><glyph glyph-name="seven" unicode="7" d="M16 599 l414 0 l7 -154 l-200 -446 l-191 0 l195 432 l-225 0 l0 168 Z" /><glyph glyph-name="eight" unicode="8" d="M426 327 q73 -46 73 -142 q0 -93 -61.5 -145 q-61.5 -52 -177.5 -52 q-116 0 -178 52 q-62 52 -62 145 q0 95 74 142 q-45 43 -46 114 q0 9 1.5 21.5 q1.5 12.5 13.5 40.5 q12 28 32 49.5 q20 21.5 63 39.5 q43 18 102 20 q58 -2 101 -20 q43 -18 63 -39.5 q20 -21.5 32 -49.5 q12 -28 13.5 -41 q1.5 -13 1.5 -22 q-3 -72 -45 -113 ZM191 198 q0 -29 21.5 -51.5 q21.5 -22.5 51.5 -22.5 q21 0 37.5 15 q16.5 15 16.5 38 q0 20 -25.5 32.5 q-25.5 12.5 -55.5 21 q-30 8.5 -36 16.5 q-10 -24 -10 -49 ZM278 374 q5 3 13.5 7.5 q8.5 4.5 22.5 21 q14 16.5 14 33.5 q0 42 -55 44 q-9 0 -19 -2 q-10 -2 -22 -13 q-12 -11 -12 -30 q0 -22 14.5 -37.5 q14.5 -15.5 29.5 -19.5 l14 -4 Z" /><glyph glyph-name="nine" unicode="9" d="M234 197 q-102 0 -158 58.5 q-56 58.5 -56 139.5 q0 86 63 148 q63 62 181 62 q48 0 86 -16 q38 -16 61 -43.5 q23 -27.5 39 -58 q16 -30.5 23.5 -67 q7.5 -36.5 10 -62.5 q2.5 -26 2.5 -52 q0 -134 -61 -220 q-61 -86 -173 -86 q-60 0 -116 9 q-56 9 -82 18 l-25 9 l37 139 q76 -33 134 -33 q28 0 50.5 7.5 q22.5 7.5 35.5 18.5 q13 11 21.5 22 q8.5 11 11.5 18 l3 8 q-43 -19 -88 -19 ZM191 402 q0 -66 69 -66 q21 0 48 7 q2 10 2 22 q0 85 -63 85 q-23 0 -39 -12.5 q-16 -12.5 -17 -35.5 Z" /><glyph glyph-name="colon" unicode=":" d="M25 144 q0 39 27 66 q27 27 65 27 q39 0 66 -27 q27 -27 27 -66 q0 -38 -27 -65 q-27 -27 -66 -27 q-38 0 -65 27 q-27 27 -27 65 ZM25 357 q0 39 27 66 q27 27 65 27 q39 0 66 -27 q27 -27 27 -66 q0 -38 -27 -65 q-27 -27 -66 -27 q-38 0 -65 27 q-27 27 -27 65 Z" /><glyph glyph-name="semicolon" unicode=";" d="M191 2 l-46 -84 l-120 -10 l52 104 q-37 20 -37 61 q0 32 25 53 q25 21 61 21 q37 0 61.5 -21.5 q24.5 -21.5 24.5 -56.5 q0 -33 -21 -67 ZM41 253 q0 29 21 50.5 q21 21.5 51 21.5 q30 0 51 -21.5 q21 -21.5 21 -50.5 q0 -31 -21 -51.5 q-21 -20.5 -51 -20.5 q-30 0 -51 20.5 q-21 20.5 -21 51.5 Z" /><glyph glyph-name="less" unicode="&lt;" d="M40 202 l1 107 l465 190 l0 -156 l-206 -94 l207 -83 l0 -151 l-467 187 Z" /><glyph glyph-name="equal" unicode="=" d="M21 249 l0 108 l336 14 l0 -122 l-336 0 ZM21 98 l0 108 l336 3 l0 -111 l-336 0 Z" /><glyph glyph-name="greater" unicode="&gt;" d="M506 309 l1 -107 l-467 -187 l0 151 l207 83 l-206 94 l0 156 l465 -190 Z" /><glyph glyph-name="question" unicode="?" d="M165 117 q34 0 58.5 -24.5 q24.5 -24.5 24.5 -58.5 q0 -35 -24.5 -59 q-24.5 -24 -58.5 -24 q-35 0 -59 24 q-24 24 -24 59 q0 34 24 58.5 q24 24.5 59 24.5 ZM45 604 q75 12 112 12 q226 0 226 -181 q0 -34 -13.5 -61.5 q-13.5 -27.5 -35.5 -44.5 q-22 -17 -42.5 -27.5 q-20.5 -10.5 -43.5 -19.5 q-23 -9 -28 -12 q-15 -8 -15 -35 q0 -13 3.5 -29 q3.5 -16 6.5 -26 l3 -10 l-149 -11 l0 119 q0 31 27 53.5 q27 22.5 60 34 q33 11.5 60 29.5 q27 18 27 39 l0 5 q-6 45 -112 45 q-22 0 -45.5 -2 q-23.5 -2 -36.5 -4 l-13 -2 l9 128 Z" /><glyph glyph-name="at" unicode="@" d="M693 282 q0 -102 -66 -163.5 q-66 -61.5 -157 -61.5 q-45 0 -87 16 q-28 -13 -55 -13 q-65 0 -102 48.5 q-37 48.5 -37 116.5 q0 58 28 106 q28 48 81 64 q42 13 72 7 q-5 21 -6 23 l144 -5 l-21 -245 q28 2 47 17 q19 15 26 35 q7 20 9 32.5 q2 12.5 2 21.5 q0 48 -16 84 q-16 36 -38.5 55 q-22.5 19 -52.5 30.5 q-30 11.5 -51 14 q-21 2.5 -42 2.5 q-95 0 -163.5 -71 q-68.5 -71 -68.5 -173 q0 -98 68 -167.5 q68 -69.5 165 -69.5 l0 -142 q-74 0 -144 30.5 q-70 30.5 -120 82.5 q-50 52 -78.5 122.5 q-28.5 70.5 -28.5 143.5 q0 159 106.5 265.5 q106.5 106.5 280.5 106.5 q300 0 305 -313 ZM350 233 q0 -51 44 -57 q-2 19 -2 88 l0 27 q-42 -3 -42 -58 Z" /><glyph glyph-name="A" unicode="a" d="M373 605 l208 -605 l-170 0 l-44 129 l-162 0 l-39 -129 l-174 0 q4 11 51.5 158.5 q47.5 147.5 92 273 q44.5 125.5 61.5 148.5 l176 25 ZM227 230 l112 0 l-53 170 l-59 -170 Z" /><glyph glyph-name="B" unicode="b" d="M386 317 q36 -9 62 -36.5 q26 -27.5 26 -78.5 q0 -53 -17.5 -91 q-17.5 -38 -43.5 -59 q-26 -21 -67 -33 q-41 -12 -76.5 -15.5 q-35.5 -3.5 -83.5 -3.5 l-166 0 l0 582 q98 23 214 23 q53 0 92.5 -12.5 q39.5 -12.5 59.5 -29.5 q20 -17 32 -40 q12 -23 14.5 -38 q2.5 -15 2.5 -29 q0 -98 -49 -139 ZM160 489 l0 -127 q10 -2 24 -2 q94 0 94 70 q0 64 -73 64 q-15 0 -45 -5 ZM198 114 q98 0 98 67 q0 40 -21.5 58 q-21.5 18 -55.5 18 q-33 0 -59 -13 l0 -126 q17 -4 38 -4 Z" /><glyph glyph-name="C" unicode="c" d="M193 266 q5 -109 136 -109 q56 0 126 22 l55 -142 q-95 -32 -202 -32 q-45 0 -83.5 7 q-38.5 7 -78.5 27 q-40 20 -68 51.5 q-28 31.5 -46 85 q-18 53.5 -18 123.5 q0 73 19 129 q19 56 49 89 q30 33 72 53.5 q42 20.5 81.5 27.5 q39.5 7 84.5 7 q41 0 83 -5.5 q42 -5.5 64 -11.5 l22 -6 l-51 -208 q-44 14 -95 14 q-60 0 -103.5 -27.5 q-43.5 -27.5 -46.5 -94.5 Z" /><glyph glyph-name="D" unicode="d" d="M219 606 q22 0 43.5 -1.5 q21.5 -1.5 56.5 -8.5 q35 -7 64.5 -19 q29.5 -12 62 -35 q32.5 -23 55 -53.5 q22.5 -30.5 37.5 -78.5 q15 -48 15 -107 q0 -85 -32 -146 q-32 -61 -89 -94 q-57 -33 -123.5 -48 q-66.5 -15 -146.5 -15 q-60 0 -127 8 q-10 68 -10 325 q0 180 10 259 q106 14 184 14 ZM196 123 q86 0 133 56.5 q47 56.5 47 146.5 q0 23 -5 44.5 q-5 21.5 -18 46.5 q-13 25 -43 40 q-30 15 -73 15 q-3 0 -8 -0.5 q-5 -0.5 -14 -1 q-9 -0.5 -19 -0.5 l0 -347 Z" /><glyph glyph-name="E" unicode="e" d="M34 0 l-9 580 l375 25 l0 -149 l-201 -4 l0 -88 l189 7 l6 -143 l-186 0 l0 -95 l210 17 l0 -150 l-384 0 Z" /><glyph glyph-name="F" unicode="f" d="M34 0 l-9 580 l375 25 l0 -150 l-199 -3 l0 -86 l187 5 l6 -144 l-183 1 l0 -228 l-177 0 Z" /><glyph glyph-name="G" unicode="g" d="M314 312 l225 16 l0 -328 l-222 0 q-44 0 -83 7.5 q-39 7.5 -78.5 28 q-39.5 20.5 -67.5 52.5 q-28 32 -45.5 85.5 q-17.5 53.5 -17.5 123.5 q0 74 19.5 130.5 q19.5 56.5 49.5 89.5 q30 33 72 54 q42 21 82.5 28 q40.5 7 85.5 7 q99 0 168 -23 l-49 -154 q-52 14 -97 14 q-29 0 -54 -6 q-25 -6 -49.5 -21 q-24.5 -15 -38.5 -45.5 q-14 -30.5 -14 -73.5 q0 -140 155 -140 q25 0 36 1 l0 48 l-77 0 l0 106 Z" /><glyph glyph-name="H" unicode="h" d="M369 0 q-9 72 -9 224 l-156 0 l0 -224 l-179 0 l0 578 l168 18 l0 -247 q69 0 169 6 l7 233 l178 18 l0 -606 l-178 0 Z" /><glyph glyph-name="I" unicode="i" d="M25 590 l181 14 l0 -604 l-181 0 l0 590 Z" /><glyph glyph-name="J" unicode="j" d="M302 605 q-9 -307 -9 -439 q0 -54 -17 -88.5 q-17 -34.5 -51.5 -50.5 q-34.5 -16 -70.5 -21.5 q-36 -5.5 -90 -5.5 q-36 0 -67 3.5 q-31 3.5 -45 7.5 l-13 4 l18 129 q42 -19 88 -21 q37 0 37 61 l-1 18 l0 385 l221 18 Z" /><glyph glyph-name="K" unicode="k" d="M370 230 q17 -18 56 -75.5 q39 -57.5 70 -106.5 l30 -48 l-203 0 l-103 186 l-8 -186 l-183 0 l-4 589 l212 16 l-13 -316 q12 28 42.5 100.5 q30.5 72.5 54 128 q23.5 55.5 27.5 67.5 l207 10 q-12 -53 -58.5 -144 q-46.5 -91 -86.5 -156 l-40 -65 Z" /><glyph glyph-name="L" unicode="l" d="M25 593 l184 12 q3 -114 3 -275 l-1 -198 l180 20 l14 -152 l-376 0 q-1 63 -1.5 90.5 q-0.5 27.5 -0.5 54.5 q0 27 -0.5 145 q-0.5 118 -1.5 303 Z" /><glyph glyph-name="M" unicode="m" d="M25 0 l25 591 l176 14 l160 -396 l195 382 l145 14 l0 -605 l-192 0 l17 266 l-117 -260 l-112 -4 l-119 275 l-11 -277 l-167 0 Z" /><glyph glyph-name="N" unicode="n" d="M25 0 l0 587 l157 18 l210 -370 l-2 357 l178 13 l-30 -605 l-143 0 l-212 270 l0 -270 l-158 0 Z" /><glyph glyph-name="O" unicode="o" d="M580 304 q0 -79 -24.5 -138.5 q-24.5 -59.5 -57.5 -90 q-33 -30.5 -76 -49 q-43 -18.5 -71 -22.5 q-28 -4 -53 -4 q-121 0 -197 85.5 q-76 85.5 -76 218.5 q0 78 24 137 q24 59 57 89 q33 30 76 48.5 q43 18.5 71 22.5 q28 4 53 4 q22 0 49 -4 q27 -4 69.5 -22.5 q42.5 -18.5 75 -48.5 q32.5 -30 56.5 -89 q24 -59 24 -137 ZM221 314 q0 -32 2.5 -55 q2.5 -23 10 -51 q7.5 -28 25 -43.5 q17.5 -15.5 43.5 -15.5 q86 0 86 160 q0 20 -2.5 39 q-2.5 19 -10.5 43 q-8 24 -26 38.5 q-18 14.5 -45 14.5 q-26 0 -44 -14 q-18 -14 -26 -37 q-8 -23 -10.5 -41.5 q-2.5 -18.5 -2.5 -37.5 Z" /><glyph glyph-name="P" unicode="p" d="M6 577 q122 28 225 28 q112 0 172.5 -51 q60.5 -51 60.5 -155 q0 -52 -21 -90.5 q-21 -38.5 -48.5 -57 q-27.5 -18.5 -63.5 -29.5 q-36 -11 -55.5 -13 q-19.5 -2 -36.5 -2 l-48 0 l20 -207 l-186 0 q1 3 1 29 q0 73 -8 278.5 q-8 205.5 -12 269.5 ZM172 320 q11 -2 26 -2 q24 0 44.5 5 q20.5 5 39.5 24.5 q19 19.5 19 52.5 q0 78 -80 78 q-21 0 -49 -7 l0 -151 Z" /><glyph glyph-name="Q" unicode="q" d="M580 304 q0 -218 -172 -284 l63 -113 q-29 -16 -76 -27 q-47 -11 -79 -14 l-33 -3 l-38 142 q-100 18 -160 99.5 q-60 81.5 -60 199.5 q0 78 24 137 q24 59 57 89 q33 30 76 48.5 q43 18.5 71 22.5 q28 4 53 4 q22 0 49 -4 q27 -4 69.5 -22.5 q42.5 -18.5 75 -48.5 q32.5 -30 56.5 -89 q24 -59 24 -137 ZM221 314 q0 -32 2.5 -55 q2.5 -23 10 -51 q7.5 -28 25 -43.5 q17.5 -15.5 43.5 -15.5 q86 0 86 160 q0 20 -2.5 39 q-2.5 19 -10.5 43 q-8 24 -26 38.5 q-18 14.5 -45 14.5 q-26 0 -44 -14 q-18 -14 -26 -37 q-8 -23 -10.5 -41.5 q-2.5 -18.5 -2.5 -37.5 Z" /><glyph glyph-name="R" unicode="r" d="M384 248 l128 -248 l-202 0 l-78 206 l-15 -1 q-10 0 -16 -1 q12 -144 18 -204 l-191 0 l0 388 l-1 193 q116 29 225 29 q58 0 101 -15 q43 -15 65 -35.5 q22 -20.5 35 -48 q13 -27.5 15.5 -45 q2.5 -17.5 2.5 -34.5 q0 -150 -87 -184 ZM172 320 q11 -2 26 -2 q24 0 44.5 5 q20.5 5 39.5 24.5 q19 19.5 19 52.5 q0 78 -80 78 q-21 0 -49 -7 l0 -151 Z" /><glyph glyph-name="S" unicode="s" d="M25 36 l27 159 q133 -35 209 -35 q53 0 53 25 q0 16 -13.5 23 q-13.5 7 -49.5 15 q-95 14 -153 60.5 q-58 46.5 -58 131.5 q0 93 64 141.5 q64 48.5 169 48.5 q50 0 102 -13 q52 -13 78 -24 q26 -11 26 -10 q0 5 -48 -133 q-99 29 -140 29 q-52 0 -52 -33 q0 -17 26.5 -27.5 q26.5 -10.5 64.5 -21 q38 -10.5 76 -26.5 q38 -16 64.5 -53 q26.5 -37 26.5 -92 q0 -106 -68 -154 q-68 -48 -174 -48 q-52 0 -109.5 9.5 q-57.5 9.5 -89.5 18.5 l-31 9 Z" /><glyph glyph-name="T" unicode="t" d="M25 588 l462 18 l0 -149 l-137 -5 l0 -453 l-180 0 l0 455 l-145 0 l0 134 Z" /><glyph glyph-name="U" unicode="u" d="M34 586 l191 19 q-17 -146 -17 -265 q1 -102 16 -141 q15 -39 60 -39 q86 0 86 187 l0 243 l168 15 q9 -63 9 -148 l0 -4 q0 -40 -0.5 -63 q-0.5 -23 -3 -65.5 q-2.5 -42.5 -7 -69 q-4.5 -26.5 -13.5 -64.5 q-9 -38 -22 -62 q-13 -24 -33.5 -51 q-20.5 -27 -46.5 -42 q-26 -15 -62 -25.5 q-36 -10.5 -79 -10.5 q-50 0 -90 11.5 q-40 11.5 -66 29 q-26 17.5 -45 47 q-19 29.5 -29.5 57 q-10.5 27.5 -16 67 q-5.5 39.5 -7 70 q-1.5 30.5 -1.5 72.5 q0 76 2.5 134 q2.5 58 4.5 78 l2 20 Z" /><glyph glyph-name="V" unicode="v" d="M25 577 l180 17 l92 -356 l67 351 l180 15 l-173 -604 l-158 0 q0 -3 -42.5 116 q-42.5 119 -89.5 263.5 q-47 144.5 -56 197.5 Z" /><glyph glyph-name="W" unicode="w" d="M715 590 l176 15 l-175 -605 l-160 0 q-53 138 -100 283 l-81 -283 l-160 0 q-171 474 -190 594 l183 12 l94 -365 l73 349 l175 15 l71 -307 l94 292 Z" /><glyph glyph-name="X" unicode="x" d="M228 318 l-174 267 l260 20 l73 -172 l68 140 l232 16 l-192 -292 l192 -297 l-248 0 l-100 176 l-98 -176 l-216 0 l203 318 Z" /><glyph glyph-name="Y" unicode="y" d="M231 252 l-206 335 l205 18 l93 -183 l98 169 l197 15 l-208 -356 l17 -250 l-196 0 l0 252 Z" /><glyph glyph-name="Z" unicode="z" d="M45 440 l0 151 l417 14 l0 -153 l-222 -308 l222 29 l-14 -172 l-423 0 l0 122 l217 323 l-197 -6 Z" /><glyph glyph-name="bracketleft" unicode="[" d="M281 628 l-76 0 l0 -712 l76 0 l0 -121 l-256 0 l0 942 l256 14 l0 -123 Z" /><glyph glyph-name="backslash" unicode="\" d="M25 605 l179 -8 l156 -597 l-167 0 l-168 605 Z" /><glyph glyph-name="bracketright" unicode="]" d="M101 628 l-76 0 l0 110 l256 12 l0 -955 l-256 0 l0 121 l76 0 l0 712 Z" /><glyph glyph-name="asciicircum" unicode="^" d="M105 646 l65 8 l79 -114 l-88 -9 l-27 48 l-35 -48 l-79 -7 l85 122 Z" /><glyph glyph-name="underscore" unicode="_" d="M20 -6 l0 108 l384 14 l0 -122 l-384 0 Z" /><glyph glyph-name="grave" unicode="`" d="M25 651 l131 12 l45 -125 l-103 -5 l-73 118 Z" /><glyph glyph-name="a" unicode="a" d="M435 276 l-13 -276 l-148 0 l-8 50 q-15 -25 -47 -37.5 q-32 -12.5 -61 -12.5 q-12 0 -26 2 q-14 2 -34 11 q-20 9 -35.5 22.5 q-15.5 13.5 -26.5 40 q-11 26.5 -11 61.5 q0 77 39.5 108 q39.5 31 99.5 31 q30 0 102 -13 q0 1 0 5.5 q0 4.5 -0.5 14.5 q-0.5 10 -0.5 24 q0 44 -44 44 q-25 0 -58.5 -9 q-33.5 -9 -54.5 -18 l-21 -9 l-58 122 q32 24 91.5 43.5 q59.5 19.5 124.5 19.5 q49 0 85.5 -14.5 q36.5 -14.5 56 -35 q19.5 -20.5 31 -53 q11.5 -32.5 14.5 -59.5 q3 -27 3 -62 ZM266 125 l0 51 q-21 19 -60 19 q-27 0 -40.5 -14 q-13.5 -14 -13.5 -35 q0 -20 12.5 -35 q12.5 -15 34.5 -15 q16 0 32.5 7 q16.5 7 25.5 15 l9 7 Z" /><glyph glyph-name="b" unicode="b" d="M298 497 q52 0 90 -22 q38 -22 56.5 -50.5 q18.5 -28.5 29.5 -66.5 q11 -38 13 -59 q2 -21 2 -39 l0 -10 q0 -63 -18 -110 q-18 -47 -44.5 -73 q-26.5 -26 -62.5 -42 q-36 -16 -65.5 -21 q-29.5 -5 -60.5 -5 q-1 0 -60 0.5 q-59 0.5 -153 0.5 l-16 625 l200 19 l-7 -180 q13 15 37 23 q24 8 41 9 l18 1 ZM198 130 q16 -3 36 -3 q45 0 78 28 q33 28 33 102 q0 119 -74 119 q-36 0 -73 -23 l0 -223 Z" /><glyph glyph-name="c" unicode="c" d="M388 153 l48 -126 q-83 -27 -171 -27 q-47 0 -87 10.5 q-40 10.5 -77.5 36 q-37.5 25.5 -59 76 q-21.5 50.5 -21.5 122.5 q0 76 23 129 q23 53 63 79 q40 26 80.5 36.5 q40.5 10.5 88.5 10.5 q61 0 141 -20 l-58 -196 q-14 5 -39 7.5 q-25 2.5 -56 0.5 q-31 -2 -53.5 -20 q-22.5 -18 -22.5 -51 q0 -83 106 -83 q21 0 45 4 q24 4 37 8 l13 3 Z" /><glyph glyph-name="d" unicode="d" d="M303 627 l186 16 l0 -643 l-152 0 l0 68 q-1 -3 -3.5 -7.5 q-2.5 -4.5 -12.5 -16 q-10 -11.5 -24 -20.5 q-14 -9 -40.5 -16.5 q-26.5 -7.5 -58.5 -7.5 q-88 0 -143 71 q-55 71 -55 193 q0 59 19.5 104.5 q19.5 45.5 51 70.5 q31.5 25 67.5 37 q36 12 75 12 q27 0 47.5 -3.5 q20.5 -3.5 30.5 -8.5 q10 -5 16.5 -10 q6.5 -5 8.5 -8 l1 -4 l-14 173 ZM321 135 l0 220 q-17 23 -57 23 l-5 0 q-27 0 -45 -14 q-18 -14 -25.5 -36 q-7.5 -22 -10 -39 q-2.5 -17 -2.5 -33 l0 -10 q11 -117 105 -117 q10 0 20 1.5 q10 1.5 15 3.5 l5 1 Z" /><glyph glyph-name="e" unicode="e" d="M194 204 q20 -73 106 -73 q27 0 57 7 q30 7 47 14 l17 7 l43 -119 q-56 -40 -184 -40 q-255 0 -255 234 q0 72 20.5 125.5 q20.5 53.5 47.5 79.5 q27 26 62.5 41 q35.5 15 54.5 17.5 q19 2.5 36 2.5 q55 0 97 -15 q42 -15 65 -36.5 q23 -21.5 37.5 -52 q14.5 -30.5 19 -56.5 q4.5 -26 4.5 -55 q0 -17 -1.5 -33.5 q-1.5 -16.5 -3.5 -25.5 l-2 -8 q-8 0 -21 -0.5 q-13 -0.5 -48 -2 q-35 -1.5 -66 -3 q-31 -1.5 -63 -3.5 q-32 -2 -51 -3 q-19 -1 -19 -2 ZM259 396 q-70 -1 -70 -96 l137 10 q0 18 -3.5 34.5 q-3.5 16.5 -19.5 34 q-16 17.5 -44 17.5 Z" /><glyph glyph-name="f" unicode="f" d="M299 642 q123 0 178 -43 l0 -171 q-5 5 -14 12 q-9 7 -41 18.5 q-32 11.5 -69 11.5 q-99 0 -99 -110 l115 9 l0 -178 l-100 0 q7 -78 7 -193 l-181 0 l0 186 l-73 0 l0 156 l73 6 l0 85 q0 21 2.5 42 q2.5 21 14.5 53.5 q12 32.5 32.5 56.5 q20.5 24 60.5 41.5 q40 17.5 94 17.5 Z" /><glyph glyph-name="g" unicode="g" d="M329 126 l0 209 q-17 21 -53 21 l-6 0 q-25 0 -42.5 -13 q-17.5 -13 -24.5 -34.5 q-7 -21.5 -9.5 -37.5 q-2.5 -16 -2.5 -31 l0 -9 q11 -111 100 -111 l38 6 ZM486 513 q9 -10 9 -94 q0 -16 -1 -144.5 q-1 -128.5 -1 -250.5 q0 -24 -3 -49 q-3 -25 -17.5 -63 q-14.5 -38 -38.5 -66 q-24 -28 -71.5 -49 q-47.5 -21 -110.5 -21 q-147 0 -219 50 l9 160 q104 -46 178 -46 q33 0 65.5 15 q32.5 15 50.5 42 l-13 14 q-53 -35 -103 -35 q-94 0 -147 71.5 q-53 71.5 -53 188.5 q0 68 17.5 119 q17.5 51 41 77 q23.5 26 55 42 q31.5 16 52 19.5 q20.5 3.5 39.5 3.5 q68 0 125 -43 l-8 44 l144 15 Z" /><glyph glyph-name="h" unicode="h" d="M310 0 q11 81 11 205 q0 106 -63 106 q-20 0 -29 -22.5 q-9 -22.5 -9 -83.5 q0 -52 10 -205 l-182 0 l-23 624 l196 21 l0 -239 q4 5 13 12 q9 7 39 18.5 q30 11.5 64 11.5 q34 0 59 -6 q25 -6 49.5 -22.5 q24.5 -16.5 38 -52.5 q13.5 -36 13.5 -89 l16 -278 l-203 0 Z" /><glyph glyph-name="i" unicode="i" d="M24 678 l192 11 l-5 -141 l-179 -10 l-8 140 ZM25 484 l197 11 l0 -495 l-181 0 l-16 484 Z" /><glyph glyph-name="j" unicode="j" d="M282 468 l-1 -504 q-2 -58 -19.5 -101 q-17.5 -43 -38.5 -64 q-21 -21 -50 -33 q-29 -12 -45 -14 q-16 -2 -32 -2 q-88 7 -141 36 l14 162 q22 -12 50 -12 q23 0 38 9 q15 9 20.5 27 q5.5 18 7 31 q1.5 13 1.5 36 l-15 414 l211 15 ZM84 649 l-5 0 l189 11 l0 -135 l-184 -16 l0 140 Z" /><glyph glyph-name="k" unicode="k" d="M526 0 l-244 0 q-21 97 -48 158 l-20 -5 l0 -153 l-169 0 l-20 623 l194 19 l0 -361 l66 202 l227 17 q-83 -177 -154 -254 l168 -246 Z" /><glyph glyph-name="l" unicode="l" d="M25 630 l197 14 l0 -644 l-181 0 l-16 630 Z" /><glyph glyph-name="m" unicode="m" d="M770 0 l-196 0 l0 305 q0 22 -10.5 38 q-10.5 16 -31.5 16 q-17 0 -27.5 -16.5 q-10.5 -16.5 -10.5 -25.5 l0 -317 l-196 0 l0 305 q0 54 -42 54 q-30 0 -41 -14.5 q-11 -14.5 -11 -41.5 l16 -303 l-195 0 l0 478 l177 22 q-3 -10 -4.5 -31.5 q-1.5 -21.5 -1.5 -37.5 l-1 -16 q37 78 148 78 q96 0 128 -75 q39 75 147 75 q37 0 64.5 -12 q27.5 -12 42.5 -28 q15 -16 25.5 -42.5 q10.5 -26.5 13.5 -46 q3 -19.5 6 -47.5 l0 -317 Z" /><glyph glyph-name="n" unicode="n" d="M205 294 l16 -294 l-196 0 l0 471 q56 9 106.5 17.5 q50.5 8.5 72.5 11.5 q0 -46 -8 -94 q38 78 149 78 q37 0 64.5 -12 q27.5 -12 42.5 -28 q15 -16 25.5 -42.5 q10.5 -26.5 13.5 -46.5 q3 -20 6 -48 l0 -307 l-197 0 l0 295 q0 55 -42 55 q-31 0 -42 -14.5 q-11 -14.5 -11 -41.5 Z" /><glyph glyph-name="o" unicode="o" d="M484 251 q0 -55 -13.5 -98.5 q-13.5 -43.5 -36.5 -69.5 q-23 -26 -48 -44 q-25 -18 -53.5 -25.5 q-28.5 -7.5 -47 -10.5 q-18.5 -3 -34.5 -3 q-99 0 -162.5 70.5 q-63.5 70.5 -63.5 180.5 q0 65 20 113.5 q20 48.5 47.5 73.5 q27.5 25 63.5 40 q36 15 59 18.5 q23 3.5 43 3.5 q18 0 40 -3.5 q22 -3.5 57 -18.5 q35 -15 62 -40 q27 -25 47 -73.5 q20 -48.5 20 -113.5 ZM187 259 q0 -26 2.5 -45 q2.5 -19 8.5 -42.5 q6 -23.5 20 -36 q14 -12.5 36 -12.5 q71 0 71 132 q0 16 -2.5 32 q-2.5 16 -8.5 36 q-6 20 -21 32 q-15 12 -37 12 q-28 0 -45 -21.5 q-17 -21.5 -20.5 -42.5 q-3.5 -21 -3.5 -44 Z" /><glyph glyph-name="p" unicode="p" d="M527 248 q0 -124 -55.5 -185 q-55.5 -61 -139.5 -67 q-10 -1 -26 -1 q-33 0 -56 9 q-23 9 -29.5 15.5 q-6.5 6.5 -7.5 10.5 l12 -223 l-200 -10 l0 691 l164 12 l0 -76 q27 68 127 68 q84 0 146.5 -60.5 q62.5 -60.5 64.5 -183.5 ZM208 347 l4 -226 q18 -6 40 -6 q95 0 106 121 q5 136 -83 136 l-5 0 q-44 0 -62 -25 Z" /><glyph glyph-name="q" unicode="q" d="M25 248 q2 123 64.5 183.5 q62.5 60.5 146.5 60.5 q100 0 127 -68 l-4 60 l177 16 l0 -699 l-198 -1 l0 230 q0 -3 -6.5 -10.5 q-6.5 -7.5 -29.5 -16 q-23 -8.5 -56 -8.5 q-16 0 -26 1 q-84 6 -139.5 67 q-55.5 61 -55.5 185 ZM340 121 l4 226 q-18 25 -62 25 l-5 0 q-83 0 -83 -122 l0 -14 q11 -121 106 -121 l40 6 Z" /><glyph glyph-name="r" unicode="r" d="M203 299 l20 -299 l-198 0 l0 468 l177 32 q-3 -10 -5 -32 q-2 -22 -3 -38 l0 -17 q38 80 148 80 q139 0 139 -162 l0 -11 l0 -96 l-184 -16 l0 92 q0 56 -42 56 q-30 0 -41 -14.5 q-11 -14.5 -11 -42.5 Z" /><glyph glyph-name="s" unicode="s" d="M25 30 l22 131 q110 -29 173 -29 q44 0 44 21 q0 14 -11.5 19.5 q-11.5 5.5 -40.5 11.5 q-79 12 -127 50.5 q-48 38.5 -48 108.5 q0 77 53 117 q53 40 140 40 q41 0 84 -10.5 q43 -10.5 64 -19.5 l22 -9 q0 2 -10 -25.5 q-10 -27.5 -20 -55.5 l-9 -29 q-80 24 -116 24 q-43 0 -43 -27 q0 -14 22 -23 q22 -9 53 -17.5 q31 -8.5 62.5 -21.5 q31.5 -13 53.5 -44 q22 -31 22 -76 q0 -88 -56 -127.5 q-56 -39.5 -144 -39.5 q-43 0 -90.5 7.5 q-47.5 7.5 -73.5 15.5 l-26 8 Z" /><glyph glyph-name="t" unicode="t" d="M69 197 l-6 175 l-53 0 l0 112 l50 5 l-6 130 l190 28 l0 -139 l119 12 l0 -148 l-123 0 l0 -106 q0 -16 0.5 -26 q0.5 -10 4 -24.5 q3.5 -14.5 9.5 -23 q6 -8.5 18 -15 q12 -6.5 30 -6.5 q25 0 46 11 l21 -149 q-48 -25 -130 -33 q-15 0 -29.5 2 q-14.5 2 -41 13 q-26.5 11 -46 30 q-19.5 19 -35.5 58.5 q-16 39.5 -18 93.5 Z" /><glyph glyph-name="u" unicode="u" d="M309 208 l1 280 l180 12 l0 -377 l-4 -123 l-157 0 l-10 86 q-13 -28 -34 -47 q-21 -19 -44.5 -26.5 q-23.5 -7.5 -39 -10 q-15.5 -2.5 -30.5 -2.5 q-44 0 -74.5 16 q-30.5 16 -45 45 q-14.5 29 -20.5 60.5 q-6 31.5 -6 71.5 l0 293 l191 14 l0 -289 q0 -63 42 -63 q30 0 40.5 15.5 q10.5 15.5 10.5 44.5 Z" /><glyph glyph-name="v" unicode="v" d="M7 490 l187 10 l95 -299 l74 290 l181 9 l-180 -500 l-161 0 q-1 0 -45 100 q-44 100 -93 222.5 q-49 122.5 -58 167.5 Z" /><glyph glyph-name="w" unicode="w" d="M511 485 l188 15 l-146 -490 l-140 -8 q-36 83 -72 199 q-52 -175 -57 -191 l-143 -10 q-138 370 -154 479 l166 10 l62 -317 q12 59 27.5 171 q15.5 112 24.5 146 l157 11 l35 -330 q15 78 26.5 147 q11.5 69 17.5 113.5 q6 44.5 8 54.5 Z" /><glyph glyph-name="x" unicode="x" d="M135 269 l-142 224 l216 7 l60 -133 l79 133 l176 0 l-162 -247 l162 -252 l-210 -1 l-86 149 l-82 -149 l-183 0 l172 269 Z" /><glyph glyph-name="y" unicode="y" d="M457 498 l1 -391 q0 -35 -4 -68.5 q-4 -33.5 -19.5 -80 q-15.5 -46.5 -41.5 -80.5 q-26 -34 -75.5 -59 q-49.5 -25 -116.5 -26 l-4 0 q-122 0 -201 39 l0 185 q86 -49 191 -49 q34 0 59 11 q25 11 37.5 25.5 q12.5 14.5 20.5 34 q8 19.5 9.5 31.5 q1.5 12 1.5 23 q-1 1 -3.5 1.5 q-2.5 0.5 -4.5 2.5 q-4 -9 -10.5 -18.5 q-6.5 -9.5 -20 -22.5 q-13.5 -13 -36.5 -21 q-23 -8 -52 -8 q-76 0 -124.5 59 q-48.5 59 -48.5 171 l0 226 l178 15 q0 -188 -2 -214 l0 -7 q0 -39 10.5 -74 q10.5 -35 37.5 -35 q29 0 40 42.5 q11 42.5 11 84.5 l0 188 l167 15 Z" /><glyph glyph-name="z" unicode="z" d="M37 363 l0 125 l371 12 l0 -127 l-210 -254 l210 24 l-12 -142 l-376 0 l0 101 l180 266 l-163 -5 Z" /><glyph glyph-name="braceleft" unicode="{" d="M109 338 q44 14 44 82 q0 14 -2 36 l-5 122 q0 42 27.5 75 q27.5 33 67.5 51 q40 18 79.5 29.5 q39.5 11.5 67.5 14.5 l27 4 l2 -6 l0 -128 l-20 -6 q-55 -14 -71 -46 q-16 -32 -16 -99 l0 -111 q0 -52 -45 -85 q45 -32 45 -85 l0 -120 q0 -62 17 -93 q17 -31 70 -42 l20 -6 l0 -128 l-2 -6 q-6 1 -15.5 2 q-9.5 1 -37.5 6.5 q-28 5.5 -53.5 13 q-25.5 7.5 -56.5 21.5 q-31 14 -53 31 q-22 17 -37.5 42.5 q-15.5 25.5 -15.5 55.5 q0 57 5 124 q2 22 2 36 q0 68 -44 82 q-43 13 -84 13 l-5 0 l0 107 l5 0 q41 0 84 13 Z" /><glyph glyph-name="bar" unicode="|" d="M25 656 l181 14 l0 -724 l-181 0 l0 710 Z" /><glyph glyph-name="braceright" unicode="}" d="M328 338 q43 -13 84 -13 l5 0 l0 -107 l-5 0 q-41 0 -84 -13 q-44 -14 -44 -82 q0 -14 2 -36 q5 -67 5 -124 q0 -41 -27.5 -74 q-27.5 -33 -67 -50.5 q-39.5 -17.5 -79.5 -29 q-40 -11.5 -67 -15.5 l-28 -3 l-2 6 l0 128 l20 6 q53 11 70 42 q17 31 17 93 l0 120 q0 53 45 85 q-45 33 -45 85 l0 111 q0 67 -16 99 q-16 32 -71 46 l-20 6 l0 128 l2 6 q11 -1 29 -3.5 q18 -2.5 64.5 -15 q46.5 -12.5 82 -29.5 q35.5 -17 64.5 -50.5 q29 -33.5 29 -75.5 q-3 -82 -5 -122 q-2 -22 -2 -36 q0 -68 44 -82 Z" /><glyph glyph-name="asciitilde" unicode="~" d="M25 593 q13 36 44 68.5 q31 32.5 68 32.5 q22 0 64.5 -21.5 q42.5 -21.5 57.5 -21.5 q14 0 28.5 14.5 q14.5 14.5 21 26 q6.5 11.5 9.5 19.5 l82 -50 q-18 -123 -114 -123 q-33 0 -66.5 17.5 q-33.5 17.5 -49.5 17.5 q-33 0 -44 -40 l-101 60 Z" /><glyph glyph-name="exclamdown" unicode="¡" d="M54 252 l146 0 l0 -421 l-175 -9 q29 368 29 430 ZM125 312 q-35 0 -61 26 q-26 26 -26 61 q0 35 26 59.5 q26 24.5 61 24.5 q37 0 63.5 -24.5 q26.5 -24.5 26.5 -59.5 q0 -35 -26.5 -61 q-26.5 -26 -63.5 -26 Z" /><glyph glyph-name="cent" unicode="¢" d="M432 32 q-46 -16 -106 -23 l0 -60 l-104 0 l0 58 q-202 20 -202 240 q0 223 202 249 l0 58 l105 14 l0 -72 q22 -3 44 -7.5 q22 -4.5 33 -7.5 l11 -3 l-44 -134 q-19 6 -44 8 l0 -209 l57 13 l48 -124 ZM173 247 q0 -70 49 -91 l0 185 q-49 -25 -49 -94 Z" /><glyph glyph-name="sterling" unicode="£" d="M430 190 l100 -57 q-7 -43 -30 -72.5 q-23 -29.5 -54 -41 q-31 -11.5 -52 -15.5 q-21 -4 -40 -4 l-334 0 l0 121 l88 0 l0 127 l-57 0 l0 110 l57 0 l0 7 q0 127 40.5 184 q40.5 57 130.5 57 q53 0 103.5 -12.5 q50.5 -12.5 75.5 -25.5 l24 -12 l-53 -114 q-4 4 -11.5 10 q-7.5 6 -35 15.5 q-27.5 9.5 -59.5 9.5 q-54 0 -54 -88 l0 -34 l6 -2 l133 0 l-14 -108 l-123 0 l0 -123 l68 0 q38 0 60.5 17 q22.5 17 26.5 34 l4 17 Z" /><glyph glyph-name="currency" unicode="¤" d="M430 523 l-34 -69 q88 -66 88 -203 q0 -134 -81 -199 l40 -75 l-102 0 l-17 34 q-38 -11 -73 -11 q-40 0 -70 10 l-15 -30 l-102 0 l39 75 q-78 72 -78 196 q0 136 85 201 l-33 68 l82 3 l18 -37 q43 14 81 14 q33 0 70 -12 l20 38 l82 -3 ZM187 259 q0 -26 2.5 -45 q2.5 -19 8.5 -42.5 q6 -23.5 20 -36 q14 -12.5 36 -12.5 q71 0 71 132 q0 16 -2.5 32 q-2.5 16 -8.5 36 q-6 20 -21 32 q-15 12 -37 12 q-28 0 -45 -21.5 q-17 -21.5 -20.5 -42.5 q-3.5 -21 -3.5 -44 Z" /><glyph glyph-name="yen" unicode="¥" d="M161 133 l69 3 l0 31 l-70 0 l1 67 l69 3 l0 16 l-205 334 l205 18 l93 -183 l98 169 l197 15 l-204 -350 l0 -10 l87 4 l0 -83 l-83 0 l1 -22 l82 4 l0 -83 l-79 0 l1 -14 l4 -52 l-196 0 l0 66 l-71 0 l1 67 Z" /><glyph glyph-name="section" unicode="§" d="M418 288 q0 -50 3 -103 q3 -53 3 -99 q0 -91 -58 -132 q-58 -41 -149 -41 q-44 0 -93.5 7.5 q-49.5 7.5 -76.5 15.5 l-27 8 l23 136 q114 -30 178 -30 q46 0 46 22 q0 14 -12 20 q-12 6 -42 12 q-181 28 -181 165 q0 59 34 99 q-39 39 -39 103 q0 79 55 121 q55 42 145 42 q26 0 53 -4 q27 -4 48 -10 q21 -6 37.5 -12 q16.5 -6 26 -10 q9.5 -4 10.5 -4 l-42 -114 q-83 25 -119 25 q-45 0 -45 -28 q0 -15 23 -24 q23 -9 55.5 -18 q32.5 -9 65 -23 q32.5 -14 55.5 -45.5 q23 -31.5 23 -78.5 ZM203 274 q0 -13 16 -21 q42 0 42 21 q0 19 -29 27 q-29 -5 -29 -27 Z" /><glyph glyph-name="dieresis" unicode="¨" d="M25 594 q0 26 18.5 44 q18.5 18 43.5 18 q25 0 43 -18.5 q18 -18.5 18 -43.5 q0 -25 -18 -43 q-18 -18 -43 -18 q-25 0 -43.5 18 q-18.5 18 -18.5 43 ZM230 548 q-15 15 -15 37 q0 22 15 37 q15 15 37 15 q22 0 37 -15 q15 -15 15 -37 q0 -22 -15 -37 q-15 -15 -37 -15 q-22 0 -37 15 Z" /><glyph glyph-name="copyright" unicode="©" d="M98.5 150.5 q-78.5 78.5 -78.5 188.5 q0 110 78.5 188.5 q78.5 78.5 188.5 78.5 q110 0 188.5 -78.5 q78.5 -78.5 78.5 -188.5 q0 -110 -78.5 -188.5 q-78.5 -78.5 -188.5 -78.5 q-110 0 -188.5 78.5 ZM187.5 445 q-41.5 -42 -41.5 -101 q0 -59 41.5 -100.5 q41.5 -41.5 101.5 -41.5 q59 0 100.5 41.5 q41.5 41.5 41.5 100.5 q0 59 -41.5 101 q-41.5 42 -100.5 42 q-60 0 -101.5 -42 ZM257 334 q1 34 41 34 l27 -4 l14 58 q-21 6 -47 6 q-85 0 -85 -85 q0 -82 82 -82 q13 0 27 2.5 q14 2.5 22 4.5 l7 2 l-15 40 q-20 -6 -35 -6 q-37 0 -38 30 Z" /><glyph glyph-name="ordfeminine" unicode="ª" d="M189 507 l-6 -120 l-64 0 l-4 22 q-13 -22 -47 -22 q-10 0 -21.5 3.5 q-11.5 3.5 -24 18 q-12.5 14.5 -12.5 38.5 q0 60 61 60 q26 0 44 -6 l0 20 q0 19 -20 19 q-11 0 -25.5 -4 q-14.5 -4 -23.5 -8 l-9 -4 l-25 54 q34 27 94 27 q50 0 66.5 -27.5 q16.5 -27.5 16.5 -70.5 ZM115 441 l0 22 q-9 9 -27 9 q-22 0 -22 -22 q0 -22 20 -22 q7 0 14.5 3 q7.5 3 11.5 7 l3 3 Z" /><glyph glyph-name="guillemotleft" unicode="«" d="M20 230 l1 84 l311 151 l0 -123 l-138 -75 l139 -66 l0 -119 l-313 148 ZM333 230 l1 84 l311 151 l0 -123 l-138 -75 l139 -66 l0 -119 l-313 148 Z" /><glyph glyph-name="logicalnot" unicode="¬" d="M20 207 l0 164 l468 0 l0 -280 l-182 -10 l0 126 l-286 0 Z" /><glyph glyph-name="uni00AD" unicode="­" d="M21 207 l0 150 l336 14 l0 -164 l-336 0 Z" /><glyph glyph-name="registered" unicode="®" d="M98.5 150.5 q-78.5 78.5 -78.5 188.5 q0 110 78.5 188.5 q78.5 78.5 188.5 78.5 q110 0 188.5 -78.5 q78.5 -78.5 78.5 -188.5 q0 -110 -78.5 -188.5 q-78.5 -78.5 -188.5 -78.5 q-110 0 -188.5 78.5 ZM187.5 445 q-41.5 -42 -41.5 -101 q0 -59 41.5 -100.5 q41.5 -41.5 101.5 -41.5 q59 0 100.5 41.5 q41.5 41.5 41.5 100.5 q0 59 -41.5 101 q-41.5 42 -100.5 42 q-60 0 -101.5 -42 ZM326 332 l37 -70 l-57 0 l-22 58 l-5 0 l-4 0 q4 -49 5 -58 l-54 0 l0 109 l0 55 q35 8 63 8 q26 0 41.5 -11 q15.5 -11 18 -20.5 q2.5 -9.5 2.5 -18.5 q0 -42 -25 -52 ZM267 352 l7 0 q29 0 29 23 q0 22 -23 22 q-4 0 -8 -1 q-4 -1 -5 -1 l0 -43 Z" /><glyph glyph-name="macron" unicode="¯" d="M25 533 l1 98 l348 24 l0 -110 l-349 -12 Z" /><glyph glyph-name="degree" unicode="°" d="M287.5 522.5 q12.5 -29.5 12.5 -69.5 q0 -40 -12.5 -70 q-12.5 -30 -29 -45 q-16.5 -15 -38.5 -24.5 q-22 -9.5 -36 -11.5 q-14 -2 -26 -2 q-61 0 -99.5 43 q-38.5 43 -38.5 110 q0 40 12.5 69.5 q12.5 29.5 29 44.5 q16.5 15 38.5 24.5 q22 9.5 36 11.5 q14 2 26 2 q11 0 24.5 -2 q13.5 -2 34.5 -11.5 q21 -9.5 37.5 -24.5 q16.5 -15 29 -44.5 ZM119 458 q3 -83 41 -83 q43 0 43 81 q0 68 -42 68 q-42 0 -42 -66 Z" /><glyph glyph-name="plusminus" unicode="±" d="M20 -6 l0 108 l384 14 l0 -122 l-384 0 ZM47 251 l0 133 l96 4 l-3 91 l145 6 l0 -92 l98 4 l0 -146 l-98 0 l0 -102 l-133 0 l-4 102 l-101 0 Z" /><glyph glyph-name="twosuperior" unicode="²" d="M20 540 q45 60 122 60 q29 0 51 -8.5 q22 -8.5 32.5 -20.5 q10.5 -12 16.5 -24 q6 -12 7 -21 l1 -8 q0 -27 -8.5 -51.5 q-8.5 -24.5 -21 -40.5 q-12.5 -16 -25 -28 q-12.5 -12 -21.5 -18 l-8 -5 q13 0 44.5 3 q31.5 3 44.5 3 l-6 -81 l-214 0 l0 83 q32 5 74 42 q42 37 42 61 q0 18 -23 18 q-13 0 -29 -8 q-16 -8 -25 -16 l-10 -9 l-44 69 Z" /><glyph glyph-name="threesuperior" unicode="³" d="M219 464 q32 -24 32 -70 q0 -39 -30 -66.5 q-30 -27.5 -82 -27.5 q-15 0 -33 3 q-28 4 -49.5 11.5 q-21.5 7.5 -28.5 13.5 l-8 5 l19 68 q39 -26 78 -26 q37 0 40 27 q0 19 -36 19 l-41 -4 l-3 69 l49 0 q37 0 37 23 q0 21 -35 21 q-19 0 -35.5 -9 q-16.5 -9 -23.5 -18 l-7 -9 l-42 65 q4 5 13.5 12.5 q9.5 7.5 42.5 20.5 q33 13 73 13 q30 0 51 -8 q21 -8 30 -21 q9 -13 12.5 -24 q3.5 -11 3.5 -22 q0 -39 -27 -66 Z" /><glyph glyph-name="acute" unicode="´" d="M71 657 l133 8 l-87 -126 l-92 -7 l46 125 Z" /><glyph glyph-name="mu" unicode="µ" d="M25 -152 l0 638 l191 14 l0 -289 q0 -63 42 -63 q30 0 40.5 15.5 q10.5 15.5 10.5 44.5 l1 280 l180 12 l0 -377 l-4 -123 l-157 0 l-10 86 q-33 -73 -121 -85 l0 -151 l-173 -2 Z" /><glyph glyph-name="paragraph" unicode="¶" d="M220 -107 l0 208 q-23 2 -45 6.5 q-22 4.5 -51.5 18 q-29.5 13.5 -51 33 q-21.5 19.5 -37 54.5 q-15.5 35 -15.5 79 q0 104 60.5 155 q60.5 51 172.5 51 q103 0 225 -28 q-4 -64 -12 -269.5 q-8 -205.5 -8 -278.5 q0 -26 1 -29 l-165 0 l-1 207 l-36 0 l0 -207 l-37 0 Z" /><glyph glyph-name="cedilla" unicode="¸" d="M53 34 l78 3 l-3 -41 q36 -4 57 -25 q21 -21 25 -40 l3 -19 q0 -37 -18 -64 q-18 -27 -43.5 -39.5 q-25.5 -12.5 -51 -19.5 q-25.5 -7 -43.5 -8 l-18 -1 l-14 89 q4 0 10 0.5 q6 0.5 22 3.5 q16 3 28.5 7 q12.5 4 22.5 12 q10 8 10 19 q0 32 -61 32 l-4 91 Z" /><glyph glyph-name="onesuperior" unicode="¹" d="M25 515 l-5 61 l85 24 l78 5 l0 -305 l-109 0 l10 230 l-59 -15 Z" /><glyph glyph-name="ordmasculine" unicode="º" d="M207.5 555 q12.5 -24 12.5 -59 q0 -35 -12.5 -59 q-12.5 -24 -31.5 -33.5 q-19 -9.5 -32.5 -13 q-13.5 -3.5 -24.5 -3.5 q-43 0 -71 31 q-28 31 -28 78 q0 35 12.5 59 q12.5 24 31.5 33.5 q19 9.5 32.5 13 q13.5 3.5 24.5 3.5 q11 0 24 -3.5 q13 -3.5 31.5 -13 q18.5 -9.5 31 -33.5 ZM91 500 q0 -59 29 -59 q31 0 31 58 q0 48 -30 48 q-30 0 -30 -47 Z" /><glyph glyph-name="guillemotright" unicode="»" d="M645 314 l1 -84 l-313 -148 l0 119 l139 66 l-138 75 l0 123 l311 -151 ZM332 314 l1 -84 l-313 -148 l0 119 l139 66 l-138 75 l0 123 l311 -151 Z" /><glyph glyph-name="onequarter" unicode="¼" d="M25 515 l-5 61 l85 24 l78 5 l0 -305 l-109 0 l10 230 l-59 -15 ZM300 597 l179 8 l-168 -605 l-167 0 l156 597 ZM622 154 l-2 -83 l-35 0 l0 -67 l-97 -4 l0 68 l-122 0 l-13 66 l136 170 l92 8 l0 -161 q2 0 5.5 0.5 q3.5 0.5 13 1 q9.5 0.5 22.5 1.5 ZM434 150 l59 0 l0 78 q-41 -49 -59 -78 Z" /><glyph glyph-name="onehalf" unicode="½" d="M25 515 l-5 61 l85 24 l78 5 l0 -305 l-109 0 l10 230 l-59 -15 ZM300 597 l179 8 l-168 -605 l-167 0 l156 597 ZM401 263 q50 66 134 66 q32 0 56 -9.5 q24 -9.5 35.5 -22.5 q11.5 -13 18 -26 q6.5 -13 7.5 -23 l1 -9 q0 -29 -9.5 -56 q-9.5 -27 -23 -44.5 q-13.5 -17.5 -27 -30.5 q-13.5 -13 -23.5 -19 l-9 -6 q15 0 49 3 q34 3 48 3 l-6 -89 l-234 0 l0 91 q36 6 81.5 46.5 q45.5 40.5 45.5 66.5 q0 20 -25 20 q-14 0 -32 -9 q-18 -9 -28 -18 l-11 -9 l-48 75 Z" /><glyph glyph-name="threequarters" unicode="¾" d="M344 597 l179 8 l-168 -605 l-167 0 l156 597 ZM666 154 l-2 -83 l-35 0 l0 -67 l-97 -4 l0 68 l-122 0 l-13 66 l136 170 l92 8 l0 -161 q2 0 5.5 0.5 q3.5 0.5 13 1 q9.5 0.5 22.5 1.5 ZM478 150 l59 0 l0 78 q-41 -49 -59 -78 ZM219 464 q32 -24 32 -70 q0 -39 -30 -66 q-30 -27 -82 -27 q-15 0 -33 3 q-28 4 -49.5 11.5 q-21.5 7.5 -28.5 12.5 l-8 6 l19 67 q39 -26 78 -26 q37 0 40 28 q0 19 -36 19 l-41 -4 l-3 68 l49 0 q37 0 37 23 q0 22 -35 22 q-19 0 -35.5 -9.5 q-16.5 -9.5 -23.5 -18.5 l-7 -9 l-42 65 q4 5 13.5 12.5 q9.5 7.5 42.5 20.5 q33 13 73 13 q30 0 51 -8 q21 -8 30 -21 q9 -13 12.5 -24 q3.5 -11 3.5 -22 q0 -39 -27 -66 Z" /><glyph glyph-name="questiondown" unicode="¿" d="M243 450 q-34 0 -58.5 24.5 q-24.5 24.5 -24.5 58.5 q0 35 24.5 59 q24.5 24 58.5 24 q35 0 59 -24 q24 -24 24 -59 q0 -35 -24 -59 q-24 -24 -59 -24 ZM363 -37 q-75 -12 -112 -12 q-226 0 -226 181 q0 34 13.5 61.5 q13.5 27.5 35.5 44.5 q22 17 42.5 27.5 q20.5 10.5 43.5 19.5 q23 9 28 12 q15 8 15 35 q0 13 -3.5 29 q-3.5 16 -6.5 25 l-3 10 l135 0 l14 -99 l0 -8 q0 -31 -27 -53.5 q-27 -22.5 -60 -34 q-33 -11.5 -60 -29.5 q-27 -18 -27 -39 l0 -5 q6 -45 112 -45 q22 0 45.5 2 q23.5 2 36.5 4 l13 2 l-9 -128 Z" /><glyph glyph-name="Agrave" unicode="à" d="M155 770 l131 12 l47 -115 l-106 -19 l-72 122 ZM373 605 l208 -605 l-170 0 l-44 129 l-162 0 l-39 -129 l-174 0 q4 11 51.5 158.5 q47.5 147.5 92 273 q44.5 125.5 61.5 148.5 l176 25 ZM227 230 l112 0 l-53 170 l-59 -170 Z" /><glyph glyph-name="Aacute" unicode="á" d="M373 605 l208 -605 l-170 0 l-44 129 l-162 0 l-39 -129 l-174 0 q4 11 51.5 158.5 q47.5 147.5 92 273 q44.5 125.5 61.5 148.5 l176 25 ZM227 230 l112 0 l-53 170 l-59 -170 ZM267 769 l133 8 l-87 -126 l-92 -7 l46 125 Z" /><glyph glyph-name="Acircumflex" unicode="â" d="M244 761 l68 9 l82 -119 l-92 -9 l-28 50 l-36 -50 l-82 -7 l88 126 ZM373 605 l208 -605 l-170 0 l-44 129 l-162 0 l-39 -129 l-174 0 q4 11 51.5 158.5 q47.5 147.5 92 273 q44.5 125.5 61.5 148.5 l176 25 ZM227 230 l112 0 l-53 170 l-59 -170 Z" /><glyph glyph-name="Atilde" unicode="ã" d="M84 696 q13 36 44 68.5 q31 32.5 68 32.5 q22 0 64.5 -21.5 q42.5 -21.5 57.5 -21.5 q14 0 28.5 14.5 q14.5 14.5 21 26 q6.5 11.5 9.5 19.5 l82 -50 q-18 -123 -114 -123 q-33 0 -66.5 17.5 q-33.5 17.5 -49.5 17.5 q-33 0 -44 -40 l-101 60 ZM373 605 l208 -605 l-170 0 l-44 129 l-162 0 l-39 -129 l-174 0 q4 11 51.5 158.5 q47.5 147.5 92 273 q44.5 125.5 61.5 148.5 l176 25 ZM227 230 l112 0 l-53 170 l-59 -170 Z" /><glyph glyph-name="Adieresis" unicode="ä" d="M141 661 q-19 19 -19 45 q0 26 19 45 q19 19 45 19 q26 0 45 -19 q19 -19 19 -45 q0 -26 -19 -45 q-19 -19 -45 -19 q-26 0 -45 19 ZM336 658 q-16 16 -16 38 q0 22 16 38 q16 16 38 16 q22 0 38 -16 q16 -16 16 -38 q0 -22 -16 -38 q-16 -16 -38 -16 q-22 0 -38 16 ZM373 605 l208 -605 l-170 0 l-44 129 l-162 0 l-39 -129 l-174 0 q4 11 51.5 158.5 q47.5 147.5 92 273 q44.5 125.5 61.5 148.5 l176 25 ZM227 230 l112 0 l-53 170 l-59 -170 Z" /><glyph glyph-name="Aring" unicode="å" d="M219.5 657.5 q-23.5 23.5 -23.5 56.5 q0 33 23.5 56.5 q23.5 23.5 56.5 23.5 q33 0 56.5 -23.5 q23.5 -23.5 23.5 -56.5 q0 -33 -23.5 -56.5 q-23.5 -23.5 -56.5 -23.5 q-33 0 -56.5 23.5 ZM260.5 729.5 q-6.5 -6.5 -6.5 -15.5 q0 -9 6.5 -15.5 q6.5 -6.5 15.5 -6.5 q9 0 15.5 6.5 q6.5 6.5 6.5 15.5 q0 9 -6.5 15.5 q-6.5 6.5 -15.5 6.5 q-9 0 -15.5 -6.5 ZM373 605 l208 -605 l-170 0 l-44 129 l-162 0 l-39 -129 l-174 0 q4 11 51.5 158.5 q47.5 147.5 92 273 q44.5 125.5 61.5 148.5 l176 25 ZM227 230 l112 0 l-53 170 l-59 -170 Z" /><glyph glyph-name="AE" unicode="æ" d="M297 0 l-2 129 l-87 0 l-39 -129 l-174 0 q4 12 51.5 160.5 q47.5 148.5 92 275.5 q44.5 127 61.5 148 l463 21 l0 -153 l-201 0 l0 -88 l189 7 l6 -143 l-186 0 l0 -95 l210 17 l0 -150 l-384 0 ZM230 230 l61 0 l0 164 l-2 6 l-59 -170 Z" /><glyph glyph-name="Ccedilla" unicode="ç" d="M193 266 q5 -109 136 -109 q56 0 126 22 l55 -142 q-95 -32 -202 -32 l-24 0 l0 -9 q36 -4 57 -25 q21 -21 25 -40 l3 -19 q0 -37 -18 -64 q-18 -27 -43.5 -39.5 q-25.5 -12.5 -51 -19.5 q-25.5 -7 -43.5 -8 l-18 -1 l-14 89 q4 0 10 0.5 q6 0.5 22 3.5 q16 3 28.5 7 q12.5 4 22.5 12 q10 8 10 19 q0 32 -61 32 l-3 72 q-196 47 -196 284 q0 73 19 129 q19 56 49 89 q30 33 72 53.5 q42 20.5 81.5 27.5 q39.5 7 84.5 7 q41 0 83 -5.5 q42 -5.5 64 -11.5 l22 -6 l-51 -208 q-44 14 -95 14 q-60 0 -103.5 -27.5 q-43.5 -27.5 -46.5 -94.5 Z" /><glyph glyph-name="Egrave" unicode="è" d="M34 0 l-9 580 l375 25 l0 -149 l-201 -4 l0 -88 l189 7 l6 -143 l-186 0 l0 -95 l210 17 l0 -150 l-384 0 ZM91 770 l131 12 l45 -125 l-103 -5 l-73 118 Z" /><glyph glyph-name="Eacute" unicode="é" d="M196 769 l133 8 l-87 -126 l-92 -7 l46 125 ZM25 580 l9 -580 l384 0 l0 150 l-210 -17 l0 95 l186 0 l-6 143 l-189 -7 l0 88 l201 4 l0 149 l-375 -25 Z" /><glyph glyph-name="Ecircumflex" unicode="ê" d="M25 580 l9 -580 l384 0 l0 150 l-210 -17 l0 95 l186 0 l-6 143 l-189 -7 l0 88 l201 4 l0 149 l-375 -25 ZM177 761 l68 9 l82 -119 l-92 -9 l-28 50 l-36 -50 l-82 -7 l88 126 Z" /><glyph glyph-name="Edieresis" unicode="ë" d="M74 661 q-19 19 -19 45 q0 26 19 45 q19 19 45 19 q26 0 45 -19 q19 -19 19 -45 q0 -26 -19 -45 q-19 -19 -45 -19 q-26 0 -45 19 ZM268.5 658 q-15.5 16 -15.5 38 q0 22 15.5 38 q15.5 16 38.5 16 q23 0 38.5 -16 q15.5 -16 15.5 -38 q0 -22 -15.5 -38 q-15.5 -16 -38.5 -16 q-23 0 -38.5 16 ZM25 580 l9 -580 l384 0 l0 150 l-210 -17 l0 95 l186 0 l-6 143 l-189 -7 l0 88 l201 4 l0 149 l-375 -25 Z" /><glyph glyph-name="Igrave" unicode="ì" d="M-10 770 l131 12 l45 -125 l-106 -11 l-70 124 ZM25 590 l181 14 l0 -604 l-181 0 l0 590 Z" /><glyph glyph-name="Iacute" unicode="í" d="M25 590 l181 14 l0 -604 l-181 0 l0 590 ZM106 769 l133 8 l-87 -126 l-92 -7 l46 125 Z" /><glyph glyph-name="Icircumflex" unicode="î" d="M82 761 l68 9 l82 -119 l-92 -9 l-28 50 l-36 -50 l-82 -7 l88 126 ZM25 590 l181 14 l0 -604 l-181 0 l0 590 Z" /><glyph glyph-name="Idieresis" unicode="ï" d="M25 590 l181 14 l0 -604 l-181 0 l0 590 ZM-22 661 q-19 19 -19 45 q0 26 19 45 q19 19 45 19 q26 0 45 -19 q19 -19 19 -45 q0 -26 -19 -45 q-19 -19 -45 -19 q-26 0 -45 19 ZM172.5 658 q-15.5 16 -15.5 38 q0 22 15.5 38 q15.5 16 38.5 16 q23 0 38.5 -16 q15.5 -16 15.5 -38 q0 -22 -15.5 -38 q-15.5 -16 -38.5 -16 q-23 0 -38.5 16 Z" /><glyph glyph-name="Eth" unicode="ð" d="M25 207 l0 150 l69 3 q0 161 10 232 q106 14 184 14 q22 0 43.5 -1.5 q21.5 -1.5 56.5 -8.5 q35 -7 64.5 -19 q29.5 -12 62 -35 q32.5 -23 55 -53.5 q22.5 -30.5 37.5 -78.5 q15 -48 15 -107 q0 -85 -32 -146 q-32 -61 -89 -94 q-57 -33 -123.5 -48 q-66.5 -15 -146.5 -15 q-60 0 -127 8 q-6 33 -9 199 l-70 0 ZM265 123 q86 0 133 56.5 q47 56.5 47 146.5 q0 23 -5 44.5 q-5 21.5 -18 46.5 q-13 25 -43 40 q-30 15 -73 15 q-3 0 -8 -0.5 q-5 -0.5 -14 -1 q-9 -0.5 -19 -0.5 l0 -103 l96 4 l0 -164 l-96 0 l0 -84 Z" /><glyph glyph-name="Ntilde" unicode="ñ" d="M25 587 l0 -587 l158 0 l0 270 l212 -270 l143 0 l30 605 l-178 -13 l2 -357 l-210 370 l-157 -18 ZM93 696 q13 36 44 68.5 q31 32.5 68 32.5 q22 0 64.5 -21.5 q42.5 -21.5 57.5 -21.5 q14 0 28.5 14.5 q14.5 14.5 21 26 q6.5 11.5 9.5 19.5 l82 -50 q-18 -123 -114 -123 q-33 0 -66.5 17.5 q-33.5 17.5 -49.5 17.5 q-33 0 -44 -40 l-101 60 Z" /><glyph glyph-name="Ograve" unicode="ò" d="M580 304 q0 -79 -24.5 -138.5 q-24.5 -59.5 -57.5 -90 q-33 -30.5 -76 -49 q-43 -18.5 -71 -22.5 q-28 -4 -53 -4 q-121 0 -197 85.5 q-76 85.5 -76 218.5 q0 78 24 137 q24 59 57 89 q33 30 76 48.5 q43 18.5 71 22.5 q28 4 53 4 q22 0 49 -4 q27 -4 69.5 -22.5 q42.5 -18.5 75 -48.5 q32.5 -30 56.5 -89 q24 -59 24 -137 ZM221 314 q0 -32 2.5 -55 q2.5 -23 10 -51 q7.5 -28 25 -43.5 q17.5 -15.5 43.5 -15.5 q86 0 86 160 q0 20 -2.5 39 q-2.5 19 -10.5 43 q-8 24 -26 38.5 q-18 14.5 -45 14.5 q-26 0 -44 -14 q-18 -14 -26 -37 q-8 -23 -10.5 -41.5 q-2.5 -18.5 -2.5 -37.5 ZM176 770 l131 12 l45 -125 l-103 -5 l-73 118 Z" /><glyph glyph-name="Oacute" unicode="ó" d="M580 304 q0 -79 -24.5 -138.5 q-24.5 -59.5 -57.5 -90 q-33 -30.5 -76 -49 q-43 -18.5 -71 -22.5 q-28 -4 -53 -4 q-121 0 -197 85.5 q-76 85.5 -76 218.5 q0 78 24 137 q24 59 57 89 q33 30 76 48.5 q43 18.5 71 22.5 q28 4 53 4 q22 0 49 -4 q27 -4 69.5 -22.5 q42.5 -18.5 75 -48.5 q32.5 -30 56.5 -89 q24 -59 24 -137 ZM221 314 q0 -32 2.5 -55 q2.5 -23 10 -51 q7.5 -28 25 -43.5 q17.5 -15.5 43.5 -15.5 q86 0 86 160 q0 20 -2.5 39 q-2.5 19 -10.5 43 q-8 24 -26 38.5 q-18 14.5 -45 14.5 q-26 0 -44 -14 q-18 -14 -26 -37 q-8 -23 -10.5 -41.5 q-2.5 -18.5 -2.5 -37.5 ZM295 769 l133 8 l-87 -126 l-92 -7 l46 125 Z" /><glyph glyph-name="Ocircumflex" unicode="ô" d="M580 304 q0 -79 -24.5 -138.5 q-24.5 -59.5 -57.5 -90 q-33 -30.5 -76 -49 q-43 -18.5 -71 -22.5 q-28 -4 -53 -4 q-121 0 -197 85.5 q-76 85.5 -76 218.5 q0 78 24 137 q24 59 57 89 q33 30 76 48.5 q43 18.5 71 22.5 q28 4 53 4 q22 0 49 -4 q27 -4 69.5 -22.5 q42.5 -18.5 75 -48.5 q32.5 -30 56.5 -89 q24 -59 24 -137 ZM221 314 q0 -32 2.5 -55 q2.5 -23 10 -51 q7.5 -28 25 -43.5 q17.5 -15.5 43.5 -15.5 q86 0 86 160 q0 20 -2.5 39 q-2.5 19 -10.5 43 q-8 24 -26 38.5 q-18 14.5 -45 14.5 q-26 0 -44 -14 q-18 -14 -26 -37 q-8 -23 -10.5 -41.5 q-2.5 -18.5 -2.5 -37.5 ZM274 761 l68 9 l82 -119 l-92 -9 l-28 50 l-36 -50 l-82 -7 l88 126 Z" /><glyph glyph-name="Otilde" unicode="õ" d="M580 304 q0 -79 -24.5 -138.5 q-24.5 -59.5 -57.5 -90 q-33 -30.5 -76 -49 q-43 -18.5 -71 -22.5 q-28 -4 -53 -4 q-121 0 -197 85.5 q-76 85.5 -76 218.5 q0 78 24 137 q24 59 57 89 q33 30 76 48.5 q43 18.5 71 22.5 q28 4 53 4 q22 0 49 -4 q27 -4 69.5 -22.5 q42.5 -18.5 75 -48.5 q32.5 -30 56.5 -89 q24 -59 24 -137 ZM221 314 q0 -32 2.5 -55 q2.5 -23 10 -51 q7.5 -28 25 -43.5 q17.5 -15.5 43.5 -15.5 q86 0 86 160 q0 20 -2.5 39 q-2.5 19 -10.5 43 q-8 24 -26 38.5 q-18 14.5 -45 14.5 q-26 0 -44 -14 q-18 -14 -26 -37 q-8 -23 -10.5 -41.5 q-2.5 -18.5 -2.5 -37.5 ZM90 696 q13 36 44 68.5 q31 32.5 68 32.5 q22 0 64.5 -21.5 q42.5 -21.5 57.5 -21.5 q14 0 28.5 14.5 q14.5 14.5 21 26 q6.5 11.5 9.5 19.5 l82 -50 q-18 -123 -114 -123 q-33 0 -66.5 17.5 q-33.5 17.5 -49.5 17.5 q-33 0 -44 -40 l-101 60 Z" /><glyph glyph-name="Odieresis" unicode="ö" d="M154 661 q-19 19 -19 45 q0 26 19 45 q19 19 45 19 q26 0 45 -19 q19 -19 19 -45 q0 -26 -19 -45 q-19 -19 -45 -19 q-26 0 -45 19 ZM348.5 658 q-15.5 16 -15.5 38 q0 22 15.5 38 q15.5 16 38.5 16 q23 0 38.5 -16 q15.5 -16 15.5 -38 q0 -22 -15.5 -38 q-15.5 -16 -38.5 -16 q-23 0 -38.5 16 ZM580 304 q0 -79 -24.5 -138.5 q-24.5 -59.5 -57.5 -90 q-33 -30.5 -76 -49 q-43 -18.5 -71 -22.5 q-28 -4 -53 -4 q-121 0 -197 85.5 q-76 85.5 -76 218.5 q0 78 24 137 q24 59 57 89 q33 30 76 48.5 q43 18.5 71 22.5 q28 4 53 4 q22 0 49 -4 q27 -4 69.5 -22.5 q42.5 -18.5 75 -48.5 q32.5 -30 56.5 -89 q24 -59 24 -137 ZM221 314 q0 -32 2.5 -55 q2.5 -23 10 -51 q7.5 -28 25 -43.5 q17.5 -15.5 43.5 -15.5 q86 0 86 160 q0 20 -2.5 39 q-2.5 19 -10.5 43 q-8 24 -26 38.5 q-18 14.5 -45 14.5 q-26 0 -44 -14 q-18 -14 -26 -37 q-8 -23 -10.5 -41.5 q-2.5 -18.5 -2.5 -37.5 Z" /><glyph glyph-name="multiply" unicode="×" d="M128 78 l-106 106 l73 79 l-75 70 l111 121 l73 -73 l75 80 l116 -116 l-78 -77 l81 -82 l-106 -106 l-84 78 l-80 -80 Z" /><glyph glyph-name="Oslash" unicode="ø" d="M463 643 l90 0 l-67 -103 q94 -80 94 -236 q0 -79 -24.5 -138.5 q-24.5 -59.5 -57.5 -90 q-33 -30.5 -76 -49 q-43 -18.5 -71 -22.5 q-28 -4 -53 -4 q-53 0 -102 19 l-27 -49 l-79 0 l45 83 q-110 86 -110 251 q0 78 24 137 q24 59 57 89 q33 30 76 48.5 q43 18.5 71 22.5 q28 4 53 4 q55 0 114 -24 l43 62 ZM189 327 q0 -93 16 -143 l159 293 q-26 24 -64 24 q-35 0 -59.5 -18.5 q-24.5 -18.5 -34.5 -49 q-10 -30.5 -13.5 -55.5 q-3.5 -25 -3.5 -51 ZM413 320 q0 38 -8 75 l-154 -278 q18 -12 46 -12 q116 0 116 215 Z" /><glyph glyph-name="Ugrave" unicode="ù" d="M34 586 l191 19 q-17 -146 -17 -265 q1 -102 16 -141 q15 -39 60 -39 q86 0 86 187 l0 243 l168 15 q9 -63 9 -148 l0 -4 q0 -40 -0.5 -63 q-0.5 -23 -3 -65.5 q-2.5 -42.5 -7 -69 q-4.5 -26.5 -13.5 -64.5 q-9 -38 -22 -62 q-13 -24 -33.5 -51 q-20.5 -27 -46.5 -42 q-26 -15 -62 -25.5 q-36 -10.5 -79 -10.5 q-50 0 -90 11.5 q-40 11.5 -66 29 q-26 17.5 -45 47 q-19 29.5 -29.5 57 q-10.5 27.5 -16 67 q-5.5 39.5 -7 70 q-1.5 30.5 -1.5 72.5 q0 76 2.5 134 q2.5 58 4.5 78 l2 20 ZM181 770 l131 12 l45 -125 l-103 -5 l-73 118 Z" /><glyph glyph-name="Uacute" unicode="ú" d="M34 586 q-9 -61 -9 -232 q0 -42 1.5 -72.5 q1.5 -30.5 7 -70 q5.5 -39.5 16 -67 q10.5 -27.5 29.5 -57 q19 -29.5 45 -47 q26 -17.5 66 -29 q40 -11.5 90 -11.5 q43 0 79 10.5 q36 10.5 62 25.5 q26 15 46.5 42 q20.5 27 33.5 51 q13 24 22 62 q9 38 13.5 64.5 q4.5 26.5 7 69 q2.5 42.5 3 65.5 q0.5 23 0.5 63 l0 4 q0 38 -2.5 75 q-2.5 37 -4.5 55 l-2 18 l-168 -15 l0 -243 q0 -187 -86 -187 q-45 0 -60 39 q-15 39 -16 141 q0 53 4 119 q4 66 8 106 l5 40 l-191 -19 ZM267 769 l133 8 l-87 -126 l-92 -7 l46 125 Z" /><glyph glyph-name="Ucircumflex" unicode="û" d="M34 586 q-9 -61 -9 -232 q0 -42 1.5 -72.5 q1.5 -30.5 7 -70 q5.5 -39.5 16 -67 q10.5 -27.5 29.5 -57 q19 -29.5 45 -47 q26 -17.5 66 -29 q40 -11.5 90 -11.5 q43 0 79 10.5 q36 10.5 62 25.5 q26 15 46.5 42 q20.5 27 33.5 51 q13 24 22 62 q9 38 13.5 64.5 q4.5 26.5 7 69 q2.5 42.5 3 65.5 q0.5 23 0.5 63 l0 4 q0 38 -2.5 75 q-2.5 37 -4.5 55 l-2 18 l-168 -15 l0 -243 q0 -187 -86 -187 q-45 0 -60 39 q-15 39 -16 141 q0 53 4 119 q4 66 8 106 l5 40 l-191 -19 ZM268 761 l68 9 l82 -119 l-92 -9 l-28 50 l-36 -50 l-82 -7 l88 126 Z" /><glyph glyph-name="Udieresis" unicode="ü" d="M141 661 q-19 19 -19 45 q0 26 19 45 q19 19 45 19 q26 0 45 -19 q19 -19 19 -45 q0 -26 -19 -45 q-19 -19 -45 -19 q-26 0 -45 19 ZM336 658 q-16 16 -16 38 q0 22 16 38 q16 16 38 16 q22 0 38 -16 q16 -16 16 -38 q0 -22 -16 -38 q-16 -16 -38 -16 q-22 0 -38 16 ZM34 586 q-9 -61 -9 -232 q0 -42 1.5 -72.5 q1.5 -30.5 7 -70 q5.5 -39.5 16 -67 q10.5 -27.5 29.5 -57 q19 -29.5 45 -47 q26 -17.5 66 -29 q40 -11.5 90 -11.5 q43 0 79 10.5 q36 10.5 62 25.5 q26 15 46.5 42 q20.5 27 33.5 51 q13 24 22 62 q9 38 13.5 64.5 q4.5 26.5 7 69 q2.5 42.5 3 65.5 q0.5 23 0.5 63 l0 4 q0 38 -2.5 75 q-2.5 37 -4.5 55 l-2 18 l-168 -15 l0 -243 q0 -187 -86 -187 q-45 0 -60 39 q-15 39 -16 141 q0 53 4 119 q4 66 8 106 l5 40 l-191 -19 Z" /><glyph glyph-name="Yacute" unicode="ý" d="M25 587 l206 -335 l0 -252 l196 0 l-17 250 l208 356 l-197 -15 l-98 -169 l-93 183 l-205 -18 ZM317 769 l133 8 l-87 -126 l-92 -7 l46 125 Z" /><glyph glyph-name="Thorn" unicode="þ" d="M196 525 q9 1 23 1 q24 0 49 -3 q25 -3 60.5 -15 q35.5 -12 61.5 -32 q26 -20 45 -58.5 q19 -38.5 19 -90.5 q0 -46 -12.5 -82.5 q-12.5 -36.5 -31 -60 q-18.5 -23.5 -44.5 -40.5 q-26 -17 -49 -25.5 q-23 -8.5 -50 -13 q-27 -4.5 -40.5 -5.5 q-13.5 -1 -26.5 -1 l-4 -98 l-176 0 l0 586 l176 17 l0 -79 ZM176 228 q5 -1 13 -1 q19 0 36 4.5 q17 4.5 35 25.5 q18 21 18 57 q0 28 -10 47.5 q-10 19.5 -26 27.5 q-16 8 -29 11 q-13 3 -26 3 l-11 -1 l0 -174 Z" /><glyph glyph-name="germandbls" unicode="ß" d="M510 220 q31 -43 31 -77 q-2 -45 -24.5 -76.5 q-22.5 -31.5 -58.5 -46 q-36 -14.5 -70 -20 q-34 -5.5 -73 -5.5 q-13 0 -26.5 0.5 q-13.5 0.5 -23.5 1.5 q-10 1 -17.5 2.5 q-7.5 1.5 -12.5 2.5 l-5 0 l0 103 q88 0 115 6.5 q27 6.5 27 25.5 q0 8 -4 13.5 q-4 5.5 -12.5 9.5 q-8.5 4 -16 6.5 q-7.5 2.5 -21.5 6.5 q-14 4 -22 7 q-20 7 -32 12.5 q-12 5.5 -31.5 17 q-19.5 11.5 -30 28.5 q-10.5 17 -10.5 38 q0 22 10 50 q10 28 21 47 q11 19 24.5 41 q13.5 22 15.5 26 q8 16 8 28 q0 34 -54 34 q-48 0 -48 -59 q0 -3 0.5 -12 q0.5 -9 1.5 -34 q1 -25 2 -67 q1 -42 2.5 -128 q1.5 -86 2.5 -200 l-158 0 l0 437 q0 42 17 74 q17 32 40.5 49 q23.5 17 55.5 27.5 q32 10.5 56 13 q24 2.5 47 2.5 q24 0 48.5 -3 q24.5 -3 59.5 -13 q35 -10 56.5 -34 q21.5 -24 21.5 -60 q0 -10 -2 -26 q-2 -16 -12.5 -44.5 q-10.5 -28.5 -28.5 -45.5 q-26 -26 -34.5 -35.5 q-8.5 -9.5 -8.5 -17.5 q2 -18 23.5 -31 q21.5 -13 48.5 -20 q27 -7 57 -21.5 q30 -14.5 45 -33.5 Z" /><glyph glyph-name="agrave" unicode="à" d="M435 276 l-13 -276 l-148 0 l-8 50 q-15 -25 -47 -37.5 q-32 -12.5 -61 -12.5 q-12 0 -26 2 q-14 2 -34 11 q-20 9 -35.5 22.5 q-15.5 13.5 -26.5 40 q-11 26.5 -11 61.5 q0 77 39.5 108 q39.5 31 99.5 31 q30 0 102 -13 q0 1 0 5.5 q0 4.5 -0.5 14.5 q-0.5 10 -0.5 24 q0 44 -44 44 q-25 0 -58.5 -9 q-33.5 -9 -54.5 -18 l-21 -9 l-58 122 q32 24 91.5 43.5 q59.5 19.5 124.5 19.5 q49 0 85.5 -14.5 q36.5 -14.5 56 -35 q19.5 -20.5 31 -53 q11.5 -32.5 14.5 -59.5 q3 -27 3 -62 ZM266 125 l0 51 q-21 19 -60 19 q-27 0 -40.5 -14 q-13.5 -14 -13.5 -35 q0 -20 12.5 -35 q12.5 -15 34.5 -15 q16 0 32.5 7 q16.5 7 25.5 15 l9 7 ZM106 651 l131 12 l45 -125 l-103 -5 l-73 118 Z" /><glyph glyph-name="aacute" unicode="á" d="M435 276 l-13 -276 l-148 0 l-8 50 q-15 -25 -47 -37.5 q-32 -12.5 -61 -12.5 q-12 0 -26 2 q-14 2 -34 11 q-20 9 -35.5 22.5 q-15.5 13.5 -26.5 40 q-11 26.5 -11 61.5 q0 77 39.5 108 q39.5 31 99.5 31 q30 0 102 -13 q0 1 0 5.5 q0 4.5 -0.5 14.5 q-0.5 10 -0.5 24 q0 44 -44 44 q-25 0 -58.5 -9 q-33.5 -9 -54.5 -18 l-21 -9 l-58 122 q32 24 91.5 43.5 q59.5 19.5 124.5 19.5 q49 0 85.5 -14.5 q36.5 -14.5 56 -35 q19.5 -20.5 31 -53 q11.5 -32.5 14.5 -59.5 q3 -27 3 -62 ZM266 125 l0 51 q-21 19 -60 19 q-27 0 -40.5 -14 q-13.5 -14 -13.5 -35 q0 -20 12.5 -35 q12.5 -15 34.5 -15 q16 0 32.5 7 q16.5 7 25.5 15 l9 7 ZM215 657 l133 8 l-87 -126 l-92 -7 l46 125 Z" /><glyph glyph-name="acircumflex" unicode="â" d="M435 276 l-13 -276 l-148 0 l-8 50 q-15 -25 -47 -37.5 q-32 -12.5 -61 -12.5 q-12 0 -26 2 q-14 2 -34 11 q-20 9 -35.5 22.5 q-15.5 13.5 -26.5 40 q-11 26.5 -11 61.5 q0 77 39.5 108 q39.5 31 99.5 31 q30 0 102 -13 q0 1 0 5.5 q0 4.5 -0.5 14.5 q-0.5 10 -0.5 24 q0 44 -44 44 q-25 0 -58.5 -9 q-33.5 -9 -54.5 -18 l-21 -9 l-58 122 q32 24 91.5 43.5 q59.5 19.5 124.5 19.5 q49 0 85.5 -14.5 q36.5 -14.5 56 -35 q19.5 -20.5 31 -53 q11.5 -32.5 14.5 -59.5 q3 -27 3 -62 ZM266 125 l0 51 q-21 19 -60 19 q-27 0 -40.5 -14 q-13.5 -14 -13.5 -35 q0 -20 12.5 -35 q12.5 -15 34.5 -15 q16 0 32.5 7 q16.5 7 25.5 15 l9 7 ZM201 646 l65 8 l79 -114 l-88 -9 l-27 48 l-35 -48 l-79 -7 l85 122 Z" /><glyph glyph-name="atilde" unicode="ã" d="M435 276 l-13 -276 l-148 0 l-8 50 q-15 -25 -47 -37.5 q-32 -12.5 -61 -12.5 q-12 0 -26 2 q-14 2 -34 11 q-20 9 -35.5 22.5 q-15.5 13.5 -26.5 40 q-11 26.5 -11 61.5 q0 77 39.5 108 q39.5 31 99.5 31 q30 0 102 -13 q0 1 0 5.5 q0 4.5 -0.5 14.5 q-0.5 10 -0.5 24 q0 44 -44 44 q-25 0 -58.5 -9 q-33.5 -9 -54.5 -18 l-21 -9 l-58 122 q32 24 91.5 43.5 q59.5 19.5 124.5 19.5 q49 0 85.5 -14.5 q36.5 -14.5 56 -35 q19.5 -20.5 31 -53 q11.5 -32.5 14.5 -59.5 q3 -27 3 -62 ZM266 125 l0 51 q-21 19 -60 19 q-27 0 -40.5 -14 q-13.5 -14 -13.5 -35 q0 -20 12.5 -35 q12.5 -15 34.5 -15 q16 0 32.5 7 q16.5 7 25.5 15 l9 7 ZM24 593 q13 36 44 68.5 q31 32.5 68 32.5 q22 0 64.5 -21.5 q42.5 -21.5 57.5 -21.5 q14 0 28.5 14.5 q14.5 14.5 21 26 q6.5 11.5 9.5 19.5 l82 -50 q-18 -123 -114 -123 q-33 0 -66.5 17.5 q-33.5 17.5 -49.5 17.5 q-33 0 -44 -40 l-101 60 Z" /><glyph glyph-name="adieresis" unicode="ä" d="M435 276 l-13 -276 l-148 0 l-8 50 q-15 -25 -47 -37.5 q-32 -12.5 -61 -12.5 q-12 0 -26 2 q-14 2 -34 11 q-20 9 -35.5 22.5 q-15.5 13.5 -26.5 40 q-11 26.5 -11 61.5 q0 77 39.5 108 q39.5 31 99.5 31 q30 0 102 -13 q0 1 0 5.5 q0 4.5 -0.5 14.5 q-0.5 10 -0.5 24 q0 44 -44 44 q-25 0 -58.5 -9 q-33.5 -9 -54.5 -18 l-21 -9 l-58 122 q32 24 91.5 43.5 q59.5 19.5 124.5 19.5 q49 0 85.5 -14.5 q36.5 -14.5 56 -35 q19.5 -20.5 31 -53 q11.5 -32.5 14.5 -59.5 q3 -27 3 -62 ZM266 125 l0 51 q-21 19 -60 19 q-27 0 -40.5 -14 q-13.5 -14 -13.5 -35 q0 -20 12.5 -35 q12.5 -15 34.5 -15 q16 0 32.5 7 q16.5 7 25.5 15 l9 7 ZM73 594 q0 26 18.5 44 q18.5 18 43.5 18 q25 0 43 -18.5 q18 -18.5 18 -43.5 q0 -25 -18 -43 q-18 -18 -43 -18 q-25 0 -43.5 18 q-18.5 18 -18.5 43 ZM278 548 q-15 15 -15 37 q0 22 15 37 q15 15 37 15 q22 0 37 -15 q15 -15 15 -37 q0 -22 -15 -37 q-15 -15 -37 -15 q-22 0 -37 15 Z" /><glyph glyph-name="aring" unicode="å" d="M435 276 l-13 -276 l-148 0 l-8 50 q-15 -25 -47 -37.5 q-32 -12.5 -61 -12.5 q-12 0 -26 2 q-14 2 -34 11 q-20 9 -35.5 22.5 q-15.5 13.5 -26.5 40 q-11 26.5 -11 61.5 q0 77 39.5 108 q39.5 31 99.5 31 q30 0 102 -13 q0 1 0 5.5 q0 4.5 -0.5 14.5 q-0.5 10 -0.5 24 q0 44 -44 44 q-25 0 -58.5 -9 q-33.5 -9 -54.5 -18 l-21 -9 l-58 122 q32 24 91.5 43.5 q59.5 19.5 124.5 19.5 q49 0 85.5 -14.5 q36.5 -14.5 56 -35 q19.5 -20.5 31 -53 q11.5 -32.5 14.5 -59.5 q3 -27 3 -62 ZM266 125 l0 51 q-21 19 -60 19 q-27 0 -40.5 -14 q-13.5 -14 -13.5 -35 q0 -20 12.5 -35 q12.5 -15 34.5 -15 q16 0 32.5 7 q16.5 7 25.5 15 l9 7 ZM173.5 556.5 q-23.5 23.5 -23.5 56.5 q0 33 23.5 56.5 q23.5 23.5 56.5 23.5 q33 0 56.5 -23.5 q23.5 -23.5 23.5 -56.5 q0 -33 -23.5 -56.5 q-23.5 -23.5 -56.5 -23.5 q-33 0 -56.5 23.5 ZM214.5 628.5 q-6.5 -6.5 -6.5 -15.5 q0 -9 6.5 -15.5 q6.5 -6.5 15.5 -6.5 q9 0 15.5 6.5 q6.5 6.5 6.5 15.5 q0 9 -6.5 15.5 q-6.5 6.5 -15.5 6.5 q-9 0 -15.5 -6.5 Z" /><glyph glyph-name="ae" unicode="æ" d="M419 204 q20 -73 106 -73 q27 0 57 7 q30 7 47 14 l17 7 l43 -119 q-56 -40 -184 -40 q-62 0 -108 13 l0 -13 l-148 0 l-8 50 q-15 -25 -47 -37.5 q-32 -12.5 -61 -12.5 q-12 0 -26 2 q-14 2 -34 11 q-20 9 -35.5 22.5 q-15.5 13.5 -26.5 40 q-11 26.5 -11 61.5 q0 77 39.5 108 q39.5 31 99.5 31 q31 0 102 -13 q0 1 -0.5 5.5 q-0.5 4.5 -0.5 14.5 q0 10 0 24 q0 44 -44 44 q-25 0 -58.5 -9 q-33.5 -9 -54.5 -18 l-21 -9 l-58 122 q32 24 91.5 43.5 q59.5 19.5 124.5 19.5 q82 0 128 -38 q55 38 123 38 q55 0 97 -15 q42 -15 65 -36.5 q23 -21.5 37.5 -52 q14.5 -30.5 19 -56.5 q4.5 -26 4.5 -55 q0 -17 -2 -33.5 q-2 -16.5 -4 -25.5 l-1 -8 q-8 0 -21 -0.5 q-13 -0.5 -48 -2 q-35 -1.5 -66 -3 q-31 -1.5 -63 -3.5 q-32 -2 -51 -3 q-19 -1 -19 -2 ZM484 396 q-70 -1 -70 -96 l137 10 q0 18 -3.5 34.5 q-3.5 16.5 -19.5 34 q-16 17.5 -44 17.5 ZM241 125 l0 51 q-21 19 -60 19 q-27 0 -40.5 -14 q-13.5 -14 -13.5 -35 q0 -20 12.5 -35 q12.5 -15 34.5 -15 q16 0 33 7 q17 7 25 15 l9 7 Z" /><glyph glyph-name="ccedilla" unicode="ç" d="M388 153 l48 -126 q-79 -26 -164 -27 l0 -4 q36 -4 57 -25 q21 -21 25 -40 l3 -19 q0 -37 -18 -64 q-18 -27 -43.5 -39.5 q-25.5 -12.5 -51 -19.5 q-25.5 -7 -43.5 -8 l-18 -1 l-14 89 q4 0 10 0.5 q6 0.5 22 3.5 q16 3 28.5 7 q12.5 4 22.5 12 q10 8 10 19 q0 32 -61 32 l-3 62 q-178 33 -178 240 q0 76 23 129 q23 53 63 79 q40 26 80.5 36.5 q40.5 10.5 88.5 10.5 q61 0 141 -20 l-58 -196 q-37 10 -78 10 q-12 0 -31 -5 q-19 -5 -40.5 -23 q-21.5 -18 -21.5 -45 q0 -83 106 -83 q21 0 45 4 q24 4 37 8 l13 3 Z" /><glyph glyph-name="egrave" unicode="è" d="M194 204 q20 -73 106 -73 q27 0 57 7 q30 7 47 14 l17 7 l43 -119 q-56 -40 -184 -40 q-255 0 -255 234 q0 72 20.5 125.5 q20.5 53.5 47.5 79.5 q27 26 62.5 41 q35.5 15 54.5 17.5 q19 2.5 36 2.5 q55 0 97 -15 q42 -15 65 -36.5 q23 -21.5 37.5 -52 q14.5 -30.5 19 -56.5 q4.5 -26 4.5 -55 q0 -17 -1.5 -33.5 q-1.5 -16.5 -3.5 -25.5 l-2 -8 q-8 0 -21 -0.5 q-13 -0.5 -48 -2 q-35 -1.5 -66 -3 q-31 -1.5 -63 -3.5 q-32 -2 -51 -3 q-19 -1 -19 -2 ZM259 396 q-70 -1 -70 -96 l137 10 q0 18 -3.5 34.5 q-3.5 16.5 -19.5 34 q-16 17.5 -44 17.5 ZM119 651 l131 12 l45 -125 l-103 -5 l-73 118 Z" /><glyph glyph-name="eacute" unicode="é" d="M194 204 q20 -73 106 -73 q27 0 57 7 q30 7 47 14 l17 7 l43 -119 q-56 -40 -184 -40 q-255 0 -255 234 q0 72 20.5 125.5 q20.5 53.5 47.5 79.5 q27 26 62.5 41 q35.5 15 54.5 17.5 q19 2.5 36 2.5 q55 0 97 -15 q42 -15 65 -36.5 q23 -21.5 37.5 -52 q14.5 -30.5 19 -56.5 q4.5 -26 4.5 -55 q0 -17 -1.5 -33.5 q-1.5 -16.5 -3.5 -25.5 l-2 -8 q-8 0 -21 -0.5 q-13 -0.5 -48 -2 q-35 -1.5 -66 -3 q-31 -1.5 -63 -3.5 q-32 -2 -51 -3 q-19 -1 -19 -2 ZM259 396 q-70 -1 -70 -96 l137 10 q0 18 -3.5 34.5 q-3.5 16.5 -19.5 34 q-16 17.5 -44 17.5 ZM203 657 l133 8 l-87 -126 l-92 -7 l46 125 Z" /><glyph glyph-name="ecircumflex" unicode="ê" d="M194 204 q20 -73 106 -73 q27 0 57 7 q30 7 47 14 l17 7 l43 -119 q-56 -40 -184 -40 q-255 0 -255 234 q0 72 20.5 125.5 q20.5 53.5 47.5 79.5 q27 26 62.5 41 q35.5 15 54.5 17.5 q19 2.5 36 2.5 q55 0 97 -15 q42 -15 65 -36.5 q23 -21.5 37.5 -52 q14.5 -30.5 19 -56.5 q4.5 -26 4.5 -55 q0 -17 -1.5 -33.5 q-1.5 -16.5 -3.5 -25.5 l-2 -8 q-8 0 -21 -0.5 q-13 -0.5 -48 -2 q-35 -1.5 -66 -3 q-31 -1.5 -63 -3.5 q-32 -2 -51 -3 q-19 -1 -19 -2 ZM259 396 q-70 -1 -70 -96 l137 10 q0 18 -3.5 34.5 q-3.5 16.5 -19.5 34 q-16 17.5 -44 17.5 ZM221 674 l68 9 l82 -119 l-92 -9 l-28 50 l-36 -50 l-82 -7 l88 126 Z" /><glyph glyph-name="edieresis" unicode="ë" d="M194 204 q20 -73 106 -73 q27 0 57 7 q30 7 47 14 l17 7 l43 -119 q-56 -40 -184 -40 q-255 0 -255 234 q0 72 20.5 125.5 q20.5 53.5 47.5 79.5 q27 26 62.5 41 q35.5 15 54.5 17.5 q19 2.5 36 2.5 q55 0 97 -15 q42 -15 65 -36.5 q23 -21.5 37.5 -52 q14.5 -30.5 19 -56.5 q4.5 -26 4.5 -55 q0 -17 -1.5 -33.5 q-1.5 -16.5 -3.5 -25.5 l-2 -8 q-8 0 -21 -0.5 q-13 -0.5 -48 -2 q-35 -1.5 -66 -3 q-31 -1.5 -63 -3.5 q-32 -2 -51 -3 q-19 -1 -19 -2 ZM259 396 q-70 -1 -70 -96 l137 10 q0 18 -3.5 34.5 q-3.5 16.5 -19.5 34 q-16 17.5 -44 17.5 ZM120 577 q-19 19 -19 45 q0 26 19 45 q19 19 45 19 q26 0 45 -19 q19 -19 19 -45 q0 -26 -19 -45 q-19 -19 -45 -19 q-26 0 -45 19 ZM314.5 574 q-15.5 16 -15.5 38 q0 22 15.5 38 q15.5 16 38.5 16 q23 0 38.5 -16 q15.5 -16 15.5 -38 q0 -22 -15.5 -38 q-15.5 -16 -38.5 -16 q-23 0 -38.5 16 Z" /><glyph glyph-name="igrave" unicode="ì" d="M25 444 l197 11 l0 -455 l-181 0 l-16 444 ZM-44 661 l190 -11 l57 -150 l-141 -11 l-106 172 Z" /><glyph glyph-name="iacute" unicode="í" d="M25 444 l197 11 l0 -455 l-181 0 l-16 444 ZM88 650 l190 11 l-106 -172 l-131 0 l47 161 Z" /><glyph glyph-name="icircumflex" unicode="î" d="M25 444 l197 11 l0 -455 l-181 0 l-16 444 ZM89 636 l86 11 l102 -149 l-115 -11 l-35 62 l-45 -62 l-103 -9 l110 158 Z" /><glyph glyph-name="idieresis" unicode="ï" d="M25 444 l197 11 l0 -455 l-181 0 l-16 444 ZM3.5 512 q-20.5 20 -20.5 49 q0 29 20 49.5 q20 20.5 49 20.5 q29 0 49.5 -20.5 q20.5 -20.5 20.5 -49.5 q0 -29 -20.5 -49 q-20.5 -20 -49.5 -20 q-28 0 -48.5 20 ZM155 551 q0 24 17 41 q17 17 41 17 q25 0 42 -17 q17 -17 17 -41 q0 -25 -17 -42 q-17 -17 -42 -17 q-24 0 -41 17 q-17 17 -17 42 Z" /><glyph glyph-name="eth" unicode="ð" d="M203 660 l83 0 l-11 -56 q102 -9 156.5 -94 q54.5 -85 54.5 -211 q0 -26 -2.5 -52 q-2.5 -26 -10 -62.5 q-7.5 -36.5 -23.5 -67 q-16 -30.5 -39 -58 q-23 -27.5 -61 -43.5 q-38 -16 -86 -16 q-118 0 -181 62 q-63 62 -63 148 q0 81 56 139.5 q56 58.5 158 58.5 q45 0 88 -19 q-2 5 -6 13.5 q-4 8.5 -23 27 q-19 18.5 -45 26.5 l-6 -35 l-91 0 l8 38 q-39 -6 -93 -29 l-37 139 q63 25 161 33 l13 58 ZM191 203 q1 -23 17 -35.5 q16 -12.5 39 -12.5 q63 0 63 85 l-2 22 q-27 7 -48 7 q-69 0 -69 -66 Z" /><glyph glyph-name="ntilde" unicode="ñ" d="M205 294 l16 -294 l-196 0 l0 471 q56 9 106.5 17.5 q50.5 8.5 72.5 11.5 q0 -46 -8 -94 q38 78 149 78 q37 0 64.5 -12 q27.5 -12 42.5 -28 q15 -16 25.5 -42.5 q10.5 -26.5 13.5 -46.5 q3 -20 6 -48 l0 -307 l-197 0 l0 295 q0 55 -42 55 q-31 0 -42 -14.5 q-11 -14.5 -11 -41.5 ZM47 593 q13 36 44 68.5 q31 32.5 68 32.5 q22 0 64.5 -21.5 q42.5 -21.5 57.5 -21.5 q14 0 28.5 14.5 q14.5 14.5 21 26 q6.5 11.5 9.5 19.5 l82 -50 q-18 -123 -114 -123 q-33 0 -66.5 17.5 q-33.5 17.5 -49.5 17.5 q-33 0 -44 -40 l-101 60 Z" /><glyph glyph-name="ograve" unicode="ò" d="M484 251 q0 -55 -13.5 -98.5 q-13.5 -43.5 -36.5 -69.5 q-23 -26 -48 -44 q-25 -18 -53.5 -25.5 q-28.5 -7.5 -47 -10.5 q-18.5 -3 -34.5 -3 q-99 0 -162.5 70.5 q-63.5 70.5 -63.5 180.5 q0 65 20 113.5 q20 48.5 47.5 73.5 q27.5 25 63.5 40 q36 15 59 18.5 q23 3.5 43 3.5 q18 0 40 -3.5 q22 -3.5 57 -18.5 q35 -15 62 -40 q27 -25 47 -73.5 q20 -48.5 20 -113.5 ZM187 259 q0 -26 2.5 -45 q2.5 -19 8.5 -42.5 q6 -23.5 20 -36 q14 -12.5 36 -12.5 q71 0 71 132 q0 16 -2.5 32 q-2.5 16 -8.5 36 q-6 20 -21 32 q-15 12 -37 12 q-28 0 -45 -21.5 q-17 -21.5 -20.5 -42.5 q-3.5 -21 -3.5 -44 ZM128 651 l131 12 l45 -125 l-103 -5 l-73 118 Z" /><glyph glyph-name="oacute" unicode="ó" d="M484 251 q0 -55 -13.5 -98.5 q-13.5 -43.5 -36.5 -69.5 q-23 -26 -48 -44 q-25 -18 -53.5 -25.5 q-28.5 -7.5 -47 -10.5 q-18.5 -3 -34.5 -3 q-99 0 -162.5 70.5 q-63.5 70.5 -63.5 180.5 q0 65 20 113.5 q20 48.5 47.5 73.5 q27.5 25 63.5 40 q36 15 59 18.5 q23 3.5 43 3.5 q18 0 40 -3.5 q22 -3.5 57 -18.5 q35 -15 62 -40 q27 -25 47 -73.5 q20 -48.5 20 -113.5 ZM187 259 q0 -26 2.5 -45 q2.5 -19 8.5 -42.5 q6 -23.5 20 -36 q14 -12.5 36 -12.5 q71 0 71 132 q0 16 -2.5 32 q-2.5 16 -8.5 36 q-6 20 -21 32 q-15 12 -37 12 q-28 0 -45 -21.5 q-17 -21.5 -20.5 -42.5 q-3.5 -21 -3.5 -44 ZM211 657 l133 8 l-87 -126 l-92 -7 l46 125 Z" /><glyph glyph-name="ocircumflex" unicode="ô" d="M484 251 q0 -55 -13.5 -98.5 q-13.5 -43.5 -36.5 -69.5 q-23 -26 -48 -44 q-25 -18 -53.5 -25.5 q-28.5 -7.5 -47 -10.5 q-18.5 -3 -34.5 -3 q-99 0 -162.5 70.5 q-63.5 70.5 -63.5 180.5 q0 65 20 113.5 q20 48.5 47.5 73.5 q27.5 25 63.5 40 q36 15 59 18.5 q23 3.5 43 3.5 q18 0 40 -3.5 q22 -3.5 57 -18.5 q35 -15 62 -40 q27 -25 47 -73.5 q20 -48.5 20 -113.5 ZM187 259 q0 -26 2.5 -45 q2.5 -19 8.5 -42.5 q6 -23.5 20 -36 q14 -12.5 36 -12.5 q71 0 71 132 q0 16 -2.5 32 q-2.5 16 -8.5 36 q-6 20 -21 32 q-15 12 -37 12 q-28 0 -45 -21.5 q-17 -21.5 -20.5 -42.5 q-3.5 -21 -3.5 -44 ZM229 674 l68 9 l82 -119 l-92 -9 l-28 50 l-36 -50 l-82 -7 l88 126 Z" /><glyph glyph-name="otilde" unicode="õ" d="M484 251 q0 -55 -13.5 -98.5 q-13.5 -43.5 -36.5 -69.5 q-23 -26 -48 -44 q-25 -18 -53.5 -25.5 q-28.5 -7.5 -47 -10.5 q-18.5 -3 -34.5 -3 q-99 0 -162.5 70.5 q-63.5 70.5 -63.5 180.5 q0 65 20 113.5 q20 48.5 47.5 73.5 q27.5 25 63.5 40 q36 15 59 18.5 q23 3.5 43 3.5 q18 0 40 -3.5 q22 -3.5 57 -18.5 q35 -15 62 -40 q27 -25 47 -73.5 q20 -48.5 20 -113.5 ZM187 259 q0 -26 2.5 -45 q2.5 -19 8.5 -42.5 q6 -23.5 20 -36 q14 -12.5 36 -12.5 q71 0 71 132 q0 16 -2.5 32 q-2.5 16 -8.5 36 q-6 20 -21 32 q-15 12 -37 12 q-28 0 -45 -21.5 q-17 -21.5 -20.5 -42.5 q-3.5 -21 -3.5 -44 ZM67 593 q13 36 44 68.5 q31 32.5 68 32.5 q22 0 64.5 -21.5 q42.5 -21.5 57.5 -21.5 q14 0 28.5 14.5 q14.5 14.5 21 26 q6.5 11.5 9.5 19.5 l82 -50 q-18 -123 -114 -123 q-33 0 -66.5 17.5 q-33.5 17.5 -49.5 17.5 q-33 0 -44 -40 l-101 60 Z" /><glyph glyph-name="odieresis" unicode="ö" d="M484 251 q0 -55 -13.5 -98.5 q-13.5 -43.5 -36.5 -69.5 q-23 -26 -48 -44 q-25 -18 -53.5 -25.5 q-28.5 -7.5 -47 -10.5 q-18.5 -3 -34.5 -3 q-99 0 -162.5 70.5 q-63.5 70.5 -63.5 180.5 q0 65 20 113.5 q20 48.5 47.5 73.5 q27.5 25 63.5 40 q36 15 59 18.5 q23 3.5 43 3.5 q18 0 40 -3.5 q22 -3.5 57 -18.5 q35 -15 62 -40 q27 -25 47 -73.5 q20 -48.5 20 -113.5 ZM187 259 q0 -26 2.5 -45 q2.5 -19 8.5 -42.5 q6 -23.5 20 -36 q14 -12.5 36 -12.5 q71 0 71 132 q0 16 -2.5 32 q-2.5 16 -8.5 36 q-6 20 -21 32 q-15 12 -37 12 q-28 0 -45 -21.5 q-17 -21.5 -20.5 -42.5 q-3.5 -21 -3.5 -44 ZM127 577 q-19 19 -19 45 q0 26 19 45 q19 19 45 19 q26 0 45 -19 q19 -19 19 -45 q0 -26 -19 -45 q-19 -19 -45 -19 q-26 0 -45 19 ZM322 574 q-16 16 -16 38 q0 22 16 38 q16 16 38 16 q22 0 38 -16 q16 -16 16 -38 q0 -22 -16 -38 q-16 -16 -38 -16 q-22 0 -38 16 Z" /><glyph glyph-name="divide" unicode="÷" d="M25 207 l0 150 l336 14 l0 -164 l-336 0 ZM141 426 q-23 23 -23 56 q0 33 23 56.5 q23 23.5 56 23.5 q33 0 56.5 -23.5 q23.5 -23.5 23.5 -56.5 q0 -33 -23.5 -56 q-23.5 -23 -56.5 -23 q-33 0 -56 23 ZM138 47 q-23 23 -23 56 q0 33 23 56.5 q23 23.5 56 23.5 q33 0 56.5 -23.5 q23.5 -23.5 23.5 -56.5 q0 -33 -23.5 -56 q-23.5 -23 -56.5 -23 q-33 0 -56 23 Z" /><glyph glyph-name="oslash" unicode="ø" d="M367 524 l61 0 l-37 -67 q93 -65 93 -206 q0 -55 -13.5 -98.5 q-13.5 -43.5 -36.5 -69.5 q-23 -26 -48 -44 q-25 -18 -53.5 -25.5 q-28.5 -7.5 -47 -10.5 q-18.5 -3 -34.5 -3 q-44 0 -80 13 l-39 -52 l-66 0 l54 80 q-95 71 -95 210 q0 65 20 113.5 q20 48.5 47.5 73.5 q27.5 25 63.5 40 q36 15 59 18.5 q23 3.5 43 3.5 q40 0 85 -17 l24 41 ZM325 255 q0 32 -7 55 l-90 -181 q10 -6 26 -6 q71 0 71 132 ZM187 259 q0 -43 6 -72 l88 174 q-11 6 -25 6 q-28 0 -45 -21.5 q-17 -21.5 -20.5 -42.5 q-3.5 -21 -3.5 -44 Z" /><glyph glyph-name="ugrave" unicode="ù" d="M309 208 l1 280 l180 12 l0 -377 l-4 -123 l-157 0 l-10 86 q-13 -28 -34 -47 q-21 -19 -44.5 -26.5 q-23.5 -7.5 -39 -10 q-15.5 -2.5 -30.5 -2.5 q-44 0 -74.5 16 q-30.5 16 -45 45 q-14.5 29 -20.5 60.5 q-6 31.5 -6 71.5 l0 293 l191 14 l0 -289 q0 -63 42 -63 q30 0 40.5 15.5 q10.5 15.5 10.5 44.5 ZM136 651 l131 12 l45 -125 l-103 -5 l-73 118 Z" /><glyph glyph-name="uacute" unicode="ú" d="M309 208 l1 280 l180 12 l0 -377 l-4 -123 l-157 0 l-10 86 q-13 -28 -34 -47 q-21 -19 -44.5 -26.5 q-23.5 -7.5 -39 -10 q-15.5 -2.5 -30.5 -2.5 q-44 0 -74.5 16 q-30.5 16 -45 45 q-14.5 29 -20.5 60.5 q-6 31.5 -6 71.5 l0 293 l191 14 l0 -289 q0 -63 42 -63 q30 0 40.5 15.5 q10.5 15.5 10.5 44.5 ZM268 657 l133 8 l-87 -126 l-92 -7 l46 125 Z" /><glyph glyph-name="ucircumflex" unicode="û" d="M309 208 l1 280 l180 12 l0 -377 l-4 -123 l-157 0 l-10 86 q-13 -28 -34 -47 q-21 -19 -44.5 -26.5 q-23.5 -7.5 -39 -10 q-15.5 -2.5 -30.5 -2.5 q-44 0 -74.5 16 q-30.5 16 -45 45 q-14.5 29 -20.5 60.5 q-6 31.5 -6 71.5 l0 293 l191 14 l0 -289 q0 -63 42 -63 q30 0 40.5 15.5 q10.5 15.5 10.5 44.5 ZM231 674 l68 9 l82 -119 l-92 -9 l-28 50 l-36 -50 l-82 -7 l88 126 Z" /><glyph glyph-name="udieresis" unicode="ü" d="M309 208 l1 280 l180 12 l0 -377 l-4 -123 l-157 0 l-10 86 q-13 -28 -34 -47 q-21 -19 -44.5 -26.5 q-23.5 -7.5 -39 -10 q-15.5 -2.5 -30.5 -2.5 q-44 0 -74.5 16 q-30.5 16 -45 45 q-14.5 29 -20.5 60.5 q-6 31.5 -6 71.5 l0 293 l191 14 l0 -289 q0 -63 42 -63 q30 0 40.5 15.5 q10.5 15.5 10.5 44.5 ZM130 577 q-19 19 -19 45 q0 26 19 45 q19 19 45 19 q26 0 45 -19 q19 -19 19 -45 q0 -26 -19 -45 q-19 -19 -45 -19 q-26 0 -45 19 ZM324.5 574 q-15.5 16 -15.5 38 q0 22 15.5 38 q15.5 16 38.5 16 q23 0 38.5 -16 q15.5 -16 15.5 -38 q0 -22 -15.5 -38 q-15.5 -16 -38.5 -16 q-23 0 -38.5 16 Z" /><glyph glyph-name="yacute" unicode="ý" d="M468 498 l1 -391 q0 -35 -4 -68.5 q-4 -33.5 -19.5 -80 q-15.5 -46.5 -41.5 -80.5 q-26 -34 -75.5 -59 q-49.5 -25 -116.5 -26 l-4 0 q-122 0 -201 39 l0 185 q86 -49 191 -49 q34 0 59 11 q25 11 37.5 25.5 q12.5 14.5 20.5 34 q8 19.5 9.5 31.5 q1.5 12 1.5 23 q-1 1 -3.5 1.5 q-2.5 0.5 -4.5 2.5 q-4 -9 -10.5 -18.5 q-6.5 -9.5 -20 -22.5 q-13.5 -13 -36.5 -21 q-23 -8 -52 -8 q-76 0 -124.5 59 q-48.5 59 -48.5 171 l0 226 l178 15 q0 -188 -2 -214 l0 -7 q0 -39 10.5 -74 q10.5 -35 37.5 -35 q29 0 40 42.5 q11 42.5 11 84.5 l0 188 l167 15 ZM256 657 l133 8 l-87 -126 l-92 -7 l46 125 Z" /><glyph glyph-name="thorn" unicode="þ" d="M296 502 q81 0 131.5 -62 q50.5 -62 50.5 -177 q0 -125 -65 -192.5 q-65 -67.5 -214 -69.5 l0 -175 l-179 0 l0 764 l188 15 l0 -118 q38 15 88 15 ZM200 151 q7 -1 16 -1 q14 0 27.5 3.5 q13.5 3.5 29.5 13.5 q16 10 26 33 q10 23 10 56 q0 114 -63 114 q-23 0 -46 -18 l0 -201 Z" /><glyph glyph-name="ydieresis" unicode="ÿ" d="M468 498 l1 -391 q0 -35 -4 -68.5 q-4 -33.5 -19.5 -80 q-15.5 -46.5 -41.5 -80.5 q-26 -34 -75.5 -59 q-49.5 -25 -116.5 -26 l-4 0 q-122 0 -201 39 l0 185 q86 -49 191 -49 q34 0 59 11 q25 11 37.5 25.5 q12.5 14.5 20.5 34 q8 19.5 9.5 31.5 q1.5 12 1.5 23 q-1 1 -3.5 1.5 q-2.5 0.5 -4.5 2.5 q-4 -9 -10.5 -18.5 q-6.5 -9.5 -20 -22.5 q-13.5 -13 -36.5 -21 q-23 -8 -52 -8 q-76 0 -124.5 59 q-48.5 59 -48.5 171 l0 226 l178 15 q0 -188 -2 -214 l0 -7 q0 -39 10.5 -74 q10.5 -35 37.5 -35 q29 0 40 42.5 q11 42.5 11 84.5 l0 188 l167 15 ZM121 577 q-19 19 -19 45 q0 26 19 45 q19 19 45 19 q26 0 45 -19 q19 -19 19 -45 q0 -26 -19 -45 q-19 -19 -45 -19 q-26 0 -45 19 ZM316 574 q-16 16 -16 38 q0 22 16 38 q16 16 38 16 q22 0 38 -16 q16 -16 16 -38 q0 -22 -16 -38 q-16 -16 -38 -16 q-22 0 -38 16 Z" /><glyph glyph-name="Amacron" unicode="&#x100;" d="M99 640 l1 98 l348 24 l0 -110 l-349 -12 ZM373 605 l208 -605 l-170 0 l-44 129 l-162 0 l-39 -129 l-174 0 q4 11 51.5 158.5 q47.5 147.5 92 273 q44.5 125.5 61.5 148.5 l176 25 ZM227 230 l112 0 l-53 170 l-59 -170 Z" /><glyph glyph-name="amacron" unicode="&#x101;" d="M52 533 l1 98 l348 24 l0 -110 l-349 -12 ZM435 276 l-13 -276 l-148 0 l-8 50 q-15 -25 -47 -37.5 q-32 -12.5 -61 -12.5 q-12 0 -26 2 q-14 2 -34 11 q-20 9 -35.5 22.5 q-15.5 13.5 -26.5 40 q-11 26.5 -11 61.5 q0 77 39.5 108 q39.5 31 99.5 31 q30 0 102 -13 q0 1 0 5.5 q0 4.5 -0.5 14.5 q-0.5 10 -0.5 24 q0 44 -44 44 q-25 0 -58.5 -9 q-33.5 -9 -54.5 -18 l-21 -9 l-58 122 q32 24 91.5 43.5 q59.5 19.5 124.5 19.5 q49 0 85.5 -14.5 q36.5 -14.5 56 -35 q19.5 -20.5 31 -53 q11.5 -32.5 14.5 -59.5 q3 -27 3 -62 ZM266 125 l0 51 q-21 19 -60 19 q-27 0 -40.5 -14 q-13.5 -14 -13.5 -35 q0 -20 12.5 -35 q12.5 -15 34.5 -15 q16 0 32.5 7 q16.5 7 25.5 15 l9 7 Z" /><glyph glyph-name="Abreve" unicode="&#x102;" d="M311 711 l0 21 l69 7 l0 -22 q0 -34 -27.5 -56 q-27.5 -22 -65.5 -22 q-39 0 -66 22 q-27 22 -29 56 l0 15 l71 7 l0 -22 q0 -10 7 -16.5 q7 -6.5 18 -6.5 q20 0 23 17 ZM373 605 l208 -605 l-170 0 l-44 129 l-162 0 l-39 -129 l-174 0 q4 11 51.5 158.5 q47.5 147.5 92 273 q44.5 125.5 61.5 148.5 l176 25 ZM227 230 l112 0 l-53 170 l-59 -170 Z" /><glyph glyph-name="abreve" unicode="&#x103;" d="M268 619 l0 26 l85 9 l0 -27 q0 -41 -33.5 -68 q-33.5 -27 -80.5 -27 q-48 0 -81 26.5 q-33 26.5 -35 68.5 l0 18 l86 9 l0 -27 q0 -12 9 -20 q9 -8 22 -8 q10 0 18.5 5.5 q8.5 5.5 9.5 14.5 ZM435 276 l-13 -276 l-148 0 l-8 50 q-15 -25 -47 -37.5 q-32 -12.5 -61 -12.5 q-12 0 -26 2 q-14 2 -34 11 q-20 9 -35.5 22.5 q-15.5 13.5 -26.5 40 q-11 26.5 -11 61.5 q0 77 39.5 108 q39.5 31 99.5 31 q30 0 102 -13 q0 1 0 5.5 q0 4.5 -0.5 14.5 q-0.5 10 -0.5 24 q0 44 -44 44 q-25 0 -58.5 -9 q-33.5 -9 -54.5 -18 l-21 -9 l-58 122 q32 24 91.5 43.5 q59.5 19.5 124.5 19.5 q49 0 85.5 -14.5 q36.5 -14.5 56 -35 q19.5 -20.5 31 -53 q11.5 -32.5 14.5 -59.5 q3 -27 3 -62 ZM266 125 l0 51 q-21 19 -60 19 q-27 0 -40.5 -14 q-13.5 -14 -13.5 -35 q0 -20 12.5 -35 q12.5 -15 34.5 -15 q16 0 32.5 7 q16.5 7 25.5 15 l9 7 Z" /><glyph glyph-name="Aogonek" unicode="&#x104;" d="M373 605 l208 -605 q-6 -7 -25 -25.5 q-19 -18.5 -26.5 -30.5 q-7.5 -12 -7.5 -27 q0 -15 14 -15 q10 0 25.5 8 q15.5 8 26.5 17 q11 9 10 11 l13 -60 q-10 -23 -42.5 -39 q-32.5 -16 -67.5 -16 q-32 0 -52.5 15.5 q-20.5 15.5 -20.5 46.5 q0 33 21 66 q21 33 58 49 l-96 0 l-44 129 l-162 0 l-39 -129 l-174 0 q4 11 51.5 158.5 q47.5 147.5 92 273 q44.5 125.5 61.5 148.5 l176 25 ZM227 230 l112 0 l-53 170 l-59 -170 Z" /><glyph glyph-name="aogonek" unicode="&#x105;" d="M252 -115 q0 33 21 66 q21 33 58 49 l-57 0 l-8 50 q-15 -25 -47 -37.5 q-32 -12.5 -61 -12.5 q-12 0 -26 2 q-14 2 -34 11 q-20 9 -35.5 22.5 q-15.5 13.5 -26.5 40 q-11 26.5 -11 61.5 q0 77 39.5 108 q39.5 31 99.5 31 q30 0 102 -13 q0 1 0 5.5 q0 4.5 -0.5 14.5 q-0.5 10 -0.5 24 q0 44 -44 44 q-25 0 -58.5 -9 q-33.5 -9 -54.5 -18 l-21 -9 l-58 122 q32 24 91.5 43.5 q59.5 19.5 124.5 19.5 q49 0 85.5 -14.5 q36.5 -14.5 56 -35 q19.5 -20.5 31 -53 q11.5 -32.5 14.5 -59.5 q3 -27 3 -62 l-13 -276 l-17 0 q-6 -7 -25 -25.5 q-19 -18.5 -26.5 -30.5 q-7.5 -12 -7.5 -27 q0 -15 14 -15 q10 0 25.5 8 q15.5 8 26.5 17 q11 9 10 11 l13 -60 q-10 -23 -42.5 -39 q-32.5 -16 -67.5 -16 q-32 0 -52.5 15.5 q-20.5 15.5 -20.5 46.5 ZM266 125 l0 51 q-21 19 -60 19 q-27 0 -40.5 -14 q-13.5 -14 -13.5 -35 q0 -20 12.5 -35 q12.5 -15 34.5 -15 q16 0 32.5 7 q16.5 7 25.5 15 l9 7 Z" /><glyph glyph-name="Cacute" unicode="&#x106;" d="M193 266 q3 67 46.5 94.5 q43.5 27.5 103.5 27.5 q23 0 46.5 -3.5 q23.5 -3.5 36.5 -6.5 l12 -4 l51 208 q-77 23 -169 23 q-45 0 -84.5 -7 q-39.5 -7 -81.5 -27.5 q-42 -20.5 -72 -53.5 q-30 -33 -49 -89 q-19 -56 -19 -129 q0 -70 18 -123.5 q18 -53.5 46 -85 q28 -31.5 68 -51.5 q40 -20 78.5 -27 q38.5 -7 83.5 -7 q48 0 98.5 8 q50.5 8 77.5 16 l26 8 l-55 142 q-70 -22 -126 -22 q-131 0 -136 109 ZM261 769 l133 8 l-87 -126 l-92 -7 l46 125 Z" /><glyph glyph-name="cacute" unicode="&#x107;" d="M388 153 l48 -126 q-83 -27 -171 -27 q-47 0 -87 10.5 q-40 10.5 -77.5 36 q-37.5 25.5 -59 76 q-21.5 50.5 -21.5 122.5 q0 76 23 129 q23 53 63 79 q40 26 80.5 36.5 q40.5 10.5 88.5 10.5 q61 0 141 -20 l-58 -196 q-14 5 -39 7.5 q-25 2.5 -56 0.5 q-31 -2 -53.5 -20 q-22.5 -18 -22.5 -51 q0 -83 106 -83 q21 0 45 4 q24 4 37 8 l13 3 ZM243 657 l133 8 l-87 -126 l-92 -7 l46 125 Z" /><glyph glyph-name="Ccircumflex" unicode="&#x108;" d="M193 266 q3 67 46.5 94.5 q43.5 27.5 103.5 27.5 q23 0 46.5 -3.5 q23.5 -3.5 36.5 -6.5 l12 -4 l51 208 q-77 23 -169 23 q-45 0 -84.5 -7 q-39.5 -7 -81.5 -27.5 q-42 -20.5 -72 -53.5 q-30 -33 -49 -89 q-19 -56 -19 -129 q0 -70 18 -123.5 q18 -53.5 46 -85 q28 -31.5 68 -51.5 q40 -20 78.5 -27 q38.5 -7 83.5 -7 q48 0 98.5 8 q50.5 8 77.5 16 l26 8 l-55 142 q-70 -22 -126 -22 q-131 0 -136 109 ZM248 761 l68 9 l82 -119 l-92 -9 l-28 50 l-36 -50 l-82 -7 l88 126 Z" /><glyph glyph-name="ccircumflex" unicode="&#x109;" d="M388 153 l48 -126 q-83 -27 -171 -27 q-47 0 -87 10.5 q-40 10.5 -77.5 36 q-37.5 25.5 -59 76 q-21.5 50.5 -21.5 122.5 q0 76 23 129 q23 53 63 79 q40 26 80.5 36.5 q40.5 10.5 88.5 10.5 q61 0 141 -20 l-58 -196 q-14 5 -39 7.5 q-25 2.5 -56 0.5 q-31 -2 -53.5 -20 q-22.5 -18 -22.5 -51 q0 -83 106 -83 q21 0 45 4 q24 4 37 8 l13 3 ZM208 652 l68 9 l82 -119 l-92 -9 l-28 50 l-36 -50 l-82 -7 l88 126 Z" /><glyph glyph-name="Cdotaccent" unicode="&#x10a;" d="M193 266 q3 67 46.5 94.5 q43.5 27.5 103.5 27.5 q23 0 46.5 -3.5 q23.5 -3.5 36.5 -6.5 l12 -4 l51 208 q-77 23 -169 23 q-45 0 -84.5 -7 q-39.5 -7 -81.5 -27.5 q-42 -20.5 -72 -53.5 q-30 -33 -49 -89 q-19 -56 -19 -129 q0 -70 18 -123.5 q18 -53.5 46 -85 q28 -31.5 68 -51.5 q40 -20 78.5 -27 q38.5 -7 83.5 -7 q48 0 98.5 8 q50.5 8 77.5 16 l26 8 l-55 142 q-70 -22 -126 -22 q-131 0 -136 109 ZM237.5 657.5 q-16.5 16.5 -16.5 39.5 q0 23 16.5 39.5 q16.5 16.5 39.5 16.5 q23 0 39.5 -16.5 q16.5 -16.5 16.5 -39.5 q0 -23 -16.5 -39.5 q-16.5 -16.5 -39.5 -16.5 q-23 0 -39.5 16.5 Z" /><glyph glyph-name="cdotaccent" unicode="&#x10b;" d="M388 153 l48 -126 q-83 -27 -171 -27 q-47 0 -87 10.5 q-40 10.5 -77.5 36 q-37.5 25.5 -59 76 q-21.5 50.5 -21.5 122.5 q0 76 23 129 q23 53 63 79 q40 26 80.5 36.5 q40.5 10.5 88.5 10.5 q61 0 141 -20 l-58 -196 q-14 5 -39 7.5 q-25 2.5 -56 0.5 q-31 -2 -53.5 -20 q-22.5 -18 -22.5 -51 q0 -83 106 -83 q21 0 45 4 q24 4 37 8 l13 3 ZM204.5 549.5 q-16.5 16.5 -16.5 39.5 q0 23 16.5 39.5 q16.5 16.5 39.5 16.5 q23 0 39.5 -16.5 q16.5 -16.5 16.5 -39.5 q0 -23 -16.5 -39.5 q-16.5 -16.5 -39.5 -16.5 q-23 0 -39.5 16.5 Z" /><glyph glyph-name="Ccaron" unicode="&#x10c;" d="M187 266 q3 67 46.5 94.5 q43.5 27.5 103.5 27.5 q23 0 46.5 -3.5 q23.5 -3.5 36.5 -6.5 l12 -4 l51 208 q-77 23 -169 23 q-45 0 -84.5 -7 q-39.5 -7 -81.5 -27.5 q-42 -20.5 -72 -53.5 q-30 -33 -49 -89 q-19 -56 -19 -129 q0 -70 18 -123.5 q18 -53.5 46 -85 q28 -31.5 68 -51.5 q40 -20 78.5 -27 q38.5 -7 83.5 -7 q48 0 98.5 8 q50.5 8 77.5 16 l26 8 l-55 142 q-70 -22 -126 -22 q-131 0 -136 109 ZM297 644 l-68 -9 l-82 119 l92 9 l28 -50 l36 50 l82 7 l-88 -126 Z" /><glyph glyph-name="ccaron" unicode="&#x10d;" d="M388 153 l48 -126 q-83 -27 -171 -27 q-47 0 -87 10.5 q-40 10.5 -77.5 36 q-37.5 25.5 -59 76 q-21.5 50.5 -21.5 122.5 q0 76 23 129 q23 53 63 79 q40 26 80.5 36.5 q40.5 10.5 88.5 10.5 q61 0 141 -20 l-58 -196 q-14 5 -39 7.5 q-25 2.5 -56 0.5 q-31 -2 -53.5 -20 q-22.5 -18 -22.5 -51 q0 -83 106 -83 q21 0 45 4 q24 4 37 8 l13 3 ZM267 532 l-65 -8 l-79 114 l88 9 l27 -48 l35 48 l79 7 l-85 -122 Z" /><glyph glyph-name="Dcaron" unicode="&#x10e;" d="M219 606 q22 0 43.5 -1.5 q21.5 -1.5 56.5 -8.5 q35 -7 64.5 -19 q29.5 -12 62 -35 q32.5 -23 55 -53.5 q22.5 -30.5 37.5 -78.5 q15 -48 15 -107 q0 -85 -32 -146 q-32 -61 -89 -94 q-57 -33 -123.5 -48 q-66.5 -15 -146.5 -15 q-60 0 -127 8 q-10 68 -10 325 q0 180 10 259 q106 14 184 14 ZM196 123 q86 0 133 56.5 q47 56.5 47 146.5 q0 23 -5 44.5 q-5 21.5 -18 46.5 q-13 25 -43 40 q-30 15 -73 15 q-3 0 -8 -0.5 q-5 -0.5 -14 -1 q-9 -0.5 -19 -0.5 l0 -347 ZM246 644 l-68 -9 l-82 119 l92 9 l28 -50 l36 50 l82 7 l-88 -126 Z" /><glyph glyph-name="dcaron" unicode="&#x10f;" d="M323 627 l186 16 l0 -643 l-152 0 l0 68 q-1 -3 -3.5 -7.5 q-2.5 -4.5 -12.5 -16 q-10 -11.5 -24 -20.5 q-14 -9 -40.5 -16.5 q-26.5 -7.5 -58.5 -7.5 q-88 0 -143 71 q-55 71 -55 193 q0 59 19.5 104.5 q19.5 45.5 51 70.5 q31.5 25 67.5 37 q36 12 75 12 q27 0 47.5 -3.5 q20.5 -3.5 30.5 -8.5 q10 -5 16.5 -10 q6.5 -5 8.5 -8 l1 -4 l-14 173 ZM341 135 l0 220 q-17 23 -57 23 l-5 0 q-27 0 -45 -14 q-18 -14 -25.5 -36 q-7.5 -22 -10 -39 q-2.5 -17 -2.5 -33 l0 -10 q11 -117 105 -117 q10 0 20 1.5 q10 1.5 15 3.5 l5 1 ZM651 544 l-32 -58 l-84 -7 l36 72 q-25 14 -25 43 q0 22 17 36.5 q17 14.5 42 14.5 q26 0 43 -15 q17 -15 17 -39 q0 -23 -14 -47 Z" /><glyph glyph-name="Dcroat" unicode="&#x110;" d="M25 207 l0 150 l69 3 q0 161 10 232 q106 14 184 14 q22 0 43.5 -1.5 q21.5 -1.5 56.5 -8.5 q35 -7 64.5 -19 q29.5 -12 62 -35 q32.5 -23 55 -53.5 q22.5 -30.5 37.5 -78.5 q15 -48 15 -107 q0 -85 -32 -146 q-32 -61 -89 -94 q-57 -33 -123.5 -48 q-66.5 -15 -146.5 -15 q-60 0 -127 8 q-6 33 -9 199 l-70 0 ZM265 123 q86 0 133 56.5 q47 56.5 47 146.5 q0 23 -5 44.5 q-5 21.5 -18 46.5 q-13 25 -43 40 q-30 15 -73 15 q-3 0 -8 -0.5 q-5 -0.5 -14 -1 q-9 -0.5 -19 -0.5 l0 -103 l96 4 l0 -164 l-96 0 l0 -84 Z" /><glyph glyph-name="dcroat" unicode="&#x111;" d="M328 627 l186 16 l0 -46 l67 0 l0 -99 l-67 0 l0 -498 l-152 0 l0 67 q-1 -3 -4 -8.5 q-3 -5.5 -13.5 -16.5 q-10.5 -11 -24.5 -19.5 q-14 -8.5 -40 -15.5 q-26 -7 -57 -7 q-88 0 -143 71 q-55 71 -55 193 q0 59 19.5 104.5 q19.5 45.5 51 70.5 q31.5 25 67.5 37 q36 12 75 12 q90 0 104 -34 l-4 44 l-78 0 l0 93 l71 0 l-3 36 ZM346 135 l0 220 q-17 23 -57 23 l-5 0 q-27 0 -45 -14 q-18 -14 -25.5 -36 q-7.5 -22 -10 -39 q-2.5 -17 -2.5 -33 l0 -10 q11 -117 105 -117 q10 0 20 1.5 q10 1.5 15 3.5 l5 1 Z" /><glyph glyph-name="Emacron" unicode="&#x112;" d="M25 580 l9 -580 l384 0 l0 150 l-210 -17 l0 95 l186 0 l-6 143 l-189 -7 l0 88 l201 4 l0 149 l-375 -25 ZM25 640 l1 98 l348 24 l0 -110 l-349 -12 Z" /><glyph glyph-name="emacron" unicode="&#x113;" d="M194 204 q20 -73 106 -73 q27 0 57 7 q30 7 47 14 l17 7 l43 -119 q-56 -40 -184 -40 q-255 0 -255 234 q0 72 20.5 125.5 q20.5 53.5 47.5 79.5 q27 26 62.5 41 q35.5 15 54.5 17.5 q19 2.5 36 2.5 q55 0 97 -15 q42 -15 65 -36.5 q23 -21.5 37.5 -52 q14.5 -30.5 19 -56.5 q4.5 -26 4.5 -55 q0 -17 -1.5 -33.5 q-1.5 -16.5 -3.5 -25.5 l-2 -8 q-8 0 -21 -0.5 q-13 -0.5 -48 -2 q-35 -1.5 -66 -3 q-31 -1.5 -63 -3.5 q-32 -2 -51 -3 q-19 -1 -19 -2 ZM259 396 q-70 -1 -70 -96 l137 10 q0 18 -3.5 34.5 q-3.5 16.5 -19.5 34 q-16 17.5 -44 17.5 ZM73 529 l1 98 l348 24 l0 -110 l-349 -12 Z" /><glyph glyph-name="Ebreve" unicode="&#x114;" d="M25 580 l9 -580 l384 0 l0 150 l-210 -17 l0 95 l186 0 l-6 143 l-189 -7 l0 88 l201 4 l0 149 l-375 -25 ZM226 711 l0 21 l69 7 l0 -22 q0 -34 -27.5 -56 q-27.5 -22 -65.5 -22 q-39 0 -66 22 q-27 22 -29 56 l0 15 l71 7 l0 -22 q0 -10 7 -16.5 q7 -6.5 18 -6.5 q20 0 23 17 Z" /><glyph glyph-name="ebreve" unicode="&#x115;" d="M268 619 l0 26 l85 9 l0 -27 q0 -41 -33.5 -68 q-33.5 -27 -80.5 -27 q-48 0 -81 26.5 q-33 26.5 -35 68.5 l0 18 l86 9 l0 -27 q0 -12 9 -20 q9 -8 22 -8 q10 0 18.5 5.5 q8.5 5.5 9.5 14.5 ZM194 204 q20 -73 106 -73 q27 0 57 7 q30 7 47 14 l17 7 l43 -119 q-56 -40 -184 -40 q-255 0 -255 234 q0 72 20.5 125.5 q20.5 53.5 47.5 79.5 q27 26 62.5 41 q35.5 15 54.5 17.5 q19 2.5 36 2.5 q55 0 97 -15 q42 -15 65 -36.5 q23 -21.5 37.5 -52 q14.5 -30.5 19 -56.5 q4.5 -26 4.5 -55 q0 -17 -1.5 -33.5 q-1.5 -16.5 -3.5 -25.5 l-2 -8 q-8 0 -21 -0.5 q-13 -0.5 -48 -2 q-35 -1.5 -66 -3 q-31 -1.5 -63 -3.5 q-32 -2 -51 -3 q-19 -1 -19 -2 ZM259 396 q-70 -1 -70 -96 l137 10 q0 18 -3.5 34.5 q-3.5 16.5 -19.5 34 q-16 17.5 -44 17.5 Z" /><glyph glyph-name="Edotaccent" unicode="&#x116;" d="M25 580 l9 -580 l384 0 l0 150 l-210 -17 l0 95 l186 0 l-6 143 l-189 -7 l0 88 l201 4 l0 149 l-375 -25 ZM157.5 650.5 q-16.5 16.5 -16.5 39.5 q0 23 16.5 39.5 q16.5 16.5 39.5 16.5 q23 0 39.5 -16.5 q16.5 -16.5 16.5 -39.5 q0 -23 -16.5 -39.5 q-16.5 -16.5 -39.5 -16.5 q-23 0 -39.5 16.5 Z" /><glyph glyph-name="edotaccent" unicode="&#x117;" d="M194 204 q20 -73 106 -73 q27 0 57 7 q30 7 47 14 l17 7 l43 -119 q-56 -40 -184 -40 q-255 0 -255 234 q0 72 20.5 125.5 q20.5 53.5 47.5 79.5 q27 26 62.5 41 q35.5 15 54.5 17.5 q19 2.5 36 2.5 q55 0 97 -15 q42 -15 65 -36.5 q23 -21.5 37.5 -52 q14.5 -30.5 19 -56.5 q4.5 -26 4.5 -55 q0 -17 -1.5 -33.5 q-1.5 -16.5 -3.5 -25.5 l-2 -8 q-8 0 -21 -0.5 q-13 -0.5 -48 -2 q-35 -1.5 -66 -3 q-31 -1.5 -63 -3.5 q-32 -2 -51 -3 q-19 -1 -19 -2 ZM259 396 q-70 -1 -70 -96 l137 10 q0 18 -3.5 34.5 q-3.5 16.5 -19.5 34 q-16 17.5 -44 17.5 ZM207.5 549.5 q-16.5 16.5 -16.5 39.5 q0 23 16.5 39.5 q16.5 16.5 39.5 16.5 q23 0 39.5 -16.5 q16.5 -16.5 16.5 -39.5 q0 -23 -16.5 -39.5 q-16.5 -16.5 -39.5 -16.5 q-23 0 -39.5 16.5 Z" /><glyph glyph-name="Eogonek" unicode="&#x118;" d="M34 0 l-9 580 l375 25 l0 -149 l-201 -4 l0 -88 l189 7 l6 -143 l-186 0 l0 -95 l210 17 l0 -150 l-30 0 q-6 -7 -25 -25.5 q-19 -18.5 -26.5 -30.5 q-7.5 -12 -7.5 -27 q0 -15 14 -15 q10 0 25.5 8 q15.5 8 26.5 17 q11 9 10 11 l13 -60 q-10 -23 -42.5 -39 q-32.5 -16 -67.5 -16 q-32 0 -52.5 15.5 q-20.5 15.5 -20.5 46.5 q0 33 21 66 q21 33 58 49 l-280 0 Z" /><glyph glyph-name="eogonek" unicode="&#x119;" d="M259 396 q-70 -1 -70 -96 l137 10 q0 18 -3.5 34.5 q-3.5 16.5 -19.5 34 q-16 17.5 -44 17.5 ZM276 -101 q0 56 43 102 q-15 -1 -39 -1 q-255 0 -255 234 q0 72 20.5 125.5 q20.5 53.5 47.5 79.5 q27 26 62.5 41 q35.5 15 54.5 17.5 q19 2.5 36 2.5 q55 0 97 -15 q42 -15 65 -36.5 q23 -21.5 37.5 -52 q14.5 -30.5 19 -56.5 q4.5 -26 4.5 -55 q0 -17 -1.5 -33.5 q-1.5 -16.5 -3.5 -25.5 l-2 -8 q-8 0 -21 -0.5 q-13 -0.5 -48 -2 q-35 -1.5 -66 -3 q-31 -1.5 -63 -3.5 q-32 -2 -51 -3 q-19 -1 -19 -2 q20 -73 106 -73 q27 0 57 7 q30 7 47 14 l17 7 l43 -119 q-2 -2 -3 -2 q-8 -9 -31 -31 q-23 -22 -31.5 -36.5 q-8.5 -14.5 -8.5 -32.5 q0 -19 17 -19 q12 0 31 10 q19 10 32.5 20.5 q13.5 10.5 12.5 13.5 l16 -73 q-12 -28 -52 -47.5 q-40 -19.5 -82 -19.5 q-39 0 -64 19 q-25 19 -25 57 Z" /><glyph glyph-name="Ecaron" unicode="&#x11a;" d="M25 580 l9 -580 l384 0 l0 150 l-210 -17 l0 95 l186 0 l-6 143 l-189 -7 l0 88 l201 4 l0 149 l-375 -25 ZM245 644 l-68 -9 l-82 119 l92 9 l28 -50 l36 50 l82 7 l-88 -126 Z" /><glyph glyph-name="ecaron" unicode="&#x11b;" d="M194 204 q20 -73 106 -73 q27 0 57 7 q30 7 47 14 l17 7 l43 -119 q-56 -40 -184 -40 q-255 0 -255 234 q0 72 20.5 125.5 q20.5 53.5 47.5 79.5 q27 26 62.5 41 q35.5 15 54.5 17.5 q19 2.5 36 2.5 q55 0 97 -15 q42 -15 65 -36.5 q23 -21.5 37.5 -52 q14.5 -30.5 19 -56.5 q4.5 -26 4.5 -55 q0 -17 -1.5 -33.5 q-1.5 -16.5 -3.5 -25.5 l-2 -8 q-8 0 -21 -0.5 q-13 -0.5 -48 -2 q-35 -1.5 -66 -3 q-31 -1.5 -63 -3.5 q-32 -2 -51 -3 q-19 -1 -19 -2 ZM259 396 q-70 -1 -70 -96 l137 10 q0 18 -3.5 34.5 q-3.5 16.5 -19.5 34 q-16 17.5 -44 17.5 ZM276 532 l-65 -8 l-79 114 l88 9 l27 -48 l35 48 l79 7 l-85 -122 Z" /><glyph glyph-name="Gcircumflex" unicode="&#x11c;" d="M314 312 l225 16 l0 -328 l-222 0 q-44 0 -83 7.5 q-39 7.5 -78.5 28 q-39.5 20.5 -67.5 52.5 q-28 32 -45.5 85.5 q-17.5 53.5 -17.5 123.5 q0 74 19.5 130.5 q19.5 56.5 49.5 89.5 q30 33 72 54 q42 21 82.5 28 q40.5 7 85.5 7 q99 0 168 -23 l-49 -154 q-52 14 -97 14 q-29 0 -54 -6 q-25 -6 -49.5 -21 q-24.5 -15 -38.5 -45.5 q-14 -30.5 -14 -73.5 q0 -140 155 -140 q25 0 36 1 l0 48 l-77 0 l0 106 ZM264 761 l68 9 l82 -119 l-92 -9 l-28 50 l-36 -50 l-82 -7 l88 126 Z" /><glyph glyph-name="gcircumflex" unicode="&#x11d;" d="M329 126 l0 209 q-17 21 -53 21 l-6 0 q-25 0 -42.5 -13 q-17.5 -13 -24.5 -34.5 q-7 -21.5 -9.5 -37.5 q-2.5 -16 -2.5 -31 l0 -9 q11 -111 100 -111 l38 6 ZM486 513 q9 -10 9 -94 q0 -16 -1 -144.5 q-1 -128.5 -1 -250.5 q0 -24 -3 -49 q-3 -25 -17.5 -63 q-14.5 -38 -38.5 -66 q-24 -28 -71.5 -49 q-47.5 -21 -110.5 -21 q-147 0 -219 50 l9 160 q104 -46 178 -46 q33 0 65.5 15 q32.5 15 50.5 42 l-13 14 q-53 -35 -103 -35 q-94 0 -147 71.5 q-53 71.5 -53 188.5 q0 68 17.5 119 q17.5 51 41 77 q23.5 26 55 42 q31.5 16 52 19.5 q20.5 3.5 39.5 3.5 q68 0 125 -43 l-8 44 l144 15 ZM240 673 l77 10 l93 -135 l-104 -11 l-32 57 l-41 -57 l-94 -8 l101 144 Z" /><glyph glyph-name="Gbreve" unicode="&#x11e;" d="M314 312 l225 16 l0 -328 l-222 0 q-44 0 -83 7.5 q-39 7.5 -78.5 28 q-39.5 20.5 -67.5 52.5 q-28 32 -45.5 85.5 q-17.5 53.5 -17.5 123.5 q0 74 19.5 130.5 q19.5 56.5 49.5 89.5 q30 33 72 54 q42 21 82.5 28 q40.5 7 85.5 7 q99 0 168 -23 l-49 -154 q-52 14 -97 14 q-29 0 -54 -6 q-25 -6 -49.5 -21 q-24.5 -15 -38.5 -45.5 q-14 -30.5 -14 -73.5 q0 -140 155 -140 q25 0 36 1 l0 48 l-77 0 l0 106 ZM319 711 l0 21 l69 7 l0 -22 q0 -34 -27.5 -56 q-27.5 -22 -65.5 -22 q-39 0 -66 22 q-27 22 -29 56 l0 15 l71 7 l0 -22 q0 -10 7 -16.5 q7 -6.5 18 -6.5 q20 0 23 17 Z" /><glyph glyph-name="gbreve" unicode="&#x11f;" d="M329 126 l0 209 q-17 21 -53 21 l-6 0 q-25 0 -42.5 -13 q-17.5 -13 -24.5 -34.5 q-7 -21.5 -9.5 -37.5 q-2.5 -16 -2.5 -31 l0 -9 q11 -111 100 -111 l38 6 ZM486 513 q9 -10 9 -94 q0 -16 -1 -144.5 q-1 -128.5 -1 -250.5 q0 -24 -3 -49 q-3 -25 -17.5 -63 q-14.5 -38 -38.5 -66 q-24 -28 -71.5 -49 q-47.5 -21 -110.5 -21 q-147 0 -219 50 l9 160 q104 -46 178 -46 q33 0 65.5 15 q32.5 15 50.5 42 l-13 14 q-53 -35 -103 -35 q-94 0 -147 71.5 q-53 71.5 -53 188.5 q0 68 17.5 119 q17.5 51 41 77 q23.5 26 55 42 q31.5 16 52 19.5 q20.5 3.5 39.5 3.5 q68 0 125 -43 l-8 44 l144 15 ZM319 610 l0 27 l89 9 l0 -28 q0 -44 -35 -72.5 q-35 -28.5 -85 -28.5 q-50 0 -85 28.5 q-35 28.5 -38 72.5 l0 19 l92 9 l0 -28 q0 -13 9 -21.5 q9 -8.5 23 -8.5 q11 0 20 6 q9 6 10 16 Z" /><glyph glyph-name="Gdotaccent" unicode="&#x120;" d="M314 312 l225 16 l0 -328 l-222 0 q-44 0 -83 7.5 q-39 7.5 -78.5 28 q-39.5 20.5 -67.5 52.5 q-28 32 -45.5 85.5 q-17.5 53.5 -17.5 123.5 q0 74 19.5 130.5 q19.5 56.5 49.5 89.5 q30 33 72 54 q42 21 82.5 28 q40.5 7 85.5 7 q99 0 168 -23 l-49 -154 q-52 14 -97 14 q-29 0 -54 -6 q-25 -6 -49.5 -21 q-24.5 -15 -38.5 -45.5 q-14 -30.5 -14 -73.5 q0 -140 155 -140 q25 0 36 1 l0 48 l-77 0 l0 106 ZM242.5 650.5 q-16.5 16.5 -16.5 39.5 q0 23 16.5 39.5 q16.5 16.5 39.5 16.5 q23 0 39.5 -16.5 q16.5 -16.5 16.5 -39.5 q0 -23 -16.5 -39.5 q-16.5 -16.5 -39.5 -16.5 q-23 0 -39.5 16.5 Z" /><glyph glyph-name="gdotaccent" unicode="&#x121;" d="M329 126 l0 209 q-17 21 -53 21 l-6 0 q-25 0 -42.5 -13 q-17.5 -13 -24.5 -34.5 q-7 -21.5 -9.5 -37.5 q-2.5 -16 -2.5 -31 l0 -9 q11 -111 100 -111 l38 6 ZM486 513 q9 -10 9 -94 q0 -16 -1 -144.5 q-1 -128.5 -1 -250.5 q0 -24 -3 -49 q-3 -25 -17.5 -63 q-14.5 -38 -38.5 -66 q-24 -28 -71.5 -49 q-47.5 -21 -110.5 -21 q-147 0 -219 50 l9 160 q104 -46 178 -46 q33 0 65.5 15 q32.5 15 50.5 42 l-13 14 q-53 -35 -103 -35 q-94 0 -147 71.5 q-53 71.5 -53 188.5 q0 68 17.5 119 q17.5 51 41 77 q23.5 26 55 42 q31.5 16 52 19.5 q20.5 3.5 39.5 3.5 q68 0 125 -43 l-8 44 l144 15 ZM241.5 549.5 q-16.5 16.5 -16.5 39.5 q0 23 16.5 39.5 q16.5 16.5 39.5 16.5 q23 0 39.5 -16.5 q16.5 -16.5 16.5 -39.5 q0 -23 -16.5 -39.5 q-16.5 -16.5 -39.5 -16.5 q-23 0 -39.5 16.5 Z" /><glyph glyph-name="Gcommaaccent" unicode="&#x122;" d="M392 -136 l-37 -69 l-98 -8 l42 85 q-30 15 -30 50 q0 26 20 43 q20 17 50 17 q30 0 50.5 -17.5 q20.5 -17.5 20.5 -46.5 q0 -26 -18 -54 ZM314 312 l225 16 l0 -328 l-222 0 q-44 0 -83 7.5 q-39 7.5 -78.5 28 q-39.5 20.5 -67.5 52.5 q-28 32 -45.5 85.5 q-17.5 53.5 -17.5 123.5 q0 74 19.5 130.5 q19.5 56.5 49.5 89.5 q30 33 72 54 q42 21 82.5 28 q40.5 7 85.5 7 q99 0 168 -23 l-49 -154 q-52 14 -97 14 q-29 0 -54 -6 q-25 -6 -49.5 -21 q-24.5 -15 -38.5 -45.5 q-14 -30.5 -14 -73.5 q0 -140 155 -140 q25 0 36 1 l0 48 l-77 0 l0 106 Z" /><glyph glyph-name="gcommaaccent" unicode="&#x123;" d="M329 126 l0 209 q-17 21 -53 21 l-6 0 q-25 0 -42.5 -13 q-17.5 -13 -24.5 -34.5 q-7 -21.5 -9.5 -37.5 q-2.5 -16 -2.5 -31 l0 -9 q11 -111 100 -111 l38 6 ZM486 513 q9 -10 9 -94 q0 -16 -1 -144.5 q-1 -128.5 -1 -250.5 q0 -24 -3 -49 q-3 -25 -17.5 -63 q-14.5 -38 -38.5 -66 q-24 -28 -71.5 -49 q-47.5 -21 -110.5 -21 q-147 0 -219 50 l9 160 q104 -46 178 -46 q33 0 65.5 15 q32.5 15 50.5 42 l-13 14 q-53 -35 -103 -35 q-94 0 -147 71.5 q-53 71.5 -53 188.5 q0 68 17.5 119 q17.5 51 41 77 q23.5 26 55 42 q31.5 16 52 19.5 q20.5 3.5 39.5 3.5 q68 0 125 -43 l-8 44 l144 15 ZM216 621 l33 60 l85 7 l-37 -74 q27 -14 27 -43 q0 -23 -18 -38 q-18 -15 -44 -15 q-26 0 -43.5 15.5 q-17.5 15.5 -17.5 39.5 q0 23 15 48 Z" /><glyph glyph-name="Hcircumflex" unicode="&#x124;" d="M254 761 l68 9 l82 -119 l-92 -9 l-28 50 l-36 -50 l-82 -7 l88 126 ZM369 0 q-9 72 -9 224 l-156 0 l0 -224 l-179 0 l0 578 l168 18 l0 -247 q69 0 169 6 l7 233 l178 18 l0 -606 l-178 0 Z" /><glyph glyph-name="hcircumflex" unicode="&#x125;" d="M310 0 q11 81 11 205 q0 106 -63 106 q-20 0 -29 -22.5 q-9 -22.5 -9 -83.5 q0 -52 10 -205 l-182 0 l-23 624 l196 21 l0 -239 q4 5 13 12 q9 7 39 18.5 q30 11.5 64 11.5 q34 0 59 -6 q25 -6 49.5 -22.5 q24.5 -16.5 38 -52.5 q13.5 -36 13.5 -89 l16 -278 l-203 0 ZM89 791 l68 9 l82 -119 l-92 -9 l-28 50 l-36 -50 l-82 -7 l88 126 Z" /><glyph glyph-name="Hbar" unicode="&#x126;" d="M-22 385 l1 124 l46 2 l0 67 l168 18 l0 -77 l173 9 l3 60 l178 18 l0 -69 l40 2 l0 -140 l-40 0 l0 -399 l-178 0 q-9 72 -9 224 l-156 0 l0 -224 l-179 0 l0 385 l-47 0 ZM362 355 l4 46 l-173 -11 l0 -41 q69 0 169 6 Z" /><glyph glyph-name="hbar" unicode="&#x127;" d="M-46 464 l1 98 l72 5 l-2 57 l196 21 l0 -65 l82 6 l0 -110 l-82 -3 l0 -67 q4 5 13 12 q9 7 39 18.5 q30 11.5 64 11.5 q34 0 59 -6 q25 -6 49.5 -22.5 q24.5 -16.5 38 -52.5 q13.5 -36 13.5 -89 l16 -278 l-203 0 q11 81 11 205 q0 106 -63 106 q-20 0 -29 -22.5 q-9 -22.5 -9 -83.5 q0 -52 10 -205 l-182 0 l-18 464 l-76 0 Z" /><glyph glyph-name="Itilde" unicode="&#x128;" d="M25 590 l181 14 l0 -604 l-181 0 l0 590 ZM-81 696 q13 36 44 68.5 q31 32.5 68 32.5 q22 0 64.5 -21.5 q42.5 -21.5 57.5 -21.5 q14 0 28.5 14.5 q14.5 14.5 21 26 q6.5 11.5 9.5 19.5 l82 -50 q-18 -123 -114 -123 q-33 0 -66.5 17.5 q-33.5 17.5 -49.5 17.5 q-33 0 -44 -40 l-101 60 Z" /><glyph glyph-name="itilde" unicode="&#x129;" d="M25 444 l197 11 l0 -455 l-181 0 l-16 444 ZM-64 548 q13 36 44 68.5 q31 32.5 68 32.5 q22 0 64.5 -21.5 q42.5 -21.5 57.5 -21.5 q14 0 28.5 14.5 q14.5 14.5 21 26 q6.5 11.5 9.5 19.5 l82 -50 q-18 -123 -114 -123 q-33 0 -66.5 17.5 q-33.5 17.5 -49.5 17.5 q-33 0 -44 -40 l-101 60 Z" /><glyph glyph-name="Imacron" unicode="&#x12a;" d="M-53 640 l1 98 l348 24 l0 -110 l-349 -12 ZM25 590 l181 14 l0 -604 l-181 0 l0 590 Z" /><glyph glyph-name="imacron" unicode="&#x12b;" d="M25 444 l197 11 l0 -455 l-181 0 l-16 444 ZM-51 533 l1 98 l348 24 l0 -110 l-349 -12 Z" /><glyph glyph-name="Ibreve" unicode="&#x12c;" d="M25 590 l181 14 l0 -604 l-181 0 l0 590 ZM144 711 l0 21 l69 7 l0 -22 q0 -34 -27.5 -56 q-27.5 -22 -65.5 -22 q-39 0 -66 22 q-27 22 -29 56 l0 15 l71 7 l0 -22 q0 -10 7 -16.5 q7 -6.5 18 -6.5 q20 0 23 17 Z" /><glyph glyph-name="ibreve" unicode="&#x12d;" d="M25 444 l197 11 l0 -455 l-181 0 l-16 444 ZM158 595 l0 29 l98 10 l0 -31 q0 -48 -39.5 -79.5 q-39.5 -31.5 -93.5 -31.5 q-54 0 -92.5 31.5 q-38.5 31.5 -41.5 79.5 l0 21 l100 10 l0 -31 q0 -14 10.5 -23.5 q10.5 -9.5 25.5 -9.5 q12 0 21.5 7 q9.5 7 11.5 18 Z" /><glyph glyph-name="Iogonek" unicode="&#x12e;" d="M23 -115 q0 33 21 66 q21 33 58 49 l-77 0 l0 590 l181 14 l0 -604 l-30 0 q-6 -7 -25 -25.5 q-19 -18.5 -26.5 -30.5 q-7.5 -12 -7.5 -27 q0 -15 14 -15 q10 0 25.5 8 q15.5 8 26.5 17 q11 9 10 11 l13 -60 q-10 -23 -42.5 -39 q-32.5 -16 -67.5 -16 q-32 0 -52.5 15.5 q-20.5 15.5 -20.5 46.5 Z" /><glyph glyph-name="iogonek" unicode="&#x12f;" d="M24 678 l192 11 l-5 -141 l-179 -10 l-8 140 ZM32 -115 q0 33 21 66 q21 33 58 49 l-70 0 l-16 484 l197 11 l0 -495 l-37 0 q-6 -7 -25 -25.5 q-19 -18.5 -26.5 -30.5 q-7.5 -12 -7.5 -27 q0 -15 14 -15 q10 0 25.5 8 q15.5 8 26.5 17 q11 9 10 11 l13 -60 q-10 -23 -42.5 -39 q-32.5 -16 -67.5 -16 q-32 0 -52.5 15.5 q-20.5 15.5 -20.5 46.5 Z" /><glyph glyph-name="Idotaccent" unicode="&#x130;" d="M77.5 650.5 q-16.5 16.5 -16.5 39.5 q0 23 16.5 39.5 q16.5 16.5 39.5 16.5 q23 0 39.5 -16.5 q16.5 -16.5 16.5 -39.5 q0 -23 -16.5 -39.5 q-16.5 -16.5 -39.5 -16.5 q-23 0 -39.5 16.5 ZM25 590 l181 14 l0 -604 l-181 0 l0 590 Z" /><glyph glyph-name="dotlessi" unicode="&#x131;" d="M25 484 l197 11 l0 -495 l-181 0 l-16 484 Z" /><glyph glyph-name="IJ" unicode="&#x132;" d="M25 590 l181 14 l0 -604 l-181 0 l0 590 ZM583 605 q-9 -307 -9 -439 q0 -54 -17 -88.5 q-17 -34.5 -51.5 -50.5 q-34.5 -16 -70.5 -21.5 q-36 -5.5 -90 -5.5 q-36 0 -67.5 3.5 q-31.5 3.5 -44.5 7.5 l-13 4 l18 129 q42 -19 88 -21 q37 0 37 61 l-1 18 l0 385 l221 18 Z" /><glyph glyph-name="ij" unicode="&#x133;" d="M25 678 l192 11 l-5 -141 l-179 -10 l-8 140 ZM26 484 l197 11 l0 -495 l-181 0 l-16 484 ZM500 468 l-1 -504 q-2 -58 -19.5 -101 q-17.5 -43 -38.5 -64 q-21 -21 -50 -33 q-29 -12 -45 -14 q-16 -2 -32 -2 q-88 7 -141 36 l14 162 q22 -12 50 -12 q23 0 38 9 q15 9 20.5 27 q5.5 18 7 31 q1.5 13 1.5 36 l-15 414 l211 15 ZM302 649 l-5 0 l189 11 l0 -135 l-184 -16 l0 140 Z" /><glyph glyph-name="Jcircumflex" unicode="&#x134;" d="M302 605 q-9 -307 -9 -439 q0 -54 -17 -88.5 q-17 -34.5 -51.5 -50.5 q-34.5 -16 -70.5 -21.5 q-36 -5.5 -90 -5.5 q-36 0 -67 3.5 q-31 3.5 -45 7.5 l-13 4 l18 129 q42 -19 88 -21 q37 0 37 61 l-1 18 l0 385 l221 18 ZM150 761 l68 9 l82 -119 l-92 -9 l-28 50 l-36 -50 l-82 -7 l88 126 Z" /><glyph glyph-name="jcircumflex" unicode="&#x135;" d="M281 -36 l16 536 l-211 -21 l0 -440 q0 -23 -1.5 -36 q-1.5 -13 -7 -31 q-5.5 -18 -20.5 -27 q-15 -9 -38 -9 q-28 0 -50 12 l-14 -162 q53 -29 141 -36 q16 0 32 2 q16 2 45 14 q29 12 50 33 q21 21 38.5 64 q17.5 43 19.5 101 ZM142 686 l87 11 l106 -153 l-118 -12 l-37 65 l-46 -65 l-106 -9 l114 163 Z" /><glyph glyph-name="Kcommaaccent" unicode="&#x136;" d="M330 -136 l-37 -69 l-98 -8 l42 85 q-30 15 -30 50 q0 26 20 43 q20 17 50 17 q30 0 50.5 -17.5 q20.5 -17.5 20.5 -46.5 q0 -26 -18 -54 ZM370 230 q17 -18 56 -75.5 q39 -57.5 70 -106.5 l30 -48 l-203 0 l-103 186 l-8 -186 l-183 0 l-4 589 l212 16 l-13 -316 q12 28 42.5 100.5 q30.5 72.5 54 128 q23.5 55.5 27.5 67.5 l207 10 q-12 -53 -58.5 -144 q-46.5 -91 -86.5 -156 l-40 -65 Z" /><glyph glyph-name="kcommaaccent" unicode="&#x137;" d="M318 -137 l-37 -69 l-98 -8 l42 85 q-30 15 -30 50 q0 26 20 43 q20 17 50 17 q30 0 50.5 -17.5 q20.5 -17.5 20.5 -46.5 q0 -26 -18 -54 ZM526 0 l-244 0 q-21 97 -48 158 l-20 -5 l0 -153 l-169 0 l-20 623 l194 19 l0 -361 l66 202 l227 17 q-83 -177 -154 -254 l168 -246 Z" /><glyph glyph-name="kgreenlandic" unicode="&#x138;" d="M526 0 l-244 0 q-21 97 -48 158 l-20 -5 l0 -153 l-169 0 l-20 623 l194 19 l0 -361 l66 202 l227 17 q-83 -177 -154 -254 l168 -246 Z" /><glyph glyph-name="Lacute" unicode="&#x139;" d="M25 593 l184 12 q3 -114 3 -275 l-1 -198 l180 20 l14 -152 l-376 0 q-1 63 -1.5 90.5 q-0.5 27.5 -0.5 54.5 q0 27 -0.5 145 q-0.5 118 -1.5 303 ZM86 769 l133 8 l-87 -126 l-92 -7 l46 125 Z" /><glyph glyph-name="lacute" unicode="&#x13a;" d="M25 630 l197 14 l0 -644 l-181 0 l-16 630 ZM106 792 l133 8 l-87 -126 l-92 -7 l46 125 Z" /><glyph glyph-name="Lcommaaccent" unicode="&#x13b;" d="M261 -136 l-37 -69 l-98 -8 l42 85 q-30 15 -30 50 q0 26 20 43 q20 17 50 17 q30 0 50.5 -17.5 q20.5 -17.5 20.5 -46.5 q0 -26 -18 -54 ZM25 593 l184 12 q3 -114 3 -275 l-1 -198 l180 20 l14 -152 l-376 0 q-1 63 -1.5 90.5 q-0.5 27.5 -0.5 54.5 q0 27 -0.5 145 q-0.5 118 -1.5 303 Z" /><glyph glyph-name="lcommaaccent" unicode="&#x13c;" d="M182 -137 l-37 -69 l-98 -8 l42 85 q-30 15 -30 50 q0 26 20 43 q20 17 50 17 q30 0 50.5 -17.5 q20.5 -17.5 20.5 -46.5 q0 -26 -18 -54 ZM25 630 l197 14 l0 -644 l-181 0 l-16 630 Z" /><glyph glyph-name="Lcaron" unicode="&#x13d;" d="M25 593 l184 12 q3 -114 3 -275 l-1 -198 l180 20 l14 -152 l-376 0 q-1 63 -1.5 90.5 q-0.5 27.5 -0.5 54.5 q0 27 -0.5 145 q-0.5 118 -1.5 303 ZM139 644 l-68 -9 l-82 119 l92 9 l28 -50 l36 50 l82 7 l-88 -126 Z" /><glyph glyph-name="lcaron" unicode="&#x13e;" d="M25 630 l197 14 l0 -644 l-181 0 l-16 630 ZM427 497 l-46 -84 l-120 -10 l52 104 q-37 20 -37 61 q0 32 25 53 q25 21 61 21 q37 0 61.5 -21.5 q24.5 -21.5 24.5 -56.5 q0 -33 -21 -67 Z" /><glyph glyph-name="Ldot" unicode="&#x13f;" d="M333.5 253.5 q-15.5 15.5 -15.5 37.5 q0 22 15.5 37.5 q15.5 15.5 37.5 15.5 q22 0 37.5 -15.5 q15.5 -15.5 15.5 -37.5 q0 -22 -15.5 -37.5 q-15.5 -15.5 -37.5 -15.5 q-22 0 -37.5 15.5 ZM25 593 l184 12 q3 -114 3 -275 l-1 -198 l180 20 l14 -152 l-376 0 q-1 63 -1.5 90.5 q-0.5 27.5 -0.5 54.5 q0 27 -0.5 145 q-0.5 118 -1.5 303 Z" /><glyph glyph-name="ldot" unicode="&#x140;" d="M250.5 228.5 q-16.5 16.5 -16.5 39.5 q0 23 16.5 39.5 q16.5 16.5 39.5 16.5 q23 0 39.5 -16.5 q16.5 -16.5 16.5 -39.5 q0 -23 -16.5 -39.5 q-16.5 -16.5 -39.5 -16.5 q-23 0 -39.5 16.5 ZM25 630 l197 14 l0 -644 l-181 0 l-16 630 Z" /><glyph glyph-name="Lslash" unicode="&#x141;" d="M25 593 l184 12 q1 -17 1.5 -54.5 q0.5 -37.5 0.5 -56.5 l46 30 l104 -118 l-149 -90 l-1 -184 l180 20 l14 -152 l-376 0 q0 14 -2 204 l-45 -27 l-97 107 l141 91 q0 25 -0.5 97.5 q-0.5 72.5 -0.5 120.5 Z" /><glyph glyph-name="lslash" unicode="&#x142;" d="M46 630 l197 14 l0 -192 l49 27 l73 -147 l-122 -61 l0 -271 l-181 0 l-5 180 l-40 -20 l-67 135 l103 55 l-7 280 Z" /><glyph glyph-name="Nacute" unicode="&#x143;" d="M25 587 l0 -587 l158 0 l0 270 l212 -270 l143 0 l30 605 l-178 -13 l2 -357 l-210 370 l-157 -18 ZM296 769 l133 8 l-87 -126 l-92 -7 l46 125 Z" /><glyph glyph-name="nacute" unicode="&#x144;" d="M205 294 l16 -294 l-196 0 l0 471 q56 9 106.5 17.5 q50.5 8.5 72.5 11.5 q0 -46 -8 -94 q38 78 149 78 q37 0 64.5 -12 q27.5 -12 42.5 -28 q15 -16 25.5 -42.5 q10.5 -26.5 13.5 -46.5 q3 -20 6 -48 l0 -307 l-197 0 l0 295 q0 55 -42 55 q-31 0 -42 -14.5 q-11 -14.5 -11 -41.5 ZM239 657 l133 8 l-87 -126 l-92 -7 l46 125 Z" /><glyph glyph-name="Ncommaaccent" unicode="&#x145;" d="M330 -136 l-37 -69 l-98 -8 l42 85 q-30 15 -30 50 q0 26 20 43 q20 17 50 17 q30 0 50.5 -17.5 q20.5 -17.5 20.5 -46.5 q0 -26 -18 -54 ZM25 0 l0 587 l157 18 l210 -370 l-2 357 l178 13 l-30 -605 l-143 0 l-212 270 l0 -270 l-158 0 Z" /><glyph glyph-name="ncommaaccent" unicode="&#x146;" d="M318 -137 l-37 -69 l-98 -8 l42 85 q-30 15 -30 50 q0 26 20 43 q20 17 50 17 q30 0 50.5 -17.5 q20.5 -17.5 20.5 -46.5 q0 -26 -18 -54 ZM205 294 l16 -294 l-196 0 l0 471 q56 9 106.5 17.5 q50.5 8.5 72.5 11.5 q0 -46 -8 -94 q38 78 149 78 q37 0 64.5 -12 q27.5 -12 42.5 -28 q15 -16 25.5 -42.5 q10.5 -26.5 13.5 -46.5 q3 -20 6 -48 l0 -307 l-197 0 l0 295 q0 55 -42 55 q-31 0 -42 -14.5 q-11 -14.5 -11 -41.5 Z" /><glyph glyph-name="Ncaron" unicode="&#x147;" d="M25 587 l0 -587 l158 0 l0 270 l212 -270 l143 0 l30 605 l-178 -13 l2 -357 l-210 370 l-157 -18 ZM330 644 l-68 -9 l-82 119 l92 9 l28 -50 l36 50 l82 7 l-88 -126 Z" /><glyph glyph-name="ncaron" unicode="&#x148;" d="M205 294 l16 -294 l-196 0 l0 471 q56 9 106.5 17.5 q50.5 8.5 72.5 11.5 q0 -46 -8 -94 q38 78 149 78 q37 0 64.5 -12 q27.5 -12 42.5 -28 q15 -16 25.5 -42.5 q10.5 -26.5 13.5 -46.5 q3 -20 6 -48 l0 -307 l-197 0 l0 295 q0 55 -42 55 q-31 0 -42 -14.5 q-11 -14.5 -11 -41.5 ZM290 532 l-65 -8 l-79 114 l88 9 l27 -48 l35 48 l79 7 l-85 -122 Z" /><glyph glyph-name="napostrophe" unicode="&#x149;" d="M138 559 l-37 -69 l-98 -8 l42 85 q-30 15 -30 50 q0 26 20 43 q20 17 50 17 q30 0 50.5 -17.5 q20.5 -17.5 20.5 -46.5 q0 -26 -18 -54 ZM292 294 l16 -294 l-196 0 l0 471 q56 9 106.5 17.5 q50.5 8.5 72.5 11.5 q0 -46 -8 -94 q38 78 149 78 q37 0 64.5 -12 q27.5 -12 42.5 -28 q15 -16 25.5 -42.5 q10.5 -26.5 13.5 -46.5 q3 -20 6 -48 l0 -307 l-197 0 l0 295 q0 55 -42 55 q-31 0 -42 -14.5 q-11 -14.5 -11 -41.5 Z" /><glyph glyph-name="Omacron" unicode="&#x14c;" d="M580 304 q0 -79 -24.5 -138.5 q-24.5 -59.5 -57.5 -90 q-33 -30.5 -76 -49 q-43 -18.5 -71 -22.5 q-28 -4 -53 -4 q-121 0 -197 85.5 q-76 85.5 -76 218.5 q0 78 24 137 q24 59 57 89 q33 30 76 48.5 q43 18.5 71 22.5 q28 4 53 4 q22 0 49 -4 q27 -4 69.5 -22.5 q42.5 -18.5 75 -48.5 q32.5 -30 56.5 -89 q24 -59 24 -137 ZM221 314 q0 -32 2.5 -55 q2.5 -23 10 -51 q7.5 -28 25 -43.5 q17.5 -15.5 43.5 -15.5 q86 0 86 160 q0 20 -2.5 39 q-2.5 19 -10.5 43 q-8 24 -26 38.5 q-18 14.5 -45 14.5 q-26 0 -44 -14 q-18 -14 -26 -37 q-8 -23 -10.5 -41.5 q-2.5 -18.5 -2.5 -37.5 ZM126 640 l1 98 l348 24 l0 -110 l-349 -12 Z" /><glyph glyph-name="omacron" unicode="&#x14d;" d="M63 533 l1 98 l348 24 l0 -110 l-349 -12 ZM484 251 q0 -55 -13.5 -98.5 q-13.5 -43.5 -36.5 -69.5 q-23 -26 -48 -44 q-25 -18 -53.5 -25.5 q-28.5 -7.5 -47 -10.5 q-18.5 -3 -34.5 -3 q-99 0 -162.5 70.5 q-63.5 70.5 -63.5 180.5 q0 65 20 113.5 q20 48.5 47.5 73.5 q27.5 25 63.5 40 q36 15 59 18.5 q23 3.5 43 3.5 q18 0 40 -3.5 q22 -3.5 57 -18.5 q35 -15 62 -40 q27 -25 47 -73.5 q20 -48.5 20 -113.5 ZM187 259 q0 -26 2.5 -45 q2.5 -19 8.5 -42.5 q6 -23.5 20 -36 q14 -12.5 36 -12.5 q71 0 71 132 q0 16 -2.5 32 q-2.5 16 -8.5 36 q-6 20 -21 32 q-15 12 -37 12 q-28 0 -45 -21.5 q-17 -21.5 -20.5 -42.5 q-3.5 -21 -3.5 -44 Z" /><glyph glyph-name="Obreve" unicode="&#x14e;" d="M580 304 q0 -79 -24.5 -138.5 q-24.5 -59.5 -57.5 -90 q-33 -30.5 -76 -49 q-43 -18.5 -71 -22.5 q-28 -4 -53 -4 q-121 0 -197 85.5 q-76 85.5 -76 218.5 q0 78 24 137 q24 59 57 89 q33 30 76 48.5 q43 18.5 71 22.5 q28 4 53 4 q22 0 49 -4 q27 -4 69.5 -22.5 q42.5 -18.5 75 -48.5 q32.5 -30 56.5 -89 q24 -59 24 -137 ZM221 314 q0 -32 2.5 -55 q2.5 -23 10 -51 q7.5 -28 25 -43.5 q17.5 -15.5 43.5 -15.5 q86 0 86 160 q0 20 -2.5 39 q-2.5 19 -10.5 43 q-8 24 -26 38.5 q-18 14.5 -45 14.5 q-26 0 -44 -14 q-18 -14 -26 -37 q-8 -23 -10.5 -41.5 q-2.5 -18.5 -2.5 -37.5 ZM323 711 l0 21 l69 7 l0 -22 q0 -34 -27.5 -56 q-27.5 -22 -65.5 -22 q-39 0 -66 22 q-27 22 -29 56 l0 15 l71 7 l0 -22 q0 -10 7 -16.5 q7 -6.5 18 -6.5 q20 0 23 17 Z" /><glyph glyph-name="obreve" unicode="&#x14f;" d="M484 251 q0 -55 -13.5 -98.5 q-13.5 -43.5 -36.5 -69.5 q-23 -26 -48 -44 q-25 -18 -53.5 -25.5 q-28.5 -7.5 -47 -10.5 q-18.5 -3 -34.5 -3 q-99 0 -162.5 70.5 q-63.5 70.5 -63.5 180.5 q0 65 20 113.5 q20 48.5 47.5 73.5 q27.5 25 63.5 40 q36 15 59 18.5 q23 3.5 43 3.5 q18 0 40 -3.5 q22 -3.5 57 -18.5 q35 -15 62 -40 q27 -25 47 -73.5 q20 -48.5 20 -113.5 ZM187 259 q0 -26 2.5 -45 q2.5 -19 8.5 -42.5 q6 -23.5 20 -36 q14 -12.5 36 -12.5 q71 0 71 132 q0 16 -2.5 32 q-2.5 16 -8.5 36 q-6 20 -21 32 q-15 12 -37 12 q-28 0 -45 -21.5 q-17 -21.5 -20.5 -42.5 q-3.5 -21 -3.5 -44 ZM288 619 l0 27 l91 9 l0 -29 q0 -44 -36.5 -73.5 q-36.5 -29.5 -86.5 -29.5 q-51 0 -86.5 29 q-35.5 29 -38.5 74 l0 20 l94 9 l0 -29 q0 -13 9.5 -21.5 q9.5 -8.5 23.5 -8.5 q25 0 30 23 Z" /><glyph glyph-name="Ohungarumlaut" unicode="&#x150;" d="M188 769 l133 8 l-87 -126 l-92 -7 l46 125 ZM368 769 l133 8 l-87 -126 l-105 -2 l59 120 ZM580 304 q0 -79 -24.5 -138.5 q-24.5 -59.5 -57.5 -90 q-33 -30.5 -76 -49 q-43 -18.5 -71 -22.5 q-28 -4 -53 -4 q-121 0 -197 85.5 q-76 85.5 -76 218.5 q0 78 24 137 q24 59 57 89 q33 30 76 48.5 q43 18.5 71 22.5 q28 4 53 4 q22 0 49 -4 q27 -4 69.5 -22.5 q42.5 -18.5 75 -48.5 q32.5 -30 56.5 -89 q24 -59 24 -137 ZM221 314 q0 -32 2.5 -55 q2.5 -23 10 -51 q7.5 -28 25 -43.5 q17.5 -15.5 43.5 -15.5 q86 0 86 160 q0 20 -2.5 39 q-2.5 19 -10.5 43 q-8 24 -26 38.5 q-18 14.5 -45 14.5 q-26 0 -44 -14 q-18 -14 -26 -37 q-8 -23 -10.5 -41.5 q-2.5 -18.5 -2.5 -37.5 Z" /><glyph glyph-name="ohungarumlaut" unicode="&#x151;" d="M484 251 q0 -55 -13.5 -98.5 q-13.5 -43.5 -36.5 -69.5 q-23 -26 -48 -44 q-25 -18 -53.5 -25.5 q-28.5 -7.5 -47 -10.5 q-18.5 -3 -34.5 -3 q-99 0 -162.5 70.5 q-63.5 70.5 -63.5 180.5 q0 65 20 113.5 q20 48.5 47.5 73.5 q27.5 25 63.5 40 q36 15 59 18.5 q23 3.5 43 3.5 q18 0 40 -3.5 q22 -3.5 57 -18.5 q35 -15 62 -40 q27 -25 47 -73.5 q20 -48.5 20 -113.5 ZM187 259 q0 -26 2.5 -45 q2.5 -19 8.5 -42.5 q6 -23.5 20 -36 q14 -12.5 36 -12.5 q71 0 71 132 q0 16 -2.5 32 q-2.5 16 -8.5 36 q-6 20 -21 32 q-15 12 -37 12 q-28 0 -45 -21.5 q-17 -21.5 -20.5 -42.5 q-3.5 -21 -3.5 -44 ZM162 657 l133 8 l-87 -126 l-92 -7 l46 125 ZM335 657 l133 8 l-87 -126 l-92 -7 l46 125 Z" /><glyph glyph-name="OE" unicode="&#x152;" d="M270 594 q22 0 48.5 -4 q26.5 -4 68 -22 q41.5 -18 73.5 -47.5 q32 -29.5 56 -87 q24 -57.5 24 -134.5 q0 -78 -24 -136.5 q-24 -58.5 -56.5 -88 q-32.5 -29.5 -75 -48 q-42.5 -18.5 -70 -22.5 q-27.5 -4 -51.5 -4 q-119 0 -194 84 q-75 84 -75 215 q0 77 24 134.5 q24 57.5 56 87 q32 29.5 74.5 47.5 q42.5 18 70 22 q27.5 4 51.5 4 ZM266 146 q85 0 85 157 q0 20 -2.5 39 q-2.5 19 -10 42 q-7.5 23 -25.5 37.5 q-18 14.5 -44 14.5 q-26 0 -44 -13.5 q-18 -13.5 -25.5 -36 q-7.5 -22.5 -10 -41 q-2.5 -18.5 -2.5 -37.5 q0 -162 79 -162 ZM696 141 l206 16 l0 -157 l-379 0 l0 104 q55 77 55 195 q0 126 -62 200 l0 81 l369 24 l0 -133 l-198 -17 l0 -99 l186 19 l5 -127 l-182 -14 l0 -92 Z" /><glyph glyph-name="oe" unicode="&#x153;" d="M464 204 q20 -73 106 -73 q27 0 57 7 q30 7 47 14 l17 7 l43 -119 q-56 -40 -184 -40 q-118 0 -180 49 q-64 -49 -149 -49 q-99 0 -162.5 70.5 q-63.5 70.5 -63.5 180.5 q0 65 20 113.5 q20 48.5 47.5 73.5 q27.5 25 63.5 40 q36 15 59 18.5 q23 3.5 43 3.5 q81 0 146 -52 q59 52 142 52 q55 0 97 -15 q42 -15 65 -36.5 q23 -21.5 37.5 -52 q14.5 -30.5 19 -56.5 q4.5 -26 4.5 -55 q0 -17 -1.5 -33.5 q-1.5 -16.5 -3.5 -25.5 l-2 -8 q-8 0 -21 -0.5 q-13 -0.5 -48 -2 q-35 -1.5 -66 -3 q-31 -1.5 -63 -3.5 q-32 -2 -51 -3 q-19 -1 -19 -2 ZM157 259 q0 -26 2.5 -45 q2.5 -19 8.5 -42.5 q6 -23.5 20 -36 q14 -12.5 36 -12.5 q71 0 71 132 q0 16 -2.5 32 q-2.5 16 -8.5 36 q-6 20 -21 32 q-15 12 -37 12 q-28 0 -45 -21.5 q-17 -21.5 -20.5 -42.5 q-3.5 -21 -3.5 -44 ZM529 396 q-70 -1 -70 -96 l137 10 q0 18 -3.5 34.5 q-3.5 16.5 -19.5 34 q-16 17.5 -44 17.5 Z" /><glyph glyph-name="Racute" unicode="&#x154;" d="M384 248 l128 -248 l-202 0 l-78 206 l-15 -1 q-10 0 -16 -1 q12 -144 18 -204 l-191 0 l0 388 l-1 193 q116 29 225 29 q58 0 101 -15 q43 -15 65 -35.5 q22 -20.5 35 -48 q13 -27.5 15.5 -45 q2.5 -17.5 2.5 -34.5 q0 -150 -87 -184 ZM172 320 q11 -2 26 -2 q24 0 44.5 5 q20.5 5 39.5 24.5 q19 19.5 19 52.5 q0 78 -80 78 q-21 0 -49 -7 l0 -151 ZM219 769 l133 8 l-87 -126 l-92 -7 l46 125 Z" /><glyph glyph-name="racute" unicode="&#x155;" d="M203 299 l20 -299 l-198 0 l0 468 l177 32 q-3 -10 -5 -32 q-2 -22 -3 -38 l0 -17 q38 80 148 80 q139 0 139 -162 l0 -11 l0 -96 l-184 -16 l0 92 q0 56 -42 56 q-30 0 -41 -14.5 q-11 -14.5 -11 -42.5 ZM209 657 l133 8 l-87 -126 l-92 -7 l46 125 Z" /><glyph glyph-name="Rcommaaccent" unicode="&#x156;" d="M317 -136 l-37 -69 l-98 -8 l42 85 q-30 15 -30 50 q0 26 20 43 q20 17 50 17 q30 0 50.5 -17.5 q20.5 -17.5 20.5 -46.5 q0 -26 -18 -54 ZM384 248 l128 -248 l-202 0 l-78 206 l-15 -1 q-10 0 -16 -1 q12 -144 18 -204 l-191 0 l0 388 l-1 193 q116 29 225 29 q58 0 101 -15 q43 -15 65 -35.5 q22 -20.5 35 -48 q13 -27.5 15.5 -45 q2.5 -17.5 2.5 -34.5 q0 -150 -87 -184 ZM172 320 q11 -2 26 -2 q24 0 44.5 5 q20.5 5 39.5 24.5 q19 19.5 19 52.5 q0 78 -80 78 q-21 0 -49 -7 l0 -151 Z" /><glyph glyph-name="rcommaaccent" unicode="&#x157;" d="M173 -137 l-37 -69 l-98 -8 l42 85 q-30 15 -30 50 q0 26 20 43 q20 17 50 17 q30 0 50.5 -17.5 q20.5 -17.5 20.5 -46.5 q0 -26 -18 -54 ZM203 299 l20 -299 l-198 0 l0 468 l177 32 q-3 -10 -5 -32 q-2 -22 -3 -38 l0 -17 q38 80 148 80 q139 0 139 -162 l0 -11 l0 -96 l-184 -16 l0 92 q0 56 -42 56 q-30 0 -41 -14.5 q-11 -14.5 -11 -42.5 Z" /><glyph glyph-name="Rcaron" unicode="&#x158;" d="M384 248 l128 -248 l-202 0 l-78 206 l-15 -1 q-10 0 -16 -1 q12 -144 18 -204 l-191 0 l0 388 l-1 193 q116 29 225 29 q58 0 101 -15 q43 -15 65 -35.5 q22 -20.5 35 -48 q13 -27.5 15.5 -45 q2.5 -17.5 2.5 -34.5 q0 -150 -87 -184 ZM172 320 q11 -2 26 -2 q24 0 44.5 5 q20.5 5 39.5 24.5 q19 19.5 19 52.5 q0 78 -80 78 q-21 0 -49 -7 l0 -151 ZM246 644 l-68 -9 l-82 119 l92 9 l28 -50 l36 50 l82 7 l-88 -126 Z" /><glyph glyph-name="rcaron" unicode="&#x159;" d="M203 299 l20 -299 l-198 0 l0 468 l177 32 q-3 -10 -5 -32 q-2 -22 -3 -38 l0 -17 q38 80 148 80 q139 0 139 -162 l0 -11 l0 -96 l-184 -16 l0 92 q0 56 -42 56 q-30 0 -41 -14.5 q-11 -14.5 -11 -42.5 ZM282 532 l-65 -8 l-79 114 l88 9 l27 -48 l35 48 l79 7 l-85 -122 Z" /><glyph glyph-name="Sacute" unicode="&#x15a;" d="M25 36 l27 159 q133 -35 209 -35 q53 0 53 25 q0 16 -13.5 23 q-13.5 7 -49.5 15 q-95 14 -153 60.5 q-58 46.5 -58 131.5 q0 93 64 141.5 q64 48.5 169 48.5 q50 0 102 -13 q52 -13 78 -24 q26 -11 26 -10 q0 5 -48 -133 q-99 29 -140 29 q-52 0 -52 -33 q0 -17 26.5 -27.5 q26.5 -10.5 64.5 -21 q38 -10.5 76 -26.5 q38 -16 64.5 -53 q26.5 -37 26.5 -92 q0 -106 -68 -154 q-68 -48 -174 -48 q-52 0 -109.5 9.5 q-57.5 9.5 -89.5 18.5 l-31 9 ZM228 769 l133 8 l-87 -126 l-92 -7 l46 125 Z" /><glyph glyph-name="sacute" unicode="&#x15b;" d="M25 30 l22 131 q110 -29 173 -29 q44 0 44 21 q0 14 -11.5 19.5 q-11.5 5.5 -40.5 11.5 q-79 12 -127 50.5 q-48 38.5 -48 108.5 q0 77 53 117 q53 40 140 40 q41 0 84 -10.5 q43 -10.5 64 -19.5 l22 -9 q0 2 -10 -25.5 q-10 -27.5 -20 -55.5 l-9 -29 q-80 24 -116 24 q-43 0 -43 -27 q0 -14 22 -23 q22 -9 53 -17.5 q31 -8.5 62.5 -21.5 q31.5 -13 53.5 -44 q22 -31 22 -76 q0 -88 -56 -127.5 q-56 -39.5 -144 -39.5 q-43 0 -90.5 7.5 q-47.5 7.5 -73.5 15.5 l-26 8 ZM176 657 l133 8 l-87 -126 l-92 -7 l46 125 Z" /><glyph glyph-name="Scircumflex" unicode="&#x15c;" d="M25 36 l27 159 q133 -35 209 -35 q53 0 53 25 q0 16 -13.5 23 q-13.5 7 -49.5 15 q-95 14 -153 60.5 q-58 46.5 -58 131.5 q0 93 64 141.5 q64 48.5 169 48.5 q50 0 102 -13 q52 -13 78 -24 q26 -11 26 -10 q0 5 -48 -133 q-99 29 -140 29 q-52 0 -52 -33 q0 -17 26.5 -27.5 q26.5 -10.5 64.5 -21 q38 -10.5 76 -26.5 q38 -16 64.5 -53 q26.5 -37 26.5 -92 q0 -106 -68 -154 q-68 -48 -174 -48 q-52 0 -109.5 9.5 q-57.5 9.5 -89.5 18.5 l-31 9 ZM241 761 l68 9 l82 -119 l-92 -9 l-28 50 l-36 -50 l-82 -7 l88 126 Z" /><glyph glyph-name="scircumflex" unicode="&#x15d;" d="M25 30 l22 131 q110 -29 173 -29 q44 0 44 21 q0 14 -11.5 19.5 q-11.5 5.5 -40.5 11.5 q-79 12 -127 50.5 q-48 38.5 -48 108.5 q0 77 53 117 q53 40 140 40 q41 0 84 -10.5 q43 -10.5 64 -19.5 l22 -9 q0 2 -10 -25.5 q-10 -27.5 -20 -55.5 l-9 -29 q-80 24 -116 24 q-43 0 -43 -27 q0 -14 22 -23 q22 -9 53 -17.5 q31 -8.5 62.5 -21.5 q31.5 -13 53.5 -44 q22 -31 22 -76 q0 -88 -56 -127.5 q-56 -39.5 -144 -39.5 q-43 0 -90.5 7.5 q-47.5 7.5 -73.5 15.5 l-26 8 ZM194 674 l68 9 l82 -119 l-92 -9 l-28 50 l-36 -50 l-82 -7 l88 126 Z" /><glyph glyph-name="Scedilla" unicode="&#x15e;" d="M330 -136 l-37 -69 l-98 -8 l42 85 q-30 15 -30 50 q0 26 20 43 q20 17 50 17 q30 0 50.5 -17.5 q20.5 -17.5 20.5 -46.5 q0 -26 -18 -54 ZM25 36 l27 159 q133 -35 209 -35 q53 0 53 25 q0 16 -13.5 23 q-13.5 7 -49.5 15 q-95 14 -153 60.5 q-58 46.5 -58 131.5 q0 93 64 141.5 q64 48.5 169 48.5 q50 0 102 -13 q52 -13 78 -24 q26 -11 26 -10 q0 5 -48 -133 q-99 29 -140 29 q-52 0 -52 -33 q0 -17 26.5 -27.5 q26.5 -10.5 64.5 -21 q38 -10.5 76 -26.5 q38 -16 64.5 -53 q26.5 -37 26.5 -92 q0 -106 -68 -154 q-68 -48 -174 -48 q-52 0 -109.5 9.5 q-57.5 9.5 -89.5 18.5 l-31 9 Z" /><glyph glyph-name="scedilla" unicode="&#x15f;" d="M25 30 l22 131 q110 -29 173 -29 q44 0 44 21 q0 14 -11.5 19.5 q-11.5 5.5 -40.5 11.5 q-79 12 -127 50.5 q-48 38.5 -48 108.5 q0 77 53 117 q53 40 140 40 q41 0 84 -10.5 q43 -10.5 64 -19.5 l22 -9 q0 2 -10 -25.5 q-10 -27.5 -20 -55.5 l-9 -29 q-80 24 -116 24 q-43 0 -43 -27 q0 -14 22 -23 q22 -9 53 -17.5 q31 -8.5 62.5 -21.5 q31.5 -13 53.5 -44 q22 -31 22 -76 q0 -85 -51.5 -125 q-51.5 -40 -134.5 -45 q36 -4 57 -25 q21 -21 24 -40 l4 -19 q0 -37 -18 -64 q-18 -27 -43.5 -39.5 q-25.5 -12.5 -51 -19.5 q-25.5 -7 -43.5 -8 l-18 -1 l-14 89 q4 0 10 0.5 q6 0.5 22 3.5 q16 3 28.5 7 q12.5 4 22.5 12 q10 8 10 19 q0 32 -61 32 l-3 59 q-32 4 -64.5 11 q-32.5 7 -48.5 12 l-17 5 Z" /><glyph glyph-name="Scaron" unicode="&#x160;" d="M25 36 l27 159 q133 -35 209 -35 q53 0 53 25 q0 16 -13.5 23 q-13.5 7 -49.5 15 q-95 14 -153 60.5 q-58 46.5 -58 131.5 q0 93 64 141.5 q64 48.5 169 48.5 q50 0 102 -13 q52 -13 78 -24 q26 -11 26 -10 q0 5 -48 -133 q-99 29 -140 29 q-52 0 -52 -33 q0 -17 26.5 -27.5 q26.5 -10.5 64.5 -21 q38 -10.5 76 -26.5 q38 -16 64.5 -53 q26.5 -37 26.5 -92 q0 -106 -68 -154 q-68 -48 -174 -48 q-52 0 -109.5 9.5 q-57.5 9.5 -89.5 18.5 l-31 9 ZM278 651 l-68 -9 l-82 119 l92 9 l28 -50 l36 50 l82 7 l-88 -126 Z" /><glyph glyph-name="scaron" unicode="&#x161;" d="M25 30 l22 131 q110 -29 173 -29 q44 0 44 21 q0 14 -11.5 19.5 q-11.5 5.5 -40.5 11.5 q-79 12 -127 50.5 q-48 38.5 -48 108.5 q0 77 53 117 q53 40 140 40 q41 0 84 -10.5 q43 -10.5 64 -19.5 l22 -9 q0 2 -10 -25.5 q-10 -27.5 -20 -55.5 l-9 -29 q-80 24 -116 24 q-43 0 -43 -27 q0 -14 22 -23 q22 -9 53 -17.5 q31 -8.5 62.5 -21.5 q31.5 -13 53.5 -44 q22 -31 22 -76 q0 -88 -56 -127.5 q-56 -39.5 -144 -39.5 q-43 0 -90.5 7.5 q-47.5 7.5 -73.5 15.5 l-26 8 ZM249 532 l-65 -8 l-79 114 l88 9 l27 -48 l35 48 l79 7 l-85 -122 Z" /><glyph glyph-name="Tcommaaccent" unicode="&#x162;" d="M315 -151 l-37 -69 l-98 -8 l42 85 q-30 15 -30 50 q0 26 20 43 q20 17 50 17 q30 0 50.5 -17.5 q20.5 -17.5 20.5 -46.5 q0 -26 -18 -54 ZM25 588 l462 18 l0 -149 l-137 -5 l0 -453 l-180 0 l0 455 l-145 0 l0 134 Z" /><glyph glyph-name="tcommaaccent" unicode="&#x163;" d="M285 -137 l-37 -69 l-98 -8 l42 85 q-30 15 -30 50 q0 26 20 43 q20 17 50 17 q30 0 50.5 -17.5 q20.5 -17.5 20.5 -46.5 q0 -26 -18 -54 ZM69 197 l-6 175 l-53 0 l0 112 l50 5 l-6 130 l190 28 l0 -139 l119 12 l0 -148 l-123 0 l0 -106 q0 -16 0.5 -26 q0.5 -10 4 -24.5 q3.5 -14.5 9.5 -23 q6 -8.5 18 -15 q12 -6.5 30 -6.5 q25 0 46 11 l21 -149 q-48 -25 -130 -33 q-15 0 -29.5 2 q-14.5 2 -41 13 q-26.5 11 -46 30 q-19.5 19 -35.5 58.5 q-16 39.5 -18 93.5 Z" /><glyph glyph-name="Tcaron" unicode="&#x164;" d="M25 588 l462 18 l0 -149 l-137 -5 l0 -453 l-180 0 l0 455 l-145 0 l0 134 ZM287 644 l-68 -9 l-82 119 l92 9 l28 -50 l36 50 l82 7 l-88 -126 Z" /><glyph glyph-name="tcaron" unicode="&#x165;" d="M536 514 l-37 -69 l-98 -8 l42 85 q-30 15 -30 50 q0 26 20 43 q20 17 50 17 q30 0 50.5 -17.5 q20.5 -17.5 20.5 -46.5 q0 -26 -18 -54 ZM84 197 l-6 175 l-53 0 l0 112 l50 5 l-6 130 l190 28 l0 -139 l119 12 l0 -148 l-123 0 l0 -106 q0 -16 0.5 -26 q0.5 -10 4 -24.5 q3.5 -14.5 9.5 -23 q6 -8.5 18 -15 q12 -6.5 30 -6.5 q25 0 46 11 l21 -149 q-48 -25 -130 -33 q-15 0 -29.5 2 q-14.5 2 -41 13 q-26.5 11 -46 30 q-19.5 19 -35.5 58.5 q-16 39.5 -18 93.5 Z" /><glyph glyph-name="Tbar" unicode="&#x166;" d="M25 588 l462 18 l0 -149 l-137 -5 l0 -58 l125 9 l0 -139 l-125 -5 l0 -260 l-180 0 l0 250 l-134 0 l0 124 l134 9 l0 72 l-145 0 l0 134 Z" /><glyph glyph-name="tbar" unicode="&#x167;" d="M8 221 l1 98 l54 4 l0 49 l-53 0 l0 112 l50 5 l-6 130 l190 28 l0 -139 l119 12 l0 -148 l-123 0 l0 -37 l117 8 l0 -110 l-116 -4 q7 -58 61 -58 q25 0 46 11 l21 -149 q-48 -25 -130 -33 q-15 0 -29.5 2 q-14.5 2 -41 13 q-26.5 11 -46 30 q-19.5 19 -35.5 58.5 q-16 39.5 -18 93.5 l-1 26 l-60 -2 Z" /><glyph glyph-name="Utilde" unicode="&#x168;" d="M34 586 q-9 -61 -9 -232 q0 -42 1.5 -72.5 q1.5 -30.5 7 -70 q5.5 -39.5 16 -67 q10.5 -27.5 29.5 -57 q19 -29.5 45 -47 q26 -17.5 66 -29 q40 -11.5 90 -11.5 q43 0 79 10.5 q36 10.5 62 25.5 q26 15 46.5 42 q20.5 27 33.5 51 q13 24 22 62 q9 38 13.5 64.5 q4.5 26.5 7 69 q2.5 42.5 3 65.5 q0.5 23 0.5 63 l0 4 q0 38 -2.5 75 q-2.5 37 -4.5 55 l-2 18 l-168 -15 l0 -243 q0 -187 -86 -187 q-45 0 -60 39 q-15 39 -16 141 q0 53 4 119 q4 66 8 106 l5 40 l-191 -19 ZM84 696 q13 36 44 68.5 q31 32.5 68 32.5 q22 0 64.5 -21.5 q42.5 -21.5 57.5 -21.5 q14 0 28.5 14.5 q14.5 14.5 21 26 q6.5 11.5 9.5 19.5 l82 -50 q-18 -123 -114 -123 q-33 0 -66.5 17.5 q-33.5 17.5 -49.5 17.5 q-33 0 -44 -40 l-101 60 Z" /><glyph glyph-name="utilde" unicode="&#x169;" d="M309 208 l1 280 l180 12 l0 -377 l-4 -123 l-157 0 l-10 86 q-13 -28 -34 -47 q-21 -19 -44.5 -26.5 q-23.5 -7.5 -39 -10 q-15.5 -2.5 -30.5 -2.5 q-44 0 -74.5 16 q-30.5 16 -45 45 q-14.5 29 -20.5 60.5 q-6 31.5 -6 71.5 l0 293 l191 14 l0 -289 q0 -63 42 -63 q30 0 40.5 15.5 q10.5 15.5 10.5 44.5 ZM69 593 q13 36 44 68.5 q31 32.5 68 32.5 q22 0 64.5 -21.5 q42.5 -21.5 57.5 -21.5 q14 0 28.5 14.5 q14.5 14.5 21 26 q6.5 11.5 9.5 19.5 l82 -50 q-18 -123 -114 -123 q-33 0 -66.5 17.5 q-33.5 17.5 -49.5 17.5 q-33 0 -44 -40 l-101 60 Z" /><glyph glyph-name="Umacron" unicode="&#x16a;" d="M34 586 q-9 -61 -9 -232 q0 -42 1.5 -72.5 q1.5 -30.5 7 -70 q5.5 -39.5 16 -67 q10.5 -27.5 29.5 -57 q19 -29.5 45 -47 q26 -17.5 66 -29 q40 -11.5 90 -11.5 q43 0 79 10.5 q36 10.5 62 25.5 q26 15 46.5 42 q20.5 27 33.5 51 q13 24 22 62 q9 38 13.5 64.5 q4.5 26.5 7 69 q2.5 42.5 3 65.5 q0.5 23 0.5 63 l0 4 q0 38 -2.5 75 q-2.5 37 -4.5 55 l-2 18 l-168 -15 l0 -243 q0 -187 -86 -187 q-45 0 -60 39 q-15 39 -16 141 q0 53 4 119 q4 66 8 106 l5 40 l-191 -19 ZM108 640 l1 98 l348 24 l0 -110 l-349 -12 Z" /><glyph glyph-name="umacron" unicode="&#x16b;" d="M309 208 l1 280 l180 12 l0 -377 l-4 -123 l-157 0 l-10 86 q-13 -28 -34 -47 q-21 -19 -44.5 -26.5 q-23.5 -7.5 -39 -10 q-15.5 -2.5 -30.5 -2.5 q-44 0 -74.5 16 q-30.5 16 -45 45 q-14.5 29 -20.5 60.5 q-6 31.5 -6 71.5 l0 293 l191 14 l0 -289 q0 -63 42 -63 q30 0 40.5 15.5 q10.5 15.5 10.5 44.5 ZM82 533 l1 98 l348 24 l0 -110 l-349 -12 Z" /><glyph glyph-name="Ubreve" unicode="&#x16c;" d="M34 586 q-9 -61 -9 -232 q0 -42 1.5 -72.5 q1.5 -30.5 7 -70 q5.5 -39.5 16 -67 q10.5 -27.5 29.5 -57 q19 -29.5 45 -47 q26 -17.5 66 -29 q40 -11.5 90 -11.5 q43 0 79 10.5 q36 10.5 62 25.5 q26 15 46.5 42 q20.5 27 33.5 51 q13 24 22 62 q9 38 13.5 64.5 q4.5 26.5 7 69 q2.5 42.5 3 65.5 q0.5 23 0.5 63 l0 4 q0 38 -2.5 75 q-2.5 37 -4.5 55 l-2 18 l-168 -15 l0 -243 q0 -187 -86 -187 q-45 0 -60 39 q-15 39 -16 141 q0 53 4 119 q4 66 8 106 l5 40 l-191 -19 ZM331 711 l0 21 l69 7 l0 -22 q0 -34 -27.5 -56 q-27.5 -22 -65.5 -22 q-39 0 -66 22 q-27 22 -29 56 l0 15 l71 7 l0 -22 q0 -10 7 -16.5 q7 -6.5 18 -6.5 q20 0 23 17 Z" /><glyph glyph-name="ubreve" unicode="&#x16d;" d="M309 208 l1 280 l180 12 l0 -377 l-4 -123 l-157 0 l-10 86 q-13 -28 -34 -47 q-21 -19 -44.5 -26.5 q-23.5 -7.5 -39 -10 q-15.5 -2.5 -30.5 -2.5 q-44 0 -74.5 16 q-30.5 16 -45 45 q-14.5 29 -20.5 60.5 q-6 31.5 -6 71.5 l0 293 l191 14 l0 -289 q0 -63 42 -63 q30 0 40.5 15.5 q10.5 15.5 10.5 44.5 ZM281 640 l0 31 l101 10 l0 -32 q0 -49 -40 -81.5 q-40 -32.5 -96 -32.5 q-57 0 -96.5 32 q-39.5 32 -42.5 82 l0 22 l103 10 l0 -32 q0 -14 11 -24 q11 -10 26 -10 q12 0 22 7 q10 7 12 18 Z" /><glyph glyph-name="Uring" unicode="&#x16e;" d="M219.5 657.5 q-23.5 23.5 -23.5 56.5 q0 33 23.5 56.5 q23.5 23.5 56.5 23.5 q33 0 56.5 -23.5 q23.5 -23.5 23.5 -56.5 q0 -33 -23.5 -56.5 q-23.5 -23.5 -56.5 -23.5 q-33 0 -56.5 23.5 ZM260.5 729.5 q-6.5 -6.5 -6.5 -15.5 q0 -9 6.5 -15.5 q6.5 -6.5 15.5 -6.5 q9 0 15.5 6.5 q6.5 6.5 6.5 15.5 q0 9 -6.5 15.5 q-6.5 6.5 -15.5 6.5 q-9 0 -15.5 -6.5 ZM34 586 q-9 -61 -9 -232 q0 -42 1.5 -72.5 q1.5 -30.5 7 -70 q5.5 -39.5 16 -67 q10.5 -27.5 29.5 -57 q19 -29.5 45 -47 q26 -17.5 66 -29 q40 -11.5 90 -11.5 q43 0 79 10.5 q36 10.5 62 25.5 q26 15 46.5 42 q20.5 27 33.5 51 q13 24 22 62 q9 38 13.5 64.5 q4.5 26.5 7 69 q2.5 42.5 3 65.5 q0.5 23 0.5 63 l0 4 q0 38 -2.5 75 q-2.5 37 -4.5 55 l-2 18 l-168 -15 l0 -243 q0 -187 -86 -187 q-45 0 -60 39 q-15 39 -16 141 q0 53 4 119 q4 66 8 106 l5 40 l-191 -19 Z" /><glyph glyph-name="uring" unicode="&#x16f;" d="M309 208 l1 280 l180 12 l0 -377 l-4 -123 l-157 0 l-10 86 q-13 -28 -34 -47 q-21 -19 -44.5 -26.5 q-23.5 -7.5 -39 -10 q-15.5 -2.5 -30.5 -2.5 q-44 0 -74.5 16 q-30.5 16 -45 45 q-14.5 29 -20.5 60.5 q-6 31.5 -6 71.5 l0 293 l191 14 l0 -289 q0 -63 42 -63 q30 0 40.5 15.5 q10.5 15.5 10.5 44.5 ZM200.5 556.5 q-23.5 23.5 -23.5 56.5 q0 33 23.5 56.5 q23.5 23.5 56.5 23.5 q33 0 56.5 -23.5 q23.5 -23.5 23.5 -56.5 q0 -33 -23.5 -56.5 q-23.5 -23.5 -56.5 -23.5 q-33 0 -56.5 23.5 ZM241.5 628.5 q-6.5 -6.5 -6.5 -15.5 q0 -9 6.5 -15.5 q6.5 -6.5 15.5 -6.5 q9 0 15.5 6.5 q6.5 6.5 6.5 15.5 q0 9 -6.5 15.5 q-6.5 6.5 -15.5 6.5 q-9 0 -15.5 -6.5 Z" /><glyph glyph-name="Uhungarumlaut" unicode="&#x170;" d="M184 769 l133 8 l-87 -126 l-92 -7 l46 125 ZM364 769 l133 8 l-87 -126 l-105 -2 l59 120 ZM34 586 q-9 -61 -9 -232 q0 -42 1.5 -72.5 q1.5 -30.5 7 -70 q5.5 -39.5 16 -67 q10.5 -27.5 29.5 -57 q19 -29.5 45 -47 q26 -17.5 66 -29 q40 -11.5 90 -11.5 q43 0 79 10.5 q36 10.5 62 25.5 q26 15 46.5 42 q20.5 27 33.5 51 q13 24 22 62 q9 38 13.5 64.5 q4.5 26.5 7 69 q2.5 42.5 3 65.5 q0.5 23 0.5 63 l0 4 q0 38 -2.5 75 q-2.5 37 -4.5 55 l-2 18 l-168 -15 l0 -243 q0 -187 -86 -187 q-45 0 -60 39 q-15 39 -16 141 q0 53 4 119 q4 66 8 106 l5 40 l-191 -19 Z" /><glyph glyph-name="uhungarumlaut" unicode="&#x171;" d="M309 208 l1 280 l180 12 l0 -377 l-4 -123 l-157 0 l-10 86 q-13 -28 -34 -47 q-21 -19 -44.5 -26.5 q-23.5 -7.5 -39 -10 q-15.5 -2.5 -30.5 -2.5 q-44 0 -74.5 16 q-30.5 16 -45 45 q-14.5 29 -20.5 60.5 q-6 31.5 -6 71.5 l0 293 l191 14 l0 -289 q0 -63 42 -63 q30 0 40.5 15.5 q10.5 15.5 10.5 44.5 ZM163 657 l133 8 l-87 -126 l-92 -7 l46 125 ZM336 657 l133 8 l-87 -126 l-92 -7 l46 125 Z" /><glyph glyph-name="Uogonek" unicode="&#x172;" d="M34 586 l191 19 q-17 -146 -17 -265 q1 -102 16 -141 q15 -39 60 -39 q86 0 86 187 l0 243 l168 15 q9 -63 9 -148 l0 -4 q0 -47 -0.5 -74.5 q-0.5 -27.5 -4.5 -76 q-4 -48.5 -11 -80 q-7 -31.5 -21.5 -71.5 q-14.5 -40 -35.5 -65.5 q-21 -25.5 -53 -47.5 q-32 -22 -73 -31 q-3 -3 -13.5 -14.5 q-10.5 -11.5 -14 -16 q-3.5 -4.5 -10 -14 q-6.5 -9.5 -8.5 -17.5 q-2 -8 -2 -17 q0 -17 14 -17 q10 0 26 9.5 q16 9.5 27 19 q11 9.5 10 12.5 l14 -67 q-11 -26 -44.5 -44 q-33.5 -18 -68.5 -18 q-32 0 -53 17 q-21 17 -21 52 q0 65 50 109 q-62 4 -106.5 27.5 q-44.5 23.5 -67.5 55 q-23 31.5 -36 82 q-13 50.5 -16 90.5 q-3 40 -3 98 q0 76 2.5 134 q2.5 58 4.5 78 l2 20 Z" /><glyph glyph-name="uogonek" unicode="&#x173;" d="M307 -115 q0 33 21 66 q21 33 58 49 l-57 0 l-10 86 q-13 -28 -34 -47 q-21 -19 -44.5 -26.5 q-23.5 -7.5 -39 -10 q-15.5 -2.5 -30.5 -2.5 q-44 0 -74.5 16 q-30.5 16 -45 45 q-14.5 29 -20.5 60.5 q-6 31.5 -6 71.5 l0 293 l191 14 l0 -289 q0 -63 42 -63 q30 0 40.5 15.5 q10.5 15.5 10.5 44.5 l1 280 l180 12 l0 -377 l-4 -123 l-26 0 q-6 -7 -25 -25.5 q-19 -18.5 -26.5 -30.5 q-7.5 -12 -7.5 -27 q0 -15 14 -15 q10 0 25.5 8 q15.5 8 26.5 17 q11 9 10 11 l13 -60 q-10 -23 -42.5 -39 q-32.5 -16 -67.5 -16 q-32 0 -52.5 15.5 q-20.5 15.5 -20.5 46.5 Z" /><glyph glyph-name="Wcircumflex" unicode="&#x174;" d="M715 590 l176 15 l-175 -605 l-160 0 q-53 138 -100 283 l-81 -283 l-160 0 q-171 474 -190 594 l183 12 l94 -365 l73 349 l175 15 l71 -307 l94 292 ZM429 761 l68 9 l82 -119 l-92 -9 l-28 50 l-36 -50 l-82 -7 l88 126 Z" /><glyph glyph-name="wcircumflex" unicode="&#x175;" d="M511 485 l188 15 l-146 -490 l-140 -8 q-36 83 -72 199 q-52 -175 -57 -191 l-143 -10 q-138 370 -154 479 l166 10 l62 -317 q12 59 27.5 171 q15.5 112 24.5 146 l157 11 l35 -330 q15 78 26.5 147 q11.5 69 17.5 113.5 q6 44.5 8 54.5 ZM319 674 l68 9 l82 -119 l-92 -9 l-28 50 l-36 -50 l-82 -7 l88 126 Z" /><glyph glyph-name="Ycircumflex" unicode="&#x176;" d="M25 587 l206 -335 l0 -252 l196 0 l-17 250 l208 356 l-197 -15 l-98 -169 l-93 183 l-205 -18 ZM301 761 l68 9 l82 -119 l-92 -9 l-28 50 l-36 -50 l-82 -7 l88 126 Z" /><glyph glyph-name="ycircumflex" unicode="&#x177;" d="M468 498 l1 -391 q0 -35 -4 -68.5 q-4 -33.5 -19.5 -80 q-15.5 -46.5 -41.5 -80.5 q-26 -34 -75.5 -59 q-49.5 -25 -116.5 -26 l-4 0 q-122 0 -201 39 l0 185 q86 -49 191 -49 q34 0 59 11 q25 11 37.5 25.5 q12.5 14.5 20.5 34 q8 19.5 9.5 31.5 q1.5 12 1.5 23 q-1 1 -3.5 1.5 q-2.5 0.5 -4.5 2.5 q-4 -9 -10.5 -18.5 q-6.5 -9.5 -20 -22.5 q-13.5 -13 -36.5 -21 q-23 -8 -52 -8 q-76 0 -124.5 59 q-48.5 59 -48.5 171 l0 226 l178 15 q0 -188 -2 -214 l0 -7 q0 -39 10.5 -74 q10.5 -35 37.5 -35 q29 0 40 42.5 q11 42.5 11 84.5 l0 188 l167 15 ZM222 674 l68 9 l82 -119 l-92 -9 l-28 50 l-36 -50 l-82 -7 l88 126 Z" /><glyph glyph-name="Ydieresis" unicode="&#x178;" d="M25 587 l206 -335 l0 -252 l196 0 l-17 250 l208 356 l-197 -15 l-98 -169 l-93 183 l-205 -18 ZM185 661 q-19 19 -19 45 q0 26 19 45 q19 19 45 19 q26 0 45 -19 q19 -19 19 -45 q0 -26 -19 -45 q-19 -19 -45 -19 q-26 0 -45 19 ZM380 658 q-16 16 -16 38 q0 22 16 38 q16 16 38 16 q22 0 38 -16 q16 -16 16 -38 q0 -22 -16 -38 q-16 -16 -38 -16 q-22 0 -38 16 Z" /><glyph glyph-name="Zacute" unicode="&#x179;" d="M45 591 l0 -151 l197 6 l-217 -323 l0 -122 l423 0 l14 172 l-222 -29 l222 308 l0 153 l-417 -14 ZM228 769 l133 8 l-87 -126 l-92 -7 l46 125 Z" /><glyph glyph-name="zacute" unicode="&#x17a;" d="M42 488 l0 -125 l163 5 l-180 -266 l0 -101 l376 0 l12 142 l-210 -24 l210 254 l0 127 l-371 -12 ZM162 657 l133 8 l-87 -126 l-92 -7 l46 125 Z" /><glyph glyph-name="Zdotaccent" unicode="&#x17b;" d="M45 591 l0 -151 l197 6 l-217 -323 l0 -122 l423 0 l14 172 l-222 -29 l222 308 l0 153 l-417 -14 ZM214.5 650.5 q-16.5 16.5 -16.5 39.5 q0 23 16.5 39.5 q16.5 16.5 39.5 16.5 q23 0 39.5 -16.5 q16.5 -16.5 16.5 -39.5 q0 -23 -16.5 -39.5 q-16.5 -16.5 -39.5 -16.5 q-23 0 -39.5 16.5 Z" /><glyph glyph-name="zdotaccent" unicode="&#x17c;" d="M42 488 l0 -125 l163 5 l-180 -266 l0 -101 l376 0 l12 142 l-210 -24 l210 254 l0 127 l-371 -12 ZM165.5 549.5 q-16.5 16.5 -16.5 39.5 q0 23 16.5 39.5 q16.5 16.5 39.5 16.5 q23 0 39.5 -16.5 q16.5 -16.5 16.5 -39.5 q0 -23 -16.5 -39.5 q-16.5 -16.5 -39.5 -16.5 q-23 0 -39.5 16.5 Z" /><glyph glyph-name="Zcaron" unicode="&#x17d;" d="M45 591 l0 -151 l197 6 l-217 -323 l0 -122 l423 0 l14 172 l-222 -29 l222 308 l0 153 l-417 -14 ZM292 644 l-68 -9 l-82 119 l92 9 l28 -50 l36 50 l82 7 l-88 -126 Z" /><glyph glyph-name="zcaron" unicode="&#x17e;" d="M42 488 l0 -125 l163 5 l-180 -266 l0 -101 l376 0 l12 142 l-210 -24 l210 254 l0 127 l-371 -12 ZM235 532 l-65 -8 l-79 114 l88 9 l27 -48 l35 48 l79 7 l-85 -122 Z" /><glyph glyph-name="AEacute" unicode="&#x1fc;" d="M297 0 l-2 129 l-87 0 l-39 -129 l-174 0 q4 12 51.5 160.5 q47.5 148.5 92 275.5 q44.5 127 61.5 148 l463 21 l0 -153 l-201 0 l0 -88 l189 7 l6 -143 l-186 0 l0 -95 l210 17 l0 -150 l-384 0 ZM230 230 l61 0 l0 164 l-2 6 l-59 -170 ZM304 762 l133 8 l-87 -126 l-92 -7 l46 125 Z" /><glyph glyph-name="aeacute" unicode="&#x1fd;" d="M419 204 q20 -73 106 -73 q27 0 57 7 q30 7 47 14 l17 7 l43 -119 q-56 -40 -184 -40 q-62 0 -108 13 l0 -13 l-148 0 l-8 50 q-15 -25 -47 -37.5 q-32 -12.5 -61 -12.5 q-12 0 -26 2 q-14 2 -34 11 q-20 9 -35.5 22.5 q-15.5 13.5 -26.5 40 q-11 26.5 -11 61.5 q0 77 39.5 108 q39.5 31 99.5 31 q31 0 102 -13 q0 1 -0.5 5.5 q-0.5 4.5 -0.5 14.5 q0 10 0 24 q0 44 -44 44 q-25 0 -58.5 -9 q-33.5 -9 -54.5 -18 l-21 -9 l-58 122 q32 24 91.5 43.5 q59.5 19.5 124.5 19.5 q82 0 128 -38 q55 38 123 38 q55 0 97 -15 q42 -15 65 -36.5 q23 -21.5 37.5 -52 q14.5 -30.5 19 -56.5 q4.5 -26 4.5 -55 q0 -17 -2 -33.5 q-2 -16.5 -4 -25.5 l-1 -8 q-8 0 -21 -0.5 q-13 -0.5 -48 -2 q-35 -1.5 -66 -3 q-31 -1.5 -63 -3.5 q-32 -2 -51 -3 q-19 -1 -19 -2 ZM484 396 q-70 -1 -70 -96 l137 10 q0 18 -3.5 34.5 q-3.5 16.5 -19.5 34 q-16 17.5 -44 17.5 ZM241 125 l0 51 q-21 19 -60 19 q-27 0 -40.5 -14 q-13.5 -14 -13.5 -35 q0 -20 12.5 -35 q12.5 -15 34.5 -15 q16 0 33 7 q17 7 25 15 l9 7 ZM307 657 l133 8 l-87 -126 l-92 -7 l46 125 Z" /><glyph glyph-name="Oslashacute" unicode="&#x1fe;" d="M463 643 l90 0 l-67 -103 q94 -80 94 -236 q0 -79 -24.5 -138.5 q-24.5 -59.5 -57.5 -90 q-33 -30.5 -76 -49 q-43 -18.5 -71 -22.5 q-28 -4 -53 -4 q-53 0 -102 19 l-27 -49 l-79 0 l45 83 q-110 86 -110 251 q0 78 24 137 q24 59 57 89 q33 30 76 48.5 q43 18.5 71 22.5 q28 4 53 4 q55 0 114 -24 l43 62 ZM189 327 q0 -93 16 -143 l159 293 q-26 24 -64 24 q-35 0 -59.5 -18.5 q-24.5 -18.5 -34.5 -49 q-10 -30.5 -13.5 -55.5 q-3.5 -25 -3.5 -51 ZM413 320 q0 38 -8 75 l-154 -278 q18 -12 46 -12 q116 0 116 215 ZM300 764 l133 8 l-87 -126 l-92 -7 l46 125 Z" /><glyph glyph-name="oslashacute" unicode="&#x1ff;" d="M367 524 l61 0 l-37 -67 q93 -65 93 -206 q0 -55 -13.5 -98.5 q-13.5 -43.5 -36.5 -69.5 q-23 -26 -48 -44 q-25 -18 -53.5 -25.5 q-28.5 -7.5 -47 -10.5 q-18.5 -3 -34.5 -3 q-44 0 -80 13 l-39 -52 l-66 0 l54 80 q-95 71 -95 210 q0 65 20 113.5 q20 48.5 47.5 73.5 q27.5 25 63.5 40 q36 15 59 18.5 q23 3.5 43 3.5 q40 0 85 -17 l24 41 ZM325 255 q0 32 -7 55 l-90 -181 q10 -6 26 -6 q71 0 71 132 ZM187 259 q0 -43 6 -72 l88 174 q-11 6 -25 6 q-28 0 -45 -21.5 q-17 -21.5 -20.5 -42.5 q-3.5 -21 -3.5 -44 ZM261 676 l133 8 l-87 -126 l-92 -7 l46 125 Z" /><glyph glyph-name="Scommaaccent" unicode="&#x218;" d="M318 -137 l-37 -69 l-98 -8 l42 85 q-30 15 -30 50 q0 26 20 43 q20 17 50 17 q30 0 50.5 -17.5 q20.5 -17.5 20.5 -46.5 q0 -26 -18 -54 ZM25 36 l27 159 q133 -35 209 -35 q53 0 53 25 q0 16 -13.5 23 q-13.5 7 -49.5 15 q-95 14 -153 60.5 q-58 46.5 -58 131.5 q0 93 64 141.5 q64 48.5 169 48.5 q50 0 102 -13 q52 -13 78 -24 q26 -11 26 -10 q0 5 -48 -133 q-99 29 -140 29 q-52 0 -52 -33 q0 -17 26.5 -27.5 q26.5 -10.5 64.5 -21 q38 -10.5 76 -26.5 q38 -16 64.5 -53 q26.5 -37 26.5 -92 q0 -106 -68 -154 q-68 -48 -174 -48 q-52 0 -109.5 9.5 q-57.5 9.5 -89.5 18.5 l-31 9 Z" /><glyph glyph-name="scommaaccent" unicode="&#x219;" d="M269 -137 l-37 -69 l-98 -8 l42 85 q-30 15 -30 50 q0 26 20 43 q20 17 50 17 q30 0 50.5 -17.5 q20.5 -17.5 20.5 -46.5 q0 -26 -18 -54 ZM25 30 l22 131 q110 -29 173 -29 q44 0 44 21 q0 14 -11.5 19.5 q-11.5 5.5 -40.5 11.5 q-79 12 -127 50.5 q-48 38.5 -48 108.5 q0 77 53 117 q53 40 140 40 q41 0 84 -10.5 q43 -10.5 64 -19.5 l22 -9 q0 2 -10 -25.5 q-10 -27.5 -20 -55.5 l-9 -29 q-80 24 -116 24 q-43 0 -43 -27 q0 -14 22 -23 q22 -9 53 -17.5 q31 -8.5 62.5 -21.5 q31.5 -13 53.5 -44 q22 -31 22 -76 q0 -88 -56 -127.5 q-56 -39.5 -144 -39.5 q-43 0 -90.5 7.5 q-47.5 7.5 -73.5 15.5 l-26 8 Z" /><glyph glyph-name="uni021A" unicode="&#x21a;" d="M315 -151 l-37 -69 l-98 -8 l42 85 q-30 15 -30 50 q0 26 20 43 q20 17 50 17 q30 0 50.5 -17.5 q20.5 -17.5 20.5 -46.5 q0 -26 -18 -54 ZM25 588 l462 18 l0 -149 l-137 -5 l0 -453 l-180 0 l0 455 l-145 0 l0 134 Z" /><glyph glyph-name="uni021B" unicode="&#x21b;" d="M285 -137 l-37 -69 l-98 -8 l42 85 q-30 15 -30 50 q0 26 20 43 q20 17 50 17 q30 0 50.5 -17.5 q20.5 -17.5 20.5 -46.5 q0 -26 -18 -54 ZM69 197 l-6 175 l-53 0 l0 112 l50 5 l-6 130 l190 28 l0 -139 l119 12 l0 -148 l-123 0 l0 -106 q0 -16 0.5 -26 q0.5 -10 4 -24.5 q3.5 -14.5 9.5 -23 q6 -8.5 18 -15 q12 -6.5 30 -6.5 q25 0 46 11 l21 -149 q-48 -25 -130 -33 q-15 0 -29.5 2 q-14.5 2 -41 13 q-26.5 11 -46 30 q-19.5 19 -35.5 58.5 q-16 39.5 -18 93.5 Z" /><glyph glyph-name="circumflex" unicode="&#x2c6;" d="M110 646 l65 8 l79 -114 l-88 -9 l-27 48 l-35 -48 l-79 -7 l85 122 Z" /><glyph glyph-name="caron" unicode="&#x2c7;" d="M169 532 l-65 -8 l-79 114 l88 9 l27 -48 l35 48 l79 7 l-85 -122 Z" /><glyph glyph-name="breve" unicode="&#x2d8;" d="M170 619 l0 26 l85 9 l0 -27 q0 -41 -33.5 -68 q-33.5 -27 -80.5 -27 q-48 0 -81 26.5 q-33 26.5 -35 68.5 l0 18 l86 9 l0 -27 q0 -12 9 -20 q9 -8 22 -8 q10 0 18.5 5.5 q8.5 5.5 9.5 14.5 Z" /><glyph glyph-name="dotaccent" unicode="&#x2d9;" d="M41.5 549.5 q-16.5 16.5 -16.5 39.5 q0 23 16.5 39.5 q16.5 16.5 39.5 16.5 q23 0 39.5 -16.5 q16.5 -16.5 16.5 -39.5 q0 -23 -16.5 -39.5 q-16.5 -16.5 -39.5 -16.5 q-23 0 -39.5 16.5 Z" /><glyph glyph-name="ring" unicode="&#x2da;" d="M48.5 556.5 q-23.5 23.5 -23.5 56.5 q0 33 23.5 56.5 q23.5 23.5 56.5 23.5 q33 0 56.5 -23.5 q23.5 -23.5 23.5 -56.5 q0 -33 -23.5 -56.5 q-23.5 -23.5 -56.5 -23.5 q-33 0 -56.5 23.5 ZM89.5 628.5 q-6.5 -6.5 -6.5 -15.5 q0 -9 6.5 -15.5 q6.5 -6.5 15.5 -6.5 q9 0 15.5 6.5 q6.5 6.5 6.5 15.5 q0 9 -6.5 15.5 q-6.5 6.5 -15.5 6.5 q-9 0 -15.5 -6.5 Z" /><glyph glyph-name="ogonek" unicode="&#x2db;" d="M26 -115 q0 33 21 66 q21 33 58 49 l74 0 q-6 -7 -25 -25.5 q-19 -18.5 -26.5 -30.5 q-7.5 -12 -7.5 -27 q0 -15 14 -15 q10 0 25.5 8 q15.5 8 26.5 17 q11 9 10 11 l13 -60 q-10 -23 -42.5 -39 q-32.5 -16 -67.5 -16 q-32 0 -52.5 15.5 q-20.5 15.5 -20.5 46.5 Z" /><glyph glyph-name="tilde" unicode="&#x2dc;" d="M25 593 q13 36 44 68.5 q31 32.5 68 32.5 q22 0 64.5 -21.5 q42.5 -21.5 57.5 -21.5 q14 0 28.5 14.5 q14.5 14.5 21 26 q6.5 11.5 9.5 19.5 l82 -50 q-18 -123 -114 -123 q-33 0 -66.5 17.5 q-33.5 17.5 -49.5 17.5 q-33 0 -44 -40 l-101 60 Z" /><glyph glyph-name="hungarumlaut" unicode="&#x2dd;" d="M71 657 l133 8 l-87 -126 l-92 -7 l46 125 ZM244 657 l133 8 l-87 -126 l-92 -7 l46 125 Z" /><glyph glyph-name="afii10023" unicode="&#x401;" d="M74 661 q-19 19 -19 45 q0 26 19 45 q19 19 45 19 q26 0 45 -19 q19 -19 19 -45 q0 -26 -19 -45 q-19 -19 -45 -19 q-26 0 -45 19 ZM268.5 658 q-15.5 16 -15.5 38 q0 22 15.5 38 q15.5 16 38.5 16 q23 0 38.5 -16 q15.5 -16 15.5 -38 q0 -22 -15.5 -38 q-15.5 -16 -38.5 -16 q-23 0 -38.5 16 ZM25 580 l9 -580 l384 0 l0 150 l-210 -17 l0 95 l186 0 l-6 143 l-189 -7 l0 88 l201 4 l0 149 l-375 -25 Z" /><glyph glyph-name="afii10051" unicode="&#x402;" d="M64 455 l-145 0 l0 132 l459 18 l0 -150 l-149 0 l0 -77 q4 4 12 11 q8 7 35.5 18 q27.5 11 59.5 11 q31 0 54.5 -5.5 q23.5 -5.5 46.5 -21 q23 -15.5 35.5 -48.5 q12.5 -33 12.5 -82 l0 -41 q0 -83 -17 -126 q-22 -95 -146 -95 q-14 0 -27.5 1.5 q-13.5 1.5 -19.5 3.5 l-6 1 l0 135 l7 0 q44 11 44 92 q-2 30 -14 44.5 q-12 14.5 -43 14.5 q-19 0 -27.5 -21 q-8.5 -21 -8.5 -76 q0 -49 10 -191 l-12 -2 l-161 0 l0 454 Z" /><glyph glyph-name="afii10052" unicode="&#x403;" d="M25 581 l323 25 l0 -149 l-137 -5 l0 -453 l-186 0 l0 582 ZM118 762 l133 8 l-87 -126 l-92 -7 l46 125 Z" /><glyph glyph-name="afii10053" unicode="&#x404;" d="M489 582 l-51 -156 q-44 14 -95 14 q-114 0 -143 -81 l155 0 l-11 -121 l-143 0 q30 -76 141 -76 q26 0 54 4 q28 4 44 8 l15 5 l55 -142 q-95 -32 -202 -32 q-45 0 -83.5 7 q-38.5 7 -78.5 27 q-40 20 -68 51.5 q-28 31.5 -46 85 q-18 53.5 -18 123.5 q0 73 19 129 q19 56 49 89 q30 33 72 53.5 q42 20.5 81.5 27.5 q39.5 7 84.5 7 q41 0 83 -5.5 q42 -5.5 64 -11.5 l22 -6 Z" /><glyph glyph-name="afii10054" unicode="&#x405;" d="M25 36 l27 159 q133 -35 209 -35 q53 0 53 25 q0 16 -13.5 23 q-13.5 7 -49.5 15 q-95 14 -153 60.5 q-58 46.5 -58 131.5 q0 93 64 141.5 q64 48.5 169 48.5 q50 0 102 -13 q52 -13 78 -24 q26 -11 26 -10 q0 5 -48 -133 q-99 29 -140 29 q-52 0 -52 -33 q0 -17 26.5 -27.5 q26.5 -10.5 64.5 -21 q38 -10.5 76 -26.5 q38 -16 64.5 -53 q26.5 -37 26.5 -92 q0 -106 -68 -154 q-68 -48 -174 -48 q-52 0 -109.5 9.5 q-57.5 9.5 -89.5 18.5 l-31 9 Z" /><glyph glyph-name="afii10055" unicode="&#x406;" d="M25 590 l181 14 l0 -604 l-181 0 l0 590 Z" /><glyph glyph-name="afii10056" unicode="&#x407;" d="M91 590 l181 14 l0 -604 l-181 0 l0 590 ZM44 661 q-19 19 -19 45 q0 26 19 45 q19 19 45 19 q26 0 45 -19 q19 -19 19 -45 q0 -26 -19 -45 q-19 -19 -45 -19 q-26 0 -45 19 ZM238.5 658 q-15.5 16 -15.5 38 q0 22 15.5 38 q15.5 16 38.5 16 q23 0 38.5 -16 q15.5 -16 15.5 -38 q0 -22 -15.5 -38 q-15.5 -16 -38.5 -16 q-23 0 -38.5 16 Z" /><glyph glyph-name="afii10057" unicode="&#x408;" d="M302 605 q-9 -307 -9 -439 q0 -54 -17 -88.5 q-17 -34.5 -51.5 -50.5 q-34.5 -16 -70.5 -21.5 q-36 -5.5 -90 -5.5 q-36 0 -67 3.5 q-31 3.5 -45 7.5 l-13 4 l18 129 q42 -19 88 -21 q37 0 37 61 l-1 18 l0 385 l221 18 Z" /><glyph glyph-name="afii10058" unicode="&#x409;" d="M604 120 q15 -3 34 -3 q42 0 73.5 26.5 q31.5 26.5 31.5 96.5 q0 112 -70 112 q-34 0 -69 -21 l0 -211 ZM717 497 q52 0 90 -22 q38 -22 56.5 -50.5 q18.5 -28.5 29.5 -66.5 q11 -38 13 -59 q2 -21 2 -39 l0 -10 q0 -63 -18 -110 q-18 -47 -44.5 -73 q-26.5 -26 -62.5 -42 q-36 -16 -65.5 -21 q-29.5 -5 -60.5 -5 q-10 0 -32 0.5 q-22 0.5 -70.5 0.5 q-48.5 0 -123.5 0 l0 430 l-77 -5 q2 -200 2 -259 q0 -54 -13.5 -88.5 q-13.5 -34.5 -43.5 -51 q-30 -16.5 -63 -21.5 q-33 -5 -86 -5 q-36 0 -67.5 3.5 q-31.5 3.5 -44.5 7.5 l-13 4 l18 129 q42 -19 88 -21 q37 0 37 61 l0 395 l460 27 l-7 -142 q13 15 37 23 q24 8 42 9 l17 1 Z" /><glyph glyph-name="afii10059" unicode="&#x40a;" d="M648 497 q52 0 90 -22 q38 -22 56.5 -50.5 q18.5 -28.5 29.5 -66.5 q11 -38 13 -59 q2 -21 2 -39 l0 -10 q0 -63 -18 -110 q-18 -47 -44.5 -73 q-26.5 -26 -62.5 -42 q-36 -16 -65.5 -21 q-29.5 -5 -60.5 -5 l-61 1 q-61 0 -159 0 l0 211 l-169 0 l0 -211 l-179 0 l0 578 l177 18 l0 -220 q63 0 163 6 l4 203 l193 24 l-5 -145 q13 15 37 23 q24 8 41 9 l18 1 ZM548 130 q16 -3 36 -3 q45 0 78 28 q33 28 33 102 q0 119 -74 119 q-36 0 -73 -23 l0 -223 Z" /><glyph glyph-name="afii10060" unicode="&#x40b;" d="M330 455 l1 -76 q4 4 12 11 q8 7 36 18 q28 11 60 11 q31 0 54.5 -5.5 q23.5 -5.5 47 -21.5 q23.5 -16 36 -49 q12.5 -33 12.5 -83 l15 -260 l-190 0 q10 76 10 192 q0 99 -58 99 q-20 0 -28 -21 q-8 -21 -8 -78 q0 -37 9 -192 l-11 -1 l-163 0 l0 455 l-145 0 l0 134 l462 18 l0 -149 l-152 -2 Z" /><glyph glyph-name="afii10061" unicode="&#x40c;" d="M370 230 q17 -18 56 -75.5 q39 -57.5 70 -106.5 l30 -48 l-203 0 l-103 186 l-8 -186 l-183 0 l-4 589 l212 16 l-13 -316 q12 28 42.5 100.5 q30.5 72.5 54 128 q23.5 55.5 27.5 67.5 l207 10 q-12 -53 -58.5 -144 q-46.5 -91 -86.5 -156 l-40 -65 ZM296 762 l133 8 l-87 -126 l-92 -7 l46 125 Z" /><glyph glyph-name="afii10062" unicode="&#x40e;" d="M500 601 l1 -345 q0 -31 -4 -60.5 q-4 -29.5 -20.5 -71 q-16.5 -41.5 -43.5 -71.5 q-27 -30 -79 -52 q-52 -22 -121 -23 l-4 0 q-126 0 -209 34 l0 164 q86 -43 199 -43 q43 0 72.5 13.5 q29.5 13.5 41 34 q11.5 20.5 15.5 35 q4 14.5 4 27.5 q-1 1 -3.5 1.5 q-2.5 0.5 -4.5 2.5 q-5 -11 -16 -23 q-11 -12 -40 -25.5 q-29 -13.5 -68 -13.5 q-79 0 -129.5 52 q-50.5 52 -50.5 151 l0 200 l185 13 q0 -167 -2 -189 l0 -7 q0 -14 2 -28 q2 -14 6.5 -30.5 q4.5 -16.5 15.5 -27 q11 -10.5 26 -10.5 q30 0 41.5 37.5 q11.5 37.5 11.5 75.5 l0 166 l174 13 ZM304 677 l0 21 l69 7 l0 -22 q0 -34 -27.5 -56 q-27.5 -22 -65.5 -22 q-39 0 -66 22 q-27 22 -29 56 l0 15 l71 7 l0 -22 q0 -10 7 -16.5 q7 -6.5 18 -6.5 q20 0 23 17 Z" /><glyph glyph-name="afii10145" unicode="&#x40f;" d="M471 605 l0 -605 l-151 0 l-26 -96 l-139 -4 q20 66 32 100 l-156 0 l-11 596 l183 9 l0 -475 l98 4 l0 462 l170 9 Z" /><glyph glyph-name="afii10017" unicode="&#x410;" d="M373 605 l208 -605 l-170 0 l-44 129 l-162 0 l-39 -129 l-174 0 q4 11 51.5 158.5 q47.5 147.5 92 273 q44.5 125.5 61.5 148.5 l176 25 ZM227 230 l112 0 l-53 170 l-59 -170 Z" /><glyph glyph-name="afii10018" unicode="&#x411;" d="M170 337 q57 15 102 15 q50 0 87.5 -17.5 q37.5 -17.5 55 -42 q17.5 -24.5 28 -49 q10.5 -24.5 12.5 -41.5 l2 -18 q0 -40 -12 -72 q-12 -32 -33.5 -51 q-21.5 -19 -44.5 -32 q-23 -13 -50.5 -19 q-27.5 -6 -46.5 -8 q-19 -2 -38 -2 q-3 0 -8.5 0 q-5.5 0 -17.5 0 q-12 0 -32 0.5 q-20 0.5 -60.5 0.5 q-40.5 0 -93.5 0 l0 593 l396 32 l9 -151 l-256 -12 q0 -124 1 -126 ZM300 171 l0 5 q0 7 -2.5 14.5 q-2.5 7.5 -9 19.5 q-6.5 12 -24 19.5 q-17.5 7.5 -43.5 7.5 q-16 0 -46 -5 l0 -121 q20 -5 45 -5 q80 0 80 65 Z" /><glyph glyph-name="afii10019" unicode="&#x412;" d="M386 317 q36 -9 62 -36.5 q26 -27.5 26 -78.5 q0 -53 -17.5 -91 q-17.5 -38 -43.5 -59 q-26 -21 -67 -33 q-41 -12 -76.5 -15.5 q-35.5 -3.5 -83.5 -3.5 l-166 0 l0 582 q98 23 214 23 q53 0 92.5 -12.5 q39.5 -12.5 59.5 -29.5 q20 -17 32 -40 q12 -23 14.5 -38 q2.5 -15 2.5 -29 q0 -98 -49 -139 ZM160 489 l0 -127 q10 -2 24 -2 q94 0 94 70 q0 64 -73 64 q-15 0 -45 -5 ZM198 114 q98 0 98 67 q0 40 -21.5 58 q-21.5 18 -55.5 18 q-33 0 -59 -13 l0 -126 q17 -4 38 -4 Z" /><glyph glyph-name="afii10020" unicode="&#x413;" d="M25 581 l323 25 l0 -149 l-137 -5 l0 -453 l-186 0 l0 582 Z" /><glyph glyph-name="afii10021" unicode="&#x414;" d="M704 -91 l-186 -3 l0 83 l-363 0 l0 -86 l-182 0 l0 213 q13 -2 31 -2 q19 0 36 3.5 q17 3.5 35.5 13.5 q18.5 10 29.5 31 q11 21 11 52 l0 374 l453 17 l0 -466 l126 0 l9 -230 ZM279 141 l109 0 l0 299 l-109 -4 l0 -295 Z" /><glyph glyph-name="afii10022" unicode="&#x415;" d="M34 0 l-9 580 l375 25 l0 -149 l-201 -4 l0 -88 l189 7 l6 -143 l-186 0 l0 -95 l210 17 l0 -150 l-384 0 Z" /><glyph glyph-name="afii10024" unicode="&#x416;" d="M652 230 q17 -18 56 -75.5 q39 -57.5 70 -106.5 l30 -48 l-203 0 l-104 187 l-10 -187 l-183 0 l-8 186 l-103 -186 l-203 0 q117 190 156 230 q-18 28 -45 72 q-27 44 -77.5 142 q-50.5 98 -62.5 151 l205 10 q33 -91 126 -316 l-19 300 l246 20 l-17 -318 q88 200 124 300 l207 10 q-12 -53 -58.5 -145.5 q-46.5 -92.5 -86.5 -159.5 l-40 -66 Z" /><glyph glyph-name="afii10025" unicode="&#x417;" d="M416 325 q63 -49 63 -139 q0 -77 -60 -131.5 q-60 -54.5 -163 -54.5 q-27 0 -65 5 q-55 8 -98 23 q-43 15 -58 26 l-15 12 l37 134 q78 -52 155 -52 q76 0 80 55 q0 38 -71 38 q-18 0 -38.5 -2.5 q-20.5 -2.5 -32.5 -4.5 l-11 -2 l-5 136 l96 0 q75 2 75 46 q0 9 -4 17.5 q-4 8.5 -21 17 q-17 8.5 -46 8.5 q-37 0 -69.5 -18.5 q-32.5 -18.5 -46.5 -36.5 l-14 -18 l-84 130 q3 4 9.5 10 q6.5 6 30 21.5 q23.5 15.5 50.5 27.5 q27 12 72 22 q45 10 95 10 q60 0 101 -16 q41 -16 59 -42 q18 -26 24.5 -47.5 q6.5 -21.5 6.5 -43.5 q0 -32 -13.5 -69 q-13.5 -37 -38.5 -62 Z" /><glyph glyph-name="afii10026" unicode="&#x418;" d="M568 605 l0 -605 l-158 0 l0 270 l-212 -270 l-143 0 l-30 592 l176 13 l0 -370 l210 357 l157 13 Z" /><glyph glyph-name="afii10027" unicode="&#x419;" d="M568 605 l0 -605 l-158 0 l0 270 l-212 -270 l-143 0 l-30 592 l176 13 l0 -370 l210 357 l157 13 ZM351 690 l0 29 l94 9 l0 -30 q0 -46 -37.5 -76 q-37.5 -30 -89.5 -30 q-52 0 -89 30 q-37 30 -40 76 l0 21 l97 9 l0 -30 q0 -13 10 -22 q10 -9 24 -9 q26 0 31 23 Z" /><glyph glyph-name="afii10028" unicode="&#x41a;" d="M370 230 q17 -18 56 -75.5 q39 -57.5 70 -106.5 l30 -48 l-203 0 l-103 186 l-8 -186 l-183 0 l-4 589 l212 16 l-13 -316 q12 28 42.5 100.5 q30.5 72.5 54 128 q23.5 55.5 27.5 67.5 l207 10 q-12 -53 -58.5 -144 q-46.5 -91 -86.5 -156 l-40 -65 Z" /><glyph glyph-name="afii10029" unicode="&#x41b;" d="M141 0 l-121 0 l0 161 l71 0 q59 0 59 74 l0 349 l450 21 l0 -605 l-176 0 l0 440 l-112 -6 l0 -259 q0 -47 -17.5 -82 q-17.5 -35 -43 -52 q-25.5 -17 -50.5 -27 q-25 -10 -43 -12 l-17 -2 Z" /><glyph glyph-name="afii10030" unicode="&#x41c;" d="M25 0 l25 591 l176 14 l160 -396 l195 382 l145 14 l0 -605 l-192 0 l17 266 l-117 -260 l-112 -4 l-119 275 l-11 -277 l-167 0 Z" /><glyph glyph-name="afii10031" unicode="&#x41d;" d="M369 0 q-9 72 -9 224 l-156 0 l0 -224 l-179 0 l0 578 l168 18 l0 -247 q69 0 169 6 l7 233 l178 18 l0 -606 l-178 0 Z" /><glyph glyph-name="afii10032" unicode="&#x41e;" d="M580 304 q0 -79 -24.5 -138.5 q-24.5 -59.5 -57.5 -90 q-33 -30.5 -76 -49 q-43 -18.5 -71 -22.5 q-28 -4 -53 -4 q-121 0 -197 85.5 q-76 85.5 -76 218.5 q0 78 24 137 q24 59 57 89 q33 30 76 48.5 q43 18.5 71 22.5 q28 4 53 4 q22 0 49 -4 q27 -4 69.5 -22.5 q42.5 -18.5 75 -48.5 q32.5 -30 56.5 -89 q24 -59 24 -137 ZM221 314 q0 -32 2.5 -55 q2.5 -23 10 -51 q7.5 -28 25 -43.5 q17.5 -15.5 43.5 -15.5 q86 0 86 160 q0 20 -2.5 39 q-2.5 19 -10.5 43 q-8 24 -26 38.5 q-18 14.5 -45 14.5 q-26 0 -44 -14 q-18 -14 -26 -37 q-8 -23 -10.5 -41.5 q-2.5 -18.5 -2.5 -37.5 Z" /><glyph glyph-name="afii10033" unicode="&#x41f;" d="M190 0 l-170 0 l0 584 l442 21 l0 -605 l-169 0 l0 440 l-103 -5 l0 -435 Z" /><glyph glyph-name="afii10034" unicode="&#x420;" d="M33 577 q122 28 198 28 q112 0 172.5 -51 q60.5 -51 60.5 -155 q0 -52 -21 -90.5 q-21 -38.5 -48.5 -57 q-27.5 -18.5 -63.5 -29.5 q-36 -11 -55.5 -13 q-19.5 -2 -36.5 -2 l-48 0 l20 -207 l-186 0 q9 32 9 370 l-1 207 ZM172 320 q11 -2 26 -2 q24 0 44.5 5 q20.5 5 39.5 24.5 q19 19.5 19 52.5 q0 78 -80 78 q-21 0 -49 -7 l0 -151 Z" /><glyph glyph-name="afii10035" unicode="&#x421;" d="M193 266 q5 -109 136 -109 q56 0 126 22 l55 -142 q-95 -32 -202 -32 q-45 0 -83.5 7 q-38.5 7 -78.5 27 q-40 20 -68 51.5 q-28 31.5 -46 85 q-18 53.5 -18 123.5 q0 73 19 129 q19 56 49 89 q30 33 72 53.5 q42 20.5 81.5 27.5 q39.5 7 84.5 7 q41 0 83 -5.5 q42 -5.5 64 -11.5 l22 -6 l-51 -208 q-44 14 -95 14 q-60 0 -103.5 -27.5 q-43.5 -27.5 -46.5 -94.5 Z" /><glyph glyph-name="afii10036" unicode="&#x422;" d="M25 588 l462 18 l0 -149 l-137 -5 l0 -453 l-180 0 l0 455 l-145 0 l0 134 Z" /><glyph glyph-name="afii10037" unicode="&#x423;" d="M500 601 l1 -345 q0 -31 -4 -60.5 q-4 -29.5 -20.5 -71 q-16.5 -41.5 -43.5 -71.5 q-27 -30 -79 -52 q-52 -22 -121 -23 l-4 0 q-126 0 -209 34 l0 164 q86 -43 199 -43 q43 0 72.5 13.5 q29.5 13.5 41 34 q11.5 20.5 15.5 35 q4 14.5 4 27.5 q-1 1 -3.5 1.5 q-2.5 0.5 -4.5 2.5 q-5 -11 -16 -23 q-11 -12 -40 -25.5 q-29 -13.5 -68 -13.5 q-79 0 -129.5 52 q-50.5 52 -50.5 151 l0 200 l185 13 q0 -167 -2 -189 l0 -7 q0 -14 2 -28 q2 -14 6.5 -30.5 q4.5 -16.5 15.5 -27 q11 -10.5 26 -10.5 q30 0 41.5 37.5 q11.5 37.5 11.5 75.5 l0 166 l174 13 Z" /><glyph glyph-name="afii10038" unicode="&#x424;" d="M262 590 l181 14 l0 -57 q29 -1 58 -5.5 q29 -4.5 72 -20.5 q43 -16 74 -40.5 q31 -24.5 54 -71.5 q23 -47 23 -109 q0 -110 -76.5 -179.5 q-76.5 -69.5 -201.5 -69.5 l0 -51 l-185 0 l0 51 q-125 0 -198 69 q-73 69 -73 180 q0 62 22 109 q22 47 52 71.5 q30 24.5 71.5 40.5 q41.5 16 69.5 20.5 q28 4.5 57 5.5 l0 43 ZM538 308 q0 18 -3 34.5 q-3 16.5 -12 37 q-9 20.5 -29.5 33.5 q-20.5 13 -50.5 14 l0 -268 q95 1 95 149 ZM168 308 q0 -147 94 -149 l0 268 q-30 -1 -50.5 -14 q-20.5 -13 -29 -33.5 q-8.5 -20.5 -11.5 -37.5 q-3 -17 -3 -34 Z" /><glyph glyph-name="afii10039" unicode="&#x425;" d="M228 318 l-174 267 l260 20 l73 -172 l68 140 l232 16 l-192 -292 l192 -297 l-248 0 l-100 176 l-98 -176 l-216 0 l203 318 Z" /><glyph glyph-name="afii10040" unicode="&#x426;" d="M375 -90 l0 90 l-355 0 l-11 596 l183 9 l0 -475 l98 4 l0 462 l170 9 l0 -473 l59 0 l0 -220 l-144 -2 Z" /><glyph glyph-name="afii10041" unicode="&#x427;" d="M249 589 l197 14 l0 -603 l-186 0 l0 199 q-41 -74 -142 -74 q-146 0 -146 193 l0 265 l191 14 l0 -261 q0 -63 42 -63 q19 0 28 11 q9 11 13.5 50 q4.5 39 4.5 123 q0 20 -0.5 36.5 q-0.5 16.5 -1 42.5 q-0.5 26 -0.5 53 Z" /><glyph glyph-name="afii10042" unicode="&#x428;" d="M562 596 l170 9 l0 -605 l-712 0 l-13 596 l182 9 l0 -475 l103 4 l0 462 l172 9 l0 -475 l98 4 l0 462 Z" /><glyph glyph-name="afii10043" unicode="&#x429;" d="M647 -90 l0 90 l-627 0 l-13 596 l182 9 l0 -475 l103 4 l0 462 l172 9 l0 -475 l98 4 l0 462 l170 9 l0 -473 l59 0 l0 -220 l-144 -2 Z" /><glyph glyph-name="afii10044" unicode="&#x42a;" d="M219 130 q16 -3 36 -3 q45 0 78 28 q33 28 33 102 q0 119 -74 119 q-36 0 -73 -23 l0 -223 ZM319 497 q52 0 90 -22 q38 -22 56.5 -50.5 q18.5 -28.5 29.5 -66.5 q11 -38 13 -59 q2 -21 2 -39 l0 -10 q0 -63 -18 -110 q-18 -47 -44.5 -73 q-26.5 -26 -62.5 -42 q-36 -16 -65.5 -21 q-29.5 -5 -60.5 -5 q-10 0 -32 0.5 q-22 0.5 -70.5 0.5 q-48.5 0 -122.5 0 l0 497 l-100 -5 l-6 124 l118 11 l184 17 l-7 -180 q13 15 37 23 q24 8 42 9 l17 1 Z" /><glyph glyph-name="afii10045" unicode="&#x42b;" d="M314 497 q52 0 90 -22 q38 -22 56.5 -50.5 q18.5 -28.5 29.5 -66.5 q11 -38 13 -59 q2 -21 2 -39 l0 -10 q0 -63 -18 -110 q-18 -47 -44.5 -73 q-26.5 -26 -62.5 -42 q-36 -16 -65.5 -21 q-29.5 -5 -60.5 -5 q-1 0 -60 0.5 q-59 0.5 -153 0.5 l-16 625 l200 19 l-7 -180 q13 15 37 23 q24 8 41 9 l18 1 ZM214 130 q16 -3 36 -3 q45 0 78 28 q33 28 33 102 q0 119 -74 119 q-36 0 -73 -23 l0 -223 ZM511 630 l197 14 l0 -644 l-181 0 l-16 630 Z" /><glyph glyph-name="afii10046" unicode="&#x42c;" d="M298 497 q52 0 90 -22 q38 -22 56.5 -50.5 q18.5 -28.5 29.5 -66.5 q11 -38 13 -59 q2 -21 2 -39 l0 -10 q0 -63 -18 -110 q-18 -47 -44.5 -73 q-26.5 -26 -62.5 -42 q-36 -16 -65.5 -21 q-29.5 -5 -60.5 -5 q-1 0 -60 0.5 q-59 0.5 -153 0.5 l-16 625 l200 19 l-7 -180 q13 15 37 23 q24 8 41 9 l18 1 ZM198 130 q16 -3 36 -3 q45 0 78 28 q33 28 33 102 q0 119 -74 119 q-36 0 -73 -23 l0 -223 Z" /><glyph glyph-name="afii10047" unicode="&#x42d;" d="M60 426 l-51 156 q77 23 169 23 q45 0 84.5 -7 q39.5 -7 81.5 -27.5 q42 -20.5 72 -53.5 q30 -33 49 -89 q19 -56 19 -129 q0 -70 -18 -123.5 q-18 -53.5 -46 -85 q-28 -31.5 -68 -51.5 q-40 -20 -78.5 -27 q-38.5 -7 -83.5 -7 q-48 0 -98.5 8 q-50.5 8 -77.5 16 l-26 8 l55 142 q55 -17 113 -17 q111 0 141 76 l-143 0 l-11 121 l155 0 q-29 81 -143 81 q-23 0 -46.5 -3.5 q-23.5 -3.5 -36.5 -6.5 l-12 -4 Z" /><glyph glyph-name="afii10048" unicode="&#x42e;" d="M700 304 q0 -79 -20.5 -138.5 q-20.5 -59.5 -49 -90 q-28.5 -30.5 -65.5 -49 q-37 -18.5 -61 -22.5 q-24 -4 -45 -4 q-80 0 -138.5 52.5 q-58.5 52.5 -82.5 141.5 l-32 0 l0 -194 l-181 0 l0 590 l181 14 l0 -190 l31 0 q15 61 46.5 102.5 q31.5 41.5 69 59 q37.5 17.5 64 23.5 q26.5 6 49.5 6 q19 0 42 -4 q23 -4 59 -22.5 q36 -18.5 64 -48.5 q28 -30 48.5 -89 q20.5 -59 20.5 -137 ZM393 314 q0 -32 2.5 -55 q2.5 -23 8.5 -51 q6 -28 21 -43.5 q15 -15.5 37 -15.5 q74 0 74 160 q0 20 -2.5 39 q-2.5 19 -9 43 q-6.5 24 -22 38.5 q-15.5 14.5 -38.5 14.5 q-22 0 -37.5 -14 q-15.5 -14 -22 -37 q-6.5 -23 -9 -41.5 q-2.5 -18.5 -2.5 -37.5 Z" /><glyph glyph-name="afii10049" unicode="&#x42f;" d="M-18 0 l128 248 q-87 34 -87 184 q0 17 2.5 34.5 q2.5 17.5 15.5 45 q13 27.5 35 48 q22 20.5 65 35.5 q43 15 101 15 q109 0 225 -29 q-1 -91 -1 -193 q0 -297 13 -388 l-204 0 q9 96 18 204 q-6 1 -16 1 l-15 1 l-78 -206 l-202 0 ZM322 320 l0 151 q-28 7 -49 7 q-80 0 -80 -78 q0 -33 19 -52.5 q19 -19.5 39.5 -24.5 q20.5 -5 44.5 -5 l26 2 Z" /><glyph glyph-name="afii10065" unicode="&#x430;" d="M435 276 l-13 -276 l-148 0 l-8 50 q-15 -25 -47 -37.5 q-32 -12.5 -61 -12.5 q-12 0 -26 2 q-14 2 -34 11 q-20 9 -35.5 22.5 q-15.5 13.5 -26.5 40 q-11 26.5 -11 61.5 q0 77 39.5 108 q39.5 31 99.5 31 q30 0 102 -13 q0 1 0 5.5 q0 4.5 -0.5 14.5 q-0.5 10 -0.5 24 q0 44 -44 44 q-25 0 -58.5 -9 q-33.5 -9 -54.5 -18 l-21 -9 l-58 122 q32 24 91.5 43.5 q59.5 19.5 124.5 19.5 q49 0 85.5 -14.5 q36.5 -14.5 56 -35 q19.5 -20.5 31 -53 q11.5 -32.5 14.5 -59.5 q3 -27 3 -62 ZM266 125 l0 51 q-21 19 -60 19 q-27 0 -40.5 -14 q-13.5 -14 -13.5 -35 q0 -20 12.5 -35 q12.5 -15 34.5 -15 q16 0 32.5 7 q16.5 7 25.5 15 l9 7 Z" /><glyph glyph-name="afii10066" unicode="&#x431;" d="M310 381 q63 0 107 -43 q44 -43 44 -100 q0 -23 -0.5 -37 q-0.5 -14 -5 -41.5 q-4.5 -27.5 -12 -46 q-7.5 -18.5 -24 -42 q-16.5 -23.5 -40 -37.5 q-23.5 -14 -60 -24 q-36.5 -10 -82.5 -10 q-59 0 -103 25.5 q-44 25.5 -64.5 58 q-20.5 32.5 -33 75.5 q-12.5 43 -14.5 65.5 q-2 22.5 -2 40.5 l0 19 q0 77 23.5 135 q23.5 58 55 88 q31.5 30 74 49.5 q42.5 19.5 68.5 24.5 q26 5 51 6 q26 1 62.5 5.5 q36.5 4.5 59.5 9.5 l24 4 q15 -45 15 -105 q0 -5 -0.5 -15 q-0.5 -10 -0.5 -16 q-6 -56 -90 -56 q-18 0 -52 3 q-34 3 -45 3 l-5 0 q-30 0 -46.5 -18 q-16.5 -18 -18.5 -36 l-2 -19 q3 4 11 9.5 q8 5.5 38 15 q30 9.5 68 9.5 ZM180 210 q0 -22 2 -37.5 q2 -15.5 7 -35.5 q5 -20 17 -30.5 q12 -10.5 30 -10.5 q59 0 59 110 q0 94 -57 94 q-24 0 -38 -18 q-14 -18 -17 -35.5 q-3 -17.5 -3 -36.5 Z" /><glyph glyph-name="afii10067" unicode="&#x432;" d="M350 267 q32 -7 55 -30 q23 -23 23 -65 q0 -44 -15.5 -75.5 q-15.5 -31.5 -38.5 -49 q-23 -17.5 -59 -27.5 q-36 -10 -67.5 -12.5 q-31.5 -2.5 -73.5 -2.5 l-147 0 l0 481 q85 19 189 19 q58 0 97 -14.5 q39 -14.5 55 -37.5 q16 -23 21 -39 q5 -16 5 -32 q0 -81 -44 -115 ZM151 409 l0 -105 q9 -1 21 -1 q83 0 83 57 q0 53 -64 53 q-20 0 -40 -4 ZM184 99 q87 0 87 56 q0 62 -69 62 q-27 0 -51 -10 l0 -104 q15 -4 33 -4 Z" /><glyph glyph-name="afii10068" unicode="&#x433;" d="M20 479 l267 21 l0 -123 l-113 -4 l0 -374 l-154 0 l0 480 Z" /><glyph glyph-name="afii10069" unicode="&#x434;" d="M641 -92 l-158 -2 l0 70 l-308 0 l0 -73 l-155 0 l0 181 q11 -2 26 -2 q95 0 95 85 l0 318 l385 14 l0 -396 l107 0 l8 -195 ZM282 104 l90 1 l0 254 l-90 -4 l0 -251 Z" /><glyph glyph-name="afii10070" unicode="&#x435;" d="M194 204 q20 -73 106 -73 q27 0 57 7 q30 7 47 14 l17 7 l43 -119 q-56 -40 -184 -40 q-255 0 -255 234 q0 72 20.5 125.5 q20.5 53.5 47.5 79.5 q27 26 62.5 41 q35.5 15 54.5 17.5 q19 2.5 36 2.5 q55 0 97 -15 q42 -15 65 -36.5 q23 -21.5 37.5 -52 q14.5 -30.5 19 -56.5 q4.5 -26 4.5 -55 q0 -17 -1.5 -33.5 q-1.5 -16.5 -3.5 -25.5 l-2 -8 q-8 0 -21 -0.5 q-13 -0.5 -48 -2 q-35 -1.5 -66 -3 q-31 -1.5 -63 -3.5 q-32 -2 -51 -3 q-19 -1 -19 -2 ZM259 396 q-70 -1 -70 -96 l137 10 q0 18 -3.5 34.5 q-3.5 16.5 -19.5 34 q-16 17.5 -44 17.5 Z" /><glyph glyph-name="afii10072" unicode="&#x436;" d="M539 189 q14 -15 46 -62 q32 -47 57 -87 l25 -40 l-166 0 l-86 153 l-8 -153 l-150 0 l-6 152 l-85 -152 l-166 0 q96 156 128 189 q-15 23 -37 59 q-22 36 -63.5 116 q-41.5 80 -51.5 124 l168 8 q21 -60 103 -259 l-15 246 l201 16 l-14 -260 q77 174 102 245 l170 9 q-10 -44 -48 -120 q-38 -76 -71 -130 l-33 -54 Z" /><glyph glyph-name="afii10073" unicode="&#x437;" d="M347 268 q52 -41 52 -115 q0 -63 -49.5 -108 q-49.5 -45 -134.5 -45 q-16 0 -54 4 q-45 6 -80.5 18.5 q-35.5 12.5 -48.5 21.5 l-12 10 l31 111 q63 -43 127 -43 q63 0 66 45 q0 32 -58 32 q-15 0 -32 -2 q-17 -2 -26 -4 l-10 -2 l-4 113 l79 0 q62 0 62 38 q0 7 -3 14 q-3 7 -17 14 q-14 7 -38 7 q-31 0 -58 -15 q-27 -15 -39 -30 l-11 -15 l-69 107 q3 3 8 8 q5 5 24.5 18 q19.5 13 42 23 q22.5 10 59.5 18 q37 8 78 8 q49 0 83 -13 q34 -13 49 -34.5 q15 -21.5 20.5 -39.5 q5.5 -18 5.5 -36 q0 -26 -11 -56.5 q-11 -30.5 -32 -51.5 Z" /><glyph glyph-name="afii10074" unicode="&#x438;" d="M474 500 l1 -500 l-131 0 l0 224 l-176 -224 l-118 0 l-25 485 l146 15 l0 -305 l174 290 l129 15 Z" /><glyph glyph-name="afii10075" unicode="&#x439;" d="M474 500 l1 -500 l-131 0 l0 224 l-176 -224 l-118 0 l-25 485 l146 15 l0 -305 l174 290 l129 15 ZM292 592 l0 27 l88 9 l0 -28 q0 -43 -35 -71.5 q-35 -28.5 -84 -28.5 q-50 0 -84.5 28 q-34.5 28 -37.5 72 l0 19 l91 9 l0 -28 q0 -13 9 -21.5 q9 -8.5 23 -8.5 q25 0 30 22 Z" /><glyph glyph-name="afii10076" unicode="&#x43a;" d="M305 190 q14 -15 46 -62.5 q32 -47.5 57 -87.5 l25 -40 l-167 0 l-85 153 l-7 -153 l-151 0 l-3 486 l175 13 l-11 -261 q98 233 103 245 l170 8 q-10 -44 -48 -119 q-38 -75 -71 -128 l-33 -54 Z" /><glyph glyph-name="afii10077" unicode="&#x43b;" d="M132 0 l-112 0 l0 161 l66 0 q55 0 55 74 l0 244 l420 21 l0 -500 l-164 0 l0 335 l-105 -6 l0 -154 q0 -47 -16.5 -82 q-16.5 -35 -40 -52 q-23.5 -17 -47 -27 q-23.5 -10 -40.5 -12 l-16 -2 Z" /><glyph glyph-name="afii10078" unicode="&#x43c;" d="M20 0 l21 488 l145 11 l132 -327 l161 316 l119 11 l0 -499 l-158 0 l14 219 l-97 -214 l-92 -3 l-98 227 l-9 -229 l-138 0 Z" /><glyph glyph-name="afii10079" unicode="&#x43d;" d="M304 0 q-8 61 -8 185 l-128 0 l0 -185 l-148 0 l0 477 l139 15 l0 -204 q71 0 139 5 l6 192 l147 15 l0 -500 l-147 0 Z" /><glyph glyph-name="afii10080" unicode="&#x43e;" d="M484 251 q0 -55 -13.5 -98.5 q-13.5 -43.5 -36.5 -69.5 q-23 -26 -48 -44 q-25 -18 -53.5 -25.5 q-28.5 -7.5 -47 -10.5 q-18.5 -3 -34.5 -3 q-99 0 -162.5 70.5 q-63.5 70.5 -63.5 180.5 q0 65 20 113.5 q20 48.5 47.5 73.5 q27.5 25 63.5 40 q36 15 59 18.5 q23 3.5 43 3.5 q18 0 40 -3.5 q22 -3.5 57 -18.5 q35 -15 62 -40 q27 -25 47 -73.5 q20 -48.5 20 -113.5 ZM187 259 q0 -26 2.5 -45 q2.5 -19 8.5 -42.5 q6 -23.5 20 -36 q14 -12.5 36 -12.5 q71 0 71 132 q0 16 -2.5 32 q-2.5 16 -8.5 36 q-6 20 -21 32 q-15 12 -37 12 q-28 0 -45 -21.5 q-17 -21.5 -20.5 -42.5 q-3.5 -21 -3.5 -44 Z" /><glyph glyph-name="afii10081" unicode="&#x43f;" d="M190 0 l-170 0 l0 478 l442 21 l0 -499 l-169 0 l0 334 l-103 -5 l0 -329 Z" /><glyph glyph-name="afii10082" unicode="&#x440;" d="M527 248 q0 -124 -55.5 -185 q-55.5 -61 -139.5 -67 q-10 -1 -26 -1 q-33 0 -56 9 q-23 9 -29.5 15.5 q-6.5 6.5 -7.5 10.5 l12 -223 l-200 -10 l0 691 l164 12 l0 -76 q27 68 127 68 q84 0 146.5 -60.5 q62.5 -60.5 64.5 -183.5 ZM208 347 l4 -226 q18 -6 40 -6 q95 0 106 121 q5 136 -83 136 l-5 0 q-44 0 -62 -25 Z" /><glyph glyph-name="afii10083" unicode="&#x441;" d="M388 153 l48 -126 q-83 -27 -171 -27 q-47 0 -87 10.5 q-40 10.5 -77.5 36 q-37.5 25.5 -59 76 q-21.5 50.5 -21.5 122.5 q0 76 23 129 q23 53 63 79 q40 26 80.5 36.5 q40.5 10.5 88.5 10.5 q61 0 141 -20 l-58 -196 q-37 10 -78 10 q-12 0 -31 -5 q-19 -5 -40.5 -23 q-21.5 -18 -21.5 -45 q0 -83 106 -83 q21 0 45 4 q24 4 37 8 l13 3 Z" /><glyph glyph-name="afii10084" unicode="&#x442;" d="M-9 485 l381 15 l0 -123 l-106 -4 l0 -374 l-155 0 l0 376 l-120 0 l0 110 Z" /><glyph glyph-name="afii10085" unicode="&#x443;" d="M457 498 l1 -391 q0 -35 -4 -68.5 q-4 -33.5 -19.5 -80 q-15.5 -46.5 -41.5 -80.5 q-26 -34 -75.5 -59 q-49.5 -25 -116.5 -26 l-4 0 q-122 0 -201 39 l0 185 q86 -49 191 -49 q34 0 59 11 q25 11 37.5 25.5 q12.5 14.5 20.5 34 q8 19.5 9.5 31.5 q1.5 12 1.5 23 q-1 1 -3.5 1.5 q-2.5 0.5 -4.5 2.5 q-4 -9 -10.5 -18.5 q-6.5 -9.5 -20 -22.5 q-13.5 -13 -36.5 -21 q-23 -8 -52 -8 q-76 0 -124.5 59 q-48.5 59 -48.5 171 l0 226 l178 15 q0 -188 -2 -214 l0 -7 q0 -39 10.5 -74 q10.5 -35 37.5 -35 q29 0 40 42.5 q11 42.5 11 84.5 l0 188 l167 15 Z" /><glyph glyph-name="afii10086" unicode="&#x444;" d="M441 503 q26 0 53.5 -4 q27.5 -4 67 -18.5 q39.5 -14.5 69 -37.5 q29.5 -23 51 -67.5 q21.5 -44.5 21.5 -102.5 q0 -102 -70.5 -167 q-70.5 -65 -187.5 -65 l0 -121 l-173 0 l0 121 q-116 0 -184 64.5 q-68 64.5 -68 167.5 q0 58 21 102.5 q21 44.5 50 67.5 q29 23 67.5 37.5 q38.5 14.5 65.5 18.5 q27 4 52 4 l0 114 l165 8 l0 -122 ZM276 142 l0 249 q-28 0 -47.5 -12 q-19.5 -12 -28 -31 q-8.5 -19 -11.5 -34.5 q-3 -15.5 -3 -32.5 q0 -139 90 -139 ZM441 142 q89 0 89 139 q0 109 -89 110 l0 -249 Z" /><glyph glyph-name="afii10087" unicode="&#x445;" d="M135 269 l-142 224 l216 7 l60 -133 l79 133 l176 0 l-162 -247 l162 -252 l-210 -1 l-86 149 l-82 -149 l-183 0 l172 269 Z" /><glyph glyph-name="afii10088" unicode="&#x446;" d="M375 -90 l0 90 l-355 0 l-9 492 l181 9 l0 -371 l98 4 l0 358 l170 9 l0 -369 l59 0 l0 -220 l-144 -2 Z" /><glyph glyph-name="afii10089" unicode="&#x447;" d="M267 488 l175 12 l0 -500 l-165 0 l0 165 q-37 -61 -127 -61 q-130 0 -130 160 l0 219 l170 12 l0 -216 q0 -53 37 -53 q25 0 33 26.5 q8 26.5 8 126.5 q0 51 -1 109 Z" /><glyph glyph-name="afii10090" unicode="&#x448;" d="M523 489 l158 9 l0 -498 l-661 0 l-14 489 l171 9 l0 -368 l95 4 l0 355 l160 9 l0 -368 l91 4 l0 355 Z" /><glyph glyph-name="afii10091" unicode="&#x449;" d="M605 -90 l0 90 l-585 0 l-9 491 l167 9 l0 -370 l96 4 l0 357 l160 9 l0 -370 l91 4 l0 357 l159 9 l0 -368 l55 0 l0 -220 l-134 -2 Z" /><glyph glyph-name="afii10092" unicode="&#x44a;" d="M180 101 q13 -3 28 -3 q34 0 60.5 22 q26.5 22 26.5 79 q0 93 -58 93 q-25 0 -57 -17 l0 -174 ZM258 386 q34 0 60.5 -11.5 q26.5 -11.5 41.5 -30.5 q15 -19 25.5 -39 q10.5 -20 14.5 -43 q4 -23 5.5 -36 q1.5 -13 1.5 -24 l0 -8 q0 -60 -20 -101.5 q-20 -41.5 -52.5 -60.5 q-32.5 -19 -62 -26 q-29.5 -7 -60.5 -7 q-8 0 -25 0.5 q-17 0.5 -55 0.5 q-38 0 -96 0 l0 386 l-78 -3 l-4 96 l92 8 l143 14 l-5 -141 q10 12 28.5 18.5 q18.5 6.5 31.5 7.5 l14 0 Z" /><glyph glyph-name="afii10093" unicode="&#x44b;" d="M245 386 q40 0 69.5 -17 q29.5 -17 44 -39.5 q14.5 -22.5 23 -52 q8.5 -29.5 10 -45.5 q1.5 -16 1.5 -30 l0 -8 q0 -60 -20 -101.5 q-20 -41.5 -53 -60.5 q-33 -19 -62 -26 q-29 -7 -61 -7 l-45 1 q-46 0 -120 0 l-12 485 l155 15 l-5 -139 q10 11 29 17.5 q19 6.5 33 7.5 l13 0 ZM167 101 q12 -3 28 -3 q35 0 60.5 22 q25.5 22 25.5 80 q0 92 -57 92 q-30 0 -57 -18 l0 -173 ZM397 489 l154 11 l0 -500 l-141 0 l-13 489 Z" /><glyph glyph-name="afii10094" unicode="&#x44c;" d="M256 384 q40 0 69.5 -17 q29.5 -17 44 -39 q14.5 -22 23 -51 q8.5 -29 10 -45.5 q1.5 -16.5 1.5 -30.5 l0 -8 q0 -48 -14 -84.5 q-14 -36.5 -34 -57 q-20 -20.5 -48 -33 q-28 -12.5 -51 -16 q-23 -3.5 -47 -3.5 l-52 1 q-53 0 -126 0 l-12 483 l168 15 l-6 -139 q10 11 28.5 17.5 q18.5 6.5 31.5 7.5 l14 0 ZM179 100 q13 -2 28 -2 q35 0 60.5 22 q25.5 22 25.5 79 q0 92 -57 92 q-24 0 -57 -18 l0 -173 Z" /><glyph glyph-name="afii10095" unicode="&#x44d;" d="M85 352 l-42 128 q63 19 139 19 q47 0 87.5 -10.5 q40.5 -10.5 79.5 -36 q39 -25.5 62 -78 q23 -52.5 23 -127.5 q0 -71 -21 -121 q-21 -50 -58 -75 q-37 -25 -76.5 -35.5 q-39.5 -10.5 -86.5 -10.5 q-39 0 -81 6.5 q-42 6.5 -64 12.5 l-22 7 l46 117 q45 -14 93 -14 q91 0 116 63 l-118 0 l-9 100 l128 0 q-24 66 -118 66 q-19 0 -38.5 -2.5 q-19.5 -2.5 -29.5 -5.5 l-10 -3 Z" /><glyph glyph-name="afii10096" unicode="&#x44e;" d="M577 251 q0 -65 -17 -114.5 q-17 -49.5 -40.5 -74.5 q-23.5 -25 -54 -40 q-30.5 -15 -50.5 -18.5 q-20 -3.5 -37 -3.5 q-66 0 -114.5 43 q-48.5 43 -67.5 117 l-27 0 l0 -160 l-149 0 l0 487 l149 11 l0 -156 l26 0 q10 40 30 70.5 q20 30.5 41 46.5 q21 16 46 25.5 q25 9.5 41.5 12 q16.5 2.5 30.5 2.5 q15 0 34 -3.5 q19 -3.5 49 -18.5 q30 -15 53 -40 q23 -25 40 -73.5 q17 -48.5 17 -112.5 ZM324 259 q0 -136 57 -136 q61 0 61 132 q0 111 -60 111 q-58 0 -58 -107 Z" /><glyph glyph-name="afii10097" unicode="&#x44f;" d="M20 0 l111 203 q-75 28 -75 151 q0 14 2.5 28.5 q2.5 14.5 13.5 37 q11 22.5 29.5 39 q18.5 16.5 56 29 q37.5 12.5 87.5 12.5 q94 0 195 -24 q-1 -74 -1 -158 q0 -242 11 -318 l-176 0 q4 34 15 167 q-5 1 -13 1 l-13 1 l-68 -169 l-175 0 ZM315 262 l0 124 q-24 6 -43 6 q-69 0 -69 -64 q0 -38 27 -52.5 q27 -14.5 61 -14.5 l24 1 Z" /><glyph glyph-name="afii10071" unicode="&#x451;" d="M194 204 q20 -73 106 -73 q27 0 57 7 q30 7 47 14 l17 7 l43 -119 q-56 -40 -184 -40 q-255 0 -255 234 q0 72 20.5 125.5 q20.5 53.5 47.5 79.5 q27 26 62.5 41 q35.5 15 54.5 17.5 q19 2.5 36 2.5 q55 0 97 -15 q42 -15 65 -36.5 q23 -21.5 37.5 -52 q14.5 -30.5 19 -56.5 q4.5 -26 4.5 -55 q0 -17 -1.5 -33.5 q-1.5 -16.5 -3.5 -25.5 l-2 -8 q-8 0 -21 -0.5 q-13 -0.5 -48 -2 q-35 -1.5 -66 -3 q-31 -1.5 -63 -3.5 q-32 -2 -51 -3 q-19 -1 -19 -2 ZM259 396 q-70 -1 -70 -96 l137 10 q0 18 -3.5 34.5 q-3.5 16.5 -19.5 34 q-16 17.5 -44 17.5 ZM120 577 q-19 19 -19 45 q0 26 19 45 q19 19 45 19 q26 0 45 -19 q19 -19 19 -45 q0 -26 -19 -45 q-19 -19 -45 -19 q-26 0 -45 19 ZM314.5 574 q-15.5 16 -15.5 38 q0 22 15.5 38 q15.5 16 38.5 16 q23 0 38.5 -16 q15.5 -16 15.5 -38 q0 -22 -15.5 -38 q-15.5 -16 -38.5 -16 q-23 0 -38.5 16 Z" /><glyph glyph-name="afii10099" unicode="&#x452;" d="M486 249 l4 -346 q0 -52 -17.5 -90.5 q-17.5 -38.5 -42.5 -59 q-25 -20.5 -59.5 -33 q-34.5 -12.5 -60 -15.5 q-25.5 -3 -52.5 -3 l-37 2 l-7 173 q30 2 52 11 q22 9 32 21 q10 12 15.5 24 q5.5 12 6.5 20 l0 8 l0 233 q-2 86 -58 86 q-19 0 -26.5 -21 q-7.5 -21 -7.5 -81 q0 -23 7 -180 l-172 0 l0 450 l-146 0 l0 140 l150 6 l0 59 l155 6 l2 -59 l155 7 l0 -158 l-150 0 l0 -77 q4 5 12 12 q8 7 36 18.5 q28 11.5 60 11.5 q31 0 54.5 -6 q23.5 -6 46.5 -22.5 q23 -16.5 35.5 -51 q12.5 -34.5 12.5 -85.5 Z" /><glyph glyph-name="afii10100" unicode="&#x453;" d="M20 479 l267 21 l0 -123 l-113 -4 l0 -374 l-154 0 l0 480 ZM100 657 l133 8 l-87 -126 l-92 -7 l46 125 Z" /><glyph glyph-name="afii10101" unicode="&#x454;" d="M416 480 l-42 -128 q-36 11 -78 11 q-94 0 -118 -66 l128 0 l-9 -100 l-118 0 q25 -63 116 -63 q21 0 44.5 3.5 q23.5 3.5 36.5 6.5 l12 4 l46 -117 q-79 -26 -167 -26 q-47 0 -86.5 10.5 q-39.5 10.5 -76.5 35.5 q-37 25 -58 75 q-21 50 -21 121 q0 60 16 106.5 q16 46.5 40.5 73.5 q24.5 27 59 43.5 q34.5 16.5 67 22.5 q32.5 6 69.5 6 q34 0 68.5 -4.5 q34.5 -4.5 52.5 -9.5 l18 -5 Z" /><glyph glyph-name="afii10102" unicode="&#x455;" d="M25 30 l22 131 q110 -29 173 -29 q44 0 44 21 q0 14 -11.5 19.5 q-11.5 5.5 -40.5 11.5 q-79 12 -127 50.5 q-48 38.5 -48 108.5 q0 77 53 117 q53 40 140 40 q41 0 84 -10.5 q43 -10.5 64 -19.5 l22 -9 q0 2 -10 -25.5 q-10 -27.5 -20 -55.5 l-9 -29 q-80 24 -116 24 q-43 0 -43 -27 q0 -14 22 -23 q22 -9 53 -17.5 q31 -8.5 62.5 -21.5 q31.5 -13 53.5 -44 q22 -31 22 -76 q0 -88 -56 -127.5 q-56 -39.5 -144 -39.5 q-43 0 -90.5 7.5 q-47.5 7.5 -73.5 15.5 l-26 8 Z" /><glyph glyph-name="afii10103" unicode="&#x456;" d="M24 638 l192 11 l-5 -141 l-179 -10 l-8 140 ZM25 444 l197 11 l0 -455 l-181 0 l-16 444 Z" /><glyph glyph-name="afii10104" unicode="&#x457;" d="M25 444 l197 11 l0 -455 l-181 0 l-16 444 ZM3.5 512 q-20.5 20 -20.5 49 q0 29 20 49.5 q20 20.5 49 20.5 q29 0 49.5 -20.5 q20.5 -20.5 20.5 -49.5 q0 -29 -20.5 -49 q-20.5 -20 -49.5 -20 q-28 0 -48.5 20 ZM155 551 q0 24 17 41 q17 17 41 17 q25 0 42 -17 q17 -17 17 -41 q0 -25 -17 -42 q-17 -17 -42 -17 q-24 0 -41 17 q-17 17 -17 42 Z" /><glyph glyph-name="afii10105" unicode="&#x458;" d="M297 500 l-16 -536 q-2 -58 -19.5 -101 q-17.5 -43 -38.5 -64 q-21 -21 -50 -33 q-29 -12 -45 -14 q-16 -2 -32 -2 q-88 7 -141 36 l14 162 q22 -12 50 -12 q23 0 38 9 q15 9 20.5 27 q5.5 18 7 31 q1.5 13 1.5 36 l0 440 l211 21 ZM99 681 l-5 0 l189 11 l0 -135 l-184 -16 l0 140 Z" /><glyph glyph-name="afii10106" unicode="&#x459;" d="M470 99 q12 -2 28 -2 q86 0 86 101 q0 93 -57 93 q-26 0 -57 -18 l0 -174 ZM563 410 q36 0 64 -12 q28 -12 44 -32.5 q16 -20.5 27 -42 q11 -21.5 15.5 -46 q4.5 -24.5 6 -38 q1.5 -13.5 1.5 -25.5 l0 -8 q0 -52 -15 -91 q-15 -39 -37 -60.5 q-22 -21.5 -52 -34.5 q-30 -13 -54 -17 q-24 -4 -50 -4 q-8 0 -26 0.5 q-18 0.5 -58 0.5 q-40 0 -102 0 l0 355 l-64 -4 q2 -166 2 -214 q0 -85 -40.5 -111 q-40.5 -26 -129.5 -26 q-29 0 -55 3 q-26 3 -37 6 l-11 3 l15 107 q35 -16 72 -17 q31 0 31 49 l0 327 l380 22 l-6 -118 q10 12 30 19 q20 7 34 8 l15 1 Z" /><glyph glyph-name="afii10107" unicode="&#x45a;" d="M536 408 q42 0 73.5 -18 q31.5 -18 47 -41.5 q15.5 -23.5 24.5 -54.5 q9 -31 10.5 -48.5 q1.5 -17.5 1.5 -32.5 l0 -8 q0 -63 -21 -107 q-21 -44 -55.5 -64 q-34.5 -20 -65.5 -27.5 q-31 -7.5 -64 -7.5 q-1 0 -50.5 0.5 q-49.5 0.5 -130.5 0.5 l0 173 l-122 0 l0 -173 l-164 0 l0 475 l162 14 l0 -180 q49 0 117 5 l4 166 l158 20 l-4 -119 q11 12 30.5 18.5 q19.5 6.5 34.5 7.5 l14 1 ZM454 107 q13 -3 29 -3 q37 0 64 23 q27 23 27 84 q0 98 -60 98 q-29 0 -60 -19 l0 -183 Z" /><glyph glyph-name="afii10108" unicode="&#x45b;" d="M169 594 l1 60 l158 6 l0 -57 l4 -3 l150 6 l0 -151 l-152 0 l1 -76 q4 4 12 11 q8 7 36 18 q28 11 60 11 q31 0 54.5 -5.5 q23.5 -5.5 47 -21.5 q23.5 -16 36 -49 q12.5 -33 12.5 -83 l15 -260 l-190 0 q10 76 10 192 q0 99 -58 99 q-20 0 -28 -21 q-8 -21 -8 -78 q0 -37 9 -192 l-11 -1 l-163 0 l0 455 l-145 0 l0 134 l149 6 Z" /><glyph glyph-name="afii10109" unicode="&#x45c;" d="M305 190 q14 -15 46 -62.5 q32 -47.5 57 -87.5 l25 -40 l-167 0 l-85 153 l-7 -153 l-151 0 l-3 486 l175 13 l-11 -261 q98 233 103 245 l170 8 q-10 -44 -48 -119 q-38 -75 -71 -128 l-33 -54 ZM235 647 l133 8 l-87 -126 l-92 -7 l46 125 Z" /><glyph glyph-name="afii10110" unicode="&#x45e;" d="M457 498 l1 -391 q0 -35 -4 -68.5 q-4 -33.5 -19.5 -80 q-15.5 -46.5 -41.5 -80.5 q-26 -34 -75.5 -59 q-49.5 -25 -116.5 -26 l-4 0 q-122 0 -201 39 l0 185 q86 -49 191 -49 q34 0 59 11 q25 11 37.5 25.5 q12.5 14.5 20.5 34 q8 19.5 9.5 31.5 q1.5 12 1.5 23 q-1 1 -3.5 1.5 q-2.5 0.5 -4.5 2.5 q-4 -9 -10.5 -18.5 q-6.5 -9.5 -20 -22.5 q-13.5 -13 -36.5 -21 q-23 -8 -52 -8 q-76 0 -124.5 59 q-48.5 59 -48.5 171 l0 226 l178 15 q0 -188 -2 -214 l0 -7 q0 -39 10.5 -74 q10.5 -35 37.5 -35 q29 0 40 42.5 q11 42.5 11 84.5 l0 188 l167 15 ZM262 584 l0 21 l69 7 l0 -22 q0 -34 -27.5 -56 q-27.5 -22 -65.5 -22 q-39 0 -66 22 q-27 22 -29 56 l0 15 l71 7 l0 -22 q0 -10 7 -16.5 q7 -6.5 18 -6.5 q20 0 23 17 Z" /><glyph glyph-name="afii10193" unicode="&#x45f;" d="M453 500 l0 -499 l-144 0 l-26 -97 l-133 -4 q19 66 31 101 l-150 0 l-11 490 l176 9 l0 -369 l94 4 l0 356 l163 9 Z" /><glyph glyph-name="afii10050" unicode="&#x490;" d="M20 581 l206 19 l-8 60 l188 6 l0 -206 l-200 -8 l0 -453 l-186 0 l0 582 Z" /><glyph glyph-name="afii10098" unicode="&#x491;" d="M20 414 l195 20 l3 59 l188 6 l0 -206 l-200 -8 l0 -286 l-186 0 l0 415 Z" /><glyph glyph-name="Wgrave" unicode="&#x1e80;" d="M715 590 l176 15 l-175 -605 l-160 0 q-53 138 -100 283 l-81 -283 l-160 0 q-171 474 -190 594 l183 12 l94 -365 l73 349 l175 15 l71 -307 l94 292 ZM332 770 l131 12 l45 -125 l-103 -5 l-73 118 Z" /><glyph glyph-name="wgrave" unicode="&#x1e81;" d="M511 485 l188 15 l-146 -490 l-140 -8 q-36 83 -72 199 q-52 -175 -57 -191 l-143 -10 q-138 370 -154 479 l166 10 l62 -317 q12 59 27.5 171 q15.5 112 24.5 146 l157 11 l35 -330 q15 78 26.5 147 q11.5 69 17.5 113.5 q6 44.5 8 54.5 ZM219 651 l131 12 l45 -125 l-103 -5 l-73 118 Z" /><glyph glyph-name="Wacute" unicode="&#x1e82;" d="M715 590 l176 15 l-175 -605 l-160 0 q-53 138 -100 283 l-81 -283 l-160 0 q-171 474 -190 594 l183 12 l94 -365 l73 349 l175 15 l71 -307 l94 292 ZM441 769 l133 8 l-87 -126 l-92 -7 l46 125 Z" /><glyph glyph-name="wacute" unicode="&#x1e83;" d="M511 485 l188 15 l-146 -490 l-140 -8 q-36 83 -72 199 q-52 -175 -57 -191 l-143 -10 q-138 370 -154 479 l166 10 l62 -317 q12 59 27.5 171 q15.5 112 24.5 146 l157 11 l35 -330 q15 78 26.5 147 q11.5 69 17.5 113.5 q6 44.5 8 54.5 ZM301 657 l133 8 l-87 -126 l-92 -7 l46 125 Z" /><glyph glyph-name="Wdieresis" unicode="&#x1e84;" d="M318 661 q-19 19 -19 45 q0 26 19 45 q19 19 45 19 q26 0 45 -19 q19 -19 19 -45 q0 -26 -19 -45 q-19 -19 -45 -19 q-26 0 -45 19 ZM512.5 658 q-15.5 16 -15.5 38 q0 22 15.5 38 q15.5 16 38.5 16 q23 0 38.5 -16 q15.5 -16 15.5 -38 q0 -22 -15.5 -38 q-15.5 -16 -38.5 -16 q-23 0 -38.5 16 ZM715 590 l176 15 l-175 -605 l-160 0 q-53 138 -100 283 l-81 -283 l-160 0 q-171 474 -190 594 l183 12 l94 -365 l73 349 l175 15 l71 -307 l94 292 Z" /><glyph glyph-name="wdieresis" unicode="&#x1e85;" d="M511 485 l188 15 l-146 -490 l-140 -8 q-36 83 -72 199 q-52 -175 -57 -191 l-143 -10 q-138 370 -154 479 l166 10 l62 -317 q12 59 27.5 171 q15.5 112 24.5 146 l157 11 l35 -330 q15 78 26.5 147 q11.5 69 17.5 113.5 q6 44.5 8 54.5 ZM217 577 q-19 19 -19 45 q0 26 19 45 q19 19 45 19 q26 0 45 -19 q19 -19 19 -45 q0 -26 -19 -45 q-19 -19 -45 -19 q-26 0 -45 19 ZM412 574 q-16 16 -16 38 q0 22 16 38 q16 16 38 16 q22 0 38 -16 q16 -16 16 -38 q0 -22 -16 -38 q-16 -16 -38 -16 q-22 0 -38 16 Z" /><glyph glyph-name="Ygrave" unicode="&#x1ef2;" d="M231 252 l-206 335 l205 18 l93 -183 l98 169 l197 15 l-208 -356 l17 -250 l-196 0 l0 252 ZM186 770 l131 12 l45 -125 l-103 -5 l-73 118 Z" /><glyph glyph-name="ygrave" unicode="&#x1ef3;" d="M468 498 l1 -391 q0 -35 -4 -68.5 q-4 -33.5 -19.5 -80 q-15.5 -46.5 -41.5 -80.5 q-26 -34 -75.5 -59 q-49.5 -25 -116.5 -26 l-4 0 q-122 0 -201 39 l0 185 q86 -49 191 -49 q34 0 59 11 q25 11 37.5 25.5 q12.5 14.5 20.5 34 q8 19.5 9.5 31.5 q1.5 12 1.5 23 q-1 1 -3.5 1.5 q-2.5 0.5 -4.5 2.5 q-4 -9 -10.5 -18.5 q-6.5 -9.5 -20 -22.5 q-13.5 -13 -36.5 -21 q-23 -8 -52 -8 q-76 0 -124.5 59 q-48.5 59 -48.5 171 l0 226 l178 15 q0 -188 -2 -214 l0 -7 q0 -39 10.5 -74 q10.5 -35 37.5 -35 q29 0 40 42.5 q11 42.5 11 84.5 l0 188 l167 15 ZM160 651 l131 12 l45 -125 l-103 -5 l-73 118 Z" /><glyph glyph-name="figuredash" unicode="&#x2012;" d="M25 207 l0 150 l388 14 l0 -164 l-388 0 Z" /><glyph glyph-name="endash" unicode="&#x2013;" d="M25 207 l0 150 l388 14 l0 -164 l-388 0 Z" /><glyph glyph-name="emdash" unicode="&#x2014;" d="M25 207 l0 150 l422 14 l0 -164 l-422 0 Z" /><glyph glyph-name="quoteleft" unicode="&#x2018;" d="M41 533 l46 84 l120 10 l-52 -104 q37 -20 37 -61 q0 -32 -25 -53 q-25 -21 -61 -21 q-37 0 -61.5 21.5 q-24.5 21.5 -24.5 56.5 q0 33 21 67 Z" /><glyph glyph-name="quoteright" unicode="&#x2019;" d="M186 482 l-46 -84 l-120 -10 l52 104 q-37 20 -37 61 q0 32 25 53 q25 21 61 21 q37 0 61.5 -21.5 q24.5 -21.5 24.5 -56.5 q0 -33 -21 -67 Z" /><glyph glyph-name="quotesinglbase" unicode="&#x201a;" d="M185 2 l-46 -84 l-120 -10 l52 104 q-37 20 -37 61 q0 32 25 53 q25 21 61 21 q37 0 61.5 -21.5 q24.5 -21.5 24.5 -56.5 q0 -33 -21 -67 Z" /><glyph glyph-name="quotedblleft" unicode="&#x201c;" d="M243 533 l46 84 l120 10 l-52 -104 q37 -20 37 -61 q0 -32 -25 -53 q-25 -21 -61 -21 q-37 0 -61.5 21.5 q-24.5 21.5 -24.5 56.5 q0 33 21 67 ZM41 533 l46 84 l120 10 l-52 -104 q37 -20 37 -61 q0 -32 -25 -53 q-25 -21 -61 -21 q-37 0 -61.5 21.5 q-24.5 21.5 -24.5 56.5 q0 33 21 67 Z" /><glyph glyph-name="quotedblright" unicode="&#x201d;" d="M186 482 l-46 -84 l-120 -10 l52 104 q-37 20 -37 61 q0 32 25 53 q25 21 61 21 q37 0 61.5 -21.5 q24.5 -21.5 24.5 -56.5 q0 -33 -21 -67 ZM388 482 l-46 -84 l-120 -10 l52 104 q-37 20 -37 61 q0 32 25 53 q25 21 61 21 q37 0 61.5 -21.5 q24.5 -21.5 24.5 -56.5 q0 -33 -21 -67 Z" /><glyph glyph-name="quotedblbase" unicode="&#x201e;" d="M186 2 l-46 -84 l-120 -10 l52 104 q-37 20 -37 61 q0 32 25 53 q25 21 61 21 q37 0 61.5 -21.5 q24.5 -21.5 24.5 -56.5 q0 -33 -21 -67 ZM388 2 l-46 -84 l-120 -10 l52 104 q-37 20 -37 61 q0 32 25 53 q25 21 61 21 q37 0 61.5 -21.5 q24.5 -21.5 24.5 -56.5 q0 -33 -21 -67 Z" /><glyph glyph-name="dagger" unicode="&#x2020;" d="M20 417 l0 128 l98 0 l0 111 l181 14 l0 -125 l99 0 l0 -128 l-99 0 l0 -471 l-181 0 l0 471 l-98 0 Z" /><glyph glyph-name="daggerdbl" unicode="&#x2021;" d="M21 417 l0 128 l98 0 l0 111 l181 14 l0 -125 l99 0 l0 -128 l-99 0 l0 -203 l98 0 l0 -128 l-98 0 l0 -140 l-181 0 l0 140 l-99 0 l0 128 l99 0 l0 203 l-98 0 Z" /><glyph glyph-name="bullet" unicode="&#x2022;" d="M53.5 248.5 q-33.5 33.5 -33.5 81.5 q0 48 33.5 82 q33.5 34 81.5 34 q48 0 82 -34 q34 -34 34 -82 q0 -48 -34 -81.5 q-34 -33.5 -82 -33.5 q-48 0 -81.5 33.5 Z" /><glyph glyph-name="twodotenleader" unicode="&#x2025;" d="M25 80 q0 33 23 56.5 q23 23.5 57 23.5 q33 0 56.5 -23.5 q23.5 -23.5 23.5 -56.5 q0 -34 -23.5 -57 q-23.5 -23 -56.5 -23 q-34 0 -57 23 q-23 23 -23 57 ZM235 80 q0 33 23 56.5 q23 23.5 57 23.5 q33 0 56.5 -23.5 q23.5 -23.5 23.5 -56.5 q0 -34 -23.5 -57 q-23.5 -23 -56.5 -23 q-34 0 -57 23 q-23 23 -23 57 Z" /><glyph glyph-name="ellipsis" unicode="&#x2026;" d="M25 80 q0 33 23 56.5 q23 23.5 57 23.5 q33 0 56.5 -23.5 q23.5 -23.5 23.5 -56.5 q0 -34 -23.5 -57 q-23.5 -23 -56.5 -23 q-34 0 -57 23 q-23 23 -23 57 ZM235 80 q0 33 23 56.5 q23 23.5 57 23.5 q33 0 56.5 -23.5 q23.5 -23.5 23.5 -56.5 q0 -34 -23.5 -57 q-23.5 -23 -56.5 -23 q-34 0 -57 23 q-23 23 -23 57 ZM445 80 q0 33 23 56.5 q23 23.5 57 23.5 q33 0 56.5 -23.5 q23.5 -23.5 23.5 -56.5 q0 -34 -23.5 -57 q-23.5 -23 -56.5 -23 q-34 0 -57 23 q-23 23 -23 57 Z" /><glyph glyph-name="perthousand" unicode="&#x2030;" d="M328 597 l179 8 l-168 -605 l-167 0 l156 597 ZM234 434 q0 -43 -13 -72 q-13 -29 -33.5 -41 q-20.5 -12 -35 -16 q-14.5 -4 -27.5 -4 q-46 0 -75.5 37.5 q-29.5 37.5 -29.5 95.5 q0 34 9.5 60 q9.5 26 22 39.5 q12.5 13.5 29 21 q16.5 7.5 27.5 9.5 q11 2 20 2 q12 0 26 -4 q14 -4 34 -15.5 q20 -11.5 33 -41 q13 -29.5 13 -71.5 ZM96 439 q0 -73 31 -73 q33 0 33 71 q0 59 -32 59 q-32 0 -32 -57 ZM647 133 q0 -43 -13 -72 q-13 -29 -33.5 -41 q-20.5 -12 -35 -16 q-14.5 -4 -27.5 -4 q-46 0 -75.5 37.5 q-29.5 37.5 -29.5 95.5 q0 34 9.5 60 q9.5 26 22 39.5 q12.5 13.5 29 21 q16.5 7.5 27.5 9.5 q11 2 20 2 q12 0 26 -4 q14 -4 34 -15.5 q20 -11.5 33 -41 q13 -29.5 13 -71.5 ZM509 138 q0 -73 31 -73 q33 0 33 71 q0 59 -32 59 q-32 0 -32 -57 ZM881 133 q0 -43 -13 -72 q-13 -29 -33.5 -41 q-20.5 -12 -35 -16 q-14.5 -4 -27.5 -4 q-46 0 -75.5 37.5 q-29.5 37.5 -29.5 95.5 q0 34 9.5 60 q9.5 26 22 39.5 q12.5 13.5 29 21 q16.5 7.5 27.5 9.5 q11 2 20 2 q12 0 26 -4 q14 -4 34 -15.5 q20 -11.5 33 -41 q13 -29.5 13 -71.5 ZM743 138 q0 -73 31 -73 q33 0 33 71 q0 59 -32 59 q-32 0 -32 -57 Z" /><glyph glyph-name="guilsinglleft" unicode="&#x2039;" d="M20 230 l1 84 l311 151 l0 -123 l-138 -75 l139 -66 l0 -119 l-313 148 Z" /><glyph glyph-name="guilsinglright" unicode="&#x203a;" d="M332 314 l1 -84 l-313 -148 l0 119 l139 66 l-138 75 l0 123 l311 -151 Z" /><glyph glyph-name="exclamdbl" unicode="&#x203c;" d="M181 175 l-146 0 l0 421 l175 9 q-29 -368 -29 -430 ZM110 115 q34 0 60.5 -26.5 q26.5 -26.5 26.5 -60.5 q0 -35 -26 -59.5 q-26 -24.5 -61 -24.5 q-37 0 -63.5 24.5 q-26.5 24.5 -26.5 59.5 q0 35 26.5 61 q26.5 26 63.5 26 ZM404 175 l-146 0 l0 421 l175 9 q-29 -368 -29 -430 ZM333 115 q35 0 61 -26.5 q26 -26.5 26 -60.5 q0 -35 -26 -59.5 q-26 -24.5 -61 -24.5 q-37 0 -63.5 24.5 q-26.5 24.5 -26.5 59.5 q0 35 26.5 61 q26.5 26 63.5 26 Z" /><glyph glyph-name="fraction" unicode="&#x2044;" d="M181 597 l179 8 l-168 -605 l-167 0 l156 597 Z" /><glyph glyph-name="zerosuperior" unicode="&#x2070;" d="M256 523.5 q11 -29.5 11 -69.5 q0 -40 -11 -70 q-11 -30 -25.5 -45.5 q-14.5 -15.5 -34 -25 q-19.5 -9.5 -32 -11.5 q-12.5 -2 -23.5 -2 q-54 0 -87.5 43 q-33.5 43 -33.5 111 q0 40 11 69.5 q11 29.5 25.5 44.5 q14.5 15 33.5 24.5 q19 9.5 31.5 11.5 q12.5 2 23.5 2 q10 0 22 -2 q12 -2 30.5 -11.5 q18.5 -9.5 33 -24.5 q14.5 -15 25.5 -44.5 ZM107 459 q2 -84 36 -84 q38 0 38 82 q0 68 -37 68 q-37 0 -37 -66 Z" /><glyph glyph-name="foursuperior" unicode="&#x2074;" d="M278 447 l-2 -79 l-34 0 l0 -65 l-93 -3 l0 65 l-117 0 l-12 63 l130 164 l88 7 l0 -154 q9 0 40 2 ZM97 444 l56 0 l0 74 q-29 -37 -56 -74 Z" /><glyph glyph-name="fivesuperior" unicode="&#x2075;" d="M111 500 l14 0 q34 0 57 -11.5 q23 -11.5 32.5 -30 q9.5 -18.5 13 -33 q3.5 -14.5 3.5 -28.5 l-1 -9 q-4 -65 -75 -83 q-11 -3 -33 -5 l-11 0 l-6 0 l-7 0 q-23 0 -42.5 5 q-19.5 5 -27.5 10 l-8 5 l13 67 q31 -10 58 -10 q38 0 39 25 q0 30 -57 30 q-6 0 -13 -0.5 q-7 -0.5 -12.5 -1 q-5.5 -0.5 -10 -1 q-4.5 -0.5 -7.5 -1.5 l-3 0 l-1 168 l194 9 l-3 -79 l-107 0 l1 -26 Z" /><glyph glyph-name="sixsuperior" unicode="&#x2076;" d="M147 506 q52 0 80 -29.5 q28 -29.5 28 -70.5 q0 -44 -31.5 -75 q-31.5 -31 -91.5 -31 q-35 0 -59.5 16.5 q-24.5 16.5 -35 43.5 q-10.5 27 -14 48.5 q-3.5 21.5 -3.5 42.5 q0 67 30.5 110.5 q30.5 43.5 87.5 43.5 q30 0 58.5 -4.5 q28.5 -4.5 41.5 -8.5 l13 -5 l-19 -70 q-37 16 -68 16 q-22 0 -37.5 -9.5 q-15.5 -9.5 -19.5 -18.5 l-4 -9 q22 10 44 10 ZM169 402 q0 34 -35 34 q-12 0 -24 -4 q-1 -5 -1 -11 q0 -43 32 -43 q11 0 19 6.5 q8 6.5 9 17.5 Z" /><glyph glyph-name="sevensuperior" unicode="&#x2077;" d="M20 599 l206 0 l4 -77 l-100 -222 l-95 0 l97 215 l-112 0 l0 84 Z" /><glyph glyph-name="eightsuperior" unicode="&#x2078;" d="M223 469 q36 -22 36 -71 q0 -46 -30.5 -72 q-30.5 -26 -88.5 -26 q-58 0 -89 26 q-31 26 -31 72 q0 50 37 71 q-23 21 -23 57 q0 5 0.5 11 q0.5 6 6.5 20 q6 14 16 25 q10 11 32 20 q22 9 51 10 q29 -1 50.5 -10 q21.5 -9 31.5 -20 q10 -11 15.5 -25 q5.5 -14 6.5 -20.5 q1 -6.5 1 -10.5 q-1 -36 -22 -57 ZM105 405 q0 -15 11 -26 q11 -11 26 -11 q10 0 18.5 7.5 q8.5 7.5 8.5 18.5 q0 13 -28.5 22.5 q-28.5 9.5 -30.5 12.5 q-5 -13 -5 -24 ZM149 493 q24 11 25 31 q0 20 -28 22 q-26 0 -26 -23 q0 -11 7 -18.5 q7 -7.5 15 -9.5 l7 -2 Z" /><glyph glyph-name="ninesuperior" unicode="&#x2079;" d="M128 399 q-52 0 -80 29.5 q-28 29.5 -28 70.5 q0 44 31.5 75 q31.5 31 91.5 31 q35 0 59.5 -16.5 q24.5 -16.5 35 -43.5 q10.5 -27 14 -48.5 q3.5 -21.5 3.5 -42.5 q0 -67 -30.5 -110.5 q-30.5 -43.5 -87.5 -43.5 q-30 0 -58.5 4.5 q-28.5 4.5 -41.5 9.5 l-13 4 l19 70 q37 -16 68 -16 q14 0 25.5 4 q11.5 4 18 9 q6.5 5 10.5 10.5 q4 5.5 5 9.5 l2 4 q-22 -10 -44 -10 ZM106 503 q0 -34 35 -34 q12 0 24 4 q1 5 1 11 q0 43 -32 43 q-26 0 -28 -24 Z" /><glyph glyph-name="parenleftsuperior" unicode="&#x207d;" d="M132 667 l13 -49 q-2 0 -5.5 -1.5 q-3.5 -1.5 -12.5 -7.5 q-9 -6 -16 -15 q-7 -9 -12.5 -26 q-5.5 -17 -5.5 -38 l0 -99 q0 -9 1.5 -18.5 q1.5 -9.5 5.5 -25.5 q4 -16 16 -26.5 q12 -10.5 29 -10.5 l0 -48 q-5 0 -13.5 0.5 q-8.5 0.5 -30 8 q-21.5 7.5 -38 20.5 q-16.5 13 -30 42.5 q-13.5 29.5 -13.5 69.5 l0 83 q0 13 3 28.5 q3 15.5 12 41 q9 25.5 34.5 45.5 q25.5 20 62.5 26 Z" /><glyph glyph-name="parenrightsuperior" unicode="&#x207e;" d="M20 618 l13 49 q37 -6 62.5 -26 q25.5 -20 34.5 -45.5 q9 -25.5 12 -41 q3 -15.5 3 -28.5 l0 -83 q0 -40 -13 -69.5 q-13 -29.5 -31.5 -42.5 q-18.5 -13 -36.5 -20.5 q-18 -7.5 -31 -8.5 l-13 0 l0 48 q17 0 29 10.5 q12 10.5 16 26.5 q4 16 5.5 25.5 q1.5 9.5 1.5 18.5 l0 99 q0 21 -5.5 38 q-5.5 17 -13 26 q-7.5 9 -15 15 q-7.5 6 -12.5 7 l-6 2 Z" /><glyph glyph-name="zeroinferior" unicode="&#x2080;" d="M247.5 231.5 q14.5 -32.5 14.5 -80.5 q0 -48 -15 -81.5 q-15 -33.5 -37.5 -47 q-22.5 -13.5 -39 -18 q-16.5 -4.5 -30.5 -4.5 q-53 0 -86.5 42.5 q-33.5 42.5 -33.5 108.5 q0 48 15 80.5 q15 32.5 38 46 q23 13.5 39 18 q16 4.5 31 4.5 q13 0 29 -4.5 q16 -4.5 38.5 -18 q22.5 -13.5 37 -46 ZM106 156 q0 -82 35 -82 q38 0 38 79 q0 67 -37 67 q-36 0 -36 -64 Z" /><glyph glyph-name="oneinferior" unicode="&#x2081;" d="M25 212 l-5 60 l85 24 l76 4 l0 -300 l-107 0 l10 227 l-59 -15 Z" /><glyph glyph-name="twoinferior" unicode="&#x2082;" d="M20 240 q45 60 122 60 q29 0 51 -8.5 q22 -8.5 32.5 -20.5 q10.5 -12 16.5 -24 q6 -12 7 -21 l1 -8 q0 -27 -8.5 -51.5 q-8.5 -24.5 -21 -40.5 q-12.5 -16 -25 -28 q-12.5 -12 -21.5 -18 l-8 -5 q13 0 44.5 3 q31.5 3 44.5 3 l-6 -81 l-214 0 l0 83 q32 5 74 42 q42 37 42 61 q0 18 -23 18 q-13 0 -29 -8 q-16 -8 -25 -16 l-10 -9 l-44 69 Z" /><glyph glyph-name="threeinferior" unicode="&#x2083;" d="M217 161 q31 -25 31 -69 q0 -38 -30 -65 q-30 -27 -81 -27 q-10 0 -32 2 q-28 4 -49 12 q-21 8 -28 14 l-8 5 l18 66 q39 -26 77 -26 q39 0 40 28 q0 19 -35 19 l-41 -5 l-2 67 l47 0 q38 3 38 23 q0 22 -36 22 q-18 0 -34 -9.5 q-16 -9.5 -23 -18.5 l-7 -9 l-42 65 q4 5 13.5 12.5 q9.5 7.5 42.5 20 q33 12.5 72 12.5 q29 0 49.5 -8 q20.5 -8 29.5 -21 q9 -13 12 -23.5 q3 -10.5 3 -21.5 q0 -39 -25 -65 Z" /><glyph glyph-name="fourinferior" unicode="&#x2084;" d="M278 148 l-2 -79 l-34 0 l0 -65 l-93 -4 l0 65 l-117 0 l-12 64 l130 163 l88 8 l0 -155 q2 0 5 0.5 q3 0.5 12.5 1 q9.5 0.5 22.5 1.5 ZM97 144 l56 0 l0 75 q-42 -52 -56 -75 Z" /><glyph glyph-name="fiveinferior" unicode="&#x2085;" d="M112 195 q5 1 14 1 q34 0 57.5 -12 q23.5 -12 33 -31 q9.5 -19 12.5 -33 q3 -14 3 -28 l0 -10 q-4 -65 -76 -82 q-12 -4 -33 -6 q-4 -1 -11 -1 l-7 0 l-6 0 q-23 1 -43 6 q-20 5 -28 10 l-8 5 l14 67 q31 -10 57 -10 q39 0 39 25 l0 1 q0 29 -57 29 q-6 0 -13 -0.5 q-7 -0.5 -12.5 -1 q-5.5 -0.5 -10 -1 q-4.5 -0.5 -7.5 -1.5 l-3 0 l0 170 l194 8 l-4 -78 l-106 0 l1 -27 Z" /><glyph glyph-name="sixinferior" unicode="&#x2086;" d="M145 202 q50 0 78 -29 q28 -29 28 -69 q0 -42 -31.5 -73 q-31.5 -31 -89.5 -31 q-35 0 -59 16.5 q-24 16.5 -34 43 q-10 26.5 -13.5 47 q-3.5 20.5 -3.5 41.5 q0 67 30 109.5 q30 42.5 86 42.5 q30 0 57.5 -4.5 q27.5 -4.5 40.5 -9.5 l12 -4 l-18 -69 q-38 17 -66 17 q-22 0 -37 -9 q-15 -9 -19 -19 l-5 -9 q20 9 44 9 ZM166 101 q0 32 -34 32 q-9 0 -24 -3 q-1 -5 -1 -11 q0 -42 31 -42 q28 0 28 24 Z" /><glyph glyph-name="seveninferior" unicode="&#x2087;" d="M20 300 l208 0 l3 -77 l-100 -224 l-96 0 l98 217 l-113 0 l0 84 Z" /><glyph glyph-name="eightinferior" unicode="&#x2088;" d="M223 157 q36 -22 36 -71 q0 -46 -30.5 -72 q-30.5 -26 -88.5 -26 q-58 0 -89 26 q-31 26 -31 72 q0 50 37 71 q-23 21 -23 57 q0 5 0.5 11 q0.5 6 6.5 20 q6 14 16 25 q10 11 32 20 q22 9 51 10 q29 -1 50.5 -10 q21.5 -9 31.5 -20 q10 -11 15.5 -25 q5.5 -14 6.5 -20.5 q1 -6.5 1 -10.5 q-1 -36 -22 -57 ZM105 93 q0 -15 11 -26 q11 -11 26 -11 q10 0 18.5 7.5 q8.5 7.5 8.5 18.5 q0 13 -28.5 22.5 q-28.5 9.5 -30.5 12.5 q-5 -13 -5 -24 ZM149 181 q24 11 25 31 q0 20 -28 22 q-26 0 -26 -23 q0 -11 7 -18.5 q7 -7.5 15 -9.5 l7 -2 Z" /><glyph glyph-name="nineinferior" unicode="&#x2089;" d="M126 98 q-50 0 -78 29 q-28 29 -28 69 q0 42 31.5 73 q31.5 31 89.5 31 q35 0 59 -16.5 q24 -16.5 34 -43 q10 -26.5 13.5 -47 q3.5 -20.5 3.5 -41.5 q0 -67 -30 -109.5 q-30 -42.5 -86 -42.5 q-30 0 -57.5 4.5 q-27.5 4.5 -39.5 9.5 l-13 4 l18 69 q38 -17 66 -17 q22 0 37 9 q15 9 20 19 l4 9 q-20 -9 -44 -9 ZM105 199 q0 -32 34 -32 q9 0 24 3 q1 5 1 11 q0 42 -31 42 q-28 0 -28 -24 Z" /><glyph glyph-name="parenleftinferior" unicode="&#x208d;" d="M132 367 l13 -49 q-2 0 -5.5 -1.5 q-3.5 -1.5 -12.5 -7.5 q-9 -6 -16 -15 q-7 -9 -12.5 -26 q-5.5 -17 -5.5 -38 l0 -99 q0 -9 1.5 -18.5 q1.5 -9.5 5.5 -25.5 q4 -16 16 -26.5 q12 -10.5 29 -10.5 l0 -48 q-5 0 -13.5 0.5 q-8.5 0.5 -30 8 q-21.5 7.5 -38 20.5 q-16.5 13 -30 42.5 q-13.5 29.5 -13.5 69.5 l0 83 q0 13 3 28.5 q3 15.5 12 41 q9 25.5 34.5 45.5 q25.5 20 62.5 26 Z" /><glyph glyph-name="parenrightinferior" unicode="&#x208e;" d="M20 318 l13 49 q37 -6 62.5 -26 q25.5 -20 34.5 -45.5 q9 -25.5 12 -41 q3 -15.5 3 -28.5 l0 -83 q0 -40 -13 -69.5 q-13 -29.5 -31.5 -42.5 q-18.5 -13 -36.5 -20.5 q-18 -7.5 -31 -8.5 l-13 0 l0 48 q17 0 29 10.5 q12 10.5 16 26.5 q4 16 5.5 25.5 q1.5 9.5 1.5 18.5 l0 99 q0 21 -5.5 38 q-5.5 17 -13 26 q-7.5 9 -15 15 q-7.5 6 -12.5 7 l-6 2 Z" /><glyph glyph-name="franc" unicode="&#x20a3;" d="M36 71 l0 114 l65 0 l0 395 l375 25 l0 -136 l-199 -17 l0 -101 l187 20 l6 -130 l-183 -13 l0 -43 l74 0 l0 -114 l-74 0 l0 -71 l-178 0 l0 71 l-73 0 Z" /><glyph glyph-name="peseta" unicode="&#x20a7;" d="M33 577 q122 28 198 28 q112 0 172.5 -51 q60.5 -51 60.5 -155 q0 -52 -21 -90.5 q-21 -38.5 -48.5 -57 q-27.5 -18.5 -63.5 -29.5 q-36 -11 -55.5 -13 q-19.5 -2 -36.5 -2 l-48 0 l20 -207 l-186 0 q9 32 9 370 l-1 207 ZM172 320 q11 -2 26 -2 q24 0 44.5 5 q20.5 5 39.5 24.5 q19 19.5 19 52.5 q0 78 -80 78 q-21 0 -49 -7 l0 -151 ZM545 152 l-5 135 l-41 0 l0 86 l39 4 l-5 101 l147 21 l0 -107 l92 9 l0 -114 l-95 0 l0 -82 q0 -22 1.5 -34.5 q1.5 -12.5 12.5 -25.5 q11 -13 33 -13 q21 0 36 8 l16 -115 q-37 -19 -100 -25 q-11 0 -22.5 1.5 q-11.5 1.5 -32 10 q-20.5 8.5 -35.5 23.5 q-15 15 -27.5 45 q-12.5 30 -13.5 72 ZM815 23 l17 101 q85 -22 133 -22 q34 0 34 16 q0 8 -8.5 12.5 q-8.5 4.5 -31.5 11.5 q-135 20 -135 123 q0 59 41 90 q41 31 108 31 q32 0 65 -8.5 q33 -8.5 49.5 -15.5 q16.5 -7 16.5 -6 q0 3 -30 -85 q-62 18 -89 18 q-34 0 -34 -21 q0 -12 26 -21 q26 -9 56.5 -16.5 q30.5 -7.5 56.5 -33.5 q26 -26 26 -69 q0 -68 -43.5 -98.5 q-43.5 -30.5 -111.5 -30.5 q-33 0 -69.5 6 q-36.5 6 -56.5 12 l-20 6 Z" /><glyph glyph-name="Euro" unicode="&#x20ac;" d="M28 221 l0 66 l73 0 l0 26 l-74 0 l0 55 l79 0 q8 56 30.5 99 q22.5 43 52 68.5 q29.5 25.5 68 42 q38.5 16.5 74.5 22 q36 5.5 76 5.5 q41 0 83 -5.5 q42 -5.5 64 -11.5 l22 -6 l-51 -156 q-44 14 -95 14 q-107 0 -139 -72 l138 0 l0 -55 l-151 0 l0 -26 l153 0 l0 -66 l-135 0 q35 -59 133 -59 q26 0 54 4 q28 4 43 8 l16 5 l55 -142 q-95 -32 -202 -32 q-250 0 -288 216 l-79 0 Z" /><glyph glyph-name="afii61352" unicode="&#x2116;" d="M20 0 l0 587 l157 18 l208 -370 l0 357 l178 13 l-30 -605 l-143 0 l-212 270 l0 -270 l-158 0 ZM863.5 522.5 q12.5 -29.5 12.5 -69.5 q0 -40 -12.5 -69.5 q-12.5 -29.5 -29 -44.5 q-16.5 -15 -38 -24.5 q-21.5 -9.5 -35.5 -11.5 q-14 -2 -26 -2 q-61 0 -99.5 42.5 q-38.5 42.5 -38.5 109.5 q0 40 12.5 69.5 q12.5 29.5 29 44.5 q16.5 15 38.5 24.5 q22 9.5 36 11.5 q14 2 26 2 q11 0 24 -2 q13 -2 34.5 -11.5 q21.5 -9.5 37.5 -24.5 q16 -15 28.5 -44.5 ZM592 251 l327 4 l0 -129 l-330 0 l3 125 ZM695 458 q3 -83 41 -83 q44 0 44 81 q0 68 -43 68 q-42 0 -42 -66 Z" /><glyph glyph-name="trademark" unicode="&#x2122;" d="M25 602 l99 4 l0 -32 l-29 -1 l0 -97 l-39 0 l0 97 l-31 0 l0 29 ZM140 603 l-5 -127 l36 0 l2 59 l26 -59 l24 1 l25 56 l-4 -57 l41 0 l0 130 l-31 -3 l-42 -82 l-34 85 l-38 -3 Z" /><glyph glyph-name="onethird" unicode="&#x2153;" d="M25 515 l-5 61 l85 24 l78 5 l0 -305 l-109 0 l10 230 l-59 -15 ZM300 597 l179 8 l-168 -605 l-167 0 l156 597 ZM599 174 q34 -28 34 -75 q0 -41 -32 -70 q-32 -29 -87 -29 q-17 0 -35 3 q-29 4 -52 12 q-23 8 -31 14 l-8 6 l19 72 q43 -28 83 -28 q40 0 43 29 q0 21 -38 21 l-44 -5 l-2 72 l51 0 q40 2 40 25 q0 23 -38 23 q-20 0 -37 -10 q-17 -10 -25 -20 l-7 -9 l-45 69 q5 5 14.5 13.5 q9.5 8.5 45 22 q35.5 13.5 77.5 13.5 q42 0 66.5 -15.5 q24.5 -15.5 30 -31 q5.5 -15.5 5.5 -33.5 q0 -41 -28 -69 Z" /><glyph glyph-name="twothirds" unicode="&#x2154;" d="M343 597 l179 8 l-168 -605 l-167 0 l156 597 ZM642 174 q34 -28 34 -75 q0 -41 -32 -70 q-32 -29 -87 -29 q-17 0 -35 3 q-29 4 -52 12 q-23 8 -31 14 l-8 6 l19 72 q43 -28 83 -28 q40 0 43 29 q0 21 -38 21 l-44 -5 l-2 72 l51 0 q40 2 40 25 q0 23 -38 23 q-20 0 -37.5 -10 q-17.5 -10 -24.5 -20 l-7 -9 l-45 69 q5 5 14.5 13.5 q9.5 8.5 45 22 q35.5 13.5 77.5 13.5 q42 0 66.5 -15.5 q24.5 -15.5 30 -31 q5.5 -15.5 5.5 -33.5 q0 -41 -28 -69 ZM20 540 q45 60 123 60 q29 0 51 -8.5 q22 -8.5 32.5 -21 q10.5 -12.5 16.5 -24.5 q6 -12 7 -20 l1 -9 q0 -43 -21.5 -78.5 q-21.5 -35.5 -42.5 -50.5 l-21 -14 q14 0 45.5 3 q31.5 3 44.5 3 l-6 -82 l-215 0 l0 84 q32 5 74 42.5 q42 37.5 42 60.5 q0 19 -22 19 q-13 0 -29 -8 q-16 -8 -26 -16 l-10 -9 l-44 69 Z" /><glyph glyph-name="oneeighth" unicode="&#x215b;" d="M25 515 l-5 61 l85 24 l78 5 l0 -305 l-109 0 l10 230 l-59 -15 ZM300 597 l179 8 l-168 -605 l-167 0 l156 597 ZM584 164 q38 -24 38 -74 q0 -48 -31.5 -75 q-31.5 -27 -92.5 -27 q-60 0 -92.5 27 q-32.5 27 -32.5 75 q0 49 39 74 q-24 22 -24 59 q0 5 1 11.5 q1 6.5 7 21 q6 14.5 16.5 25.5 q10.5 11 33 20.5 q22.5 9.5 52.5 10.5 q30 -1 52.5 -10.5 q22.5 -9.5 33 -20.5 q10.5 -11 16.5 -26 q6 -15 7 -21.5 q1 -6.5 1 -11.5 q-1 -37 -24 -58 ZM462 97 q0 -15 11.5 -27 q11.5 -12 26.5 -12 q11 0 19.5 8 q8.5 8 8.5 20 q0 14 -29.5 23.5 q-29.5 9.5 -31.5 12.5 q-5 -15 -5 -25 ZM508 188 q25 12 26 32 q0 23 -29 23 q-28 0 -28 -23 q0 -12 7.5 -20 q7.5 -8 15.5 -10 l8 -2 Z" /><glyph glyph-name="threeeighths" unicode="&#x215c;" d="M344 597 l179 8 l-168 -605 l-167 0 l156 597 ZM219 464 q32 -24 32 -70 q0 -39 -30 -66 q-30 -27 -82 -27 q-15 0 -33 3 q-28 4 -49.5 11.5 q-21.5 7.5 -28.5 12.5 l-8 6 l19 67 q39 -26 78 -26 q37 0 40 28 q0 19 -36 19 l-41 -4 l-3 68 l49 0 q37 0 37 23 q0 22 -35 22 q-19 0 -35.5 -9.5 q-16.5 -9.5 -23.5 -18.5 l-7 -9 l-42 65 q4 5 13.5 12.5 q9.5 7.5 42.5 20.5 q33 13 73 13 q30 0 51 -8 q21 -8 30 -21 q9 -13 12.5 -24 q3.5 -11 3.5 -22 q0 -39 -27 -66 ZM627 159 q37 -24 37 -72 q0 -47 -31 -73 q-31 -26 -90 -26 q-58 0 -89.5 26.5 q-31.5 26.5 -31.5 72.5 q0 46 37 72 q-22 22 -23 58 q0 4 1 10.5 q1 6.5 7 20.5 q6 14 16 25 q10 11 32 20 q22 9 51 10 q29 -1 51 -10 q22 -9 32 -20 q10 -11 16 -25.5 q6 -14.5 7 -21 q1 -6.5 1 -10.5 q-1 -37 -23 -57 ZM508 94 q0 -14 11 -25.5 q11 -11.5 26 -11.5 q11 0 19.5 7.5 q8.5 7.5 8.5 18.5 q0 14 -28.5 23.5 q-28.5 9.5 -30.5 12.5 q-6 -14 -6 -25 ZM552 183 q25 11 26 31 q0 22 -28 22 q-27 0 -27 -22 q0 -12 7.5 -19.5 q7.5 -7.5 14.5 -9.5 l7 -2 Z" /><glyph glyph-name="fiveeighths" unicode="&#x215d;" d="M344 597 l179 8 l-168 -605 l-167 0 l156 597 ZM627 159 q37 -24 37 -72 q0 -47 -31 -73 q-31 -26 -90 -26 q-58 0 -89.5 26.5 q-31.5 26.5 -31.5 72.5 q0 46 37 72 q-22 22 -23 58 q0 4 1 10.5 q1 6.5 7 20.5 q6 14 16 25 q10 11 32 20 q22 9 51 10 q29 -1 51 -10 q22 -9 32 -20 q10 -11 16 -25.5 q6 -14.5 7 -21 q1 -6.5 1 -10.5 q-1 -37 -23 -57 ZM508 94 q0 -14 11 -25.5 q11 -11.5 26 -11.5 q11 0 19.5 7.5 q8.5 7.5 8.5 18.5 q0 14 -28.5 23.5 q-28.5 9.5 -30.5 12.5 q-6 -14 -6 -25 ZM552 183 q25 11 26 31 q0 22 -28 22 q-27 0 -27 -22 q0 -12 7.5 -19.5 q7.5 -7.5 14.5 -9.5 l7 -2 ZM115 497 q5 1 14 1 q35 0 59 -12 q24 -12 33.5 -31.5 q9.5 -19.5 13 -34 q3.5 -14.5 3.5 -29.5 l0 -10 q-4 -68 -78 -84 q-12 -4 -34 -6 q-4 -1 -11 -1 l-7 0 l-7 0 q-24 1 -44 6 q-20 5 -29 10 l-8 5 l14 69 q32 -10 59 -10 q40 0 41 26 q0 31 -59 31 q-7 0 -14 -0.5 q-7 -0.5 -12.5 -1 q-5.5 -0.5 -10 -1 q-4.5 -0.5 -7.5 -0.5 l-3 -1 l-1 174 l200 8 l-4 -80 l-109 0 l1 -28 Z" /><glyph glyph-name="seveneighths" unicode="&#x215e;" d="M323 597 l179 8 l-168 -605 l-167 0 l156 597 ZM606 159 q37 -24 37 -72 q0 -47 -31 -73 q-31 -26 -90 -26 q-58 0 -89.5 26.5 q-31.5 26.5 -31.5 72.5 q0 46 37 72 q-22 22 -23 58 q0 4 1 10.5 q1 6.5 7 20.5 q6 14 16 25 q10 11 32 20 q22 9 51 10 q29 -1 51 -10 q22 -9 32 -20 q10 -11 16 -25.5 q6 -14.5 7 -21 q1 -6.5 1 -10.5 q-1 -37 -23 -57 ZM487 94 q0 -14 11 -25.5 q11 -11.5 26 -11.5 q11 0 19.5 7.5 q8.5 7.5 8.5 18.5 q0 14 -28.5 23.5 q-28.5 9.5 -30.5 12.5 q-6 -14 -6 -25 ZM531 183 q25 11 26 31 q0 22 -28 22 q-27 0 -27 -22 q0 -12 7 -19.5 q7 -7.5 15 -9.5 l7 -2 ZM20 599 l211 0 l3 -78 l-102 -227 l-97 0 l100 220 l-115 0 l0 85 Z" /><glyph glyph-name="minus" unicode="&#x2212;" d="M21 207 l0 150 l336 14 l0 -164 l-336 0 Z" /><glyph glyph-name="uni2215" unicode="&#x2215;" d="M181 597 l179 8 l-168 -605 l-167 0 l156 597 Z" /><glyph glyph-name="approxequal" unicode="&#x2248;" d="M20 345 q12 26 39.5 48.5 q27.5 22.5 61.5 22.5 q19 0 57 -15.5 q38 -15.5 52 -15.5 q13 0 26 10.5 q13 10.5 18.5 18.5 q5.5 8 8.5 14 l73 -35 q-16 -87 -102 -87 q-30 0 -60 12.5 q-30 12.5 -44 12.5 q-30 0 -39 -28 l-91 42 ZM20 199 q12 26 39.5 48.5 q27.5 22.5 61.5 22.5 q19 0 57 -15.5 q38 -15.5 52 -15.5 q13 0 26 10.5 q13 10.5 18.5 18.5 q5.5 8 8.5 14 l73 -35 q-16 -87 -102 -87 q-30 0 -60 12.5 q-30 12.5 -44 12.5 q-30 0 -39 -28 l-91 42 Z" /><glyph glyph-name="lessequal" unicode="&#x2264;" d="M20 -6 l0 108 l384 14 l0 -122 l-384 0 ZM55 266 l1 75 l278 135 l0 -110 l-124 -67 l124 -59 l0 -106 l-279 132 Z" /><glyph glyph-name="greaterequal" unicode="&#x2265;" d="M404 102 l0 -108 l-384 0 l0 122 l384 -14 ZM368 341 l1 -75 l-279 -132 l0 106 l124 59 l-124 67 l0 110 l278 -135 Z" /><glyph glyph-name="ff" unicode="&#xfb00;" d="M739 642 q123 0 178 -43 l0 -171 q-5 5 -14 12 q-9 7 -41 18.5 q-32 11.5 -69 11.5 q-99 0 -99 -110 l115 9 l0 -178 l-100 0 q7 -78 7 -193 l-181 0 l0 180 l-265 0 q6 -72 6 -180 l-181 0 l0 186 l-73 0 l0 156 l73 6 l0 85 q0 21 2.5 42 q2.5 21 14.5 53.5 q12 32.5 32.5 56.5 q20.5 24 60.5 41.5 q40 17.5 94 17.5 q123 0 178 -43 l0 -171 q-5 5 -14 12 q-9 7 -41 18.5 q-32 11.5 -69 11.5 q-94 0 -99 -110 l281 0 l0 71 q0 21 2.5 42 q2.5 21 14.5 53.5 q12 32.5 32.5 56.5 q20.5 24 60.5 41.5 q40 17.5 94 17.5 Z" /><glyph glyph-name="fi" unicode="&#xfb01;" d="M299 642 q123 0 178 -43 l0 -171 q-5 5 -14 12 q-9 7 -41 18.5 q-32 11.5 -69 11.5 q-99 0 -99 -110 l115 9 l0 -178 l-100 0 q7 -78 7 -193 l-181 0 l0 186 l-73 0 l0 156 l73 6 l0 85 q0 21 2.5 42 q2.5 21 14.5 53.5 q12 32.5 32.5 56.5 q20.5 24 60.5 41.5 q40 17.5 94 17.5 ZM524 678 l192 11 l-5 -141 l-179 -10 l-8 140 ZM525 484 l197 11 l0 -495 l-181 0 l-16 484 Z" /><glyph glyph-name="fl" unicode="&#xfb02;" d="M299 642 q123 0 178 -43 l0 -171 q-5 5 -14 12 q-9 7 -41 18.5 q-32 11.5 -69 11.5 q-99 0 -99 -110 l115 9 l0 -178 l-100 0 q7 -78 7 -193 l-181 0 l0 186 l-73 0 l0 156 l73 6 l0 85 q0 21 2.5 42 q2.5 21 14.5 53.5 q12 32.5 32.5 56.5 q20.5 24 60.5 41.5 q40 17.5 94 17.5 ZM465 630 l197 14 l0 -644 l-181 0 l-16 630 Z" /><glyph glyph-name="ffi" unicode="&#xfb03;" d="M299 642 q123 0 178 -43 l0 -171 q-5 5 -14 12 q-9 7 -41 18.5 q-32 11.5 -69 11.5 q-99 0 -99 -110 l115 9 l0 -178 l-100 0 q7 -78 7 -193 l-181 0 l0 186 l-73 0 l0 156 l73 6 l0 85 q0 21 2.5 42 q2.5 21 14.5 53.5 q12 32.5 32.5 56.5 q20.5 24 60.5 41.5 q40 17.5 94 17.5 ZM739 642 q123 0 178 -43 l0 -171 q-5 5 -14 12 q-9 7 -41 18.5 q-32 11.5 -69 11.5 q-99 0 -99 -110 l115 9 l0 -178 l-100 0 q7 -78 7 -193 l-181 0 l0 186 l-73 0 l0 156 l73 6 l0 85 q0 21 2.5 42 q2.5 21 14.5 53.5 q12 32.5 32.5 56.5 q20.5 24 60.5 41.5 q40 17.5 94 17.5 ZM964 678 l192 11 l-5 -141 l-179 -10 l-8 140 ZM965 484 l197 11 l0 -495 l-181 0 l-16 484 Z" /><glyph glyph-name="ffl" unicode="&#xfb04;" d="M299 642 q123 0 178 -43 l0 -171 q-5 5 -14 12 q-9 7 -41 18.5 q-32 11.5 -69 11.5 q-99 0 -99 -110 l115 9 l0 -178 l-100 0 q7 -78 7 -193 l-181 0 l0 186 l-73 0 l0 156 l73 6 l0 85 q0 21 2.5 42 q2.5 21 14.5 53.5 q12 32.5 32.5 56.5 q20.5 24 60.5 41.5 q40 17.5 94 17.5 ZM739 642 q123 0 178 -43 l0 -171 q-5 5 -14 12 q-9 7 -41 18.5 q-32 11.5 -69 11.5 q-99 0 -99 -110 l115 9 l0 -178 l-100 0 q7 -78 7 -193 l-181 0 l0 186 l-73 0 l0 156 l73 6 l0 85 q0 21 2.5 42 q2.5 21 14.5 53.5 q12 32.5 32.5 56.5 q20.5 24 60.5 41.5 q40 17.5 94 17.5 ZM905 630 l197 14 l0 -644 l-181 0 l-16 630 Z" /><glyph glyph-name="s_t" unicode="&#xfb06;" d="M449 197 l-8 171 q-49 0 -116.5 -1.5 q-67.5 -1.5 -69.5 -1.5 q-43 0 -43 -27 q0 -14 21 -22 q21 -8 51 -15 q30 -7 59.5 -18.5 q29.5 -11.5 50.5 -41.5 q21 -30 21 -75 q0 -88 -56 -127.5 q-56 -39.5 -144 -39.5 q-43 0 -90.5 7.5 q-47.5 7.5 -73.5 15.5 l-26 8 l22 131 q110 -29 173 -29 q44 0 44 21 q0 14 -11.5 19.5 q-11.5 5.5 -40.5 11.5 q-79 12 -127 50.5 q-48 38.5 -48 108.5 q0 76 53 116 q53 40 140 40 l209 0 l-5 120 l190 28 l0 -139 l119 12 l0 -148 l-123 0 l0 -106 q0 -16 0.5 -26 q0.5 -10 4 -24.5 q3.5 -14.5 9.5 -23 q6 -8.5 18 -15 q12 -6.5 30 -6.5 q25 0 46 11 l21 -149 q-48 -25 -130 -33 q-15 0 -29.5 2 q-14.5 2 -41 13 q-26.5 11 -46 30 q-19.5 19 -35.5 58.5 q-16 39.5 -18 93.5 Z" /></font>
</defs>
</svg>
