<svg width="20" height="18" viewBox="0 0 20 18" fill="none" xmlns="http://www.w3.org/2000/svg">
<path d="M2.22222 17.8891C1.61111 17.8891 1.08796 17.6715 0.652778 17.2363C0.217593 16.8011 0 16.278 0 15.6669V2.33355C0 1.72244 0.217593 1.19929 0.652778 0.764106C1.08796 0.328921 1.61111 0.111328 2.22222 0.111328H17.7778C18.3889 0.111328 18.912 0.328921 19.3472 0.764106C19.7824 1.19929 20 1.72244 20 2.33355V15.6669C20 16.278 19.7824 16.8011 19.3472 17.2363C18.912 17.6715 18.3889 17.8891 17.7778 17.8891H2.22222ZM2.22222 15.6669H17.7778V2.33355H2.22222V15.6669ZM4.44444 12.3336H7.77778C8.09259 12.3336 8.35648 12.2271 8.56944 12.0141C8.78241 11.8011 8.88889 11.5373 8.88889 11.2224V10.1113H7.22222V10.6669H5V7.33355H7.22222V7.88911H8.88889V6.778C8.88889 6.46318 8.78241 6.19929 8.56944 5.98633C8.35648 5.77337 8.09259 5.66688 7.77778 5.66688H4.44444C4.12963 5.66688 3.86574 5.77337 3.65278 5.98633C3.43982 6.19929 3.33333 6.46318 3.33333 6.778V11.2224C3.33333 11.5373 3.43982 11.8011 3.65278 12.0141C3.86574 12.2271 4.12963 12.3336 4.44444 12.3336ZM12.2222 12.3336H15.5556C15.8704 12.3336 16.1343 12.2271 16.3472 12.0141C16.5602 11.8011 16.6667 11.5373 16.6667 11.2224V10.1113H15V10.6669H12.7778V7.33355H15V7.88911H16.6667V6.778C16.6667 6.46318 16.5602 6.19929 16.3472 5.98633C16.1343 5.77337 15.8704 5.66688 15.5556 5.66688H12.2222C11.9074 5.66688 11.6435 5.77337 11.4306 5.98633C11.2176 6.19929 11.1111 6.46318 11.1111 6.778V11.2224C11.1111 11.5373 11.2176 11.8011 11.4306 12.0141C11.6435 12.2271 11.9074 12.3336 12.2222 12.3336Z" fill="#E28B04"/>
</svg>
