<svg width="188" height="52" viewBox="0 0 188 52" fill="none" xmlns="http://www.w3.org/2000/svg">
<g clip-path="url(#clip0_5074_5125)">
<path d="M4.41 52.4002L0 40.3302L1.84 39.6602L5.67 50.1402L10.83 48.2602L11.41 49.8502L4.41 52.4102V52.4002Z" fill="#692E95"/>
<path d="M20.2604 46.7296L13.4004 49.1296L9.15039 36.9996L16.0104 34.5996L16.5604 36.1796L11.5504 37.9396L12.7604 41.3896L17.4704 39.7396L18.0204 41.2996L13.3104 42.9496L14.7004 46.9096L19.7104 45.1496L20.2604 46.7296Z" fill="#692E95"/>
<path d="M26.6295 44.5802L21.8895 46.1802L21.5295 45.1202L22.8495 44.2602L19.7095 34.9702L18.1295 35.0702L17.7695 34.0102L22.5095 32.4102L22.8695 33.4702L21.5695 34.3502L24.7095 43.6402L26.2695 43.5302L26.6295 44.5902V44.5802Z" fill="#692E95"/>
<path d="M34.9 38.1598C35.1299 38.8798 35.1599 39.5598 34.9799 40.1998C34.7999 40.8398 34.4199 41.4098 33.8599 41.9198C33.2899 42.4298 32.5399 42.8298 31.6099 43.1398C31.1299 43.2998 30.6799 43.4198 30.2399 43.5098C29.7999 43.5998 29.4099 43.6598 29.0299 43.6798C28.6599 43.6998 28.3099 43.6798 27.9799 43.6398L27.4199 41.9098C27.9399 41.9698 28.5399 41.9698 29.2099 41.9198C29.8799 41.8698 30.5299 41.7398 31.1599 41.5398C31.7199 41.3598 32.1599 41.1298 32.4799 40.8598C32.7999 40.5898 33.0099 40.2898 33.1099 39.9598C33.2099 39.6298 33.1999 39.2898 33.0899 38.9398C32.9699 38.5798 32.7899 38.2898 32.5399 38.0998C32.2899 37.8998 31.9299 37.7598 31.4599 37.6698C30.9899 37.5798 30.3499 37.5198 29.5599 37.4798C28.7899 37.4498 28.1299 37.3498 27.5599 37.1798C26.9899 37.0098 26.5199 36.7398 26.1399 36.3598C25.7599 35.9898 25.4599 35.4798 25.2599 34.8398C25.0399 34.1698 25.0199 33.5398 25.2099 32.9498C25.3999 32.3698 25.7499 31.8498 26.2699 31.3898C26.7899 30.9398 27.4499 30.5798 28.2299 30.3198C28.9299 30.0898 29.5799 29.9498 30.1999 29.8998C30.8199 29.8498 31.3999 29.8498 31.9299 29.8998L31.8499 31.6298C31.3399 31.5798 30.8199 31.5698 30.2799 31.5998C29.7399 31.6298 29.2199 31.7298 28.6999 31.8998C28.2199 32.0598 27.8499 32.2498 27.5799 32.4898C27.3099 32.7298 27.1399 32.9898 27.0599 33.2798C26.9799 33.5698 26.9999 33.8698 27.0999 34.1898C27.2199 34.5698 27.4099 34.8498 27.6499 35.0498C27.8999 35.2498 28.2499 35.3898 28.6899 35.4698C29.1299 35.5498 29.7299 35.6198 30.4699 35.6698C31.2499 35.7098 31.9299 35.7998 32.5199 35.9398C33.0999 36.0798 33.5899 36.3298 33.9799 36.6698C34.3699 37.0098 34.6699 37.4998 34.8799 38.1398L34.9 38.1598Z" fill="#692E95"/>
<path d="M46.4802 33.3898C46.7502 34.2698 46.8202 35.1198 46.6802 35.9198C46.5402 36.7198 46.1702 37.4398 45.5802 38.0598C44.9902 38.6798 44.1402 39.1598 43.0402 39.4998C41.4802 39.9798 40.1602 39.9298 39.0902 39.3398C38.0202 38.7498 37.2602 37.7598 36.8302 36.3498L34.4102 28.5198L36.2902 27.9398L38.7102 35.7698C39.0102 36.7398 39.4902 37.4198 40.1402 37.7898C40.7902 38.1598 41.6202 38.1898 42.6202 37.8798C43.3202 37.6598 43.8402 37.3598 44.2002 36.9798C44.5502 36.5998 44.7602 36.1498 44.8202 35.6298C44.8802 35.1198 44.8202 34.5498 44.6202 33.9298L42.2102 26.1198L44.0702 25.5498L46.4902 33.3898H46.4802Z" fill="#692E95"/>
<path d="M50.8501 23.5501C51.8901 23.2501 52.7801 23.1301 53.5401 23.2001C54.3001 23.2701 54.9201 23.5101 55.4001 23.9301C55.8801 24.3501 56.2401 24.9501 56.4701 25.7401C56.6501 26.3701 56.6901 26.9401 56.5901 27.4401C56.4801 27.9401 56.2901 28.3801 56.0101 28.7501C55.7201 29.1301 55.4001 29.4601 55.0401 29.7501L60.0601 34.2501L57.8801 34.8801L53.5101 30.7301L51.3501 31.3601L52.8001 36.3601L50.9201 36.9101L47.3301 24.5701L50.8601 23.5401L50.8501 23.5501ZM51.2201 25.1301L49.6701 25.5801L50.9101 29.8501L52.5301 29.3801C53.4401 29.1201 54.0601 28.7401 54.3901 28.2401C54.7201 27.7401 54.7801 27.1301 54.5601 26.3901C54.4201 25.9101 54.2101 25.5401 53.9301 25.3001C53.6501 25.0601 53.2801 24.9201 52.8401 24.9001C52.3901 24.8701 51.8501 24.9501 51.2201 25.1401V25.1301Z" fill="#692E95"/>
<path d="M68.8302 31.8402L61.8202 33.7702L58.4102 21.3802L65.4202 19.4502L65.8702 21.0602L60.7502 22.4702L61.7202 25.9902L66.5302 24.6702L66.9702 26.2702L62.1602 27.5902L63.2702 31.6302L68.3902 30.2202L68.8402 31.8302L68.8302 31.8402Z" fill="#692E95"/>
<path d="M83.71 27.9902L81.46 24.7502L76.68 25.9602L76.26 29.8702L74.29 30.3702L75.85 16.6602L77.8 16.1602L85.7 27.4702L83.71 27.9702V27.9902ZM78.4 20.0902C78.34 19.9802 78.23 19.8002 78.07 19.5502C77.91 19.3002 77.76 19.0402 77.6 18.7702C77.45 18.5002 77.32 18.2802 77.23 18.1202C77.23 18.3802 77.23 18.6502 77.23 18.9502C77.23 19.2502 77.23 19.5102 77.21 19.7602C77.21 20.0102 77.19 20.2202 77.19 20.4002L76.81 24.1902L80.51 23.2502L78.39 20.0902H78.4Z" fill="#692E95"/>
<path d="M89.7505 14.8498C89.1305 14.9998 88.6005 15.2398 88.1505 15.5698C87.7005 15.8998 87.3605 16.3198 87.1105 16.8298C86.8605 17.3298 86.7205 17.8998 86.6805 18.5398C86.6405 19.1798 86.7105 19.8698 86.8905 20.6198C87.1205 21.5998 87.4705 22.4098 87.9405 23.0598C88.4105 23.7098 88.9805 24.1498 89.6705 24.3998C90.3605 24.6498 91.1505 24.6598 92.0505 24.4398C92.6005 24.3098 93.1105 24.1298 93.5805 23.9098C94.0505 23.6898 94.5105 23.4398 94.9505 23.1798L95.3405 24.8098C94.8905 25.1098 94.4305 25.3698 93.9405 25.5798C93.4505 25.7898 92.8605 25.9698 92.1805 26.1398C90.8905 26.4498 89.7605 26.4398 88.7905 26.1098C87.8105 25.7898 87.0005 25.1898 86.3405 24.3198C85.6805 23.4498 85.2005 22.3698 84.8905 21.0698C84.6605 20.1198 84.5905 19.2298 84.6705 18.3798C84.7405 17.5298 84.9705 16.7598 85.3405 16.0598C85.7105 15.3698 86.2405 14.7798 86.9205 14.2898C87.6005 13.7998 88.4205 13.4398 89.3905 13.2098C90.0205 13.0598 90.6605 12.9798 91.2905 12.9598C91.9205 12.9398 92.5305 12.9998 93.0905 13.1198L92.7605 14.8598C92.3205 14.7698 91.8505 14.7098 91.3405 14.6798C90.8305 14.6498 90.3005 14.6998 89.7605 14.8298L89.7505 14.8498Z" fill="#692E95"/>
<path d="M102.28 23.6398L100.38 24.0598L97.9501 13.1498L94.1901 13.9898L93.8301 12.3598L103.25 10.2598L103.62 11.8898L99.8601 12.7298L102.29 23.6398H102.28Z" fill="#692E95"/>
<path d="M111.83 21.5798L106.94 22.6198L106.71 21.5298L108.12 20.8298L106.09 11.2298L104.51 11.1398L104.28 10.0498L109.17 9.00977L109.4 10.0998L108.01 10.8198L110.04 20.4198L111.6 20.4898L111.83 21.5798Z" fill="#692E95"/>
<path d="M120.89 6.63965L118.98 20.1296L116.95 20.5396L110 8.81965L112.05 8.40965L116.25 15.6696C116.43 15.9596 116.6 16.2696 116.75 16.5796C116.9 16.8896 117.05 17.1896 117.19 17.4796C117.33 17.7696 117.45 18.0496 117.55 18.3096C117.55 18.0296 117.56 17.7196 117.58 17.3996C117.59 17.0696 117.62 16.7396 117.65 16.3996C117.68 16.0596 117.71 15.7096 117.75 15.3396L118.83 7.06965L120.89 6.65965V6.63965Z" fill="#692E95"/>
<path d="M128.96 18.2198L124.04 19.1498L123.83 18.0498L125.26 17.3798L123.45 7.73984L121.87 7.61984L121.66 6.51984L126.58 5.58984L126.79 6.68984L125.38 7.37984L127.19 17.0198L128.75 17.1298L128.96 18.2298V18.2198Z" fill="#692E95"/>
<path d="M135.58 17.0302L133.67 17.3702L131.72 6.3602L127.93 7.0302L127.64 5.3802L137.14 3.7002L137.43 5.3502L133.64 6.0202L135.59 17.0302H135.58Z" fill="#692E95"/>
<path d="M145.21 15.39L140.27 16.21L140.09 15.11L141.53 14.47L139.92 4.78996L138.34 4.62996L138.16 3.52996L143.1 2.70996L143.28 3.80996L141.86 4.46996L143.47 14.15L145.03 14.29L145.21 15.39Z" fill="#692E95"/>
<path d="M154.74 13.9002L147.55 15.0202L145.58 2.3202L152.77 1.2002L153.03 2.8502L147.78 3.6602L148.34 7.2702L153.27 6.5102L153.52 8.1502L148.59 8.9102L149.23 13.0502L154.48 12.2402L154.74 13.8902V13.9002Z" fill="#692E95"/>
<path d="M164.32 8.96004C164.43 9.71004 164.34 10.38 164.04 10.98C163.75 11.58 163.28 12.08 162.64 12.48C161.99 12.88 161.18 13.15 160.21 13.29C159.71 13.36 159.24 13.4 158.8 13.42C158.36 13.43 157.95 13.42 157.59 13.37C157.22 13.33 156.88 13.25 156.56 13.15L156.3 11.35C156.8 11.5 157.39 11.6 158.06 11.67C158.73 11.74 159.39 11.73 160.04 11.63C160.62 11.55 161.1 11.4 161.46 11.19C161.83 10.98 162.08 10.72 162.24 10.42C162.4 10.11 162.45 9.78004 162.4 9.41004C162.35 9.03004 162.21 8.72004 162 8.48004C161.79 8.24004 161.46 8.04004 161.01 7.87004C160.56 7.70004 159.95 7.53004 159.17 7.36004C158.42 7.20004 157.78 6.99004 157.25 6.72004C156.72 6.46004 156.3 6.11004 155.99 5.67004C155.68 5.24004 155.48 4.69004 155.38 4.02004C155.28 3.32004 155.38 2.70004 155.66 2.15004C155.95 1.61004 156.38 1.16004 156.98 0.800043C157.57 0.440043 158.28 0.210043 159.1 0.090043C159.82 -0.00995696 160.5 -0.039957 161.12 0.020043C161.74 0.080043 162.31 0.180043 162.83 0.320043L162.45 2.01004C161.96 1.87004 161.44 1.77004 160.91 1.71004C160.37 1.65004 159.84 1.65004 159.3 1.73004C158.8 1.80004 158.4 1.93004 158.09 2.12004C157.78 2.31004 157.57 2.54004 157.44 2.81004C157.32 3.08004 157.28 3.38004 157.32 3.72004C157.38 4.11004 157.51 4.43004 157.72 4.66004C157.93 4.90004 158.25 5.09004 158.68 5.25004C159.11 5.41004 159.68 5.57004 160.4 5.75004C161.16 5.92004 161.82 6.13004 162.37 6.37004C162.92 6.61004 163.36 6.94004 163.68 7.34004C164 7.74004 164.21 8.28004 164.31 8.94004L164.32 8.96004Z" fill="#692E95"/>
<path d="M175.577 9.34447L179.629 5.03871L180.94 6.27186L175.655 11.8881L170.038 6.60313L171.272 5.29268L175.577 9.34447Z" fill="#692E96"/>
</g>
<defs>
<clipPath id="clip0_5074_5125">
<rect width="188" height="52" fill="white"/>
</clipPath>
</defs>
</svg>
