<svg xmlns="http://www.w3.org/2000/svg" xmlns:xlink="http://www.w3.org/1999/xlink" version="1.1" width="1000" height="1000" viewBox="0 0 1000 1000" xml:space="preserve">
<desc>Created with Fabric.js 3.5.0</desc>
<defs>
</defs>
<rect x="0" y="0" width="100%" height="100%" fill="#ffffff"/>
<g transform="matrix(1 0 0 1 416.6276 471.1824)" id="215080">
<g style="">
		<g transform="matrix(1 0 0 1 -0.0932 0)" id="234969">
<g style="" vector-effect="non-scaling-stroke">
		<g transform="matrix(1 0 0 1 -57.1994 -13.5383)">
<path style="stroke: none; stroke-width: 1; stroke-dasharray: none; stroke-linecap: butt; stroke-dashoffset: 0; stroke-linejoin: miter; stroke-miterlimit: 4; is-custom-font: none; font-file-url: none; fill: rgb(105,46,150); fill-rule: nonzero; opacity: 1;" transform=" translate(-4.8005, -5.9617)" d="M 6.2501 1.56987 C 5.6801 1.48987 5.1601 1.50987 4.6801 1.63987 C 4.2001 1.76987 3.7701 1.99987 3.3901 2.33987 C 3.0101 2.67987 2.7001 3.10987 2.4601 3.62987 C 2.2101 4.14987 2.0401 4.74987 1.9401 5.42987 C 1.8101 6.32987 1.8301 7.11987 2.0001 7.81987 C 2.1701 8.51987 2.5101 9.07987 3.0001 9.50987 C 3.4901 9.93987 4.1501 10.2199 4.9701 10.3399 C 5.4701 10.4099 5.9601 10.4399 6.4301 10.4099 C 6.9001 10.3799 7.3601 10.3299 7.8201 10.2599 L 7.6001 11.7499 C 7.1301 11.8499 6.6501 11.9099 6.1801 11.9199 C 5.7001 11.9299 5.1501 11.8899 4.5201 11.7999 C 3.3501 11.6299 2.4001 11.2399 1.7001 10.6499 C 0.990099 10.0499 0.510099 9.27987 0.250099 8.33987 C -0.0299013 7.38987 -0.0699013 6.32987 0.110099 5.13987 C 0.240099 4.27987 0.480099 3.49987 0.820099 2.81987 C 1.1601 2.13987 1.6101 1.56987 2.1501 1.10987 C 2.6901 0.659873 3.3301 0.339873 4.0601 0.159873 C 4.7901 -0.0201267 5.6001 -0.0501266 6.4801 0.0898734 C 7.0601 0.169873 7.6101 0.319873 8.1501 0.519873 C 8.6901 0.719873 9.1701 0.969873 9.6001 1.25987 L 8.7501 2.60987 C 8.4101 2.38987 8.0401 2.17987 7.6201 1.98987 C 7.2101 1.79987 6.7501 1.65987 6.2501 1.58987 V 1.56987 Z" stroke-linecap="round"/>
</g>
		<g transform="matrix(1 0 0 1 -47.9151 -12.2204)">
<path style="stroke: none; stroke-width: 1; stroke-dasharray: none; stroke-linecap: butt; stroke-dashoffset: 0; stroke-linejoin: miter; stroke-miterlimit: 4; is-custom-font: none; font-file-url: none; fill: rgb(105,46,150); fill-rule: nonzero; opacity: 1;" transform=" translate(-14.0849, -7.2796)" d="M 16.3999 13.4996 L 9.93994 12.4696 L 11.7699 1.05957 L 18.2299 2.08957 L 17.9899 3.57957 L 13.2799 2.81957 L 12.7599 6.05957 L 17.1899 6.76957 L 16.9499 8.23957 L 12.5199 7.52957 L 11.9199 11.2496 L 16.6299 12.0096 L 16.3899 13.4996 H 16.3999 Z" stroke-linecap="round"/>
</g>
		<g transform="matrix(1 0 0 1 -39.785 -10.7252)">
<path style="stroke: none; stroke-width: 1; stroke-dasharray: none; stroke-linecap: butt; stroke-dashoffset: 0; stroke-linejoin: miter; stroke-miterlimit: 4; is-custom-font: none; font-file-url: none; fill: rgb(105,46,150); fill-rule: nonzero; opacity: 1;" transform=" translate(-22.215, -8.7748)" d="M 18.78 13.8998 L 20.74 2.50977 L 22.48 2.80977 L 20.78 12.6998 L 25.65 13.5398 L 25.39 15.0398 L 18.79 13.9098 L 18.78 13.8998 Z" stroke-linecap="round"/>
</g>
		<g transform="matrix(1 0 0 1 -30.475 -9.225)">
<path style="stroke: none; stroke-width: 1; stroke-dasharray: none; stroke-linecap: butt; stroke-dashoffset: 0; stroke-linejoin: miter; stroke-miterlimit: 4; is-custom-font: none; font-file-url: none; fill: rgb(105,46,150); fill-rule: nonzero; opacity: 1;" transform=" translate(-31.525, -10.275)" d="M 33.7 16.55 L 27.27 15.37 L 29.35 4 L 35.78 5.18 L 35.51 6.66 L 30.81 5.8 L 30.22 9.03 L 34.63 9.84 L 34.36 11.3 L 29.95 10.49 L 29.27 14.2 L 33.97 15.06 L 33.7 16.54 V 16.55 Z" stroke-linecap="round"/>
</g>
		<g transform="matrix(1 0 0 1 -21.2013 -7.7236)">
<path style="stroke: none; stroke-width: 1; stroke-dasharray: none; stroke-linecap: butt; stroke-dashoffset: 0; stroke-linejoin: miter; stroke-miterlimit: 4; is-custom-font: none; font-file-url: none; fill: rgb(105,46,150); fill-rule: nonzero; opacity: 1;" transform=" translate(-40.7987, -11.7764)" d="M 41.6601 6.30965 C 43.1201 6.59965 44.1701 7.01965 44.8101 7.58965 C 45.4501 8.15965 45.6601 8.94965 45.4701 9.96965 C 45.3801 10.4296 45.2201 10.8096 44.9901 11.1196 C 44.7601 11.4296 44.4601 11.6696 44.1101 11.8296 C 43.7501 11.9896 43.3501 12.0696 42.9001 12.0696 L 42.8801 12.1496 C 43.3101 12.3096 43.6901 12.5296 44.0201 12.7996 C 44.3501 13.0696 44.5901 13.4096 44.7401 13.8196 C 44.8901 14.2296 44.9101 14.7396 44.7901 15.3296 C 44.6601 16.0196 44.3801 16.5696 43.9501 16.9896 C 43.5301 17.4096 42.9901 17.6896 42.3501 17.8196 C 41.7101 17.9596 40.9701 17.9396 40.1301 17.7796 L 36.0601 16.9796 L 38.2801 5.63965 L 41.6501 6.29965 L 41.6601 6.30965 Z M 38.8201 12.1096 L 38.0701 15.9196 L 40.1301 16.3196 C 41.0501 16.4996 41.7301 16.4396 42.1601 16.1496 C 42.5901 15.8596 42.8601 15.4196 42.9801 14.8296 C 43.0501 14.4696 43.0301 14.1396 42.9301 13.8296 C 42.8201 13.5196 42.6001 13.2496 42.2601 13.0196 C 41.9201 12.7896 41.4301 12.6096 40.7901 12.4796 L 38.8201 12.0896 V 12.1096 Z M 40.9801 11.1096 C 41.8701 11.2796 42.5101 11.2596 42.8901 11.0196 C 43.2801 10.7896 43.5201 10.3896 43.6301 9.82965 C 43.7401 9.26965 43.6301 8.81965 43.2701 8.48965 C 42.9201 8.15965 42.3101 7.90965 41.4201 7.72965 L 39.7401 7.39965 L 39.0901 10.7396 L 40.9801 11.1096 Z" stroke-linecap="round"/>
</g>
		<g transform="matrix(1 0 0 1 -10.9863 -5.2248)">
<path style="stroke: none; stroke-width: 1; stroke-dasharray: none; stroke-linecap: butt; stroke-dashoffset: 0; stroke-linejoin: miter; stroke-miterlimit: 4; is-custom-font: none; font-file-url: none; fill: rgb(105,46,150); fill-rule: nonzero; opacity: 1;" transform=" translate(-51.0137, -14.2752)" d="M 52.0099 8.41023 C 52.9599 8.61023 53.7199 8.90024 54.2899 9.27024 C 54.8599 9.64024 55.2499 10.1002 55.4599 10.6402 C 55.6699 11.1802 55.6899 11.8102 55.5399 12.5302 C 55.4199 13.1102 55.2099 13.5802 54.9199 13.9302 C 54.6299 14.2802 54.2899 14.5502 53.8999 14.7302 C 53.5199 14.9102 53.1199 15.0402 52.6999 15.1202 L 54.7799 20.8102 L 52.7799 20.3902 L 51.0599 15.2502 L 49.0799 14.8302 L 48.1199 19.4102 L 46.3899 19.0502 L 48.7599 7.74023 L 51.9899 8.42023 L 52.0099 8.41023 Z M 51.6399 9.82023 L 50.2099 9.52024 L 49.3899 13.4302 L 50.8799 13.7402 C 51.7099 13.9102 52.3699 13.8802 52.8399 13.6202 C 53.3099 13.3702 53.6199 12.9002 53.7599 12.2302 C 53.8499 11.7902 53.8399 11.4102 53.7199 11.1002 C 53.5999 10.7902 53.3699 10.5302 53.0199 10.3202 C 52.6699 10.1102 52.2199 9.94023 51.6399 9.82023 Z" stroke-linecap="round"/>
</g>
		<g transform="matrix(1 0 0 1 -1.9151 -2.7098)">
<path style="stroke: none; stroke-width: 1; stroke-dasharray: none; stroke-linecap: butt; stroke-dashoffset: 0; stroke-linejoin: miter; stroke-miterlimit: 4; is-custom-font: none; font-file-url: none; fill: rgb(105,46,150); fill-rule: nonzero; opacity: 1;" transform=" translate(-60.0849, -16.7902)" d="M 63.4499 22.7302 L 62.9599 19.2202 L 58.6299 18.2502 L 56.7099 21.2202 L 54.9199 20.8202 L 61.7299 10.4502 L 63.4999 10.8502 L 65.2499 23.1302 L 63.4499 22.7302 Z M 62.3899 14.2302 C 62.3899 14.1202 62.3699 13.9302 62.3399 13.6602 C 62.3199 13.3902 62.2999 13.1202 62.2799 12.8402 C 62.2699 12.5602 62.2499 12.3402 62.2499 12.1702 C 62.1499 12.3802 62.0399 12.6002 61.9199 12.8302 C 61.7999 13.0602 61.6899 13.2802 61.5799 13.4702 C 61.4699 13.6702 61.3799 13.8302 61.2999 13.9702 L 59.4599 16.8602 L 62.8099 17.6102 L 62.3899 14.2202 V 14.2302 Z" stroke-linecap="round"/>
</g>
		<g transform="matrix(1 0 0 1 9.0249 -1.6003)">
<path style="stroke: none; stroke-width: 1; stroke-dasharray: none; stroke-linecap: butt; stroke-dashoffset: 0; stroke-linejoin: miter; stroke-miterlimit: 4; is-custom-font: none; font-file-url: none; fill: rgb(105,46,150); fill-rule: nonzero; opacity: 1;" transform=" translate(-71.0249, -17.8997)" d="M 69.3999 24.1197 L 67.6999 23.7197 L 69.9999 13.9397 L 66.6299 13.1497 L 66.9699 11.6797 L 75.4199 13.6597 L 75.0799 15.1297 L 71.7099 14.3397 L 69.4099 24.1197 H 69.3999 Z" stroke-linecap="round"/>
</g>
		<g transform="matrix(1 0 0 1 15.1201 0.5346)">
<path style="stroke: none; stroke-width: 1; stroke-dasharray: none; stroke-linecap: butt; stroke-dashoffset: 0; stroke-linejoin: miter; stroke-miterlimit: 4; is-custom-font: none; font-file-url: none; fill: rgb(105,46,150); fill-rule: nonzero; opacity: 1;" transform=" translate(-77.1201, -20.0346)" d="M 77.9301 26.1796 L 73.5601 25.1096 L 73.8001 24.1396 L 75.2201 24.1196 L 77.3201 15.5496 L 76.0701 14.8596 L 76.3101 13.8896 L 80.6801 14.9596 L 80.4401 15.9296 L 79.0301 15.9696 L 76.9301 24.5396 L 78.1701 25.2096 L 77.9301 26.1796 Z" stroke-linecap="round"/>
</g>
		<g transform="matrix(1 0 0 1 24.1127 2.7888)">
<path style="stroke: none; stroke-width: 1; stroke-dasharray: none; stroke-linecap: butt; stroke-dashoffset: 0; stroke-linejoin: miter; stroke-miterlimit: 4; is-custom-font: none; font-file-url: none; fill: rgb(105,46,150); fill-rule: nonzero; opacity: 1;" transform=" translate(-86.1127, -22.2889)" d="M 91.3199 23.6096 C 91.0999 24.4796 90.7899 25.2396 90.3899 25.8896 C 89.9899 26.5396 89.5099 27.0696 88.9499 27.4696 C 88.3899 27.8696 87.7399 28.1196 87.0199 28.2296 C 86.2999 28.3396 85.4999 28.2696 84.6399 28.0496 C 83.7499 27.8196 83.0199 27.4796 82.4299 27.0396 C 81.8499 26.5996 81.3999 26.0596 81.0999 25.4396 C 80.7999 24.8196 80.6299 24.1296 80.6099 23.3696 C 80.5799 22.6096 80.6799 21.7896 80.8999 20.9196 C 81.1999 19.7696 81.6499 18.8196 82.2499 18.0596 C 82.8499 17.2996 83.5999 16.7796 84.4999 16.4996 C 85.3999 16.2196 86.4399 16.2296 87.6199 16.5296 C 88.7699 16.8296 89.6699 17.3096 90.3099 17.9796 C 90.9599 18.6496 91.3599 19.4696 91.5299 20.4296 C 91.6999 21.3896 91.6299 22.4496 91.3299 23.6096 H 91.3199 Z M 82.6999 21.3896 C 82.4699 22.2796 82.3899 23.0796 82.4699 23.7896 C 82.5399 24.4996 82.7899 25.0896 83.2099 25.5696 C 83.6299 26.0496 84.2299 26.3796 85.0099 26.5896 C 85.7999 26.7896 86.4999 26.7896 87.0899 26.5696 C 87.6799 26.3496 88.1799 25.9496 88.5899 25.3696 C 88.9999 24.7796 89.3099 24.0496 89.5399 23.1596 C 89.8799 21.8196 89.8899 20.6996 89.5399 19.7996 C 89.1999 18.8996 88.4299 18.2896 87.2399 17.9896 C 86.4499 17.7896 85.7499 17.7896 85.1599 18.0096 C 84.5599 18.2196 84.0599 18.6196 83.6599 19.1996 C 83.2599 19.7796 82.9399 20.5096 82.7099 21.4096 L 82.6999 21.3896 Z" stroke-linecap="round"/>
</g>
		<g transform="matrix(1 0 0 1 36.35 6.0497)">
<path style="stroke: none; stroke-width: 1; stroke-dasharray: none; stroke-linecap: butt; stroke-dashoffset: 0; stroke-linejoin: miter; stroke-miterlimit: 4; is-custom-font: none; font-file-url: none; fill: rgb(105,46,150); fill-rule: nonzero; opacity: 1;" transform=" translate(-98.35, -25.5497)" d="M 101.41 32.3697 L 99.35 31.8097 L 96.2 21.2597 L 96.14 21.2397 C 96.1 21.4897 96.03 21.7797 95.96 22.1097 C 95.88 22.4497 95.8 22.7997 95.72 23.1697 C 95.64 23.5397 95.54 23.8997 95.44 24.2697 L 93.79 30.2797 L 92.24 29.8597 L 95.3 18.7197 L 97.34 19.2797 L 100.49 29.7797 L 100.55 29.7997 C 100.59 29.6197 100.64 29.3597 100.72 29.0197 C 100.8 28.6797 100.88 28.3197 100.97 27.9297 C 101.06 27.5397 101.15 27.1897 101.23 26.8797 L 102.9 20.8097 L 104.46 21.2397 L 101.4 32.3797 L 101.41 32.3697 Z" stroke-linecap="round"/>
</g>
		<g transform="matrix(1 0 0 1 46.665 8.9502)">
<path style="stroke: none; stroke-width: 1; stroke-dasharray: none; stroke-linecap: butt; stroke-dashoffset: 0; stroke-linejoin: miter; stroke-miterlimit: 4; is-custom-font: none; font-file-url: none; fill: rgb(105,46,150); fill-rule: nonzero; opacity: 1;" transform=" translate(-108.665, -28.4502)" d="M 111.63 32.0104 C 111.44 32.6604 111.12 33.1804 110.66 33.5704 C 110.2 33.9504 109.63 34.1904 108.95 34.2804 C 108.27 34.3704 107.51 34.2904 106.66 34.0504 C 106.23 33.9204 105.82 33.7904 105.46 33.6304 C 105.1 33.4704 104.77 33.3204 104.48 33.1404 C 104.19 32.9604 103.94 32.7804 103.72 32.5804 L 104.17 31.0104 C 104.53 31.3204 104.97 31.6204 105.5 31.9204 C 106.02 32.2204 106.57 32.4604 107.14 32.6204 C 107.65 32.7704 108.09 32.8204 108.47 32.7804 C 108.85 32.7404 109.15 32.6304 109.4 32.4304 C 109.64 32.2404 109.81 31.9804 109.9 31.6604 C 110 31.3304 110 31.0304 109.92 30.7604 C 109.84 30.4904 109.64 30.2004 109.34 29.8904 C 109.04 29.5804 108.6 29.2204 108.02 28.7904 C 107.46 28.3804 107.02 27.9704 106.68 27.5604 C 106.34 27.1504 106.13 26.7104 106.03 26.2404 C 105.94 25.7704 105.97 25.2404 106.14 24.6604 C 106.32 24.0504 106.62 23.5704 107.06 23.2304 C 107.5 22.8904 108.02 22.6804 108.64 22.6104 C 109.26 22.5404 109.92 22.6104 110.64 22.8104 C 111.27 22.9904 111.83 23.2204 112.32 23.5004 C 112.81 23.7804 113.24 24.0704 113.61 24.3804 L 112.68 25.6304 C 112.33 25.3404 111.94 25.0704 111.52 24.8204 C 111.1 24.5704 110.66 24.3804 110.2 24.2404 C 109.76 24.1104 109.39 24.0704 109.07 24.1104 C 108.75 24.1504 108.49 24.2604 108.28 24.4404 C 108.08 24.6204 107.93 24.8504 107.85 25.1404 C 107.75 25.4804 107.74 25.7904 107.83 26.0604 C 107.91 26.3304 108.1 26.6104 108.4 26.9004 C 108.69 27.1904 109.1 27.5404 109.62 27.9404 C 110.18 28.3604 110.65 28.7704 111.01 29.1704 C 111.37 29.5704 111.61 30.0004 111.73 30.4504 C 111.85 30.9004 111.82 31.4104 111.65 31.9904 L 111.63 32.0104 Z" stroke-linecap="round"/>
</g>
</g>
</g>
		<g transform="matrix(0.7958 0.096 -0.096 0.7958 57.1057 15.3619)" id="125578">
<path style="stroke: none; stroke-width: 1; stroke-dasharray: none; stroke-linecap: butt; stroke-dashoffset: 0; stroke-linejoin: miter; stroke-miterlimit: 4; is-custom-font: none; font-file-url: none; fill: rgb(105,46,150); fill-rule: nonzero; opacity: 1;" vector-effect="non-scaling-stroke" transform=" translate(-6.032, -4.3367)" d="M 5.00107 5.84259 L 10.3923 3.41538 L 11.131 5.05618 L 4.09898 8.22211 L 0.93305 1.19008 L 2.57386 0.451368 L 5.00107 5.84259 Z" stroke-linecap="round"/>
</g>
</g>
</g>
</svg>