<svg width="137" height="46" viewBox="0 0 137 46" fill="none" xmlns="http://www.w3.org/2000/svg">
<g clip-path="url(#clip0_5074_5146)">
<path d="M7.11222 1.75951C6.48222 1.65951 5.90222 1.67951 5.36222 1.81951C4.82222 1.95951 4.34222 2.20951 3.92222 2.57951C3.50222 2.94951 3.14222 3.41951 2.87222 3.99951C2.59222 4.57951 2.39222 5.23951 2.27222 5.99951C2.11222 6.99951 2.13222 7.87951 2.31222 8.65951C2.50222 9.43951 2.86222 10.0695 3.40222 10.5595C3.94222 11.0495 4.67222 11.3595 5.58222 11.5095C6.14222 11.5995 6.68222 11.6295 7.20222 11.5995C7.72222 11.5695 8.24222 11.5195 8.75222 11.4395L8.49222 13.0895C7.96222 13.1995 7.43222 13.2595 6.90222 13.2695C6.37222 13.2695 5.76222 13.2195 5.06222 13.1095C3.76222 12.8995 2.71222 12.4595 1.94222 11.7895C1.16222 11.1195 0.632221 10.2595 0.352221 9.20951C0.0722207 8.15951 0.0422207 6.96951 0.252221 5.65951C0.402221 4.69951 0.682221 3.83951 1.07222 3.07951C1.46222 2.31951 1.96222 1.68951 2.57222 1.19951C3.18222 0.699514 3.89222 0.359514 4.70222 0.159514C5.51222 -0.0304856 6.41222 -0.0504856 7.40222 0.109514C8.04222 0.209514 8.66222 0.379514 9.25222 0.609514C9.85222 0.839514 10.3822 1.11951 10.8522 1.44951L9.89222 2.93951C9.52222 2.68951 9.10222 2.44951 8.64222 2.22951C8.18222 2.00951 7.68222 1.85951 7.12222 1.76951L7.11222 1.75951Z" fill="#692F96"/>
<path d="M18.2528 15.16L11.0928 13.92L13.2728 1.25L20.4428 2.49L20.1528 4.14L14.9228 3.23L14.3028 6.83L19.2128 7.68L18.9328 9.31L14.0228 8.46L13.3128 12.59L18.5428 13.5L18.2528 15.15V15.16Z" fill="#692F96"/>
<path d="M20.8926 15.6398L23.2426 3.00977L25.1726 3.36977L23.1326 14.3398L28.5326 15.3498L28.2226 17.0098L20.8926 15.6498V15.6398Z" fill="#692F96"/>
<path d="M37.4425 18.8296L30.3125 17.4096L32.8225 4.80957L39.9525 6.22957L39.6225 7.86957L34.4125 6.82957L33.7025 10.4096L38.5925 11.3796L38.2725 12.9996L33.3825 12.0296L32.5625 16.1396L37.7725 17.1796L37.4425 18.8196V18.8296Z" fill="#692F96"/>
<path d="M46.4727 7.5998C48.0927 7.9498 49.2527 8.4398 49.9427 9.0898C50.6427 9.7398 50.8627 10.6198 50.6227 11.7498C50.5127 12.2498 50.3327 12.6798 50.0627 13.0198C49.8027 13.3598 49.4727 13.6198 49.0727 13.7898C48.6727 13.9598 48.2227 14.0398 47.7227 14.0298L47.7027 14.1198C48.1727 14.3098 48.5927 14.5498 48.9627 14.8598C49.3327 15.1698 49.5927 15.5498 49.7527 16.0098C49.9127 16.4698 49.9227 17.0298 49.7827 17.6898C49.6227 18.4498 49.3027 19.0598 48.8227 19.5198C48.3427 19.9798 47.7427 20.2698 47.0327 20.4198C46.3127 20.5598 45.4927 20.5298 44.5627 20.3298L40.0527 19.3698L42.7427 6.7998L46.4727 7.5998ZM43.2127 13.9898L42.3127 18.2098L44.6027 18.6998C45.6227 18.9198 46.3827 18.8698 46.8627 18.5498C47.3527 18.2298 47.6627 17.7498 47.8027 17.0998C47.8927 16.6998 47.8727 16.3298 47.7627 15.9898C47.6527 15.6498 47.4027 15.3398 47.0327 15.0798C46.6627 14.8198 46.1127 14.6098 45.4127 14.4598L43.2327 13.9898H43.2127ZM45.6327 12.9298C46.6227 13.1398 47.3327 13.1198 47.7627 12.8698C48.1927 12.6198 48.4827 12.1798 48.6127 11.5598C48.7427 10.9398 48.6127 10.4398 48.2427 10.0598C47.8627 9.6798 47.1827 9.3898 46.1927 9.1798L44.3227 8.7798L43.5327 12.4798L45.6227 12.9298H45.6327Z" fill="#692F96"/>
<path d="M57.9725 10.1503C59.0225 10.3903 59.8625 10.7303 60.4925 11.1503C61.1225 11.5803 61.5425 12.0903 61.7625 12.7003C61.9825 13.3103 62.0025 14.0003 61.8125 14.8003C61.6625 15.4403 61.4225 15.9603 61.0925 16.3403C60.7525 16.7203 60.3725 17.0103 59.9425 17.2003C59.5125 17.3903 59.0625 17.5203 58.6025 17.6003L60.7925 23.9803L58.5825 23.4703L56.7825 17.7203L54.5925 17.2203L53.4325 22.2903L51.5225 21.8503L54.4025 9.32031L57.9825 10.1403L57.9725 10.1503ZM57.5225 11.7103L55.9425 11.3503L54.9425 15.6803L56.5925 16.0603C57.5125 16.2703 58.2425 16.2403 58.7725 15.9703C59.3025 15.7003 59.6525 15.1903 59.8225 14.4403C59.9325 13.9503 59.9325 13.5303 59.8025 13.1803C59.6725 12.8303 59.4225 12.5403 59.0425 12.2903C58.6625 12.0503 58.1625 11.8603 57.5125 11.7103H57.5225Z" fill="#692F96"/>
<path d="M70.3423 26.3296L69.8823 22.4196L65.0923 21.2396L62.8823 24.4996L60.9023 24.0096L68.7223 12.6396L70.6823 13.1196L72.3323 26.8196L70.3423 26.3296ZM69.3723 16.8596C69.3723 16.7396 69.3523 16.5196 69.3323 16.2296C69.3123 15.9296 69.2923 15.6296 69.2923 15.3196C69.2923 15.0096 69.2723 14.7596 69.2723 14.5696C69.1523 14.7996 69.0223 15.0396 68.8923 15.2996C68.7623 15.5596 68.6223 15.7896 68.4923 16.0096C68.3623 16.2296 68.2623 16.4096 68.1723 16.5596L66.0523 19.7296L69.7623 20.6396L69.3823 16.8596H69.3723Z" fill="#692F96"/>
<path d="M76.9523 28.0299L75.0723 27.5399L77.8823 16.7199L74.1523 15.7499L74.5723 14.1299L83.9123 16.5499L83.4923 18.1699L79.7623 17.1999L76.9523 28.0199V28.0299Z" fill="#692F96"/>
<path d="M86.3622 30.5501L81.5322 29.2401L81.8222 28.1601L83.4022 28.1801L85.9722 18.7101L84.6022 17.9101L84.8922 16.8301L89.7222 18.1401L89.4322 19.2201H87.8622L85.2922 28.6901L86.6522 29.4701L86.3622 30.5501Z" fill="#692F96"/>
<path d="M101.352 28.1001C101.082 29.0601 100.712 29.8901 100.252 30.6001C99.7924 31.3101 99.2424 31.8801 98.6024 32.3101C97.9624 32.7401 97.2324 33.0001 96.4324 33.0901C95.6324 33.1801 94.7424 33.0901 93.7824 32.8201C92.8024 32.5401 91.9924 32.1401 91.3624 31.6301C90.7324 31.1201 90.2524 30.5101 89.9324 29.8201C89.6124 29.1201 89.4524 28.3501 89.4424 27.5001C89.4424 26.6501 89.5724 25.7501 89.8424 24.7901C90.2024 23.5201 90.7324 22.4701 91.4224 21.6501C92.1124 20.8301 92.9624 20.2701 93.9624 19.9801C94.9624 19.6901 96.1224 19.7401 97.4224 20.1101C98.6924 20.4701 99.6724 21.0401 100.372 21.8101C101.072 22.5801 101.492 23.5001 101.652 24.5701C101.812 25.6401 101.702 26.8201 101.332 28.1001H101.352ZM91.8324 25.3701C91.5524 26.3501 91.4424 27.2401 91.5024 28.0301C91.5624 28.8201 91.8224 29.4901 92.2724 30.0301C92.7224 30.5701 93.3824 30.9601 94.2424 31.2101C95.1224 31.4601 95.8924 31.4701 96.5524 31.2501C97.2124 31.0301 97.7824 30.6001 98.2524 29.9601C98.7224 29.3201 99.0924 28.5101 99.3724 27.5301C99.7924 26.0501 99.8324 24.8101 99.4724 23.8001C99.1224 22.7901 98.2824 22.0901 96.9724 21.7201C96.0924 21.4701 95.3224 21.4501 94.6524 21.6701C93.9824 21.8901 93.4224 22.3201 92.9524 22.9401C92.4824 23.5601 92.1124 24.3801 91.8324 25.3701Z" fill="#692F96"/>
<path d="M112.272 38.1603L110.002 37.4603L106.842 25.6303L106.772 25.6103C106.712 25.8803 106.642 26.2003 106.542 26.5803C106.442 26.9503 106.342 27.3403 106.242 27.7503C106.132 28.1603 106.022 28.5603 105.902 28.9603L103.872 35.5903L102.162 35.0703L105.922 22.7803L108.172 23.4703L111.322 35.2403L111.392 35.2603C111.442 35.0603 111.512 34.7803 111.602 34.4003C111.702 34.0303 111.802 33.6303 111.912 33.2003C112.022 32.7703 112.132 32.3803 112.242 32.0403L114.292 25.3403L116.012 25.8703L112.252 38.1603H112.272Z" fill="#692F96"/>
<path d="M123.622 38.1097C123.392 38.8297 123.013 39.3897 122.493 39.7997C121.963 40.2097 121.323 40.4497 120.573 40.5297C119.813 40.6097 118.973 40.4897 118.033 40.1897C117.553 40.0297 117.113 39.8697 116.713 39.6897C116.313 39.5097 115.953 39.3197 115.643 39.1197C115.333 38.9197 115.052 38.6997 114.812 38.4697L115.372 36.7397C115.762 37.0897 116.243 37.4497 116.812 37.7997C117.382 38.1597 117.983 38.4397 118.613 38.6397C119.173 38.8197 119.663 38.8997 120.083 38.8697C120.503 38.8397 120.852 38.7197 121.122 38.5197C121.392 38.3197 121.593 38.0297 121.713 37.6797C121.833 37.3097 121.843 36.9797 121.763 36.6697C121.683 36.3597 121.473 36.0397 121.143 35.6797C120.813 35.3297 120.343 34.9097 119.713 34.4097C119.113 33.9397 118.622 33.4697 118.272 32.9997C117.912 32.5297 117.693 32.0297 117.603 31.5097C117.513 30.9797 117.573 30.3997 117.783 29.7597C118.003 29.0897 118.353 28.5697 118.853 28.2097C119.353 27.8497 119.942 27.6397 120.632 27.5697C121.322 27.5097 122.062 27.6097 122.842 27.8597C123.542 28.0897 124.153 28.3597 124.683 28.6797C125.213 28.9997 125.683 29.3397 126.083 29.6997L125.003 31.0497C124.623 30.7097 124.203 30.3997 123.753 30.0997C123.293 29.8097 122.812 29.5797 122.302 29.4097C121.822 29.2497 121.403 29.1897 121.043 29.2297C120.683 29.2697 120.392 29.3797 120.162 29.5697C119.932 29.7597 119.762 30.0097 119.662 30.3297C119.542 30.7097 119.523 31.0497 119.603 31.3497C119.683 31.6497 119.892 31.9697 120.202 32.2997C120.512 32.6297 120.962 33.0297 121.522 33.4997C122.132 33.9897 122.632 34.4597 123.022 34.9197C123.412 35.3797 123.662 35.8597 123.772 36.3697C123.882 36.8697 123.842 37.4497 123.632 38.0797L123.622 38.1097Z" fill="#692F96"/>
<path d="M132.00107 40.84259L137.3923 38.41538L138.131 40.05618L131.09898 43.22211L127.93305 36.19008L129.57386 35.451368L132.00107 40.84259Z" fill="#692E96"/>
</g>
<defs>
<clipPath id="clip0_5074_5146">
<rect width="136.14" height="45.9" fill="white" transform="translate(0.102539)"/>
</clipPath>
</defs>
</svg>
