<svg width="20" height="20" viewBox="0 0 20 20" fill="none" xmlns="http://www.w3.org/2000/svg">
<path d="M9.86425 19.0507L13.9819 8.19099H15.8824L20 19.0507H18.0995L17.1267 16.2905H12.7376L11.7647 19.0507H9.86425ZM2.71493 16.3358L1.44796 15.0688L6.0181 10.4987C5.4902 9.97078 5.01131 9.36746 4.58145 8.68873C4.15158 8.00999 3.75566 7.24076 3.39367 6.38104H5.29412C5.59578 6.96927 5.89744 7.48209 6.19909 7.9195C6.50075 8.3569 6.86275 8.79431 7.28507 9.23172C7.78281 8.73398 8.2994 8.03639 8.83484 7.13895C9.37029 6.24152 9.77376 5.38556 10.0452 4.57108H0V2.76113H6.33484V0.951172H8.1448V2.76113H14.4796V4.57108H11.8552C11.5385 5.65705 11.0633 6.77319 10.4299 7.9195C9.79638 9.0658 9.17044 9.94061 8.55204 10.5439L10.724 12.7611L10.0452 14.6163L7.28507 11.7883L2.71493 16.3358ZM13.3032 14.7068H16.5611L14.9321 10.0914L13.3032 14.7068Z" fill="#E28B04"/>
</svg>
