<svg width="36" height="48" viewBox="0 0 36 48" fill="none" xmlns="http://www.w3.org/2000/svg">
<path fill-rule="evenodd" clip-rule="evenodd" d="M12.0954 10.2059C12.0954 6.82398 14.739 4.08237 18.0001 4.08237C21.2611 4.08237 23.9047 6.82398 23.9047 10.2059V20.4118C23.9047 23.7938 21.2611 26.5354 18.0001 26.5354C14.739 26.5354 12.0954 23.7938 12.0954 20.4118V10.2059ZM19.9683 44.5714V38.6704C28.8251 37.655 35.714 29.8677 35.714 20.4118C35.714 19.2845 34.8328 18.3707 33.7458 18.3707C32.6588 18.3707 31.7776 19.2845 31.7776 20.4118C31.7776 28.3031 25.6092 34.7001 18.0001 34.7001C10.391 34.7001 4.22256 28.3031 4.22256 20.4118C4.22256 19.2845 3.34136 18.3707 2.25435 18.3707C1.16733 18.3707 0.286133 19.2845 0.286133 20.4118C0.286133 29.8677 7.17498 37.655 16.0318 38.6704V44.5714H7.71495C6.76819 44.5714 6.0007 45.3389 6.0007 46.2857C6.0007 47.2324 6.76819 47.9999 7.71495 47.9999H27.1431C28.0899 47.9999 28.8574 47.2324 28.8574 46.2857C28.8574 45.3389 28.0899 44.5714 27.1431 44.5714H19.9683ZM27.8411 10.2059C27.8411 4.56935 23.4351 0 18.0001 0C12.565 0 8.15899 4.56935 8.15899 10.2059V20.4118C8.15899 26.0484 12.565 30.6178 18.0001 30.6178C23.4351 30.6178 27.8411 26.0484 27.8411 20.4118V10.2059Z" fill="white"/>
</svg>
