<svg width="25" height="25" viewBox="0 0 25 25" fill="none" xmlns="http://www.w3.org/2000/svg">
<circle cx="12.5" cy="12.5" r="12.5" fill="#7835AB"/>
<circle cx="12.5" cy="12.5" r="12.5" stroke="#F5A113"/>
<path d="M13.3867 10.292C13.4199 10.375 13.4365 10.6406 13.4365 11.0889C13.4531 11.5205 13.4531 12.0518 13.4365 12.6826C13.4365 13.2969 13.4199 13.9609 13.3867 14.6748C13.3535 15.3721 13.312 16.0361 13.2622 16.667C13.229 17.2812 13.1875 17.8125 13.1377 18.2607C13.0879 18.6924 13.0381 18.9497 12.9883 19.0327C12.8389 19.2651 12.6147 19.4146 12.3159 19.481C12.0171 19.5308 11.8013 19.5391 11.6685 19.5059C11.6021 19.5059 11.5273 19.3149 11.4443 18.9331C11.3779 18.5513 11.3115 18.0698 11.2451 17.4888C11.1787 16.9077 11.1206 16.2769 11.0708 15.5962C11.021 14.9155 10.9795 14.2681 10.9463 13.6538C10.9131 13.0229 10.8965 12.4751 10.8965 12.0103C10.8965 11.5454 10.9131 11.2466 10.9463 11.1138C10.9961 10.8979 11.1372 10.707 11.3696 10.541C11.6187 10.375 11.876 10.2505 12.1416 10.1675C12.4238 10.0845 12.6812 10.0513 12.9136 10.0679C13.1626 10.0679 13.3203 10.1426 13.3867 10.292ZM13.5112 6.25781C13.5776 6.39063 13.6025 6.57324 13.5859 6.80566C13.5859 7.03809 13.561 7.27881 13.5112 7.52783C13.4614 7.77686 13.395 8.01758 13.312 8.25C13.229 8.48242 13.146 8.66504 13.063 8.79785C12.897 9.03027 12.6479 9.17969 12.3159 9.24609C12.0005 9.2959 11.7681 9.3042 11.6187 9.271C11.5024 9.25439 11.3862 9.17969 11.27 9.04688C11.1538 8.89746 11.0542 8.72314 10.9712 8.52393C10.8882 8.30811 10.8301 8.07568 10.7969 7.82666C10.7637 7.57764 10.772 7.34521 10.8218 7.12939C10.8716 6.91357 11.0293 6.72266 11.2949 6.55664C11.5605 6.37402 11.8428 6.24121 12.1416 6.1582C12.4404 6.05859 12.7227 6.01709 12.9883 6.03369C13.2539 6.03369 13.4282 6.1084 13.5112 6.25781Z" fill="white"/>
</svg>
