<svg width="26" height="28" viewBox="0 0 26 28" fill="none" xmlns="http://www.w3.org/2000/svg">
<g clip-path="url(#clip0_1954_5386)">
<path fill-rule="evenodd" clip-rule="evenodd" d="M8.74695 23.0254H3.36563C3.2066 23.0254 3.07715 23.161 3.07715 23.3229V23.5037C3.07715 23.6656 3.2066 23.7974 3.36563 23.7974H9.1094C8.97625 23.5451 8.8542 23.289 8.74695 23.0254ZM9.64938 24.7238L9.54212 24.5543H3.36563C3.2066 24.5543 3.07715 24.6861 3.07715 24.848V25.0288C3.07715 25.1907 3.2066 25.3225 3.36563 25.3225H10.0747C9.92677 25.1304 9.78623 24.9309 9.64938 24.7238ZM24.6246 16.8234C24.288 15.9987 23.7961 15.2531 23.1822 14.628C21.2886 12.7 18.4185 12.12 15.9516 13.1631C11.5282 15.0271 10.5111 20.8338 13.7991 24.1815C15.6964 26.1058 18.5591 26.6894 21.0297 25.6501C23.5114 24.5995 25.1239 22.1405 25.1239 19.4066C25.1239 18.4878 24.9464 17.6142 24.6246 16.8234ZM18.1152 23.1987L16.5582 23.2325C15.7889 21.73 14.0802 21.1351 14.0654 21.1238L15.2378 19.2259C15.2933 19.2635 16.3067 19.9489 17.2276 21.0899C18.3889 18.1188 20.6746 15.1778 21.3588 14.5753L22.9196 16.187C20.2826 18.5104 18.1337 23.1535 18.1152 23.1987ZM22.0652 0.0322266H3.79096C1.70501 0.0322266 0 1.7682 0 3.89204V24.0045C0 26.0229 1.61994 27.6685 3.59864 27.6685H12.708C12.1607 27.2957 11.6466 26.8702 11.1732 26.3882L10.966 26.1698H3.52097C2.42252 26.1698 1.52378 25.2547 1.52378 24.1363C1.52378 23.0179 2.42252 22.0991 3.52097 22.0991H8.65448C7.60041 18.5255 8.56202 14.5941 11.1732 11.9355C12.1052 10.9866 13.211 10.2297 14.4315 9.71754C15.6151 9.21671 16.9132 8.94181 18.2706 8.94181C19.8572 8.94181 21.4069 9.32214 22.7938 10.0376V0.77783C22.7938 0.367372 22.4647 0.0322266 22.0652 0.0322266ZM5.71418 18.7062C5.71418 18.9698 5.44789 19.1882 5.12612 19.1882H4.49367C4.17191 19.1882 3.90931 18.9698 3.90931 18.7062V3.53054C3.90931 3.26318 4.17191 3.04477 4.49367 3.04477H5.12612C5.45159 3.04477 5.71418 3.26318 5.71418 3.53054V18.7062Z" fill="#F6A213"/>
</g>
<defs>
<clipPath id="clip0_1954_5386">
<rect width="25.1239" height="27.6363" fill="white" transform="translate(0 0.0322266)"/>
</clipPath>
</defs>
</svg>
