<svg width="25" height="25" viewBox="0 0 25 25" fill="none" xmlns="http://www.w3.org/2000/svg">
<circle cx="12.5" cy="12.5" r="12.5" fill="#7835AB"/>
<circle cx="12.5" cy="12.5" r="12.5" stroke="#F5A113"/>
<path d="M12.3462 16.4258C12.3765 16.4964 12.3916 16.5973 12.3916 16.7285C12.3916 16.8496 12.3765 16.9808 12.3462 17.1221C12.3159 17.2533 12.2756 17.3844 12.2251 17.5156C12.1847 17.6367 12.1393 17.7376 12.0889 17.8184C12.0485 17.8789 11.993 17.9294 11.9224 17.9697C11.8517 18.0101 11.776 18.0353 11.6953 18.0454C11.6146 18.0656 11.5389 18.0757 11.4683 18.0757C11.3976 18.0757 11.3421 18.0757 11.3018 18.0757C11.2412 18.0656 11.1756 18.0202 11.105 17.9395C11.0444 17.8587 10.9889 17.7629 10.9385 17.6519C10.8981 17.5308 10.8678 17.4046 10.8477 17.2734C10.8275 17.1322 10.8325 17.001 10.8628 16.8799C10.8931 16.7689 10.9788 16.668 11.1201 16.5771C11.2715 16.4762 11.4279 16.4006 11.5894 16.3501C11.7609 16.2996 11.9173 16.2795 12.0586 16.2896C12.21 16.2896 12.3058 16.335 12.3462 16.4258ZM12.2251 14.8818C12.2655 15.0029 12.2251 15.119 12.104 15.23C11.9829 15.341 11.8366 15.4268 11.665 15.4873C11.4935 15.5378 11.3219 15.5579 11.1504 15.5479C10.9788 15.5378 10.8729 15.4722 10.8325 15.3511C10.8022 15.2703 10.7619 15.1139 10.7114 14.8818C10.661 14.6497 10.6257 14.3874 10.6055 14.0947C10.5853 13.8021 10.5903 13.4943 10.6206 13.1714C10.6509 12.8384 10.7266 12.5356 10.8477 12.2632C11.0394 11.8696 11.2664 11.4963 11.5288 11.1431C11.7912 10.7899 12.0283 10.4619 12.2402 10.1592C12.4622 9.84635 12.6287 9.55876 12.7397 9.29639C12.8507 9.03402 12.8457 8.79688 12.7246 8.58496C12.6943 8.53451 12.6086 8.52946 12.4673 8.56982C12.326 8.61019 12.1545 8.67074 11.9526 8.75146C11.7609 8.83219 11.549 8.92806 11.3169 9.03906C11.0848 9.15007 10.8628 9.25602 10.6509 9.35693C10.4491 9.45785 10.2725 9.54362 10.1211 9.61426C9.97982 9.6849 9.89404 9.72021 9.86377 9.72021C9.81331 9.72021 9.78304 9.65462 9.77295 9.52344C9.76286 9.38216 9.7679 9.2207 9.78809 9.03906C9.79818 8.85742 9.8234 8.68083 9.86377 8.50928C9.89404 8.33773 9.92936 8.21663 9.96973 8.146C10 8.09554 10.0858 8.01481 10.2271 7.90381C10.3784 7.79281 10.5601 7.67171 10.772 7.54053C10.9839 7.40934 11.216 7.27816 11.4683 7.14697C11.7306 7.0057 11.9829 6.8846 12.2251 6.78369C12.4774 6.68278 12.7095 6.6071 12.9214 6.55664C13.1434 6.50618 13.32 6.49609 13.4512 6.52637C13.542 6.54655 13.6681 6.63232 13.8296 6.78369C14.0011 6.92497 14.1676 7.08643 14.3291 7.26807C14.4906 7.43962 14.6318 7.61117 14.7529 7.78271C14.874 7.94417 14.9396 8.06022 14.9497 8.13086C15.0002 8.41341 14.9396 8.72119 14.7681 9.0542C14.5965 9.38721 14.3745 9.7404 14.1021 10.1138C13.8296 10.4771 13.542 10.8504 13.2393 11.2339C12.9365 11.6174 12.6842 12.0008 12.4824 12.3843C12.3311 12.6769 12.2251 12.9544 12.1646 13.2168C12.104 13.4691 12.0737 13.7062 12.0737 13.9282C12.0737 14.1401 12.0889 14.3268 12.1191 14.4883C12.1595 14.6497 12.1948 14.7809 12.2251 14.8818Z" fill="white"/>
</svg>
