<svg width="27" height="28" viewBox="0 0 27 28" fill="none" xmlns="http://www.w3.org/2000/svg">
<g clip-path="url(#clip0_1954_5394)">
<path d="M25.3377 9.28592C24.6845 7.75336 23.7674 6.38411 22.5866 5.20329C21.4058 4.02246 20.0365 3.09288 18.504 2.45222C17.0091 1.81156 15.4137 1.48495 13.7807 1.44727C13.6928 1.44727 13.5923 1.44727 13.5043 1.44727C13.4164 1.44727 13.3159 1.44727 13.228 1.44727C11.5949 1.48495 9.99954 1.82412 8.50467 2.45222C6.97211 3.10544 5.60286 4.02246 4.42204 5.20329C3.24121 6.38411 2.31163 7.75336 1.67097 9.28592C1.00519 10.8687 0.666016 12.552 0.666016 14.2856C0.666016 16.0191 1.00519 17.7024 1.67097 19.2852C2.32419 20.8178 3.24121 22.187 4.42204 23.3679C5.60286 24.5487 6.97211 25.4783 8.50467 26.1189C9.99954 26.7596 11.5949 27.0862 13.228 27.1239C13.3159 27.1239 13.4164 27.1239 13.5043 27.1239C13.5923 27.1239 13.6928 27.1239 13.7807 27.1239C15.4137 27.0862 17.0091 26.747 18.504 26.1189C20.0365 25.4657 21.4058 24.5487 22.5866 23.3679C23.7674 22.187 24.697 20.8178 25.3377 19.2852C26.0035 17.7024 26.3426 16.0191 26.3426 14.2856C26.3426 12.552 26.0035 10.8687 25.3377 9.28592ZM15.3007 25.5788C14.7103 25.6793 14.1073 25.7169 13.4792 25.7169C12.8511 25.7169 12.2607 25.6667 11.6577 25.5788C7.68814 24.9381 4.39691 22.2498 2.90204 18.6446C2.71361 18.1798 2.55031 17.715 2.42469 17.2251C2.17345 16.2829 2.04783 15.3031 2.04783 14.2856C2.04783 13.2681 2.18601 12.2882 2.42469 11.3461C2.55031 10.8562 2.71361 10.3788 2.90204 9.92658C4.39691 6.30874 7.68814 3.62048 11.6577 2.99239C12.2481 2.89189 12.8511 2.8542 13.4792 2.8542C14.1073 2.8542 14.6977 2.90445 15.3007 2.99239C19.2703 3.63304 22.5615 6.3213 24.0564 9.92658C24.2448 10.3914 24.4081 10.8562 24.5337 11.3461C24.785 12.2882 24.9106 13.2681 24.9106 14.2856C24.9106 15.3031 24.7724 16.2829 24.5337 17.2251C24.4081 17.715 24.2448 18.1923 24.0564 18.6446C22.5615 22.2624 19.2703 24.9507 15.3007 25.5788Z" fill="#F903E7" stroke="#F903E7" stroke-width="1.25619" stroke-miterlimit="10"/>
<path d="M18.867 11.3586C18.8042 10.8687 18.7288 10.4039 18.6283 9.93914C18.4273 8.94675 18.1384 8.01716 17.7866 7.12527C17.1837 5.60527 16.342 4.22346 15.2994 3.00495C14.8848 2.51503 14.4452 2.0628 13.9552 1.62313L13.7543 1.44727H13.2015L13.0005 1.62313C12.5232 2.0628 12.071 2.51503 11.6564 3.00495C10.6138 4.23602 9.77212 5.61783 9.16915 7.12527C8.81741 8.0046 8.54105 8.94675 8.3275 9.93914C8.227 10.4039 8.15163 10.8813 8.08882 11.3586C7.9632 12.3008 7.90039 13.2806 7.90039 14.2981C7.90039 15.3157 7.9632 16.2955 8.08882 17.2376C8.15163 17.7275 8.227 18.1923 8.3275 18.6571C8.52849 19.6495 8.81741 20.5791 9.16915 21.471C9.77212 22.991 10.6138 24.3728 11.6564 25.5913C12.071 26.0812 12.5106 26.5335 13.0005 26.9731L13.2015 27.149H13.7543L13.9552 26.9731C14.4326 26.5335 14.8848 26.0812 15.2994 25.5913C16.342 24.3603 17.1837 22.9784 17.7866 21.471C18.1384 20.5917 18.4147 19.6495 18.6283 18.6571C18.7288 18.1923 18.8042 17.715 18.867 17.2376C18.9926 16.2955 19.0554 15.3157 19.0554 14.2981C19.0554 13.2806 18.9926 12.3008 18.867 11.3586ZM17.1711 18.6446C16.5556 21.3454 15.3245 23.6191 13.4905 25.4531C11.6564 23.6191 10.4253 21.3328 9.80981 18.6446C9.70931 18.1798 9.62138 17.715 9.54601 17.2251C9.40782 16.2955 9.34501 15.3157 9.34501 14.2856C9.34501 13.2555 9.40782 12.2882 9.54601 11.3461C9.62138 10.8562 9.70931 10.3914 9.80981 9.92658C10.4253 7.22576 11.6564 4.95205 13.4905 3.118C15.3245 4.95205 16.5556 7.23832 17.1711 9.92658C17.2716 10.3914 17.3595 10.8562 17.4349 11.3461C17.5731 12.2757 17.6359 13.2555 17.6359 14.2856C17.6359 15.3157 17.5731 16.2829 17.4349 17.2251C17.3595 17.715 17.2716 18.1798 17.1711 18.6446Z" fill="#F903E7" stroke="#F903E7" stroke-width="1.25619" stroke-miterlimit="10"/>
<path d="M25.0247 17.2254H1.94845C1.55903 17.2254 1.23242 17.5394 1.23242 17.9414C1.23242 18.3434 1.54647 18.6574 1.94845 18.6574H25.0247C25.4142 18.6574 25.7408 18.3434 25.7408 17.9414C25.7408 17.5394 25.4267 17.2254 25.0247 17.2254ZM25.0247 9.93945H1.94845C1.55903 9.93945 1.23242 10.2535 1.23242 10.6555C1.23242 11.0575 1.54647 11.3715 1.94845 11.3715H25.0247C25.4142 11.3715 25.7408 11.0575 25.7408 10.6555C25.7408 10.2535 25.4267 9.93945 25.0247 9.93945Z" fill="#F903E7" stroke="#F903E7" stroke-width="1.25619" stroke-miterlimit="10"/>
</g>
<defs>
<clipPath id="clip0_1954_5394">
<rect width="26.9705" height="26.9705" fill="white" transform="translate(0 0.807617)"/>
</clipPath>
</defs>
</svg>
