<svg width="26" height="26" viewBox="0 0 26 26" fill="none" xmlns="http://www.w3.org/2000/svg">
<path d="M0.000455084 16.5187C0.00778839 16.2618 0.0884547 16.0719 0.264454 15.9276C0.759452 15.523 1.25812 15.1219 1.75311 14.7173C2.08311 14.4499 2.41678 14.1896 2.73578 13.9152C3.38477 13.3558 3.39211 12.3355 2.74678 11.7725C2.36544 11.4418 1.96211 11.1287 1.56978 10.8085C1.13345 10.4532 0.689785 10.1014 0.257121 9.73899C0.0151217 9.53493 -0.0582113 9.26402 0.0407882 8.96849C0.47712 7.67377 1.11878 6.47756 1.96945 5.3869C2.22611 5.0597 2.50478 4.74306 2.78344 4.43345C3.01078 4.18013 3.30411 4.11329 3.63044 4.21883C4.4151 4.47919 5.1961 4.75009 5.98076 5.01748C6.20443 5.09488 6.42443 5.1758 6.65176 5.24265C7.55376 5.51004 8.47042 4.9823 8.64642 4.09218C8.79675 3.3252 8.93975 2.5547 9.08642 1.78772C9.12675 1.5731 9.16708 1.35849 9.21108 1.14388C9.27708 0.823714 9.50808 0.602064 9.84541 0.538735C10.5237 0.408559 11.2057 0.320603 11.8987 0.288939C12.7091 0.250238 13.5194 0.278384 14.3224 0.38745C14.6414 0.429669 14.9604 0.485961 15.2794 0.542253C15.6351 0.605582 15.8551 0.841305 15.9247 1.20017C16.0971 2.10788 16.2731 3.01911 16.4454 3.92682C16.4784 4.10273 16.5077 4.27865 16.5884 4.44049C16.8597 4.97526 17.3034 5.26728 17.923 5.31301C18.1467 5.33061 18.363 5.28487 18.5757 5.2145C19.54 4.88379 20.5007 4.55659 21.465 4.22587C21.7987 4.11329 22.1104 4.19069 22.3487 4.444C23.1554 5.30246 23.83 6.24887 24.3654 7.28676C24.6477 7.82857 24.886 8.38797 25.0803 8.96497C25.1793 9.26402 25.1097 9.53493 24.864 9.73899C24.3727 10.1506 23.8704 10.5482 23.3717 10.9528C23.0454 11.2167 22.7154 11.4735 22.3964 11.7479C21.7584 12.2968 21.7217 13.2467 22.3157 13.8413C22.5027 14.0277 22.7154 14.1825 22.9207 14.3514C23.5697 14.8792 24.2224 15.4034 24.8677 15.9346C25.1133 16.1387 25.183 16.4096 25.0803 16.7051C24.6184 18.0702 23.929 19.3262 23.0124 20.4626C22.7997 20.723 22.576 20.9763 22.3487 21.2261C22.114 21.4865 21.795 21.5568 21.4577 21.4407C20.794 21.212 20.1304 20.9869 19.463 20.7582C19.1257 20.6421 18.792 20.5225 18.451 20.4169C17.6664 20.1741 16.7901 20.6034 16.5407 21.3563C16.4637 21.5885 16.4271 21.8348 16.3831 22.074C16.2254 22.8867 16.0714 23.6994 15.9174 24.5086C15.8551 24.8323 15.6204 25.0575 15.2867 25.1243C14.5974 25.258 13.9044 25.346 13.2004 25.3777C12.4377 25.4128 11.6751 25.3882 10.9161 25.2897C10.5567 25.244 10.2011 25.1841 9.84541 25.1208C9.50808 25.061 9.27708 24.8358 9.21475 24.5122C9.07542 23.7944 8.93975 23.0767 8.80408 22.359C8.75275 22.081 8.70508 21.8031 8.64275 21.5287C8.44108 20.6315 7.49509 20.1319 6.59309 20.438C5.61776 20.7687 4.6461 21.103 3.67077 21.4337C3.32977 21.5498 3.01811 21.4759 2.77611 21.2191C2.03911 20.4345 1.41212 19.576 0.898785 18.6402C0.557786 18.0175 0.275454 17.3736 0.0481215 16.7051C0.022455 16.6313 0.0151217 16.5503 0.00412173 16.5081L0.000455084 16.5187ZM8.73808 12.8386C8.73808 14.8545 10.4467 16.5046 12.5404 16.5081C14.6744 16.5081 16.3867 14.8756 16.3904 12.8351C16.3904 10.8226 14.6781 9.17606 12.5771 9.17255C10.4577 9.17255 8.74175 10.8085 8.74175 12.8386H8.73808Z" fill="#F903E7"/>
</svg>
