<svg width="26" height="28" viewBox="0 0 26 28" fill="none" xmlns="http://www.w3.org/2000/svg">
<path d="M19.8745 3.18983V0.807617H4.94079L4.91216 3.18983H2.75213e-06V7.72645C2.75213e-06 7.72645 -0.02863 13.1808 5.75524 12.3217C5.75524 12.3217 7.04691 15.8234 10.9219 16.8876V19.9304H8.11588V22.3419H6.14974V27.1845H18.5765V22.2248H16.8171V19.8881H14.0843V16.6728C14.0843 16.6728 17.2275 16.4808 19.0251 12.3477C19.0251 12.3477 24.144 12.6048 25.1271 7.69716V3.18983H19.8777H19.8745ZM4.89943 10.0208C2.51335 9.78973 2.402 7.89568 2.402 7.89568V6.14482H4.89943V10.0208ZM14.6378 22.6185V25.2806H10.4829V22.6185H14.6378ZM16.0281 7.31314L14.3929 8.88176L14.816 11.1338C14.8478 11.303 14.6728 11.4332 14.5233 11.3518L12.5604 10.2453L10.5974 11.3518C10.4511 11.4365 10.2729 11.303 10.3047 11.1338L10.7278 8.88176L9.09258 7.31314C8.9685 7.19599 9.03531 6.98445 9.20393 6.96167L11.4278 6.67854L12.379 4.60224C12.4522 4.44603 12.6685 4.44603 12.7385 4.60224L13.6898 6.67854L15.9136 6.96167C16.0822 6.98445 16.149 7.19599 16.025 7.31314H16.0281ZM22.3719 7.89568C22.3719 7.89568 22.2606 9.78973 19.8745 10.0208V6.14482H22.3719V7.89568Z" fill="#F6A213"/>
</svg>
