<svg width="28" height="25" viewBox="0 0 28 25" fill="none" xmlns="http://www.w3.org/2000/svg">
<path d="M23.8519 10.514C24.7022 10.514 25.5658 10.514 26.4294 10.514C26.6307 10.514 26.8369 10.4886 27.0334 10.5224C27.2396 10.5575 27.4349 10.6492 27.635 10.7169C27.5622 10.9125 27.5319 11.1408 27.4082 11.2977C26.7362 12.1503 26.0412 12.986 25.3547 13.8277C24.388 15.0124 23.425 16.1995 22.4546 17.3806C21.8906 18.0665 21.5741 18.0677 21.027 17.3987C19.3848 15.3892 17.7425 13.3809 16.1099 11.363C15.9692 11.1879 15.9049 10.9524 15.8042 10.7434C16.0407 10.6674 16.276 10.5297 16.5138 10.5237C17.5399 10.4995 18.566 10.5128 19.597 10.5128C19.4042 8.59144 17.17 5.50834 13.718 4.7572C10.169 3.98552 6.50238 5.68828 4.84068 8.95494C3.17777 12.2228 3.97951 16.1633 6.81046 18.5798C9.36001 20.7559 13.6889 21.4914 17.3992 18.4107C18.207 19.4263 19.0136 20.442 19.819 21.4552C16.8801 24.2991 11.4232 25.5949 6.61882 23.193C1.6774 20.7233 -0.885494 15.3433 0.277692 9.92104C1.38023 4.78618 6.04268 0.868611 11.3249 0.599308C16.8861 0.315514 22.5505 3.98673 23.8519 10.514Z" fill="#F903E7"/>
</svg>
