<svg width="26" height="35" viewBox="0 0 26 35" fill="none" xmlns="http://www.w3.org/2000/svg">
<g clip-path="url(#clip0_1954_5399)">
<path d="M13.802 29.7045C13.802 30.9291 13.8207 32.1049 13.7895 33.2808C13.7811 33.5909 13.6186 33.8971 13.5269 34.2052C13.2269 34.0856 12.8685 34.0329 12.6352 33.8383C10.3453 31.9265 8.08253 29.9843 5.79684 28.0665C5.23427 27.5941 5.24677 27.2129 5.80726 26.7527C8.11587 24.8633 10.4057 22.9515 12.7227 21.0681C12.956 20.8796 13.3186 20.839 13.6207 20.7295C13.7061 21.0073 13.8603 21.283 13.8645 21.5608C13.8916 22.8704 13.877 24.1801 13.877 25.6296C14.3625 25.5303 14.7604 25.4857 15.1334 25.3661C20.8007 23.5394 22.9406 16.7154 19.2964 12.1073C18.415 10.9923 18.4213 10.9193 19.4798 9.96442C21.38 8.25132 21.4946 8.26348 22.9323 10.3415C27.985 17.65 23.8574 27.5921 15.0021 29.4491C14.6646 29.5201 14.3291 29.593 13.7999 29.7045H13.802Z" fill="#F903E7"/>
<path d="M11.2447 8.83146C8.27975 9.45182 6.16074 10.952 4.92934 13.4822C3.39998 16.6225 3.75836 19.6473 5.86695 22.4551C6.67122 23.5276 6.6858 23.6208 5.67734 24.5271C3.75419 26.2584 3.60626 26.2422 2.14983 24.1155C-2.84036 16.8394 1.28723 6.90347 10.0945 5.10523C11.1155 4.89641 11.3947 4.52135 11.3218 3.59081C11.253 2.71906 11.3009 1.83514 11.3489 0.96136C11.3614 0.728217 11.5093 0.436281 11.6947 0.304505C11.7968 0.233548 12.151 0.393707 12.3177 0.531566C14.6805 2.51632 17.0287 4.5173 19.3873 6.50814C19.9249 6.96226 19.8353 7.33732 19.3332 7.74887C16.9996 9.66267 14.6826 11.5947 12.3427 13.5024C12.1302 13.6748 11.7968 13.7072 11.5218 13.8045C11.4301 13.5328 11.2655 13.2612 11.2593 12.9875C11.2322 11.6474 11.2468 10.3074 11.2468 8.83349L11.2447 8.83146Z" fill="#F903E7"/>
</g>
<defs>
<clipPath id="clip0_1954_5399">
<rect width="25.1239" height="33.9173" fill="white" transform="translate(0 0.286133)"/>
</clipPath>
</defs>
</svg>
