<svg width="26" height="28" viewBox="0 0 26 28" fill="none" xmlns="http://www.w3.org/2000/svg">
<g clip-path="url(#clip0_1954_5388)">
<path fill-rule="evenodd" clip-rule="evenodd" d="M22.0652 0.0478516H3.79096C1.70501 0.0478516 0 1.78383 0 3.90767V24.0201C0 26.0385 1.61994 27.6841 3.59864 27.6841H12.708C12.1607 27.3113 11.6466 26.8858 11.1732 26.4038L10.966 26.1854H3.52097C2.42252 26.1854 1.52378 25.2703 1.52378 24.1519C1.52378 23.0335 2.42252 22.1147 3.52097 22.1147H8.65448C7.60041 18.5411 8.56202 14.6097 11.1732 11.9511C12.1052 11.0022 13.211 10.2453 14.4315 9.73317C15.6151 9.23233 16.9132 8.95744 18.2706 8.95744C19.8572 8.95744 21.4069 9.33777 22.7938 10.0532V0.793455C22.7938 0.382997 22.4647 0.0478516 22.0652 0.0478516ZM5.71418 18.7218C5.71418 18.9854 5.44789 19.2038 5.12612 19.2038H4.49367C4.17191 19.2038 3.90931 18.9854 3.90931 18.7218V3.54616C3.90931 3.2788 4.17191 3.06039 4.49367 3.06039H5.12612C5.45159 3.06039 5.71418 3.2788 5.71418 3.54616V18.7218ZM24.6246 16.839C24.288 16.0143 23.7961 15.2687 23.1822 14.6436C21.2886 12.7156 18.4185 12.1357 15.9516 13.1788C11.5282 15.0428 10.5111 20.8494 13.7991 24.1971C15.6964 26.1214 18.5591 26.7051 21.0297 25.6657C23.5114 24.6151 25.1239 22.1561 25.1239 19.4222C25.1239 18.5034 24.9464 17.6298 24.6246 16.839ZM18.2003 22.2616C16.3917 22.2653 14.916 20.7741 14.9123 18.944C14.9049 17.0838 16.3696 15.5813 18.1855 15.5775C20.0052 15.5775 21.4735 17.0649 21.4772 18.9176C21.4809 20.7591 20.0089 22.2616 18.2003 22.2616ZM20.7116 21.354C20.8151 21.4595 20.9335 21.5724 21.0482 21.6892L20.841 21.9001C20.7264 21.7871 20.608 21.6704 20.4971 21.5611C20.5636 21.4971 20.6413 21.4218 20.7116 21.354ZM22.4647 23.621C22.2945 23.6662 22.1318 23.636 22.0061 23.508C21.5733 23.0712 21.1443 22.6268 20.7153 22.19C20.9483 21.949 21.1813 21.7155 21.4254 21.4632C21.4624 21.5047 21.4994 21.5574 21.5437 21.5988C21.9247 21.9904 22.3056 22.3745 22.6866 22.7662C22.9603 23.0524 22.8382 23.5193 22.4647 23.621ZM9.64938 24.7394L9.54212 24.5699H3.36563C3.2066 24.5699 3.07715 24.7017 3.07715 24.8636V25.0444C3.07715 25.2063 3.2066 25.3381 3.36563 25.3381H10.0747C9.92677 25.1461 9.78623 24.9465 9.64938 24.7394ZM8.74695 23.0411H3.36563C3.2066 23.0411 3.07715 23.1766 3.07715 23.3385V23.5193C3.07715 23.6812 3.2066 23.813 3.36563 23.813H9.1094C8.97625 23.5607 8.8542 23.3047 8.74695 23.0411Z" fill="#F6A213"/>
</g>
<defs>
<clipPath id="clip0_1954_5388">
<rect width="25.1239" height="27.6363" fill="white" transform="translate(0 0.0478516)"/>
</clipPath>
</defs>
</svg>
