<svg width="11" height="12" viewBox="0 0 11 12" fill="none" xmlns="http://www.w3.org/2000/svg">
<path d="M4.39635 6.43574C4.30851 6.42015 4.22067 6.40173 4.13283 6.38898C3.29267 6.26997 2.47661 6.88344 2.35335 7.72359C2.22725 8.58783 2.80813 9.39682 3.65395 9.53566C4.64995 9.69859 5.52128 8.96045 5.52269 7.94178C5.52553 5.42132 5.52269 2.90086 5.52411 0.3804C5.52411 0.335063 5.52411 0.291142 5.52411 0.237305H7.53311C7.57703 0.964115 7.77821 1.62859 8.29817 2.1613C8.81955 2.69684 9.48544 2.88527 10.2151 2.92778V4.91978C9.73479 4.89002 9.26725 4.80785 8.80963 4.66901C8.35343 4.53158 7.92414 4.33606 7.54019 4.00453C7.54019 4.06404 7.54019 4.10088 7.54019 4.1363C7.54019 5.39723 7.55011 6.65675 7.53736 7.91769C7.52319 9.33306 6.90547 10.4183 5.6757 11.121C3.61145 12.2998 0.939395 11.1083 0.416601 8.79185C-0.0466872 6.74318 1.25959 4.77668 3.33093 4.40973C3.65962 4.35165 3.99115 4.34315 4.32409 4.37998C4.37651 4.38565 4.40627 4.39557 4.40627 4.45791C4.40485 5.10538 4.40485 5.75285 4.40485 6.40032C4.40485 6.41023 4.4006 6.42015 4.39635 6.43574Z" fill="#333333"/>
</svg>
