<svg width="17" height="17" viewBox="0 0 17 17" fill="none" xmlns="http://www.w3.org/2000/svg">
<path d="M8.5058 0.4729C9.59195 0.492903 10.6781 0.508905 11.7643 0.536909C12.5404 0.558912 13.2985 0.68693 14.0046 1.02498C15.0667 1.53305 15.7788 2.35316 16.1549 3.46731C16.3529 4.05139 16.4269 4.65348 16.4509 5.26556C16.5229 7.08381 16.4969 8.90406 16.4809 10.7243C16.4749 11.3004 16.4509 11.8785 16.3869 12.4506C16.2449 13.7287 15.7128 14.8049 14.6526 15.579C14.0746 16.001 13.4185 16.2311 12.7204 16.3491C12.0243 16.4671 11.3202 16.4771 10.6181 16.4811C9.17189 16.4911 7.72569 16.4911 6.27949 16.4811C5.6094 16.4751 4.93931 16.4651 4.27522 16.3531C3.24108 16.1791 2.34295 15.749 1.64085 14.9469C1.10878 14.3368 0.808739 13.6207 0.656718 12.8346C0.534701 12.2105 0.5167 11.5764 0.512699 10.9423C0.502698 9.38613 0.498697 7.82992 0.506698 6.2737C0.510698 5.60361 0.5247 4.93352 0.634715 4.26942C0.834743 3.07326 1.37882 2.08312 2.38096 1.37102C2.98304 0.942966 3.66713 0.716934 4.39123 0.61292C5.20135 0.496904 6.01946 0.502905 6.83557 0.492904C7.39165 0.486903 7.94772 0.492904 8.5058 0.492904V0.4729ZM8.4818 15.0729C8.4818 15.0589 8.4818 15.0429 8.4818 15.0289C9.35792 15.0289 10.234 15.0369 11.1102 15.0249C11.6602 15.0169 12.2103 14.9989 12.7484 14.8709C13.5285 14.6869 14.1466 14.2768 14.5546 13.5747C14.7807 13.1867 14.9127 12.7586 14.9467 12.3145C14.9967 11.6444 15.0367 10.9703 15.0427 10.2983C15.0547 8.92807 15.0467 7.55788 15.0347 6.18969C15.0287 5.5636 15.0247 4.93552 14.8927 4.31943C14.6907 3.3713 14.1786 2.6652 13.2725 2.27915C12.8484 2.09713 12.3983 2.02111 11.9403 1.99311C10.4361 1.9031 8.92786 1.9351 7.42165 1.9351C6.74156 1.9351 6.06146 1.95511 5.38337 1.97511C4.94731 1.98711 4.51325 2.03112 4.08919 2.14913C3.31709 2.36516 2.731 2.81522 2.36495 3.53332C2.11892 4.01739 2.01891 4.54146 1.9969 5.07754C1.9669 5.85364 1.9409 6.62975 1.9409 7.40586C1.9409 8.80805 1.9549 10.2122 1.9829 11.6144C1.9909 11.9925 2.04091 12.3725 2.11892 12.7426C2.29694 13.5847 2.76301 14.2268 3.53912 14.6209C4.00918 14.8609 4.52125 14.9669 5.04332 14.9849C6.18948 15.0229 7.33564 15.0449 8.4798 15.0729H8.4818Z" fill="white"/>
<path d="M12.6044 8.50394C12.5884 10.7883 10.7462 12.6085 8.47987 12.6005C6.18355 12.5925 4.3813 10.7302 4.3833 8.48794C4.3853 6.20763 6.23156 4.37337 8.50587 4.38137C10.7842 4.38937 12.6044 6.23363 12.6024 8.50394H12.6044ZM8.49187 11.1543C9.96407 11.1543 11.1542 9.96814 11.1582 8.49194C11.1622 7.02774 9.96807 5.82757 8.50587 5.82557C7.02367 5.82557 5.8295 7.01174 5.8295 8.48794C5.8295 9.96214 7.01767 11.1523 8.49187 11.1543Z" fill="white"/>
<path d="M11.8022 4.21746C11.8022 3.68938 12.2343 3.25732 12.7644 3.25732C13.2885 3.25732 13.7285 3.69538 13.7265 4.21946C13.7265 4.75553 13.2965 5.18159 12.7584 5.18359C12.2343 5.18359 11.8022 4.74953 11.8022 4.21946V4.21746Z" fill="white"/>
</svg>
