<svg width="9" height="17" viewBox="0 0 9 17" fill="none" xmlns="http://www.w3.org/2000/svg">
<path d="M8.57549 6.36623C8.54947 6.58641 8.52745 6.79258 8.49942 6.99875C8.40935 7.69733 8.31127 8.39391 8.2272 9.09249C8.21119 9.22259 8.15714 9.24261 8.04705 9.24261C7.35648 9.24061 6.66791 9.24261 5.97734 9.24261C5.91529 9.24261 5.85323 9.24261 5.76716 9.24261V9.4728C5.76716 11.7467 5.76716 14.0206 5.76716 16.2924C5.76716 16.4459 5.69043 16.5226 5.53697 16.5226C4.69628 16.5226 3.85358 16.5226 3.01288 16.5226C2.86209 16.5226 2.7867 16.4446 2.7867 16.2884C2.7867 14.0366 2.7867 11.7827 2.7867 9.53085C2.7867 9.48481 2.78269 9.43677 2.7867 9.39073C2.79871 9.27063 2.74466 9.24061 2.63057 9.24061C1.93599 9.24461 1.23942 9.24261 0.544841 9.24061C0.402056 9.24061 0.330664 9.16855 0.330664 9.02443C0.330664 8.19774 0.334667 7.37306 0.32666 6.54638C0.32666 6.39425 0.372698 6.35022 0.522822 6.35022C1.21339 6.35622 1.90196 6.35022 2.59254 6.35622C2.74266 6.35622 2.7907 6.31218 2.7887 6.16206C2.78069 5.54555 2.78069 4.92904 2.7887 4.31253C2.7947 3.68201 2.87477 3.06349 3.13298 2.48101C3.59336 1.44215 4.40404 0.841656 5.50094 0.603459C6.13547 0.465345 6.778 0.499373 7.42053 0.529397C7.78083 0.545411 8.13913 0.585444 8.49742 0.599456C8.65155 0.605461 8.68958 0.663508 8.68758 0.807628C8.68158 1.54424 8.68158 2.28085 8.68758 3.01746C8.68758 3.15157 8.65755 3.19961 8.51344 3.19761C8.05906 3.1876 7.60468 3.1896 7.15031 3.19761C6.99018 3.19961 6.82604 3.21362 6.66791 3.24565C6.07342 3.36975 5.78518 3.71003 5.77517 4.31453C5.76316 4.94705 5.77517 5.57958 5.76516 6.2121C5.76516 6.35622 5.83922 6.35622 5.94131 6.35622C6.74597 6.35622 7.55064 6.35622 8.3553 6.35622C8.42136 6.35622 8.48742 6.36223 8.57349 6.36823L8.57549 6.36623Z" fill="white"/>
</svg>
