<svg width="7" height="12" viewBox="0 0 7 12" fill="none" xmlns="http://www.w3.org/2000/svg">
<path d="M6.14814 4.57254C6.12972 4.72839 6.11413 4.87432 6.0943 5.02025C6.03054 5.5147 5.96112 6.00775 5.90162 6.5022C5.89028 6.59429 5.85203 6.60846 5.77411 6.60846C5.28532 6.60705 4.79794 6.60846 4.30915 6.60846C4.26523 6.60846 4.22131 6.60846 4.16039 6.60846V6.77139C4.16039 8.38086 4.16039 9.99033 4.16039 11.5984C4.16039 11.707 4.10608 11.7613 3.99746 11.7613C3.40241 11.7613 2.80594 11.7613 2.2109 11.7613C2.10416 11.7613 2.0508 11.7061 2.0508 11.5955C2.0508 10.0017 2.0508 8.40636 2.0508 6.81248C2.0508 6.77989 2.04796 6.74589 2.0508 6.7133C2.0593 6.6283 2.02105 6.60705 1.94029 6.60705C1.44866 6.60988 0.955624 6.60846 0.464 6.60705C0.362936 6.60705 0.312404 6.55604 0.312404 6.45403C0.312404 5.8689 0.315237 5.28519 0.30957 4.70005C0.30957 4.59238 0.342156 4.56121 0.448415 4.56121C0.937206 4.56546 1.42458 4.56121 1.91337 4.56546C2.01963 4.56546 2.05363 4.53429 2.05221 4.42803C2.04655 3.99166 2.04655 3.55529 2.05221 3.11892C2.05647 2.67263 2.11314 2.23485 2.2959 1.82256C2.62176 1.08725 3.19556 0.662218 3.97196 0.49362C4.42108 0.395862 4.87587 0.419947 5.33065 0.441199C5.58567 0.452533 5.83928 0.480869 6.09288 0.490787C6.20198 0.495037 6.22889 0.536123 6.22748 0.638132C6.22323 1.15951 6.22323 1.68089 6.22748 2.20226C6.22748 2.29719 6.20623 2.33119 6.10422 2.32977C5.78261 2.32269 5.461 2.32411 5.13939 2.32977C5.02604 2.33119 4.90987 2.34111 4.79794 2.36378C4.37716 2.45162 4.17314 2.69247 4.16606 3.12034C4.15756 3.56804 4.16606 4.01575 4.15897 4.46345C4.15897 4.56546 4.21139 4.56546 4.28365 4.56546C4.8532 4.56546 5.42274 4.56546 5.99229 4.56546C6.03905 4.56546 6.0858 4.56971 6.14672 4.57396L6.14814 4.57254Z" fill="#333333"/>
</svg>
