<svg width="13" height="12" viewBox="0 0 13 12" fill="none" xmlns="http://www.w3.org/2000/svg">
<path d="M6.95995 5.27828C6.95995 5.27828 6.94836 5.27663 6.94174 5.27497C6.94008 5.24849 6.93677 5.22035 6.93677 5.19386C6.93677 4.90251 6.93677 4.61281 6.93677 4.32146C6.93677 4.21055 6.93677 4.2089 6.82586 4.2089C6.12232 4.2089 5.41712 4.2089 4.71357 4.2089C4.60928 4.2089 4.60597 4.21055 4.60597 4.31815C4.60597 6.84264 4.60597 9.36878 4.60597 11.8933C4.60597 11.9959 4.60597 11.9959 4.71357 11.9959C5.44691 11.9959 6.18026 11.9959 6.9136 11.9959C7.04438 11.9959 7.03113 12.0108 7.03113 11.8751C7.0361 10.511 7.03941 9.1453 7.04769 7.78125C7.04934 7.47666 7.10728 7.17868 7.22813 6.89892C7.35228 6.61254 7.54596 6.39237 7.84393 6.27483C8.11045 6.16889 8.3869 6.14075 8.67163 6.17055C9.08548 6.21359 9.38346 6.4172 9.549 6.80125C9.69136 7.13233 9.72447 7.48328 9.72612 7.83753C9.72943 9.18337 9.72612 10.5309 9.72612 11.8767C9.72612 11.9562 9.76696 11.9959 9.84862 11.9959C10.5869 11.9959 11.3252 11.9959 12.0652 11.9959H12.1695C12.1695 11.9495 12.1695 11.9181 12.1695 11.885C12.1695 11.0325 12.1712 10.1783 12.1695 9.32574C12.1678 8.58743 12.1662 7.84912 12.1496 7.11081C12.1447 6.84926 12.1099 6.58771 12.0685 6.32781C12.004 5.91727 11.8881 5.51997 11.6729 5.15909C11.4047 4.70883 11.024 4.3943 10.5273 4.21883C10.087 4.06322 9.63177 4.01687 9.1666 4.0268C8.70971 4.03673 8.2793 4.14433 7.88201 4.36781C7.55258 4.55322 7.27282 4.79491 7.06424 5.11274C7.02782 5.16737 6.99306 5.222 6.95829 5.27663L6.95995 5.27828ZM0.684326 11.9959H0.786961C1.52527 11.9959 2.26358 11.9959 3.00354 11.9959C3.11114 11.9959 3.11114 11.9959 3.11114 11.885C3.11114 9.36547 3.11114 6.84429 3.11114 4.32477C3.11114 4.2089 3.11114 4.2089 2.99527 4.2089C2.26192 4.2089 1.52858 4.2089 0.795237 4.2089C0.721296 4.2089 0.684326 4.24476 0.684326 4.3165C0.684326 6.84264 0.684326 9.36712 0.684326 11.8933C0.684326 11.9247 0.684326 11.9562 0.684326 11.9959ZM0.492299 1.75228C0.484022 2.53197 1.09818 3.17427 1.89608 3.17096C2.70557 3.16765 3.3131 2.55018 3.31476 1.75559C3.31476 0.96762 2.67743 0.358433 1.91098 0.348501C1.13459 0.338568 0.482367 0.990796 0.492299 1.75228Z" fill="black"/>
<path d="M6.95975 5.27821C6.99451 5.22358 7.02927 5.16895 7.06569 5.11432C7.27593 4.79649 7.55404 4.5548 7.88346 4.36939C8.28241 4.14591 8.71116 4.03831 9.16805 4.02838C9.63322 4.01845 10.0868 4.0648 10.5288 4.22041C11.0254 4.39588 11.4045 4.7104 11.6743 5.16067C11.8895 5.52155 12.0038 5.91885 12.07 6.32939C12.1114 6.58763 12.1445 6.85084 12.1511 7.11239C12.166 7.8507 12.1676 8.58901 12.1709 9.32732C12.1743 10.1798 12.1709 11.034 12.1709 11.8866C12.1709 11.918 12.1709 11.9495 12.1709 11.9975H12.0667C11.3283 11.9975 10.59 11.9975 9.85008 11.9975C9.76841 11.9975 9.72758 11.9577 9.72758 11.8783C9.72758 10.5324 9.72758 9.18495 9.72758 7.83911C9.72758 7.48486 9.69281 7.13391 9.55045 6.80283C9.38491 6.41878 9.08694 6.21516 8.67309 6.17212C8.38836 6.14233 8.11191 6.16881 7.84539 6.27641C7.54907 6.3956 7.35373 6.61577 7.22958 6.9005C7.10873 7.18192 7.05079 7.47824 7.04914 7.78283C7.04086 9.14688 7.03755 10.5126 7.03258 11.8766C7.03258 12.014 7.04583 11.9975 6.91505 11.9975C6.18171 11.9975 5.44837 11.9975 4.71502 11.9975C4.60742 11.9975 4.60742 11.9975 4.60742 11.8948C4.60742 9.37036 4.60742 6.84422 4.60742 4.31973C4.60742 4.21378 4.60908 4.21047 4.71502 4.21047C5.41857 4.21047 6.12377 4.21047 6.82731 4.21047C6.93823 4.21047 6.93823 4.21047 6.93823 4.32304C6.93823 4.61439 6.93823 4.90409 6.93823 5.19544C6.93823 5.22192 6.94154 5.25007 6.94319 5.27655C6.94981 5.27655 6.95478 5.27821 6.9614 5.27986L6.95975 5.27821Z" fill="white"/>
<path d="M0.684082 11.9957C0.684082 11.9544 0.684082 11.9229 0.684082 11.8931C0.684082 9.36697 0.684082 6.84248 0.684082 4.31634C0.684082 4.24461 0.721052 4.20874 0.794994 4.20874C1.52834 4.20874 2.26168 4.20874 2.99502 4.20874C3.1109 4.20874 3.1109 4.20874 3.1109 4.32462C3.1109 6.84414 3.1109 9.36531 3.1109 11.8848C3.1109 11.9957 3.1109 11.9957 3.0033 11.9957C2.26499 11.9957 1.52668 11.9957 0.786717 11.9957H0.684082Z" fill="white"/>
<path d="M0.491851 1.75232C0.480263 0.989181 1.13249 0.336953 1.91053 0.348541C2.67698 0.358473 3.31431 0.967661 3.31431 1.75563C3.31431 2.55022 2.70512 3.16934 1.89563 3.171C1.09773 3.17431 0.48523 2.53201 0.491851 1.75232Z" fill="white"/>
</svg>
