<svg width="11" height="10" viewBox="0 0 11 10" fill="none" xmlns="http://www.w3.org/2000/svg">
<path d="M6.09162 4.25639C6.09162 4.25639 6.08171 4.25497 6.07604 4.25356C6.07462 4.23089 6.07179 4.2068 6.07179 4.18413C6.07179 3.93478 6.07179 3.68684 6.07179 3.43749C6.07179 3.34256 6.07179 3.34115 5.97687 3.34115C5.37473 3.34115 4.77118 3.34115 4.16905 3.34115C4.07979 3.34115 4.07696 3.34256 4.07696 3.43465C4.07696 5.59525 4.07696 7.75726 4.07696 9.91786C4.07696 10.0057 4.07696 10.0057 4.16905 10.0057C4.79668 10.0057 5.42432 10.0057 6.05195 10.0057C6.16388 10.0057 6.15255 10.0185 6.15255 9.90228C6.1568 8.73484 6.15963 7.566 6.16671 6.39857C6.16813 6.13788 6.21772 5.88286 6.32114 5.64342C6.4274 5.39832 6.59317 5.20988 6.84819 5.10929C7.07629 5.01862 7.31289 4.99453 7.55658 5.02004C7.91078 5.05687 8.1658 5.23114 8.30748 5.55983C8.42932 5.84319 8.45765 6.14355 8.45907 6.44674C8.4619 7.59858 8.45907 8.75185 8.45907 9.90369C8.45907 9.9717 8.49402 10.0057 8.56391 10.0057C9.1958 10.0057 9.82769 10.0057 10.461 10.0057H10.5502C10.5502 9.96603 10.5502 9.93911 10.5502 9.91078C10.5502 9.18113 10.5517 8.45007 10.5502 7.72043C10.5488 7.08854 10.5474 6.45666 10.5332 5.82477C10.529 5.60092 10.4992 5.37707 10.4638 5.15463C10.4086 4.80327 10.3094 4.46324 10.1252 4.15438C9.89569 3.76902 9.56983 3.49983 9.14479 3.34965C8.76793 3.21647 8.37831 3.1768 7.9802 3.1853C7.58917 3.1938 7.2208 3.28589 6.88077 3.47716C6.59883 3.63584 6.3594 3.84269 6.18088 4.11471C6.14971 4.16146 6.11996 4.20822 6.09021 4.25497L6.09162 4.25639ZM0.720595 10.0057H0.808436C1.44032 10.0057 2.07221 10.0057 2.70551 10.0057C2.7976 10.0057 2.7976 10.0057 2.7976 9.91078C2.7976 7.75443 2.7976 5.59667 2.7976 3.44032C2.7976 3.34115 2.7976 3.34115 2.69843 3.34115C2.07079 3.34115 1.44315 3.34115 0.815519 3.34115C0.752236 3.34115 0.720595 3.37184 0.720595 3.43324C0.720595 5.59525 0.720595 7.75585 0.720595 9.91786C0.720595 9.94478 0.720595 9.9717 0.720595 10.0057ZM0.556248 1.23864C0.549164 1.90594 1.07479 2.45566 1.75768 2.45282C2.45049 2.44999 2.97045 1.92153 2.97187 1.24147C2.97187 0.567083 2.4264 0.0457059 1.77043 0.0372052C1.10596 0.0287045 0.547747 0.586917 0.556248 1.23864Z" fill="black"/>
<path d="M6.09186 4.25631C6.12162 4.20956 6.15137 4.16281 6.18254 4.11605C6.36247 3.84403 6.60049 3.63718 6.88243 3.4785C7.22388 3.28723 7.59082 3.19514 7.98185 3.18664C8.37997 3.17814 8.76817 3.21781 9.14645 3.35099C9.57149 3.50117 9.89593 3.77036 10.1269 4.15572C10.311 4.46458 10.4088 4.80461 10.4655 5.15597C10.5009 5.37699 10.5292 5.60226 10.5349 5.82611C10.5477 6.458 10.5491 7.08988 10.5519 7.72177C10.5547 8.45141 10.5519 9.18247 10.5519 9.91212C10.5519 9.93904 10.5519 9.96596 10.5519 10.007H10.4626C9.83076 10.007 9.19887 10.007 8.56557 10.007C8.49568 10.007 8.46073 9.97304 8.46073 9.90503C8.46073 8.75319 8.46073 7.59993 8.46073 6.44808C8.46073 6.14489 8.43098 5.84453 8.30913 5.56117C8.16745 5.23248 7.91243 5.05821 7.55824 5.02138C7.31455 4.99588 7.07795 5.01855 6.84984 5.11064C6.59624 5.21264 6.42906 5.40108 6.3228 5.64476C6.21937 5.88562 6.16979 6.13922 6.16837 6.39991C6.16129 7.56734 6.15845 8.73619 6.1542 9.90362C6.1542 10.0212 6.16554 10.007 6.05361 10.007C5.42597 10.007 4.79834 10.007 4.1707 10.007C4.07861 10.007 4.07861 10.007 4.07861 9.9192C4.07861 7.75861 4.07861 5.59659 4.07861 3.436C4.07861 3.34532 4.08003 3.34249 4.1707 3.34249C4.77284 3.34249 5.37639 3.34249 5.97852 3.34249C6.07345 3.34249 6.07345 3.34249 6.07345 3.43883C6.07345 3.68818 6.07345 3.93612 6.07345 4.18548C6.07345 4.20814 6.07628 4.23223 6.0777 4.2549C6.08336 4.2549 6.08761 4.25631 6.09328 4.25773L6.09186 4.25631Z" fill="#333333"/>
<path d="M0.720703 10.0056C0.720703 9.9702 0.720703 9.94328 0.720703 9.91778C0.720703 7.75576 0.720703 5.59517 0.720703 3.43316C0.720703 3.37176 0.752344 3.34106 0.815627 3.34106C1.44326 3.34106 2.0709 3.34106 2.69853 3.34106C2.79771 3.34106 2.79771 3.34106 2.79771 3.44024C2.79771 5.59659 2.79771 7.75435 2.79771 9.91069C2.79771 10.0056 2.79771 10.0056 2.70562 10.0056C2.07373 10.0056 1.44185 10.0056 0.808544 10.0056H0.720703Z" fill="#333333"/>
<path d="M0.556282 1.23867C0.546365 0.585535 1.10458 0.027322 1.77047 0.0372395C2.42644 0.0457402 2.9719 0.567117 2.9719 1.24151C2.9719 1.92156 2.45052 2.45144 1.75772 2.45286C1.07483 2.45569 0.550615 1.90598 0.556282 1.23867Z" fill="#333333"/>
</svg>
