<svg width="15" height="17" viewBox="0 0 15 17" fill="none" xmlns="http://www.w3.org/2000/svg">
<path d="M6.26621 9.24217C6.14219 9.22017 6.01817 9.19417 5.89416 9.17617C4.70799 9.00814 3.55583 9.87426 3.38181 11.0604C3.20379 12.2806 4.0239 13.4228 5.21806 13.6188C6.62426 13.8488 7.85443 12.8067 7.85643 11.3685C7.86043 7.80998 7.85643 4.25149 7.85843 0.692994C7.85843 0.628986 7.85843 0.566977 7.85843 0.490967H10.6948C10.7568 1.51711 11.0409 2.45524 11.775 3.20734C12.5111 3.96345 13.4512 4.22948 14.4813 4.28949V7.10188C13.8032 7.05987 13.1432 6.94386 12.4971 6.74783C11.853 6.5538 11.2469 6.27777 10.7048 5.8097C10.7048 5.89371 10.7048 5.94572 10.7048 5.99573C10.7048 7.77597 10.7188 9.55422 10.7008 11.3345C10.6808 13.3327 9.8087 14.8649 8.07246 15.8571C5.15806 17.5213 1.38554 15.8391 0.647433 12.5686C-0.00665696 9.67623 1.8376 6.89985 4.762 6.38178C5.22606 6.29977 5.69413 6.28777 6.16419 6.33977C6.2382 6.34777 6.28021 6.36178 6.28021 6.44979C6.27821 7.36392 6.27821 8.27804 6.27821 9.19217C6.27821 9.20617 6.27221 9.22017 6.26621 9.24217Z" fill="white"/>
</svg>
