<svg width="38" height="38" viewBox="0 0 38 38" fill="none" xmlns="http://www.w3.org/2000/svg">
<g clip-path="url(#clip0_347_13639)">
<mask id="mask0_347_13639" style="mask-type:luminance" maskUnits="userSpaceOnUse" x="0" y="0" width="38" height="38">
<path d="M38 0.0371094H0V38.0001H38V0.0371094Z" fill="white"/>
</mask>
<g mask="url(#mask0_347_13639)">
<path d="M19.0253 37.9473H18.1004C17.7833 37.9473 17.4926 37.9208 17.1755 37.8679C16.8584 37.815 16.5677 37.7886 16.2506 37.7621C15.9335 37.7356 15.6428 37.6563 15.3257 37.6034C15.0086 37.5505 14.7179 37.4711 14.4272 37.3917C14.1365 37.3124 13.8194 37.233 13.5288 37.1536C13.2381 37.0743 12.9474 36.9685 12.6567 36.8626C12.366 36.7568 12.0753 36.651 11.7847 36.5187C11.494 36.3864 11.2033 36.2806 10.939 36.1483C10.6748 36.0161 10.3841 35.8838 10.1198 35.7251C9.85559 35.5663 9.56491 35.4341 9.30066 35.2753C9.0364 35.1166 8.77215 34.9579 8.50789 34.7727C8.24363 34.5875 8.0058 34.4288 7.74155 34.2436C7.50372 34.0584 7.23946 33.8732 7.00163 33.6616C6.7638 33.4764 6.52597 33.2648 6.28814 33.0531C6.05031 32.8415 5.8389 32.6298 5.60107 32.4182C5.38967 32.2066 5.17826 31.9685 4.96686 31.7304C4.75545 31.4923 4.54405 31.2542 4.35907 31.0161C4.17409 30.778 3.96269 30.5399 3.77771 30.2753C3.59273 30.0372 3.40775 29.7727 3.2492 29.5081C3.06422 29.2436 2.90566 28.979 2.74711 28.7145C2.58856 28.4499 2.43 28.1854 2.29787 27.8944C2.16575 27.6034 2.00719 27.3388 1.87507 27.0743C1.74294 26.7833 1.61081 26.5187 1.50511 26.2277C1.3994 25.9367 1.26728 25.6457 1.16157 25.3547C1.05587 25.0637 0.95017 24.7727 0.870893 24.4817C0.791616 24.1907 0.685914 23.8732 0.633062 23.5822C0.580211 23.2912 0.500934 22.9737 0.421658 22.6827C0.368806 22.3917 0.315955 22.0743 0.263104 21.7568C0.210253 21.4394 0.183827 21.1483 0.157402 20.8309C0.130976 20.5134 0.104551 20.2224 0.078125 19.905V18.0531C0.078125 17.7356 0.104551 17.4446 0.157402 17.1272C0.183827 16.8097 0.236679 16.5187 0.263104 16.2013C0.28953 15.8838 0.368806 15.5928 0.421658 15.2753C0.474509 14.9579 0.553786 14.6669 0.633062 14.3759C0.712339 14.0849 0.791616 13.7674 0.870893 13.4764C0.95017 13.1854 1.05587 12.8944 1.16157 12.6034C1.26728 12.3124 1.37298 12.0214 1.50511 11.7304C1.61081 11.4394 1.74294 11.1483 1.87507 10.8838C2.00719 10.5928 2.13932 10.3282 2.29787 10.0637C2.45643 9.79914 2.58856 9.50814 2.74711 9.24359C2.90566 8.97903 3.06422 8.71449 3.2492 8.44993C3.43418 8.18538 3.59273 7.94729 3.77771 7.68274C3.96269 7.44464 4.14767 7.18009 4.35907 6.942C4.54405 6.7039 4.75545 6.46581 4.96686 6.22771C5.17826 5.98962 5.38967 5.77798 5.60107 5.53988C5.81248 5.30179 6.05031 5.1166 6.28814 4.90496C6.52597 4.69332 6.7638 4.48168 7.00163 4.2965C7.23946 4.11131 7.47729 3.89967 7.74155 3.71448C7.97938 3.5293 8.24363 3.34411 8.50789 3.18538C8.77215 3.0002 9.0364 2.84147 9.30066 2.68274C9.56491 2.52401 9.82917 2.36528 10.1198 2.233C10.4105 2.10073 10.6748 1.942 10.939 1.80972C11.2297 1.67745 11.494 1.54517 11.7847 1.43935C12.0753 1.33353 12.366 1.20126 12.6567 1.09544C12.9474 0.989617 13.2381 0.883797 13.5288 0.804432C13.8194 0.725067 14.1365 0.619247 14.4272 0.566337C14.7179 0.513427 15.035 0.434062 15.3257 0.354697C15.6164 0.301787 15.9335 0.248876 16.2506 0.195966C16.5677 0.143056 16.8584 0.116601 17.1755 0.0901463C17.4926 0.0636913 17.7833 0.0372363 18.1004 0.0107812C18.4175 -0.0156738 18.7082 0.0107812 19.0253 0.0107812H19.9502C20.2673 0.0107812 20.558 0.0372363 20.8751 0.0901463C21.1922 0.116601 21.4829 0.169511 21.8 0.195966C22.1171 0.248876 22.4077 0.301787 22.7249 0.354697C23.0155 0.407607 23.3326 0.486972 23.6233 0.566337C23.914 0.645702 24.2311 0.725067 24.5218 0.804432C24.8125 0.883797 25.1032 0.989617 25.3938 1.09544C25.6845 1.20126 25.9752 1.30708 26.2659 1.43935C26.5566 1.54517 26.8472 1.67745 27.1115 1.80972C27.4022 1.942 27.6664 2.07427 27.9307 2.233C28.195 2.39173 28.4856 2.52401 28.7499 2.68274C29.0141 2.84147 29.2784 3.0002 29.5427 3.18538C29.8069 3.37057 30.0447 3.5293 30.309 3.71448C30.5468 3.89967 30.8111 4.08486 31.0489 4.2965C31.2867 4.48168 31.5246 4.69332 31.7624 4.90496C32.0002 5.1166 32.2116 5.32824 32.4495 5.53988C32.6609 5.75152 32.8723 5.98962 33.0837 6.22771C33.2951 6.46581 33.5065 6.7039 33.6915 6.942C33.8765 7.18009 34.0879 7.41819 34.2728 7.68274C34.4578 7.92083 34.6428 8.18538 34.8013 8.44993C34.9863 8.71449 35.1449 8.97903 35.3034 9.24359C35.462 9.50814 35.6205 9.77269 35.7527 10.0637C35.8848 10.3547 36.0434 10.6192 36.1755 10.8838C36.3076 11.1483 36.4397 11.4394 36.5454 11.7304C36.6511 12.0214 36.7833 12.3124 36.889 12.6034C36.9947 12.8944 37.1004 13.1854 37.1797 13.4764C37.2589 13.7674 37.3646 14.0849 37.4175 14.3759C37.4703 14.6669 37.5496 14.9843 37.6289 15.2753C37.6817 15.5663 37.7346 15.8838 37.7874 16.2013C37.8403 16.5187 37.8667 16.8097 37.8931 17.1272C37.9196 17.4446 37.946 17.7356 37.9724 18.0531C37.9988 18.3706 37.9724 18.6616 37.9724 18.979V19.905C37.9724 20.2224 37.946 20.5134 37.8931 20.8309C37.8667 21.1483 37.8139 21.4394 37.7874 21.7568C37.7346 22.0743 37.6817 22.3653 37.6289 22.6827C37.576 22.9737 37.4968 23.2912 37.4175 23.5822C37.3382 23.8732 37.2589 24.1907 37.1797 24.4817C37.1004 24.7727 36.9947 25.0637 36.889 25.3547C36.7833 25.6457 36.6776 25.9367 36.5454 26.2277C36.4133 26.5187 36.3076 26.8097 36.1755 27.0743C36.0434 27.3653 35.9112 27.6298 35.7527 27.8944C35.5941 28.1589 35.462 28.4499 35.3034 28.7145C35.1449 28.979 34.9863 29.2436 34.8013 29.5081C34.6164 29.7727 34.4578 30.0108 34.2728 30.2753C34.0879 30.5134 33.9029 30.778 33.6915 31.0161C33.5065 31.2542 33.2951 31.4923 33.0837 31.7304C32.8723 31.9685 32.6609 32.1801 32.4495 32.3917C32.2381 32.6034 32.0002 32.815 31.7888 33.0267C31.551 33.2383 31.3132 33.4499 31.0753 33.6351C30.8375 33.8203 30.5997 34.0319 30.3354 34.2171C30.0976 34.4023 29.8333 34.5875 29.5691 34.7462C29.3048 34.9314 29.0406 35.0901 28.7763 35.2489C28.5121 35.4076 28.2478 35.5663 27.9571 35.6986C27.6664 35.8309 27.4022 35.9896 27.1379 36.1219C26.8737 36.2542 26.583 36.3864 26.2923 36.4923C26.0016 36.5981 25.7109 36.7304 25.4203 36.8362C25.1296 36.942 24.8389 37.0478 24.5482 37.1272C24.2575 37.2065 23.9404 37.3124 23.6498 37.3653C23.3591 37.4182 23.042 37.4976 22.7513 37.5769C22.4606 37.6298 22.1435 37.6827 21.8264 37.7356C21.5093 37.7886 21.2186 37.815 20.9015 37.8415C20.5844 37.8679 20.2937 37.8944 19.9766 37.9208H19.0517L19.0253 37.9473ZM19.0253 1.30708H18.1532C17.8625 1.30708 17.5719 1.33353 17.2812 1.35999C16.9905 1.38644 16.6998 1.4129 16.4091 1.46581C16.1185 1.51872 15.8278 1.54517 15.5635 1.62454C15.2993 1.7039 15.0086 1.75681 14.7179 1.80972C14.4272 1.86263 14.163 1.96845 13.8723 2.04782C13.608 2.12718 13.3173 2.233 13.0531 2.31237C12.7888 2.39173 12.5246 2.52401 12.2339 2.62983C11.9696 2.73565 11.7054 2.86792 11.4411 2.97374C11.1769 3.07956 10.9126 3.23829 10.6748 3.37057C10.4105 3.50284 10.1727 3.66157 9.90845 3.79385C9.67062 3.95258 9.40636 4.08486 9.16853 4.27004C8.9307 4.45523 8.69287 4.5875 8.45504 4.77269C8.21721 4.95787 8.0058 5.1166 7.76797 5.30179C7.55657 5.48697 7.31874 5.67216 7.10733 5.85734C6.89593 6.04253 6.68452 6.25417 6.47312 6.46581C6.26171 6.67745 6.07673 6.88909 5.86533 7.10073C5.68035 7.31237 5.49537 7.52401 5.31039 7.7621C5.12541 7.97374 4.94043 8.21184 4.78188 8.44993C4.5969 8.68803 4.43835 8.92612 4.27979 9.16422C4.12124 9.40232 3.96269 9.64041 3.80413 9.90496C3.64558 10.1431 3.51345 10.4076 3.38132 10.6722C3.2492 10.9367 3.11707 11.1748 2.98494 11.4394C2.85281 11.7039 2.74711 11.9685 2.64141 12.233C2.5357 12.4976 2.43 12.7621 2.3243 13.0531C2.2186 13.3177 2.13932 13.6087 2.06004 13.8732C1.98077 14.1378 1.90149 14.4288 1.82221 14.7198C1.74294 15.0108 1.69009 15.2753 1.63723 15.5663C1.58438 15.8573 1.53153 16.1219 1.47868 16.4129C1.42583 16.7039 1.3994 16.9949 1.37298 17.2859C1.34655 17.5769 1.32013 17.8679 1.32013 18.1589V19.905C1.32013 20.196 1.34655 20.487 1.37298 20.778C1.3994 21.069 1.42583 21.36 1.47868 21.651C1.53153 21.942 1.55796 22.233 1.63723 22.4976C1.69009 22.7886 1.76936 23.0531 1.82221 23.3441C1.90149 23.6351 1.98077 23.8997 2.06004 24.1907C2.13932 24.4552 2.24502 24.7462 2.3243 25.0108C2.43 25.2753 2.5357 25.5663 2.64141 25.8309C2.74711 26.0954 2.87924 26.36 2.98494 26.6245C3.09064 26.8891 3.2492 27.1536 3.38132 27.3917C3.51345 27.6298 3.67201 27.8944 3.80413 28.1589C3.96269 28.397 4.09481 28.6616 4.27979 28.8997C4.43835 29.1378 4.5969 29.3759 4.78188 29.614C4.96686 29.8521 5.12541 30.0637 5.31039 30.3018C5.49537 30.5134 5.68035 30.7515 5.86533 30.9632C6.05031 31.1748 6.26171 31.3864 6.47312 31.5981C6.68452 31.8097 6.89593 31.9949 7.10733 32.2066C7.31874 32.3917 7.53014 32.5769 7.76797 32.7621C7.97938 32.9473 8.21721 33.1325 8.45504 33.2912C8.69287 33.4499 8.9307 33.6351 9.16853 33.7938C9.40636 33.9526 9.64419 34.1113 9.90845 34.27C10.1463 34.4288 10.4105 34.561 10.6748 34.6933C10.939 34.8256 11.1769 34.9579 11.4411 35.0901C11.7054 35.2224 11.9696 35.3282 12.2339 35.4341C12.4982 35.5399 12.7624 35.6457 13.0531 35.7515C13.3173 35.8573 13.608 35.9367 13.8723 36.0161C14.1365 36.0954 14.4272 36.1748 14.7179 36.2542C15.0086 36.3335 15.2728 36.3864 15.5635 36.4394C15.8542 36.4923 16.1185 36.5452 16.4091 36.5981C16.6998 36.651 16.9905 36.6774 17.2812 36.7039C17.5719 36.7304 17.8625 36.7568 18.1532 36.7568H19.8973C20.188 36.7568 20.4787 36.7304 20.7694 36.7039C21.06 36.6774 21.3507 36.651 21.6414 36.5981C21.9321 36.5452 22.2228 36.5187 22.487 36.4394C22.7777 36.3864 23.042 36.3071 23.3326 36.2542C23.6233 36.1748 23.8876 36.0954 24.1783 36.0161C24.4425 35.9367 24.7332 35.8309 24.9975 35.7515C25.2617 35.6457 25.5524 35.5399 25.8166 35.4341C26.0809 35.3282 26.3452 35.196 26.6094 35.0901C26.8737 34.9843 27.1379 34.8256 27.3758 34.6933C27.64 34.561 27.8778 34.4023 28.1421 34.27C28.3799 34.1113 28.6442 33.979 28.882 33.7938C29.1199 33.6351 29.3577 33.4764 29.5955 33.2912C29.8333 33.106 30.0447 32.9473 30.2826 32.7621C30.494 32.5769 30.7318 32.3917 30.9432 32.2066C31.1546 32.0214 31.366 31.8097 31.5774 31.5981C31.7888 31.3864 31.9738 31.1748 32.1852 30.9632C32.3702 30.7515 32.5552 30.5399 32.7402 30.3018C32.9251 30.0901 33.1101 29.8521 33.2687 29.614C33.4272 29.3759 33.6122 29.1378 33.7708 28.8997C33.9293 28.6616 34.0879 28.4235 34.2464 28.1589C34.405 27.8944 34.5371 27.6563 34.6692 27.3917C34.8013 27.1272 34.9335 26.8891 35.0656 26.6245C35.1977 26.36 35.3034 26.0954 35.4091 25.8309C35.5148 25.5663 35.6205 25.3018 35.7262 25.0108C35.8319 24.7462 35.9112 24.4552 35.9905 24.1907C36.0698 23.9261 36.1491 23.6351 36.2283 23.3441C36.3076 23.0531 36.3605 22.7886 36.4133 22.4976C36.4662 22.2066 36.519 21.942 36.5719 21.651C36.6247 21.36 36.6511 21.069 36.6776 20.778C36.704 20.487 36.7304 20.196 36.7304 19.905V18.1589C36.7304 17.8679 36.704 17.5769 36.6776 17.2859C36.6511 16.9949 36.6247 16.7039 36.5719 16.4129C36.519 16.1219 36.4926 15.8309 36.4133 15.5663C36.3605 15.2753 36.2812 15.0108 36.2283 14.7198C36.1491 14.4288 36.0698 14.1642 35.9905 13.8732C35.9112 13.6087 35.8055 13.3177 35.7262 13.0531C35.647 12.7886 35.5148 12.524 35.4091 12.233C35.3034 11.9685 35.1713 11.7039 35.0656 11.4394C34.9335 11.1748 34.8013 10.9103 34.6692 10.6722C34.5371 10.4076 34.3785 10.1695 34.2464 9.90496C34.0879 9.66687 33.9557 9.40232 33.7708 9.16422C33.6122 8.92612 33.4536 8.68803 33.2687 8.44993C33.0837 8.21184 32.9251 8.0002 32.7402 7.7621C32.5552 7.55046 32.3702 7.31237 32.1852 7.10073C32.0002 6.88909 31.7888 6.67745 31.5774 6.46581C31.366 6.25417 31.1546 6.06898 30.9432 5.85734C30.7318 5.6457 30.5204 5.48697 30.2826 5.30179C30.0712 5.1166 29.8333 4.93142 29.5955 4.77269C29.3577 4.5875 29.1199 4.42877 28.882 4.27004C28.6442 4.11131 28.4064 3.95258 28.1421 3.79385C27.9043 3.63512 27.64 3.50284 27.3758 3.37057C27.1115 3.23829 26.8737 3.10602 26.6094 2.97374C26.3452 2.84147 26.0809 2.73565 25.8166 2.62983C25.5524 2.52401 25.2881 2.41819 24.9975 2.31237C24.7068 2.20655 24.4425 2.12718 24.1783 2.04782C23.914 1.96845 23.6233 1.88909 23.3326 1.80972C23.042 1.73036 22.7777 1.67745 22.487 1.62454C22.1963 1.57163 21.9321 1.51872 21.6414 1.46581C21.3507 1.4129 21.06 1.38644 20.7694 1.35999C20.4787 1.33353 20.188 1.30708 19.8973 1.30708H19.0253Z" fill="#FF9421"/>
</g>
<path d="M14.9836 10.3811C14.7457 10.2753 14.4815 10.3282 14.2965 10.5134L9.40777 15.3811H6.2367C5.89316 15.3811 5.62891 15.6456 5.62891 15.9895V22.7091C5.62891 23.053 5.91959 23.3176 6.2367 23.3176H9.40777L14.2965 28.1853C14.5343 28.4234 14.9307 28.4234 15.1685 28.1853C15.2742 28.0795 15.3535 27.9208 15.3535 27.7356V10.9102C15.3535 10.6721 15.195 10.434 14.9571 10.3282L14.9836 10.3811ZM14.4815 27.1536L9.98913 22.6562C9.88343 22.5504 9.72487 22.471 9.53989 22.471H6.52738V16.2806H9.53989C9.69845 16.2806 9.857 16.2276 9.98913 16.0954L14.4815 11.598V27.1536Z" fill="#FF9421"/>
<path d="M30.6305 13.344C30.4455 13.7144 30.2605 14.0847 30.0755 14.4816C29.9963 14.4022 29.917 14.3493 29.8377 14.2964C28.8071 13.3175 27.5123 13.8996 26.9573 15.2488C26.6666 15.9366 26.5081 16.7038 26.4552 17.4974C26.3231 18.8466 26.3231 20.2223 26.5345 21.5715C26.6138 22.1271 26.7723 22.6562 26.9837 23.1588C27.5915 24.508 28.7278 24.799 29.6527 24.1112C29.8377 23.9789 30.0227 23.7937 30.2341 23.6086C30.3926 23.9525 30.5776 24.3228 30.7626 24.6932C30.4719 25.1165 30.1284 25.4075 29.7584 25.5927C28.5957 26.1482 27.1159 25.6456 26.3231 23.8466C26.006 23.1324 25.7946 22.3652 25.6889 21.5186C25.4775 19.8255 25.4775 18.1324 25.7682 16.4657C25.9267 15.5662 26.2174 14.7197 26.6402 14.0054C27.433 12.762 28.4107 12.2858 29.5734 12.6033C29.9698 12.7091 30.2869 13.0001 30.6305 13.3705V13.344Z" fill="#3C540E"/>
<path d="M21.1406 24.3228V14.4551C21.4577 14.3757 21.7748 14.2963 22.1184 14.2434C22.4091 14.1905 22.6733 14.1641 22.964 14.1641C23.6246 14.217 24.0739 14.7461 24.2324 15.672C24.3381 16.2805 24.3381 16.8889 24.2324 17.4709C24.1267 18.0794 23.8889 18.5821 23.4661 18.8731C23.4397 18.8995 23.3868 18.9524 23.3339 19.0053C23.3868 19.0582 23.4132 19.0847 23.4661 19.1112C24.1267 19.3757 24.4438 20.0635 24.5495 20.963C24.6288 21.5979 24.6288 22.2328 24.4967 22.8413C24.3117 23.926 23.7832 24.5609 22.964 24.5344C22.3562 24.5344 21.7748 24.4022 21.1406 24.3228ZM21.6691 23.4498C22.0919 23.4498 22.4883 23.5291 22.8847 23.5027C23.3339 23.5027 23.6246 23.0794 23.7568 22.4709C23.836 22.0212 23.8625 21.545 23.7832 21.0688C23.6511 20.0371 23.2282 19.5609 22.4883 19.5344H21.8805C21.8013 19.5344 21.7484 19.5609 21.6691 19.5873V23.4498ZM21.6956 15.3016C21.6427 15.7778 21.6691 18.344 21.6956 18.635H22.4619C22.964 18.635 23.3075 18.2381 23.4925 17.6032C23.6246 17.0741 23.6511 16.545 23.5454 15.9895C23.4397 15.5397 23.2282 15.2487 22.8847 15.1694C22.4883 15.09 22.0919 15.1694 21.6956 15.3016Z" fill="#527215"/>
<path d="M18.4732 15.0634C18.6846 15.0105 18.8431 14.9841 19.0281 14.9312C19.4773 17.9999 19.9001 21.0423 20.3494 24.1375C20.1644 24.1375 20.0323 24.0846 19.8473 24.0581C19.7416 23.2645 19.6359 22.4708 19.5302 21.6507C19.0281 21.6243 18.5524 21.5714 18.0239 21.5449C17.9182 22.2857 17.8389 22.9735 17.7332 23.7142C17.6011 23.6878 17.4954 23.6613 17.3633 23.6349C17.7332 20.7777 18.1032 17.947 18.4732 15.0899V15.0634ZM19.3981 20.7248C19.1866 19.164 19.0017 17.6031 18.7903 16.0687H18.711C18.526 17.6031 18.3146 19.1375 18.1296 20.7248H19.3981Z" fill="#608D17"/>
</g>
<defs>
<clipPath id="clip0_347_13639">
<rect width="38" height="38" fill="white"/>
</clipPath>
</defs>
</svg>
