<svg width="42" height="42" viewBox="0 0 42 42" fill="none" xmlns="http://www.w3.org/2000/svg">
<g clip-path="url(#clip0_347_13711)">
<path d="M10.7764 19.528H9.16997L8.8779 20.6399H7.91406L9.40363 15.812H10.5427L12.0323 20.6399H11.0684L10.7764 19.528ZM10.5719 18.8258L9.95857 16.5143L9.34522 18.8258H10.5719Z" fill="#608D17"/>
<path d="M11.7139 24.8243C11.7139 25.8777 10.8669 26.2288 9.69864 26.2288H8.23828V21.4009H9.49419C10.7501 21.4009 11.4803 21.752 11.4803 22.6298C11.4803 23.5076 11.0422 23.5661 10.5749 23.6832C11.1298 23.8002 11.6847 24.0343 11.6847 24.8536L11.7139 24.8243ZM9.17291 22.0446V23.3613H9.72785C10.2244 23.3613 10.5457 23.1272 10.5457 22.6883C10.5457 22.2494 10.2244 22.0446 9.58181 22.0446H9.14371H9.17291ZM10.7501 24.7951C10.7501 24.2099 10.3412 24.005 9.78626 24.005H9.14371V25.5266H9.66944C10.2828 25.5266 10.7209 25.4095 10.7209 24.7951H10.7501Z" fill="#608D17"/>
<path d="M29.6758 20.9912H34.0861" stroke="#DB3ECF" stroke-miterlimit="10" stroke-linecap="round"/>
<path d="M29.6758 17.1581L33.9108 13.998" stroke="#DB3ECF" stroke-miterlimit="10" stroke-linecap="round"/>
<path d="M29.6758 24.8242L33.9108 28.0136" stroke="#DB3ECF" stroke-miterlimit="10" stroke-linecap="round"/>
<mask id="mask0_347_13711" style="mask-type:luminance" maskUnits="userSpaceOnUse" x="0" y="0" width="42" height="42">
<path d="M42 0.0117188H0V42H42V0.0117188Z" fill="white"/>
</mask>
<g mask="url(#mask0_347_13711)">
<path d="M21.0275 41.9706H20.0053C19.6548 41.9706 19.3335 41.9413 18.983 41.8828C18.6325 41.8243 18.3113 41.795 17.9608 41.7658C17.6103 41.7365 17.289 41.6487 16.9385 41.5902C16.588 41.5317 16.2667 41.4439 15.9455 41.3561C15.6242 41.2683 15.2737 41.1806 14.9524 41.0928C14.6311 41.005 14.3099 40.888 13.9886 40.7709C13.6673 40.6539 13.346 40.5368 13.0247 40.3905C12.7035 40.2442 12.3822 40.1272 12.0901 39.9809C11.798 39.8346 11.4768 39.6883 11.1847 39.5127C10.8926 39.3372 10.5713 39.1909 10.2793 39.0153C9.98719 38.8397 9.69512 38.6642 9.40304 38.4594C9.11097 38.2545 8.84811 38.079 8.55604 37.8742C8.29317 37.6693 8.0011 37.4645 7.73823 37.2304C7.47537 37.0256 7.2125 36.7915 6.94964 36.5575C6.68677 36.3234 6.45311 36.0893 6.19025 35.8552C5.95659 35.6211 5.72293 35.3578 5.48928 35.0944C5.25562 34.8311 5.02196 34.5678 4.81751 34.3044C4.61306 34.0411 4.3794 33.7777 4.17495 33.4851C3.9705 33.2218 3.76605 32.9292 3.59081 32.6366C3.38635 32.344 3.21111 32.0514 3.03587 31.7588C2.86062 31.4662 2.68538 31.1736 2.53935 30.8517C2.39331 30.5299 2.21807 30.2373 2.07203 29.9447C1.92599 29.6228 1.77996 29.3302 1.66313 29.0083C1.5463 28.6865 1.40026 28.3646 1.28343 28.0428C1.16661 27.7209 1.04978 27.399 0.962155 27.0772C0.874533 26.7553 0.757704 26.4042 0.699289 26.0823C0.640875 25.7605 0.553253 25.4093 0.465632 25.0875C0.407217 24.7656 0.348803 24.4145 0.290388 24.0634C0.231974 23.7123 0.202766 23.3904 0.173559 23.0393C0.144352 22.6881 0.115145 22.3663 0.0859375 22.0152V19.967C0.0859375 19.6158 0.115145 19.294 0.173559 18.9428C0.202766 18.5917 0.261181 18.2699 0.290388 17.9187C0.319595 17.5676 0.407217 17.2458 0.465632 16.8946C0.524046 16.5435 0.611668 16.2217 0.699289 15.8998C0.786911 15.5779 0.874533 15.2268 0.962155 14.9049C1.04978 14.5831 1.16661 14.2612 1.28343 13.9394C1.40026 13.6175 1.51709 13.2956 1.66313 12.9738C1.77996 12.6519 1.92599 12.3301 2.07203 12.0375C2.21807 11.7156 2.3641 11.423 2.53935 11.1304C2.71459 10.8378 2.86062 10.5159 3.03587 10.2233C3.21111 9.93073 3.38635 9.63813 3.59081 9.34552C3.79526 9.05292 3.9705 8.78958 4.17495 8.49698C4.3794 8.23364 4.58385 7.94104 4.81751 7.6777C5.02196 7.41435 5.25562 7.15101 5.48928 6.88767C5.72293 6.62433 5.95659 6.39025 6.19025 6.12691C6.42391 5.86357 6.68677 5.65875 6.94964 5.42467C7.2125 5.19058 7.47537 4.9565 7.73823 4.75168C8.0011 4.54686 8.26396 4.31278 8.55604 4.10796C8.8189 3.90314 9.11097 3.69832 9.40304 3.52276C9.69512 3.31794 9.98719 3.14237 10.2793 2.96681C10.5713 2.79125 10.8634 2.61569 11.1847 2.46939C11.506 2.32309 11.798 2.14753 12.0901 2.00123C12.4114 1.85493 12.7035 1.70863 13.0247 1.59159C13.346 1.47455 13.6673 1.32825 13.9886 1.21121C14.3099 1.09416 14.6311 0.977124 14.9524 0.889344C15.2737 0.801563 15.6242 0.684523 15.9455 0.626003C16.2667 0.567482 16.6172 0.479702 16.9385 0.391921C17.2598 0.333401 17.6103 0.274881 17.9608 0.216361C18.3113 0.15784 18.6325 0.12858 18.983 0.0993201C19.3335 0.0700599 19.6548 0.0407998 20.0053 0.0115397C20.3558 -0.0177205 20.677 0.0115397 21.0275 0.0115397H22.0498C22.4003 0.0115397 22.7215 0.0407998 23.072 0.0993201C23.4225 0.12858 23.7438 0.1871 24.0943 0.216361C24.4448 0.245621 24.766 0.333401 25.1165 0.391921C25.4378 0.450442 25.7883 0.538222 26.1096 0.626003C26.4309 0.713783 26.7813 0.801563 27.1026 0.889344C27.4239 0.977124 27.7452 1.09416 28.0665 1.21121C28.3877 1.32825 28.709 1.44529 29.0303 1.59159C29.3516 1.70863 29.6729 1.85493 29.9649 2.00123C30.2862 2.14753 30.5783 2.29383 30.8704 2.46939C31.1624 2.64495 31.4837 2.79125 31.7758 2.96681C32.0679 3.14237 32.3599 3.31794 32.652 3.52276C32.9441 3.72758 33.2069 3.90314 33.499 4.10796C33.7619 4.31278 34.0539 4.5176 34.3168 4.75168C34.5797 4.9565 34.8425 5.19058 35.1054 5.42467C35.3683 5.65875 35.6019 5.89283 35.8648 6.12691C36.0985 6.36099 36.3321 6.62433 36.5658 6.88767C36.7994 7.15101 37.0331 7.41435 37.2375 7.6777C37.442 7.94104 37.6756 8.20438 37.8801 8.49698C38.0845 8.76032 38.289 9.05292 38.4642 9.34552C38.6687 9.63813 38.8439 9.93073 39.0192 10.2233C39.1944 10.5159 39.3697 10.8085 39.5157 11.1304C39.6617 11.4523 39.837 11.7449 39.983 12.0375C40.1291 12.3301 40.2751 12.6519 40.3919 12.9738C40.5087 13.2956 40.6548 13.6175 40.7716 13.9394C40.8884 14.2612 41.0053 14.5831 41.0929 14.9049C41.1805 15.2268 41.2973 15.5779 41.3558 15.8998C41.4142 16.2217 41.5018 16.5728 41.5894 16.8946C41.6478 17.2165 41.7062 17.5676 41.7647 17.9187C41.8231 18.2699 41.8523 18.5917 41.8815 18.9428C41.9107 19.294 41.9399 19.6158 41.9691 19.967C41.9983 20.3181 41.9691 20.6399 41.9691 20.9911V22.0152C41.9691 22.3663 41.9399 22.6881 41.8815 23.0393C41.8523 23.3904 41.7939 23.7123 41.7647 24.0634C41.7062 24.4145 41.6478 24.7364 41.5894 25.0875C41.531 25.4093 41.4434 25.7605 41.3558 26.0823C41.2681 26.4042 41.1805 26.7553 41.0929 27.0772C41.0053 27.399 40.8884 27.7209 40.7716 28.0428C40.6548 28.3646 40.538 28.6865 40.3919 29.0083C40.2459 29.3302 40.1291 29.6521 39.983 29.9447C39.837 30.2665 39.6909 30.5591 39.5157 30.8517C39.3405 31.1443 39.1944 31.4662 39.0192 31.7588C38.8439 32.0514 38.6687 32.344 38.4642 32.6366C38.2598 32.9292 38.0845 33.1925 37.8801 33.4851C37.6756 33.7485 37.4712 34.0411 37.2375 34.3044C37.0331 34.5678 36.7994 34.8311 36.5658 35.0944C36.3321 35.3578 36.0985 35.5919 35.8648 35.826C35.6311 36.06 35.3683 36.2941 35.1346 36.5282C34.8717 36.7623 34.6089 36.9964 34.346 37.2012C34.0832 37.406 33.8203 37.6401 33.5282 37.8449C33.2654 38.0497 32.9733 38.2545 32.6812 38.4301C32.3891 38.6349 32.0971 38.8105 31.805 38.986C31.5129 39.1616 31.2208 39.3372 30.8996 39.4835C30.5783 39.6298 30.2862 39.8053 29.9941 39.9516C29.7021 40.0979 29.3808 40.2442 29.0595 40.3613C28.7382 40.4783 28.417 40.6246 28.0957 40.7417C27.7744 40.8587 27.4531 40.9757 27.1318 41.0635C26.8106 41.1513 26.4601 41.2683 26.1388 41.3269C25.8175 41.3854 25.467 41.4732 25.1457 41.5609C24.8245 41.6195 24.474 41.678 24.1235 41.7365C23.773 41.795 23.4517 41.8243 23.1012 41.8535C22.7507 41.8828 22.4295 41.9121 22.079 41.9413H21.0567L21.0275 41.9706ZM21.0275 1.44529H20.0637C19.7424 1.44529 19.4211 1.47455 19.0998 1.50381C18.7786 1.53307 18.4573 1.56233 18.136 1.62085C17.8147 1.67937 17.4934 1.70863 17.2014 1.79641C16.9093 1.88419 16.588 1.94271 16.2667 2.00123C15.9455 2.05975 15.6534 2.17679 15.3321 2.26457C15.04 2.35235 14.7188 2.46939 14.4267 2.55717C14.1346 2.64495 13.8425 2.79125 13.5213 2.90829C13.2292 3.02533 12.9371 3.17163 12.645 3.28867C12.353 3.40572 12.0609 3.58128 11.798 3.72758C11.506 3.87388 11.2431 4.04944 10.951 4.19574C10.6882 4.3713 10.3961 4.5176 10.1332 4.72242C9.87036 4.92724 9.6075 5.07354 9.34463 5.27836C9.08177 5.48319 8.84811 5.65875 8.58524 5.86357C8.35158 6.06839 8.08872 6.27321 7.85506 6.47803C7.6214 6.68285 7.38775 6.91693 7.15409 7.15101C6.92043 7.38509 6.71598 7.61918 6.48232 7.85326C6.27787 8.08734 6.07342 8.32142 5.86897 8.58476C5.66452 8.81884 5.46007 9.08218 5.28483 9.34552C5.08037 9.60886 4.90513 9.87221 4.72989 10.1355C4.55464 10.3989 4.3794 10.6622 4.20416 10.9548C4.02891 11.2182 3.88288 11.5108 3.73684 11.8034C3.59081 12.096 3.44477 12.3593 3.29873 12.6519C3.1527 12.9445 3.03587 13.2371 2.91904 13.5297C2.80221 13.8223 2.68538 14.1149 2.56855 14.4368C2.45172 14.7294 2.3641 15.0512 2.27648 15.3439C2.18886 15.6365 2.10124 15.9583 2.01361 16.2802C1.92599 16.602 1.86758 16.8946 1.80916 17.2165C1.75075 17.5384 1.69234 17.831 1.63392 18.1528C1.57551 18.4747 1.5463 18.7965 1.51709 19.1184C1.48788 19.4403 1.45868 19.7621 1.45868 20.084V22.0152C1.45868 22.337 1.48788 22.6589 1.51709 22.9807C1.5463 23.3026 1.57551 23.6245 1.63392 23.9463C1.69234 24.2682 1.72154 24.5901 1.80916 24.8827C1.86758 25.2045 1.9552 25.4971 2.01361 25.819C2.10124 26.1408 2.18886 26.4334 2.27648 26.7553C2.3641 27.0479 2.48093 27.3698 2.56855 27.6624C2.68538 27.955 2.80221 28.2768 2.91904 28.5694C3.03587 28.862 3.1819 29.1546 3.29873 29.4472C3.41556 29.7398 3.59081 30.0324 3.73684 30.2958C3.88288 30.5591 4.05812 30.8517 4.20416 31.1443C4.3794 31.4077 4.52544 31.7003 4.72989 31.9636C4.90513 32.227 5.08037 32.4903 5.28483 32.7536C5.48928 33.017 5.66452 33.2511 5.86897 33.5144C6.07342 33.7485 6.27787 34.0118 6.48232 34.2459C6.68677 34.48 6.92043 34.7141 7.15409 34.9481C7.38775 35.1822 7.6214 35.387 7.85506 35.6211C8.08872 35.8259 8.32238 36.0308 8.58524 36.2356C8.8189 36.4404 9.08177 36.6452 9.34463 36.8208C9.6075 36.9964 9.87036 37.2012 10.1332 37.3767C10.3961 37.5523 10.659 37.7279 10.951 37.9034C11.2139 38.079 11.506 38.2253 11.798 38.3716C12.0901 38.5179 12.353 38.6642 12.645 38.8105C12.9371 38.9568 13.2292 39.0738 13.5213 39.1909C13.8133 39.3079 14.1054 39.4249 14.4267 39.542C14.7188 39.659 15.04 39.7468 15.3321 39.8346C15.6242 39.9224 15.9455 40.0101 16.2667 40.0979C16.588 40.1857 16.8801 40.2442 17.2014 40.3027C17.5227 40.3613 17.8147 40.4198 18.136 40.4783C18.4573 40.5368 18.7786 40.5661 19.0998 40.5954C19.4211 40.6246 19.7424 40.6539 20.0637 40.6539H21.9914C22.3126 40.6539 22.6339 40.6246 22.9552 40.5954C23.2765 40.5661 23.5978 40.5368 23.919 40.4783C24.2403 40.4198 24.5616 40.3905 24.8537 40.3027C25.1749 40.2442 25.467 40.1564 25.7883 40.0979C26.1096 40.0101 26.4017 39.9224 26.7229 39.8346C27.015 39.7468 27.3363 39.6298 27.6284 39.542C27.9204 39.4249 28.2417 39.3079 28.5338 39.1909C28.8259 39.0738 29.1179 38.9275 29.41 38.8105C29.7021 38.6934 29.9941 38.5179 30.257 38.3716C30.5491 38.2253 30.8119 38.0497 31.104 37.9034C31.3669 37.7279 31.659 37.5816 31.9218 37.3767C32.1847 37.2012 32.4476 37.0256 32.7104 36.8208C32.9733 36.616 33.2069 36.4404 33.4698 36.2356C33.7035 36.0308 33.9663 35.8259 34.2 35.6211C34.4336 35.4163 34.6673 35.1822 34.901 34.9481C35.1346 34.7141 35.3391 34.48 35.5727 34.2459C35.7772 34.0118 35.9816 33.7777 36.1861 33.5144C36.3905 33.2803 36.595 33.017 36.7702 32.7536C36.9455 32.4903 37.1499 32.227 37.3252 31.9636C37.5004 31.7003 37.6756 31.4369 37.8509 31.1443C38.0261 30.8517 38.1722 30.5884 38.3182 30.2958C38.4642 30.0032 38.6103 29.7398 38.7563 29.4472C38.9023 29.1546 39.0192 28.862 39.136 28.5694C39.2528 28.2768 39.3697 27.9842 39.4865 27.6624C39.6033 27.3698 39.6909 27.0479 39.7786 26.7553C39.8662 26.4627 39.9538 26.1408 40.0414 25.819C40.1291 25.4971 40.1875 25.2045 40.2459 24.8827C40.3043 24.5608 40.3627 24.2682 40.4211 23.9463C40.4795 23.6245 40.5087 23.3026 40.538 22.9807C40.5672 22.6589 40.5964 22.337 40.5964 22.0152V20.084C40.5964 19.7621 40.5672 19.4403 40.538 19.1184C40.5087 18.7965 40.4795 18.4747 40.4211 18.1528C40.3627 17.831 40.3335 17.5091 40.2459 17.2165C40.1875 16.8946 40.0998 16.602 40.0414 16.2802C39.9538 15.9583 39.8662 15.6657 39.7786 15.3439C39.6909 15.0512 39.5741 14.7294 39.4865 14.4368C39.3989 14.1442 39.2528 13.8516 39.136 13.5297C39.0192 13.2371 38.8731 12.9445 38.7563 12.6519C38.6103 12.3593 38.4642 12.0667 38.3182 11.8034C38.1722 11.5108 37.9969 11.2474 37.8509 10.9548C37.6756 10.6915 37.5296 10.3989 37.3252 10.1355C37.1499 9.87221 36.9747 9.60886 36.7702 9.34552C36.5658 9.08218 36.3905 8.8481 36.1861 8.58476C35.9816 8.35068 35.7772 8.08734 35.5727 7.85326C35.3683 7.61918 35.1346 7.38509 34.901 7.15101C34.6673 6.91693 34.4336 6.71211 34.2 6.47803C33.9663 6.24395 33.7327 6.06839 33.4698 5.86357C33.2361 5.65875 32.9733 5.45393 32.7104 5.27836C32.4476 5.07354 32.1847 4.89798 31.9218 4.72242C31.659 4.54686 31.3961 4.3713 31.104 4.19574C30.8412 4.02018 30.5491 3.87388 30.257 3.72758C29.9649 3.58128 29.7021 3.43498 29.41 3.28867C29.1179 3.14237 28.8259 3.02533 28.5338 2.90829C28.2417 2.79125 27.9496 2.67421 27.6284 2.55717C27.3071 2.44013 27.015 2.35235 26.7229 2.26457C26.4309 2.17679 26.1096 2.08901 25.7883 2.00123C25.467 1.91345 25.1749 1.85493 24.8537 1.79641C24.5324 1.73789 24.2403 1.67937 23.919 1.62085C23.5978 1.56233 23.2765 1.53307 22.9552 1.50381C22.6339 1.47455 22.3126 1.44529 21.9914 1.44529H21.0275Z" fill="#DB3ECF"/>
</g>
<path d="M26.3138 8.5559C25.9925 8.4096 25.6128 8.49738 25.3792 8.73146L18.6323 15.4613H14.222C13.7547 15.4613 13.375 15.8417 13.375 16.3098V25.6146C13.375 26.0827 13.7547 26.4631 14.222 26.4631H18.6323L25.3792 33.1929C25.7005 33.5148 26.2554 33.5441 26.6059 33.1929C26.7811 33.0174 26.8687 32.8126 26.8687 32.5785V9.2874C26.8687 8.93628 26.6643 8.61442 26.343 8.49738L26.3138 8.5559ZM25.6128 31.7592L19.3917 25.5268C19.2164 25.3805 19.012 25.2634 18.7783 25.2634H14.6017V16.6902H18.7783C19.012 16.6902 19.2164 16.6024 19.3917 16.4269L25.6128 10.1945V31.7592Z" fill="#DB3ECF"/>
</g>
<defs>
<clipPath id="clip0_347_13711">
<rect width="42" height="42" fill="white"/>
</clipPath>
</defs>
</svg>
