<svg width="40" height="40" viewBox="0 0 40 40" fill="none" xmlns="http://www.w3.org/2000/svg">
<g clip-path="url(#clip0_892_1030)">
<path d="M20.0503 5.45095e-06C8.96184 -0.00805013 0.00805694 8.91351 1.35776e-06 19.9779C-0.00402643 31.0382 8.95378 39.996 20.0222 39.992C31.0583 39.9839 40 31.0422 40 20.0061C40 8.9699 31.0865 0.00806104 20.0503 5.45095e-06ZM31.6061 18.7413C30.9052 18.7534 27.9327 18.8179 26.4425 18.9951C26.4425 18.9951 26.4411 18.9951 26.4384 18.9951V18.983L26.2451 17.9197C27.1151 17.6015 28.984 16.9046 30.7643 16.0991C31.1791 16.9127 31.4691 17.8069 31.6061 18.7454V18.7413ZM25.5966 16.1474C25.8786 15.8937 27.0909 14.7901 28.263 13.0984C28.698 13.4246 29.0968 13.7912 29.4593 14.1939C28.7907 14.6491 26.4948 16.2038 25.8302 16.6549C25.8262 16.6469 25.8262 16.6428 25.8222 16.6388C25.8181 16.6308 25.8141 16.6227 25.8101 16.6146L25.6047 16.1716C25.6047 16.1716 25.6047 16.1595 25.5966 16.1515V16.1474ZM13.9523 25.6651H11.012C10.4441 25.6651 9.07462 25.6611 9.07462 25.6611V14.3551C9.07462 14.3551 12.2848 14.3389 13.9523 14.3389V25.6651ZM22.1287 31.3282C21.0049 30.3897 19.8772 29.0525 18.7534 28.118C17.7223 27.2601 16.6952 26.8009 15.6721 25.935C15.4869 25.7779 15.3419 25.4516 15.3378 25.2059C15.3177 21.7098 15.3177 18.2137 15.3419 14.7216C15.3419 14.492 15.4909 14.198 15.6681 14.0489C16.6952 13.1789 18.1251 12.317 19.1562 11.455C20.296 10.5085 21.0331 9.56601 22.1811 8.63156L22.1287 31.3282ZM28.263 26.8936C27.095 25.2059 25.8866 24.1023 25.5966 23.8445L25.8302 23.337C26.4948 23.7881 28.7907 25.3429 29.4593 25.794C29.0968 26.1968 28.698 26.5633 28.263 26.8936ZM30.9133 23.5908C29.1411 22.7772 27.252 22.0683 26.3256 21.7299C26.382 21.452 26.4263 21.1661 26.4545 20.8761C26.4626 20.7955 26.4706 20.7109 26.4747 20.6263C28.0173 20.8036 31.0462 20.864 31.6504 20.8761C31.5537 21.8347 31.3 22.749 30.9133 23.5908Z" fill="#7F4CA5"/>
</g>
<defs>
<clipPath id="clip0_892_1030">
<rect width="40" height="39.9919" fill="white"/>
</clipPath>
</defs>
</svg>
