<svg width="10" height="26" viewBox="0 0 10 26" fill="none" xmlns="http://www.w3.org/2000/svg">
<path opacity="0.5" d="M0.180338 11.7028L2.3353 11.5703C2.80226 11.5417 3.19874 11.1969 3.31742 10.7168L3.86471 8.50117C3.91188 8.3098 4.1622 8.29495 4.22957 8.47862L5.01423 10.6123C5.18423 11.0748 5.61543 11.3685 6.0829 11.3399L8.23787 11.2073C8.42393 11.1958 8.51462 11.4438 8.37054 11.5686L6.70068 13.0193C6.33893 13.3339 6.20884 13.8596 6.37884 14.3221L7.16349 16.4558C7.23139 16.64 7.03756 16.8083 6.88052 16.7016L5.06399 15.4648C4.6701 15.197 4.15857 15.2284 3.79682 15.5429L2.12696 16.9936C1.98288 17.119 1.77194 16.9755 1.8191 16.7841L2.3664 14.5685C2.48508 14.0884 2.2985 13.5819 1.90514 13.3135L0.0886047 12.0768C-0.0679125 11.9701 -0.00468357 11.7127 0.181375 11.7017L0.180338 11.7028Z" fill="white"/>
<path opacity="0.5" d="M7.65248 1.02556L7.92094 0.980462C8.19977 0.933169 8.41848 0.701104 8.46253 0.405245L8.50503 0.120382C8.52524 -0.0159985 8.69834 -0.0451421 8.75743 0.0780406L8.88077 0.334854C9.0093 0.601566 9.28502 0.750596 9.56385 0.703302L9.83232 0.658208C9.96085 0.636761 10.0407 0.802287 9.94841 0.899624L9.75613 1.10365C9.5566 1.31592 9.5084 1.63982 9.63693 1.90708L9.76028 2.1639C9.81936 2.28708 9.69549 2.41851 9.57992 2.35582L9.33737 2.22494C9.08549 2.08911 8.78023 2.1408 8.5807 2.35252L8.38842 2.55654C8.29668 2.65443 8.14017 2.56974 8.1609 2.43336L8.2034 2.1485C8.24745 1.85264 8.107 1.56008 7.85512 1.42425L7.61257 1.29337C7.49648 1.23068 7.52394 1.047 7.65248 1.02556Z" fill="white"/>
<path opacity="0.5" d="M7.65248 24.0256L7.92094 23.9805C8.19977 23.9332 8.41848 23.7011 8.46253 23.4052L8.50503 23.1204C8.52524 22.984 8.69834 22.9549 8.75743 23.078L8.88077 23.3349C9.0093 23.6016 9.28502 23.7506 9.56385 23.7033L9.83232 23.6582C9.96085 23.6368 10.0407 23.8023 9.94841 23.8996L9.75613 24.1036C9.5566 24.3159 9.5084 24.6398 9.63693 24.9071L9.76028 25.1639C9.81936 25.2871 9.69549 25.4185 9.57992 25.3558L9.33737 25.2249C9.08549 25.0891 8.78023 25.1408 8.5807 25.3525L8.38842 25.5565C8.29668 25.6544 8.14017 25.5697 8.1609 25.4334L8.2034 25.1485C8.24745 24.8526 8.107 24.5601 7.85512 24.4243L7.61257 24.2934C7.49648 24.2307 7.52394 24.047 7.65248 24.0256Z" fill="white"/>
</svg>
