<svg width="10" height="26" viewBox="0 0 10 26" fill="none" xmlns="http://www.w3.org/2000/svg">
<path opacity="0.5" d="M9.80794 13.8961L7.65298 14.0286C7.18602 14.0572 6.78954 14.402 6.67086 14.8821L6.12357 17.0977C6.0764 17.2891 5.82608 17.3039 5.75871 17.1203L4.97405 14.9866C4.80406 14.5241 4.37285 14.2304 3.90538 14.259L1.75041 14.3915C1.56436 14.4031 1.47366 14.1551 1.61774 14.0302L3.2876 12.5795C3.64935 12.265 3.77944 11.7393 3.60945 11.2768L2.82479 9.14308C2.75689 8.95885 2.95073 8.79058 3.10776 8.89726L4.92429 10.134C5.31818 10.4019 5.82971 10.3705 6.19146 10.0559L7.86133 8.60525C8.0054 8.47987 8.21634 8.6234 8.16918 8.81477L7.62188 11.0304C7.5032 11.5105 7.68978 12.017 8.08314 12.2853L9.89968 13.5221C10.0562 13.6288 9.99296 13.8862 9.80691 13.8972L9.80794 13.8961Z" fill="white"/>
<path opacity="0.5" d="M2.33581 24.5733L2.06734 24.6184C1.78851 24.6657 1.5698 24.8978 1.52575 25.1936L1.48325 25.4785C1.46304 25.6149 1.28994 25.644 1.23086 25.5208L1.10751 25.264C0.978977 24.9973 0.703258 24.8483 0.424429 24.8956L0.155966 24.9407C0.0274348 24.9621 -0.0523781 24.7966 0.0398738 24.6993L0.232151 24.4952C0.431685 24.283 0.479884 23.9591 0.351353 23.6918L0.228006 23.435C0.168923 23.3118 0.292789 23.1804 0.408363 23.2431L0.650913 23.3739C0.902792 23.5098 1.20805 23.4581 1.40759 23.2464L1.59986 23.0423C1.6916 22.9445 1.84811 23.0291 1.82738 23.1655L1.78489 23.4504C1.74083 23.7462 1.88128 24.0388 2.13316 24.1746L2.37571 24.3055C2.4918 24.3682 2.46434 24.5519 2.33581 24.5733Z" fill="white"/>
<path opacity="0.5" d="M2.33581 1.57332L2.06734 1.61841C1.78851 1.66571 1.5698 1.89777 1.52575 2.19363L1.48325 2.47849C1.46304 2.61488 1.28994 2.64402 1.23086 2.52084L1.10751 2.26402C0.978977 1.99731 0.703258 1.84828 0.424429 1.89557L0.155966 1.94067C0.0274348 1.96212 -0.0523781 1.79659 0.0398738 1.69925L0.232151 1.49523C0.431685 1.28296 0.479884 0.959057 0.351353 0.691795L0.228006 0.43498C0.168923 0.311797 0.292789 0.180366 0.408363 0.243058L0.650913 0.373939C0.902792 0.50977 1.20805 0.458077 1.40759 0.246357L1.59986 0.0423363C1.6916 -0.0555499 1.84811 0.0291377 1.82738 0.165519L1.78489 0.450378C1.74083 0.746236 1.88128 1.0388 2.13316 1.17463L2.37571 1.30551C2.4918 1.3682 2.46434 1.55187 2.33581 1.57332Z" fill="white"/>
</svg>
