<svg width="45" height="38" viewBox="0 0 45 38" fill="none" xmlns="http://www.w3.org/2000/svg">
<g clip-path="url(#clip0_892_866)">
<path d="M15.134 22.8486C15.3656 23.3248 15.6243 23.7887 15.9041 24.2374C15.877 24.213 15.8529 24.1886 15.8258 24.1641C15.8108 24.1519 15.7988 24.1367 15.7837 24.1245C15.5401 23.9108 15.2964 23.6941 15.0527 23.4713C15.0317 23.453 15.0076 23.4316 14.9866 23.4102C14.9234 23.3278 14.8572 23.2454 14.791 23.163L15.0527 22.9219C15.0798 22.8975 15.1069 22.8731 15.134 22.8486Z" fill="#DBCDEC"/>
<path d="M27.3267 31.8682C24.5531 35.5918 20.1521 38 15.1975 38C6.8046 38 0 31.0959 0 22.5803C0 14.0646 6.8046 7.16357 15.1975 7.16357C15.3209 7.16357 15.4442 7.16357 15.5676 7.16968C14.1898 9.60229 13.4046 12.4195 13.4046 15.4198C13.4046 16.6102 13.528 17.77 13.7626 18.8902C13.7626 18.8902 13.7626 18.8993 13.7626 18.9024L13.5911 19.0947C13.4798 19.2198 12.4901 20.34 12.3788 20.462C12.1051 20.1477 11.8223 19.8363 11.5395 19.5281H11.5365C11.5245 19.5098 11.5125 19.4976 11.4974 19.4823C11.4704 19.4518 11.4403 19.4212 11.4132 19.3907C11.0342 18.9726 10.6852 18.5971 10.258 18.1515C10.0475 17.9318 9.83689 17.712 9.6233 17.4953L9.46387 17.3305L9.30443 17.1687L9.13898 17.0039L9.05776 16.9215L8.96751 16.836L6.64516 19.4701L6.68126 19.5006L6.72037 19.5342L6.79858 19.6044L6.95802 19.7478L7.12046 19.8913L7.2799 20.0347C7.49348 20.227 7.70707 20.4224 7.91764 20.6208C8.3418 21.0145 8.76295 21.4143 9.1811 21.8172C9.20215 21.8386 9.22622 21.86 9.24728 21.8813C9.59322 22.2171 9.93014 22.5528 10.2671 22.8916L10.3242 22.9496C10.2189 23.0778 10.1167 23.209 10.0144 23.3403C9.96323 23.4013 9.9151 23.4624 9.86697 23.5234C9.5481 23.9294 9.33151 24.2224 9.05475 24.5978C9.0006 24.671 8.94645 24.7443 8.8893 24.8237C8.5253 25.3212 8.17334 25.8248 7.8274 26.3375C7.48446 26.8503 7.15054 27.3784 6.83167 27.9155L9.19313 29.4478C9.512 28.9808 9.8429 28.5229 10.1858 28.0682C10.5107 27.6439 10.8446 27.2288 11.1816 26.8167C11.2056 26.7862 11.2327 26.7557 11.2568 26.7252C11.2808 26.6977 11.3049 26.6672 11.332 26.6367C11.7291 26.1788 12.4631 25.4158 12.4631 25.4158C12.821 25.7759 13.173 26.1453 13.522 26.5146C13.919 26.9388 14.3131 27.3661 14.7012 27.7965C14.8967 28.0102 15.0892 28.2269 15.2788 28.4436L15.4201 28.6053L15.5615 28.7702L15.7029 28.9319L15.7721 29.0113L15.8052 29.051L15.8353 29.0876L18.0824 27.0487C20.5161 29.5698 23.7289 31.3127 27.3237 31.8682H27.3267Z" fill="#DBCDEC"/>
<path d="M29.805 0C24.3631 0 19.592 2.8996 16.9057 7.2612C15.4497 9.62667 14.6074 12.4255 14.6074 15.4198C14.6074 23.3494 20.5065 29.8781 28.0933 30.7388C28.6558 30.8029 29.2274 30.8365 29.805 30.8365C38.1979 30.8365 44.9995 23.9354 44.9995 15.4198C44.9995 6.9041 38.1979 0 29.805 0ZM29.6906 23.3036L26.8238 23.3647C25.4099 20.6055 22.2633 19.5158 22.2363 19.4975L24.3932 16.0119C24.4985 16.0821 26.3666 17.3365 28.0572 19.4304C30.196 13.9791 34.4075 8.57976 35.671 7.47181L38.5469 10.4294C33.6886 14.6964 29.7298 23.2182 29.6906 23.3036Z" fill="#7F4CA5"/>
<path d="M14.5869 21.6158C14.5448 21.5181 14.5056 21.4204 14.4695 21.3197C14.1747 20.5414 13.9401 19.7325 13.7656 18.9023H13.7686C13.7777 18.939 13.7837 18.9756 13.7957 19.0153C13.9672 19.8058 14.1928 20.575 14.4726 21.3197C14.5087 21.4174 14.5478 21.5181 14.5869 21.6158Z" fill="white"/>
<path d="M14.9636 22.4886C14.8734 22.2994 14.7892 22.1071 14.7109 21.9087C14.7922 22.104 14.8794 22.2963 14.9666 22.4886H14.9636Z" fill="white"/>
<path d="M14.5861 21.6159C14.544 21.5182 14.5048 21.4205 14.4688 21.3198H14.4718C14.5079 21.4175 14.547 21.5182 14.5861 21.6159Z" fill="white"/>
<path d="M14.9617 22.4886C14.8714 22.2994 14.7872 22.1071 14.709 21.9087C14.7902 22.104 14.8774 22.2963 14.9647 22.4886H14.9617Z" fill="white"/>
</g>
<defs>
<clipPath id="clip0_892_866">
<rect width="45" height="38" fill="white"/>
</clipPath>
</defs>
</svg>
