<svg width="53" height="39" viewBox="0 0 53 39" fill="none" xmlns="http://www.w3.org/2000/svg">
<g clip-path="url(#clip0_347_15973)">
<path d="M53.0014 16.5156C53.0014 25.623 45.5571 33.0311 36.405 33.0311C27.253 33.0311 19.8086 25.623 19.8086 16.5156C19.8086 7.40811 27.253 0 36.4022 0C45.5514 0 52.9986 7.40811 52.9986 16.5156H53.0014ZM51.8848 16.5156C51.8848 8.02168 44.9405 1.11122 36.405 1.11122C27.8695 1.11122 20.9253 8.02168 20.9253 16.5156C20.9253 25.0094 27.8695 31.9199 36.405 31.9199C44.9405 31.9199 51.8848 25.0094 51.8848 16.5156Z" fill="#608D17"/>
<path d="M39.5781 14.4743C39.5781 16.3857 38.1716 17.2453 35.9724 17.2453H33.2305V7.25H35.4751C37.7624 7.25 39.1121 8.05302 39.1121 9.74387C39.1121 11.0276 38.3194 11.7571 37.2652 11.9465C38.4813 12.0766 39.5809 12.7495 39.5809 14.4715L39.5781 14.4743ZM34.1085 7.9795V11.6411H36.1315C37.3476 11.6411 38.2142 10.971 38.2142 9.80325C38.2142 8.46018 37.2453 7.9795 35.5604 7.9795H34.1085ZM38.6688 14.4743C38.6688 12.9559 37.5976 12.3424 36.2338 12.3424H34.1085V16.5158H35.9695C37.5976 16.5158 38.6688 15.9616 38.6688 14.4743Z" fill="#608D17"/>
<path d="M16.0328 29.3161H12.2197L11.4241 31.7789H10.6172L13.6489 22.7534H14.6434L17.6609 31.7789H16.8256L16.03 29.3161H16.0328ZM15.8197 28.6431L14.1376 23.3981L12.4442 28.6431H15.8197Z" fill="#E00C00"/>
<path d="M16.6567 21.1758L11.8264 16.369C11.8264 16.369 11.7695 16.3124 11.7695 16.2842V16.1145C11.7695 16.0862 11.7979 16.058 11.8264 16.0297C11.8548 16.0014 11.8832 15.9731 11.9116 15.9731H12.0821C12.1105 15.9731 12.1389 16.0014 12.1673 16.0297L16.9976 20.8365C16.9976 20.8365 17.0545 20.893 17.0545 20.9213V21.091C17.0545 21.1192 17.0261 21.1475 16.9976 21.1758C16.9692 21.2041 16.9408 21.2323 16.9124 21.2323H16.7419C16.7135 21.2323 16.6851 21.2041 16.6567 21.1758Z" fill="#E00C00"/>
<path d="M11.8264 21.1758C11.8264 21.1758 11.7695 21.1192 11.7695 21.091V20.9213C11.7695 20.893 11.7979 20.8648 11.8264 20.8365L16.6567 16.0297C16.6567 16.0297 16.7135 15.9731 16.7419 15.9731H16.9124C16.9408 15.9731 16.9692 16.0014 16.9976 16.0297C17.0261 16.058 17.0545 16.0862 17.0545 16.1145V16.2842C17.0545 16.3124 17.0261 16.3407 16.9976 16.369L12.1673 21.1758C12.1673 21.1758 12.1105 21.2323 12.0821 21.2323H11.9116C11.8832 21.2323 11.8548 21.2041 11.8264 21.1758Z" fill="#E00C00"/>
<path d="M30.7734 19.7956L34.6121 23.8898L43.9005 16.5156" stroke="#608D17" stroke-width="2" stroke-miterlimit="10" stroke-linecap="round"/>
<path d="M28.8853 33.1133C28.5643 33.0709 28.2858 32.9635 28.0556 32.808C25.2228 35.9211 21.1426 37.889 16.5993 37.889C8.0638 37.889 1.1195 30.9786 1.1195 22.4847C1.1195 13.9908 8.0638 7.08035 16.5993 7.08035C18.0143 7.08035 19.3838 7.2698 20.6851 7.62606C20.7334 7.54407 20.7817 7.4649 20.8301 7.38572C20.9153 7.21325 21.0233 7.05208 21.154 6.9107C21.2193 6.82022 21.2847 6.73539 21.3472 6.65622C19.8413 6.20665 18.2473 5.96631 16.5964 5.96631C7.44722 5.96631 0 13.3772 0 22.4847C0 31.5921 7.44722 39.0002 16.5993 39.0002C21.6484 39.0002 26.1718 36.7411 29.2149 33.1925C29.2064 33.1897 29.1979 33.184 29.1894 33.1812C29.0842 33.1642 28.9819 33.1444 28.8853 33.1133Z" fill="#DD4C3A"/>
</g>
<defs>
<clipPath id="clip0_347_15973">
<rect width="53" height="39" fill="white"/>
</clipPath>
</defs>
</svg>
