<svg width="57" height="57" viewBox="0 0 57 57" fill="none" xmlns="http://www.w3.org/2000/svg">
<path d="M32.3943 23.9203C32.3943 26.4958 30.4224 27.4617 27.5652 27.4617H24.1445V15.0266H27.042C30.0602 15.0266 31.8309 15.9924 31.8309 18.1656C31.8309 20.3387 30.7444 20.6606 29.5371 20.9021C30.9858 21.1435 32.3943 21.8277 32.3943 23.9605V23.9203ZM25.714 16.2741V20.3387H27.7261C29.1346 20.3387 30.2212 19.6143 30.2212 18.246C30.2212 16.8778 29.0944 16.2741 27.203 16.2741H25.714ZM30.7444 23.9203C30.7444 22.1496 29.4566 21.546 27.9274 21.546H25.7542V26.1739H27.6054C29.4566 26.1739 30.7846 25.7312 30.7846 23.9203H30.7444Z" fill="#608D17"/>
<path d="M30.5839 32.8945V32.975C30.7448 33.297 30.6241 33.6592 30.3424 33.7799L28.0083 35.792C27.8071 35.9128 27.5254 35.8725 27.3242 35.7115L25.2718 33.4177C25.0304 33.1762 24.9901 32.8141 25.1913 32.5726C25.3925 32.3311 25.795 32.2909 26.0364 32.4921L27.7669 34.5445L29.7388 32.7336C30.0205 32.5726 30.3424 32.6933 30.5034 32.9348L30.5839 32.8945Z" fill="#608D17"/>
<path d="M19.557 32.4519H14.7279L13.7621 35.6311H12.1523L16.1766 23.196H18.1485L22.1728 35.6311H20.5229L19.557 32.4519ZM19.1948 31.1641L17.1827 24.4838L15.1303 31.1641H19.1948Z" fill="#0C9EC2"/>
<path d="M42.8596 24.2022L42.0145 25.2082C41.2097 24.5643 40.4853 24.2826 39.5597 24.2826C37.628 24.2826 36.0183 25.6107 36.0183 29.4337C36.0183 33.2568 37.5878 34.5446 39.5597 34.5446C41.5316 34.5446 41.4914 34.0617 42.2157 33.4983L42.9803 34.5043C42.256 35.2287 41.1292 35.8726 39.4792 35.8726C36.5012 35.8726 34.3281 33.619 34.3281 29.4337C34.3281 25.2485 36.622 22.9949 39.4792 22.9949C42.3365 22.9949 41.8938 23.4375 42.8596 24.2022Z" fill="#0C9EC2"/>
<path d="M27.9669 35.0274C27.645 35.0274 27.3633 34.7859 27.3633 34.5444L27.4438 29.6751C27.4438 29.3934 27.7255 29.1921 28.0474 29.1921C28.3694 29.1921 28.6511 29.4336 28.6511 29.6751L28.5706 34.5444C28.5706 34.8261 28.2889 35.0274 27.9669 35.0274Z" fill="#608D17"/>
</svg>
