<svg width="40" height="40" viewBox="0 0 40 40" fill="none" xmlns="http://www.w3.org/2000/svg">
<g clip-path="url(#clip0_892_933)">
<path d="M20.002 40.004C31.0488 40.004 40.004 31.0488 40.004 20.002C40.004 8.95519 31.0488 0 20.002 0C8.95519 0 0 8.95519 0 20.002C0 31.0488 8.95519 40.004 20.002 40.004Z" fill="#7F4CA5"/>
<mask id="mask0_892_933" style="mask-type:luminance" maskUnits="userSpaceOnUse" x="25" y="7" width="8" height="13">
<path d="M32.4528 7.92627H25.6191V19.3367H32.4528V7.92627Z" fill="white"/>
</mask>
<g mask="url(#mask0_892_933)">
<path d="M25.6582 19.21V7.92627L32.4483 13.5682L25.6582 19.21Z" fill="white"/>
</g>
<mask id="mask1_892_933" style="mask-type:luminance" maskUnits="userSpaceOnUse" x="7" y="12" width="24" height="10">
<path d="M30.0234 12.3765H7.54688V21.6014H30.0234V12.3765Z" fill="white"/>
</mask>
<g mask="url(#mask1_892_933)">
<path d="M29.0573 13.3424C28.0397 12.7802 26.9074 12.4397 25.6603 12.4397H14.3408C10.6073 12.4397 7.55078 15.4883 7.55078 19.21C7.55078 20.0018 7.6656 20.7897 8.00213 21.4667L9.92631 19.887C9.8115 19.6613 9.8115 19.4356 9.8115 19.21C9.8115 16.7275 11.8505 14.6965 14.3369 14.6965H25.6563C26.3373 14.6965 27.0143 14.9221 27.6953 15.1478C29.1681 15.9396 31.0923 14.4708 29.0533 13.3424H29.0573Z" fill="white"/>
</g>
<mask id="mask2_892_933" style="mask-type:luminance" maskUnits="userSpaceOnUse" x="10" y="18" width="23" height="10">
<path d="M32.4585 18.5054H10.0098V27.5878H32.4585V18.5054Z" fill="white"/>
</mask>
<g mask="url(#mask2_892_933)">
<path d="M10.9477 26.6614C11.9652 27.2276 13.0976 27.5641 14.3447 27.5641H25.6641C29.3977 27.5641 32.4542 24.5155 32.4542 20.7939C32.4542 20.006 32.3394 19.2141 32.0028 18.5371L30.0787 20.1168C30.0787 20.3425 30.1935 20.683 30.1935 20.9087C30.1935 23.3911 28.1545 25.4222 25.6641 25.4222H14.3447C13.6637 25.4222 12.9867 25.1965 12.3057 24.9708C10.8329 24.0681 8.90871 25.537 10.9477 26.6654V26.6614Z" fill="white"/>
</g>
<mask id="mask3_892_933" style="mask-type:luminance" maskUnits="userSpaceOnUse" x="7" y="20" width="8" height="13">
<path d="M14.4082 20.7739H7.54688V32.0775H14.4082V20.7739Z" fill="white"/>
</mask>
<g mask="url(#mask3_892_933)">
<path d="M14.3408 20.7937V32.0775L7.55078 26.4356L14.3408 20.7937Z" fill="white"/>
</g>
</g>
<defs>
<clipPath id="clip0_892_933">
<rect width="40" height="40" fill="white"/>
</clipPath>
</defs>
</svg>
