<svg width="74" height="74" viewBox="0 0 74 74" fill="none" xmlns="http://www.w3.org/2000/svg">
<path d="M25.1293 31.1069H23.6142L23.353 32.1518H22.4648L23.8755 27.6064H24.9726L26.3832 32.1518H25.4428L25.1816 31.1069H25.1293ZM24.9204 30.4799L24.3457 28.2856L23.771 30.4799H24.9204Z" fill="#FF9421"/>
<path d="M30.0908 30.8456C30.0908 31.8383 29.3071 32.1518 28.2099 32.1518H26.8516V27.6064H28.0532C29.2026 27.6064 29.934 27.9199 29.934 28.7558C29.934 29.5918 29.5161 29.644 29.0981 29.7485C29.6206 29.853 30.143 30.1142 30.143 30.8456H30.0908ZM27.6875 28.2334V29.4873H28.2099C28.6801 29.4873 28.9936 29.2783 28.9936 28.8603C28.9936 28.4424 28.6801 28.2856 28.1054 28.2856H27.6875V28.2334ZM29.2026 30.8456C29.2026 30.3232 28.8369 30.1142 28.3144 30.1142H27.7397V31.5248H28.2622C28.8369 31.5248 29.2548 31.4203 29.2548 30.8456H29.2026Z" fill="#FF9421"/>
<path d="M33.9579 28.0244L33.54 28.5469C33.2788 28.3379 33.0175 28.2334 32.7041 28.2334C32.0771 28.2334 31.6069 28.7036 31.6069 29.9052C31.6069 31.1069 32.0771 31.5771 32.7041 31.5771C33.331 31.5771 33.3833 31.4203 33.6445 31.2114L34.0624 31.7338C33.8012 31.995 33.331 32.3085 32.7041 32.3085C31.5024 32.3085 30.7188 31.4726 30.7188 29.9052C30.7188 28.3379 31.6069 27.5542 32.7041 27.5542C33.8012 27.5542 33.6445 27.7109 34.0102 28.0244H33.9579Z" fill="#FF9421"/>
<path d="M42.9438 37.6373C42.2646 37.6373 41.6899 38.212 41.6899 38.8912C41.6899 39.5704 41.6899 39.048 41.6899 39.1002C42.2123 38.63 42.7348 38.1598 43.1528 37.6373H42.9438ZM34.0099 41.8692C33.5397 42.0259 33.1217 42.0782 32.6515 42.1827C32.756 42.5484 32.9127 42.8619 33.0694 43.2276C33.5397 43.1231 34.0099 43.0186 34.4801 42.9141C34.2711 42.6006 34.1666 42.2349 34.0099 41.9214V41.8692ZM43.4662 28.4422C42.5781 22.7997 36.0997 18.4111 28.1584 18.4111C20.2171 18.4111 12.7461 23.4789 12.7461 29.7483C12.7461 36.0177 14.8881 36.4357 18.5453 38.5777C18.8065 38.7345 18.9633 39.048 18.911 39.3614L18.1796 44.1157L23.3519 40.772C23.4563 40.6676 23.7176 40.5631 23.8743 40.6676C25.2849 40.981 26.6955 41.1378 28.1584 41.1378C29.6213 41.1378 30.9274 40.981 32.1813 40.7198C32.6515 40.6153 33.0694 40.5108 33.5397 40.4063C39.3389 38.7867 43.4662 34.6071 43.4662 29.7483C43.4662 29.2781 43.4662 28.8602 43.3617 28.4422H43.4662ZM33.4874 39.3092C33.0172 39.4137 32.5992 39.5704 32.129 39.6227C30.8752 39.8839 29.569 40.0406 28.2107 40.0406C26.8523 40.0406 25.5984 39.8839 24.1878 39.6227C24.031 39.6227 23.9266 39.5704 23.7698 39.5704C23.4041 39.5704 23.0384 39.7271 22.7249 39.9361L19.6424 41.9737L20.0082 39.6227C20.1649 38.9435 19.8514 38.212 19.2245 37.7941L19.1722 37.7418C15.8286 35.7565 13.9477 32.883 13.9477 29.8528C13.9477 24.2103 20.3739 19.6128 28.2629 19.6128C36.1519 19.6128 41.7421 23.6356 42.4736 28.7557C42.5258 29.1214 42.5258 29.4871 42.5258 29.8006C42.5258 30.114 42.5258 29.9573 42.5258 30.0096C42.4213 34.2414 38.7642 37.8463 33.5919 39.3614L33.4874 39.3092ZM46.0785 28.181C45.7128 28.181 45.3471 28.181 44.9813 28.2332C45.0336 28.6512 45.0858 29.0691 45.0858 29.4871C45.4515 29.4871 45.8173 29.4349 46.183 29.4349C46.183 29.0169 46.1307 28.5989 46.0785 28.181Z" fill="#7F4CA5"/>
<path d="M33.4873 39.3091C33.0171 39.4136 32.5991 39.5703 32.1289 39.6225C32.1289 39.9883 32.1812 40.354 32.2334 40.7197C32.7036 40.6152 33.1216 40.5107 33.5918 40.4062C33.5395 40.0405 33.4873 39.6748 33.4873 39.3091ZM33.4873 39.3091C33.0171 39.4136 32.5991 39.5703 32.1289 39.6225C32.1289 39.9883 32.1812 40.354 32.2334 40.7197C32.7036 40.6152 33.1216 40.5107 33.5918 40.4062C33.5395 40.0405 33.4873 39.6748 33.4873 39.3091ZM43.5706 29.696C43.5706 29.278 43.5706 28.86 43.4661 28.4421C43.1004 28.4943 42.7347 28.5988 42.4212 28.6511C42.4734 29.0168 42.4734 29.3825 42.4734 29.696C42.4734 30.0094 42.4734 29.8527 42.4734 29.905C42.8392 29.8005 43.2049 29.7482 43.5706 29.696ZM61.2294 39.2046C61.2294 36.2266 59.7143 33.4054 56.8931 31.3156C53.9151 29.069 49.9967 28.0241 46.0784 28.1809C45.7126 28.1809 45.3469 28.1809 44.9812 28.2331C45.0335 28.6511 45.0857 29.069 45.0857 29.487C45.4514 29.487 45.8171 29.4347 46.1828 29.4347H46.7053C54.0196 29.4347 59.9233 33.7711 59.9233 39.1523C59.9233 44.5336 58.0947 44.8993 54.96 46.7801C54.751 46.9369 54.5943 47.1981 54.6466 47.4593L55.2735 51.5867L50.8327 48.7132C50.7282 48.6087 50.5192 48.5565 50.3625 48.6087C49.1608 48.8699 47.9069 49.0267 46.6531 49.0267C41.1151 49.0267 36.413 46.5189 34.4277 42.914C34.2187 42.6005 34.1142 42.2348 33.9575 41.9213C33.4873 42.0781 33.0693 42.1303 32.5991 42.2348C32.7036 42.6005 32.8603 42.914 33.0171 43.2797C33.7485 44.6903 34.8457 46.0487 36.3085 47.1458C40.2269 50.0716 45.5559 50.8552 50.2057 49.9148L55.6392 53.4153C55.9004 53.572 56.1617 53.572 56.3706 53.4153C56.6319 53.3108 56.7364 53.0495 56.6841 52.8406L55.9527 47.7728C59.2964 45.6307 61.1772 42.6005 61.1772 39.3091L61.2294 39.2046ZM42.4212 29.9572C42.7869 29.8527 43.1526 29.8005 43.5183 29.7482C43.5183 29.3303 43.5183 28.9123 43.4139 28.4943C43.0481 28.5466 42.6824 28.6511 42.369 28.7033C42.4212 29.069 42.4212 29.4347 42.4212 29.7482C42.4212 30.0617 42.4212 29.905 42.4212 29.9572ZM33.4873 39.3091C33.0171 39.4136 32.5991 39.5703 32.1289 39.6225C32.1289 39.9883 32.1812 40.354 32.2334 40.7197C32.7036 40.6152 33.1216 40.5107 33.5918 40.4062C33.5395 40.0405 33.4873 39.6748 33.4873 39.3091Z" fill="#7F4CA5"/>
<path d="M50.5703 40.145C51.2628 40.145 51.8242 39.5836 51.8242 38.8911C51.8242 38.1986 51.2628 37.6372 50.5703 37.6372C49.8778 37.6372 49.3164 38.1986 49.3164 38.8911C49.3164 39.5836 49.8778 40.145 50.5703 40.145Z" fill="#FF9421"/>
<path d="M46.7578 40.145C47.4503 40.145 48.0117 39.5836 48.0117 38.8911C48.0117 38.1986 47.4503 37.6372 46.7578 37.6372C46.0653 37.6372 45.5039 38.1986 45.5039 38.8911C45.5039 39.5836 46.0653 40.145 46.7578 40.145Z" fill="#FF9421"/>
<path d="M44.1992 38.8911C44.1992 39.5703 43.6245 40.145 42.9453 40.145C42.2661 40.145 41.7959 39.6748 41.6914 39.1001V38.8911C41.6914 38.2119 42.2661 37.6372 42.9453 37.6372C43.6245 37.6372 43.102 37.6372 43.1543 37.6372C43.729 37.7417 44.1992 38.2641 44.1992 38.8911Z" fill="#FF9421"/>
</svg>
