<svg width="48" height="43" viewBox="0 0 48 43" fill="none" xmlns="http://www.w3.org/2000/svg">
<g clip-path="url(#clip0_892_1148)">
<path d="M14.796 20.3693C14.6966 20.3533 14.6934 20.2955 14.6934 20.0966V19.9169C14.7254 20.0677 14.7607 20.2185 14.796 20.3693Z" fill="#DBCDEC"/>
<path d="M12.3663 21.7137H15.1836C15.2863 22.0282 15.3986 22.3362 15.5238 22.6379C15.4275 22.8946 15.328 23.1513 15.2157 23.4016C14.9398 24.0305 14.5836 24.6145 14.1568 25.1535C14.067 25.2659 14.006 25.2659 13.9258 25.1471C13.6466 24.7364 13.3386 24.3417 13.1011 23.9085C12.822 23.4016 12.6038 22.8593 12.3663 22.3298C12.3086 22.1983 12.2701 22.0603 12.2219 21.9223C12.1578 21.749 12.1802 21.7137 12.3663 21.7137Z" fill="#DBCDEC"/>
<path d="M29.1485 33.5028C26.19 37.4175 21.4956 39.9492 16.2107 39.9492C14.4908 39.9492 12.8351 39.6829 11.282 39.1855C10.5472 38.9513 6.56835 42.2403 6.56835 42.2403C6.56835 42.2403 7.85507 37.6517 7.24861 37.2506C2.87827 34.3467 0 29.3795 0 23.7385C0 14.786 7.25824 7.53101 16.2107 7.53101C16.3423 7.53101 16.4738 7.53101 16.6054 7.53742C15.1358 10.0948 14.2983 13.0565 14.2983 16.2107C14.2983 17.029 14.356 17.8344 14.4651 18.6237C14.4491 18.6237 14.4331 18.6237 14.4138 18.6237H13.5153C13.2779 18.6237 13.2394 18.6622 13.2394 18.9061V20.1447C13.2394 20.3468 13.2073 20.3789 13.0084 20.3789H11.0157C10.3579 20.3789 9.70011 20.3789 9.04232 20.3789C8.77599 20.3789 8.74069 20.4174 8.74069 20.6741V21.4121C8.74069 21.6656 8.79203 21.717 9.03911 21.717C9.48833 21.717 9.94077 21.7266 10.39 21.7106C10.5793 21.7041 10.6531 21.7908 10.7077 21.9512C10.8489 22.3652 10.9868 22.7791 11.1505 23.1866C11.5805 24.268 12.1548 25.2723 12.8672 26.1932C12.9538 26.3055 12.9474 26.3793 12.8383 26.4595C12.527 26.6938 12.2222 26.9376 11.9045 27.1591C10.9451 27.8233 9.89585 28.3078 8.78882 28.6704C8.62838 28.7217 8.57704 28.8469 8.66368 28.9945C8.84016 29.2993 9.01985 29.6041 9.20275 29.9058C9.27335 30.0277 9.36961 30.0887 9.52363 30.0213C10.1044 29.7582 10.698 29.5175 11.2724 29.2383C12.219 28.7731 13.0918 28.1891 13.9068 27.5184C13.9999 27.4414 14.064 27.4478 14.1571 27.5216C14.4716 27.7687 14.7796 28.0286 15.1197 28.2372C15.6909 28.5934 16.2685 28.9367 16.8653 29.2383C17.4044 29.5111 17.9691 29.7229 18.5242 29.9571C18.6269 29.9988 18.7232 29.9924 18.7841 29.8769C18.9863 29.5079 19.1949 29.1421 19.3874 28.7699C19.4419 28.664 19.3874 28.5837 19.2783 28.5452C19.0441 28.465 18.8066 28.4008 18.582 28.3014C17.9563 28.0286 17.3209 27.7719 16.7209 27.4511C16.1979 27.1687 15.7198 26.8029 15.2192 26.4756C15.1069 26.4018 15.1229 26.3312 15.1967 26.2285C15.5401 25.7376 15.9091 25.2627 16.2043 24.7461C16.2588 24.6498 16.3134 24.5503 16.3647 24.4541C18.9189 29.2159 23.6101 32.6621 29.1485 33.506V33.5028Z" fill="#DBCDEC"/>
<path d="M32.2923 13.5988L33.3095 16.4514H30.2676L31.3008 13.5988C31.3393 13.464 31.3874 13.3004 31.4452 13.1111C31.503 12.9185 31.5607 12.71 31.6185 12.4853C31.6762 12.2607 31.7276 12.049 31.7757 11.8468C31.8142 11.9912 31.8655 12.1805 31.9329 12.4212C32.0003 12.6586 32.0709 12.8929 32.1415 13.1175C32.2121 13.3421 32.2634 13.5025 32.2923 13.5988Z" fill="#7F4CA5"/>
<path d="M39.5933 30.4224C44.6054 27.666 48.0002 22.3363 48.0002 16.2107C48.0002 7.25824 40.7452 0 31.7927 0C25.9881 0 20.899 3.04833 18.0335 7.63367C16.4805 10.1205 15.582 13.0629 15.582 16.2107C15.582 24.5471 21.8744 31.4107 29.9669 32.3155C30.567 32.3829 31.1767 32.4182 31.7927 32.4182C32.8581 32.4182 33.9009 32.3155 34.9085 32.1198C35.8101 31.9433 40.2382 35.5628 40.2382 35.5628C40.2382 35.5628 38.9323 30.7849 39.5933 30.4224ZM34.8475 20.7415L33.7405 17.8023H29.8097L28.7219 20.7415H27.0983L30.9873 10.4542H32.5949L36.4808 20.7415H34.8475Z" fill="#7F4CA5"/>
</g>
<defs>
<clipPath id="clip0_892_1148">
<rect width="48" height="42.2403" fill="white"/>
</clipPath>
</defs>
</svg>
