<svg width="240" height="163" viewBox="0 0 240 163" fill="none" xmlns="http://www.w3.org/2000/svg">
<g clip-path="url(#clip0_459_49797)">
<path d="M185.582 51.1963C185.582 51.1963 195.758 32.1135 199.323 32.5478C202.887 32.9822 203.232 38.1945 202.197 47.8083C195.298 49.7194 185.582 51.1963 185.582 51.1963Z" fill="url(#paint0_linear_459_49797)"/>
<path d="M154.308 51.399C154.308 51.399 191.563 45.0864 199.238 46.8238C195.444 51.2832 162.127 58.4356 162.127 58.4356L154.308 51.399Z" fill="#F29D1F"/>
<path d="M110.643 116.871C110.643 116.871 110.269 121.099 113.575 122.923C115.932 123.531 120.273 122.981 120.158 121.418C120.043 119.854 115.932 113.512 115.932 113.512L110.643 116.871Z" fill="#231F20"/>
<path d="M155.057 57.6248C155.057 57.6248 211.601 40.3373 239.484 41.5825C228.963 57.5668 180.411 103.783 120.505 124.805C115.503 120.722 112.111 111.456 112.111 111.456L148.187 65.0378L155.057 57.6248Z" fill="url(#paint1_linear_459_49797)"/>
<path opacity="0.7" d="M231.949 42.0747C217.03 42.0168 193.746 47.4028 175.521 52.3834C192.079 49.6036 212.919 46.8237 227.867 47.3449C229.563 45.3468 230.943 43.5805 231.949 42.0747Z" fill="#F6F6F6"/>
<path d="M149.392 112.759C139.763 117.595 130.075 121.736 120.56 125.066C120.474 125.095 120.359 125.095 120.273 125.008C115.271 120.925 111.936 111.919 111.793 111.543C111.764 111.456 111.764 111.34 111.85 111.253L147.926 64.8351L154.825 57.3931C154.854 57.3641 154.912 57.3352 154.94 57.3062C155.515 57.1325 211.829 40.0188 239.454 41.235C239.569 41.235 239.655 41.2929 239.684 41.3798C239.741 41.4666 239.712 41.5825 239.655 41.6693C230.916 55.0765 195.415 89.6224 149.392 112.759ZM120.532 124.487C129.96 121.186 139.59 117.045 149.134 112.238C194.552 89.3908 229.709 55.453 238.936 41.8431C211.685 40.8585 157.528 57.1614 155.199 57.8854L148.358 65.2405L112.425 111.514C112.885 112.701 116.076 120.722 120.532 124.487Z" fill="#676767"/>
<path d="M154.942 63.9085C154.942 63.9085 159.542 59.2753 164.86 61.3313C170.666 63.5031 167.447 74.4489 160.979 74.4778C154.511 74.5068 154.971 68.4258 154.971 68.4258L154.942 63.9085ZM173.368 61.8525C172.966 59.8255 173.713 57.2773 177.623 56.756C181.532 56.2348 182.452 62.0842 179.003 63.7637C176.531 65.1247 173.771 63.8795 173.368 61.8525ZM188.144 57.9143C187.31 57.1904 187.138 55.8873 188.834 54.7869C190.961 53.5997 192.686 55.1923 192.111 56.8719C191.507 58.5514 189.236 58.8699 188.144 57.9143Z" fill="#7A7A7A" stroke="#676767" stroke-width="1.05783" stroke-miterlimit="10"/>
<path d="M40.7346 160.191L51.6293 155.674L51.543 155.732L61.9491 150.172L61.9778 150.143C61.9778 150.143 62.0066 150.143 62.0066 150.114L72.9013 145.597L72.8438 145.626L83.2498 140.066L94.1445 135.549L83.4798 140.587H83.5085L73.39 146.639H73.3325L62.6677 151.678L62.754 151.649L52.6354 157.701C52.6067 157.701 52.6066 157.73 52.5779 157.73L52.5204 157.759L41.8557 162.797C41.137 163.145 40.2746 162.826 39.9297 162.102C39.5847 161.378 39.9009 160.51 40.6196 160.162C40.6771 160.22 40.7058 160.191 40.7346 160.191ZM41.0508 151.07L50.3357 147.595L50.2495 147.653L59.0745 143.106L59.1032 143.077L68.3882 139.603L59.4769 143.975L59.5344 143.946L51.1693 149.332H51.1406L51.0544 149.361L42.1431 153.734C41.4245 154.081 40.5621 153.792 40.2171 153.068C39.8722 152.344 40.1596 151.475 40.8783 151.128C40.9645 151.099 40.9933 151.07 41.0508 151.07Z" fill="#2B1B0F"/>
<path opacity="0.4" d="M118.146 121.504C119.008 122.663 119.986 123.705 121.02 124.574C180.927 103.551 229.479 57.3351 240 41.3508C238.706 41.2929 237.355 41.2639 235.976 41.2929C219.705 61.0127 173.741 101.64 118.146 121.504Z" fill="url(#paint2_linear_459_49797)"/>
<path opacity="0.2" d="M157.731 68.5707C157.817 64.5746 157.271 62.1132 157.271 62.1132C157.271 62.1132 156.15 60.5206 154.569 58.175L148.158 65.0669L112.082 111.485C112.082 111.485 113.634 115.684 116.164 119.709C118.78 118.377 121.281 116.987 123.667 115.597C131.284 111.08 137.608 106.302 141.805 102.364C148.187 96.3985 152.068 90.1727 154.396 84.4392C156.955 78.2134 157.644 72.5957 157.731 68.5707ZM194.324 84.584C194.238 77.3447 192.657 72.8563 188.604 75.4335C179.693 81.862 175.524 84.7288 174.892 95.0954C174.748 96.1379 174.633 97.1514 174.547 98.1939C181.532 93.7634 188.173 89.1592 194.324 84.584Z" fill="#231F20"/>
<path d="M177.418 112.615C187.163 98.5703 199.553 72.5089 189.233 74.9413C178.712 78.0107 173.825 79.3427 169.801 88.8697C157.9 112.296 159.682 138.242 177.418 112.615Z" fill="url(#paint3_linear_459_49797)"/>
<path d="M222.465 42.1906C222.465 42.1906 221.919 48.7639 228.904 54.6712C234.021 49.2852 237.787 44.681 240 41.3219C234.883 41.0903 228.904 41.4378 222.465 42.1906Z" fill="url(#paint4_radial_459_49797)"/>
<path d="M53.0928 122.576C75.1697 133.493 103.484 123.531 123.233 111.833C130.851 107.315 137.175 102.537 141.372 98.5992C147.753 92.634 151.634 86.4082 153.962 80.6746C156.492 74.4778 157.211 68.8601 157.268 64.8351C157.354 60.839 156.808 58.3487 156.808 58.3487C156.808 58.3487 142.809 38.1655 142.061 36.2543C141.027 35.0381 139.331 34.0536 138.238 33.6771C137.146 33.3007 135.881 33.0401 134.041 33.764C131.828 34.6617 128.177 36.1675 127.027 36.6018C125.906 37.0072 117.829 39.845 109.895 42.5091C104.634 44.2755 95.0618 48.4164 89.8013 50.3565C74.0773 56.119 70.8578 56.6692 71.9214 58.4935C72.985 60.3178 81.0051 57.5089 81.0051 57.5089C81.0051 57.5089 71.4327 62.6054 71.6339 65.1826C71.7489 66.891 74.0198 66.0513 75.5721 65.2984C76.377 64.8351 76.9519 64.5455 76.9519 64.5455C76.9519 64.5455 76.3482 64.922 75.5721 65.2984C74.336 65.9934 72.525 67.1227 71.1452 68.252C69.9091 69.2655 69.0468 70.279 69.2192 71.0609C70.3691 75.0859 83.6497 71.2636 92.3885 64.9219C101.127 58.5803 104.232 55.6557 108.889 54.9896C116.075 53.8893 122.198 67.4123 113.172 75.7519C104.146 84.0916 82.7011 91.8521 67.7532 88.3483C52.8915 84.8445 43.5491 77.2867 40.3008 74.2751C39.8696 74.2751 38.9785 74.5936 38.6623 74.8253H38.691C36.4201 81.8329 36.88 93.4737 37.0812 96.1378C37.1962 97.7884 37.9149 104.362 41.7381 111.08C44.1528 115.221 47.7173 119.448 53.0928 122.576Z" fill="#F29C21"/>
<path d="M53.0928 122.576C75.1697 133.493 103.484 123.531 123.233 111.833C130.851 107.315 137.175 102.537 141.372 98.5992C147.753 92.634 151.634 86.4082 153.962 80.6746C156.492 74.4778 157.211 68.8601 157.268 64.8351C157.354 60.839 156.808 58.3487 156.808 58.3487C156.808 58.3487 142.809 38.1655 142.061 36.2543C141.027 35.0381 139.331 34.0536 138.238 33.6771C137.146 33.3007 135.881 33.0401 134.041 33.764C131.828 34.6617 128.177 36.1675 127.027 36.6018C125.906 37.0072 117.829 39.845 109.895 42.5091C104.634 44.2755 95.0618 48.4164 89.8013 50.3565C74.0773 56.119 70.8578 56.6692 71.9214 58.4935C72.985 60.3178 81.0051 57.5089 81.0051 57.5089C81.0051 57.5089 71.4327 62.6054 71.6339 65.1826C71.7489 66.891 74.0198 66.0513 75.5721 65.2984C76.377 64.8351 76.9519 64.5455 76.9519 64.5455C76.9519 64.5455 76.3482 64.922 75.5721 65.2984C74.336 65.9934 72.525 67.1227 71.1452 68.252C69.9091 69.2655 69.0468 70.279 69.2192 71.0609C70.3691 75.0859 83.6497 71.2636 92.3885 64.9219C101.127 58.5803 104.232 55.6557 108.889 54.9896C116.075 53.8893 122.198 67.4123 113.172 75.7519C104.146 84.0916 82.7011 91.8521 67.7532 88.3483C52.8915 84.8445 43.5491 77.2867 40.3008 74.2751C39.8696 74.2751 38.9785 74.5936 38.6623 74.8253H38.691C36.4201 81.8329 36.88 93.4737 37.0812 96.1378C37.1962 97.7884 37.9149 104.362 41.7381 111.08C44.1528 115.221 47.7173 119.448 53.0928 122.576Z" fill="#F6A61D"/>
<path opacity="0.8" d="M68.7312 120.867C69.4211 116.871 75.5727 111.862 79.5109 108.387C96.0398 93.1263 116.622 83.7731 133.266 67.9625C139.734 61.5629 139.532 57.2483 145.627 50.2117C146.518 49.1982 147.84 47.8951 149.277 47.3739C145.828 42.3064 142.436 37.181 142.091 36.2543C141.056 35.0381 139.36 34.0536 138.268 33.6771C137.175 33.3007 135.91 33.0401 134.071 33.764C131.857 34.6617 128.207 36.1675 127.057 36.6018C125.936 37.0072 117.858 39.845 109.924 42.5091C104.664 44.2755 95.0912 48.4164 89.8307 50.3565C74.1067 56.119 70.8871 56.6692 71.9507 58.4935C73.0143 60.3178 81.0344 57.5089 81.0344 57.5089C81.0344 57.5089 71.462 62.6054 71.6633 65.1826C71.7783 66.891 74.0492 66.0513 75.6014 65.2984C76.4063 64.8351 76.9813 64.5455 76.9813 64.5455C76.9813 64.5455 76.3776 64.922 75.6014 65.2984C74.3654 65.9934 72.5544 67.1227 71.1746 68.252C69.9385 69.2655 69.0761 70.279 69.2486 71.0609C70.3984 75.0859 83.6791 71.2636 92.4178 64.9219C101.157 58.5803 104.261 55.6557 108.918 54.9896C116.105 53.8893 122.227 67.4123 113.201 75.7519C104.175 84.0916 82.7305 91.8521 67.7826 88.3483C52.9209 84.8445 43.5785 77.2867 40.3302 74.2751C39.899 74.2751 39.0079 74.5937 38.6917 74.8253H38.7204C36.4495 81.8329 36.9094 93.4737 37.1106 96.1378C37.2256 97.7884 37.9443 104.362 41.7675 111.08C44.1534 115.25 47.7179 119.477 53.0934 122.605C60.6823 126.34 68.9899 127.643 77.4412 127.238C73.7617 126.803 67.955 125.385 68.7312 120.867Z" fill="url(#paint5_linear_459_49797)"/>
<path opacity="0.8" d="M124.008 111.427C131.425 107.026 137.577 102.393 141.687 98.5413C144.964 95.4719 147.58 92.3155 149.621 89.2171C138.554 87.4218 126.164 83.223 121.68 86.4951C116.879 89.97 110.67 98.9757 110.182 104.999C110.182 104.999 102.736 110.269 117.771 106.91C109.176 109.661 104.231 114.96 104.231 114.96C104.231 114.96 99.7181 119.651 111.935 116.176C113.487 115.742 115.73 115.192 118.461 114.555C120.358 113.512 122.226 112.47 124.008 111.427Z" fill="#DC7D27"/>
<path d="M110.817 104.651C110.817 104.651 103.257 109.892 118.348 106.302C109.696 109.169 104.608 114.381 104.608 114.381C104.608 114.381 99.9795 118.985 112.254 115.336C124.557 111.688 177.68 100.655 187.453 95.2981C186.102 97.9911 184.838 100.423 184.838 100.423C184.838 100.423 183.745 103.088 187.367 100.713C190.989 98.3096 196.336 91.968 194.18 90.2016C194.439 90.0279 198.722 85.3947 193.548 85.163C194.008 84.4391 194.151 83.1361 191.478 83.8021C188.805 84.4681 164.457 89.8831 152.901 88.7537C141.374 87.5955 127.633 83.1361 122.746 86.582C117.917 90.0568 111.478 98.8598 110.817 104.651Z" fill="#F5AF1B"/>
<path opacity="0.5" d="M110.817 104.651C110.817 104.651 103.257 109.892 118.348 106.302C109.696 109.169 104.608 114.381 104.608 114.381C104.608 114.381 99.9795 118.985 112.254 115.336C124.557 111.688 177.68 100.655 187.453 95.2981C186.102 97.9911 184.838 100.423 184.838 100.423C184.838 100.423 183.745 103.088 187.367 100.713C190.989 98.3096 196.336 91.968 194.18 90.2016C194.439 90.0279 198.722 85.3947 193.548 85.163C194.008 84.4391 194.151 83.1361 191.478 83.8021C188.805 84.4681 164.457 89.8831 152.901 88.7537C141.374 87.5955 127.633 83.1361 122.746 86.582C117.917 90.0568 111.478 98.8598 110.817 104.651Z" fill="url(#paint6_radial_459_49797)"/>
<path d="M40.274 74.1884C41.3663 68.7734 39.0379 68.8892 38.5779 70.4529C34.8697 62.6055 31.104 47.2003 31.5927 34.1117C32.0813 21.023 40.4464 -2.14273 37.1981 0.14489C33.4037 2.83791 28.2869 12.1911 25.5273 21.2547C22.7677 30.3183 24.5787 48.069 27.5682 52.4705C27.6257 52.5574 25.2398 49.0536 24.6649 51.1964C23.8313 58.7253 34.2948 70.0765 37.0257 71.6981C34.5248 73.3776 38.4055 74.7096 38.6929 74.7965C39.1529 74.6517 39.7853 74.4201 40.3314 74.2463C40.3314 74.2174 40.3027 74.1884 40.274 74.1884Z" fill="url(#paint7_linear_459_49797)"/>
<path opacity="0.8" d="M37.3687 70.5976C37.3687 70.5976 30.9008 64.951 28.8024 58.7541C26.7039 52.5573 30.4121 57.1615 30.4121 57.1615C28.3424 53.2523 24.7492 35.6463 27.5376 29.9418C28.2275 28.5518 28.8599 32.4031 29.2623 37.6154C29.8085 46.5632 29.8085 49.6905 32.3956 57.8565C34.7815 65.0089 38.0873 70.4818 37.3687 70.5976Z" fill="#F29D1F"/>
<path d="M26.6487 112.354C26.6774 113.715 28.086 113.831 30.9318 111.833C32.8578 110.414 32.2541 109.024 30.5869 109.14C28.9484 109.227 26.6487 110.993 26.6487 112.354ZM35.7037 117.972C36.0774 116.727 34.87 116.495 33.9789 116.524C31.7942 116.669 27.1949 119.999 29.2646 121.157C31.3343 122.315 35.3012 119.217 35.7037 117.972ZM10.2922 77.4606C10.2922 77.4606 12.2757 76.9973 10.3785 75.6363C8.48125 74.2463 5.06046 74.3332 4.0256 75.7231C2.99075 77.1131 6.38278 78.3293 10.2922 77.4606ZM2.44458 72.3352C4.25557 72.7116 6.26781 71.9877 5.23295 70.4819C4.1981 68.9472 1.63972 69.1788 0.461132 70.0186C-0.774944 70.8294 0.633579 71.9587 2.44458 72.3352Z" fill="#DC7D27"/>
<path d="M147.092 50.067L148.069 52.9917L150.944 55.8295L154.623 55.9164L157.728 53.484L158.906 51.1963C158.906 51.1963 153.56 50.733 151.863 44.4783C150.196 45.318 147.092 50.067 147.092 50.067Z" fill="#2B1B0F"/>
<path d="M145.627 48.706C145.857 49.4299 145.656 50.2697 146.087 50.8778C146.547 51.9203 149.882 51.8913 150.256 48.706C150.342 47.4029 149.422 46.7659 150.888 45.7524C154.021 44.0439 154.855 45.984 157.356 42.9725C158.707 41.1482 158.592 37.3838 156.091 34.1985C153.59 31.0421 148.847 27.8279 142.839 32.7796C136.831 37.7602 141.919 45.8682 143.903 46.9107C144.564 47.345 145.311 47.6056 145.627 48.706Z" fill="#FFD379"/>
<path d="M147.235 52.9337C146.718 51.4858 147.407 51.2542 148.011 51.7464C148.931 52.3835 149.103 52.9337 150.799 54.063C153.042 55.4819 155.887 54.8159 158.072 50.9935C159.912 47.7214 161.177 50.2986 161.119 51.8623C161.062 53.4259 159.423 64.227 153.358 61.505C149.276 59.4201 147.724 54.3526 147.235 52.9337Z" fill="#D28529"/>
<path d="M130.218 25.3664C129.787 25.7718 129.385 25.656 129.557 25.1348C129.931 24.1792 131.426 23.1367 132.92 23.5132C134.415 23.8896 134.789 25.6271 134.76 26.0035C134.76 26.3799 134.444 26.5826 134.272 25.9456C134.013 25.1637 132.604 23.1946 130.218 25.3664ZM102.076 39.5265C103.111 39.179 103.14 38.7736 102.795 38.7736C101.875 38.8894 100.955 39.1211 99.9776 38.0786C99.5177 37.4995 99.5177 36.8914 100.035 36.3412C101.904 34.43 106.56 33.5324 106.848 33.4455C107.998 33.1849 107.969 32.8084 107.682 32.7795C107.394 32.7505 104.318 32.8084 101.329 33.9667C100.265 34.3721 98.2241 35.2988 98.0516 36.6887C97.8792 38.2234 99.6327 40.3084 102.076 39.5265Z" fill="#2B1B0F"/>
<path d="M142.352 48.9088C136.947 51.1964 136.114 55.5689 136.286 58.7253C134.561 59.4492 124.73 59.1886 120.39 54.5554C116.049 49.8933 120.418 44.6521 123.81 43.1173C129.272 40.3954 134.935 42.5671 137.321 43.7833C140.742 45.6077 141.575 47.432 142.352 48.9088Z" fill="#F6F6F6"/>
<path d="M137.062 53.8603C137.896 51.9491 139.477 50.1248 142.352 48.9086C141.575 47.4318 140.713 45.6075 137.321 43.7832C136.401 43.3199 135.021 42.7118 133.354 42.3064C128.266 43.0882 125.938 45.7523 126.455 49.4299C126.972 53.1653 131.141 54.7001 136.401 53.9472C136.66 53.9182 136.861 53.8893 137.062 53.8603Z" fill="#010101"/>
<path d="M128.752 49.43C128.781 49.6037 128.867 50.2408 128.781 49.5458C128.551 47.9242 128.781 46.4184 129.183 44.8547C126.021 48.2427 128.12 52.123 131.914 53.1944C130.189 52.4126 129.039 51.3411 128.752 49.43C128.752 49.4879 129.039 51.4859 128.752 49.43ZM128.666 48.8219C128.666 48.8508 128.666 48.9087 128.695 48.9956C128.695 48.9087 128.666 48.8508 128.666 48.8219Z" fill="#F6F6F6"/>
<path d="M129.039 41.8142C127.343 41.8721 125.561 42.2486 123.807 43.1173C120.415 44.652 116.046 49.8933 120.387 54.5554C120.904 55.1056 121.508 55.5978 122.14 56.0322L123.319 57.1905C123.549 57.4221 123.549 57.5669 123.52 57.6827C123.434 58.175 122.514 58.7542 122.111 58.9569L122.485 59.7387C122.657 59.6518 123.951 59.0437 124.325 58.1171C124.44 58.3488 124.526 58.6094 124.526 58.87C124.526 59.9704 123.491 61.1576 121.68 62.1421L122.083 62.924C124.957 61.3893 125.388 59.7387 125.388 58.8989C125.388 58.3777 125.216 57.9144 124.928 57.48C125.475 57.6827 126.021 57.8854 126.567 58.0302C116.851 52.3836 119.409 43.8991 129.039 41.8142Z" fill="url(#paint8_linear_459_49797)"/>
<path d="M151.491 50.8488C149.163 51.8623 151.29 54.3527 149.853 56.148C148.416 57.9434 141.43 59.7677 139.734 60.868C138.009 61.9394 139.619 65.5591 141.459 66.1382C143.299 66.7174 148.789 67.3544 152.009 62.4317C156.004 56.3507 154.337 49.6037 151.491 50.8488Z" fill="url(#paint9_radial_459_49797)"/>
<path d="M151.49 50.8779L151.375 50.9358C151.346 50.9648 151.289 50.9937 151.231 51.0227C151.174 51.0516 151.116 51.1096 151.03 51.1675C150.886 51.2833 150.714 51.4281 150.599 51.6597C150.484 51.8914 150.398 52.181 150.369 52.4995C150.34 52.847 150.369 53.1945 150.426 53.5999C150.455 54.0053 150.513 54.4686 150.455 54.9319C150.398 55.4242 150.225 55.9454 149.851 56.3508C149.449 56.7562 148.989 57.0747 148.5 57.3933C147.494 58.0014 146.344 58.5226 145.108 59.0728C143.901 59.623 142.579 60.1442 141.285 60.7233C140.969 60.8681 140.653 61.0129 140.365 61.1867C140.308 61.2156 140.222 61.2735 140.164 61.3025L140.107 61.3314L140.078 61.3604C140.078 61.3604 140.135 61.3314 140.107 61.3604L139.992 61.4473C139.963 61.5052 139.963 61.5052 139.905 61.5341C139.877 61.5631 139.848 61.621 139.819 61.6789C139.733 61.8816 139.675 62.1133 139.704 62.4029C139.733 62.6924 139.79 63.011 139.905 63.3005C140.02 63.5901 140.164 63.9086 140.365 64.1692C140.538 64.4588 140.739 64.6905 140.969 64.8932C141.199 65.0959 141.429 65.2696 141.659 65.3275H141.688H141.716L141.774 65.3565L141.918 65.3854L142.061 65.4144L142.176 65.4434C142.349 65.4723 142.493 65.5013 142.694 65.5302C143.384 65.6461 144.131 65.704 144.821 65.675L145.367 65.6461C145.54 65.6171 145.712 65.5881 145.885 65.5881L146.402 65.5013C146.574 65.4723 146.747 65.4434 146.919 65.3854C148.27 65.009 149.507 64.3719 150.484 63.4164C150.714 63.1847 150.973 62.953 151.174 62.6635C151.289 62.5187 151.375 62.4029 151.49 62.2581C151.547 62.2002 151.605 62.1133 151.634 62.0554L151.777 61.8527C151.979 61.5631 152.151 61.2735 152.324 61.0129C152.496 60.7233 152.64 60.4338 152.784 60.1442C153.387 58.9859 153.761 57.7987 153.991 56.6693C154.221 55.54 154.25 54.4686 154.135 53.542C154.02 52.6153 153.732 51.8335 153.301 51.3123C153.1 51.0516 152.841 50.8779 152.611 50.791C152.381 50.6752 152.151 50.7041 151.979 50.7041C151.892 50.7041 151.806 50.7331 151.749 50.7331C151.691 50.7331 151.634 50.7621 151.576 50.791C151.547 50.8779 151.49 50.8779 151.49 50.8779ZM151.461 50.82C151.461 50.82 151.519 50.791 151.605 50.7621C151.662 50.7621 151.691 50.7331 151.777 50.7041C151.835 50.7041 151.921 50.6752 152.007 50.6462C152.18 50.6462 152.439 50.6462 152.669 50.7331C152.927 50.82 153.186 51.0227 153.387 51.2833C153.847 51.8045 154.135 52.6153 154.278 53.5709C154.422 54.4975 154.422 55.5979 154.25 56.7562C154.077 57.9145 153.732 59.1307 153.186 60.3759C152.64 61.5921 151.921 62.8372 150.915 63.8797C150.858 63.9376 150.8 64.0245 150.743 64.0824L150.541 64.2561C150.398 64.3719 150.254 64.4878 150.139 64.6326C149.995 64.7484 149.851 64.8642 149.679 64.9511C149.535 65.0669 149.392 65.1827 149.219 65.2696C148.903 65.4434 148.558 65.6461 148.213 65.7908C148.04 65.8488 147.868 65.9646 147.696 66.0225C147.523 66.0804 147.322 66.1383 147.149 66.1962C146.402 66.3989 145.655 66.5437 144.878 66.5727C144.102 66.6016 143.326 66.5727 142.55 66.4569C142.176 66.399 141.774 66.3121 141.4 66.1962C141.026 66.0804 140.682 65.8198 140.394 65.5592C139.819 65.009 139.417 64.343 139.158 63.5901C139.043 63.2137 138.957 62.8372 138.928 62.4608C138.928 62.0843 138.986 61.6789 139.187 61.3314C139.273 61.1577 139.417 61.0129 139.56 60.8971L139.675 60.8102C139.733 60.7813 139.762 60.7523 139.79 60.7233C139.877 60.6654 139.963 60.6365 140.049 60.5786C140.394 60.4048 140.71 60.26 141.055 60.1442C142.406 59.594 143.729 59.1596 144.965 58.6674C146.201 58.2041 147.379 57.7118 148.385 57.1616C148.874 56.872 149.363 56.5825 149.736 56.206C150.11 55.8296 150.283 55.3373 150.34 54.9029C150.398 54.4396 150.369 54.0053 150.34 53.5999C150.311 53.1945 150.283 52.818 150.311 52.4705C150.34 52.1231 150.426 51.8045 150.541 51.5729C150.685 51.3412 150.858 51.1675 151.001 51.0806C151.088 51.0227 151.145 50.9937 151.203 50.9358C151.26 50.9069 151.318 50.8779 151.346 50.8489C151.432 50.82 151.461 50.82 151.461 50.82Z" fill="#CC77E0"/>
<path d="M143.357 62.2C143.357 62.2 143.558 62.2 143.874 62.171C144.19 62.1421 144.679 62.0552 145.225 61.9394C145.484 61.8525 145.8 61.7946 146.088 61.6788C146.404 61.5629 146.691 61.4471 147.008 61.2734C147.324 61.1286 147.611 60.9259 147.927 60.7232C148.215 60.5205 148.531 60.2888 148.79 60.0282C149.077 59.7676 149.307 59.507 149.537 59.2174C149.652 59.0726 149.767 58.9278 149.853 58.7831C149.94 58.6383 150.055 58.4935 150.141 58.3487L150.4 57.9143C150.486 57.7696 150.543 57.6248 150.629 57.48C150.716 57.3352 150.744 57.1904 150.831 57.0456C150.888 56.9008 150.946 56.785 151.003 56.6402C151.089 56.3796 151.204 56.119 151.262 55.9163C151.319 55.6846 151.406 55.5109 151.434 55.3371C151.521 55.0186 151.578 54.8159 151.578 54.8159C151.578 54.8159 151.549 55.0186 151.521 55.3371C151.492 55.5109 151.463 55.7136 151.434 55.9452C151.406 56.0611 151.406 56.1769 151.348 56.3217C151.319 56.4375 151.291 56.5823 151.233 56.7271C151.204 56.8719 151.147 57.0167 151.089 57.1615C151.032 57.3062 151.003 57.48 150.917 57.6248C150.859 57.7696 150.773 57.9433 150.716 58.0881C150.63 58.2329 150.543 58.4066 150.457 58.5804C150.371 58.7251 150.256 58.8989 150.17 59.0726C150.055 59.2174 149.94 59.3911 149.825 59.5359C149.595 59.8255 149.336 60.144 149.048 60.4047C148.761 60.6653 148.445 60.8969 148.129 61.1286C147.812 61.3313 147.467 61.534 147.123 61.6788C146.778 61.8236 146.461 61.9394 146.145 62.0263C145.829 62.1131 145.513 62.171 145.225 62.229C144.65 62.3158 144.162 62.3158 143.845 62.3158C143.558 62.2579 143.357 62.2 143.357 62.2Z" fill="#CC77E0"/>
</g>
<defs>
<linearGradient id="paint0_linear_459_49797" x1="184.207" y1="48.4078" x2="203.907" y2="38.6444" gradientUnits="userSpaceOnUse">
<stop stop-color="#848687"/>
<stop offset="1" stop-color="#B9B9BA"/>
</linearGradient>
<linearGradient id="paint1_linear_459_49797" x1="109.439" y1="106.559" x2="239.693" y2="42.0067" gradientUnits="userSpaceOnUse">
<stop stop-color="#848687"/>
<stop offset="1" stop-color="#B9B9BA"/>
</linearGradient>
<linearGradient id="paint2_linear_459_49797" x1="115.31" y1="115.77" x2="245.029" y2="51.4818" gradientUnits="userSpaceOnUse">
<stop stop-color="#848687"/>
<stop offset="1" stop-color="#B9B9BA"/>
</linearGradient>
<linearGradient id="paint3_linear_459_49797" x1="156.997" y1="108.82" x2="198.687" y2="88.1579" gradientUnits="userSpaceOnUse">
<stop stop-color="#848687"/>
<stop offset="1" stop-color="#B9B9BA"/>
</linearGradient>
<radialGradient id="paint4_radial_459_49797" cx="0" cy="0" r="1" gradientUnits="userSpaceOnUse" gradientTransform="translate(236.844 42.612) rotate(-26.698) scale(14.393 14.4562)">
<stop stop-color="#ED1A3C"/>
<stop offset="1" stop-color="#D51A2F"/>
</radialGradient>
<linearGradient id="paint5_linear_459_49797" x1="39.2745" y1="110.001" x2="127.776" y2="66.1402" gradientUnits="userSpaceOnUse">
<stop stop-color="#DC7D27"/>
<stop offset="1" stop-color="#F4A81D"/>
</linearGradient>
<radialGradient id="paint6_radial_459_49797" cx="0" cy="0" r="1" gradientUnits="userSpaceOnUse" gradientTransform="translate(216.355 81.5326) rotate(-26.698) scale(93.6996 94.1112)">
<stop stop-color="#DC7D27"/>
<stop offset="0.119" stop-color="#E18327"/>
<stop offset="0.663" stop-color="#F39B25"/>
<stop offset="1" stop-color="#FAA424"/>
</radialGradient>
<linearGradient id="paint7_linear_459_49797" x1="36.4848" y1="69.7348" x2="29.6071" y2="13.2804" gradientUnits="userSpaceOnUse">
<stop stop-color="#DC7D27"/>
<stop offset="1" stop-color="#F4A81D"/>
</linearGradient>
<linearGradient id="paint8_linear_459_49797" x1="121.604" y1="57.7059" x2="124.233" y2="47.3886" gradientUnits="userSpaceOnUse">
<stop stop-color="#CA7323"/>
<stop offset="1" stop-color="#F3A11E"/>
</linearGradient>
<radialGradient id="paint9_radial_459_49797" cx="0" cy="0" r="1" gradientUnits="userSpaceOnUse" gradientTransform="translate(142.876 62.2979) rotate(-23.5322) scale(16.4146 16.4969)">
<stop stop-color="#FF9DFC"/>
<stop offset="1" stop-color="#F8BDD7"/>
</radialGradient>
<clipPath id="clip0_459_49797">
<rect width="240" height="163" fill="white" transform="matrix(-1 0 0 1 240 0)"/>
</clipPath>
</defs>
</svg>
