<svg width="27" height="30" viewBox="0 0 27 30" fill="none" xmlns="http://www.w3.org/2000/svg">
<path d="M24.932 16.6635C25.0077 16.8397 24.9868 17.0258 24.9905 17.2101C25.0127 18.2562 24.9991 19.3035 24.9166 20.3453C24.8261 21.4869 24.7048 22.6261 24.5447 23.7622C24.3507 25.1321 24.0823 26.4854 23.8008 27.8367C23.6894 28.3734 23.5391 28.9014 23.4092 29.4344C23.3495 29.6807 23.1592 29.7068 22.9745 29.659C22.4973 29.5349 22.0176 29.605 21.5397 29.6174C20.509 29.6441 19.4788 29.7024 18.4474 29.726C15.3205 29.7961 12.1936 29.8718 9.06615 29.8762C8.13326 29.8774 7.19976 29.8861 6.26872 29.9308C5.92204 29.9475 5.57475 29.9792 5.22684 29.9984C4.97129 30.0121 4.89063 29.9413 4.89309 29.6714C4.90972 28.0576 4.9128 26.4438 4.9091 24.8306C4.90418 22.5318 4.91526 20.233 4.83706 17.9348C4.82905 17.691 4.79703 17.6047 4.52117 17.6817C4.18003 17.7772 3.84321 17.6221 3.51193 17.5445C3.32412 17.5005 3.15355 17.3956 2.98237 17.2926C2.22744 16.8378 1.98421 16.2379 2.23544 15.3891C2.38261 14.8927 2.64308 14.464 3.00269 14.0966C3.08458 14.0135 3.18865 13.9521 3.25454 13.8534C2.27731 13.9651 1.42817 13.7889 0.736048 13.0803C0.672008 12.8731 0.459568 12.7738 0.375208 12.5815C0.349346 12.53 0.337647 12.4723 0.301932 12.4251C0.26437 12.3345 0.206489 12.2502 0.208952 12.1459C0.0968823 12.0057 0.175084 11.8363 0.139985 11.6843C0.0685563 11.5062 0.0525463 11.3282 0.137522 11.1495C0.197867 10.382 0.590727 9.74971 0.950335 9.10195C1.1363 8.76628 1.37583 8.47342 1.61105 8.17622C1.69172 8.05585 1.80502 7.96713 1.90231 7.86227C2.05133 7.72515 2.17079 7.55452 2.3549 7.45711C2.47621 7.37459 2.55318 7.23933 2.68741 7.17108C2.81303 7.08731 2.93003 6.99611 2.98483 6.8472C3.45035 6.50719 3.93989 6.20564 4.53533 5.9283C3.68619 5.83585 2.92264 5.71176 2.3863 5.05407C2.35428 4.97961 2.33889 4.89461 2.25453 4.85552C2.00453 4.49379 2.09628 3.99557 2.50145 3.85472C2.72929 3.7753 2.92695 3.61336 3.17941 3.59909C3.31611 3.69092 3.40725 3.59723 3.50207 3.51843C3.97006 3.30872 4.4756 3.23116 4.96329 3.08907C5.56551 2.9141 6.15788 2.71308 6.73116 2.45683C6.87956 2.42022 7.02611 2.37927 7.12956 2.2527C7.69853 1.89841 8.23117 1.48519 8.83955 1.19605C8.98856 1.15945 9.13511 1.11849 9.23918 0.992542C10.4966 0.42296 11.7922 0.0233837 13.1906 0.0680568C13.2737 0.0277269 13.3796 0.109628 13.4529 0.0171793C14.0157 0.0972186 14.584 0.103424 15.1499 0.185324C15.9492 0.30135 16.7208 0.499277 17.4701 0.774761C18.0859 1.00123 18.6641 1.3127 19.2214 1.68187C19.6099 1.93874 19.9665 2.21981 20.3156 2.52011C20.363 2.59581 20.4388 2.62932 20.5188 2.656C21.5718 3.65742 22.3846 4.82698 22.9523 6.16966C22.7861 6.38061 22.6561 6.19571 22.5398 6.11505C22.0865 5.79862 21.6167 5.525 21.0798 5.37236C19.0471 4.79472 17.0139 5.62303 16.3143 8.01738C16.0908 8.78303 15.956 9.56419 15.8377 10.3503C15.7836 10.6494 15.6099 10.7263 15.3156 10.7002C14.5803 10.6351 13.847 10.6934 13.1204 10.8243C12.8765 10.8684 12.6801 10.833 12.6062 10.5551C12.4319 9.83719 12.3082 9.10691 12.052 8.40827C11.73 7.53094 11.3119 6.71628 10.5095 6.19571C9.18992 5.3401 7.82476 5.41704 6.47561 6.11878C5.08275 6.84285 4.52794 8.10549 4.4208 9.59707C4.30442 11.2121 4.6394 12.7627 5.21021 14.2666C5.33706 14.6005 5.35369 14.6029 5.6431 14.41C6.87833 13.5879 8.23979 13.0816 9.68192 12.7775C9.81923 12.7484 9.96086 12.7012 10.0982 12.7844C10.177 12.8688 10.1598 12.9693 10.1339 13.0648C9.84879 14.1184 10.1887 15.036 10.7404 15.9071C10.988 16.298 11.2687 16.6622 11.597 16.9886C11.7059 17.0972 11.8051 17.2145 11.879 17.3516C12.4325 18.3282 13.076 19.2353 13.9787 19.9159C14.8433 20.5674 15.6789 20.4756 16.4751 19.5679C17.1179 18.8351 17.3987 17.9199 17.6247 16.9905C17.6869 16.7336 17.7756 16.4823 17.7971 16.2155C17.9751 15.7675 18.2072 15.3432 18.3562 14.8828C18.6038 14.1184 18.7214 13.3484 18.5163 12.5536C18.4917 12.4586 18.4714 12.36 18.5243 12.265C18.6974 12.1285 18.9012 12.1596 19.0939 12.1757C20.5477 12.2936 21.9597 12.5691 23.2497 13.3043C23.5299 13.4644 23.565 13.4439 23.6586 13.1337C23.8273 12.5728 23.956 12.0032 24.0262 11.4206C24.0502 11.2239 24.0625 11.0241 24.1451 10.8399C24.1912 10.7896 24.2337 10.7232 24.3119 10.7977C24.4468 11.572 24.5903 12.3451 24.714 13.1213C24.7805 13.5382 24.8421 13.9601 24.8538 14.3814C24.8723 15.0503 24.9683 15.716 24.9295 16.3868C24.9665 16.4792 24.9037 16.5729 24.9339 16.6653L24.932 16.6635Z" fill="#F5A113"/>
<path d="M15.7301 10.2075C15.8138 9.33819 15.9955 8.49064 16.2707 7.66109C17.1433 5.03282 19.6611 4.5588 21.5269 5.34368C21.9339 5.51492 22.3059 5.74263 22.655 6.01253C22.7289 6.06961 22.7936 6.21418 22.9253 6.09071C23.5374 6.68697 23.9062 7.4247 24.0996 8.24495C24.2252 8.77854 24.3471 9.3202 24.2942 9.87861C24.1963 10.0399 24.2529 10.218 24.2406 10.3886C24.232 10.5071 24.2523 10.6287 24.1778 10.7348C24.1174 11.6178 23.9333 12.4759 23.6766 13.3209C23.6199 13.5077 23.5737 13.5772 23.3705 13.4512C21.8804 12.5261 20.227 12.2333 18.5084 12.2078C18.4124 12.1904 18.3582 12.1197 18.3126 12.044C17.9093 11.3764 17.2584 11.0761 16.5608 10.8478C16.405 10.7969 16.2424 10.7677 16.0823 10.7286C15.7061 10.6368 15.6882 10.6083 15.7301 10.2075Z" fill="#FEFEFE"/>
<path d="M24.2037 10.8138C24.2025 10.6066 24.2 10.3993 24.2 10.1921C24.2 10.0941 24.1907 9.98922 24.3207 9.9582C24.3176 10.2374 24.3139 10.5166 24.3108 10.7958C24.2751 10.802 24.2394 10.8076 24.2037 10.8138Z" fill="#F6F6F6"/>
<path d="M0.413406 12.5461C0.50454 12.7341 0.801319 12.7962 0.736048 13.0803C0.568559 12.9581 0.407248 12.8309 0.343824 12.6194C0.315499 12.5455 0.351213 12.5325 0.413406 12.5461Z" fill="#EF9C0F"/>
<path d="M2.39252 7.50491C2.24042 7.63769 2.08833 7.77046 1.93623 7.90324C1.86727 7.92434 1.84325 7.89642 1.85741 7.82879C2.0132 7.68546 2.09941 7.44596 2.36419 7.45217C2.39683 7.45713 2.40545 7.47513 2.39252 7.50491Z" fill="#A76E0A"/>
<path d="M2.98483 6.8472C3.09136 7.11275 2.81373 7.11215 2.71767 7.23748C2.67149 7.2108 2.62654 7.1835 2.65732 7.11711C2.7891 7.05507 2.8352 6.88691 2.98483 6.8472Z" fill="#E7980F"/>
<path d="M0.137522 11.1495C0.138138 11.3275 0.13937 11.5062 0.139985 11.6843C-0.0164196 11.5069 -0.0736861 11.3288 0.137522 11.1495Z" fill="#2F1B00"/>
<path d="M2.65732 7.11711C2.67764 7.15744 2.69796 7.19715 2.71767 7.23748C2.60929 7.32683 2.50089 7.41556 2.39252 7.50491C2.39067 7.48257 2.38143 7.4652 2.36419 7.45217C2.39375 7.2803 2.51447 7.18846 2.65732 7.11711Z" fill="#CA850F"/>
<path d="M3.50207 3.51843C3.60737 3.65742 3.46889 3.64625 3.40485 3.67541C3.3088 3.71947 3.21328 3.74738 3.17941 3.59909C3.29087 3.58916 3.38138 3.49113 3.50207 3.51843Z" fill="#ED9C12"/>
<path d="M1.85741 7.82879C1.88389 7.85361 1.90975 7.87842 1.93623 7.90324C1.83956 8.0081 1.78778 8.16692 1.61105 8.17622C1.60982 8.00001 1.74227 7.92124 1.85741 7.82879Z" fill="#795107"/>
<path d="M9.23918 0.992542C9.17391 1.19543 9.03536 1.25376 8.83955 1.19605C8.95839 1.09864 9.08585 1.02046 9.23918 0.992542Z" fill="#FCA705"/>
<path d="M7.13028 2.25397C7.06686 2.45996 6.9277 2.51394 6.73188 2.4581C6.84949 2.36007 6.97757 2.28313 7.13028 2.25397Z" fill="#FCB304"/>
<path d="M0.208952 12.1459C0.304396 12.2092 0.33099 12.3097 0.348847 12.414C0.342689 12.4555 0.31929 12.4797 0.278034 12.4866C0.21892 12.3805 0.0882615 12.2892 0.208952 12.1459Z" fill="#CF880F"/>
<path d="M13.4529 0.0171793C13.4024 0.227515 13.2891 0.107146 13.1906 0.0680568C13.2589 -0.0485896 13.363 0.0209021 13.4529 0.0171793Z" fill="#FEF800"/>
<path d="M2.25453 4.85552C2.44049 4.82636 2.43433 4.92563 2.3863 5.05407C2.30256 5.01436 2.24837 4.95542 2.25453 4.85552Z" fill="#FCA50A"/>
<path d="M24.932 16.6635C24.8107 16.5723 24.8915 16.4786 24.9278 16.3849C25.0233 16.4761 25.0194 16.5692 24.932 16.6635Z" fill="#FEAF05"/>
<path d="M20.5188 2.656C20.3747 2.72611 20.3218 2.6591 20.3156 2.52011C20.4135 2.52011 20.4782 2.56975 20.5188 2.656Z" fill="#FDA802"/>
<path d="M0.278034 12.4866C0.301433 12.4624 0.324832 12.4382 0.348847 12.414C0.370399 12.458 0.391854 12.5021 0.413406 12.5461C0.390007 12.5703 0.367223 12.5952 0.343824 12.6194C0.277937 12.597 0.284191 12.5387 0.278034 12.4866Z" fill="#E2940D"/>
<path d="M15.7559 10.2864C15.727 10.5557 15.8452 10.6537 16.1143 10.7003C16.7984 10.8188 17.4351 11.067 17.9794 11.5255C18.2301 11.7364 18.4099 11.9883 18.5342 12.2868C18.86 13.0605 18.7572 13.8392 18.5552 14.6166C18.4049 15.1955 18.15 15.7322 17.8735 16.259C17.5305 17.3156 15.8797 18.8215 14.3427 18.6912C13.3242 18.6049 12.4751 18.1762 11.807 17.3932C11.4123 16.9253 10.9739 16.496 10.6444 15.9723C10.2589 15.3593 9.98431 14.7091 9.91658 13.9819C9.87963 13.5804 9.97877 13.197 10.0982 12.8185C10.02 12.6491 10.1315 12.5226 10.1986 12.3904C10.5964 11.6074 11.2626 11.1545 12.0656 10.8839C12.3095 10.802 12.5274 10.7015 12.6777 10.4844C12.7282 10.7232 12.8446 10.7592 13.0902 10.7121C13.8827 10.5588 14.6863 10.4825 15.4917 10.6066C15.7873 10.6525 15.6457 10.3727 15.7559 10.2864Z" fill="#FED179"/>
<path d="M12.6777 10.4844C12.7245 10.7462 12.589 10.8361 12.3544 10.8994C11.3094 11.1836 10.5102 11.7743 10.0982 12.8185C8.43689 13.1058 6.87836 13.6561 5.49473 14.6495C5.37465 14.7357 5.29707 14.8127 5.21702 14.6023C4.53351 12.8086 4.09324 10.9795 4.37095 9.03867C4.80383 6.01331 7.76321 5.04354 9.63884 5.64414C10.5748 5.94382 11.2688 6.5314 11.7263 7.40128C12.2349 8.36796 12.5065 9.41033 12.6789 10.4837L12.6777 10.4844Z" fill="#FEFEFE"/>
<path d="M11.807 17.3932C12.0539 17.5725 12.2965 17.7593 12.5496 17.9299C14.0231 18.922 15.525 18.7855 16.8175 17.5576C17.2264 17.1692 17.5459 16.7119 17.8735 16.259C17.6635 17.5235 17.3538 18.7681 16.472 19.7329C15.8076 20.4601 15.0527 20.7523 14.0909 20.1164C13.0724 19.4426 12.3686 18.4709 11.807 17.3932Z" fill="#D18529"/>
<path d="M22.1913 10.5371C22.1913 10.8672 21.9549 11.0781 21.6316 11.0105C21.4629 10.9751 21.2942 10.9125 21.1414 10.8318C20.7418 10.6215 20.3687 10.65 19.9986 10.9019C19.873 10.9875 19.7344 11.0583 19.594 11.1147C19.413 11.1873 19.2461 11.1327 19.1162 10.9937C18.9943 10.8634 18.969 10.7065 19.0281 10.5334C19.1383 10.2113 19.3742 10.001 19.6519 9.83845C20.2787 9.47052 21.3188 9.558 21.8871 10.0134C22.0565 10.1487 22.1796 10.31 22.1913 10.5371Z" fill="#2B1B0F"/>
<path d="M8.03846 9.99914C8.52614 10.0047 8.91962 10.0854 9.26383 10.3305C9.55817 10.5402 9.64807 10.8039 9.52738 11.0694C9.38021 11.3939 9.11235 11.3381 8.8488 11.2822C8.75275 11.2618 8.65607 11.2345 8.5674 11.1923C8.14375 10.9913 7.76074 11.057 7.40237 11.3493C7.30939 11.4256 7.20594 11.4907 7.10126 11.5497C6.91037 11.6564 6.7164 11.652 6.55076 11.5038C6.38266 11.3536 6.36357 11.1563 6.44977 10.9578C6.69731 10.3863 7.16283 10.1152 7.75028 10.0215C7.86912 10.0029 7.99166 10.0029 8.03846 9.99914Z" fill="#2B1B0F"/>
<rect x="3" y="29" width="24" height="1" fill="white"/>
</svg>
