<svg width="16" height="20" viewBox="0 0 16 20" fill="none" xmlns="http://www.w3.org/2000/svg">
<g clip-path="url(#clip0_1851_936)">
<path d="M16 14.2563V15.5897C16 15.7702 15.934 15.9265 15.8021 16.0584C15.6701 16.1904 15.5139 16.2563 15.3333 16.2563H0.666667C0.486111 16.2563 0.329861 16.1904 0.197917 16.0584C0.0659722 15.9265 0 15.7702 0 15.5897V14.2563C0 14.0758 0.0659722 13.9195 0.197917 13.7876C0.329861 13.6557 0.486111 13.5897 0.666667 13.5897H15.3333C15.5139 13.5897 15.6701 13.6557 15.8021 13.7876C15.934 13.9195 16 14.0758 16 14.2563ZM16 8.92301V10.2563C16 10.4369 15.934 10.5932 15.8021 10.7251C15.6701 10.857 15.5139 10.923 15.3333 10.923H0.666667C0.486111 10.923 0.329861 10.857 0.197917 10.7251C0.0659722 10.5932 0 10.4369 0 10.2563V8.92301C0 8.74246 0.0659722 8.58621 0.197917 8.45426C0.329861 8.32232 0.486111 8.25635 0.666667 8.25635H15.3333C15.5139 8.25635 15.6701 8.32232 15.8021 8.45426C15.934 8.58621 16 8.74246 16 8.92301ZM16 3.58968V4.92301C16 5.10357 15.934 5.25982 15.8021 5.39176C15.6701 5.52371 15.5139 5.58968 15.3333 5.58968H0.666667C0.486111 5.58968 0.329861 5.52371 0.197917 5.39176C0.0659722 5.25982 0 5.10357 0 4.92301V3.58968C0 3.40913 0.0659722 3.25288 0.197917 3.12093C0.329861 2.98899 0.486111 2.92301 0.666667 2.92301H15.3333C15.5139 2.92301 15.6701 2.98899 15.8021 3.12093C15.934 3.25288 16 3.40913 16 3.58968Z" fill="#333333"/>
</g>
<defs>
<clipPath id="clip0_1851_936">
<rect width="16" height="19" fill="white" transform="matrix(1 0 0 -1 0 19.0898)"/>
</clipPath>
</defs>
</svg>
