<svg width="98" height="29" viewBox="0 0 98 29" fill="none" xmlns="http://www.w3.org/2000/svg">
<g clip-path="url(#clip0_1471_89966)">
<path d="M79.9221 0.0034184H6.92081C6.6539 0.0034184 6.39212 0.0034184 6.12692 0.0051276C5.9045 0.0068368 5.68379 0.0102552 5.45965 0.0136736C4.97203 0.0188012 4.48612 0.0615312 4.00534 0.141864C3.52456 0.223905 3.0609 0.376024 2.62631 0.596511C2.19173 0.818707 1.7965 1.10756 1.45089 1.45111C1.10528 1.79466 0.816125 2.19119 0.595412 2.62704C0.374699 3.06118 0.222424 3.52608 0.142009 4.00637C0.0615943 4.48665 0.0171095 4.97035 0.0119767 5.45748C0.00513286 5.67967 0.00342191 5.90187 0 6.12577V22.8811C0.00342191 23.1067 0.00513286 23.3237 0.0119767 23.5494C0.0171095 24.0348 0.0615943 24.5202 0.142009 25.0005C0.222424 25.4808 0.374699 25.9474 0.595412 26.3815C0.816125 26.8139 1.10356 27.2105 1.45089 27.5506C1.79479 27.8959 2.19002 28.1847 2.6246 28.4052C3.05919 28.6257 3.52456 28.7795 4.00363 28.8633C4.48441 28.9419 4.97032 28.9846 5.45794 28.9915C5.68208 28.9966 5.90279 28.9983 6.12521 28.9983C6.39041 29 6.6539 29 6.9191 29H91.0843C91.3444 29 91.6096 29 91.8714 28.9983C92.0921 28.9983 92.3196 28.9949 92.5403 28.9897C93.0263 28.9846 93.5122 28.9419 93.9912 28.8616C94.4737 28.7795 94.9391 28.624 95.3754 28.4035C95.81 28.183 96.2069 27.8941 96.5491 27.5489C96.8947 27.207 97.1839 26.8105 97.4063 26.3798C97.6253 25.9457 97.7776 25.479 97.8563 24.9988C97.9367 24.5185 97.9812 24.0348 97.9914 23.5477C97.9949 23.322 97.9949 23.105 97.9949 22.8794C98 22.6161 98 22.3546 98 22.0863V6.91542C98 6.6505 98 6.38728 97.9949 6.12406C97.9949 5.90187 97.9949 5.67967 97.9914 5.45577C97.9829 4.97035 97.9384 4.48494 97.8563 4.00466C97.7776 3.52437 97.6253 3.05947 97.4063 2.62533C96.958 1.75364 96.248 1.04261 95.3754 0.594802C94.9391 0.374315 94.472 0.222196 93.9912 0.140154C93.5105 0.059822 93.0263 0.017092 92.5403 0.0119644C92.3196 0.008546 92.0921 0.0034184 91.8714 0.0017092C91.6113 0 91.3461 0 91.0843 0H79.9221V0.0034184Z" fill="#CCCED3"/>
<path d="M6.13059 28.3661C5.90988 28.3661 5.6943 28.3626 5.4753 28.3592C5.02018 28.3524 4.56678 28.3131 4.11851 28.2413C3.69933 28.1695 3.29554 28.0345 2.91571 27.843C2.54101 27.6533 2.19882 27.4055 1.90282 27.1064C1.6017 26.8107 1.3519 26.4688 1.16198 26.0945C0.970355 25.7168 0.8369 25.3117 0.768462 24.893C0.694891 24.4434 0.653828 23.9888 0.648695 23.5341C0.643563 23.382 0.636719 22.8727 0.636719 22.8727V6.12765C0.636719 6.12765 0.643563 5.62514 0.648695 5.47986C0.653828 5.02521 0.694891 4.57056 0.768462 4.12275C0.8369 3.704 0.970355 3.29721 1.16369 2.91777C1.35361 2.54174 1.6017 2.1999 1.90111 1.90421C2.19882 1.6051 2.54272 1.35556 2.91742 1.16242C3.29554 0.972698 3.69933 0.839381 4.1168 0.769303C4.56678 0.695808 5.02189 0.654787 5.47701 0.649659L6.1323 0.641113H91.8699L92.532 0.651368C92.9837 0.656496 93.4354 0.695808 93.8803 0.769303C94.3012 0.84109 94.7101 0.974407 95.0933 1.16755C95.8462 1.55554 96.4587 2.16914 96.8454 2.92119C97.0336 3.29892 97.1653 3.70058 97.2337 4.11592C97.309 4.56886 97.3518 5.02521 97.3603 5.48328C97.3621 5.68838 97.3621 5.90887 97.3621 6.12936C97.3672 6.40112 97.3672 6.65921 97.3672 6.92072V22.0916C97.3672 22.3548 97.3672 22.6112 97.3621 22.871C97.3621 23.1068 97.3621 23.3222 97.3586 23.5444C97.3501 23.9939 97.309 24.4434 97.2355 24.8878C97.1687 25.3083 97.0353 25.7168 96.8436 26.0979C96.652 26.4688 96.4039 26.809 96.1062 27.103C95.8102 27.4021 95.4663 27.6533 95.0899 27.8447C94.7084 28.0379 94.3012 28.1729 93.8803 28.243C93.432 28.3148 92.9786 28.3558 92.5235 28.3609C92.3113 28.3661 92.0889 28.3695 91.8716 28.3695H91.0846L6.13059 28.3661Z" fill="#766086"/>
<path d="M23.7226 14.422C23.7397 13.1435 24.4104 11.9625 25.5002 11.2925C24.809 10.3062 23.6935 9.7029 22.489 9.6653C21.2211 9.53198 19.9944 10.4225 19.3476 10.4225C18.7009 10.4225 17.6949 9.67726 16.6255 9.69948C15.2174 9.74563 13.9359 10.5267 13.2498 11.7556C11.7904 14.2801 12.8785 17.9891 14.2764 20.0299C14.9762 21.0298 15.794 22.1442 16.8633 22.1049C17.9104 22.0621 18.3005 21.4383 19.5649 21.4383C20.8293 21.4383 21.1835 22.1049 22.2751 22.0792C23.3975 22.0621 24.1058 21.0759 24.7799 20.0675C25.2829 19.3548 25.6696 18.5685 25.9263 17.7361C24.5917 17.1738 23.7243 15.868 23.7226 14.422ZM21.6626 8.32357C22.2751 7.58862 22.5762 6.64514 22.5044 5.69141C21.5685 5.78883 20.7044 6.23664 20.0834 6.94254C19.4708 7.63989 19.1594 8.5509 19.221 9.47558C20.1672 9.48583 21.0672 9.06024 21.6626 8.32357Z" fill="white"/>
<path d="M36.281 19.6778H32.8471L32.0207 22.11H30.5664L33.8189 13.1077H35.3297L38.5839 22.11H37.104L36.281 19.6778ZM33.2013 18.5549H35.9234L34.5803 14.6067H34.5427L33.2013 18.5549ZM45.6108 18.8284C45.6108 20.8675 44.5175 22.1784 42.8682 22.1784C42.0161 22.2228 41.2137 21.7767 40.8013 21.0298H40.7705V24.2807H39.4223V15.5467H40.7278V16.6389H40.7517C41.1812 15.8971 41.9853 15.451 42.8442 15.4783C44.5124 15.4783 45.6108 16.7961 45.6108 18.8284ZM44.225 18.8284C44.225 17.5003 43.5371 16.6269 42.4883 16.6269C41.4395 16.6269 40.7654 17.5191 40.7654 18.8301C40.7654 20.141 41.4583 21.0384 42.4883 21.0384C43.5371 21.0384 44.225 20.1701 44.225 18.8284ZM52.8413 18.8284C52.8413 20.8675 51.748 22.1784 50.0987 22.1784C49.2466 22.2228 48.4442 21.7767 48.0318 21.0298H48.001V24.2807H46.6528V15.5467H47.9582V16.6389H47.9822C48.4134 15.8971 49.2158 15.451 50.0747 15.4783C51.7429 15.4783 52.8413 16.7961 52.8413 18.8284ZM51.4554 18.8284C51.4554 17.5003 50.7676 16.6269 49.7188 16.6269C48.67 16.6269 47.9959 17.5191 47.9959 18.8301C47.9959 20.141 48.6888 21.0384 49.7188 21.0384C50.7676 21.0384 51.4554 20.1701 51.4554 18.8284ZM57.62 19.6026C57.7209 20.4948 58.5884 21.0811 59.7741 21.0811C60.9598 21.0811 61.728 20.4948 61.728 19.6898C61.728 18.9908 61.2353 18.5737 60.0667 18.2866L58.8981 18.0063C57.2436 17.6063 56.4754 16.8337 56.4754 15.5792C56.4754 14.0255 57.8305 12.959 59.7536 12.959C61.6767 12.959 62.9633 14.0255 63.0078 15.5792H61.6459C61.5638 14.6801 60.8212 14.1383 59.7347 14.1383C58.6483 14.1383 57.9057 14.687 57.9057 15.4852C57.9057 16.1227 58.3814 16.4953 59.5431 16.7825L60.5355 17.0269C62.385 17.4627 63.1515 18.2062 63.1515 19.5223C63.1515 21.2059 61.8084 22.2622 59.6731 22.2622C57.6748 22.2622 56.3248 21.2315 56.2376 19.6044H57.62V19.6026ZM66.0653 13.9948V15.5484H67.3143V16.615H66.0653V20.2333C66.0653 20.7957 66.3151 21.0572 66.8643 21.0572C67.0131 21.0538 67.1603 21.0435 67.3074 21.0264V22.0861C67.0593 22.1323 66.8095 22.1528 66.558 22.1494C65.2286 22.1494 64.7085 21.6503 64.7085 20.3786V16.6167H63.7521V15.5501H64.7085V13.9948H66.0653ZM68.0363 18.8284C68.0363 16.7637 69.2545 15.4664 71.1519 15.4664C73.0494 15.4664 74.2693 16.7637 74.2693 18.8284C74.2693 20.8931 73.0631 22.1904 71.1519 22.1904C69.2425 22.1921 68.0363 20.8999 68.0363 18.8284ZM72.8954 18.8284C72.8954 17.4115 72.2452 16.5757 71.1519 16.5757C70.0586 16.5757 69.4102 17.4183 69.4102 18.8284C69.4102 20.2385 70.0603 21.0794 71.1519 21.0794C72.2452 21.0811 72.8954 20.2521 72.8954 18.8284ZM75.3814 15.5467H76.6681V16.6628H76.6988C76.8785 15.9432 77.5372 15.4493 78.2781 15.4766C78.4338 15.4766 78.5895 15.4937 78.74 15.5262V16.7859C78.5433 16.7261 78.3397 16.6987 78.1343 16.7038C77.7374 16.6885 77.3541 16.8457 77.0838 17.1363C76.8135 17.4268 76.6834 17.8199 76.7296 18.2148V22.1066H75.3797V15.5467H75.3814ZM84.9593 20.1821C84.778 21.3734 83.6162 22.1904 82.1311 22.1904C80.22 22.1904 79.0343 20.9119 79.0343 18.8591C79.0343 16.8064 80.2268 15.4647 82.0747 15.4647C83.9225 15.4647 85.0346 16.7124 85.0346 18.7019V19.1634H80.3945V19.2454C80.3517 19.7343 80.5194 20.218 80.8582 20.5735C81.1969 20.929 81.6709 21.1221 82.1619 21.105C82.8172 21.1666 83.4332 20.7905 83.6795 20.1821H84.9593ZM80.3996 18.2233H83.6847C83.7086 17.7841 83.5495 17.355 83.2432 17.0388C82.937 16.7226 82.5127 16.5483 82.073 16.5569C81.6298 16.5534 81.2038 16.7278 80.889 17.0423C80.5759 17.355 80.3979 17.7806 80.3996 18.2233Z" fill="white"/>
<path d="M33.0335 6.33279C33.6067 6.29177 34.1662 6.50884 34.5614 6.92588C34.9567 7.34122 35.1431 7.91209 35.0713 8.48126C35.0713 9.864 34.3236 10.6571 33.0335 10.6571H31.4697V6.33108H33.0335V6.33279ZM32.1421 10.0469H32.9583C33.3672 10.0708 33.7658 9.91015 34.043 9.60933C34.3202 9.30851 34.4468 8.89659 34.3869 8.49151C34.4417 8.08814 34.315 7.68135 34.0379 7.38224C33.7607 7.08313 33.3655 6.92247 32.9583 6.94468H32.1421V10.0469ZM35.8292 9.02478C35.7728 8.43853 36.0534 7.87278 36.553 7.56341C37.0526 7.25234 37.6856 7.25234 38.1852 7.56341C38.6848 7.87278 38.9654 8.43853 38.909 9.02478C38.9654 9.61104 38.6865 10.1768 38.1852 10.4879C37.6856 10.7989 37.0526 10.7989 36.5513 10.4879C36.0534 10.1785 35.7728 9.61104 35.8292 9.02478ZM38.2485 9.02478C38.2485 8.31717 37.9303 7.90355 37.3725 7.90355C36.8147 7.90355 36.4965 8.31717 36.4965 9.02478C36.4965 9.73239 36.8113 10.1494 37.3725 10.1494C37.9337 10.1494 38.2485 9.73581 38.2485 9.02478ZM43.0084 10.6588H42.3394L41.6636 8.25564H41.6123L40.9399 10.6588H40.2777L39.376 7.3942H40.0296L40.6148 9.88451H40.6627L41.3334 7.3942H41.9527L42.6234 9.88451H42.6748L43.2565 7.3942H43.9015L43.0084 10.6588ZM44.6629 7.3942H45.284V7.91209H45.3319C45.4995 7.53094 45.8914 7.29678 46.3071 7.33096C46.6288 7.30703 46.9453 7.4301 47.1643 7.66597C47.385 7.90184 47.486 8.22488 47.4381 8.5445V10.6571H46.793V8.70516C46.793 8.18044 46.5655 7.92064 46.0881 7.92064C45.8691 7.91038 45.657 7.99584 45.5081 8.1548C45.3575 8.31375 45.2857 8.53082 45.3079 8.74789V10.6571H44.6629V7.3942ZM48.4663 6.11914H49.1114V10.6571H48.4663V6.11914ZM50.0062 9.02478C49.9497 8.43853 50.2303 7.87278 50.7316 7.56341C51.2312 7.25234 51.8643 7.25234 52.3639 7.56341C52.8635 7.87278 53.1458 8.43853 53.0893 9.02478C53.1458 9.61104 52.8669 10.1768 52.3656 10.4879C51.8643 10.7989 51.2312 10.7989 50.7316 10.4879C50.2303 10.1785 49.9497 9.61104 50.0062 9.02478ZM52.4255 9.02478C52.4255 8.31717 52.1073 7.90355 51.5495 7.90355C50.9917 7.90355 50.6735 8.31717 50.6735 9.02478C50.6735 9.73239 50.9883 10.1494 51.5495 10.1494C52.1107 10.1494 52.4255 9.73581 52.4255 9.02478ZM53.7686 9.73581C53.7686 9.14784 54.2066 8.80942 54.9834 8.76156L55.8679 8.71029V8.42827C55.8679 8.08301 55.6404 7.88987 55.1989 7.88987C54.8396 7.88987 54.5898 8.02148 54.518 8.25222H53.8935C53.9585 7.6916 54.4872 7.33267 55.228 7.33267C56.0476 7.33267 56.5095 7.73946 56.5095 8.42998V10.6605H55.8885V10.2007H55.8371C55.6267 10.5357 55.2503 10.7323 54.855 10.7135C54.5779 10.7425 54.3007 10.6519 54.0937 10.4656C53.8884 10.2793 53.7686 10.0144 53.7686 9.73581ZM55.8679 9.45721V9.18374L55.0689 9.23501C54.6189 9.26578 54.4153 9.4179 54.4153 9.70675C54.4153 9.99561 54.6703 10.1717 55.021 10.1717C55.228 10.1922 55.4368 10.1289 55.5959 9.9939C55.7567 9.85716 55.8542 9.66402 55.8679 9.45721ZM57.3582 9.02478C57.3582 7.99242 57.8886 7.33951 58.715 7.33951C59.1307 7.32071 59.5225 7.5429 59.7176 7.91209H59.7655V6.11914H60.4105V10.6588H59.7929V10.1426H59.7415C59.5328 10.5084 59.1358 10.7289 58.715 10.7118C57.8834 10.7118 57.3582 10.0588 57.3582 9.02478ZM58.0237 9.02478C58.0237 9.71701 58.3505 10.1341 58.8963 10.1341C59.4421 10.1341 59.7757 9.71188 59.7757 9.0282C59.7757 8.34452 59.4353 7.91893 58.8963 7.91893C58.3574 7.91893 58.0237 8.33768 58.0237 9.02478ZM63.0779 9.02478C63.0214 8.43853 63.302 7.87278 63.8016 7.56341C64.3012 7.25234 64.9343 7.25234 65.4339 7.56341C65.9335 7.87278 66.2141 8.43853 66.1576 9.02478C66.2141 9.61104 65.9352 10.1768 65.4339 10.4879C64.9343 10.7989 64.3012 10.7989 63.7999 10.4879C63.3003 10.1785 63.0197 9.61104 63.0779 9.02478ZM65.4972 9.02478C65.4972 8.31717 65.1789 7.90355 64.6212 7.90355C64.0634 7.90355 63.7452 8.31717 63.7452 9.02478C63.7452 9.73239 64.06 10.1494 64.6212 10.1494C65.1824 10.1494 65.4972 9.73581 65.4972 9.02478ZM67.025 7.3942H67.6461V7.91209H67.694C67.8617 7.53094 68.2535 7.29678 68.6693 7.33096C68.9909 7.30703 69.3075 7.4301 69.5265 7.66597C69.7472 7.90184 69.8464 8.22488 69.8002 8.5445V10.6571H69.1552V8.70516C69.1552 8.18044 68.9276 7.92064 68.4503 7.92064C68.2313 7.91038 68.0208 7.99584 67.8703 8.1548C67.7214 8.31375 67.6478 8.53082 67.6718 8.74789V10.6571H67.0268V7.3942H67.025ZM73.4445 6.58233V7.40959H74.1529V7.9514H73.4445V9.62984C73.4445 9.97168 73.5848 10.1221 73.9065 10.1221C73.9886 10.1221 74.0708 10.117 74.1529 10.1067V10.6434C74.0365 10.6639 73.9202 10.6759 73.8021 10.6776C73.0852 10.6776 72.7995 10.4246 72.7995 9.79563V7.9514H72.2794V7.40959H72.7978V6.58233H73.4445ZM75.0323 6.11914H75.6722V7.91722H75.7235C75.8981 7.53265 76.2967 7.29849 76.7193 7.33267C77.0393 7.31558 77.3507 7.44206 77.5697 7.67622C77.7869 7.91209 77.8879 8.23171 77.8451 8.54962V10.6571H77.2001V8.70687C77.2001 8.18556 76.9571 7.92064 76.502 7.92064C76.2779 7.90184 76.0572 7.98388 75.8981 8.14454C75.7389 8.3035 75.6602 8.52569 75.6791 8.7496V10.6571H75.034V6.11914H75.0323ZM81.6041 9.77683C81.4227 10.3921 80.8273 10.7904 80.1874 10.7203C79.7528 10.7323 79.3337 10.5511 79.0428 10.2263C78.7519 9.9016 78.6185 9.46575 78.6784 9.03504C78.6202 8.60261 78.7536 8.16505 79.0428 7.8386C79.3319 7.51043 79.7477 7.32584 80.1857 7.32925C81.0942 7.32925 81.6434 7.94969 81.6434 8.97521V9.19912H79.3371V9.23501C79.3165 9.47772 79.4004 9.71701 79.5646 9.89476C79.7306 10.0725 79.9633 10.1734 80.2062 10.1699C80.5228 10.2075 80.829 10.052 80.9847 9.77341L81.6041 9.77683ZM79.3371 8.72567H80.9881C81.0035 8.50347 80.9265 8.28641 80.7726 8.12574C80.6203 7.96337 80.4047 7.8762 80.1823 7.87962C79.9564 7.8762 79.7391 7.96508 79.58 8.12574C79.4209 8.28299 79.3337 8.50006 79.3371 8.72567Z" fill="white"/>
</g>
<defs>
<clipPath id="clip0_1471_89966">
<rect width="98" height="29" fill="white"/>
</clipPath>
</defs>
</svg>
