<svg id="Layer_1" xmlns="http://www.w3.org/2000/svg" xmlns:xlink="http://www.w3.org/1999/xlink" viewBox="1023.9 -144 1790.3 1080"><style>.st0{fill:none}.st1{opacity:.05;fill:url(#SVGID_1_);enable-background:new}</style><pattern x="654" y="936" width="712" height="740" patternUnits="userSpaceOnUse" id="SVGID_2_" viewBox="0 -762.6 712 740" overflow="visible"><path class="st0" d="M0-22.6h712v-740H0z"/><path class="st0" d="M0-762.6h712v740H0z"/><path class="st0" d="M0-762.6h712v740H0z"/><path d="M504.9-48.1l-4.5 6.1s1.4 3.4 7.9 5.2c9.4 2.5 13.9-4.6 15-8.7 2-7.4 3-13.5 3.6-16.2.1-.1 3.2 0 3.3 0 0 0 1.6-7.1 1.7-7.3.1-.2-10.1-2.6-10.1-2.6l-.6 2.4s-2.4-3.2-6.4-4.3c-4.8-1.3-11.4-.2-13.8 8.8-2.6 9.8 2.8 14.3 7.1 15.5 4.8 1.3 7.2-.7 7.2-.7.3 1.7-1.6 5.8-5.4 4.8-3.6-.9-5-3-5-3zm7-8.6c-1.9-.5-3.3-2.8-2.5-5.5.8-2.8 2.8-4.1 5.1-3.5 1.9.5 3 3 2.3 5.5-.7 2.7-2.8 4.1-4.9 3.5zM439.8-140s16.2-1.8 16.4-2.1l-.9-6.6-4 .1-3.4-28.4c-3.4-.4-13.1 1.8-13.1 2 0 .2 1.5 6.5 1.6 6.5.1 0 3.2.1 3.3.1l2.6 20.4-4.1 1.2c.3 3.3 1.6 6.8 1.6 6.8zM612.6-6.2S628.2.2 628.5 0l2.1-5.5-3.6-2.1 6.1-15.2c-2.8-2-12.6-5.4-12.7-5.1-.1.2-1.8 6.5-1.8 6.5.1 0 3.7 1.2 3.7 1.3l-3.8 9.2-4-1.4c-1.1 3-1.9 6.1-1.9 6.1zm17.8-22.7c3.1 1.2 5.2-.7 6.2-3.2 1-2.4-.5-5.4-2.9-6.4s-5.2 0-6.4 3c-1.1 2.9 0 5.4 3.1 6.6zm-4-90.7s12.4 7.5 12.8 7.4l3.1-5.4-2.3-2.2 2.8-4.9c1.6-2.7 4.2-3.5 6-2.5 2.1 1.3 2.5 3.5.7 6.5l-2.8 4.8-2.4-.9c-.5.7-3.1 5.8-3.1 5.8l11.4 6.9c1.2-1.2 3.4-5.8 3.4-5.8l-1.6-1.5 3.5-5.8c5.5-9.2 2.1-14.1-2.4-16.7-3.8-2.2-7.5-.6-7.5-.6l.5-4s-9.3-4.3-9.5-4c-.1.2-3 6.6-3 6.6.1.1 2.7 1.3 2.7 1.4l-6.3 10.6-3-1.6c-1.7 2.9-3 5.9-3 5.9zM148.9-48.1l-4.5 6.1s1.4 3.4 7.9 5.2c9.4 2.5 13.9-4.6 15-8.7 2-7.4 3-13.5 3.6-16.2.1-.1 3.2 0 3.3 0 0 0 1.6-7.1 1.7-7.3.1-.2-10.1-2.6-10.1-2.6l-.6 2.4s-2.4-3.2-6.4-4.3c-4.8-1.3-11.4-.2-13.8 8.8-2.6 9.8 2.8 14.3 7.1 15.5 4.8 1.3 7.2-.7 7.2-.7.3 1.7-1.6 5.8-5.4 4.8-3.6-.9-5-3-5-3zm7-8.6c-1.9-.5-3.3-2.8-2.5-5.5.8-2.8 2.8-4.1 5.1-3.5 1.9.5 3 3 2.3 5.5-.7 2.7-2.8 4.1-4.9 3.5zM83.8-140s16.2-1.8 16.4-2.1l-.9-6.6-4 .1-3.4-28.4c-3.4-.4-13.1 1.8-13.1 2 0 .2 1.5 6.5 1.6 6.5.1 0 3.2.1 3.3.1l2.6 20.4-4.1 1.2c.3 3.3 1.6 6.8 1.6 6.8zM256.6-6.2S272.2.2 272.5 0l2.1-5.5-3.6-2.1 6.1-15.2c-2.8-2-12.6-5.4-12.7-5.1-.1.2-1.8 6.5-1.8 6.5.1 0 3.6 1.2 3.7 1.3l-3.8 9.2-4-1.4c-1.1 3-1.9 6.1-1.9 6.1zm17.8-22.7c3.1 1.2 5.2-.7 6.2-3.2 1-2.4-.5-5.4-2.9-6.4s-5.2 0-6.4 3c-1.1 2.9 0 5.4 3.1 6.6zm-4-90.7s12.4 7.5 12.8 7.4l3.1-5.4-2.3-2.2 2.8-4.9c1.6-2.7 4.2-3.5 6-2.5 2.1 1.3 2.5 3.5.7 6.5l-2.8 4.8-2.4-.9c-.5.7-3.1 5.8-3.1 5.8l11.4 6.9c1.2-1.2 3.4-5.8 3.4-5.8l-1.6-1.5 3.5-5.8c5.5-9.2 2.1-14.1-2.4-16.7-3.8-2.2-7.5-.6-7.5-.6l.5-4s-9.3-4.3-9.5-4c-.1.2-3 6.6-3 6.6.1.1 2.7 1.3 2.7 1.4l-6.3 10.6-3-1.6c-1.7 2.9-3 5.9-3 5.9zm412.5-298.5l-4.5 6.1s1.4 3.4 7.9 5.2c9.4 2.5 13.9-4.6 15-8.7 2-7.4 3-13.5 3.6-16.2.1-.1 3.2 0 3.3 0 0 0 1.6-7.1 1.7-7.3.1-.2-10.1-2.6-10.1-2.6l-.6 2.4s-2.4-3.2-6.4-4.3c-4.8-1.3-11.4-.2-13.8 8.8-2.6 9.8 2.8 14.3 7.2 15.5 4.8 1.3 7.2-.7 7.2-.7.3 1.7-1.6 5.8-5.4 4.8-3.7-.9-5.1-3-5.1-3zm7-8.6c-1.9-.5-3.3-2.8-2.5-5.5.8-2.8 2.8-4.1 5.1-3.5 1.9.5 3 3 2.3 5.5-.7 2.7-2.8 4.1-4.9 3.5zM617.8-510s16.2-1.8 16.4-2.1l-.9-6.6-4 .1-3.4-28.4c-3.4-.4-13.1 1.8-13.1 2 0 .2 1.5 6.5 1.6 6.5.1 0 3.2.1 3.3.1l2.6 20.4-4.1 1.2c.3 3.3 1.6 6.8 1.6 6.8zm50 244.6s15.7-6 15.9-6.3l-2.2-5.5-4 .9-5.9-15.2c-3.4.5-12.9 4.7-12.8 4.9.1.2 3.1 6 3.2 5.9.1 0 3.5-1.6 3.6-1.6l3.6 9.3-3.9 1.7c.9 3.2 2.5 5.9 2.5 5.9zm-2.4-28.7c3.1-1.2 3.3-4.1 2.4-6.6-.9-2.4-4.1-3.6-6.5-2.7-2.4.9-3.8 3.6-2.6 6.5 1.1 3 3.5 4.1 6.7 2.8zM563-350.7c-.1 0 14.1-3.5 14.3-3.8l-1.6-6-3.2.1-1.5-5.5c-.8-3 .5-5.5 2.5-6 2.4-.6 4.2.7 5.1 4.1l1.4 5.3-2.3 1.1c.1.9 1.9 6.3 1.9 6.3l13-3.2c-.1-1.7-1.7-6.5-1.7-6.5l-2.2.1-1.6-6.6c-2.7-10.4-8.4-11.5-13.5-10.2-4.2 1.1-5.7 4.8-5.7 4.8l-2.5-3.2s-9.6 3.6-9.6 3.8 2.5 6.8 2.6 6.8c.1 0 2.8-1 3-.9l3 12-3.2 1c.6 3.4 1.8 6.5 1.8 6.5zm-236.1-67.4l-4.5 6.1s1.4 3.4 7.9 5.2c9.4 2.5 13.9-4.6 15-8.7 2-7.4 3-13.5 3.6-16.2.1-.1 3.2 0 3.3 0 0 0 1.6-7.1 1.7-7.3.1-.2-10.1-2.6-10.1-2.6l-.6 2.4s-2.4-3.2-6.4-4.3c-4.8-1.3-11.4-.2-13.8 8.8-2.6 9.8 2.8 14.3 7.1 15.5 4.8 1.3 7.2-.7 7.2-.7.3 1.7-1.6 5.8-5.4 4.8-3.6-.9-5-3-5-3zm7-8.6c-1.9-.5-3.3-2.8-2.5-5.5.8-2.8 2.8-4.1 5.1-3.5 1.9.5 3 3 2.3 5.5-.7 2.7-2.8 4.1-4.9 3.5zM261.8-510s16.2-1.8 16.4-2.1l-.9-6.6-4 .1-3.4-28.4c-3.4-.4-13.1 1.8-13.1 2 0 .2 1.5 6.5 1.6 6.5.1 0 3.2.1 3.3.1l2.6 20.4-4.1 1.2c.3 3.3 1.6 6.8 1.6 6.8zm216.6 271.9c2.1.3 6.5-.5 6.5-.5l4.8-11.4 7.8 10c2.1.3 6-.5 6-.5 2.5-4.8 5.9-19.1 5.9-19.1l2.9-.5c-.3-3.1-1-6.5-1-6.5s-14.2 1.3-14.5 1.6l.6 6.5 2.8-.1-1.7 6.2-7.6-9.6-4.5.3-4.8 11-3.2-5.7 2.6-.4c0-.8-.9-6.4-.9-6.4l-14.6 1.4c-.2 1.6 1.2 6.5 1.2 6.5l3.1-.2c1.2 3.7 8.6 17.4 8.6 17.4zm-166.6-27.3s15.7-6 15.9-6.3l-2.2-5.5-4 .9-5.9-15.2c-3.4.5-12.9 4.7-12.8 4.9s3.1 6 3.2 5.9c.1 0 3.5-1.6 3.6-1.6l3.6 9.3-3.9 1.7c.9 3.2 2.5 5.9 2.5 5.9zm-2.4-28.7c3.1-1.2 3.3-4.1 2.4-6.6-.9-2.4-4.1-3.6-6.5-2.7-2.4.9-3.8 3.6-2.6 6.5 1.1 3 3.5 4.1 6.7 2.8zm125.2-82.1s15.6 6.4 15.9 6.2l2.1-5.5-3.5-2.1 6.1-15.1c-2.8-2-12.6-5.4-12.7-5.1-.1.2-1.8 6.5-1.8 6.5.1 0 3.6 1.2 3.7 1.3l-3.8 9.2-4-1.4c-1.2 2.9-2 6-2 6zm17.8-22.7c3.1 1.2 5.2-.7 6.2-3.2 1-2.4-.5-5.4-2.9-6.4s-5.2 0-6.4 3c-1.1 2.9 0 5.4 3.1 6.6zM207-350.7c-.1 0 14.1-3.5 14.3-3.8l-1.6-6-3.2.1-1.5-5.5c-.8-3 .5-5.5 2.5-6 2.4-.6 4.2.7 5.1 4.1l1.4 5.3-2.3 1.1c.1.9 1.9 6.3 1.9 6.3l13-3.2c-.1-1.7-1.7-6.5-1.7-6.5l-2.2.1-1.6-6.6c-2.7-10.4-8.4-11.5-13.5-10.2-4.2 1.1-5.7 4.8-5.7 4.8l-2.5-3.2s-9.6 3.6-9.6 3.8c.1.2 2.5 6.8 2.6 6.8.1 0 2.8-1 3-.9l3 12-3.2 1c.6 3.4 1.8 6.5 1.8 6.5zm241.4-138.9s12.4 7.5 12.8 7.4l3.1-5.4-2.3-2.2 2.8-4.9c1.6-2.7 4.2-3.5 6-2.5 2.1 1.3 2.5 3.5.7 6.5l-2.8 4.8-2.4-.9c-.5.7-3.1 5.8-3.1 5.8l11.4 6.9c1.2-1.2 3.4-5.8 3.4-5.8l-1.6-1.5 3.5-5.8c5.5-9.2 2.1-14.1-2.4-16.7-3.8-2.2-7.5-.6-7.5-.6l.5-4s-9.3-4.3-9.5-4c-.1.2-3 6.6-3 6.6.1.1 2.7 1.3 2.7 1.4l-6.3 10.6-3-1.6c-1.7 2.9-3 5.9-3 5.9zm-326 251.5c2.1.3 6.5-.5 6.5-.5l4.8-11.4 7.8 10c2.1.3 6-.5 6-.5 2.5-4.8 5.9-19.1 5.9-19.1l2.9-.5c-.3-3.1-1-6.5-1-6.5s-14.2 1.3-14.5 1.6l.6 6.5 2.8-.1-1.7 6.2-7.6-9.6-4.5.3-4.8 11-3.2-5.7 2.6-.4c0-.8-.9-6.4-.9-6.4l-14.6 1.4c-.2 1.6 1.2 6.5 1.2 6.5l3.1-.2c1.2 3.7 8.6 17.4 8.6 17.4zM78.6-376.2s15.6 6.4 15.9 6.2l2.1-5.5-3.5-2.1 6.1-15.1c-2.8-2-12.6-5.4-12.7-5.1-.1.2-1.8 6.5-1.8 6.5.1 0 3.7 1.2 3.7 1.3l-3.8 9.2-4-1.4c-1.2 2.9-2 6-2 6zm17.8-22.7c3.1 1.2 5.2-.7 6.2-3.2 1-2.4-.5-5.4-2.9-6.4s-5.2 0-6.4 3c-1.1 2.9 0 5.4 3.1 6.6zm-4-90.7s12.4 7.5 12.8 7.4l3.1-5.4-2.3-2.2 2.8-4.9c1.6-2.7 4.2-3.5 6-2.5 2.1 1.3 2.5 3.5.7 6.5l-2.8 4.8-2.4-.9c-.5.7-3.1 5.8-3.1 5.8l11.4 6.9c1.2-1.2 3.4-5.8 3.4-5.8l-1.6-1.5 3.5-5.8c5.5-9.2 2.1-14.1-2.4-16.7-3.8-2.2-7.5-.6-7.5-.6l.5-4s-9.3-4.3-9.5-4c-.1.2-3 6.6-3 6.6.1.1 2.7 1.3 2.7 1.4l-6.3 10.6-3-1.6c-1.7 2.9-3 5.9-3 5.9zm564-118.5c2.1.3 6.5-.5 6.5-.5l4.8-11.4 7.8 10c2.1.3 6-.5 6-.5 2.5-4.8 5.9-19.1 5.9-19.1l2.9-.5c-.3-3.1-1-6.5-1-6.5s-14.2 1.3-14.5 1.6l.6 6.5 2.8-.1-1.7 6.2-7.6-9.6-4.5.3-4.8 11-3.2-5.7 2.6-.4c0-.8-.9-6.4-.9-6.4l-14.6 1.4c-.2 1.6 1.2 6.5 1.2 6.5l3.1-.2c1.2 3.7 8.6 17.4 8.6 17.4zm-166.6-27.3s15.7-6 15.9-6.3l-2.2-5.5-4 .9-5.9-15.2c-3.4.5-12.9 4.7-12.8 4.9.1.2 3.1 6 3.2 5.9.1 0 3.5-1.6 3.6-1.6l3.6 9.3-3.9 1.7c.9 3.2 2.5 5.9 2.5 5.9zm-2.4-28.7c3.1-1.2 3.3-4.1 2.4-6.6-.9-2.4-4.1-3.6-6.5-2.7-2.4.9-3.8 3.6-2.6 6.5 1.1 3 3.5 4.1 6.7 2.8zm125.2-82.1s15.6 6.4 15.9 6.2l2.1-5.5-3.5-2.1 6.1-15.2c-2.8-2-12.6-5.4-12.7-5.1-.1.2-1.8 6.5-1.8 6.5.1 0 3.7 1.2 3.7 1.3l-3.8 9.2-4-1.4c-1.2 3-2 6.1-2 6.1zm17.8-22.7c3.1 1.2 5.2-.7 6.2-3.2 1-2.4-.5-5.4-2.9-6.4s-5.2 0-6.4 3c-1.1 2.9 0 5.4 3.1 6.6zM385-720.7c-.1 0 14.1-3.5 14.3-3.8l-1.6-6-3.2.1-1.5-5.5c-.8-3 .5-5.5 2.5-6 2.4-.6 4.2.7 5.1 4.1l1.4 5.3-2.3 1.1c.1.9 1.9 6.3 1.9 6.3l13-3.2c-.1-1.7-1.7-6.5-1.7-6.5l-2.2.1-1.6-6.6c-2.7-10.4-8.4-11.5-13.5-10.2-4.2 1.1-5.7 4.8-5.7 4.8l-2.5-3.2s-9.6 3.6-9.6 3.8c.1.2 2.5 6.8 2.6 6.8.1 0 2.8-1 3-.9l3 11.9-3.2 1c.6 3.5 1.8 6.6 1.8 6.6zm-84.6 112.6c2.1.3 6.5-.5 6.5-.5l4.8-11.4 7.8 10c2.1.3 6-.5 6-.5 2.5-4.8 5.9-19.1 5.9-19.1l2.9-.5c-.3-3.1-1-6.5-1-6.5s-14.2 1.3-14.5 1.6l.6 6.5 2.8-.1-1.7 6.2-7.6-9.6-4.5.3-4.8 11-3.2-5.7 2.6-.4c0-.8-.9-6.4-.9-6.4l-14.6 1.4c-.2 1.6 1.2 6.5 1.2 6.5l3.1-.2c1.2 3.7 8.6 17.4 8.6 17.4zm-166.6-27.3s15.7-6 15.9-6.3l-2.2-5.5-4 .9-5.9-15.2c-3.4.5-12.9 4.7-12.8 4.9.1.2 3.1 6 3.2 5.9.1 0 3.5-1.6 3.6-1.6l3.6 9.3-3.9 1.7c.9 3.2 2.5 5.9 2.5 5.9zm-2.4-28.7c3.1-1.2 3.3-4.1 2.4-6.6-.9-2.4-4.1-3.6-6.5-2.7-2.4.9-3.8 3.6-2.6 6.5 1.1 3 3.5 4.1 6.7 2.8zm125.2-82.1s15.6 6.4 15.9 6.2l2.1-5.5-3.5-2.1 6.1-15.2c-2.8-2-12.6-5.4-12.7-5.1-.1.2-1.8 6.5-1.8 6.5.1 0 3.6 1.2 3.7 1.3l-3.8 9.2-4-1.4c-1.2 3-2 6.1-2 6.1zm17.8-22.7c3.1 1.2 5.2-.7 6.2-3.2 1-2.4-.5-5.4-2.9-6.4s-5.2 0-6.4 3c-1.1 2.9 0 5.4 3.1 6.6zM29-720.7c-.1 0 14.1-3.5 14.3-3.8l-1.6-6-3.2.1-1.5-5.5c-.8-3 .5-5.5 2.5-6 2.4-.6 4.2.7 5.1 4.1l1.4 5.3-2.3 1.1c.1.9 1.9 6.3 1.9 6.3l13-3.2c-.1-1.7-1.7-6.5-1.7-6.5l-2.2.1-1.6-6.6c-2.7-10.4-8.4-11.5-13.5-10.2-4.2 1.1-5.7 4.8-5.7 4.8l-2.5-3.2s-9.6 3.6-9.6 3.8c.1.2 2.5 6.8 2.6 6.8.1 0 2.8-1 3-.9l3 11.9-3.2 1c.6 3.5 1.8 6.6 1.8 6.6z"/></pattern><pattern id="SVGID_1_" xlink:href="#SVGID_2_" patternTransform="matrix(1 0 0 .9853 -888.92 17071.486)"/><path class="st1" d="M1023.9-144h1790.3V936H1023.9z"/></svg>