<svg width="587" height="733" viewBox="0 0 587 733" fill="none" xmlns="http://www.w3.org/2000/svg">
<path opacity="0.48" d="M240.217 579.99C234.447 579.914 232.516 577.117 231.488 572.675C226.102 549.405 219.703 526.293 215.391 502.857C195.269 393.497 214.939 288.301 255.781 185.471C256.358 184.015 257.727 182.828 258.765 181.463C268.564 188.974 263.696 206.934 282.286 207.417L269.671 211.576C278.787 222.141 272.135 240.737 293.559 242.816C289.178 247.263 277.206 243.854 281.685 255.753C284.66 263.658 292.688 262.758 298.564 266.904C296.255 267.851 295.035 268.754 293.774 268.803C283.765 269.179 283.07 274.877 283.506 282.375C284.687 302.626 284.545 322.848 277.903 342.519C277.621 343.339 278.04 344.36 278.266 346.634C283.078 343.893 287.262 341.977 290.867 339.378C316.598 320.811 332.636 296.411 339.904 267.295C348.117 234.397 336.954 207.682 307.356 187.851C299.389 182.512 290.567 178.261 282.892 173.937C288.161 170.571 293.774 166.982 300.415 162.741C300.02 165.377 300.133 166.727 299.607 167.816C296.142 175.007 299.568 177.903 306.826 180.782C320.821 186.334 334.33 192.981 347.799 199.593C362.352 206.74 362.225 206.945 371.387 194.433C371.618 194.115 372.335 194.095 373.223 193.807C373.728 195.56 374.84 197.334 374.608 198.943C372.838 211.29 381.925 216.77 391.625 221.492C393.616 222.458 397.607 221.615 399.702 220.295C402.553 218.496 404.466 215.434 406.783 212.916C408.203 218.864 407.703 223.941 407.79 229.011C407.832 231.694 407.897 235.32 409.658 236.875C420.761 246.669 432.342 255.998 444.674 266.234C444.674 262.444 445.002 259.674 444.625 256.989C440.132 225.264 427.183 196.769 405.517 171.781C386.273 149.586 360.955 138.608 330.197 138.234C324.192 138.161 318.187 138.223 312.184 138.223L311.727 136.893C329.74 132.41 347.756 127.927 365.707 123.457C365.088 115.412 364.485 107.536 363.878 99.6604L366.263 99.2625C369.919 103.356 373.35 107.648 377.319 111.46C379.286 113.347 382.502 115.823 384.721 115.504C397.487 113.664 410.125 111.067 423.126 108.665C422.329 104.684 421.729 101.669 421.039 98.2299C422.947 98.4891 423.806 98.465 424.538 98.735C425.82 99.2102 427.375 99.5882 428.199 100.487C436.985 110.044 448.65 108.652 460.327 108.23C472.351 107.796 484.405 108.134 498.372 108.134C471.537 82.0395 442.151 62.7871 404.775 57.3966C345.457 48.8404 297.281 65.6887 264.452 115.205C254.791 49.0348 235.716 21.6032 189.053 6.64055C158.603 -3.12189 128.603 -2.17738 99.141 9.85206C114.221 19.6328 128.097 28.8677 142.321 37.6234C144.523 38.9791 148.384 38.6061 151.349 38.2098C155.791 37.6159 160.12 36.2909 166.154 34.892C164.791 38.3569 164.594 40.2716 163.481 41.4471C158.317 46.8899 160.665 50.7427 165.641 55.015C172.523 60.9213 178.549 67.675 185.446 73.5597C187.77 75.5409 191.542 76.453 194.822 77.0104C199.161 77.7473 203.664 77.6575 208.769 77.9649C205.999 85.3989 202.074 85.4628 196.417 83.7724C170.771 76.1058 144.412 72.8178 117.663 76.5319C74.5366 82.5197 38.0664 101.206 6.44815 128.434C4.52307 130.092 2.99436 132.136 0 135.398C4.13301 134.798 6.21033 134.471 8.29846 134.201C23.3928 132.254 38.4394 129.643 53.6085 128.641C62.2826 128.067 69.8685 127.154 76.0464 120.941C78.3309 118.638 81.7189 117.264 85.8429 114.697C85.5141 120.867 85.27 125.499 85.0087 130.377C98.0627 130.985 110.194 131.745 122.333 131.901C124.139 131.925 126.483 129.395 127.714 127.555C129.876 124.31 131.377 120.684 133.723 116.113C139.718 125.075 136.894 137.119 152.571 139.008C147.392 140.671 144.572 141.608 141.73 142.485C112.728 151.426 90.684 168.033 76.7229 193.25C59.4125 224.513 55.1966 258.041 57.2631 292.569C57.2992 293.172 58.0568 293.74 58.4126 294.229C67.6488 284.485 77.0517 275.12 85.66 265.172C88.4688 261.922 89.8165 257.263 90.7443 253.048C91.7821 248.308 91.5911 243.341 91.9316 238.47L93.7162 238.439L99.441 248.011C112.337 238.426 124.802 229.158 137.271 219.892C138.351 219.088 139.989 218.488 140.416 217.459C141.33 215.251 141.991 212.839 142.094 210.486C142.333 205.162 142.17 199.822 142.17 192.862C147 196.617 150.39 198.85 153.249 201.562C158.254 206.315 163.145 204.459 168.343 202.06C173.572 199.644 179.119 197.949 178.526 190.748C178.193 186.716 179.437 182.574 179.968 178.508C182.061 178.755 182.655 178.71 183.128 178.906C183.877 179.221 184.701 179.574 185.224 180.128C191.775 187.033 198.632 185.817 206.7 182.007C215.427 177.888 224.913 175.142 234.068 171.797C234.397 172.295 234.729 172.793 235.057 173.292C234.433 174.339 233.91 175.451 233.171 176.423C202.643 216.553 183.903 261.63 168.629 308.084C151.426 360.41 140.172 413.886 133.975 468.245C129.438 508.021 127.345 547.89 131.159 587.833C131.684 593.334 130.14 595.829 124.318 597.956C122.951 598.453 121.582 598.947 120.214 599.441C165.847 597.793 209.855 591.179 251.425 580.263C247.696 580.136 243.96 580.039 240.217 579.99ZM300.629 125.428C307.886 137.628 307.329 140.084 297.3 141.047C298.323 136.23 299.275 131.779 300.629 125.428ZM192.709 138.95C196.805 133.954 199.445 130.734 203.603 125.658L206.037 141.035C201.666 140.352 198.367 139.837 192.709 138.95Z" fill="#EBEBEB"/>
<ellipse opacity="0.48" cx="298.919" cy="649.205" rx="287.522" ry="83.5657" fill="#D9D9D9"/>
<g opacity="0.21" clip-path="url(#clip0_2524_3685)">
<path d="M254.405 590.053C256.818 589.188 259.314 588.626 261.786 587.976C273.406 584.913 285.119 582.235 296.822 579.523C297.883 579.279 298.933 578.937 300.098 578.824C300.019 579.347 299.555 579.44 299.343 579.733C299.057 580.124 299.155 580.393 299.654 580.442C300.246 580.5 300.833 580.412 301.42 580.349C302.594 580.222 303.759 579.973 304.948 580.007C305.703 580.031 305.806 580.227 305.367 580.847C304.642 581.878 303.749 582.763 302.807 583.598C299.225 586.799 295.282 589.535 291.325 592.242C285.74 596.059 280.007 599.645 274.363 603.369C273.608 603.867 272.853 604.366 272.118 604.888C271.772 605.133 271.358 605.323 271.215 605.778H270.978C270.277 604.473 269.157 603.535 268.037 602.626C264.924 600.09 261.283 598.688 257.4 597.818C256.714 597.661 255.994 597.637 255.338 597.354C255.55 596.454 255.397 595.594 255.106 594.73C254.721 593.586 254.499 592.404 254.203 591.236C254.089 590.796 254.05 590.395 254.405 590.048V590.053Z" fill="#707070"/>
<path d="M430.421 349.562C429.735 346.723 429.045 343.884 428.369 341.04C427.915 339.144 427.515 337.234 427.017 335.348C426.805 334.536 427.017 334.028 427.673 333.549C428.857 332.68 430.101 331.966 431.566 331.678C431.753 331.639 431.931 331.541 432.109 331.473C432.661 331.473 433.214 331.473 433.766 331.473C434.255 331.864 434.437 332.416 434.566 332.992C435.459 336.985 436.367 340.972 437.245 344.964C437.353 345.458 437.477 345.956 437.299 346.459C437.038 346.855 436.613 346.963 436.194 347.011C434.314 347.226 432.686 347.984 431.245 349.171C431.003 349.367 430.767 349.577 430.426 349.557L430.421 349.562Z" fill="#727272"/>
<path d="M437.067 346.494C436.47 344.637 436.144 342.721 435.71 340.825C435.103 338.172 434.526 335.514 433.929 332.86C433.825 332.401 433.751 331.947 433.766 331.478C434.082 331.478 434.398 331.478 434.713 331.478C435.113 331.644 435.508 331.805 435.907 331.971C436.81 332.899 436.8 334.136 437.087 335.289C437.93 338.665 438.591 342.086 439.425 345.467C439.573 346.068 439.583 346.645 438.873 346.938C438.276 347.09 437.708 347.055 437.195 346.674C437.156 346.616 437.116 346.552 437.072 346.494H437.067Z" fill="#929292"/>
<path d="M340.541 481.993C342.958 478.768 345.322 475.499 347.868 472.372C350.492 469.152 353.186 466 356.161 463.093C357.652 461.636 359.191 460.244 360.898 459.047C361.515 458.617 361.761 458.094 361.801 457.385C362.013 453.569 362.344 449.762 362.363 445.936C362.368 444.651 362.497 443.366 362.506 442.081C362.546 434.434 362.255 426.801 361.579 419.183C361.613 418.792 361.845 418.568 362.191 418.396C365.043 416.979 367.598 415.093 370.213 413.305C371.353 412.474 372.522 411.692 373.637 410.837C374.298 410.329 374.95 410.197 375.808 410.476C378.216 411.257 380.703 411.546 383.234 411.194C383.594 411.116 383.964 411.096 384.329 411.082C384.995 411.082 385.632 410.867 386.288 410.818C388.853 410.295 391.024 409.01 392.954 407.314C394.991 405.526 396.22 403.141 397.606 400.884C399.037 398.548 400.571 396.281 402.422 394.258C405.589 390.788 409.497 388.619 414.214 387.969C417.919 388.145 421.56 388.853 425.236 389.229C425.868 389.293 426.494 389.269 427.126 389.195C427.604 389.137 428.088 389.093 428.339 389.64C428.556 390.612 429.139 391.458 429.306 392.45C428.877 392.914 428.433 392.635 428.014 392.454C421.659 389.743 415.462 390.236 409.324 393.227C406.023 394.839 404.139 397.673 402.372 400.654C401.973 401.323 401.647 402.037 401.331 402.755C400.024 405.706 400.014 408.653 401.386 411.59C401.736 412.342 401.913 413.002 401.173 413.701C400.571 414.267 401.06 414.781 401.568 415.132C402.58 415.831 403.714 416.261 404.903 416.584C405.441 416.73 406.127 416.725 406.305 417.468C405.851 418.587 406.088 419.652 406.477 420.747C407.913 424.793 410.864 427.451 414.618 429.249C418.156 430.945 421.896 431.531 425.71 430.139C429.149 428.883 431.546 426.664 432.04 422.858C432.094 422.457 432.198 422.091 432.622 421.91C432.854 421.832 433.091 421.817 433.303 421.939C434.635 422.701 436.091 422.863 437.595 422.853C438.049 422.853 438.557 422.853 438.76 423.42C438.173 423.737 437.531 423.649 436.905 423.654C435.651 423.654 435.612 423.654 435.686 424.842C435.893 428.16 435.913 431.477 435.844 434.8C435.735 439.877 435.424 444.94 434.813 449.982C434.758 450.412 434.709 450.833 434.882 451.248C435.558 452.88 435.592 454.61 435.558 456.325C435.494 459.296 435.148 462.247 434.596 465.169C433.431 471.351 432.212 477.522 431.068 483.703C430.54 486.542 430.096 489.401 429.948 492.294C429.691 492.773 429.292 492.773 428.833 492.651C428.374 492.528 427.945 492.328 427.506 492.162C425.734 491.492 425.66 491.507 425.014 493.212C424.333 495.001 423.652 496.784 422.957 498.568C422.473 499.809 422.601 500.093 423.716 500.757C425.571 501.861 427.372 503.039 429.025 504.446C429.548 504.891 429.898 505.438 430.298 505.961C430.713 506.709 430.491 507.486 430.362 508.238C430.032 510.134 430.121 512.02 430.436 513.906C430.505 514.327 430.555 514.752 430.52 515.182C430.402 515.563 430.106 515.841 429.948 516.193C428.256 518.93 425.744 520.757 422.991 522.306C422.226 522.736 421.457 523.303 420.47 522.99C418.018 522.375 415.941 521.026 413.893 519.638C413.439 519.33 413.025 518.959 412.837 518.407C412.694 517.713 413.089 517.122 413.227 516.486C413.533 515.074 413.108 514.322 411.663 514.019C411.105 513.902 410.617 513.687 410.168 513.364C409.67 513.007 409.147 512.792 408.51 512.934C408.204 513.002 407.844 513.046 407.587 512.856C406.744 512.23 405.727 512.084 404.785 511.727C403.7 511.322 402.718 510.681 401.519 510.53C401.055 510.471 400.779 509.992 400.601 509.533C400.122 508.307 399.185 507.662 397.887 507.642C396.669 507.622 395.874 506.797 394.942 506.259C393.94 505.683 392.973 505.292 391.774 505.15C390.447 504.994 389.174 504.3 388.326 503.147C387.946 502.629 387.516 502.199 386.944 501.9C383.624 500.171 380.194 498.695 376.677 497.415C376.03 497.18 375.433 497.117 374.752 497.469C373.391 498.172 371.97 497.249 371.98 495.724C371.994 493.975 372.083 492.221 372.172 490.476C372.32 487.574 372.197 487.324 369.508 486.142C368.161 485.551 366.582 485.526 365.496 484.29C365.097 483.835 364.628 484.344 364.386 484.764C363.952 485.511 363.72 486.347 363.434 487.158C362.58 489.567 362.349 492.108 361.845 494.59C361.752 495.06 362.132 495.397 362.072 495.832C361.86 501.187 363.533 505.751 368.087 508.888C370.638 510.647 373.598 511.014 376.657 510.393C379.035 510.154 381.27 509.401 383.441 508.468C385.607 507.539 387.803 506.665 389.855 505.487C390.822 504.93 391.888 505.077 392.88 505.365C393.718 505.609 394.103 506.303 394 507.197C393.615 510.413 392.416 513.222 389.865 515.358C389.633 515.548 389.204 515.666 389.283 516.022C389.376 516.433 389.85 516.384 390.171 516.462C393.082 517.171 395.939 518.045 398.682 519.257C401.529 520.518 404.109 522.111 405.949 524.681C406.221 525.062 406.685 525.282 406.852 525.746C406.946 526.166 406.911 526.596 406.966 527.022C407.311 529.675 406.606 530.706 403.917 531.507C402.589 531.913 401.228 532.05 399.846 532.099C399.002 532.128 398.297 532.328 398.529 533.496C398.702 534.351 397.996 534.874 397.394 535.28C396.353 535.983 395.208 536.511 393.921 536.648C392.514 536.633 391.286 537.322 389.949 537.591C388.227 537.933 386.48 538.109 384.734 538.29C384.033 538.392 383.323 538.382 382.622 538.495C380.066 538.343 377.496 538.348 374.95 538.055C374.298 537.904 373.662 537.694 372.991 537.645C372.34 537.449 371.693 537.249 371.037 537.073C363.839 535.348 357.755 531.527 351.987 527.114C351.603 526.767 351.41 526.206 350.813 526.093C350.443 525.761 350.093 525.404 349.668 525.131C349.21 524.271 348.4 523.728 347.759 523.039C345.47 520.586 342.929 518.338 341.148 515.451C341.039 515.28 340.866 515.187 340.718 515.064C340.042 514.346 339.495 513.525 338.868 512.763C337.576 510.892 336.214 509.064 335.04 507.114C334.665 506.264 334.161 505.472 333.811 504.608C333.298 503.518 332.681 502.477 332.277 501.334C331.078 497.952 331.058 494.713 333.436 491.756C334.008 490.838 334.467 489.836 335.212 489.025C336.747 486.503 338.138 483.874 340.551 482.003L340.541 481.993Z" fill="#787878"/>
<path d="M330.091 410.658C330.357 409.636 330.836 408.698 331.26 407.741C331.586 406.998 331.911 406.255 332.237 405.512C332.311 405.429 332.39 405.356 332.484 405.297C333.52 405.141 333.732 404.32 333.944 403.504C334.112 402.864 333.663 402.536 333.248 402.229C332.4 401.589 331.66 401.887 331.467 402.923C331.373 403.411 331.541 403.929 331.304 404.408C331.225 404.486 331.142 404.555 331.043 404.613C330.11 405.029 329.188 405.468 328.245 405.854C327.328 406.236 326.361 406.392 325.359 406.348C324.047 406.294 323.139 405.644 322.586 404.486C322.231 403.734 322.068 402.937 322.034 402.106C321.866 398.105 322.68 394.264 324.116 390.555C325.946 385.835 328.744 381.711 332.296 378.08C332.567 377.801 332.903 377.582 333.1 377.127C332.868 376.873 332.503 376.858 332.192 376.756C330.051 376.023 329.257 374.523 329.869 372.353C330.115 371.478 330.549 370.692 331.058 369.949C331.832 368.81 332.77 367.809 333.816 366.91C336.603 364.51 339.726 362.649 343.136 361.251C343.58 361.666 343.609 361.681 343.338 362.16C343.082 362.614 342.785 363.054 343.2 363.543C343.54 363.944 344.024 363.968 344.502 363.865C345.109 363.733 345.647 363.426 345.8 362.81C346.007 361.96 345.381 361.754 344.71 361.647C344.271 361.579 343.619 361.877 343.629 361.031C347.389 359.316 351.341 358.178 355.367 357.283C357.434 356.824 359.521 356.472 361.603 356.072C361.796 355.901 361.988 355.739 362.269 355.759C363.572 356.589 364.791 356.13 365.999 355.514C366.295 355.485 366.601 355.568 366.883 355.427C367.79 355.407 368.698 355.392 369.611 355.373C371.511 355.299 373.405 354.992 375.241 355.915C376.331 356.462 377.461 356.238 378.403 355.392C380.87 355.417 383.308 355.759 385.74 356.14C387.072 356.863 388.414 357.547 390.008 357.01C391.73 357.225 393.378 357.757 395.035 358.246C397.715 359.038 400.334 359.99 402.851 361.197C403.689 361.598 404.518 361.779 405.456 361.759C406.941 361.73 408.441 361.583 409.916 361.935C409.581 362.702 408.865 362.502 408.273 362.526C405.841 362.634 403.398 362.419 400.966 362.761C396.298 363.421 391.809 364.686 387.496 366.568C386.524 366.993 385.474 367.198 384.531 367.682C383.905 368.004 383.268 368.312 382.794 368.854C381.689 369.465 380.762 370.433 379.4 370.53C378.862 370.213 378.314 369.92 377.678 369.856C376.198 369.705 375.463 370.643 375.986 372.016C376.094 372.304 376.316 372.544 376.331 372.871C376.129 373.648 375.453 374.049 374.9 374.503C370.79 377.86 368.461 382.268 367.193 387.291C366.774 388.947 366.453 390.633 366.429 392.353C366.424 392.852 366.399 393.404 365.698 393.502C365.146 393.374 365.116 392.92 365.087 392.495C365.027 391.62 364.756 390.951 363.71 390.965C362.832 390.98 362.161 391.586 362.028 392.475C361.88 393.433 362.338 394.249 363.192 394.537C363.735 394.718 364.282 394.674 364.825 394.547C365.22 394.454 365.6 394.386 365.94 394.694C366.251 395.163 366.389 395.686 366.424 396.228C366.596 399.048 367.248 401.74 368.57 404.257C368.733 404.564 368.886 404.882 368.856 405.248C367.642 407.755 365.679 409.548 363.266 410.887C362.521 411.298 361.722 411.723 360.824 411.244C360.207 410.394 359.6 409.544 358.766 408.874C356.926 407.403 355.253 407.57 353.823 409.451C353.122 410.379 352.535 411.391 351.898 412.363C351.765 412.441 351.953 412.392 351.805 412.431C349.999 412.925 349.18 414.088 349.353 415.935C347.098 419.053 344.532 421.887 341.434 424.218C340.24 425.117 338.952 425.869 337.511 426.328C334.832 427.184 332.538 426.49 330.791 424.291C328.443 421.339 327.939 418.046 328.956 414.479C330.071 413.883 330.396 412.984 330.056 411.796C329.952 411.43 329.977 411.039 330.091 410.663V410.658Z" fill="#6E6E6E"/>
<path d="M296.595 528.625C299.525 529.783 302.318 531.229 305.13 532.627C306.29 533.203 307.42 533.829 308.633 534.469C308.737 534.044 308.461 533.843 308.293 533.619C307.731 532.861 307.163 532.109 306.837 531.219C306.458 530.188 306.887 529.602 307.992 529.67C308.821 529.719 309.62 529.944 310.405 530.208C313.478 531.229 316.37 532.656 319.246 534.112C324.017 536.526 328.665 539.17 333.278 541.867C333.515 542.004 333.757 542.136 333.989 542.282C334.378 542.532 334.645 542.404 334.857 542.038C335.276 541.329 335.706 540.631 336.125 539.927C337.832 537.073 339.381 534.132 340.985 531.219C341.651 530.838 342.105 531.293 342.574 531.63C345.662 533.873 348.904 535.871 352.259 537.699C356.379 539.942 360.696 541.75 365.122 543.299C371.94 545.688 378.951 547.306 386.11 548.327C387.729 548.556 389.352 548.703 390.96 548.962C391.414 549.035 391.952 549.07 391.873 549.759C388.015 554.464 383.88 558.916 379.553 563.196C378.759 563.983 378.744 563.978 377.955 563.265C375.379 560.934 372.256 559.839 368.876 559.375C364.337 558.754 359.832 559.165 355.352 559.956C347.601 561.334 340.166 563.797 332.814 566.519C327.052 568.649 321.412 571.073 315.689 573.301C314.811 573.643 313.913 573.951 313.02 574.259C312.65 574.386 312.265 574.484 311.88 574.567C311.613 574.626 311.278 574.699 311.095 574.469C310.854 574.171 311.095 573.863 311.278 573.629C312.072 572.607 312.862 571.586 313.71 570.609C318.975 564.525 324.042 558.29 328.606 551.674C328.867 551.293 329.198 550.941 329.346 550.399C329.01 550.003 328.478 549.959 328.019 549.812C319.577 547.115 311.239 544.124 303.014 540.836C300.458 539.815 297.907 538.764 295.366 537.709C294.789 537.469 294.246 537.147 293.689 536.863C293.126 535.852 293.353 535.309 294.458 535.187C295.514 535.07 296.555 535.099 297.586 535.519C299.402 536.262 301.198 537.064 303.058 537.699C303.354 537.801 303.645 537.929 303.956 537.977C304.331 538.036 304.681 537.977 304.874 537.616C305.091 537.22 304.968 536.858 304.676 536.546C304.4 536.257 304.05 536.072 303.685 535.925C302.076 535.29 300.586 534.4 298.968 533.785C297.498 533.228 296.304 532.299 295.317 531.107C294.828 530.521 294.69 529.866 295.085 529.152C295.435 528.527 295.963 528.439 296.595 528.635V528.625Z" fill="#747474"/>
<path d="M406.098 417.511C404.761 417.067 403.33 416.886 402.096 416.133C401.662 415.87 401.218 415.611 400.789 415.337C400.522 415.166 400.315 414.926 400.167 414.643C399.797 413.935 399.891 413.475 400.651 413.148C401.218 412.903 401.248 412.615 401.006 412.161C400.932 412.024 400.873 411.877 400.809 411.736C399.24 408.374 399.486 405.075 401.11 401.802C402.175 399.652 403.433 397.619 404.983 395.796C406.754 393.71 409.132 392.424 411.673 391.525C416.355 389.864 421.126 389.542 425.942 391.027C427.116 391.389 428.211 391.916 429.307 392.449C433.165 394.838 435.405 398.322 436.273 402.696C436.974 406.219 436.525 409.669 435.425 413.055C435.297 413.456 435.025 413.832 435.218 414.286C435.469 414.731 435.232 415.117 435.065 415.508C434.739 416.265 434.27 416.945 433.841 417.643C433.16 418.753 432.242 419.124 430.94 418.87C427.758 418.249 424.679 418.518 421.768 420.091C420.643 420.702 419.478 420.468 418.344 420.028C416.804 418.591 414.969 418.176 412.897 418.318C411.328 418.425 409.744 418.386 408.17 418.318C407.41 418.283 406.562 418.357 406.093 417.521L406.098 417.511Z" fill="#A6A6A6"/>
<path d="M430.003 515.31C429.938 514.812 429.899 514.308 429.815 513.815C429.45 511.733 429.475 509.661 429.864 507.59C429.973 507.008 430.037 506.441 429.78 505.884C430.131 502.444 431.877 499.63 433.866 496.923C434.325 496.292 434.759 495.628 435.667 495.603C436.264 495.095 436.851 494.572 437.458 494.079C441.267 490.995 445.628 489.466 450.552 489.481C456.068 489.495 461.155 490.907 465.694 494.04C469.197 496.458 471.482 499.737 472.434 503.891C472.533 504.311 472.607 504.731 472.592 505.166C472.469 506.124 472.02 506.324 471.26 505.694C470.416 504.99 469.656 504.198 468.748 503.563C462.433 499.146 454.499 499.972 449.284 505.088C444.163 510.116 443.536 518.213 447.681 523.988C448.302 524.853 449.136 525.523 449.832 526.319C450.246 526.788 451.09 527.209 450.646 527.946C450.236 528.635 449.412 528.665 448.643 528.425C447.143 528.073 446.191 528.611 445.816 530.116C445.781 530.258 445.658 530.385 445.574 530.517C444.602 530.898 443.748 530.873 443.191 529.838C443.161 529.764 443.122 529.691 443.122 529.618C443.201 528.049 443.196 528.054 441.622 527.433C437.941 525.982 434.665 523.949 432.247 520.768C431.024 519.156 430.116 517.387 429.998 515.315L430.003 515.31Z" fill="#A9A9A9"/>
<path d="M443.467 529.588C444 530.277 444.883 530.179 445.574 530.516C443.951 533.697 441.691 536.38 438.992 538.706C433.156 543.734 426.233 546.49 418.773 548.098C413.484 549.236 408.131 549.823 402.714 549.784C399.526 549.764 396.329 549.911 393.152 549.564C392.717 549.515 392.283 549.529 391.889 549.749C391.129 549.373 390.285 549.388 389.471 549.3C380.506 548.342 371.778 546.383 363.316 543.265C356.448 540.739 349.985 537.465 343.971 533.326C342.969 532.637 341.987 531.919 340.995 531.21C340.083 530.35 339.155 529.51 338.267 528.625C333.072 523.48 329.332 517.455 327.146 510.497C326.08 507.11 325.686 503.631 325.878 500.089C325.898 499.737 325.927 499.385 326.09 499.062C326.766 499.263 326.648 499.849 326.672 500.328C326.835 504.144 328.143 507.653 329.648 511.103C331.266 512.442 331.443 514.572 332.475 516.214C335.391 520.861 339.012 524.897 343.566 528.054C344.114 528.435 344.632 528.855 345.194 529.217C346.314 529.93 346.418 529.91 347.291 528.855C347.439 528.674 347.597 528.498 347.824 528.405C349.763 527.873 350.602 528.186 351.248 529.608C351.559 530.292 351.47 530.917 351.08 531.494C350.577 532.246 350.829 532.657 351.564 533.052C354.376 534.548 357.238 535.935 360.188 537.147C360.928 537.45 361.511 537.333 362.142 536.83C363.899 535.422 365.759 536.082 366.163 538.261C366.311 539.063 366.716 539.493 367.451 539.757C368.388 540.089 369.336 540.294 370.337 540.279C371.003 540.27 371.206 539.972 370.959 539.39C370.717 538.814 370.436 538.252 370.283 537.641C370.125 537.01 370.263 536.546 371.068 536.605C371.719 536.707 372.375 536.786 372.987 537.054C373.036 537.426 372.789 537.719 372.73 538.066C372.607 538.809 372.992 539.405 373.653 539.415C374.428 539.424 374.798 538.985 374.773 538.232C374.763 537.929 374.62 537.616 374.857 537.338C377.437 537.802 380.042 537.817 382.652 537.807C382.825 538.227 382.494 538.457 382.307 538.74C381.769 539.439 382.08 540.016 382.638 540.465C383.442 541.12 384.132 541.828 384.498 542.83C384.744 543.509 385.445 543.588 386.047 543.759C387.793 544.262 387.867 544.379 387.502 546.075C387.354 546.778 387.527 547.34 388.297 547.531C388.948 547.692 389.491 547.155 389.56 546.334C389.718 544.487 389.767 544.496 391.716 544.648C392.969 544.746 394.222 544.907 395.48 544.941C396.398 544.966 396.97 545.308 397.173 546.221C397.311 546.857 397.543 547.467 398.312 547.536C399.156 547.609 399.383 546.954 399.699 546.339C399.951 545.845 400.153 545.239 400.804 545.049C401.273 544.951 401.746 544.936 402.215 544.956C406.083 545.132 409.907 544.638 413.731 544.159C414.234 544.096 414.757 544.208 415.236 543.998C417.278 543.436 419.385 543.167 421.428 542.6C427.161 541.012 432.603 538.858 437.285 535.095C437.779 534.699 438.297 534.308 438.894 534.039C439.298 533.859 439.53 533.526 439.589 533.087C440.527 532.1 441.351 531.02 442.318 530.057C442.708 529.915 442.905 529.295 443.472 529.583L443.467 529.588Z" fill="#ADADAD"/>
<path d="M430.422 349.562C430.531 348.98 430.94 348.619 431.389 348.296C433.082 347.075 434.917 346.293 437.068 346.493L437.058 346.508C437.858 347.119 437.917 348.057 438.114 348.917C439.738 356.115 441.316 363.317 442.93 370.515C445.239 380.796 447.528 391.082 449.852 401.363C450.706 405.135 450.77 408.932 450.622 412.733C450.937 412.215 450.873 411.399 451.722 411.228C452.447 411.321 452.63 411.761 452.482 412.406C452.107 413.994 451.243 415.318 450.197 416.535C448.584 418.411 446.625 419.868 444.415 420.996C444.139 420.737 443.768 420.566 443.655 420.146C442.826 417.087 441.79 414.082 441.292 410.94C441.529 410.632 441.775 410.324 442.002 410.012C443.359 408.13 443.833 406.068 443.29 403.801C439.52 387.969 435.756 372.132 431.991 356.295C431.458 354.057 430.945 351.81 430.422 349.567V349.562Z" fill="#272727"/>
<path d="M447.689 585.85C447.038 586.68 446.273 587.008 445.148 586.832C440.101 586.035 435.127 584.907 430.184 583.646C426.646 582.742 423.138 581.74 419.62 580.778C419.28 580.685 418.954 580.553 418.619 580.44C417.864 580.035 418.071 579.424 418.278 578.818C419.132 576.292 419.595 573.717 419.467 571.039C419.433 570.301 419.29 569.573 419.265 568.84C419.216 567.369 419.526 567.11 421.071 567.315C423.163 567.306 425.225 567.662 427.292 567.897C433.662 568.62 440.017 569.446 446.357 570.399C447.635 570.589 448.937 570.672 450.186 571.049C449.297 573.472 449.554 576.052 449.115 578.544C448.715 580.812 448.34 583.079 447.694 585.293C447.635 585.488 447.615 585.669 447.699 585.859L447.689 585.85Z" fill="#6F6F6F"/>
<path d="M296.595 528.625C295.258 528.932 295.219 530.291 296.112 531.151C297.217 532.221 298.475 532.91 299.862 533.496C301.598 534.234 303.291 535.08 304.993 535.891C305.407 536.091 305.94 536.252 305.837 536.868C305.718 537.552 305.684 538.3 305.077 538.779C304.717 539.062 304.322 538.808 303.962 538.666C301.801 537.816 299.635 536.985 297.488 536.096C296.659 535.754 295.826 535.642 294.952 535.686C293.98 535.734 293.901 535.808 293.704 536.844C292.204 536.35 290.798 535.637 289.372 534.987C279.332 530.403 269.577 525.317 260.42 519.155C258.821 518.08 257.248 516.971 255.767 515.734C255.195 515.255 254.618 514.772 254.208 514.141C253.764 513.457 253.981 513.037 254.815 512.983C255.205 512.959 255.6 513.017 255.989 513.076C258.18 513.408 260.287 514.073 262.379 514.757C270.357 517.371 278.118 520.543 285.835 523.812C288.987 525.146 292.11 526.548 295.243 527.926C295.707 528.131 296.201 528.292 296.6 528.625H296.595Z" fill="#787878"/>
<path d="M421.066 567.309C419.887 567.466 419.695 567.637 419.843 568.77C419.981 569.816 420.02 570.857 420.055 571.903C420.144 574.434 419.601 576.843 418.752 579.203C418.609 579.609 418.397 579.995 418.614 580.429C415.402 579.638 412.259 578.617 409.097 577.649C400.324 574.962 391.611 572.103 382.942 569.112C382.552 568.976 382.108 568.927 381.753 568.551C382.301 568.272 382.878 568.345 383.391 568.184C383.914 568.018 384.477 567.886 384.378 567.109C384.319 566.669 384.728 566.664 385.024 566.596C386.445 566.249 387.896 566.083 389.346 565.975C393.397 565.663 397.453 565.648 401.513 565.809C405.964 565.985 410.409 566.239 414.84 566.645C416.912 566.835 419.004 566.889 421.057 567.314L421.066 567.309Z" fill="#727272"/>
<path d="M448.642 528.425C448.8 528.415 448.958 528.41 449.115 528.4C449.569 528.366 450.043 528.229 450.211 527.824C450.398 527.384 449.875 527.179 449.629 526.91C448.696 525.903 447.601 525.053 446.871 523.866C443.575 518.515 443.506 513.101 446.57 507.648C448.05 505.009 450.231 503.006 452.954 501.74C456.467 500.113 460.143 499.536 463.991 500.675C466.779 501.501 469.206 502.84 471.224 504.916C471.417 505.112 471.619 505.302 471.846 505.449C472.201 505.674 472.433 505.498 472.591 505.166C472.66 505.424 472.773 505.683 472.788 505.947C472.917 508.478 472.941 511.01 472.181 513.458C471.767 514.787 471.2 516.067 470.701 517.372C469.636 517.821 468.634 517.347 468.062 516.131C468.516 515.261 468.757 514.425 467.854 513.643C467.662 513.477 467.711 513.13 467.825 512.862C467.997 512.539 468.343 512.446 468.619 512.261C469.103 511.938 469.305 511.552 468.767 511.093C468.501 510.927 468.19 510.907 467.899 510.824C467.741 510.785 467.593 510.726 467.44 510.672C466.581 510.052 465.994 509.163 465.126 508.532C461.297 505.737 456.265 506.529 453.359 509.734C450.285 513.125 450.428 518.295 453.615 521.54C454.138 522.073 454.775 522.468 455.396 522.884C456.072 523.333 456.704 523.348 457.335 522.835C457.725 522.732 458.021 522.903 458.258 523.182C459.136 524.213 460.143 525.112 461.169 526.001C461.426 526.226 461.539 526.485 461.5 526.817C459.99 527.609 458.352 527.975 456.699 528.298C454.296 528.767 451.869 528.708 449.441 528.615C449.175 528.606 448.913 528.488 448.652 528.425H448.642Z" fill="#ADADAD"/>
<path d="M348.114 528.879C347.636 529.216 347.453 529.734 347.236 530.238C346.945 530.912 346.831 530.961 346.205 530.58C344.863 529.764 343.614 528.811 342.346 527.887C340.309 526.407 338.389 524.765 336.771 522.859C334.98 520.748 333.14 518.657 331.729 516.253C331.388 515.671 331.087 515.095 331.072 514.401C331.058 513.692 330.767 513.116 330.155 512.725C329.706 512.437 329.42 512.026 329.203 511.562C327.752 508.508 326.721 505.322 326.178 501.994C326.025 501.041 326.114 500.049 326.094 499.072C326.435 495.3 327.865 491.958 330.273 489.05C333.011 485.742 336.515 483.48 340.546 481.994C340.092 482.962 339.356 483.739 338.769 484.618C337.718 486.177 336.648 487.721 335.582 489.27C334.847 489.28 334.013 488.728 333.416 489.534C332.77 490.404 333.628 491.019 333.9 491.733C333.954 491.879 333.86 491.703 333.929 491.845C333.747 492.187 333.589 492.549 333.372 492.871C331.768 495.222 331.739 497.738 332.563 500.343C333.021 501.794 333.712 503.147 334.368 504.511C334.24 504.809 333.993 504.995 333.747 505.195C333.238 505.61 333.007 506.138 333.372 506.739C333.742 507.35 334.314 507.369 334.921 507.086C335.133 506.988 335.335 506.861 335.577 506.842C336.692 508.811 338.128 510.575 339.356 512.476C339.292 512.911 338.903 513.072 338.631 513.336C338.172 513.78 337.95 514.308 338.33 514.88C338.715 515.456 339.302 515.422 339.889 515.197C340.274 515.051 340.565 514.65 341.049 514.787C342.095 515.686 342.82 516.864 343.723 517.89C345.79 520.235 347.902 522.542 350.201 524.667C348.701 525.156 348.558 526.319 348.667 527.633C348.706 528.127 348.351 528.488 348.114 528.884V528.879Z" fill="#A4A4A4"/>
<path d="M468.269 516.003C468.97 516.658 469.809 517.068 470.707 517.376C472.325 518.09 474.057 518.187 475.784 518.295C476.489 518.339 477.205 518.28 477.905 518.334C479.188 518.436 480.481 518.661 481.097 519.956C481.744 521.31 481.092 522.487 480.249 523.504C478.265 525.908 475.631 527.09 472.527 527.203C469.72 527.3 466.952 526.949 464.268 526.074C463.972 525.976 463.656 525.942 463.355 525.874C462.748 525.952 462.196 525.8 461.658 525.527C459.423 524.369 457.666 522.736 456.704 520.401C456.334 519.507 455.826 518.651 455.663 517.674C455.737 516.873 455.402 516.106 455.456 515.304C456.324 513.599 458.002 513.203 459.66 512.89C462.566 512.343 465.205 512.973 467.485 514.908C467.845 515.211 468.279 515.446 468.269 515.998V516.003Z" fill="#707070"/>
<path d="M447.689 585.85C447.018 585.381 447.269 584.741 447.398 584.144C447.822 582.205 448.217 580.26 448.532 578.295C448.858 576.292 448.838 574.264 449.139 572.261C449.238 571.611 449.455 571.142 450.171 571.044C450.304 571.059 450.437 571.078 450.565 571.093C450.945 571.347 451.414 571.064 451.799 571.298C451.942 571.313 452.085 571.322 452.228 571.337C452.539 571.537 452.929 571.337 453.239 571.528C456.664 571.943 460.063 572.554 463.457 573.155C468.959 574.127 474.445 575.153 479.863 576.507C479.942 576.717 479.897 576.815 479.655 576.732C471.589 575.945 464.069 577.978 456.728 581.017C453.545 582.332 450.526 583.925 447.689 585.855V585.85Z" fill="#6B6B6B"/>
<path d="M428.34 389.634C425.409 390.147 422.542 389.512 419.671 389.107C417.756 388.838 415.852 388.618 413.918 388.638C414.461 387.704 414.169 386.571 414.648 385.618C415.043 385.422 415.378 385.657 415.748 385.735C418.082 386.248 420.302 387.201 422.71 387.46C423.894 387.587 425.029 387.357 426.183 387.299C426.716 387.269 427.076 386.849 427.363 386.414C428.823 385.598 429.351 384.23 429.361 382.701C429.381 380.257 428.67 377.985 427.397 375.889C427.368 375.864 427.323 375.845 427.308 375.811C424.999 370.509 420.45 368.134 415.181 366.688C414.609 366.531 413.873 366.57 413.646 365.798C413.972 364.767 414.248 363.741 413.35 362.818C413.252 362.715 413.316 362.525 413.429 362.402C416.518 362.735 419.38 363.8 422.167 365.085C426.218 366.956 429.154 369.952 431.063 373.925C432.731 377.389 433.357 381.01 432.676 384.841C432.227 387.367 430.915 389.038 428.34 389.634Z" fill="#323232"/>
<path d="M441.293 410.936C441.653 411.077 441.845 411.366 441.939 411.722C442.768 414.81 443.592 417.904 444.416 420.992C443.918 421.124 443.558 421.49 443.128 421.735C441.762 422.516 440.35 423.176 438.767 423.401C438.219 423.411 437.676 423.401 437.134 423.425C435.476 423.503 433.981 423.02 432.599 422.145C432.407 422.189 432.19 422.243 432.022 422.14C429.664 420.66 427.172 421.192 424.695 421.676C423.615 421.886 422.574 422.267 421.483 422.448C420.536 422.604 419.677 422.424 418.913 421.866C418.049 421.231 417.956 420.42 418.632 419.619C419.855 420.078 420.965 419.971 422.11 419.252C423.467 418.397 425.055 418.167 426.629 418.036C428.203 417.904 429.792 417.913 431.321 418.329C432.101 418.539 432.609 418.314 433.063 417.737C433.621 417.024 434.08 416.252 434.469 415.441C434.672 415.016 434.864 414.591 435.234 414.273C437.533 413.648 439.541 412.509 441.303 410.931L441.293 410.936Z" fill="#1E1E1E"/>
<path d="M435.661 495.604C433.614 497.93 431.971 500.5 430.895 503.408C430.707 503.916 430.559 504.439 430.397 504.957C430.278 505.323 430.199 505.719 429.775 505.885C427.866 504.072 425.709 502.587 423.44 501.258C423.168 501.101 422.887 500.96 422.621 500.798C421.664 500.227 421.659 500.197 422.073 499.127C423.025 496.655 423.978 494.187 424.93 491.715C425.295 490.762 425.344 490.727 426.292 491.06C427.066 491.333 427.826 491.656 428.596 491.954C429.035 492.125 429.459 492.345 429.953 492.281C430.249 492.731 430.737 492.897 431.186 493.122C432.711 493.894 434.285 494.583 435.666 495.604H435.661Z" fill="#C7C7C7"/>
<path d="M413.429 362.399C414.524 363.034 414.85 363.806 414.559 364.993C414.465 365.38 414.233 365.595 413.873 365.712C413.104 366.66 412.141 365.917 411.273 366.005C410.474 365.697 409.64 365.766 408.806 365.8C406.344 365.77 403.887 365.296 401.42 365.79C400.769 365.922 400.093 365.932 399.447 366.112C397.705 366.088 396.101 366.787 394.414 367.051C393.388 367.378 392.366 367.72 391.38 368.145C390.388 368.258 389.584 368.834 388.705 369.225C388.321 369.401 387.965 369.65 387.526 369.694C387.087 369.865 386.683 370.246 386.16 369.919C385.296 368.619 385.296 368.629 383.609 369.113C383.046 369.274 382.43 369.416 382.4 368.492C384.635 366.987 387.117 365.981 389.613 365.023C393.6 363.493 397.725 362.428 401.983 362.032C404.055 361.837 406.157 361.979 408.244 361.964C408.796 361.964 409.344 361.935 409.897 361.92C410.681 361.944 411.47 361.954 412.23 362.198C412.6 362.448 413.064 362.164 413.434 362.404H413.424L413.429 362.399Z" fill="#272727"/>
<path d="M254.405 590.052C254.982 592.055 255.574 594.054 256.136 596.062C256.373 596.907 256.279 597.025 255.327 597.352C254.444 597.425 253.595 597.166 252.732 597.059C252.258 596.873 251.735 597.118 251.267 596.888C250.166 596.878 249.061 596.873 247.961 596.863C243.491 596.819 239.075 597.303 234.694 598.129C234.462 598.173 234.23 598.217 233.998 598.241C233.924 598.251 233.85 598.207 233.722 598.173C233.806 597.601 234.294 597.377 234.689 597.103C235.922 596.248 237.299 595.647 238.68 595.085C242.914 593.36 247.275 592.021 251.666 590.76C252.569 590.501 253.487 590.281 254.4 590.047L254.405 590.052Z" fill="#6C6C6C"/>
<path d="M452.475 412.407C452.376 411.982 452.134 411.659 451.764 411.43C451.325 411.224 451.266 410.863 451.35 410.447C452.075 406.978 451.36 403.616 450.6 400.254C446.766 383.342 443.036 366.406 439.252 349.484C439.05 348.585 438.453 347.647 439.119 346.684C439.558 346.411 439.898 346.489 440.125 346.963C440.915 350.427 441.714 353.887 442.489 357.352C445.849 372.363 449.194 387.374 452.559 402.385C453.195 405.229 453.501 408.082 452.934 410.975C452.835 411.469 452.766 411.977 452.47 412.412L452.475 412.407Z" fill="#313131"/>
<path d="M370.368 413.808C367.99 415.679 365.449 417.302 362.799 418.758C362.429 418.963 361.985 419.046 361.576 419.183C360.781 418.748 360.259 418.084 359.938 417.258C359.568 416.305 359.696 415.953 360.579 415.43C360.747 415.333 360.925 415.245 361.097 415.152C361.956 413.837 363.327 413.256 364.689 412.66C366.071 411.467 367.659 410.539 369.021 409.322C369.421 408.966 369.86 408.951 370.299 409.283C370.955 410.783 370.827 412.293 370.368 413.808Z" fill="#292929"/>
<path d="M369.877 409.309C368.328 410.696 366.705 411.981 364.884 413.003C363.72 412.885 362.782 413.296 362.022 414.171C361.771 414.459 361.484 414.845 361.139 414.239C361.026 413.237 360.917 412.236 360.804 411.234C361.687 410.823 362.654 410.618 363.497 410.095C365.047 409.138 366.344 407.926 367.45 406.494C367.755 406.093 368.096 405.717 368.422 405.331C369.448 405.512 370.893 407.237 370.834 408.219C370.8 408.82 370.563 409.265 369.872 409.304L369.877 409.309Z" fill="#757575"/>
<path d="M456.014 517.859C456.196 518.245 456.413 518.617 456.562 519.017C457.603 521.866 459.561 523.87 462.275 525.199C462.66 525.384 463.064 525.546 463.355 525.878C462.832 526.376 462.186 526.645 461.495 526.821C459.828 525.883 458.614 524.471 457.43 523.024C456.838 523.073 456.621 522.629 456.404 522.223C455.772 521.05 455.328 519.824 455.442 518.46C455.555 518.192 455.733 517.977 456.014 517.864V517.859Z" fill="#959595"/>
<path d="M440.132 346.957C439.855 346.811 439.564 346.713 439.244 346.737C438.972 346.869 438.755 346.889 438.74 346.498C439.239 346.239 439.032 345.829 438.953 345.467C438.346 342.721 437.729 339.975 437.112 337.228C436.718 335.474 436.313 333.725 435.913 331.971C436.412 332.161 436.925 332.254 437.073 332.948C438.074 337.624 439.11 342.291 440.137 346.962L440.132 346.957Z" fill="#727272"/>
<path d="M343.624 361.025C343.969 361.206 344.319 361.055 344.665 361.04C345.109 361.021 345.528 361.104 345.918 361.304C346.594 361.651 346.841 362.442 346.5 363.102C345.938 364.197 344.448 364.807 343.268 364.426C342.213 364.084 341.902 363.107 342.553 362.198C342.77 361.895 343.224 361.729 343.135 361.245C343.269 361.113 343.426 361.03 343.624 361.025Z" fill="#8D8D8D"/>
<path d="M334.611 363.688C334.631 364.861 333.062 366.131 331.907 365.872C331.251 365.726 330.817 365.1 330.866 364.377C330.965 362.989 332.667 361.983 333.95 362.55C334.394 362.745 334.596 363.097 334.606 363.688H334.611Z" fill="#F4F4F4"/>
<path d="M328.462 373.301C328.487 374.102 328.097 374.703 327.5 375.202C327.11 375.529 326.656 375.598 326.173 375.475C325.857 375.392 325.6 375.207 325.437 374.933C325.363 374.811 325.284 374.571 325.344 374.508C325.98 373.829 324.939 372.837 325.842 372.177C326.459 371.728 327.135 371.454 327.672 371.732C328.309 372.06 328.501 372.627 328.462 373.301Z" fill="#F4F4F4"/>
<path d="M378.397 355.387C378.111 356.389 377.776 356.687 376.819 356.78C375.797 356.877 374.86 356.667 374.135 355.91C373.745 355.504 373.296 355.392 372.768 355.392C371.712 355.392 370.661 355.372 369.605 355.363C369.758 355.323 369.906 355.25 370.059 355.245C372.842 355.162 375.625 355.025 378.402 355.387H378.397Z" fill="#8F8F8F"/>
<path d="M362.309 356.1C362.072 356.09 361.836 356.075 361.594 356.065C361.692 354.878 362.053 354.453 363.178 354.272C364.145 354.116 365.067 354.238 365.847 354.888C366.153 355.147 366.459 355.372 366.873 355.416C366.612 355.484 366.355 355.557 366.093 355.626C364.885 356.202 363.612 356.261 362.309 356.095V356.1Z" fill="#F3F3F3"/>
<path d="M349.342 415.929C349.085 415.455 348.839 414.977 348.829 414.415C348.809 413.266 349.455 412.504 350.605 412.387C351.029 412.343 351.458 412.367 351.883 412.357C351.153 413.633 350.314 414.83 349.342 415.929Z" fill="#8D8D8D"/>
<path d="M330.09 410.658C330.14 411.088 330.278 411.484 330.47 411.875C330.589 412.119 330.702 412.368 330.766 412.632C331.107 414.079 330.441 414.753 328.955 414.479C329.133 413.15 329.543 411.885 330.09 410.663V410.658Z" fill="#8C8C8C"/>
<path d="M361.139 414.239C361.711 414.317 361.672 413.78 361.869 413.501C362.565 412.524 363.853 412.304 364.879 413.003C363.65 413.775 362.392 414.503 361.095 415.153C361.109 414.85 361.124 414.542 361.139 414.239Z" fill="#8F8F8F"/>
<path d="M389.998 357.005C389.031 357.913 387.802 357.943 386.628 357.049C386.293 356.794 386.026 356.443 385.73 356.135C387.171 356.335 388.612 356.526 389.998 357.005Z" fill="#8F8F8F"/>
<path d="M331.045 404.603C331.06 404.539 331.079 404.48 331.099 404.422C331.405 403.772 331.849 403.259 332.515 402.936C332.915 402.746 333.315 402.541 333.704 402.907C334.05 403.23 333.916 403.616 333.783 403.992C333.537 404.676 333.127 405.223 332.436 405.526C332.367 405.526 332.298 405.526 332.234 405.511C331.839 405.209 331.44 404.906 331.045 404.603Z" fill="#EDEDED"/>
<path d="M479.662 576.732C479.732 576.658 479.801 576.585 479.87 576.507C480.176 576.531 480.472 576.565 480.758 576.859C480.333 577.015 479.993 576.912 479.662 576.732Z" fill="#B1B1B1"/>
<path d="M251.277 596.892C251.775 596.878 252.273 596.824 252.742 597.064C252.244 597.093 251.75 597.083 251.277 596.892Z" fill="#707070"/>
<path d="M413.443 362.408C413.024 362.443 412.614 362.438 412.239 362.203C412.659 362.169 413.068 362.179 413.443 362.408Z" fill="#323232"/>
<path d="M451.805 571.298C451.38 571.317 450.956 571.327 450.571 571.093C451 571.063 451.415 571.093 451.805 571.298Z" fill="#6F6F6F"/>
<path d="M453.244 571.527C452.889 571.551 452.544 571.527 452.233 571.336C452.588 571.307 452.933 571.336 453.244 571.527Z" fill="#6F6F6F"/>
<path d="M438.736 346.498C438.904 346.576 439.072 346.659 439.24 346.737C442.274 360.297 445.308 373.852 448.343 387.412C449.507 392.631 450.686 397.845 451.811 403.073C452.349 405.57 452.453 408.096 451.9 410.623C451.841 410.886 451.811 411.16 451.772 411.429C451.283 412.518 451.046 413.745 450.089 414.688C449.709 414.243 449.862 413.769 449.907 413.344C450.38 408.956 450.005 404.637 449.023 400.337C446.645 389.948 444.346 379.545 442.017 369.147C440.448 362.139 438.884 355.127 437.315 348.12C437.197 347.588 437.054 347.06 437.064 346.508C437.626 346.508 438.184 346.503 438.746 346.498H438.736Z" fill="#646464"/>
<path d="M361.363 495.827C361.378 492.069 362.207 488.477 363.568 484.993C363.766 484.49 364.072 484.021 364.373 483.567C364.812 482.897 365.537 482.794 365.873 483.474C366.489 484.72 367.59 484.988 368.754 485.233C370.007 485.502 370.964 486.425 372.193 486.752C372.474 486.826 372.632 487.09 372.667 487.378C372.75 488.111 372.963 488.873 372.859 489.582C372.691 490.75 372.78 491.917 372.617 493.08C372.484 494.033 372.726 495.006 372.593 495.983C372.528 496.467 372.923 496.833 373.412 497.014C373.856 497.175 374.265 497.209 374.566 496.765C374.931 496.227 375.41 496.286 375.928 496.486C377.763 497.2 379.618 497.854 381.424 498.636C383.408 499.496 385.337 500.478 387.296 501.397C387.917 501.69 388.342 502.145 388.771 502.687C389.713 503.884 390.942 504.691 392.57 504.573C393.167 504.529 393.645 504.764 394.119 505.047C394.958 505.555 395.792 506.078 396.616 506.611C397.06 506.899 397.494 507.041 398.051 506.987C399.152 506.88 400.79 508.018 401.115 509.108C401.313 509.772 401.693 510.119 402.369 510.114C403.158 510.114 403.834 510.339 404.401 510.896C404.663 511.155 404.998 511.297 405.363 511.282C406.163 511.248 406.824 511.556 407.411 512.045C407.776 512.348 408.151 512.475 408.6 512.225C409.128 511.932 409.577 512.089 409.991 512.475C410.613 513.046 411.324 513.354 412.197 513.471C413.499 513.647 414.279 515.02 413.914 516.266C413.707 516.975 413.554 517.708 413.179 518.363C413.159 518.959 412.967 519.491 412.656 520C411.481 521.935 410.766 524.129 409.296 525.898C408.186 526.552 407.455 526.538 406.592 525.849C406.059 525.81 405.758 525.463 405.487 525.062C403.809 522.609 401.377 521.128 398.737 519.926C395.427 518.421 391.948 517.415 388.391 516.677C388.129 516.623 387.833 516.618 387.69 516.237C387.927 515.851 388.371 515.661 388.751 515.411C391.751 513.432 392.984 510.486 393.389 507.095C393.473 506.376 393.098 505.917 392.348 505.761C391.479 505.58 390.675 505.717 389.846 506.137C386.269 507.96 382.658 509.714 378.711 510.632C378.059 510.784 377.403 510.921 376.747 511.062C375.824 510.07 374.541 509.714 373.328 509.298C372.163 508.898 371.576 508.258 371.32 507.007C370.984 505.375 370.969 503.757 370.959 502.12C370.94 499.721 370.056 498.509 367.782 497.85C366.997 497.62 366.376 497.288 365.937 496.535C365.359 495.543 363.568 495.113 362.448 495.587C362.103 495.734 361.802 496.086 361.368 495.817L361.363 495.827Z" fill="#717171"/>
<path d="M406.585 525.85C407.454 525.797 408.381 526.036 409.121 525.342C410.503 524.907 411.924 524.658 413.355 524.472C413.779 524.419 414.208 524.326 414.613 524.56C415.422 525.484 416.206 526.412 417.361 526.974C418.283 527.424 417.825 528.215 417.642 528.904C417.627 529.193 417.4 529.369 417.262 529.593C416.907 530.185 416.848 530.776 417.46 531.22C418.061 531.655 418.624 531.45 419.098 530.942C419.201 530.83 419.265 530.688 419.344 530.551C419.512 530.282 419.798 530.126 419.986 529.872C420.356 529.378 420.82 529.393 421.338 529.681C423.237 530.737 425.137 531.787 427.1 532.716C427.535 532.921 428.003 532.984 428.477 532.994C429.079 533.004 429.602 533.317 430.145 533.429C431.817 533.776 433.445 534.543 435.231 534.172C436.43 533.918 437.57 533.493 438.705 533.053C439.248 532.843 439.771 532.691 440.141 533.331C439.514 534.206 438.601 534.768 437.787 535.433C433.046 539.303 427.515 541.56 421.658 543.134C419.65 543.676 417.637 544.218 415.545 544.355C414.968 544.297 414.608 544.023 414.514 543.422C414.396 542.616 413.912 542.098 413.152 541.804C412.289 541.472 411.623 540.915 411.031 540.197C410.044 539.005 408.49 538.526 407.35 537.495C406.783 536.982 406.309 536.478 406.052 535.745C405.608 534.47 404.824 533.4 403.807 532.506C403.255 532.022 403.171 531.553 403.714 531.025C404.103 530.859 404.508 530.707 404.888 530.517C406.358 529.779 406.738 529.007 406.422 527.429C406.368 527.165 406.314 526.901 406.245 526.642C406.151 526.285 406.314 526.051 406.58 525.855L406.585 525.85Z" fill="#BEBEBE"/>
<path d="M418.618 419.624C418.727 421.461 419.63 422.174 421.475 421.847C422.092 421.739 422.694 421.564 423.301 421.402C425.467 420.831 427.638 420.43 429.912 420.689C431.052 420.821 431.915 421.27 432.586 422.15C432.685 425.722 430.741 428.102 427.84 429.802C424.618 431.688 421.13 431.859 417.572 430.945C414.173 430.076 411.287 428.312 408.874 425.79C407.157 423.992 406.072 421.847 405.47 419.462C405.376 419.091 405.396 418.69 405.391 418.299C405.391 417.84 405.642 417.581 406.096 417.508C408.662 417.879 411.252 417.874 413.823 417.708C415.806 417.581 417.316 418.26 418.618 419.619V419.624Z" fill="#6F6F6F"/>
<path d="M369.878 409.308C370.45 408.496 370.47 407.768 369.705 407.016C369.207 406.527 368.847 405.902 368.428 405.335C367.164 403.038 366.301 400.605 365.966 398.005C365.827 396.93 365.729 395.855 365.61 394.78C365.112 394.311 365.092 393.852 365.655 393.417C366.02 392.166 365.852 390.861 366.069 389.586C366.893 384.797 368.625 380.424 371.817 376.676C373.07 375.205 374.585 374.013 376.011 372.728C376.312 371.433 377.97 370.192 379.386 370.202C380.442 369.723 381.3 368.902 382.405 368.501C382.854 368.824 383.283 368.657 383.718 368.462C384.211 368.242 384.709 368.017 385.223 367.846C385.864 367.631 386.091 367.773 386.17 368.423C386.219 368.838 386.194 369.268 386.204 369.689C386.18 369.737 386.16 369.786 386.135 369.835C385.671 370.192 385.06 370.128 384.537 370.465C383.93 370.861 383.584 371.316 383.343 371.936C383.264 372.029 383.17 372.098 383.061 372.146C376.869 376.583 372.029 381.968 371.082 389.84C370.658 393.363 370.687 396.93 371.817 400.39C373.105 404.338 375.759 406.869 379.746 408.062C380.58 408.306 381.453 408.316 382.292 408.501C382.652 408.531 383.012 408.536 383.372 408.492C383.53 408.462 383.688 408.423 383.851 408.408C384.196 408.452 384.537 408.452 384.872 408.335C385.38 408.272 385.879 407.969 386.397 408.281C387.749 409.347 387.763 410.275 386.456 411.365C385.755 411.482 385.079 411.721 384.354 411.678C384.058 411.878 383.693 411.687 383.392 411.849C380.698 412.024 378.034 411.897 375.463 410.993C374.901 410.798 374.486 410.94 374.047 411.262C372.843 412.147 371.664 413.06 370.367 413.808C370.08 412.938 370.11 412.044 370.115 411.145C370.115 410.524 370.154 409.894 369.873 409.308H369.878Z" fill="#1F1F1F"/>
<path d="M417.205 528.884C417.466 527.643 417.486 527.604 416.401 527.095C415.414 526.636 414.758 525.972 414.605 524.877C414.526 524.076 415.216 524.061 415.69 523.929C417.294 523.475 418.833 522.8 420.506 522.58C421.334 522.595 422.01 522.18 422.696 521.808C425.385 520.347 427.689 518.446 429.53 516.008C430.201 515.891 430.161 516.448 430.28 516.814C432.036 522.194 435.618 525.932 440.764 528.253C441.193 528.449 441.618 528.635 442.027 528.879C442.678 529.265 443.009 529.758 442.757 530.521C441.785 531.366 441.04 532.417 440.152 533.335C439.624 533.326 439.146 533.487 438.672 533.702C437.335 534.303 435.914 534.63 434.503 534.982C433.896 535.134 433.348 535.202 432.87 534.689C432.534 534.332 432.11 534.342 431.661 534.44C430.97 534.586 430.329 534.503 429.796 533.985C429.396 533.599 428.878 533.555 428.36 533.58C427.63 533.609 426.964 533.497 426.367 533.018C426.105 532.803 425.745 532.671 425.405 532.588C424.67 532.412 423.949 532.27 423.574 531.488C423.456 531.244 423.125 531.171 422.854 531.122C421.996 530.97 421.157 530.794 420.732 529.881C420.145 530.286 420.323 530.985 419.81 531.234C419.617 531.102 419.386 530.995 419.326 530.746C419.124 529.832 418.576 529.324 417.614 529.27C417.412 529.26 417.274 529.089 417.205 528.894V528.884Z" fill="#C5C5C5"/>
<path d="M403.718 531.024C403.704 531.489 403.896 531.836 404.246 532.143C405.421 533.165 406.323 534.372 406.753 535.886C406.861 536.277 407.118 536.561 407.439 536.815C408.243 537.445 409.037 538.076 409.945 538.564C410.606 538.921 411.233 539.351 411.647 539.991C412.057 540.621 412.634 541.002 413.32 541.222C414.361 541.55 415.037 542.151 415.086 543.294C415.106 543.7 415.333 544.027 415.545 544.359C414.282 544.868 412.915 544.809 411.603 545.034C407.971 545.654 404.301 545.537 400.64 545.532C399.678 546.28 398.562 546.182 397.477 546.011C396.653 545.884 396.347 545.185 396.318 544.452C396.234 542.385 395.109 541.247 393.15 540.797C392.42 540.631 391.882 540.186 391.487 539.576C390.752 538.432 391.122 537.25 392.356 536.693C392.893 536.448 393.52 536.497 394.018 536.145C394.719 535.886 395.425 535.647 396.11 535.359C396.505 535.193 396.89 534.978 397.23 534.719C398.128 534.03 398.197 533.453 397.551 532.52C397.418 532.329 397.211 532.192 397.151 531.796C399.332 531.459 401.577 531.586 403.723 531.034L403.718 531.024Z" fill="#B9B9B9"/>
<path d="M348.115 528.879C348.115 527.604 348.101 526.333 348.125 525.058C348.145 524.042 348.308 523.944 349.201 524.359C349.522 524.506 349.842 524.633 350.198 524.662C350.484 525.024 350.795 525.361 351.189 525.615C351.401 526.133 351.841 526.372 352.339 526.538C352.566 526.861 352.837 527.144 353.168 527.359C356.079 529.285 358.881 531.371 362.004 532.979C364.6 534.313 367.284 535.407 370.076 536.248C370.412 536.35 370.737 536.492 371.068 536.614C370.723 536.854 370.668 537.162 370.826 537.538C371.083 538.149 371.285 538.784 371.645 539.351C371.857 539.688 372.02 540.04 371.986 540.45C371.951 540.9 371.759 541.251 371.246 541.124C369.76 540.758 368.196 540.797 366.761 540.167C365.715 539.707 365.655 539.707 365.606 538.574C365.567 537.645 365.147 537.01 364.392 536.746C363.662 536.492 362.947 536.746 362.315 537.479C361.61 538.3 361.585 538.334 360.652 537.968C356.843 536.458 353.183 534.645 349.615 532.646C349.522 532.593 349.457 532.485 349.388 532.417C349.413 532.085 349.709 532.085 349.892 531.962C350.701 531.4 351.017 530.609 350.725 529.866C350.35 528.903 349.665 528.542 348.559 528.728C348.407 528.752 348.259 528.825 348.11 528.874L348.115 528.879Z" fill="#A8A8A8"/>
<path d="M361.362 495.827C362.102 494.723 363.104 494.459 364.337 494.918C364.668 495.04 365.023 495.089 365.364 495.187C365.916 495.348 366.375 495.637 366.543 496.223C366.711 496.829 367.155 497.088 367.722 497.23C368.141 497.332 368.546 497.508 368.97 497.581C369.863 497.738 370.228 498.334 370.732 499.047C371.615 500.303 371.57 501.598 371.521 502.942C371.462 504.476 371.718 505.962 372.019 507.452C372.143 508.073 372.528 508.366 373.08 508.576C374.106 508.967 375.108 509.426 376.139 509.797C376.825 510.042 376.939 510.462 376.741 511.073C375.256 511.263 373.786 511.317 372.281 511.087C369.059 510.604 366.528 509.05 364.604 506.494C362.221 503.333 361.273 499.736 361.362 495.832V495.827Z" fill="#6F6F6F"/>
<path d="M386.456 411.365C386.92 410.383 387.142 409.425 386.165 408.595C386.086 407.715 386.89 407.754 387.369 407.461C388.597 407.055 389.54 406.176 390.615 405.511C391.888 404.915 392.712 403.801 393.645 402.838C395.021 401.412 396.185 399.794 397.404 398.23C398.539 396.12 399.832 394.097 400.976 391.986C401.633 390.657 402.373 389.371 403.053 388.052C403.69 386.811 404.701 385.902 405.836 385.11C408.56 383.781 411.283 384.407 414.007 385.125C414.382 385.223 414.604 385.482 414.604 385.892C414.722 386.093 414.88 386.283 414.954 386.498C415.354 387.651 415.092 388.184 413.923 388.634C408.762 389.386 404.805 392.074 401.647 396.08C399.797 398.426 398.233 400.952 396.713 403.508C395.105 406.22 393.048 408.477 390.206 409.968C389.017 410.593 387.783 411.096 386.461 411.36L386.456 411.365Z" fill="#282828"/>
<path d="M394.014 536.146C393.852 536.522 393.496 536.566 393.156 536.678C392.179 536.996 391.671 537.611 391.686 538.413C391.7 539.263 392.411 540.172 393.383 540.231C394.547 540.299 395.213 541.007 395.953 541.701C396.6 542.307 396.906 543.016 396.856 543.89C396.842 544.125 396.846 544.36 396.866 544.589C396.935 545.303 397.088 545.483 397.809 545.513C398.751 545.552 399.693 545.527 400.641 545.532C400.428 545.953 400.266 546.383 400.152 546.842C399.93 547.726 399.205 548.303 398.401 548.308C397.577 548.308 396.896 547.721 396.674 546.817C396.373 545.581 396.368 545.611 395.08 545.523C393.748 545.435 392.416 545.293 391.089 545.161C390.215 545.073 390.107 545.151 390.176 546.006C390.21 546.441 390.225 546.861 390.038 547.267C389.633 548.161 388.794 548.533 387.906 548.205C386.989 547.873 386.54 546.944 386.821 546.031C386.939 545.645 387.438 545.303 387.117 544.858C386.826 544.457 386.288 544.452 385.834 544.33C385.607 544.267 385.375 544.198 385.143 544.169C384.383 544.086 383.91 543.724 383.816 542.933C383.737 542.273 383.293 541.819 382.844 541.369C382.104 540.636 381.581 539.781 381.3 538.779C381.186 538.379 381.206 538.076 381.719 538.037C381.882 538.208 382.06 538.359 382.208 538.545C382.637 539.068 383.061 539.644 383.86 539.395C384.645 539.151 384.709 538.452 384.758 537.778C386.036 537.587 387.319 537.431 388.587 537.206C390.403 536.883 392.209 536.507 394.014 536.155V536.146Z" fill="#B2B2B2"/>
<path d="M420.5 522.575C420.327 523.044 419.873 523.132 419.484 523.284C418.285 523.748 417.061 524.149 415.818 524.476C415.403 524.584 415.009 524.74 414.599 524.872C413.297 525.082 411.994 525.297 410.691 525.502C410.159 525.585 409.611 525.717 409.122 525.341C410.129 523.47 411.126 521.598 412.147 519.736C412.423 519.233 412.685 518.71 413.173 518.363C415.413 520.108 417.865 521.495 420.495 522.575H420.5Z" fill="white"/>
<path d="M442.753 530.516C442.368 529.607 441.554 529.226 440.711 528.865C438.525 527.931 436.492 526.729 434.8 525.068C432.451 522.761 430.527 520.172 429.94 516.824C429.886 516.507 429.738 516.238 429.52 515.999C429.678 515.769 429.841 515.534 429.999 515.305C430.606 516.394 430.892 517.621 431.538 518.706C433.098 521.31 435.219 523.323 437.804 524.902C439.521 525.952 441.337 526.768 443.251 527.369C443.552 527.462 443.848 527.57 444.135 527.687C444.455 527.819 444.529 528.063 444.342 528.347C444.061 528.767 443.755 529.172 443.459 529.583C443.222 529.896 442.98 530.203 442.743 530.516H442.753Z" fill="#BEBEBE"/>
<path d="M341.043 514.786C340.673 515.631 340.027 516.012 339.099 515.988C338.413 515.968 337.875 515.748 337.589 515.099C337.298 514.439 337.481 513.52 337.979 513.051C338.364 512.685 338.823 512.504 339.351 512.479C339.982 513.203 340.604 513.931 341.043 514.791V514.786Z" fill="#B3B3B3"/>
<path d="M374.855 537.343C375.591 538.086 375.679 538.452 375.314 539.151C374.92 539.913 374.239 540.241 373.37 540.089C372.625 539.962 372.196 539.537 372.058 538.804C371.895 537.934 372.102 537.543 372.986 537.064C373.607 537.157 374.234 537.25 374.855 537.343Z" fill="#B9B9B9"/>
<path d="M335.572 506.842C335.286 507.702 334.936 508 334.215 507.975C333.441 507.951 332.671 507.32 332.533 506.597C332.301 505.381 332.928 504.667 334.363 504.506C334.768 505.283 335.168 506.06 335.572 506.837V506.842Z" fill="#B3B3B3"/>
<path d="M333.925 491.845C332.672 491.376 332.154 490.35 332.662 489.343C333.274 488.126 334.636 488.092 335.578 489.27C335.055 490.149 334.577 491.049 333.925 491.845Z" fill="#B3B3B3"/>
<path d="M384.759 537.767C385.366 538.46 385.396 539.14 384.838 539.663C384.207 540.254 382.993 540.273 382.376 539.702C381.888 539.247 381.705 538.675 381.72 538.03C382.046 538.026 382.366 537.991 382.652 537.815C383.353 537.801 384.059 537.786 384.759 537.767Z" fill="#BDBDBD"/>
<path d="M352.338 526.537C351.696 526.547 351.228 526.341 351.188 525.613C351.622 525.862 351.993 526.185 352.338 526.537Z" fill="#A4A4A4"/>
<path d="M383.393 411.848C383.694 411.677 384.02 411.653 384.355 411.677C384.055 411.853 383.729 411.877 383.393 411.848Z" fill="#282828"/>
<path d="M356.803 383.982C355.52 383.997 354.311 382.883 354.291 381.671C354.272 380.362 355.51 379.115 356.842 379.096C358.13 379.076 359.408 380.269 359.427 381.5C359.447 382.819 358.238 383.963 356.803 383.977V383.982Z" fill="#919191"/>
<path d="M350.122 395.252C348.662 395.261 347.68 394.299 347.65 392.843C347.621 391.484 348.627 390.39 349.944 390.351C351.281 390.311 352.515 391.514 352.545 392.872C352.569 393.913 351.425 395.418 350.122 395.252Z" fill="#8F8F8F"/>
<path d="M359.467 404.177C359.457 405.584 358.495 406.513 357.064 406.493C355.702 406.474 354.572 405.34 354.592 404.011C354.612 402.765 355.826 401.577 357.044 401.621C358.357 401.665 359.472 402.843 359.467 404.177Z" fill="#8E8E8E"/>
<path d="M365.654 393.413C365.639 393.867 365.625 394.322 365.61 394.776C364.909 395.196 364.149 395.328 363.34 395.225C362.131 395.069 361.382 394.17 361.357 392.86C361.332 391.483 362.072 390.515 363.306 390.359C363.691 390.31 364.095 390.315 364.48 390.383C365.215 390.515 365.561 390.921 365.61 391.663C365.644 392.245 365.639 392.831 365.654 393.413Z" fill="#909090"/>
<path d="M343.512 379.55C344.775 379.555 345.742 380.532 345.732 381.788C345.722 383.102 344.538 384.241 343.216 384.216C341.997 384.192 341.08 383.264 341.055 382.037C341.03 380.732 342.2 379.545 343.512 379.55Z" fill="#8E8E8E"/>
<path d="M363.794 373.198C362.407 373.168 361.366 372.225 361.376 371.004C361.381 369.894 362.605 368.8 363.848 368.8C365.136 368.8 366.374 369.953 366.325 371.111C366.27 372.318 365.175 373.227 363.799 373.198H363.794Z" fill="#909090"/>
<path d="M346.218 404.12C346.194 405.381 345.375 406.236 344.195 406.226C342.927 406.216 341.728 404.892 341.763 403.543C341.797 402.336 342.661 401.55 343.924 401.579C345.365 401.613 346.243 402.59 346.218 404.12Z" fill="#8D8D8D"/>
<path d="M350.445 369.225C351.792 369.25 352.602 369.983 352.602 371.185C352.602 372.479 351.447 373.467 349.952 373.437C348.645 373.413 347.855 372.631 347.89 371.39C347.924 370.07 348.95 369.201 350.45 369.225H350.445Z" fill="#8F8F8F"/>
<path d="M335.337 392.714C335.362 391.345 336.151 390.524 337.409 390.573C338.515 390.617 339.595 391.883 339.556 393.085C339.511 394.321 338.544 395.274 337.385 395.225C336.171 395.176 335.317 394.126 335.342 392.709L335.337 392.714Z" fill="#8D8D8D"/>
<path d="M337.951 370.162C339.046 370.177 339.599 370.739 339.594 371.834C339.594 373.094 338.464 374.291 337.26 374.311C336.342 374.326 335.365 373.324 335.4 372.405C335.444 371.208 336.658 370.138 337.951 370.157V370.162Z" fill="#8D8D8D"/>
<path d="M333.437 382.535C333.437 382.613 333.437 382.691 333.437 382.769C333.348 383.991 332.376 384.949 331.335 384.832C330.333 384.724 329.519 383.512 329.702 382.359C329.84 381.489 330.328 380.83 331.177 380.551C332.499 380.126 333.466 380.996 333.437 382.53V382.535Z" fill="#8C8C8C"/>
<path d="M357.212 363.835C355.787 363.84 355.002 363.342 354.889 362.408C354.79 361.617 355.51 360.864 356.66 360.503C357.43 360.258 358.15 360.351 358.806 360.786C359.803 361.446 359.862 362.433 358.989 363.239C358.461 363.728 357.824 363.865 357.212 363.84V363.835Z" fill="#8E8E8E"/>
<path d="M370.46 363.835C369.622 363.884 368.857 363.576 368.324 362.784C368.003 362.31 367.998 361.836 368.324 361.362C368.837 360.61 369.587 360.283 370.465 360.39C371.432 360.507 372.316 360.874 372.74 361.846C373.016 362.472 372.631 363.244 371.946 363.605C371.511 363.835 371.038 363.845 370.465 363.845L370.46 363.835Z" fill="#8E8E8E"/>
<path d="M341.226 414.2C341.246 415.182 340.624 415.837 339.647 415.861C338.438 415.89 337.259 414.703 337.244 413.447C337.23 412.411 337.812 411.727 338.734 411.703C339.948 411.669 341.206 412.924 341.226 414.205V414.2Z" fill="#8C8C8C"/>
<path d="M383.519 364.528C382.508 364.567 381.797 363.966 381.244 363.17C380.786 362.51 381.072 361.665 381.797 361.289C382.996 360.673 384.767 361.289 385.34 362.515C385.665 363.209 385.414 363.937 384.718 364.303C384.358 364.494 383.973 364.533 383.514 364.528H383.519Z" fill="#8D8D8D"/>
<path d="M325.408 392.983C325.398 391.879 326 390.946 326.745 390.858C327.475 390.775 328.176 391.429 328.517 392.441C328.763 393.169 328.6 393.829 328.245 394.449C327.707 395.392 326.568 395.441 325.926 394.562C325.571 394.083 325.388 393.531 325.408 392.978V392.983Z" fill="#8C8C8C"/>
<path d="M332.44 405.527C332.8 404.764 333.161 404.007 333.6 403.079C332.549 403.406 331.952 404.154 331.098 404.422C330.921 403.826 330.787 403.225 330.866 402.595C330.94 401.974 331.212 401.481 331.828 401.251C332.48 401.007 333.062 401.188 333.56 401.632C334.281 402.277 334.641 403.777 334.281 404.647C333.935 405.473 333.244 405.62 332.445 405.527H332.44Z" fill="#8C8C8C"/>
<path d="M336.223 423.835C335.157 423.772 334.052 422.668 333.983 421.602C333.934 420.806 334.496 420.288 335.32 420.371C336.376 420.474 337.432 421.622 337.456 422.692C337.476 423.542 337.101 423.889 336.223 423.835Z" fill="#8A8A8A"/>
<path d="M379.391 370.203C378.266 371.043 377.141 371.884 376.016 372.729C375.118 371.982 374.891 371.322 375.226 370.438C375.532 369.641 376.208 369.25 377.284 369.226C378.157 369.206 378.892 369.446 379.391 370.208V370.203Z" fill="#8E8E8E"/>
<path d="M325.171 403.049C325.151 403.283 325.156 403.523 325.102 403.743C324.894 404.588 324.12 404.837 323.503 404.226C322.758 403.488 322.526 402.555 322.719 401.539C322.793 401.143 322.985 400.791 323.439 400.703C323.917 400.61 324.288 400.811 324.559 401.192C324.959 401.744 325.19 402.36 325.171 403.054V403.049Z" fill="#8A8A8A"/>
<path d="M362.309 356.1C363.548 355.777 364.816 355.646 366.094 355.631C364.87 356.725 363.671 356.877 362.309 356.1Z" fill="#8E8E8E"/>
<path d="M455.989 518.554C455.945 520.205 456.71 521.608 457.43 523.02C457.361 523.396 457.287 523.772 457.218 524.154C456.729 524.271 456.335 524.051 455.96 523.87C452.427 522.184 450.059 518.632 450.611 514.425C451.124 510.506 453.897 507.432 457.691 506.533C461.204 505.698 464.12 506.704 466.671 509.084C467.081 509.465 467.401 509.9 467.628 510.408C468.112 511.161 468.22 511.986 468.107 512.856C468.156 513.184 468.304 513.447 468.605 513.604C469.464 514.058 469.286 514.845 469.197 515.563C469.128 516.111 468.664 516.027 468.27 516.003C467.327 515.597 466.513 514.982 465.699 514.381C463.578 512.822 458.856 512.993 456.562 514.713C456.345 514.874 456.182 515.099 455.989 515.294C455.822 516.379 455.826 517.464 455.989 518.554Z" fill="#B3B3B3"/>
<path d="M448.715 514.63C448.701 515.383 448.079 515.974 447.344 515.935C446.673 515.896 445.869 515.173 445.888 514.62C445.913 513.922 446.648 513.262 447.388 513.277C448.163 513.296 448.735 513.873 448.72 514.63H448.715Z" fill="#202020"/>
<path d="M468.102 512.856C467.086 512.206 467.278 511.322 467.623 510.408C467.781 510.379 467.934 510.354 468.092 510.325C468.487 510.242 468.887 510.105 469.252 510.398C470.011 511.224 470.105 511.664 469.661 512.319C469.276 512.886 468.714 512.939 468.102 512.851V512.856Z" fill="#202020"/>
<path d="M469.25 510.403C468.87 510.296 468.48 510.31 468.091 510.33C468.495 510.1 468.885 510.095 469.25 510.403Z" fill="#A9A9A9"/>
<path d="M344.183 524.155C343.211 524.14 342.422 523.31 342.452 522.332C342.486 521.291 343.113 520.69 344.174 520.686C345.145 520.686 345.969 521.511 345.945 522.469C345.92 523.378 345.096 524.17 344.183 524.155Z" fill="#B4B4B4"/>
<path d="M331.052 498.26C330.998 499.139 330.1 499.867 329.158 499.794C328.265 499.726 327.51 498.919 327.559 498.084C327.613 497.204 328.506 496.481 329.454 496.549C330.347 496.618 331.102 497.424 331.052 498.26Z" fill="#B3B3B3"/>
<path d="M455.988 518.554C455.653 517.469 455.648 516.385 455.988 515.295C455.993 516.15 456.003 517 456.008 517.855C455.998 518.09 455.993 518.32 455.983 518.554H455.988Z" fill="#ADADAD"/>
<path d="M409.019 365.213C409.783 365.203 410.558 365.115 411.278 365.472C410.163 369.699 411.367 373.197 414.87 375.782C417.298 377.571 420.021 378.245 423.08 377.326C424.585 376.877 426.149 376.677 427.333 375.514C427.467 375.382 427.708 375.45 427.901 375.528C429.228 377.791 430.042 380.214 429.968 382.853C429.919 384.465 429.406 385.917 427.911 386.831C425.646 387.642 423.352 387.588 421.003 387.236C418.526 386.865 416.232 386.049 414.017 384.935C411.392 383.615 409.384 381.563 407.529 379.403C404.327 375.685 403.123 371.311 403.621 366.449C403.715 365.54 404.085 365.081 405.022 365.125C406.354 365.184 407.696 365.008 409.029 365.218L409.019 365.213Z" fill="#C6C6C6"/>
<path d="M427.895 375.528C426.898 376.848 425.6 377.63 423.908 377.688C423.829 377.688 423.745 377.693 423.676 377.727C422.201 378.416 420.696 378.382 419.088 378.182C417.336 377.967 415.895 377.229 414.504 376.276C414.02 375.944 413.591 375.538 413.147 375.162C411.81 374.033 411.188 372.455 410.596 370.916C410.029 369.44 410.335 367.837 410.409 366.288C410.433 365.804 410.779 365.536 411.272 365.482C412.155 365.36 412.989 365.814 413.867 365.721C414.691 365.956 415.52 366.181 416.344 366.425C419.038 367.217 421.545 368.375 423.755 370.119C425.122 371.199 426.222 372.489 427.011 374.043C427.273 374.556 427.594 375.045 427.89 375.543L427.895 375.528Z" fill="#CECECE"/>
<path d="M409.017 365.212C407.833 365.222 406.649 365.212 405.47 365.246C404.434 365.276 404.281 365.466 404.187 366.502C404.034 368.261 404.138 370.001 404.409 371.741C404.626 373.153 405.06 374.472 405.845 375.674C405.953 375.835 406.072 376.002 406.136 376.182C406.901 378.283 408.524 379.72 410.068 381.225C410.853 381.987 411.8 382.559 412.525 383.39C412.969 383.903 413.645 384.103 414.257 384.367C414.657 384.538 415.121 384.621 415.407 384.953C416.438 386.151 417.933 386.429 419.329 386.678C421.174 387.006 423.059 387.226 424.969 386.908C425.926 386.747 426.922 386.844 427.904 386.825C426.853 387.724 425.576 387.919 424.263 387.949C422.551 387.988 420.908 387.568 419.265 387.157C417.701 386.766 416.191 386.185 414.598 385.892C413.083 385.349 411.504 385.095 409.91 384.944C408.514 384.812 407.192 385.09 405.929 385.667C405.351 385.955 404.873 385.809 404.444 385.359C404.256 385.159 404.009 384.997 403.881 384.763C401.794 380.81 399.036 377.155 398.276 372.601C398.054 371.252 397.877 369.898 397.738 368.54C397.566 366.815 398.025 365.95 399.214 365.501C402.273 364.939 405.361 364.939 408.455 365.075C408.647 365.085 408.83 365.168 409.022 365.217L409.017 365.212Z" fill="#C1C1C1"/>
<path d="M382.874 371.771C382.889 371.717 382.899 371.664 382.904 371.61C383.782 370.593 384.936 370.046 386.204 369.694C386.599 369.538 386.994 369.382 387.388 369.225C388.262 368.976 388.143 369.655 388.178 370.105C388.296 371.615 387.995 373.11 387.897 374.615C387.788 376.267 387.586 377.918 387.477 379.575C387.142 381.969 387.048 384.383 386.801 386.787C386.392 390.74 386.091 394.703 385.711 398.661C385.43 401.568 385.227 404.486 384.902 407.393C384.852 407.857 384.857 408.331 384.532 408.722C384.359 409.006 384.019 408.927 383.777 409.064C383.639 409.074 383.506 409.079 383.367 409.089C383.057 409.309 382.741 409.304 382.42 409.098C381.483 408.913 380.506 408.927 379.603 408.566C378.922 407.647 379.208 406.601 379.302 405.634C379.948 398.769 380.53 391.898 381.157 385.028C381.483 381.422 381.784 377.811 382.114 374.2C382.193 373.349 382.326 372.494 382.879 371.781L382.874 371.771Z" fill="#D4D4D4"/>
<path d="M399.215 365.496C398.233 366.249 398.238 367.392 398.336 368.384C398.578 370.817 398.79 373.27 399.738 375.582C400.414 377.238 400.996 378.934 402.131 380.375C402.831 381.269 403.231 382.344 403.719 383.366C404.198 384.367 404.795 385.271 405.93 385.667C404.706 386.561 403.862 387.754 403.172 389.078C402.619 390.143 401.992 391.174 401.4 392.215C400.813 392.699 400.256 392.508 399.841 392.02C397.833 389.669 395.697 387.397 394.641 384.411C394.345 383.571 393.881 382.789 393.753 381.895C393.674 381.357 393.037 381.318 392.875 380.869C392.549 379.696 392.875 378.538 392.973 377.38C393.235 374.272 393.481 371.164 393.847 368.066C393.906 367.558 394.049 367.074 394.202 366.591C395.83 366.038 397.503 365.657 399.22 365.491L399.215 365.496Z" fill="#B9B9B9"/>
<path d="M394.198 366.597C394.474 366.963 394.508 367.393 394.469 367.823C394.272 369.836 394.02 371.84 393.877 373.858C393.714 376.223 393.314 378.568 393.309 380.948C393.443 381.095 393.591 381.232 393.645 381.427C393.768 381.95 393.867 382.473 393.753 383.01C393.255 386.611 393.013 390.237 392.688 393.858C392.357 397.279 392.091 400.704 391.755 404.119C391.681 404.852 391.291 405.405 390.926 405.991C389.92 406.783 388.849 407.472 387.631 407.906C386.811 407.408 387.038 406.582 387.088 405.893C387.236 403.831 387.413 401.774 387.611 399.712C388.01 395.558 388.38 391.4 388.711 387.242C388.8 386.152 388.982 385.072 388.973 383.978C389.446 381.745 389.387 379.463 389.624 377.205C389.91 374.459 390.137 371.703 390.394 368.952C390.448 368.37 390.68 367.906 391.183 367.594C392.15 367.139 393.156 366.817 394.202 366.602L394.198 366.597Z" fill="#D6D6D6"/>
<path d="M391.178 367.588C390.803 368.985 390.877 370.437 390.719 371.859C390.457 374.17 390.28 376.491 390.077 378.812C389.964 380.087 389.86 381.363 389.767 382.643C389.732 383.107 389.781 383.581 389.53 384.006C388.651 383.894 388.4 383.18 388.054 382.535C387.546 381.587 387.512 380.468 386.93 379.55C386.895 377.957 387.176 376.388 387.29 374.805C387.408 373.183 387.536 371.565 387.66 369.943C387.68 369.665 387.689 369.396 387.398 369.23C388.607 368.565 389.86 367.998 391.188 367.593L391.178 367.588Z" fill="#B1B1B1"/>
<path d="M417.204 528.884C418.625 528.581 419.568 529.006 419.76 530.082C419.829 530.453 419.795 530.849 419.805 531.23C419.602 531.411 419.41 531.606 419.193 531.762C418.384 532.329 417.397 532.241 416.765 531.562C416.114 530.863 416.139 529.974 416.839 529.173C416.938 529.06 417.081 528.982 417.204 528.884Z" fill="#C8C8C8"/>
<path d="M382.873 371.772C382.947 373.185 382.665 374.567 382.572 375.97C382.409 378.457 382.162 380.939 381.935 383.422C381.738 385.557 381.521 387.688 381.318 389.823C381.131 391.841 380.948 393.859 380.771 395.877C380.583 398.052 380.415 400.226 380.228 402.401C380.095 403.994 379.952 405.582 379.799 407.175C379.754 407.639 379.665 408.098 379.596 408.562C375.935 407.688 373.394 405.479 371.84 402.122C371.011 400.329 370.592 398.423 370.39 396.478C369.418 387.287 372.625 379.796 379.804 373.947C380.776 373.155 381.733 372.344 382.868 371.777L382.873 371.772Z" fill="#A2A2A2"/>
<path d="M386.919 379.54C387.368 379.648 387.689 379.911 387.837 380.341C388.276 381.617 388.809 382.848 389.52 383.996C389.5 386.537 389.125 389.049 388.942 391.58C388.779 393.838 388.543 396.085 388.335 398.338C388.123 400.669 387.896 402.995 387.704 405.331C387.635 406.186 387.645 407.046 387.62 407.906C387.132 408.135 386.643 408.365 386.16 408.595C385.696 408.692 385.232 408.79 384.768 408.888C384.6 408.976 384.438 408.99 384.304 408.829C384.27 407.031 384.541 405.262 384.704 403.479C384.892 401.426 385.064 399.369 385.252 397.317C385.464 394.952 385.696 392.592 385.903 390.227C386.09 388.096 386.253 385.961 386.451 383.83C386.584 382.399 386.757 380.967 386.914 379.54H386.919Z" fill="#A7A7A7"/>
<path d="M386.209 369.694C385.109 370.334 384.008 370.975 382.908 371.61C383.535 370.173 384.763 369.748 386.209 369.694Z" fill="#272727"/>
<path d="M382.424 409.088C382.74 409.019 383.055 409.019 383.371 409.078C383.06 409.508 382.744 409.513 382.424 409.088Z" fill="#282828"/>
<path d="M384.31 408.829C384.463 408.849 384.62 408.868 384.773 408.888C384.463 409.064 384.127 409.093 383.777 409.059C383.954 408.981 384.132 408.907 384.305 408.829H384.31Z" fill="#282828"/>
<path d="M427.919 528.687C428.837 528.658 429.676 529.445 429.7 530.358C429.73 531.267 428.936 532.098 428.013 532.122C427.095 532.152 426.257 531.365 426.232 530.451C426.202 529.542 426.997 528.712 427.919 528.687Z" fill="#CACACA"/>
<path d="M437.803 528.674C438.701 528.684 439.466 529.534 439.426 530.477C439.392 531.376 438.622 532.143 437.773 532.134C436.875 532.124 436.111 531.274 436.15 530.33C436.185 529.431 436.954 528.664 437.803 528.674Z" fill="#CACACA"/>
<path d="M393.305 381.411C393.305 381.255 393.305 381.104 393.305 380.947C393.823 380.981 394.04 381.348 394.193 381.768C394.529 382.682 394.963 383.552 395.283 384.48C395.885 386.239 397 387.715 398.17 389.132C398.619 389.674 399.068 390.212 399.462 390.793C399.936 391.487 400.528 392.044 401.396 392.22C400.365 394.429 399.137 396.525 397.736 398.519C397.198 398.924 396.719 398.783 396.275 398.362C395.338 397.483 394.371 396.628 393.734 395.494C393.344 394.805 392.836 394.229 392.136 393.838C392.096 392.396 392.363 390.974 392.466 389.542C392.629 387.3 392.876 385.057 393.083 382.814C393.364 382.379 393.014 381.841 393.305 381.407V381.411Z" fill="#AFAFAF"/>
<path d="M392.129 393.838C392.672 393.555 393.097 393.741 393.496 394.146C393.832 394.488 394.039 394.904 394.3 395.29C395.208 396.609 396.16 397.894 397.734 398.52C395.889 401.388 393.703 403.958 390.921 405.991C391.291 403.416 391.444 400.821 391.666 398.236C391.794 396.77 391.972 395.304 392.129 393.838Z" fill="#A8A8A8"/>
<path d="M393.303 381.412C393.303 381.891 393.352 382.38 393.081 382.819C393.081 382.341 393.027 381.852 393.303 381.412Z" fill="#B9B9B9"/>
</g>
<defs>
<clipPath id="clip0_2524_3685">
<rect width="248.668" height="274.304" fill="white" transform="matrix(-1 0 0 1 481.793 331.478)"/>
</clipPath>
</defs>
</svg>
