<svg id="Layer_1" xmlns="http://www.w3.org/2000/svg" viewBox="0 0 149.8 38.7"><style>.st0{opacity:.2}.st1{fill:#231f20}.st2{fill:#fff}.st3{fill:#f29d1f}</style><g class="st0"><path class="st1" d="M17.4 28.1c.5-.9.7-2.5.7-3.9 0-1-.2-1.8-.5-2.4L9 21.7l1-18.4c-.6-.5-1.8-.7-3.5-.7-1.7-.1-2.8.1-3.5.5L1 27.9l16.4.2zm4.1-17.4l-1.1 10.9c-.1.8-.1 1.9-.1 2.7.1 2.8 1.3 4.6 4.9 4.6 1.6 0 2.5-.2 3.5-.7.9-1.1 1.5-3.7 1.1-5.5-.4.1-.7.2-1.2.2-.7 0-1-.5-1-1.5l.6-10.6c-.6-.4-1.7-.6-3.3-.6-1.7-.1-2.7.1-3.4.5zM25.2 1c-2.3 0-3.8 1.5-3.7 3.9.1 2.3 1.6 3.6 3.8 3.7 2.3 0 3.9-1.4 3.8-3.9-.2-2.4-1.7-3.7-3.9-3.7z"/><path class="st1" d="M36 10.2c-2.5 0-4.3.3-5.6.8l-1.5 16.8c.7.4 1.7.6 3.6.6 1.8 0 2.9-.2 3.7-.5l.6-10c.4-1.3 1.2-1.9 2.1-1.9.9 0 1.2.5 1.2 1.3v.7l-.4 3.8c-.1.8-.1 1.9-.1 2.7.1 2.8 1.3 4.6 4.8 4.6 1.5 0 2.5-.2 3.4-.7.9-1.1 1.5-3.7 1.1-5.5-.4.1-.7.2-1.2.2-.7 0-1-.5-1-1.5l.2-4.9c0-.7.1-1.2 0-1.6-.2-3.8-2.3-5.1-5.1-5.2-3 0-4.7 1.5-5.4 3.8H36v-3.5zm25.2 15.3c-.4.9-.7 2.7-.8 3.6-.1 1.5-.7 2.7-3 2.7-1.6 0-4-.5-6.2-1.7-.7 1.7-.6 5 .6 6.7 1.9.6 4.4.9 6.2.9 7.2.1 9.2-3.7 9.6-8.5l1.3-16.6c-2-1.5-4.4-2.5-7.6-2.6-3.7 0-6.8 1-8.8 3.9-1.5 2.2-2 4.7-1.9 7.3.2 5.7 2.9 7.4 5.8 7.4 2.6 0 4-1.6 4.5-3.1h.3zm-.1-3.7c-.5.5-1 .8-1.6.7-.9 0-1.6-.5-1.7-2.3 0-1 .1-2.6.8-3.5.5-.7 1.2-1 2-1 .3 0 .8.1 1.1.3l-.6 5.8zm16.1-10.7c-.5-.2-1.4-.4-2.7-.4-1.9 0-3.3.3-4.1.9l2.1 16.6c2.5.8 6 1.1 9.4 1.2 1.5-3.8 2.8-9.2 3.2-13.4h.4c0 2 .1 4.4.3 6.3l.5 6.2c2.3.7 5.7 1.1 8.7 1.1 2-3.5 5.2-10.6 5-14.8-.1-2.4-1.2-4.1-3.9-4.1-1.2 0-2.1.3-2.7.8-.8.9-1.5 3.1-1.1 4.7.1-.1.3-.1.5-.1.4 0 .7.2.7.7.1 1.8-1 5.5-2.1 7.6H91c.1-1.5.1-3.5 0-4.9l-.6-8.6c-3.3 0-7.2.2-9.7 1-.6 4.6-1.2 8.3-2.2 12.4h-.4c0-1.8-.1-4.1-.2-5.9l-.7-7.3zm25.3.5l-1.1 10.9c-.1.8-.1 1.9-.1 2.7.1 2.8 1.3 4.6 4.9 4.6 1.6 0 2.5-.2 3.5-.7.9-1.1 1.5-3.7 1.1-5.5-.4.1-.7.2-1.2.2-.7 0-1-.5-1-1.5l.6-10.6c-.6-.4-1.7-.6-3.3-.6-1.6 0-2.7.2-3.4.5zm3.7-9.7c-2.3 0-3.8 1.4-3.7 3.9.1 2.3 1.6 3.6 3.8 3.7 2.3 0 3.9-1.4 3.8-3.9-.1-2.3-1.7-3.6-3.9-3.7z"/><path class="st1" d="M117.1 11.1c-2.5 0-4.3.3-5.6.8L110 28.7c.7.4 1.7.6 3.6.6 1.8 0 2.9-.2 3.7-.5l.6-10c.4-1.3 1.2-1.9 2.1-1.9.9 0 1.2.5 1.2 1.3v.7l-.4 3.8c-.1.8-.1 1.9-.1 2.7.1 2.8 1.3 4.6 4.8 4.6 1.5 0 2.5-.2 3.4-.7.9-1.1 1.5-3.7 1.1-5.5-.4.1-.7.2-1.2.2-.7 0-1-.5-1-1.5l.2-4.9c0-.7.1-1.2 0-1.6-.2-3.8-2.3-5.1-5.1-5.2-3 0-4.7 1.5-5.4 3.8h-.4v-3.5zm25.1 15.4c-.4.9-.7 2.7-.8 3.6-.1 1.5-.7 2.7-3 2.7-1.6 0-4-.5-6.2-1.7-.7 1.7-.6 5 .6 6.7 1.9.6 4.4.9 6.2.9 7.2.1 9.2-3.7 9.6-8.5l1.3-16.6c-2-1.5-4.4-2.5-7.6-2.6-3.7 0-6.8 1-8.8 3.9-1.5 2.2-2 4.7-1.9 7.3.2 5.7 2.9 7.4 5.8 7.4 2.6 0 4-1.6 4.5-3.1h.3zm-.1-3.8c-.5.5-1 .8-1.6.7-.9 0-1.6-.5-1.7-2.3 0-1 .1-2.6.8-3.5.5-.7 1.2-1 2-1 .3 0 .8.1 1.1.3l-.6 5.8z"/></g><path class="st2" d="M16.4 27.1c.5-.9.7-2.5.7-3.9 0-1-.2-1.8-.5-2.4L8 20.7 9 2.2c-.6-.4-1.8-.6-3.5-.6-1.7-.1-2.8.1-3.5.5L0 26.9l16.4.2zm4.1-17.4l-1.1 10.9c-.1.8-.1 1.9-.1 2.7.1 2.8 1.3 4.6 4.9 4.6 1.6 0 2.5-.2 3.5-.7.9-1.1 1.5-3.7 1.1-5.5-.4.1-.7.2-1.2.2-.7 0-1-.5-1-1.5l.6-10.6c-.6-.4-1.7-.6-3.3-.6-1.7-.1-2.7.1-3.4.5zM24.2 0c-2.3 0-3.8 1.5-3.7 3.9.1 2.3 1.6 3.6 3.8 3.7 2.3 0 3.9-1.4 3.8-3.9-.2-2.4-1.7-3.7-3.9-3.7z"/><path class="st2" d="M35 9.2c-2.5 0-4.3.3-5.6.8l-1.5 16.8c.7.4 1.7.6 3.6.6 1.8 0 2.9-.2 3.7-.5l.6-10c.4-1.3 1.2-1.9 2.1-1.9.9 0 1.2.5 1.2 1.3v.7l-.4 3.8c-.1.8-.1 1.9-.1 2.7.1 2.8 1.3 4.6 4.8 4.6 1.5 0 2.5-.2 3.4-.7.9-1.1 1.5-3.7 1.1-5.5-.4.1-.7.2-1.2.2-.7 0-1-.5-1-1.5l.2-4.9c0-.7.1-1.2 0-1.6-.2-3.8-2.3-5.1-5.1-5.2-3 0-4.7 1.5-5.4 3.8H35V9.2zm25.2 15.3c-.4.9-.7 2.7-.8 3.6-.1 1.5-.7 2.7-3 2.7-1.6 0-4-.5-6.2-1.7-.7 1.7-.6 5 .6 6.7 1.9.6 4.4.9 6.2.9 7.2.1 9.2-3.7 9.6-8.5l1.3-16.6c-2-1.5-4.4-2.5-7.6-2.6-3.7 0-6.8 1-8.8 3.9-1.5 2.2-2 4.7-1.9 7.3.2 5.7 2.9 7.4 5.8 7.4 2.6 0 4-1.6 4.5-3.1h.3zm-.1-3.7c-.5.5-1 .8-1.6.7-.9 0-1.6-.5-1.7-2.3 0-1 .1-2.6.8-3.5.5-.7 1.2-1 2-1 .3 0 .8.1 1.1.3l-.6 5.8z"/><path class="st3" d="M76.2 10.1c-.5-.2-1.4-.4-2.7-.4-1.9 0-3.3.3-4.1.9l2.1 16.6c2.5.8 6 1.1 9.4 1.2 1.5-3.8 2.8-9.2 3.2-13.4h.4c0 2 .1 4.4.3 6.3l.5 6.2c2.3.7 5.7 1.1 8.7 1.1 2-3.5 5.2-10.6 5-14.8-.1-2.4-1.2-4.1-3.9-4.1-1.2 0-2.1.3-2.7.8-.8.9-1.5 3.1-1.1 4.7.1-.1.3-.1.5-.1.4 0 .7.2.7.7.1 1.8-1 5.5-2.1 7.6H90c.1-1.5.1-3.5 0-4.9l-.6-8.6c-3.3 0-7.2.2-9.7 1-.6 4.6-1.2 8.3-2.2 12.4h-.4c0-1.8-.1-4.1-.2-5.9l-.7-7.3zm25.3.5l-1.1 10.9c-.1.8-.1 1.9-.1 2.7.1 2.8 1.3 4.6 4.9 4.6 1.6 0 2.5-.2 3.5-.7.9-1.1 1.5-3.7 1.1-5.5-.4.1-.7.2-1.2.2-.7 0-1-.5-1-1.5l.6-10.6c-.6-.4-1.7-.6-3.3-.6-1.6 0-2.7.2-3.4.5zm3.7-9.7c-2.3 0-3.8 1.4-3.7 3.9.1 2.3 1.6 3.6 3.8 3.7 2.3 0 3.9-1.4 3.8-3.9-.1-2.3-1.7-3.6-3.9-3.7z"/><path class="st3" d="M116.1 10.1c-2.5 0-4.3.3-5.6.8L109 27.7c.7.4 1.7.6 3.6.6 1.8 0 2.9-.2 3.7-.5l.6-10c.4-1.3 1.2-1.9 2.1-1.9.9 0 1.2.5 1.2 1.3v.7l-.4 3.8c-.1.8-.1 1.9-.1 2.7.1 2.8 1.3 4.6 4.8 4.6 1.5 0 2.5-.2 3.4-.7.9-1.1 1.5-3.7 1.1-5.5-.4.1-.7.2-1.2.2-.7 0-1-.5-1-1.5l.2-4.9c0-.7.1-1.2 0-1.6-.2-3.8-2.3-5.1-5.1-5.2-3 0-4.7 1.5-5.4 3.8h-.4v-3.5zm25.1 15.4c-.4.9-.7 2.7-.8 3.6-.1 1.5-.7 2.7-3 2.7-1.6 0-4-.5-6.2-1.7-.7 1.7-.6 5 .6 6.7 1.9.6 4.4.9 6.2.9 7.2.1 9.2-3.7 9.6-8.5l1.3-16.6c-2-1.5-4.4-2.5-7.6-2.6-3.7 0-6.8 1-8.8 3.9-1.5 2.2-2 4.7-1.9 7.3.2 5.7 2.9 7.4 5.8 7.4 2.6 0 4-1.6 4.5-3.1h.3zm-.1-3.8c-.5.5-1 .8-1.6.7-.9 0-1.6-.5-1.7-2.3 0-1 .1-2.6.8-3.5.5-.7 1.2-1 2-1 .3 0 .8.1 1.1.3l-.6 5.8z"/></svg>