<svg width="33" height="19" viewBox="0 0 33 19" fill="none" xmlns="http://www.w3.org/2000/svg">
<g opacity="0.2">
<path d="M0.717773 18.6593L2.79782 1.16712C3.30402 0.873019 4.07714 0.723633 5.2138 0.723633C6.35046 0.723633 7.14658 0.873019 7.58376 1.16712L6.37347 14.1917H12.1994C12.3927 14.5838 12.4894 15.172 12.4894 15.8863C12.4894 16.918 12.2731 17.9964 11.9095 18.6593H0.717773Z" fill="#231F20"/>
<path d="M17.6941 11.0545C17.7171 12.3289 17.7171 13.9722 17.6481 15.2513H17.938C18.7617 12.3569 19.2679 9.73334 19.8248 6.4702C21.5643 5.88199 24.2241 5.70927 26.4975 5.70927L26.6677 11.7687C26.6907 12.7724 26.6447 14.1962 26.5481 15.2513H26.815C27.6387 13.7294 28.4809 11.1525 28.4809 9.85472C28.4809 9.48592 28.3106 9.36455 28.0207 9.36455C27.878 9.36455 27.7538 9.4159 27.6801 9.46258C27.4869 8.36086 28.0207 6.7643 28.6005 6.15276C29.0101 5.83531 29.6175 5.58789 30.4367 5.58789C32.2728 5.58789 32.9999 6.81565 32.9999 8.48224C32.9999 11.4513 30.6299 16.5257 29.1573 19.0046C27.0773 19.0046 24.781 18.7852 23.2577 18.295L23.0645 13.9302C23.0138 12.6277 23.0138 10.9378 23.0645 9.49059H22.7746C22.365 12.483 21.325 16.311 20.2113 19.0093C17.892 19.0093 15.545 18.7899 13.8515 18.2483L12.9312 6.54956C13.488 6.18077 14.4544 5.91 15.7613 5.91C16.6311 5.91 17.2109 6.05939 17.5744 6.20411L17.6941 11.0591V11.0545Z" fill="#231F20"/>
</g>
<path d="M0 17.931L2.08004 0.443489C2.58625 0.149386 3.36397 0 4.49603 0C5.62809 0 6.42881 0.144717 6.86599 0.443489L5.6557 13.4681H11.4817C11.6749 13.8602 11.7716 14.4484 11.7716 15.1627C11.7716 16.1943 11.5553 17.2727 11.1917 17.9356H0V17.931Z" fill="#333333"/>
<path d="M16.9763 10.3262C16.9993 11.6007 16.9993 13.2439 16.9303 14.523H17.2202C18.0439 11.6287 18.5502 9.00507 19.107 5.74193C20.8465 5.15372 23.5064 4.981 25.7797 4.981L25.95 11.0405C25.973 12.0441 25.9269 13.468 25.8303 14.523H26.0972C26.921 13.0011 27.7631 10.4242 27.7631 9.12645C27.7631 8.75765 27.5928 8.63628 27.3029 8.63628C27.1602 8.63628 27.036 8.68296 26.9624 8.73431C26.7691 7.63259 27.3029 6.03603 27.8827 5.42448C28.2923 5.10704 28.8998 4.85962 29.7189 4.85962C31.555 4.85962 32.2821 6.08738 32.2821 7.75397C32.2821 10.723 29.9122 15.7975 28.4396 18.2763C26.3595 18.2763 24.0632 18.0569 22.54 17.5667L22.3467 13.2019C22.2961 11.9041 22.2961 10.2095 22.3467 8.76232H22.0568C21.6472 11.7547 20.6072 15.5827 19.4935 18.281C17.1742 18.281 14.8272 18.0616 13.1338 17.5201L12.2134 5.82129C12.7702 5.45249 13.7366 5.18173 15.0435 5.18173C15.9133 5.18173 16.4931 5.32645 16.8567 5.47584L16.9763 10.3309V10.3262Z" fill="#F39C12"/>
</svg>
