<svg width="179" height="39" viewBox="0 0 179 39" fill="none" xmlns="http://www.w3.org/2000/svg">
<g clip-path="url(#clip0_1851_939)">
<g opacity="0.2">
<path d="M17.5349 28.3179C18.0388 27.4109 18.2404 25.7985 18.2404 24.3877C18.2404 23.3799 18.0388 22.5737 17.7365 21.9691L9.06983 21.8683L10.0776 3.32564C9.47293 2.82177 8.26363 2.62022 6.55045 2.62022C4.83727 2.51944 3.72874 2.72099 3.02332 3.12409L1.00781 28.1163L17.5349 28.3179ZM21.6667 10.783L20.5582 21.7675C20.4574 22.5737 20.4574 23.6822 20.4574 24.4884C20.5582 27.3101 21.7675 29.1241 25.3954 29.1241C27.0078 29.1241 27.9148 28.9225 28.9225 28.4187C29.8295 27.3101 30.4342 24.69 30.0311 22.876C29.628 22.9768 29.3256 23.0776 28.8218 23.0776C28.1163 23.0776 27.814 22.5737 27.814 21.566L28.4187 10.8838C27.814 10.4807 26.7055 10.2791 25.0931 10.2791C23.3799 10.1784 22.3722 10.3799 21.6667 10.783ZM25.3954 1.00781C23.0776 1.00781 21.566 2.51944 21.6667 4.93805C21.7675 7.25587 23.2791 8.56595 25.4962 8.66673C27.814 8.66673 29.4264 7.25587 29.3256 4.73649C29.1241 2.31789 27.6125 1.00781 25.3954 1.00781Z" fill="#231F20"/>
<path d="M36.2791 10.2789C33.7597 10.2789 31.9457 10.5812 30.6357 11.0851L29.124 28.0153C29.8294 28.4184 30.8372 28.62 32.7519 28.62C34.5659 28.62 35.6744 28.4184 36.4806 28.1161L37.0853 18.0386C37.4884 16.7285 38.2946 16.1239 39.2015 16.1239C40.1085 16.1239 40.4108 16.6277 40.4108 17.4339V18.1394L40.0077 21.9688C39.907 22.775 39.907 23.8835 39.907 24.6897C40.0077 27.5114 41.217 29.3254 44.7442 29.3254C46.2558 29.3254 47.2636 29.1239 48.1705 28.62C49.0775 27.5114 49.6822 24.8913 49.2791 23.0773C48.876 23.1781 48.5736 23.2789 48.0698 23.2789C47.3643 23.2789 47.062 22.775 47.062 21.7673L47.2636 16.8293C47.2636 16.1239 47.3643 15.62 47.2636 15.2169C47.062 11.3874 44.9457 10.0773 42.124 9.97657C39.1008 9.97657 37.3876 11.4882 36.6822 13.806H36.2791V10.2789ZM61.6744 25.6975C61.2713 26.6045 60.969 28.4184 60.8682 29.3254C60.7674 30.837 60.1628 32.0463 57.845 32.0463C56.2326 32.0463 53.8139 31.5425 51.5969 30.3332C50.8915 32.0463 50.9922 35.3719 52.2015 37.0851C54.1163 37.6897 56.6357 37.9921 58.4496 37.9921C65.7054 38.0928 67.7209 34.2634 68.124 29.4262L69.4341 12.6975C67.4186 11.1859 65 10.1781 61.7752 10.0773C58.0465 10.0773 54.9225 11.0851 52.907 14.0076C51.3953 16.2246 50.8915 18.744 50.9922 21.3642C51.1938 27.1084 53.9147 28.8215 56.8372 28.8215C59.4574 28.8215 60.8682 27.2091 61.3721 25.6975H61.6744ZM61.5736 21.9688C61.0698 22.4727 60.5659 22.775 59.9612 22.6742C59.0543 22.6742 58.3488 22.1704 58.2481 20.3564C58.2481 19.3487 58.3488 17.7363 59.0543 16.8293C59.5581 16.1239 60.2636 15.8215 61.0698 15.8215C61.3721 15.8215 61.876 15.9223 62.1783 16.1239L61.5736 21.9688ZM77.7984 11.1859C77.2946 10.9843 76.3876 10.7828 75.0775 10.7828C73.1628 10.7828 71.7519 11.0851 70.9457 11.6897L73.062 28.4184C75.5814 29.2246 79.1085 29.527 82.5349 29.6277C84.0465 25.7983 85.3566 20.3564 85.7597 16.1239H86.1628C86.1628 18.1394 86.2636 20.558 86.4651 22.4727L86.969 28.7208C89.2868 29.4262 92.7132 29.8293 95.7364 29.8293C97.7519 26.3021 100.977 19.1471 100.775 14.9146C100.674 12.4959 99.5659 10.7828 96.8449 10.7828C95.6357 10.7828 94.7287 11.0851 94.124 11.589C93.3178 12.4959 92.6124 14.713 93.0155 16.3254C93.1163 16.2246 93.3178 16.2246 93.5194 16.2246C93.9225 16.2246 94.2248 16.4262 94.2248 16.9301C94.3256 18.744 93.217 22.4727 92.1085 24.589H91.7054C91.8062 23.0773 91.8062 21.0618 91.7054 19.651L91.1008 10.9843C87.7752 10.9843 83.8449 11.1859 81.3256 11.9921C80.7209 16.6277 80.1163 20.3564 79.1085 24.4882H78.7054C78.7054 22.6742 78.6046 20.3564 78.5039 18.5425L77.7984 11.1859ZM103.295 11.6897L102.186 22.6742C102.085 23.4804 102.085 24.589 102.085 25.3952C102.186 28.2169 103.395 30.0308 107.023 30.0308C108.636 30.0308 109.543 29.8293 110.55 29.3254C111.457 28.2169 112.062 25.5967 111.659 23.7828C111.256 23.8835 110.953 23.9843 110.45 23.9843C109.744 23.9843 109.442 23.4804 109.442 22.4727L110.047 11.7905C109.442 11.3874 108.333 11.1859 106.721 11.1859C105.109 11.1859 104 11.3874 103.295 11.6897ZM107.023 1.91455C104.705 1.91455 103.194 3.3254 103.295 5.84478C103.395 8.16261 104.907 9.47269 107.124 9.57347C109.442 9.57347 111.054 8.16261 110.953 5.64323C110.853 3.3254 109.24 2.01533 107.023 1.91455Z" fill="#231F20"/>
<path d="M118.008 11.1861C115.488 11.1861 113.674 11.4884 112.364 11.9923L110.853 28.9226C111.558 29.3257 112.566 29.5272 114.481 29.5272C116.295 29.5272 117.403 29.3256 118.209 29.0233L118.814 18.9458C119.217 17.6357 120.023 17.0311 120.93 17.0311C121.837 17.0311 122.14 17.535 122.14 18.3412V19.0466L121.737 22.876C121.636 23.6822 121.636 24.7908 121.636 25.597C121.737 28.4187 122.946 30.2326 126.473 30.2326C127.985 30.2326 128.992 30.0311 129.899 29.5272C130.806 28.4187 131.411 25.7985 131.008 23.9846C130.605 24.0853 130.302 24.1861 129.799 24.1861C129.093 24.1861 128.791 23.6822 128.791 22.6745L128.992 17.7365C128.992 17.0311 129.093 16.5272 128.992 16.1241C128.791 12.2946 126.674 10.9846 123.853 10.8838C120.83 10.8838 119.116 12.3954 118.411 14.7132H118.008V11.1861ZM143.302 26.7055C142.899 27.6125 142.597 29.4264 142.496 30.3334C142.395 31.845 141.791 33.0543 139.473 33.0543C137.861 33.0543 135.442 32.5505 133.225 31.3412C132.519 33.0543 132.62 36.3799 133.83 38.0931C135.744 38.6977 138.264 39.0001 140.078 39.0001C147.333 39.1008 149.349 35.2714 149.752 30.4342L151.062 13.7055C149.047 12.1939 146.628 11.1861 143.403 11.0853C139.674 11.0853 136.55 12.0931 134.535 15.0156C133.023 17.2326 132.519 19.752 132.62 22.3722C132.822 28.1163 135.543 29.8295 138.465 29.8295C141.085 29.8295 142.496 28.2171 143 26.7055H143.302ZM143.202 22.876C142.698 23.3799 142.194 23.6822 141.589 23.5815C140.682 23.5815 139.977 23.0776 139.876 21.2636C139.876 20.2559 139.977 18.6435 140.682 17.7365C141.186 17.0311 141.892 16.7288 142.698 16.7288C143 16.7288 143.504 16.8295 143.806 17.0311L143.202 22.876Z" fill="#231F20"/>
</g>
<path d="M16.5271 27.3101C17.031 26.4031 17.2326 24.7907 17.2326 23.3798C17.2326 22.3721 17.031 21.5659 16.7287 20.9612L8.06202 20.8605L9.06977 2.21705C8.46512 1.81395 7.25581 1.6124 5.54264 1.6124C3.82946 1.51163 2.72093 1.71318 2.0155 2.11628L0 27.1085L16.5271 27.3101ZM20.6589 9.77519L19.5504 20.7597C19.4496 21.5659 19.4496 22.6744 19.4496 23.4806C19.5504 26.3023 20.7597 28.1163 24.3876 28.1163C26 28.1163 26.907 27.9147 27.9147 27.4109C28.8217 26.3023 29.4264 23.6822 29.0233 21.8682C28.6202 21.969 28.3178 22.0698 27.814 22.0698C27.1085 22.0698 26.8062 21.5659 26.8062 20.5581L27.4109 9.87597C26.8062 9.47287 25.6977 9.27132 24.0853 9.27132C22.3721 9.17054 21.3643 9.37209 20.6589 9.77519ZM24.3876 0C22.0698 0 20.5581 1.51163 20.6589 3.93023C20.7597 6.24806 22.2713 7.55814 24.4884 7.65891C26.8062 7.65891 28.4186 6.24806 28.3178 3.72868C28.1163 1.31008 26.6047 0 24.3876 0Z" fill="#333333"/>
<path d="M35.2713 9.27108C32.7519 9.27108 30.9379 9.5734 29.6278 10.0773L28.1162 27.0075C28.8216 27.4106 29.8294 27.6122 31.7441 27.6122C33.5581 27.6122 34.6666 27.4106 35.4728 27.1083L36.0775 17.0308C36.4806 15.7207 37.2868 15.116 38.1937 15.116C39.1007 15.116 39.403 15.6199 39.403 16.4261V17.1315L38.9999 20.961C38.8992 21.7672 38.8992 22.8757 38.8992 23.6819C38.9999 26.5036 40.2092 28.3176 43.7364 28.3176C45.248 28.3176 46.2557 28.116 47.1627 27.6122C48.0697 26.5036 48.6744 23.8835 48.2713 22.0695C47.8682 22.1703 47.5658 22.2711 47.0619 22.2711C46.3565 22.2711 46.0542 21.7672 46.0542 20.7594L46.2557 15.8215C46.2557 15.116 46.3565 14.6122 46.2557 14.2091C46.0542 10.3796 43.9379 9.06953 41.1162 8.96875C38.093 8.96875 36.3798 10.4804 35.6744 12.7982H35.2713V9.27108ZM60.6666 24.6897C60.2635 25.5967 59.9612 27.4106 59.8604 28.3176C59.7596 29.8292 59.155 31.0385 56.8371 31.0385C55.2247 31.0385 52.8061 30.5346 50.5891 29.3253C49.8837 31.0385 49.9844 34.3641 51.1937 36.0773C53.1085 36.6819 55.6278 36.9843 57.4418 36.9843C64.6976 37.085 66.7131 33.2556 67.1162 28.4184L68.4263 11.6897C66.4108 10.1781 63.9922 9.1703 60.7674 9.06953C57.0387 9.06953 53.9147 10.0773 51.8992 12.9998C50.3875 15.2168 49.8837 17.7362 49.9844 20.3563C50.186 26.1005 52.9069 27.8137 55.8294 27.8137C58.4495 27.8137 59.8604 26.2013 60.3643 24.6897H60.6666ZM60.5658 20.961C60.0619 21.4649 59.5581 21.7672 58.9534 21.6664C58.0464 21.6664 57.341 21.1625 57.2402 19.3486C57.2402 18.3408 57.341 16.7284 58.0464 15.8215C58.5503 15.116 59.2557 14.8137 60.0619 14.8137C60.3643 14.8137 60.8682 14.9145 61.1705 15.116L60.5658 20.961Z" fill="#333333"/>
<path d="M76.7907 10.1781C76.2868 9.97651 75.3798 9.77496 74.0698 9.77496C72.155 9.77496 70.7442 10.0773 69.938 10.6819L72.0543 27.4106C74.5736 28.2168 78.1008 28.5191 81.5271 28.6199C83.0388 24.7905 84.3488 19.3486 84.7519 15.116H85.155C85.155 17.1315 85.2558 19.5501 85.4574 21.4649L85.9612 27.7129C88.2791 28.4184 91.7054 28.8215 94.7287 28.8215C96.7442 25.2943 99.969 18.1393 99.7674 13.9067C99.6667 11.4881 98.5581 9.77496 95.8372 9.77496C94.6279 9.77496 93.7209 10.0773 93.1163 10.5812C92.3101 11.4881 91.6047 13.7052 92.0078 15.3176C92.1085 15.2168 92.3101 15.2168 92.5116 15.2168C92.9147 15.2168 93.2171 15.4184 93.2171 15.9222C93.3178 17.7362 92.2093 21.4649 91.1008 23.5812H90.6977C90.7985 22.0695 90.7985 20.054 90.6977 18.6432L90.093 9.97651C86.7674 9.97651 82.8372 10.1781 80.3178 10.9843C79.7132 15.6199 79.1085 19.3486 78.1008 23.4804H77.6977C77.6977 21.6664 77.5969 19.3486 77.4961 17.5346L76.7907 10.1781ZM102.287 10.6819L101.178 21.6664C101.078 22.4726 101.078 23.5812 101.078 24.3874C101.178 27.2091 102.388 29.023 106.016 29.023C107.628 29.023 108.535 28.8215 109.543 28.3176C110.45 27.2091 111.054 24.5889 110.651 22.775C110.248 22.8757 109.946 22.9765 109.442 22.9765C108.736 22.9765 108.434 22.4726 108.434 21.4649L109.039 10.7827C108.434 10.3796 107.326 10.1781 105.713 10.1781C104.101 10.1781 102.992 10.3796 102.287 10.6819ZM106.016 0.906738C103.698 0.906738 102.186 2.31759 102.287 4.83697C102.388 7.1548 103.899 8.46488 106.116 8.56565C108.434 8.56565 110.047 7.1548 109.946 4.63542C109.845 2.31759 108.233 1.00751 106.016 0.906738Z" fill="#F29D1F"/>
<path d="M117 10.1783C114.481 10.1783 112.667 10.4806 111.357 10.9845L109.845 27.9147C110.55 28.3178 111.558 28.5194 113.473 28.5194C115.287 28.5194 116.395 28.3178 117.202 28.0155L117.806 17.938C118.209 16.6279 119.016 16.0233 119.922 16.0233C120.829 16.0233 121.132 16.5271 121.132 17.3333V18.0388L120.729 21.8682C120.628 22.6744 120.628 23.783 120.628 24.5892C120.729 27.4109 121.938 29.2248 125.465 29.2248C126.977 29.2248 127.985 29.0233 128.891 28.5194C129.798 27.4109 130.403 24.7907 130 22.9768C129.597 23.0775 129.295 23.1783 128.791 23.1783C128.085 23.1783 127.783 22.6744 127.783 21.6667L127.985 16.7287C127.985 16.0233 128.085 15.5194 127.985 15.1163C127.783 11.2868 125.667 9.97675 122.845 9.87598C119.822 9.87598 118.109 11.3876 117.403 13.7054H117V10.1783ZM142.295 25.6977C141.891 26.6047 141.589 28.4186 141.488 29.3256C141.388 30.8372 140.783 32.0465 138.465 32.0465C136.853 32.0465 134.434 31.5426 132.217 30.3333C131.512 32.0465 131.612 35.3721 132.822 37.0853C134.736 37.6899 137.256 37.9923 139.07 37.9923C146.326 38.093 148.341 34.2636 148.744 29.4264L150.054 12.6977C148.039 11.1861 145.62 10.1783 142.395 10.0775C138.667 10.0775 135.543 11.0853 133.527 14.0078C132.016 16.2248 131.512 18.7442 131.612 21.3643C131.814 27.1085 134.535 28.8217 137.457 28.8217C140.078 28.8217 141.488 27.2093 141.992 25.6977H142.295ZM142.194 21.8682C141.69 22.3721 141.186 22.6744 140.581 22.5737C139.674 22.5737 138.969 22.0698 138.868 20.2558C138.868 19.2481 138.969 17.6357 139.674 16.7287C140.178 16.0233 140.884 15.7209 141.69 15.7209C141.992 15.7209 142.496 15.8217 142.798 16.0233L142.194 21.8682Z" fill="#F29D1F"/>
</g>
<defs>
<clipPath id="clip0_1851_939">
<rect width="150.961" height="39" fill="white"/>
</clipPath>
</defs>
</svg>
