<svg xmlns="http://www.w3.org/2000/svg" viewBox="0 0 71.71 40.7"><defs><style>.cls-1{opacity:0.2;}.cls-2{fill:#231f20;}.cls-3{fill:#fff;}.cls-4{fill:#f39c12;}</style></defs><title>Asset 1</title><g id="Layer_2" data-name="Layer 2"><g id="Layer_1-2" data-name="Layer 1"><g class="cls-1"><path class="cls-2" d="M1.56,40,6.08,2.5a10.84,10.84,0,0,1,5.25-.94c2.52,0,4.2.31,5.15.94L13.85,30.4H26.52A8.51,8.51,0,0,1,27.15,34,13.22,13.22,0,0,1,25.88,40Z"/><path class="cls-2" d="M38.45,23.68c0,2.73,0,6.25-.11,9H39a168.13,168.13,0,0,0,4.1-18.81c3.78-1.26,9.57-1.63,14.5-1.63l.37,13a69.77,69.77,0,0,1-.26,7.46h.58c1.78-3.25,3.62-8.77,3.62-11.56,0-.79-.36-1.05-1-1.05a1.41,1.41,0,0,0-.73.21,9.79,9.79,0,0,1,2-7.09,6.44,6.44,0,0,1,4-1.21c4,0,5.57,2.63,5.57,6.2,0,6.36-5.15,17.24-8.35,22.54a47,47,0,0,1-12.83-1.52l-.42-9.35c-.1-2.79-.1-6.41,0-9.52h-.63A90.86,90.86,0,0,1,43.91,40.7a49.26,49.26,0,0,1-13.82-1.63L28.1,14a11.6,11.6,0,0,1,6.14-1.37,10.76,10.76,0,0,1,3.95.63Z"/></g><path class="cls-3" d="M0,38.41,4.52,1A10.71,10.71,0,0,1,9.77,0c2.52,0,4.21.31,5.15,1l-2.63,27.9H25a8.46,8.46,0,0,1,.63,3.62,13.22,13.22,0,0,1-1.26,5.94Z"/><path class="cls-4" d="M36.89,22.12c.06,2.73.06,6.26-.1,9h.63a170.89,170.89,0,0,0,4.1-18.81C45.3,11,51.08,10.67,56,10.67l.37,13a72.64,72.64,0,0,1-.27,7.46h.58c1.79-3.26,3.63-8.78,3.63-11.56,0-.79-.37-1.05-1-1.05a1.33,1.33,0,0,0-.74.21,9.87,9.87,0,0,1,2-7.1,6.46,6.46,0,0,1,4-1.21c4,0,5.57,2.63,5.57,6.2C70.15,23,65,33.84,61.8,39.15A46.89,46.89,0,0,1,49,37.62l-.42-9.35c-.11-2.79-.11-6.41,0-9.51h-.63a92.08,92.08,0,0,1-5.57,20.39,49.59,49.59,0,0,1-13.82-1.63l-2-25.07a11.66,11.66,0,0,1,6.15-1.36,10.53,10.53,0,0,1,3.94.63Z"/></g></g></svg>