<?xml version="1.0" encoding="UTF-8"?>
<svg id="Layer_1" xmlns="http://www.w3.org/2000/svg" xmlns:xlink="http://www.w3.org/1999/xlink" viewBox="0 0 614.12 821.65">
  <defs>
    <style>
      .cls-1 {
        fill: #692e96;
      }

      .cls-2 {
        fill: none;
      }

      .cls-3 {
        clip-path: url(#clippath);
      }
    </style>
    <clipPath id="clippath">
      <rect class="cls-2" x="43.98" y="37.75" width="490.85" height="766.96"/>
    </clipPath>
  </defs>
  <g class="cls-3">
    <path class="cls-1" d="M440.73,303.4h-.08c0-35.73-.16-71.37,0-107.1.24-38.79-11.32-73.63-35.81-103.63-57.31-70.32-163.21-73.63-224.97-7.18-31.53,33.95-42.6,75.08-42.44,120.41.32,70.73.4,141.45,0,212.18-.16,26.45,4.85,51.45,15.6,75.65,29.43,66.29,109.78,111.13,194.09,78.79,61.52-23.63,91.11-83.79,93.29-141.05,1.62-42.58.32-85.32.32-128.07ZM416.24,430.5c-1.62,43.95-22.96,98.39-77.77,119.36-15.84,6.05-31.93,9.11-47.94,9.11v.16c-48.99,0-95.31-30.16-115.27-75.16-9.22-20.81-13.66-42.34-13.5-65.73.32-61.53.32-129.04,0-212.42-.16-44.2,11.24-77.26,35.97-103.87,24.01-25.81,56.59-40.08,91.67-40.08,37.67,0,72.92,16.77,96.76,46.05,20.61,25.32,30.56,54.19,30.39,88.23-.16,24.03-.08,48.06,0,72.1v35.08c0,13.23.16,26.53.24,39.76.24,28.79.57,58.55-.57,87.42Z"/>
    <path class="cls-1" d="M366.64,804.69c-10.57,0-21.14-.01-31.71-.04-15.33-.01-30.65-.03-46.01-.03-38.51,0-76.96,0-115.34-.07h0c-4.88,0-9.98-.63-14.79-1.84-16.83-4.33-22.15-16.36-21.52-26.17.94-12.93,11.6-23.55,24.81-24.81,8.07-.75,15.85-.75,24.08-.75,3.34.24,6.52,0,9.92-.06l14.72-.21c14.74-.25,29.05-.45,43.44-.27,4.61-.19,5.94-1.44,6.4-2.01,1.44-1.75,1.44-4.82,1.44-6.31,0-18.45.24-36.85.48-55.38.06-4.93-1.3-6.71-2.32-7.68-1.86-1.77-4.88-2.49-7.3-2.91l-.97-.16c-81.89-14.13-143.16-59.29-182.11-134.26-16.6-32.09-25.3-67.06-25.88-103.96-.16-10,2.16-17.54,6.89-22.41,4.67-4.82,11.68-7.18,21.23-6.79,6.72.24,12.25,2.78,16.46,7.53,4.09,4.61,6.76,11.29,7.71,19.34l.56,4.78c1.72,14.71,3.31,28.45,6.97,41.4,21.52,75.54,72.76,124.05,148.17,140.25,100.67,21.63,185.8-43.35,214.79-115.48,7.18-17.8,10.23-37.61,13.19-56.8l2.09-13.2c1.38-8.25,3.87-14.75,7.41-19.35,3.78-4.9,8.82-7.7,14.99-8.32,9.77-.99,17.38.7,22.58,5.07,5.35,4.52,7.97,11.68,7.81,21.3-.25,16.61-2.16,32.6-5.66,47.5-16.46,68.8-48.38,118.55-97.58,152.1-34.06,23.26-69.77,37.24-106.13,41.54-3.62.4-5.8,1.27-7.12,2.83-1.26,1.47-1.79,3.67-1.71,7.13.37,21,.37,38.5,0,55.12-.1,4.96,1.2,6.77,2.19,7.7,1.54,1.47,3.87,2.05,7.83,2.05,21.03-.24,42.07-.21,63.13-.18l21.11.03c7.99,0,19.42,1.35,26.42,13.05,5.59,9.45,5.45,19.5-.37,27.61-5.79,8.16-16.27,12.9-28.72,12.96-13.88.12-27.73.15-41.6.15ZM302.37,786.2c10.9,0,21.74.01,32.56.04,24.42.01,48.75.07,73.16-.1,7.53-.04,12.11-2.74,13.89-5.24.95-1.32,1.91-3.51-.46-7.53-1-1.68-2.42-4.04-10.6-4.04l-21.13-.03c-20.99.01-41.96-.03-62.9.18-3.12.24-13.04.15-20.66-7.04-5.48-5.15-8.17-12.4-7.98-21.51.37-16.37.37-33.64,0-54.33-.07-2.92-.28-11.98,6.11-19.49,6.64-7.74,15.94-8.79,19-9.15,33.79-3.98,65.82-16.57,97.87-38.44,45.25-30.87,74.7-77.04,90.04-141.17,3.19-13.59,4.93-28.24,5.16-43.52.08-4.73-.91-6.65-1.27-6.95,0,0-1.91-1.54-8.83-.85-1.25.13-1.63.4-2.3,1.27-.94,1.21-2.69,4.28-3.83,11.13l-1.87,11.8c-3.15,20.45-6.52,42.29-14.49,62.05-31.79,79.09-125.27,150.25-235.73,126.61-82.49-17.74-138.51-70.72-162.01-153.21-4.07-14.41-5.83-29.55-7.38-42.92l-.72-6.11c-.7-5.95-2.48-8.51-3.21-9.34-.57-.64-1.29-1.27-3.33-1.34-5.95-.19-7.36,1.19-7.38,1.21-.64.66-1.79,3.42-1.69,9.29.52,34.03,8.54,66.27,23.8,95.79,36.3,69.85,93.44,111.82,169.82,124.74l1.06.21c4.52.85,10.69,2.64,15.82,7.47,3.77,3.58,8.21,10.05,8.08,20.63-.25,19.13-.49,37.43-.49,55.81,0,3.04,0,11.13-5.61,17.96-3.33,4.07-9.41,9.51-20.89,8.75-14.19-.19-28.33.06-42.64.27l-15.01.21c-11.56.19-22.24-.22-32.54.75-4.73.45-7.93,4.36-8.17,7.73-.27,4.12,4.04,6.13,7.7,7.07,3.31.84,6.87,1.29,10.23,1.29h.03c42.91.07,86.07.01,128.77.06Z"/>
  </g>
</svg>