<?xml version="1.0" encoding="UTF-8"?>
<svg xmlns="http://www.w3.org/2000/svg" version="1.1" xmlns:xlink="http://www.w3.org/1999/xlink" viewBox="0 0 918.6 1331.3">
  <defs>
    <style>
      .cls-1 {
        fill: #692e96;
      }

      .cls-2 {
        fill: none;
      }

      .cls-3 {
        clip-path: url(#clippath);
      }
    </style>
    <clipPath id="clippath">
      <rect class="cls-2" x="44" y="53.4" width="807.1" height="1261"/>
    </clipPath>
  </defs>
  <!-- Generator: Adobe Illustrator 28.7.1, SVG Export Plug-In . SVG Version: 1.2.0 Build 142)  -->
  <g>
    <g id="Layer_1">
      <g class="cls-3">
        <g>
          <path class="cls-1" d="M696.3,490.1h-.1c0-58.7-.3-117.3,0-176.1.4-63.8-18.6-121.1-58.9-170.4-94.2-115.6-268.4-121.1-369.9-11.8-51.8,55.8-70,123.4-69.8,198,.5,116.3.7,232.6,0,348.9-.3,43.5,8,84.6,25.6,124.4,48.4,109,180.5,182.7,319.1,129.5,101.2-38.9,149.8-137.8,153.4-231.9,2.7-70,.5-140.3.5-210.6h0ZM656.1,699.1c-2.7,72.3-37.8,161.8-127.9,196.3-26,9.9-52.5,15-78.8,15v.3c-80.5,0-156.7-49.6-189.5-123.6-15.2-34.2-22.5-69.6-22.2-108.1.5-101.2.5-212.2,0-349.3-.3-72.7,18.5-127,59.1-170.8,39.5-42.4,93-65.9,150.7-65.9s119.9,27.6,159.1,75.7c33.9,41.6,50.2,89.1,50,145.1-.3,39.5-.1,79,0,118.5v57.7c0,21.8.3,43.6.4,65.4.4,47.3.9,96.3-.9,143.7h0Z"/>
          <path class="cls-1" d="M574.5,1314.4c-17.4,0-34.8,0-52.1,0-25.2,0-50.4,0-75.6,0-63.3,0-126.5,0-189.6-.1h0c-8,0-16.4-1-24.3-3-27.7-7.1-36.4-26.9-35.4-43,1.5-21.3,19.1-38.7,40.8-40.8,13.3-1.2,26.1-1.2,39.6-1.2,5.5.4,10.7,0,16.3,0l24.2-.3c24.2-.4,47.8-.7,71.4-.4,7.6-.3,9.8-2.4,10.5-3.3,2.4-2.9,2.4-7.9,2.4-10.4,0-30.3.4-60.6.8-91.1,0-8.1-2.1-11-3.8-12.6-3.1-2.9-8-4.1-12-4.8l-1.6-.3c-134.6-23.2-235.4-97.5-299.4-220.8-27.3-52.8-41.6-110.3-42.6-170.9-.3-16.4,3.6-28.8,11.3-36.8,7.7-7.9,19.2-11.8,34.9-11.2,11,.4,20.1,4.6,27.1,12.4,6.7,7.6,11.1,18.6,12.7,31.8l.9,7.9c2.8,24.2,5.4,46.8,11.5,68.1,35.4,124.2,119.6,204,243.6,230.6,165.5,35.6,305.5-71.3,353.2-189.9,11.8-29.3,16.8-61.8,21.7-93.4l3.4-21.7c2.3-13.6,6.4-24.3,12.2-31.8,6.2-8.1,14.5-12.7,24.6-13.7,16.1-1.6,28.6,1.2,37.1,8.3,8.8,7.4,13.1,19.2,12.8,35-.4,27.3-3.6,53.6-9.3,78.1-27.1,113.1-79.5,194.9-160.4,250.1-56,38.2-114.7,61.2-174.5,68.3-6,.7-9.5,2.1-11.7,4.7-2.1,2.4-2.9,6-2.8,11.7.6,34.5.6,63.3,0,90.6-.2,8.2,2,11.1,3.6,12.7,2.5,2.4,6.4,3.4,12.9,3.4,34.6-.4,69.2-.3,103.8-.3h34.7c13.1,0,31.9,2.3,43.4,21.5,9.2,15.5,9,32.1-.6,45.4-9.5,13.4-26.8,21.2-47.2,21.3-22.8.2-45.6.2-68.4.2h0ZM468.8,1284c17.9,0,35.7,0,53.5,0,40.2,0,80.2.1,120.3-.2,12.4,0,19.9-4.5,22.8-8.6,1.6-2.2,3.1-5.8-.8-12.4-1.6-2.8-4-6.6-17.4-6.6h-34.7c-34.5,0-69,0-103.4.2-5.1.4-21.4.2-34-11.6-9-8.5-13.4-20.4-13.1-35.4.6-26.9.6-55.3,0-89.3-.1-4.8-.5-19.7,10-32,10.9-12.7,26.2-14.5,31.2-15,55.6-6.5,108.2-27.2,160.9-63.2,74.4-50.8,122.8-126.7,148-232.1,5.2-22.3,8.1-46.4,8.5-71.6.1-7.8-1.5-10.9-2.1-11.4,0,0-3.1-2.5-14.5-1.4-2.1.2-2.7.7-3.8,2.1-1.5,2-4.4,7-6.3,18.3l-3.1,19.4c-5.2,33.6-10.7,69.5-23.8,102-52.3,130-206,247-387.6,208.2-135.6-29.2-227.7-116.3-266.4-251.9-6.7-23.7-9.6-48.6-12.1-70.6l-1.2-10c-1.2-9.8-4.1-14-5.3-15.4-.9-1.1-2.1-2.1-5.5-2.2-9.8-.3-12.1,2-12.1,2-1.1,1.1-2.9,5.6-2.8,15.3.9,56,14,109,39.1,157.5,59.7,114.8,153.6,183.9,279.2,205.1l1.7.3c7.4,1.4,17.6,4.3,26,12.3,6.2,5.9,13.5,16.5,13.3,33.9-.4,31.5-.8,61.5-.8,91.8s0,18.3-9.2,29.5c-5.5,6.7-15.5,15.6-34.3,14.4-23.3-.3-46.6,0-70.1.4l-24.7.3c-19,.3-36.6-.4-53.5,1.2-7.8.7-13,7.2-13.4,12.7-.4,6.8,6.6,10.1,12.7,11.6,5.4,1.4,11.3,2.1,16.8,2.1h0c70.6.1,141.5,0,211.7,0h0Z"/>
        </g>
      </g>
    </g>
  </g>
</svg>