<svg width="32" height="50" viewBox="0 0 32 50" fill="none" xmlns="http://www.w3.org/2000/svg">
<g clip-path="url(#clip0_642_121)">
<path d="M25.8654 17.3185C25.8654 20.105 25.9498 22.8915 25.8444 25.6676C25.7021 29.4005 23.7732 33.3227 19.7627 34.8631C14.266 36.9715 9.02749 34.0482 7.10917 29.7264C6.40825 28.1492 6.0815 26.5193 6.09204 24.7948C6.11839 20.1839 6.11312 15.5729 6.09204 10.962C6.0815 8.0072 6.80351 5.32581 8.85884 3.11235C12.8852 -1.21993 19.789 -1.00437 23.5255 3.58028C25.1223 5.53612 25.876 7.80741 25.8602 10.3363C25.8496 12.6655 25.8602 14.9893 25.8602 17.3185H25.8654Z" fill="#692E96"/>
<path d="M15.9636 49.9946C13.4603 49.9946 10.9518 49.9946 8.44847 49.9893C8.127 49.9893 7.79498 49.9473 7.48404 49.8684C6.56178 49.6318 6.0295 48.9641 6.0822 48.1597C6.14017 47.35 6.81474 46.6297 7.70012 46.5456C8.43266 46.4772 9.18101 46.5035 9.91883 46.493C11.1836 46.4772 12.4432 46.4457 13.708 46.4614C14.1402 46.4667 14.2192 46.2879 14.2192 45.9199C14.2192 44.7001 14.235 43.4856 14.2508 42.2659C14.2561 41.8347 14.0506 41.6928 13.6237 41.6192C8.1797 40.6991 4.21132 37.7128 1.68694 32.8547C0.601305 30.7569 0.037405 28.4646 0.000514359 26.0776C-0.020566 24.7632 0.606575 24.1323 1.83451 24.1744C2.71988 24.2059 3.28378 24.8684 3.41026 25.9252C3.53148 26.9346 3.62634 27.9651 3.90038 28.9378C5.3075 33.8747 8.59603 37.0135 13.5605 38.0808C19.7792 39.4162 25.513 35.6518 27.5631 30.5519C28.1375 29.1271 28.3009 27.5287 28.5591 25.9883C28.7331 24.9473 29.1863 24.269 30.019 24.1849C31.2838 24.0535 32.0216 24.6265 32.0005 25.9041C31.9847 26.9399 31.8688 27.9914 31.6316 29.0009C30.6672 33.0335 28.7858 36.5193 25.2706 38.9168C23.1836 40.3416 20.8912 41.3247 18.351 41.6244C17.8925 41.677 17.766 41.8453 17.7765 42.2764C17.7976 43.4751 17.8029 44.6686 17.7765 45.8673C17.766 46.3563 17.9504 46.5088 18.43 46.5035C20.2587 46.4825 22.0927 46.493 23.9215 46.493C24.6329 46.493 25.2548 46.6928 25.6448 47.3447C26.4037 48.6276 25.4551 49.9788 23.7475 49.9893C21.1547 50.0103 18.5618 49.9893 15.9689 49.9946H15.9636Z" fill="#692E96"/>
</g>
<defs>
<clipPath id="clip0_642_121">
<rect width="32" height="50" fill="white"/>
</clipPath>
</defs>
</svg>
