<svg width="172" height="161" viewBox="0 0 172 161" fill="none" xmlns="http://www.w3.org/2000/svg">
<g filter="url(#filter0_d_1938_196)">
<path d="M169.334 32.0957C157.118 23.6516 144.913 15.1376 131.263 9.13298C110.839 0.151733 89.8563 -3.63429 68.1895 4.40872C51.6416 10.5495 39.0835 22.018 28.6693 35.9075C16.1628 52.5896 7.89613 71.3468 5.10506 91.9584C1.78444 116.496 5.70445 139.882 20.1784 160.725C55.477 160.791 90.7793 160.861 126.078 160.916C128.119 160.916 130.16 160.78 132.201 160.707C133.035 158.098 129.715 156.096 131.149 153.403C134.951 145.511 141.784 144.72 146.531 151.637C148.23 155.173 143.986 157.417 144.56 160.703C152.764 160.957 160.968 161.295 169.165 160.523C170.228 158.782 169.691 156.858 169.695 155.029C169.739 131.846 169.717 108.666 169.728 85.5012C169.798 83.6946 169.224 82.7968 167.407 84.0405C166.003 85.0008 164.973 86.3989 163.627 87.4438C158.931 91.0864 151.19 91.5205 145.825 88.4336C140.982 85.6483 138.544 80.42 139.438 74.706C144.979 63.3884 156.342 61.3243 165.407 69.9928C167.26 71.7638 168.702 71.949 169.731 70.5484C169.47 57.7185 170.235 44.8924 169.327 32.0846L169.342 32.0994L169.334 32.0957Z" fill="#EAEAEA"/>
<path d="M130.138 153.543C127.718 156.825 131.318 158.378 132.201 160.707C136.319 160.707 140.442 160.707 144.56 160.707C146.219 157.848 149.804 155.637 147.638 151.497C141.173 145.581 135.974 146.192 130.138 153.543Z" fill="#DADADA"/>
<path d="M168.952 83.8969C169.022 109.439 169.095 134.984 169.165 160.526C170.452 159.445 169.867 157.973 169.867 156.689C169.901 116.481 169.897 76.2734 169.886 36.0693C169.886 34.7264 170.165 33.3172 169.32 32.0809C169.209 45.3596 169.099 58.6383 168.989 71.9207C167.275 73.8156 167.966 76.1998 167.665 78.3853C167.565 80.3464 167.536 82.2927 168.952 83.8969Z" fill="#CBCBCB"/>
<path d="M168.952 83.8969C168.963 82.0793 168.978 80.2581 168.989 78.4405C166.131 67.5828 152.294 63.3589 143.071 70.5005C141.468 71.7405 140.357 73.5801 138.368 74.3417C136.705 78.9961 138.897 85.3724 143.13 88.555C149.469 93.3234 162.178 94.4861 168.948 83.8933L168.952 83.8969Z" fill="#DADADA"/>
<path d="M24.2822 108.291C21.7375 112.559 23.6828 116.301 26.0731 119.631C29.7357 124.734 35.3032 127.052 41.2751 126.544C47.3317 126.029 52.9727 123.7 55.3483 117.092C56.2933 114.461 56.9001 111.864 55.1386 109.317C50.1412 104.435 44.3494 101.79 37.2154 103.026C31.578 104.004 27.1653 106.624 24.9221 111.551C24.9736 110.9 25.7274 109.384 24.2859 108.291L24.2822 108.291Z" fill="#DADADA"/>
<path d="M88.0214 36.2901C89.3378 41.5331 92.7394 45.2162 97.792 46.342C102.635 47.4201 107.629 47.0411 111.229 42.4309C114.27 38.5382 114.59 34.502 112.693 30.1125C109.445 28.4016 106.724 25.7746 102.642 25.6348C94.2985 25.3515 89.9924 28.3317 88.0214 36.2901Z" fill="#DADADA"/>
<path d="M24.2822 108.291L24.2823 113.718C31.1442 103.979 40.5912 101.44 49.608 106.51C51.1893 107.401 52.1197 108.747 53.2707 109.98C54.293 111.076 54.9806 110.837 55.1351 109.314C52.6014 102.36 47.2251 99.5157 40.2419 99.0447C32.8652 98.5444 27.4081 101.422 24.2787 108.291L24.2822 108.291Z" fill="#D3D3D3"/>
<path d="M138.371 74.3417C140.037 75.1659 140.144 75.2616 141.298 73.9701C148.646 65.7505 157.512 67.3694 164.465 72.4211C166.69 74.0363 167.341 76.5493 168.989 78.4368C168.989 76.266 168.989 74.0952 168.989 71.9207C160.354 59.5619 147.634 62.1411 141.501 68.6204C139.938 70.2724 138.647 72.0127 138.368 74.3417L138.371 74.3417Z" fill="#D1D1D1"/>
<path d="M88.0214 36.2901C93.7837 25.7599 100.521 24.1189 110.78 30.8263C111.983 31.6137 112.545 31.6762 112.693 30.1125C109.835 23.9644 103.514 20.6383 97.3617 22.0474C90.816 23.5486 87.9624 27.8939 88.025 36.2865L88.0214 36.2901Z" fill="#D3D3D3"/>
<path d="M76.7136 71.3615C76.7209 75.5302 80.8101 80.3979 84.2374 80.5046C86.7453 80.5819 87.9919 79.434 88.0066 76.8768C88.0287 72.9767 83.5902 67.5387 80.093 67.5203C77.5924 67.5056 76.4929 69.0435 76.7136 71.3615Z" fill="#DBDBDB"/>
<path d="M130.138 153.543C131.921 154.695 131.906 152.719 132.609 152.075C137.095 147.995 140.784 147.774 145.95 151.372C146.524 151.773 147.02 152.193 147.638 151.497C146.561 147.064 143.1 145.356 139.235 145.724C134.767 146.151 130.557 147.91 130.134 153.543L130.138 153.543Z" fill="#D3D3D3"/>
<path d="M117.951 140.761C118.308 142.527 119.359 143.241 120.908 143.178C122.838 143.105 123.673 141.721 123.566 140.095C123.452 138.38 121.915 138.082 120.474 138.219C118.911 138.366 118.058 139.311 117.955 140.761L117.951 140.761Z" fill="#DBDBDB"/>
<path d="M157.846 104.082C157.751 102.834 157.412 101.661 155.964 101.528C154.757 101.418 154.022 102.268 154.206 103.408C154.401 104.63 155.331 105.572 156.541 105.771C157.6 105.943 157.828 104.983 157.85 104.082L157.846 104.082Z" fill="#DDDDDD"/>
<path d="M157.615 44.9623C156.739 45.2346 156.18 45.7975 156.063 46.7136C155.938 47.6997 156.386 48.3951 157.387 48.4025C158.376 48.4135 158.821 47.6997 158.85 46.7468C158.88 45.8527 158.703 45.0874 157.618 44.9623L157.615 44.9623Z" fill="#DDDDDD"/>
</g>
<defs>
<filter id="filter0_d_1938_196" x="0" y="0" width="174" height="169" filterUnits="userSpaceOnUse" color-interpolation-filters="sRGB">
<feFlood flood-opacity="0" result="BackgroundImageFix"/>
<feColorMatrix in="SourceAlpha" type="matrix" values="0 0 0 0 0 0 0 0 0 0 0 0 0 0 0 0 0 0 127 0" result="hardAlpha"/>
<feOffset dy="4"/>
<feGaussianBlur stdDeviation="2"/>
<feComposite in2="hardAlpha" operator="out"/>
<feColorMatrix type="matrix" values="0 0 0 0 0 0 0 0 0 0 0 0 0 0 0 0 0 0 0.25 0"/>
<feBlend mode="normal" in2="BackgroundImageFix" result="effect1_dropShadow_1938_196"/>
<feBlend mode="normal" in="SourceGraphic" in2="effect1_dropShadow_1938_196" result="shape"/>
</filter>
</defs>
</svg>
