<svg width="666" height="739" viewBox="0 0 666 739" fill="none" xmlns="http://www.w3.org/2000/svg">
<path opacity="0.98" d="M30.2276 684.5C30.2276 725.131 172.545 738.587 348.099 738.587C523.655 738.587 665.971 725.13 665.971 684.5C665.971 643.868 523.656 591.452 348.099 591.452C172.545 591.452 30.2276 643.869 30.2276 684.5Z" fill="#EBEBEB"/>
<path d="M270.005 606.384C276.041 606.304 278.06 603.383 279.135 598.742C284.768 574.431 291.462 550.286 295.971 525.802C317.018 411.55 296.444 301.65 253.727 194.22C253.124 192.7 251.692 191.46 250.607 190.034C240.358 197.88 245.449 216.643 226.005 217.148L239.2 221.494C229.665 232.531 236.623 251.958 214.215 254.13C218.798 258.776 231.319 255.215 226.635 267.646C223.523 275.905 215.126 274.964 208.98 279.296C211.395 280.285 212.672 281.228 213.991 281.279C224.459 281.673 225.186 287.625 224.73 295.459C223.494 316.615 223.643 337.741 230.59 358.292C230.885 359.15 230.447 360.216 230.21 362.592C225.177 359.728 220.802 357.726 217.031 355.011C190.119 335.613 173.345 310.123 165.742 279.704C157.152 245.335 168.828 217.425 199.784 196.707C208.118 191.129 217.345 186.688 225.372 182.171C219.861 178.654 213.991 174.904 207.045 170.474C207.458 173.228 207.34 174.639 207.889 175.777C211.514 183.289 207.931 186.314 200.339 189.322C185.702 195.122 171.573 202.067 157.485 208.975C142.264 216.441 142.397 216.655 132.815 203.584C132.573 203.251 131.823 203.23 130.895 202.929C130.366 204.761 129.203 206.614 129.446 208.295C131.297 221.194 121.792 226.92 111.648 231.852C109.566 232.862 105.391 231.982 103.2 230.602C100.218 228.723 98.217 225.524 95.7937 222.894C94.3089 229.107 94.8317 234.412 94.7404 239.708C94.697 242.511 94.6283 246.3 92.7863 247.923C81.1739 258.155 69.0612 267.902 56.1636 278.596C56.1636 274.636 55.8206 271.743 56.2145 268.938C60.9141 235.793 74.4571 206.024 97.1175 179.919C117.245 156.731 143.725 145.262 175.895 144.871C182.176 144.795 188.457 144.86 194.735 144.86L195.213 143.471C176.373 138.787 157.53 134.103 138.755 129.433C139.403 121.029 140.033 112.8 140.668 104.572L138.174 104.157C134.35 108.434 130.761 112.918 126.611 116.9C124.553 118.871 121.189 121.458 118.869 121.124C105.516 119.202 92.2982 116.489 78.7006 113.98C79.5335 109.82 80.162 106.671 80.8837 103.078C78.8881 103.349 77.9893 103.324 77.2233 103.606C75.8826 104.102 74.2563 104.497 73.3942 105.436C64.2051 115.421 52.0048 113.966 39.7922 113.525C27.2159 113.072 14.6086 113.425 0 113.425C28.0667 86.1635 58.8017 66.05 97.8939 60.4185C159.935 51.4796 210.322 69.0814 244.659 120.812C254.763 51.6826 274.713 23.0243 323.519 7.39243C355.366 -2.80663 386.744 -1.81988 417.558 10.7476C401.786 20.9657 387.272 30.6137 372.396 39.7609C370.093 41.1772 366.054 40.7876 362.954 40.3736C358.308 39.7531 353.78 38.3689 347.469 36.9074C348.894 40.5272 349.101 42.5276 350.264 43.7556C355.666 49.4418 353.21 53.467 348.005 57.9304C340.808 64.1008 334.504 71.1565 327.291 77.3044C324.86 79.3742 320.915 80.3272 317.485 80.9095C312.946 81.6793 308.236 81.5855 302.898 81.9066C305.795 89.6731 309.9 89.7399 315.816 87.9738C342.64 79.9644 370.209 76.5294 398.186 80.4096C443.292 86.6651 481.436 106.188 514.506 134.632C516.519 136.365 518.118 138.5 521.25 141.909C516.927 141.282 514.755 140.94 512.571 140.658C496.783 138.624 481.046 135.896 465.181 134.849C456.108 134.25 448.174 133.296 441.713 126.804C439.323 124.399 435.78 122.963 431.466 120.282C431.81 126.728 432.066 131.566 432.339 136.663C418.686 137.298 405.997 138.092 393.301 138.255C391.412 138.28 388.961 135.637 387.674 133.714C385.412 130.324 383.842 126.536 381.388 121.76C375.118 131.124 378.072 143.706 361.675 145.68C367.092 147.417 370.042 148.396 373.014 149.312C403.347 158.653 426.403 176.003 441.005 202.348C459.11 235.009 463.52 270.036 461.358 306.109C461.321 306.739 460.528 307.332 460.156 307.843C450.496 297.663 440.661 287.88 431.658 277.486C428.72 274.091 427.311 269.224 426.34 264.82C425.255 259.869 425.454 254.679 425.098 249.591L423.232 249.558L417.244 259.558C403.756 249.544 390.719 239.862 377.677 230.181C376.548 229.342 374.835 228.714 374.388 227.64C373.433 225.333 372.741 222.813 372.633 220.354C372.383 214.792 372.554 209.213 372.554 201.943C367.502 205.865 363.956 208.198 360.967 211.032C355.732 215.998 350.616 214.058 345.179 211.551C339.71 209.028 333.909 207.256 334.529 199.734C334.877 195.521 333.575 191.194 333.021 186.947C330.832 187.205 330.21 187.157 329.715 187.363C328.932 187.691 328.07 188.06 327.524 188.638C320.671 195.853 313.499 194.582 305.061 190.601C295.934 186.299 286.012 183.43 276.437 179.935C276.093 180.455 275.746 180.976 275.402 181.497C276.055 182.591 276.603 183.753 277.375 184.769C309.305 226.693 328.905 273.786 344.88 322.317C362.873 376.984 374.643 432.852 381.125 489.642C385.87 531.196 388.059 572.848 384.07 614.578C383.522 620.325 385.136 622.931 391.225 625.154C392.655 625.673 394.087 626.189 395.517 626.705C347.79 624.983 301.762 618.073 258.284 606.67C262.183 606.537 266.091 606.435 270.005 606.384ZM206.821 131.493C199.23 144.238 199.813 146.804 210.303 147.81C209.233 142.777 208.237 138.127 206.821 131.493ZM319.694 145.62C315.411 140.399 312.65 137.036 308.3 131.733L305.755 147.798C310.326 147.084 313.777 146.546 319.694 145.62Z" fill="#EBEBEB" fill-opacity="0.45"/>
</svg>
