<svg width="1440" height="772" viewBox="0 0 1440 772" fill="none" xmlns="http://www.w3.org/2000/svg">
<path opacity="0.2" d="M1247.99 505.915C1356.75 474.699 1503.7 400.06 1524.5 300V816.709C1154.41 890.882 433.08 994.723 508.48 816.709C602.73 594.192 1003.52 576.079 1247.99 505.915Z" fill="#D9D9D9"/>
<path d="M179.005 605.929C185.041 605.849 187.06 602.928 188.135 598.287C193.768 573.976 200.462 549.831 204.971 525.347C226.018 411.095 205.444 301.195 162.727 193.765C162.124 192.245 160.692 191.005 159.607 189.579C149.358 197.425 154.449 216.188 135.005 216.693L148.2 221.039C138.665 232.076 145.623 251.503 123.215 253.675C127.798 258.321 140.319 254.76 135.635 267.191C132.523 275.45 124.126 274.509 117.98 278.841C120.395 279.83 121.672 280.773 122.991 280.825C133.459 281.218 134.186 287.17 133.73 295.004C132.494 316.16 132.643 337.287 139.59 357.837C139.885 358.695 139.447 359.761 139.21 362.137C134.177 359.273 129.802 357.272 126.031 354.556C99.1186 335.159 82.3449 309.668 74.7424 279.249C66.1525 244.881 77.8281 216.97 108.784 196.252C117.118 190.674 126.345 186.233 134.372 181.716C128.86 178.2 122.991 174.45 116.045 170.019C116.458 172.773 116.34 174.184 116.889 175.322C120.514 182.834 116.931 185.859 109.339 188.867C94.7016 194.667 80.5726 201.612 66.4851 208.52C51.2641 215.986 51.397 216.2 41.815 203.129C41.5728 202.796 40.8228 202.776 39.8948 202.474C39.3662 204.306 38.2026 206.159 38.4457 207.84C40.2971 220.739 30.7923 226.465 20.6478 231.398C18.5656 232.407 14.3908 231.527 12.2002 230.147C9.21822 228.268 7.21701 225.069 4.79372 222.439C3.30884 228.652 3.83175 233.957 3.74036 239.253C3.69702 242.056 3.62825 245.845 1.78628 247.469C-9.82613 257.701 -21.9388 267.447 -34.8364 278.141C-34.8364 274.181 -35.1793 271.288 -34.7855 268.483C-30.0859 235.338 -16.5429 205.569 6.11751 179.464C26.2454 156.276 52.7255 144.807 84.8954 144.417C91.176 144.34 97.4565 144.405 103.735 144.405L104.213 143.016C85.373 138.332 66.5303 133.648 47.7554 128.978C48.4027 120.574 49.033 112.345 49.6681 104.118L47.1741 103.702C43.3498 107.979 39.761 112.463 35.6107 116.445C33.553 118.416 30.1893 121.003 27.8687 120.669C14.5161 118.747 1.29823 116.034 -12.2994 113.525C-11.4665 109.366 -10.838 106.216 -10.1163 102.623C-12.1119 102.894 -13.0107 102.869 -13.7767 103.151C-15.1174 103.647 -16.7437 104.042 -17.6058 104.981C-26.7949 114.966 -38.9952 113.511 -51.2078 113.07C-63.7841 112.617 -76.3915 112.97 -91 112.97C-62.9333 85.7086 -32.1983 65.5951 6.89387 59.9636C68.9348 51.0247 119.322 68.6266 153.659 120.357C163.763 51.2278 183.713 22.5694 232.519 6.93754C264.366 -3.26152 295.744 -2.27476 326.558 10.2927C310.786 20.5108 296.272 30.1588 281.396 39.306C279.093 40.7224 275.054 40.3327 271.954 39.9187C267.308 39.2982 262.78 37.914 256.469 36.4525C257.894 40.0723 258.101 42.0727 259.264 43.3008C264.666 48.987 262.21 53.0121 257.005 57.4755C249.808 63.6459 243.504 70.7016 236.291 76.8495C233.86 78.9194 229.915 79.8723 226.485 80.4546C221.946 81.2244 217.236 81.1307 211.898 81.4518C214.795 89.2182 218.9 89.285 224.816 87.519C251.64 79.5095 279.209 76.0745 307.186 79.9547C352.292 86.2102 390.436 105.733 423.506 134.178C425.519 135.91 427.118 138.046 430.25 141.454C425.927 140.827 423.755 140.485 421.571 140.203C405.783 138.169 390.046 135.441 374.181 134.395C365.108 133.795 357.174 132.841 350.713 126.349C348.323 123.944 344.78 122.508 340.466 119.827C340.81 126.273 341.066 131.111 341.339 136.208C327.686 136.844 314.997 137.637 302.301 137.8C300.412 137.825 297.961 135.182 296.674 133.259C294.412 129.87 292.842 126.081 290.388 121.306C284.118 130.669 287.072 143.251 270.675 145.225C276.092 146.962 279.042 147.941 282.014 148.857C312.347 158.198 335.403 175.548 350.005 201.893C368.11 234.554 372.52 269.581 370.358 305.654C370.321 306.284 369.528 306.877 369.156 307.388C359.496 297.208 349.661 287.425 340.658 277.031C337.72 273.636 336.311 268.769 335.34 264.365C334.255 259.414 334.454 254.224 334.098 249.136L332.232 249.103L326.244 259.103C312.756 249.089 299.719 239.407 286.677 229.726C285.548 228.887 283.835 228.259 283.388 227.185C282.433 224.878 281.741 222.358 281.633 219.899C281.383 214.337 281.554 208.759 281.554 201.488C276.502 205.41 272.956 207.743 269.967 210.577C264.732 215.543 259.616 213.603 254.179 211.097C248.71 208.573 242.909 206.802 243.529 199.279C243.877 195.066 242.575 190.739 242.021 186.492C239.832 186.75 239.21 186.702 238.715 186.908C237.932 187.237 237.07 187.605 236.524 188.183C229.671 195.398 222.499 194.127 214.061 190.147C204.934 185.844 195.012 182.975 185.437 179.481C185.093 180 184.746 180.521 184.402 181.042C185.055 182.136 185.603 183.298 186.375 184.314C218.305 226.238 237.905 273.331 253.88 321.862C271.873 376.529 283.643 432.397 290.125 489.187C294.87 530.741 297.059 572.393 293.07 614.123C292.522 619.87 294.136 622.477 300.225 624.699C301.655 625.218 303.087 625.734 304.517 626.25C256.79 624.528 210.762 617.618 167.284 606.215C171.183 606.082 175.091 605.98 179.005 605.929ZM115.821 131.038C108.23 143.783 108.813 146.349 119.303 147.355C118.233 142.322 117.237 137.672 115.821 131.038ZM228.694 145.165C224.411 139.944 221.65 136.581 217.3 131.278L214.755 147.343C219.326 146.629 222.777 146.091 228.694 145.165Z" fill="#EBEBEB" fill-opacity="0.45"/>
<path opacity="0.98" d="M-71.25 696.049C-71.25 736.68 71.0676 750.135 246.622 750.135C422.177 750.135 564.494 736.679 564.494 696.049C564.494 655.416 422.178 603 246.622 603C71.0676 603 -71.25 655.417 -71.25 696.049Z" fill="#EBEBEB"/>
</svg>
