<svg width="11" height="25" viewBox="0 0 11 25" fill="none" xmlns="http://www.w3.org/2000/svg">
<g id="objects" clip-path="url(#clip0_1954_10945)">
<path id="Vector" d="M0.000215668 12.52C0.000215692 12.25 0.440216 11.65 0.440216 11.65L1.05022 10.78L8.27022 0.459972C8.47022 0.179972 8.78022 0.0399741 9.09022 0.0399741C9.29022 0.0399741 9.49022 0.0899734 9.67022 0.219973C10.1202 0.529972 10.2302 1.15997 9.91022 1.60997L2.27022 12.52L9.91021 23.43C10.2302 23.88 10.1202 24.5 9.67021 24.82C9.21021 25.14 8.59021 25.03 8.27021 24.57L1.05022 14.26L0.440216 13.39C0.440216 13.39 0.000215644 12.79 0.000215668 12.52Z" fill="#8A37CB"/>
</g>
<defs>
<clipPath id="clip0_1954_10945">
<rect width="10.09" height="24.96" fill="white" transform="translate(10.0898 25) rotate(-180)"/>
</clipPath>
</defs>
</svg>
