<svg width="12" height="12" viewBox="0 0 12 12" fill="none" xmlns="http://www.w3.org/2000/svg">
<path d="M6.2742 0.598877C7.04352 0.613045 7.81283 0.624379 8.58215 0.644214C9.13186 0.659799 9.66882 0.750473 10.1689 0.98991C10.9213 1.34977 11.4256 1.93065 11.692 2.7198C11.8323 3.1335 11.8847 3.55996 11.9017 3.99349C11.9527 5.28135 11.9343 6.57062 11.9229 7.8599C11.9187 8.26793 11.9017 8.67738 11.8563 9.08258C11.7557 9.98791 11.3789 10.7501 10.628 11.2984C10.2185 11.5974 9.75383 11.7603 9.25937 11.8439C8.76633 11.9275 8.26762 11.9346 7.77033 11.9374C6.74599 11.9445 5.72166 11.9445 4.69732 11.9374C4.2227 11.9332 3.74808 11.9261 3.27771 11.8467C2.54523 11.7235 1.90909 11.4189 1.4118 10.8507C1.03494 10.4186 0.822418 9.9114 0.714742 9.3546C0.628318 8.91257 0.615568 8.46345 0.612734 8.01433C0.60565 6.91207 0.602816 5.80981 0.608483 4.70755C0.611317 4.23293 0.621234 3.75831 0.699158 3.28793C0.840836 2.4407 1.2262 1.73939 1.93601 1.23501C2.36246 0.931821 2.847 0.771725 3.35988 0.698052C3.93368 0.615878 4.51314 0.620129 5.09119 0.613045C5.48506 0.608795 5.87892 0.613045 6.2742 0.613045V0.598877ZM6.2572 10.94C6.2572 10.9301 6.2572 10.9187 6.2572 10.9088C6.87776 10.9088 7.49831 10.9145 8.11886 10.906C8.50847 10.9003 8.89809 10.8876 9.27921 10.7969C9.83175 10.6665 10.2695 10.3761 10.5586 9.87881C10.7187 9.60396 10.8122 9.30077 10.8363 8.98624C10.8717 8.51162 10.9 8.03416 10.9043 7.55812C10.9128 6.58763 10.9071 5.61713 10.8986 4.64805C10.8943 4.20459 10.8915 3.75972 10.798 3.32335C10.6549 2.6518 10.2922 2.15167 9.6504 1.87823C9.35004 1.74931 9.03127 1.69547 8.70682 1.67563C7.6414 1.61188 6.57315 1.63455 5.50631 1.63455C5.0246 1.63455 4.54289 1.64871 4.0626 1.66288C3.75375 1.67138 3.4463 1.70255 3.14594 1.78614C2.59907 1.93916 2.18395 2.25793 1.92468 2.76656C1.75041 3.10942 1.67957 3.48062 1.66399 3.86031C1.64274 4.41003 1.62432 4.95974 1.62432 5.50945C1.62432 6.50262 1.63424 7.4972 1.65407 8.49037C1.65974 8.75814 1.69516 9.02733 1.75041 9.28943C1.87651 9.8859 2.20662 10.3407 2.75633 10.6198C3.08927 10.7898 3.45197 10.8649 3.82175 10.8776C4.63357 10.9046 5.44539 10.9202 6.25579 10.94H6.2572Z" fill="#333333"/>
<path d="M9.17748 6.2872C9.16614 7.90517 7.86128 9.19444 6.25607 9.18877C4.6296 9.1831 3.35308 7.86408 3.35449 6.27586C3.35591 4.66073 4.6636 3.36154 6.27449 3.36721C7.8882 3.37287 9.17748 4.67915 9.17606 6.2872H9.17748ZM6.26457 8.16444C7.30732 8.16444 8.15031 7.32429 8.15314 6.2787C8.15598 5.24161 7.31016 4.39154 6.27449 4.39012C5.22465 4.39012 4.37883 5.23028 4.37883 6.27586C4.37883 7.32003 5.2204 8.16302 6.26457 8.16444Z" fill="#333333"/>
<path d="M8.60938 3.2511C8.60938 2.87707 8.9154 2.57104 9.29085 2.57104C9.66205 2.57104 9.97374 2.88132 9.97232 3.25252C9.97232 3.63222 9.66771 3.93399 9.2866 3.93541C8.9154 3.93541 8.60938 3.62797 8.60938 3.25252V3.2511Z" fill="#333333"/>
</svg>
