<svg width="125" height="106" viewBox="0 0 125 106" fill="none" xmlns="http://www.w3.org/2000/svg">
<g clip-path="url(#clip0_3544_406)">
<path d="M96.6748 37.358C96.6748 37.358 101.943 27.5159 103.788 27.7399C105.633 27.9639 105.812 30.6522 105.276 35.6106C101.705 36.5963 96.6748 37.358 96.6748 37.358Z" fill="url(#paint0_linear_3544_406)"/>
<path d="M80.4849 37.4627C80.4849 37.4627 99.7709 34.2069 103.744 35.103C101.78 37.403 84.5325 41.0919 84.5325 41.0919L80.4849 37.4627Z" fill="#F29D1F"/>
<path d="M57.8798 71.2303C57.8798 71.2303 57.6864 73.4108 59.3977 74.3517C60.618 74.6654 62.865 74.3816 62.8055 73.5751C62.746 72.7686 60.618 69.4979 60.618 69.4979L57.8798 71.2303Z" fill="#231F20"/>
<path d="M80.8731 40.6737C80.8731 40.6737 110.144 31.7576 124.579 32.3998C119.133 40.6438 93.9983 64.4799 62.986 75.3226C60.3967 73.2168 58.6407 68.4377 58.6407 68.4377L77.3165 44.497L80.8731 40.6737Z" fill="url(#paint1_linear_3544_406)"/>
<path opacity="0.7" d="M120.678 32.6536C112.954 32.6237 100.901 35.4016 91.466 37.9704C100.038 36.5366 110.826 35.1029 118.565 35.3717C119.443 34.3412 120.157 33.4302 120.678 32.6536Z" fill="#F6F6F6"/>
<path d="M77.9413 69.1098C72.9561 71.6039 67.9411 73.7396 63.0155 75.4571C62.9708 75.472 62.9113 75.472 62.8667 75.4272C60.2773 73.3214 58.5511 68.6767 58.4767 68.4825C58.4618 68.4377 58.4618 68.378 58.5065 68.3332L77.1823 44.3925L80.7538 40.5543C80.7687 40.5393 80.7984 40.5244 80.8133 40.5095C81.111 40.4199 110.263 31.5933 124.564 32.2206C124.623 32.2206 124.668 32.2505 124.683 32.2953C124.713 32.3401 124.698 32.3998 124.668 32.4446C120.144 39.3595 101.766 57.1768 77.9413 69.1098ZM63.0006 75.1584C67.8816 73.4558 72.8668 71.3201 77.8073 68.8409C101.32 57.0573 119.519 39.5536 124.296 32.5342C110.189 32.0265 82.1526 40.4348 80.9473 40.8082L77.4056 44.6016L58.8041 68.4676C59.0422 69.0799 60.694 73.2169 63.0006 75.1584Z" fill="#676767"/>
<path d="M80.8121 43.9145C80.8121 43.9145 83.1931 41.525 85.9461 42.5853C88.9521 43.7055 87.2854 49.3508 83.9371 49.3658C80.5889 49.3807 80.827 46.2444 80.827 46.2444L80.8121 43.9145ZM90.3509 42.8542C90.1426 41.8087 90.5295 40.4945 92.5533 40.2256C94.5772 39.9568 95.0534 42.9736 93.2676 43.8399C91.9879 44.5418 90.5593 43.8996 90.3509 42.8542ZM97.9998 40.823C97.5683 40.4496 97.479 39.7776 98.357 39.21C99.4582 38.5977 100.351 39.4191 100.053 40.2854C99.7409 41.1516 98.5653 41.3159 97.9998 40.823Z" fill="#7A7A7A" stroke="#676767" stroke-width="0.786991" stroke-miterlimit="10"/>
<path d="M21.6897 93.5731L27.3296 91.2432L27.285 91.2731L32.672 88.4056L32.6869 88.3907C32.6869 88.3907 32.7017 88.3906 32.7017 88.3757L38.3417 86.0459L38.3119 86.0608L43.6989 83.1933L49.3389 80.8635L43.818 83.4621H43.8328L38.5947 86.5835H38.5649L33.044 89.1822L33.0886 89.1673L27.8505 92.2887C27.8356 92.2887 27.8356 92.3036 27.8207 92.3036L27.791 92.3185L22.2701 94.9172C21.898 95.0964 21.4516 94.9321 21.273 94.5588C21.0944 94.1854 21.2581 93.7373 21.6302 93.5581C21.6599 93.588 21.6748 93.5731 21.6897 93.5731ZM21.8534 88.8686L26.66 87.0764L26.6153 87.1062L31.1839 84.7615L31.1987 84.7465L36.0054 82.9543L31.3922 85.2095L31.422 85.1946L27.0915 87.9725H27.0767L27.032 87.9874L22.4189 90.2426C22.0468 90.4218 21.6004 90.2724 21.4218 89.8991C21.2432 89.5257 21.3921 89.0777 21.7641 88.8984C21.8087 88.8835 21.8236 88.8686 21.8534 88.8686Z" fill="#2B1B0F"/>
<path opacity="0.4" d="M61.7645 73.6201C62.2109 74.2175 62.7169 74.7552 63.2526 75.2032C94.2649 64.3605 119.399 40.5244 124.846 32.2803C124.176 32.2505 123.477 32.2355 122.762 32.2505C114.34 42.4211 90.5446 63.3748 61.7645 73.6201Z" fill="url(#paint2_linear_3544_406)"/>
<path opacity="0.2" d="M82.2565 46.3192C82.3011 44.2582 82.0184 42.9887 82.0184 42.9887C82.0184 42.9887 81.438 42.1673 80.6196 40.9576L77.3011 44.5121L58.6252 68.4527C58.6252 68.4527 59.4288 70.6183 60.7383 72.6942C62.0925 72.0072 63.3872 71.2903 64.6223 70.5735C68.5658 68.2436 71.8397 65.7794 74.0123 63.7482C77.3159 60.6716 79.3249 57.4606 80.5303 54.5035C81.8547 51.2925 82.2118 48.3952 82.2565 46.3192ZM101.2 54.5782C101.156 50.8445 100.337 48.5296 98.2389 49.8588C93.6257 53.1743 91.4679 54.6529 91.1405 59.9996C91.0661 60.5372 91.0066 61.0599 90.962 61.5976C94.5781 59.3126 98.0156 56.9379 101.2 54.5782Z" fill="#231F20"/>
<path d="M92.4501 69.0349C97.4948 61.7915 103.909 48.3501 98.5663 49.6047C93.1198 51.1878 90.59 51.8748 88.5066 56.7883C82.3458 68.8707 83.2684 82.2523 92.4501 69.0349Z" fill="url(#paint3_linear_3544_406)"/>
<path d="M115.768 32.7133C115.768 32.7133 115.485 36.1035 119.102 39.1502C121.75 36.3724 123.7 33.9977 124.846 32.2653C122.197 32.1458 119.102 32.325 115.768 32.7133Z" fill="url(#paint4_radial_3544_406)"/>
<path d="M28.0884 74.1725C39.5171 79.8029 54.175 74.6653 64.3984 68.6316C68.3419 66.3018 71.6157 63.8375 73.7884 61.8064C77.092 58.7298 79.101 55.5188 80.3063 52.5617C81.6159 49.3656 81.9879 46.4682 82.0177 44.3923C82.0623 42.3313 81.7796 41.0469 81.7796 41.0469C81.7796 41.0469 74.5325 30.6373 74.1455 29.6516C73.6098 29.0243 72.7318 28.5165 72.1663 28.3224C71.6009 28.1282 70.9461 27.9938 69.9937 28.3672C68.8478 28.8301 66.9579 29.6068 66.3627 29.8308C65.7823 30.0399 61.6007 31.5035 57.4935 32.8775C54.7703 33.7885 49.8148 35.9242 47.0916 36.9248C38.9516 39.8969 37.2849 40.1807 37.8355 41.1216C38.3861 42.0624 42.538 40.6138 42.538 40.6138C42.538 40.6138 37.5825 43.2423 37.6867 44.5715C37.7462 45.4527 38.9218 45.0196 39.7254 44.6312C40.1421 44.3923 40.4397 44.2429 40.4397 44.2429C40.4397 44.2429 40.1272 44.4371 39.7254 44.6312C39.0855 44.9897 38.148 45.5721 37.4337 46.1546C36.7938 46.6773 36.3474 47.2 36.4367 47.6033C37.0319 49.6792 43.907 47.7078 48.4309 44.4371C52.9548 41.1664 54.5619 39.6579 56.9727 39.3144C60.693 38.7469 63.8627 45.7215 59.19 50.0227C54.5173 54.324 43.4159 58.3265 35.6777 56.5194C27.9842 54.7123 23.1478 50.8143 21.4662 49.2611C21.243 49.2611 20.7817 49.4253 20.618 49.5448H20.6329C19.4573 53.1591 19.6954 59.1629 19.7995 60.5369C19.8591 61.3882 20.2311 64.7784 22.2103 68.2433C23.4603 70.379 25.3056 72.5595 28.0884 74.1725Z" fill="#F29C21"/>
<path d="M28.0884 74.1725C39.5171 79.8029 54.175 74.6653 64.3984 68.6316C68.3419 66.3018 71.6157 63.8375 73.7884 61.8064C77.092 58.7298 79.101 55.5188 80.3063 52.5617C81.6159 49.3656 81.9879 46.4682 82.0177 44.3923C82.0623 42.3313 81.7796 41.0469 81.7796 41.0469C81.7796 41.0469 74.5325 30.6373 74.1455 29.6516C73.6098 29.0243 72.7318 28.5165 72.1663 28.3224C71.6009 28.1282 70.9461 27.9938 69.9937 28.3672C68.8478 28.8301 66.9579 29.6068 66.3627 29.8308C65.7823 30.0399 61.6007 31.5035 57.4935 32.8775C54.7703 33.7885 49.8148 35.9242 47.0916 36.9248C38.9516 39.8969 37.2849 40.1807 37.8355 41.1216C38.3861 42.0624 42.538 40.6138 42.538 40.6138C42.538 40.6138 37.5825 43.2423 37.6867 44.5715C37.7462 45.4527 38.9218 45.0196 39.7254 44.6312C40.1421 44.3923 40.4397 44.2429 40.4397 44.2429C40.4397 44.2429 40.1272 44.4371 39.7254 44.6312C39.0855 44.9897 38.148 45.5721 37.4337 46.1546C36.7938 46.6773 36.3474 47.2 36.4367 47.6033C37.0319 49.6792 43.907 47.7078 48.4309 44.4371C52.9548 41.1664 54.5619 39.6579 56.9727 39.3144C60.693 38.7469 63.8627 45.7215 59.19 50.0227C54.5173 54.324 43.4159 58.3265 35.6777 56.5194C27.9842 54.7123 23.1478 50.8143 21.4662 49.2611C21.243 49.2611 20.7817 49.4253 20.618 49.5448H20.6329C19.4573 53.1591 19.6954 59.1629 19.7995 60.5369C19.8591 61.3882 20.2311 64.7784 22.2103 68.2433C23.4603 70.379 25.3056 72.5595 28.0884 74.1725Z" fill="#F6A61D"/>
<path opacity="0.8" d="M36.1839 73.2913C36.541 71.2303 39.7256 68.6465 41.7643 66.8544C50.321 58.9837 60.9759 54.1597 69.5921 46.0053C72.9403 42.7046 72.8362 40.4794 75.991 36.8502C76.4523 36.3275 77.1368 35.6554 77.8809 35.3866C76.0951 32.7729 74.3391 30.1295 74.1606 29.6516C73.6248 29.0243 72.7469 28.5165 72.1814 28.3224C71.6159 28.1282 70.9611 27.9938 70.0087 28.3672C68.8629 28.8301 66.973 29.6068 66.3777 29.8308C65.7974 30.0399 61.6157 31.5035 57.5086 32.8775C54.7853 33.7885 49.8299 35.9242 47.1066 36.9248C38.9666 39.8969 37.2999 40.1807 37.8505 41.1216C38.4011 42.0624 42.553 40.6138 42.553 40.6138C42.553 40.6138 37.5976 43.2423 37.7017 44.5715C37.7613 45.4527 38.9369 45.0196 39.7404 44.6313C40.1571 44.3923 40.4547 44.2429 40.4547 44.2429C40.4547 44.2429 40.1422 44.4371 39.7404 44.6313C39.1006 44.9897 38.1631 45.5721 37.4488 46.1546C36.8089 46.6773 36.3624 47.2 36.4517 47.6033C37.047 49.6792 43.9221 47.7078 48.4459 44.4371C52.9698 41.1664 54.577 39.6579 56.9877 39.3144C60.708 38.7469 63.8777 45.7215 59.205 50.0227C54.5323 54.324 43.431 58.3265 35.6928 56.5194C27.9992 54.7123 23.1628 50.8143 21.4813 49.2611C21.2581 49.2611 20.7967 49.4253 20.6331 49.5448H20.6479C19.4723 53.1591 19.7104 59.1629 19.8146 60.5369C19.8741 61.3882 20.2461 64.7784 22.2253 68.2433C23.4605 70.3939 25.3057 72.5744 28.0885 74.1874C32.0171 76.114 36.3178 76.7861 40.6928 76.577C38.7881 76.3529 35.7821 75.6211 36.1839 73.2913Z" fill="url(#paint5_linear_3544_406)"/>
<path opacity="0.8" d="M64.8014 68.4226C68.6408 66.1525 71.8253 63.7629 73.9534 61.7765C75.6498 60.1934 77.004 58.5655 78.0605 56.9675C72.3313 56.0415 65.9175 53.876 63.5961 55.5636C61.1109 57.3558 57.8966 62.0006 57.6436 65.107C57.6436 65.107 53.7894 67.8252 61.5722 66.0927C57.1228 67.5115 54.5632 70.2446 54.5632 70.2446C54.5632 70.2446 52.2269 72.6641 58.5514 70.8719C59.3549 70.6479 60.5157 70.3641 61.9294 70.0355C62.9115 69.4979 63.8788 68.9602 64.8014 68.4226Z" fill="#DC7D27"/>
<path d="M57.9702 64.9278C57.9702 64.9278 54.0565 67.631 61.8691 65.7791C57.3899 67.2576 54.7559 69.9459 54.7559 69.9459C54.7559 69.9459 52.36 72.3206 58.7143 70.4388C65.0834 68.557 92.5838 62.8668 97.6434 60.1038C96.944 61.4928 96.2892 62.7473 96.2892 62.7473C96.2892 62.7473 95.7237 64.1213 97.5987 62.8966C99.4738 61.657 102.242 58.3863 101.126 57.4753C101.259 57.3857 103.477 54.9961 100.798 54.8766C101.036 54.5032 101.111 53.8312 99.7268 54.1747C98.3428 54.5182 85.7385 57.311 79.7562 56.7285C73.7889 56.1311 66.6757 53.8312 64.1459 55.6084C61.6458 57.4006 58.3125 61.9408 57.9702 64.9278Z" fill="#F5AF1B"/>
<path opacity="0.5" d="M57.9702 64.9278C57.9702 64.9278 54.0565 67.631 61.8691 65.7791C57.3899 67.2576 54.7559 69.9459 54.7559 69.9459C54.7559 69.9459 52.36 72.3206 58.7143 70.4388C65.0834 68.557 92.5838 62.8668 97.6434 60.1038C96.944 61.4928 96.2892 62.7473 96.2892 62.7473C96.2892 62.7473 95.7237 64.1213 97.5987 62.8966C99.4738 61.657 102.242 58.3863 101.126 57.4753C101.259 57.3857 103.477 54.9961 100.798 54.8766C101.036 54.5032 101.111 53.8312 99.7268 54.1747C98.3428 54.5182 85.7385 57.311 79.7562 56.7285C73.7889 56.1311 66.6757 53.8312 64.1459 55.6084C61.6458 57.4006 58.3125 61.9408 57.9702 64.9278Z" fill="url(#paint6_radial_3544_406)"/>
<path d="M21.4512 49.2164C22.0167 46.4236 20.8113 46.4834 20.5732 47.2898C18.6536 43.2425 16.7041 35.2971 16.9571 28.5466C17.2101 21.796 21.5405 9.84809 19.8589 11.0279C17.8946 12.4169 15.2458 17.2409 13.8172 21.9155C12.3886 26.5901 13.3261 35.7452 14.8737 38.0153C14.9035 38.0601 13.6684 36.253 13.3707 37.3582C12.9392 41.2412 18.3559 47.0957 19.7696 47.932C18.475 48.7983 20.4839 49.4853 20.6328 49.5301C20.8709 49.4554 21.1982 49.3359 21.481 49.2463C21.481 49.2314 21.4661 49.2164 21.4512 49.2164Z" fill="url(#paint7_linear_3544_406)"/>
<path opacity="0.8" d="M19.9482 47.3644C19.9482 47.3644 16.5999 44.4521 15.5136 41.2561C14.4273 38.06 16.347 40.4346 16.347 40.4346C15.2755 38.4184 13.4154 29.338 14.8588 26.3958C15.216 25.679 15.5434 27.6653 15.7517 30.3536C16.0344 34.9685 16.0345 36.5814 17.3738 40.7931C18.6089 44.482 20.3202 47.3047 19.9482 47.3644Z" fill="#F29D1F"/>
<path d="M14.3974 68.9005C14.4123 69.6024 15.1415 69.6621 16.6147 68.6316C17.6117 67.8998 17.2992 67.1829 16.4361 67.2427C15.5879 67.2875 14.3974 68.1985 14.3974 68.9005ZM19.085 71.7978C19.2784 71.1556 18.6534 71.0361 18.1921 71.0511C17.0611 71.1257 14.6801 72.8433 15.7516 73.4407C16.823 74.0381 18.8766 72.44 19.085 71.7978ZM5.93003 50.9039C5.93003 50.9039 6.95683 50.665 5.97468 49.963C4.99252 49.2461 3.22165 49.2909 2.68593 50.0078C2.15021 50.7247 3.90619 51.352 5.93003 50.9039ZM1.86746 48.2604C2.80498 48.4546 3.84667 48.0812 3.31095 47.3046C2.77522 46.5131 1.45081 46.6325 0.840679 47.0656C0.200788 47.4838 0.929951 48.0663 1.86746 48.2604Z" fill="#DC7D27"/>
<path d="M76.7501 36.7756L77.256 38.284L78.7441 39.7476L80.6489 39.7924L82.2561 38.5379L82.8662 37.358C82.8662 37.358 80.0983 37.1191 79.2203 33.8931C78.3572 34.3262 76.7501 36.7756 76.7501 36.7756Z" fill="#2B1B0F"/>
<path d="M75.9916 36.0737C76.1106 36.4471 76.0065 36.8802 76.2297 37.1938C76.4678 37.7315 78.194 37.7166 78.3874 36.0737C78.4321 35.4016 77.9559 35.0731 78.7148 34.5504C80.3369 33.6692 80.7684 34.6698 82.0631 33.1166C82.7625 32.1757 82.703 30.2342 81.4083 28.5913C80.1136 26.9634 77.6583 25.3057 74.5481 27.8595C71.4379 30.4283 74.0719 34.6101 75.0987 35.1478C75.441 35.3718 75.8279 35.5062 75.9916 36.0737Z" fill="#FFD379"/>
<path d="M76.8241 38.2543C76.5563 37.5076 76.9134 37.3881 77.2259 37.642C77.7021 37.9705 77.7914 38.2543 78.6694 38.8368C79.8301 39.5686 81.3034 39.2251 82.4343 37.2537C83.3867 35.566 84.0415 36.8952 84.0117 37.7017C83.982 38.5082 83.1337 44.0789 79.9938 42.675C77.8807 41.5997 77.0771 38.9861 76.8241 38.2543Z" fill="#D28529"/>
<path d="M68.0132 24.0364C67.79 24.2455 67.5817 24.1857 67.671 23.9169C67.8644 23.424 68.6382 22.8864 69.4121 23.0805C70.1859 23.2747 70.3793 24.1708 70.3645 24.3649C70.3645 24.5591 70.2008 24.6636 70.1115 24.3351C69.9776 23.9318 69.2484 22.9163 68.0132 24.0364ZM53.4446 31.3395C53.9803 31.1603 53.9952 30.9512 53.8166 30.9512C53.3404 31.011 52.8642 31.1304 52.3582 30.5928C52.1201 30.2941 52.1201 29.9805 52.388 29.6967C53.3553 28.711 55.766 28.248 55.9148 28.2032C56.5101 28.0688 56.4952 27.8746 56.3464 27.8597C56.1976 27.8448 54.6053 27.8746 53.0577 28.472C52.5071 28.6811 51.4505 29.159 51.3612 29.8759C51.2719 30.6675 52.1797 31.7428 53.4446 31.3395Z" fill="#2B1B0F"/>
<path d="M74.2949 36.1781C71.4973 37.358 71.0657 39.6131 71.155 41.241C70.2621 41.6144 65.1728 41.48 62.9257 39.0904C60.6787 36.6859 62.9406 33.9827 64.6966 33.1911C67.524 31.7873 70.4556 32.9074 71.6907 33.5346C73.4616 34.4755 73.8931 35.4164 74.2949 36.1781Z" fill="#F6F6F6"/>
<path d="M71.5568 38.7322C71.9883 37.7465 72.8068 36.8056 74.2949 36.1784C73.8931 35.4167 73.4467 34.4758 71.6907 33.5349C71.2145 33.2959 70.5002 32.9823 69.6371 32.7732C67.0031 33.1764 65.7978 34.5504 66.0656 36.4472C66.3335 38.3738 68.4913 39.1653 71.2145 38.777C71.3484 38.7621 71.4526 38.7472 71.5568 38.7322Z" fill="#010101"/>
<path d="M67.2557 36.4471C67.2705 36.5368 67.3152 36.8653 67.2705 36.5069C67.1515 35.6705 67.2705 34.8939 67.4789 34.0874C65.8419 35.8348 66.9283 37.8361 68.8926 38.3887C67.9997 37.9854 67.4045 37.4328 67.2557 36.4471C67.2557 36.477 67.4045 37.5075 67.2557 36.4471ZM67.211 36.1335C67.211 36.1484 67.211 36.1783 67.2259 36.2231C67.2259 36.1783 67.211 36.1484 67.211 36.1335Z" fill="#F6F6F6"/>
<path d="M67.4043 32.5193C66.5263 32.5491 65.6037 32.7433 64.6959 33.1913C62.94 33.9829 60.678 36.6861 62.9251 39.0906C63.1929 39.3744 63.5054 39.6283 63.8328 39.8523L64.4429 40.4497C64.562 40.5692 64.562 40.6438 64.5471 40.7036C64.5025 40.9575 64.0263 41.2562 63.8179 41.3607L64.0114 41.7639C64.1007 41.7191 64.7703 41.4055 64.9638 40.9276C65.0233 41.0471 65.068 41.1815 65.068 41.3159C65.068 41.8834 64.5322 42.4958 63.5947 43.0035L63.8031 43.4068C65.2912 42.6152 65.5144 41.764 65.5144 41.3308C65.5144 41.062 65.4251 40.8231 65.2763 40.599C65.559 40.7036 65.8418 40.8081 66.1245 40.8828C61.0947 37.9705 62.4191 33.5946 67.4043 32.5193Z" fill="url(#paint8_linear_3544_406)"/>
<path d="M79.0266 37.1788C77.8213 37.7015 78.9225 38.9859 78.1784 39.9119C77.4344 40.8378 73.8183 41.7787 72.9403 42.3462C72.0474 42.8988 72.8807 44.7657 73.8331 45.0644C74.7855 45.3631 77.6278 45.6917 79.2945 43.1527C81.363 40.0164 80.4999 36.5366 79.0266 37.1788Z" fill="url(#paint9_radial_3544_406)"/>
<path d="M79.0269 37.1937L78.9673 37.2236C78.9525 37.2385 78.9227 37.2535 78.8929 37.2684C78.8632 37.2833 78.8334 37.3132 78.7888 37.3431C78.7144 37.4028 78.6251 37.4775 78.5655 37.597C78.506 37.7164 78.4614 37.8658 78.4465 38.0301C78.4316 38.2093 78.4465 38.3885 78.4763 38.5976C78.4911 38.8067 78.5209 39.0456 78.4911 39.2846C78.4614 39.5385 78.3721 39.8073 78.1786 40.0164C77.9703 40.2255 77.7322 40.3898 77.4792 40.5541C76.9584 40.8677 76.3631 41.1365 75.7232 41.4203C75.0982 41.704 74.4137 41.9729 73.744 42.2716C73.5804 42.3462 73.4167 42.4209 73.2679 42.5105C73.2381 42.5255 73.1935 42.5553 73.1637 42.5703L73.1339 42.5852L73.119 42.6001C73.119 42.6001 73.1488 42.5852 73.1339 42.6001L73.0744 42.6449C73.0595 42.6748 73.0595 42.6748 73.0298 42.6898C73.0149 42.7047 73 42.7346 72.9851 42.7644C72.9405 42.869 72.9107 42.9884 72.9256 43.1378C72.9405 43.2871 72.9702 43.4514 73.0298 43.6008C73.0893 43.7501 73.1637 43.9144 73.2679 44.0488C73.3571 44.1982 73.4613 44.3177 73.5804 44.4222C73.6994 44.5267 73.8185 44.6163 73.9375 44.6462H73.9524H73.9673L73.997 44.6612L74.0714 44.6761L74.1458 44.691L74.2054 44.706C74.2947 44.7209 74.3691 44.7358 74.4732 44.7508C74.8304 44.8105 75.2173 44.8404 75.5744 44.8254L75.8572 44.8105C75.9465 44.7956 76.0357 44.7806 76.125 44.7806L76.3929 44.7358C76.4822 44.7209 76.5715 44.706 76.6608 44.6761C77.3602 44.4819 78.0001 44.1534 78.506 43.6605C78.6251 43.541 78.759 43.4216 78.8632 43.2722C78.9227 43.1975 78.9673 43.1378 79.0269 43.0631C79.0566 43.0333 79.0864 42.9884 79.1013 42.9586L79.1757 42.854C79.2798 42.7047 79.3691 42.5553 79.4584 42.4209C79.5477 42.2716 79.6221 42.1222 79.6965 41.9729C80.009 41.3755 80.2025 40.7631 80.3215 40.1807C80.4406 39.5982 80.4555 39.0456 80.3959 38.5677C80.3364 38.0898 80.1876 37.6866 79.9644 37.4177C79.8602 37.2833 79.7263 37.1937 79.6072 37.1489C79.4882 37.0892 79.3691 37.1041 79.2798 37.1041C79.2352 37.1041 79.1906 37.119 79.1608 37.119C79.131 37.119 79.1013 37.134 79.0715 37.1489C79.0566 37.1937 79.0269 37.1937 79.0269 37.1937ZM79.012 37.1638C79.012 37.1638 79.0417 37.1489 79.0864 37.134C79.1161 37.134 79.131 37.119 79.1757 37.1041C79.2054 37.1041 79.2501 37.0892 79.2947 37.0742C79.384 37.0742 79.518 37.0742 79.637 37.119C79.7709 37.1638 79.9049 37.2684 80.009 37.4028C80.2471 37.6716 80.3959 38.0898 80.4703 38.5827C80.5447 39.0606 80.5448 39.6281 80.4555 40.2255C80.3662 40.8229 80.1876 41.4502 79.9048 42.0924C79.6221 42.7196 79.2501 43.3618 78.7292 43.8995C78.6995 43.9293 78.6697 43.9742 78.64 44.004L78.5358 44.0936C78.4614 44.1534 78.387 44.2131 78.3275 44.2878C78.253 44.3475 78.1786 44.4073 78.0894 44.4521C78.0149 44.5118 77.9405 44.5715 77.8513 44.6164C77.6876 44.706 77.509 44.8105 77.3304 44.8852C77.2411 44.915 77.1518 44.9748 77.0626 45.0047C76.9733 45.0345 76.8691 45.0644 76.7798 45.0943C76.3929 45.1988 76.006 45.2735 75.6042 45.2884C75.2024 45.3034 74.8006 45.2884 74.3988 45.2287C74.2054 45.1988 73.997 45.154 73.8036 45.0943C73.6101 45.0345 73.4315 44.9001 73.2827 44.7657C72.9851 44.4819 72.7768 44.1384 72.6429 43.7501C72.5833 43.556 72.5387 43.3618 72.5238 43.1677C72.5238 42.9735 72.5536 42.7644 72.6577 42.5852C72.7024 42.4956 72.7768 42.4209 72.8512 42.3612L72.9107 42.3164C72.9405 42.3014 72.9554 42.2865 72.9702 42.2716C73.0149 42.2417 73.0595 42.2268 73.1042 42.1969C73.2827 42.1073 73.4464 42.0326 73.625 41.9729C74.3244 41.6891 75.009 41.4651 75.6488 41.2112C76.2887 40.9722 76.8989 40.7183 77.4197 40.4346C77.6727 40.2852 77.9257 40.1359 78.1191 39.9417C78.3126 39.7476 78.4018 39.4937 78.4316 39.2697C78.4614 39.0307 78.4465 38.8067 78.4316 38.5976C78.4167 38.3885 78.4019 38.1943 78.4167 38.0151C78.4316 37.8359 78.4763 37.6716 78.5358 37.5521C78.6102 37.4327 78.6995 37.3431 78.7739 37.2983C78.8185 37.2684 78.8483 37.2535 78.878 37.2236C78.9078 37.2086 78.9376 37.1937 78.9525 37.1788C78.9971 37.1638 79.012 37.1638 79.012 37.1638Z" fill="#CC77E0"/>
<path d="M74.8153 43.0335C74.8153 43.0335 74.9194 43.0335 75.0831 43.0186C75.2468 43.0037 75.4998 42.9589 75.7826 42.8991C75.9165 42.8543 76.0802 42.8244 76.229 42.7647C76.3927 42.705 76.5415 42.6452 76.7052 42.5556C76.8689 42.4809 77.0177 42.3764 77.1814 42.2718C77.3302 42.1673 77.4939 42.0478 77.6278 41.9134C77.7766 41.779 77.8957 41.6446 78.0147 41.4952C78.0743 41.4206 78.1338 41.3459 78.1784 41.2712C78.2231 41.1965 78.2826 41.1219 78.3272 41.0472L78.4612 40.8232C78.5058 40.7485 78.5356 40.6738 78.5802 40.5991C78.6248 40.5245 78.6397 40.4498 78.6844 40.3751C78.7141 40.3004 78.7439 40.2407 78.7737 40.166C78.8183 40.0316 78.8778 39.8972 78.9076 39.7927C78.9374 39.6732 78.982 39.5836 78.9969 39.494C79.0415 39.3297 79.0713 39.2251 79.0713 39.2251C79.0713 39.2251 79.0564 39.3297 79.0415 39.494C79.0267 39.5836 79.0118 39.6881 78.9969 39.8076C78.982 39.8673 78.982 39.9271 78.9522 40.0017C78.9374 40.0615 78.9225 40.1362 78.8927 40.2108C78.8778 40.2855 78.8481 40.3602 78.8183 40.4349C78.7886 40.5095 78.7737 40.5991 78.729 40.6738C78.6993 40.7485 78.6546 40.8381 78.6249 40.9128C78.5802 40.9874 78.5356 41.0771 78.4909 41.1667C78.4463 41.2413 78.3868 41.3309 78.3421 41.4206C78.2826 41.4952 78.2231 41.5848 78.1635 41.6595C78.0445 41.8089 77.9106 41.9731 77.7617 42.1076C77.6129 42.242 77.4492 42.3615 77.2855 42.4809C77.1219 42.5855 76.9433 42.69 76.7647 42.7647C76.5861 42.8394 76.4224 42.8991 76.2587 42.9439C76.0951 42.9887 75.9314 43.0186 75.7826 43.0485C75.4849 43.0933 75.2319 43.0933 75.0683 43.0933C74.9194 43.0634 74.8153 43.0335 74.8153 43.0335Z" fill="#CC77E0"/>
</g>
<defs>
<linearGradient id="paint0_linear_3544_406" x1="95.9628" y1="35.9198" x2="106.146" y2="30.8541" gradientUnits="userSpaceOnUse">
<stop stop-color="#848687"/>
<stop offset="1" stop-color="#B9B9BA"/>
</linearGradient>
<linearGradient id="paint1_linear_3544_406" x1="57.2577" y1="65.9121" x2="124.588" y2="32.4194" gradientUnits="userSpaceOnUse">
<stop stop-color="#848687"/>
<stop offset="1" stop-color="#B9B9BA"/>
</linearGradient>
<linearGradient id="paint2_linear_3544_406" x1="60.2961" y1="70.6627" x2="127.351" y2="37.3072" gradientUnits="userSpaceOnUse">
<stop stop-color="#848687"/>
<stop offset="1" stop-color="#B9B9BA"/>
</linearGradient>
<linearGradient id="paint3_linear_3544_406" x1="81.8783" y1="67.0776" x2="103.429" y2="56.3575" gradientUnits="userSpaceOnUse">
<stop stop-color="#848687"/>
<stop offset="1" stop-color="#B9B9BA"/>
</linearGradient>
<radialGradient id="paint4_radial_3544_406" cx="0" cy="0" r="1" gradientUnits="userSpaceOnUse" gradientTransform="translate(123.212 32.9306) rotate(-26.6126) scale(7.44535 7.46146)">
<stop stop-color="#ED1A3C"/>
<stop offset="1" stop-color="#D51A2F"/>
</radialGradient>
<linearGradient id="paint5_linear_3544_406" x1="20.9348" y1="67.6869" x2="66.6828" y2="44.9301" gradientUnits="userSpaceOnUse">
<stop stop-color="#DC7D27"/>
<stop offset="1" stop-color="#F4A81D"/>
</linearGradient>
<radialGradient id="paint6_radial_3544_406" cx="0" cy="0" r="1" gradientUnits="userSpaceOnUse" gradientTransform="translate(112.605 53.0042) rotate(-26.6126) scale(48.47 48.5749)">
<stop stop-color="#DC7D27"/>
<stop offset="0.119" stop-color="#E18327"/>
<stop offset="0.663" stop-color="#F39B25"/>
<stop offset="1" stop-color="#FAA424"/>
</radialGradient>
<linearGradient id="paint7_linear_3544_406" x1="19.4896" y1="46.9195" x2="15.9552" y2="17.7996" gradientUnits="userSpaceOnUse">
<stop stop-color="#DC7D27"/>
<stop offset="1" stop-color="#F4A81D"/>
</linearGradient>
<linearGradient id="paint8_linear_3544_406" x1="63.5552" y1="40.7155" x2="64.907" y2="35.3919" gradientUnits="userSpaceOnUse">
<stop stop-color="#CA7323"/>
<stop offset="1" stop-color="#F3A11E"/>
</linearGradient>
<radialGradient id="paint9_radial_3544_406" cx="0" cy="0" r="1" gradientUnits="userSpaceOnUse" gradientTransform="translate(74.5668 43.0837) rotate(-23.4543) scale(8.49244 8.51341)">
<stop stop-color="#FF9DFC"/>
<stop offset="1" stop-color="#F8BDD7"/>
</radialGradient>
<clipPath id="clip0_3544_406">
<rect width="124.243" height="104.9" fill="white" transform="matrix(-1 0 0 1 124.846 0.537674)"/>
</clipPath>
</defs>
</svg>
