<svg xmlns="http://www.w3.org/2000/svg" width="48" height="48" viewBox="0 0 48 48" fill="none">
  <path d="M24 48C37.2548 48 48 37.2548 48 24C48 10.7452 37.2548 0 24 0C10.7452 0 0 10.7452 0 24C0 37.2548 10.7452 48 24 48Z" fill="#673192"/>
  <mask id="mask0_4546_25381" style="mask-type:luminance" maskUnits="userSpaceOnUse" x="0" y="0" width="48" height="48">
    <path d="M24 48C37.2548 48 48 37.2548 48 24C48 10.7452 37.2548 0 24 0C10.7452 0 0 10.7452 0 24C0 37.2548 10.7452 48 24 48Z" fill="white"/>
  </mask>
  <g mask="url(#mask0_4546_25381)">
    <path d="M-8.46246 27.332L-5.92006 42.1353L-4.81181 43.0591L-2.00865 45.3949L0.468598 43.6347L1.7724 47.155L13.4415 53.8044L15.0712 51.262L22.6359 54.6597L22.7637 54.7171L30.9125 54.1955L37.8226 49.6322L43.1031 47.7417L49.6432 41.8847L50.1984 41.9919L51.1528 40.8713L54.5766 38.2985L56.2063 27.332H-8.46246Z" fill="#3C1D82"/>
    <path d="M-8.46246 27.332L-5.92006 42.1353L-4.81181 43.0591L-2.00865 45.3949L0.468598 43.6347L1.7724 47.155L13.4415 53.8044L15.0712 51.262L22.6359 54.6597C22.8009 54.4478 22.8941 54.3259 22.8941 54.3259L23.4808 39.0663L15.2994 27.332H-8.46246Z" fill="#512084"/>
    <path d="M34.3024 35.2852L35.9321 41.5434L37.8226 49.6321L41.9661 37.4187L45.3195 40.4352L44.5933 37.5662L44.0157 35.2852H34.3024Z" fill="#6F2B93"/>
    <path d="M46.9493 34.1774L51.5126 35.742L50.1543 41.2854L51.1087 40.1648L54.5766 32.2217L46.7537 31.4395L46.9493 34.1774Z" fill="#6F2B93"/>
    <path d="M9.33447 40.5002L13.4415 53.8041L15.0712 51.2617L15.0106 44.2348L14.8756 41.6085L14.9754 39.7929L13.6894 37.3746C13.6894 37.3746 8.74774 35.8065 9.33447 40.5002Z" fill="#3C1D82"/>
    <path d="M-2.00867 45.395L0.412521 43.6747L0.468581 43.6349L1.77239 47.1552L1.12048 38.6152L-2.00867 45.395Z" fill="#3C1D82"/>
    <path d="M-7.02832 30.2654L-5.92009 42.1352L-4.81183 43.0589V32.7427L1.70719 30.6566L-3.89917 27.4434L-7.02832 30.2654Z" fill="#3C1D82"/>
    <path d="M1.12053 38.6152L0.468628 43.6349L1.77243 47.1552L1.12053 38.6152Z" fill="#552779"/>
    <path d="M15.0106 44.2347L14.8756 41.6083L14.9754 39.7928L13.5718 38.9355L15.0106 44.2347Z" fill="#552779"/>
    <path d="M39.9739 38.5459L41.9662 37.4199L45.3195 40.4364L44.5933 37.5674C42.9492 37.9005 39.9739 38.5459 39.9739 38.5459Z" fill="#582288"/>
    <path d="M-7.00026 30.2939L-2.13901 31.1133L-4.81181 32.7431L-2.22899 34.1623L6.76013 39.1031L7.08346 39.2804L9.36186 40.5327L11.9106 39.7145L12.5499 39.7074L13.6168 39.0294L14.8835 41.6409L15.214 41.843L23.3504 46.8242L35.9321 41.5438L35.6062 38.545L45.3195 40.4355L51.5126 35.7418L48.1227 33.5254L54.5766 32.2216C54.5766 32.2216 56.2063 29.0468 56.2063 27.3323C56.2063 27.2345 56.2037 27.1367 56.1985 27.0389C56.1529 26.1439 55.8986 25.2703 55.4547 24.4267C55.1405 23.8289 54.7311 23.2462 54.2337 22.681C53.628 21.9925 52.892 21.3302 52.0374 20.6992C50.7844 19.7748 49.2773 18.9175 47.5556 18.145C42.5496 15.8985 35.7307 14.3653 28.0695 13.9507C26.6953 13.8764 25.2944 13.8379 23.8719 13.8379C23.2194 13.8379 22.5714 13.8457 21.928 13.862C12.8215 14.0869 4.72944 15.8855 -0.810438 18.615C-2.66055 19.5264 -4.22641 20.5414 -5.45004 21.6372C-7.2128 23.2149 -8.26627 24.9587 -8.43772 26.7971C-8.454 26.9744 -8.46246 27.153 -8.46246 27.3323C-8.46246 28.2547 -7.00026 30.2939 -7.00026 30.2939Z" fill="#A089BC"/>
    <path d="M-7.00026 30.2937L-2.13901 31.1131L-4.81181 32.7429L9.36186 40.5325L12.4424 40.392L14.8835 41.6407L23.3504 46.824L35.9321 41.5436L35.6062 38.5448L45.3195 40.4353L51.5126 35.7416L48.1227 33.5252L54.5766 32.2214C54.5766 32.2214 56.2063 29.0466 56.2063 27.3321C56.2063 27.2343 56.2037 27.1365 56.1985 27.0387L54.381 31.765L47.0145 33.2644L50.6 35.7416L45.2543 39.7834L34.7587 37.7625L35.3454 41.2828L23.4808 46.0417L15.4624 41.4132L12.5499 39.7072L9.33449 39.8486L-3.76877 32.6777L-1.09597 30.8524L-6.52567 29.9306C-6.52567 29.9306 -7.94945 28.4514 -8.43772 26.7969C-8.454 26.9742 -8.46246 27.1528 -8.46246 27.3321C-8.46246 28.2545 -7.00026 30.2937 -7.00026 30.2937Z" fill="white"/>
    <g style="mix-blend-mode:multiply" opacity="0.7">
      <path opacity="0.010588" d="M-1.59472 33.7411C-2.38204 34.1956 -2.38617 34.931 -1.60397 35.3855L14.5713 44.7816C15.3496 45.2339 16.6191 45.2339 17.4064 44.7794L50.5586 25.639C51.3459 25.1844 51.35 24.4491 50.5716 23.9968L34.3964 14.6007C33.6142 14.1461 32.3448 14.1461 31.5574 14.6007L-1.59472 33.7411Z" fill="#FCFBFC"/>
      <path opacity="0.021176" d="M-1.50218 33.7326C-2.28693 34.1857 -2.29104 34.9186 -1.5114 35.3717L14.5792 44.7187C15.355 45.1696 16.6203 45.1696 17.405 44.7165L50.4531 25.6362C51.2379 25.1831 51.242 24.4502 50.4662 23.9993L34.3756 14.6523C33.5959 14.1992 32.3306 14.1992 31.5459 14.6523L-1.50218 33.7326Z" fill="#F8F7F8"/>
      <path opacity="0.031765" d="M-1.40958 33.7222C-2.19175 34.1738 -2.19584 34.9043 -1.41877 35.3559L14.5872 44.6538C15.3605 45.1032 16.6216 45.1032 17.4037 44.6516L50.3478 25.6314C51.1299 25.1798 51.134 24.4493 50.3608 23.9999L34.3548 14.702C33.5777 14.2504 32.3166 14.2504 31.5344 14.702L-1.40958 33.7222Z" fill="#F5F2F5"/>
      <path opacity="0.042353" d="M-1.31698 33.7137C-2.09657 34.1638 -2.10065 34.8919 -1.32614 35.342L14.5952 44.5909C15.3659 45.0388 16.6229 45.0388 17.4025 44.5887L50.2424 25.6286C51.022 25.1785 51.0261 24.4504 50.2554 24.0025L34.334 14.7536C33.5595 14.3035 32.3025 14.3035 31.523 14.7536L-1.31698 33.7137Z" fill="#F2EEF2"/>
      <path opacity="0.052941" d="M-1.22438 33.7033C-2.00139 34.1519 -2.00546 34.8776 -1.23351 35.3262L14.6032 44.5261C15.3714 44.9725 16.6242 44.9725 17.4012 44.5239L50.137 25.6238C50.914 25.1752 50.9181 24.4495 50.1499 24.0031L34.3132 14.8033C33.5413 14.3547 32.2885 14.3546 31.5115 14.8032L-1.22438 33.7033Z" fill="#EEEAEF"/>
      <path opacity="0.063529" d="M-1.13185 33.6929C-1.90627 34.14 -1.91033 34.8633 -1.14094 35.3104L14.6111 44.4612C15.3767 44.9061 16.6254 44.9061 17.3998 44.459L50.0316 25.619C50.806 25.1719 50.8101 24.4487 50.0445 24.0037L34.2924 14.8529C33.523 14.4058 32.2744 14.4058 31.5 14.8529L-1.13185 33.6929Z" fill="#EBE6EB"/>
      <path opacity="0.074118" d="M-1.03925 33.6844C-1.81109 34.13 -1.81513 34.8509 -1.04832 35.2965L14.6191 44.3983C15.3822 44.8417 16.6267 44.8417 17.3985 44.3961L49.9262 25.6162C50.6981 25.1706 50.7021 24.4498 49.9391 24.0063L34.2716 14.9045C33.5048 14.4589 32.2603 14.4589 31.4885 14.9045L-1.03925 33.6844Z" fill="#E8E1E8"/>
      <path opacity="0.084706" d="M-0.94665 33.674C-1.71591 34.1181 -1.71994 34.8366 -0.955688 35.2807L14.6271 44.3334C15.3876 44.7754 16.628 44.7754 17.3972 44.3313L49.8209 25.6115C50.5901 25.1673 50.5942 24.4489 49.8337 24.0069L34.2508 14.9542C33.4866 14.5101 32.2463 14.5101 31.477 14.9542L-0.94665 33.674Z" fill="#E4DDE5"/>
      <path opacity="0.095294" d="M-0.854052 33.6636C-1.62073 34.1062 -1.62475 34.8222 -0.863059 35.2649L14.6351 44.2686C15.3931 44.7091 16.6292 44.7091 17.3959 44.2664L49.7155 25.6067C50.4822 25.1641 50.4862 24.448 49.7283 24.0075L34.2301 15.0039C33.4684 14.5612 32.2322 14.5612 31.4655 15.0038L-0.854052 33.6636Z" fill="#E1D9E1"/>
      <path opacity="0.105882" d="M-0.761514 33.6551C-1.52561 34.0963 -1.52961 34.8099 -0.770491 35.251L14.6431 44.2057C15.3985 44.6447 16.6305 44.6447 17.3946 44.2035L49.6101 25.6039C50.3742 25.1627 50.3782 24.4491 49.6228 24.0101L34.2092 15.0555C33.4501 14.6143 32.2181 14.6143 31.454 15.0555L-0.761514 33.6551Z" fill="#DDD5DE"/>
      <path opacity="0.116471" d="M-0.668916 33.6447C-1.43043 34.0843 -1.43442 34.7956 -0.677863 35.2352L14.6511 44.1408C15.4039 44.5783 16.6317 44.5783 17.3933 44.1387L49.5047 25.5991C50.2662 25.1594 50.2702 24.4482 49.5174 24.0107L34.1884 15.1051C33.4319 14.6655 32.204 14.6655 31.4425 15.1051L-0.668916 33.6447Z" fill="#DAD1DB"/>
      <path opacity="0.127059" d="M-0.576317 33.6362C-1.33525 34.0744 -1.33923 34.7832 -0.585234 35.2214L14.6591 44.0779C15.4094 44.5139 16.633 44.5139 17.392 44.0758L49.3994 25.5963C50.1583 25.1581 50.1623 24.4493 49.412 24.0133L34.1677 15.1568C33.4137 14.7186 32.19 14.7186 31.4311 15.1567L-0.576317 33.6362Z" fill="#D7CCD7"/>
      <path opacity="0.137647" d="M-0.48378 33.6258C-1.24013 34.0625 -1.24409 34.7689 -0.492666 35.2055L14.667 44.013C15.4148 44.4476 16.6343 44.4476 17.3906 44.0109L49.2939 25.5915C50.0503 25.1548 50.0543 24.4485 49.3065 24.0139L34.1468 15.2064C33.3954 14.7697 32.1759 14.7697 31.4195 15.2064L-0.48378 33.6258Z" fill="#D3C8D4"/>
      <path opacity="0.148235" d="M-0.391181 33.6154C-1.14495 34.0506 -1.1489 34.7545 -0.400037 35.1897L14.675 43.9482C15.4202 44.3812 16.6355 44.3812 17.3893 43.946L49.1886 25.5867C49.9423 25.1516 49.9463 24.4476 49.2011 24.0145L34.126 15.2561C33.3772 14.8209 32.1618 14.8209 31.4081 15.2561L-0.391181 33.6154Z" fill="#D0C4D1"/>
      <path opacity="0.158824" d="M-0.298582 33.6069C-1.04977 34.0406 -1.05371 34.7422 -0.307409 35.1759L14.683 43.8853C15.4256 44.3168 16.6368 44.3168 17.388 43.8831L49.0832 25.5839C49.8344 25.1502 49.8383 24.4487 49.0957 24.0171L34.1053 15.3077C33.359 14.874 32.1478 14.874 31.3966 15.3077L-0.298582 33.6069Z" fill="#CDC0CE"/>
      <path opacity="0.169412" d="M-0.205984 33.5965C-0.95459 34.0287 -0.958514 34.7278 -0.21478 35.1601L14.691 43.8204C15.4311 44.2505 16.6381 44.2505 17.3867 43.8183L48.9778 25.5792C49.7264 25.147 49.7304 24.4478 48.9903 24.0177L34.0845 15.3574C33.3408 14.9252 32.1337 14.9251 31.3851 15.3573L-0.205984 33.5965Z" fill="#C9BCCA"/>
      <path opacity="0.18" d="M-0.113446 33.588C-0.859471 34.0187 -0.863381 34.7155 -0.122211 35.1462L14.6989 43.7575C15.4365 44.1861 16.6393 44.1861 17.3854 43.7554L48.8724 25.5763C49.6184 25.1456 49.6224 24.4489 48.8848 24.0203L34.0636 15.409C33.3225 14.9783 32.1196 14.9783 31.3736 15.409L-0.113446 33.588Z" fill="#C6B7C7"/>
      <path opacity="0.190588" d="M-0.0208482 33.5776C-0.764291 34.0068 -0.768188 34.7012 -0.0295829 35.1304L14.7069 43.6926C15.4419 44.1198 16.6406 44.1198 17.3841 43.6905L48.767 25.5716C49.5105 25.1424 49.5144 24.448 48.7794 24.0209L34.0429 15.4586C33.3043 15.0294 32.1056 15.0294 31.3621 15.4586L-0.0208482 33.5776Z" fill="#C3B3C4"/>
      <path opacity="0.201176" d="M0.0717507 33.5672C-0.669111 33.9949 -0.672994 34.6868 0.0630456 35.1146L14.7149 43.6278C15.4474 44.0534 16.6419 44.0534 17.3828 43.6257L48.6617 25.5668C49.4025 25.1391 49.4064 24.4472 48.674 24.0215L34.0221 15.5083C33.2861 15.0806 32.0915 15.0806 31.3507 15.5083L0.0717507 33.5672Z" fill="#BFAFC0"/>
      <path opacity="0.211765" d="M0.164349 33.5587C-0.573931 33.985 -0.577801 34.6745 0.155674 35.1007L14.7229 43.5649C15.4528 43.989 16.6432 43.989 17.3815 43.5628L48.5563 25.564C49.2946 25.1377 49.2985 24.4482 48.5686 24.0241L34.0013 15.5599C33.2678 15.1337 32.0774 15.1337 31.3392 15.5599L0.164349 33.5587Z" fill="#BCABBD"/>
      <path opacity="0.222353" d="M0.256886 33.5483C-0.478813 33.973 -0.482669 34.6601 0.248242 35.0849L14.7309 43.5C15.4582 43.9227 16.6444 43.9227 17.3801 43.4979L48.4509 25.5592C49.1866 25.1345 49.1904 24.4474 48.4631 24.0247L33.9805 15.6096C33.2496 15.1848 32.0633 15.1848 31.3276 15.6096L0.256886 33.5483Z" fill="#B9A6BA"/>
      <path opacity="0.232941" d="M0.349485 33.5379C-0.383633 33.9611 -0.387475 34.6458 0.340871 35.0691L14.7389 43.4351C15.4637 43.8563 16.6457 43.8563 17.3788 43.4331L48.3455 25.5544C49.0786 25.1312 49.0825 24.4465 48.3577 24.0253L33.9597 15.6593C33.2313 15.236 32.0493 15.236 31.3162 15.6592L0.349485 33.5379Z" fill="#B5A2B7"/>
      <path opacity="0.243529" d="M0.442083 33.5294C-0.288453 33.9512 -0.292282 34.6334 0.433499 35.0552L14.7469 43.3722C15.4691 43.7919 16.647 43.792 17.3775 43.3702L48.2402 25.5516C48.9707 25.1299 48.9745 24.4476 48.2523 24.0279L33.9389 15.7109C33.2131 15.2891 32.0352 15.2891 31.3047 15.7108L0.442083 33.5294Z" fill="#B29EB3"/>
      <path opacity="0.254118" d="M0.534621 33.519C-0.193334 33.9393 -0.197149 34.6191 0.526068 35.0394L14.7548 43.3074C15.4745 43.7256 16.6482 43.7256 17.3762 43.3053L48.1347 25.5469C48.8627 25.1266 48.8665 24.4467 48.1468 24.0285L33.9181 15.7605C33.1949 15.3402 32.0211 15.3402 31.2932 15.7605L0.534621 33.519Z" fill="#AF9AB0"/>
      <path opacity="0.264706" d="M0.62722 33.5105C-0.0981535 33.9293 -0.101956 34.6068 0.618697 35.0256L14.7628 43.2445C15.4799 43.6612 16.6495 43.6612 17.3749 43.2424L48.0294 25.544C48.7547 25.1253 48.7585 24.4478 48.0414 24.0311L33.8973 15.8121C33.1766 15.3934 32.0071 15.3933 31.2817 15.8121L0.62722 33.5105Z" fill="#AB96AD"/>
      <path opacity="0.275294" d="M0.719818 33.5001C-0.00297356 33.9174 -0.00676292 34.5924 0.711325 35.0097L14.7708 43.1796C15.4854 43.5949 16.6508 43.5949 17.3736 43.1776L47.924 25.5393C48.6468 25.122 48.6506 24.4469 47.936 24.0317L33.8765 15.8618C33.1584 15.4445 31.993 15.4445 31.2702 15.8618L0.719818 33.5001Z" fill="#A891A9"/>
      <path opacity="0.285882" d="M0.812416 33.4897C0.0922065 33.9055 0.0884306 34.5781 0.803954 34.9939L14.7788 43.1147C15.4908 43.5285 16.6521 43.5285 17.3723 43.1127L47.8186 25.5345C48.5388 25.1187 48.5426 24.4461 47.8306 24.0323L33.8557 15.9115C33.1402 15.4957 31.979 15.4957 31.2588 15.9115L0.812416 33.4897Z" fill="#A48DA6"/>
      <path opacity="0.296471" d="M0.904954 33.4812C0.187325 33.8955 0.183563 34.5657 0.896521 34.9801L14.7868 43.0518C15.4962 43.4641 16.6533 43.4641 17.3709 43.0498L47.7132 25.5317C48.4308 25.1174 48.4346 24.4472 47.7251 24.0349L33.8349 15.9631C33.1219 15.5488 31.9648 15.5488 31.2472 15.9631L0.904954 33.4812Z" fill="#A189A3"/>
      <path opacity="0.307059" d="M0.997553 33.4708C0.282505 33.8836 0.278757 34.5514 0.989151 34.9643L14.7948 42.987C15.5017 43.3978 16.6546 43.3978 17.3696 42.985L47.6078 25.5269C48.3229 25.1141 48.3266 24.4463 47.6197 24.0355L33.8141 16.0128C33.1037 15.5999 31.9508 15.5999 31.2358 16.0127L0.997553 33.4708Z" fill="#9E859F"/>
      <path opacity="0.317647" d="M1.09015 33.4623C0.377685 33.8736 0.37395 34.539 1.08178 34.9504L14.8028 42.9241C15.5071 43.3334 16.6559 43.3334 17.3683 42.9221L47.5025 25.5241C48.2149 25.1128 48.2187 24.4474 47.5143 24.038L33.7933 16.0644C33.0855 15.653 31.9367 15.653 31.2243 16.0644L1.09015 33.4623Z" fill="#9A819C"/>
      <path opacity="0.328235" d="M1.18275 33.4519C0.472865 33.8617 0.469144 34.5247 1.17441 34.9346L14.8108 42.8592C15.5126 43.2671 16.6572 43.2671 17.367 42.8572L47.3971 25.5193C48.107 25.1095 48.1107 24.4465 47.4089 24.0387L33.7726 16.114C33.0673 15.7042 31.9227 15.7042 31.2128 16.114L1.18275 33.4519Z" fill="#977C99"/>
      <path opacity="0.338824" d="M1.27529 33.4415C0.567984 33.8498 0.564276 34.5104 1.26697 34.9188L14.8187 42.7943C15.518 43.2007 16.6584 43.2007 17.3657 42.7923L47.2917 25.5146C47.999 25.1062 48.0027 24.4456 47.3034 24.0393L33.7517 16.1637C33.049 15.7553 31.9086 15.7553 31.2013 16.1637L1.27529 33.4415Z" fill="#947896"/>
      <path opacity="0.349412" d="M1.36789 33.433C0.663164 33.8399 0.659469 34.498 1.35961 34.9049L14.8267 42.7314C15.5234 43.1363 16.6597 43.1363 17.3644 42.7294L47.1863 25.5118C47.891 25.1049 47.8947 24.4467 47.198 24.0418L33.7309 16.2153C33.0308 15.8084 31.8945 15.8084 31.1898 16.2153L1.36789 33.433Z" fill="#907492"/>
      <path opacity="0.36" d="M1.46048 33.4226C0.758344 33.828 0.754662 34.4837 1.45223 34.8891L14.8347 42.6666C15.5289 43.07 16.661 43.07 17.3631 42.6646L47.0809 25.507C47.7831 25.1016 47.7868 24.4458 47.0926 24.0424L33.7102 16.265C33.0126 15.8596 31.8805 15.8596 31.1783 16.265L1.46048 33.4226Z" fill="#8D708F"/>
      <path opacity="0.370588" d="M1.55308 33.4122C0.853524 33.816 0.849856 34.4694 1.54486 34.8733L14.8427 42.6017C15.5343 43.0036 16.6622 43.0036 17.3618 42.5997L46.9756 25.5022C47.6751 25.0983 47.6788 24.445 46.9872 24.0431L33.6894 16.3146C32.9944 15.9107 31.8664 15.9107 31.1669 16.3146L1.55308 33.4122Z" fill="#8A6B8C"/>
      <path opacity="0.381176" d="M1.64562 33.4037C0.948643 33.8061 0.944988 34.457 1.63743 34.8594L14.8506 42.5388C15.5397 42.9392 16.6635 42.9392 17.3604 42.5368L46.8702 25.4994C47.5671 25.097 47.5708 24.4461 46.8817 24.0456L33.6685 16.3663C32.9761 15.9639 31.8523 15.9639 31.1553 16.3662L1.64562 33.4037Z" fill="#866788"/>
      <path opacity="0.391765" d="M1.73822 33.3933C1.04382 33.7942 1.04018 34.4427 1.73006 34.8436L14.8586 42.4739C15.5451 42.8729 16.6647 42.8729 17.3591 42.472L46.7648 25.4946C47.4592 25.0937 47.4628 24.4452 46.7763 24.0462L33.6478 16.4159C32.9579 16.015 31.8382 16.015 31.1439 16.4159L1.73822 33.3933Z" fill="#836385"/>
      <path opacity="0.402353" d="M1.83082 33.3848C1.139 33.7842 1.13538 34.4303 1.82269 34.8298L14.8666 42.411C15.5506 42.8085 16.666 42.8085 17.3578 42.4091L46.6594 25.4918C47.3512 25.0924 47.3549 24.4463 46.6709 24.0488L33.627 16.4675C32.9397 16.0681 31.8242 16.0681 31.1324 16.4675L1.83082 33.3848Z" fill="#805F82"/>
      <path opacity="0.412941" d="M1.92335 33.3744C1.23412 33.7723 1.23051 34.416 1.91525 34.8139L14.8746 42.3462C15.556 42.7422 16.6673 42.7422 17.3565 42.3442L46.554 25.487C47.2432 25.0891 47.2469 24.4454 46.5655 24.0494L33.6061 16.5172C32.9214 16.1193 31.8101 16.1193 31.1209 16.5172L1.92335 33.3744Z" fill="#7C5B7F"/>
      <path opacity="0.423529" d="M2.01595 33.364C1.3293 33.7604 1.3257 34.4017 2.00788 34.7981L14.8826 42.2813C15.5614 42.6758 16.6685 42.6758 17.3552 42.2794L46.4486 25.4823C47.1353 25.0858 47.1389 24.4445 46.46 24.05L33.5854 16.5669C32.9032 16.1704 31.796 16.1704 31.1094 16.5668L2.01595 33.364Z" fill="#79567B"/>
      <path opacity="0.434118" d="M2.10855 33.3555C1.42448 33.7504 1.42089 34.3893 2.10051 34.7843L14.8906 42.2184C15.5669 42.6114 16.6698 42.6114 17.3539 42.2165L46.3433 25.4795C47.0273 25.0845 47.0309 24.4456 46.3546 24.0526L33.5646 16.6185C32.885 16.2235 31.782 16.2235 31.0979 16.6185L2.10855 33.3555Z" fill="#765278"/>
      <path opacity="0.444706" d="M2.20115 33.3451C1.51966 33.7385 1.51609 34.375 2.19314 34.7685L14.8986 42.1535C15.5723 42.5451 16.6711 42.5451 17.3526 42.1516L46.2379 25.4747C46.9194 25.0812 46.923 24.4448 46.2492 24.0532L33.5438 16.6681C32.8667 16.2747 31.7679 16.2747 31.0864 16.6681L2.20115 33.3451Z" fill="#724E75"/>
      <path opacity="0.455294" d="M2.29369 33.3366C1.61478 33.7286 1.61122 34.3626 2.28571 34.7546L14.9065 42.0906C15.5777 42.4807 16.6723 42.4807 17.3512 42.0887L46.1325 25.4719C46.8114 25.0799 46.815 24.4458 46.1438 24.0558L33.523 16.7198C32.8485 16.3278 31.7538 16.3278 31.0749 16.7197L2.29369 33.3366Z" fill="#6F4A71"/>
      <path opacity="0.465882" d="M2.38629 33.3262C1.70996 33.7167 1.70641 34.3483 2.37834 34.7388L14.9145 42.0258C15.5831 42.4143 16.6736 42.4143 17.3499 42.0239L46.0271 25.4671C46.7034 25.0766 46.707 24.445 46.0383 24.0564L33.5022 16.7694C32.8302 16.3789 31.7398 16.3789 31.0634 16.7694L2.38629 33.3262Z" fill="#6B466E"/>
      <path opacity="0.476471" d="M2.47889 33.3158C1.80514 33.7047 1.80161 34.334 2.47097 34.723L14.9225 41.9609C15.5886 42.348 16.6749 42.348 17.3487 41.959L45.9217 25.4623C46.5955 25.0733 46.599 24.4441 45.9329 24.057L33.4814 16.8191C32.812 16.4301 31.7257 16.4301 31.052 16.8191L2.47889 33.3158Z" fill="#68416B"/>
      <path opacity="0.487059" d="M2.57148 33.3073C1.90032 33.6948 1.8968 34.3216 2.5636 34.7091L14.9305 41.898C15.594 42.2836 16.6762 42.2836 17.3474 41.8961L45.8164 25.4595C46.4875 25.072 46.4911 24.4452 45.8275 24.0596L33.4606 16.8707C32.7938 16.4832 31.7117 16.4832 31.0405 16.8707L2.57148 33.3073Z" fill="#653D67"/>
      <path opacity="0.497647" d="M2.66402 33.2969C1.99544 33.6829 1.99193 34.3073 2.65616 34.6933L14.9385 41.8331C15.5994 42.2173 16.6774 42.2173 17.346 41.8313L45.7109 25.4547C46.3795 25.0687 46.3831 24.4443 45.7221 24.0602L33.4398 16.9204C32.7755 16.5344 31.6975 16.5344 31.029 16.9204L2.66402 33.2969Z" fill="#613964"/>
      <path opacity="0.508235" d="M2.75662 33.2864C2.09062 33.671 2.08713 34.293 2.74879 34.6775L14.9464 41.7683C15.6049 42.1509 16.6787 42.1509 17.3447 41.7664L45.6056 25.45C46.2716 25.0655 46.2751 24.4435 45.6167 24.0608L33.419 16.97C32.7573 16.5855 31.6835 16.5855 31.0175 16.97L2.75662 33.2864Z" fill="#5E3561"/>
      <path opacity="0.518824" d="M2.84922 33.278C2.1858 33.661 2.18232 34.2806 2.84142 34.6636L14.9544 41.7054C15.6103 42.0865 16.68 42.0865 17.3434 41.7035L45.5002 25.4472C46.1636 25.0641 46.1671 24.4445 45.5112 24.0634L33.3982 17.0216C32.7391 16.6386 31.6694 16.6386 31.006 17.0216L2.84922 33.278Z" fill="#5B305E"/>
      <path opacity="0.529412" d="M2.94176 33.2676C2.28092 33.6491 2.27745 34.2663 2.93399 34.6478L14.9624 41.6405C15.6157 42.0202 16.6812 42.0202 17.3421 41.6386L45.3948 25.4424C46.0556 25.0609 46.0591 24.4437 45.4058 24.064L33.3774 17.0713C32.7208 16.6898 31.6553 16.6898 30.9945 17.0713L2.94176 33.2676Z" fill="#572C5A"/>
      <path opacity="0.54" d="M3.03435 33.2591C2.3761 33.6391 2.37264 34.2539 3.02662 34.634L14.9704 41.5776C15.6212 41.9558 16.6825 41.9558 17.3408 41.5757L45.2894 25.4396C45.9477 25.0595 45.9511 24.4448 45.3004 24.0666L33.3566 17.1229C32.7026 16.7429 31.6413 16.7429 30.983 17.1229L3.03435 33.2591Z" fill="#542857"/>
    </g>
    <path d="M2.26007 31.7403L15.2913 39.4974C15.5318 39.6363 15.8281 39.6363 16.0686 39.4974L46.2549 22.0692C46.773 21.77 47.4194 21.0502 46.6273 20.1579L34.4718 13.0433C33.5455 12.4854 32.1935 12.1392 31.1209 12.2759C30.6459 12.3365 30.0515 12.4532 29.7818 12.6089L1.57354 28.8576C0.457438 29.5019 1.14397 31.0959 2.26007 31.7403Z" fill="#F7CD78"/>
    <path d="M0.775473 29.9607C0.773698 30.4869 1.12105 31.0136 1.81593 31.4149L13.722 38.292C15.1023 39.0893 17.3339 39.0907 18.7073 38.2929L46.1133 22.4842C46.7948 22.0885 47.1359 21.5701 47.1374 21.0508L47.132 22.2953C47.1304 22.8146 46.7891 23.3331 46.1078 23.729L18.7016 39.5375C17.3282 40.3353 15.0967 40.3338 13.7164 39.5367L1.8103 32.6594C1.11558 32.2582 0.768238 31.7314 0.769781 31.2053L0.775473 29.9607Z" fill="url(#paint0_linear_4546_25381)"/>
    <path d="M1.81588 31.4147L13.7221 38.2916C15.1024 39.0888 17.334 39.0904 18.7072 38.2926L46.1134 22.484C47.4849 21.6872 47.4779 20.3935 46.0977 19.5963L34.1916 12.7191C32.8112 11.9221 30.5778 11.9217 29.2062 12.7184L1.80009 28.5269C0.42664 29.3247 0.435637 30.6174 1.81588 31.4147ZM13.7953 37.8465L1.65607 30.8348C0.94727 30.4254 0.947442 29.4023 1.65638 28.9931L29.413 12.9731C30.7996 12.1729 32.5077 12.1731 33.8941 12.9736L35.7814 14.0634C35.819 14.0852 35.8501 14.1166 35.8714 14.1544L36.7605 15.7332C36.7914 15.788 36.8364 15.8336 36.891 15.8651L40.6021 18.0091C40.6412 18.0317 40.6845 18.0461 40.7294 18.0513L43.089 18.3272C43.1493 18.3342 43.2075 18.3535 43.26 18.3838L46.3302 20.1569C46.9809 20.5326 46.9808 21.4719 46.33 21.8475L18.6082 37.8473C17.119 38.7069 15.2843 38.7066 13.7953 37.8465Z" fill="#27122D"/>
    <path d="M38.0005 15.4266L40.4813 16.8593C40.618 16.9383 40.6328 17.0576 40.5144 17.1259C40.396 17.1942 40.1893 17.1856 40.0526 17.1067L37.5719 15.674C37.4352 15.5951 37.4204 15.4758 37.5388 15.4074C37.6571 15.3391 37.8638 15.3477 38.0005 15.4266Z" fill="#191414"/>
    <path d="M41.1991 25.865C41.2227 25.7953 41.2586 25.7269 41.3026 25.6667C41.3525 25.5983 41.4131 25.5405 41.4778 25.5033L43.7555 24.1886C43.841 24.1395 43.918 24.1348 43.9738 24.1668L44.1993 24.2963C44.1435 24.2642 44.0664 24.2689 43.981 24.3179L41.7033 25.6326C41.6385 25.6698 41.578 25.7277 41.5281 25.7961C41.484 25.8563 41.4482 25.9247 41.4246 25.9945C41.4046 26.0531 41.3934 26.1129 41.3934 26.1694V26.268C41.3934 26.3673 41.4286 26.4373 41.4856 26.4699L41.2601 26.3405C41.2032 26.308 41.1679 26.2379 41.1679 26.1386V26.04C41.1679 25.9835 41.1791 25.9238 41.1991 25.865Z" fill="#F6EFFA"/>
    <path d="M41.7033 25.6322L43.981 24.3175C44.1532 24.2188 44.2909 24.2995 44.2907 24.4987V24.5974C44.2907 24.7947 44.153 25.0355 43.9808 25.1341L41.7032 26.4488C41.5329 26.5465 41.3934 26.4648 41.3934 26.2676V26.1689C41.3934 25.9695 41.5331 25.7299 41.7033 25.6322Z" fill="#D3B8DD"/>
    <path d="M37.7243 27.8709C37.7479 27.8012 37.7838 27.7327 37.8279 27.6725C37.8778 27.6041 37.9383 27.5463 38.0031 27.5091L40.2807 26.1944C40.3663 26.1454 40.4433 26.1407 40.4991 26.1726L40.7245 26.3021C40.6687 26.2701 40.5917 26.2747 40.5062 26.3238L38.2285 27.6385C38.1638 27.6757 38.1033 27.7335 38.0533 27.8019C38.0093 27.8621 37.9734 27.9305 37.9498 28.0003C37.9298 28.059 37.9186 28.1188 37.9186 28.1752V28.2739C37.9186 28.3731 37.9539 28.4432 38.0108 28.4758L37.7853 28.3463C37.7284 28.3138 37.6932 28.2437 37.6932 28.1445V28.0459C37.6932 27.9894 37.7044 27.9296 37.7243 27.8709Z" fill="#F6EFFA"/>
    <path d="M38.2286 27.638L40.5062 26.3233C40.6785 26.2247 40.8161 26.3053 40.816 26.5046V26.6033C40.816 26.8006 40.6783 27.0413 40.5061 27.14L38.2284 28.4547C38.0582 28.5523 37.9186 28.4707 37.9186 28.2734V28.1748C37.9186 27.9753 38.0583 27.7358 38.2286 27.638Z" fill="#D3B8DD"/>
    <path d="M40.951 17.7283C41.1188 17.8252 41.39 17.8252 41.5567 17.7283C41.7235 17.6314 41.7228 17.4743 41.555 17.3774C41.3872 17.2805 41.1158 17.2804 40.949 17.3773C40.7823 17.4742 40.7832 17.6314 40.951 17.7283Z" fill="#191414"/>
    <path opacity="0.1" d="M41.4691 17.6863C41.3432 17.7548 41.1427 17.7495 41.0213 17.6747C40.8999 17.5999 40.9034 17.4838 41.0293 17.4153C41.1552 17.3469 41.3558 17.352 41.4773 17.4269C41.5987 17.5016 41.5951 17.6179 41.4691 17.6863Z" fill="#BBACCF"/>
    <path opacity="0.1" d="M41.3753 17.6168C41.3068 17.654 41.1979 17.6511 41.1319 17.6104C41.0659 17.5698 41.0678 17.5067 41.1362 17.4695C41.2047 17.4323 41.3137 17.4351 41.3797 17.4757C41.4457 17.5164 41.4437 17.5796 41.3753 17.6168Z" fill="#BBACCF"/>
    <g style="mix-blend-mode:screen" opacity="0.2">
      <path d="M41.3 17.57C41.2747 17.5838 41.2344 17.5827 41.2099 17.5677C41.1855 17.5526 41.1862 17.5293 41.2115 17.5155C41.2369 17.5018 41.2772 17.5028 41.3016 17.5179C41.326 17.5329 41.3253 17.5563 41.3 17.57Z" fill="#BBACCF"/>
    </g>
    <path d="M6.98502 35.3946L8.60065 36.3252C8.78865 36.4335 8.94088 36.3689 8.94088 36.1809C8.94088 35.9925 8.7881 35.7517 8.5997 35.6432L6.98409 34.7127C6.79614 34.6044 6.64386 34.6689 6.64386 34.8569C6.64386 35.0453 6.79669 35.2861 6.98502 35.3946Z" fill="#1C0D21"/>
    <mask id="mask1_4546_25381" style="mask-type:luminance" maskUnits="userSpaceOnUse" x="6" y="34" width="3" height="3">
      <path d="M6.98502 35.3946L8.60065 36.3252C8.78865 36.4335 8.94088 36.3689 8.94088 36.1809C8.94088 35.9925 8.7881 35.7517 8.5997 35.6432L6.98409 34.7127C6.79614 34.6044 6.64386 34.6689 6.64386 34.8569C6.64386 35.0453 6.79669 35.2861 6.98502 35.3946Z" fill="white"/>
    </mask>
    <g mask="url(#mask1_4546_25381)">
      <path d="M8.41735 36.112L8.64212 36.2418L9.43996 35.7811L9.21525 35.6513L8.41735 36.112ZM7.9229 35.8265L8.14768 35.9563L8.94552 35.4956L8.7208 35.3659L7.9229 35.8265ZM7.42845 35.541L7.65323 35.6708L8.45108 35.2101L8.22631 35.0804L7.42845 35.541ZM6.93402 35.2556L7.15874 35.3853L7.95664 34.9247L7.73186 34.7949L6.93402 35.2556Z" fill="white"/>
    </g>
    <g style="mix-blend-mode:multiply" opacity="0.7">
      <path d="M1.81588 31.4143L3.47896 32.3749H10.8353L11.6247 32.8306H12.2607L12.1476 29.8545L10.5842 27.6203L7.39002 26.8784L6.79299 25.6465L1.80009 28.5265C0.426635 29.3243 0.435646 30.617 1.81588 31.4143Z" fill="#7F347D"/>
    </g>
    <path d="M42.8051 22.5974L38.8409 24.8862L34.8766 22.5974L38.8409 20.3086L42.8051 22.5974Z" fill="#ED9B07"/>
    <path d="M22.6265 34.2478L18.6622 36.5366L14.6979 34.2478L18.6622 31.959L22.6265 34.2478Z" fill="#ED9B07"/>
    <g style="mix-blend-mode:multiply" opacity="0.7">
      <path d="M23.0013 28.8687L21.4378 26.6345L18.2437 25.8926L13.8684 31.389H21.689L22.4783 31.8448H23.1144L23.0013 28.8687Z" fill="#7F347D"/>
    </g>
    <g style="mix-blend-mode:multiply" opacity="0.7">
      <path d="M38.5683 25.4273H32.0552C32.181 25.3531 32.2872 25.2838 32.3595 25.2307C32.4881 25.1361 32.7213 25.0282 32.9958 24.9165C33.0309 24.9022 33.0629 24.8884 33.0902 24.8751C33.3696 24.739 33.3516 24.668 33.2837 24.668C33.2837 24.668 32.4681 24.6786 32.0977 24.6806C32.1031 24.7121 32.1021 24.7682 31.8827 24.8751C31.8554 24.8884 31.8234 24.9022 31.7881 24.9166C31.5132 25.0284 31.28 25.1365 31.1512 25.2312C31.0788 25.2845 30.9731 25.3536 30.848 25.4273H30.6654C30.6324 25.4273 30.5844 25.454 30.5581 25.4871C30.5319 25.5201 30.5374 25.5468 30.5704 25.5468H38.7753L38.5683 25.4273Z" fill="#7F347D"/>
    </g>
    <g style="mix-blend-mode:multiply" opacity="0.7">
      <path d="M36.3298 26.7202H29.8168C29.9425 26.6461 30.0487 26.5768 30.1211 26.5236C30.2496 26.4291 30.4829 26.3212 30.7573 26.2095C30.7925 26.1952 30.8244 26.1814 30.8517 26.1681C31.1311 26.032 31.1132 25.9609 31.0452 25.9609C31.0452 25.9609 30.2297 25.9716 29.8593 25.9735C29.8647 26.005 29.8636 26.0612 29.6442 26.1681C29.6169 26.1814 29.5849 26.1952 29.5497 26.2095C29.2747 26.3214 29.0416 26.4295 28.9128 26.5242C28.8404 26.5774 28.7346 26.6465 28.6095 26.7202H28.4269C28.3939 26.7202 28.3459 26.747 28.3197 26.78C28.2935 26.813 28.2989 26.8398 28.332 26.8398H36.5369L36.3298 26.7202Z" fill="#7F347D"/>
    </g>
    <g style="mix-blend-mode:multiply" opacity="0.7">
      <path d="M27.9373 30.7741H27.7408L26.0151 30.5291L25.3287 30.1328L26.7018 29.4519L27.7135 30.1725L27.9373 30.7741ZM32.7552 27.2616L31.7435 26.541L30.3704 27.222L31.0568 27.6183L32.7826 27.8632H32.979L32.7552 27.2616Z" fill="#7F347D"/>
    </g>
    <path d="M12.2697 32.8312L4.78888 28.5121V27.7734L12.2697 32.0925V32.8312Z" fill="#99609F"/>
    <path d="M36.3352 18.9379L12.2699 32.8321V32.0933L36.3352 18.1992V18.9379Z" fill="#D4BAD4"/>
    <g style="mix-blend-mode:multiply" opacity="0.6">
      <path d="M18.9692 28.2246L14.7548 30.6578V31.3965L18.9692 28.9633V28.2246Z" fill="#AE7DB1"/>
    </g>
    <path d="M23.1144 31.8442L18.5203 29.1918V28.4531L23.1144 31.1055V31.8442Z" fill="#99609F"/>
    <path d="M34.8552 25.0649L23.1144 31.8435V31.1048L34.8552 24.3262V25.0649Z" fill="#D4BAD4"/>
    <path d="M36.3351 18.2L28.8542 13.8809L4.78888 27.775L12.2697 32.0941L18.5485 28.4691L23.1144 31.1052L34.8552 24.3266L30.2893 21.6905L36.3351 18.2Z" fill="#F2E5E9"/>
    <g style="mix-blend-mode:multiply" opacity="0.6">
      <path d="M23.4709 16.9883L4.78888 27.7744L11.6327 31.7256H12.331C12.2746 31.5769 12.2621 31.4059 12.2866 31.2599C12.3428 30.9241 12.5214 30.6048 12.7371 30.3456C12.9475 30.0929 13.3025 30.448 13.1074 30.7013H14.681L18.5485 28.4684L22.416 30.7013H23.1744V28.3717C23.1744 28.1885 23.3302 28.11 23.4709 28.1286V16.9883Z" fill="#AE7DB1"/>
    </g>
    <path d="M12.289 31.7437L5.25104 27.6803V18.9785L12.289 23.0419V31.7437Z" fill="#9F4803"/>
    <path d="M35.7983 18.1705L12.289 31.7436V23.0419L35.7983 9.46875V18.1705Z" fill="#DF7905"/>
    <mask id="mask2_4546_25381" style="mask-type:luminance" maskUnits="userSpaceOnUse" x="32" y="15" width="2" height="5">
      <path d="M33.9771 15.6367L32.0111 16.7718V19.0478L33.9771 17.9127V15.6367Z" fill="white"/>
    </mask>
    <g mask="url(#mask2_4546_25381)">
      <path d="M31.8938 16.7811L31.9033 18.9128L33.7647 17.8199L33.7725 15.7109L31.8938 16.7811Z" fill="#4B245A"/>
      <path d="M34.1513 18.0028L31.6811 19.4289L31.2636 19.1879L33.7337 17.7617L34.1513 18.0028Z" fill="#F2E5E9"/>
      <path d="M34.3272 18.1151L33.7144 17.7613V15.4277L34.3272 15.7815V18.1151Z" fill="#99609F"/>
      <path d="M31.9816 18.7972L31.9454 18.7762L33.7126 17.7559L33.7489 17.7769L31.9816 18.7972Z" fill="#D0BEDA"/>
      <path d="M33.7489 17.7771L33.7127 17.7561L33.7125 16.3398L33.7487 16.3609L33.7489 17.7771Z" fill="#64317B"/>
      <path d="M33.7486 16.2921L33.7123 16.271L33.7108 15.7129L33.747 15.7339L33.7486 16.2921Z" fill="#64317B"/>
      <path d="M31.9813 17.3129L31.9451 17.2918L33.7123 16.2715L33.7486 16.2925L31.9813 17.3129Z" fill="#D0BEDA"/>
      <path d="M31.9204 16.7209L31.8842 16.6999L33.7696 15.6113L33.8059 15.6324L31.9204 16.7209Z" fill="#D0BEDA"/>
      <path d="M33.1391 18.1306L33.1029 18.1096L33.1027 16.6934L33.1389 16.7144L33.1391 18.1306Z" fill="#64317B"/>
      <path d="M33.1388 16.6456L33.1025 16.6245L33.101 16.0664L33.1372 16.0875L33.1388 16.6456Z" fill="#64317B"/>
      <path d="M32.5312 18.4822L32.495 18.4611L32.4949 17.0449L32.5311 17.066L32.5312 18.4822Z" fill="#64317B"/>
      <path d="M32.5309 16.9971L32.4947 16.9761L32.4931 16.418L32.5293 16.439L32.5309 16.9971Z" fill="#64317B"/>
      <path opacity="0.5" d="M31.8938 16.7811L31.9033 18.9128L33.7647 17.8199L33.7725 15.7109L31.8938 16.7811Z" fill="#261637"/>
      <path d="M33.8059 15.6328L32.5883 16.3358L32.0098 16.6698V16.7378L32.2818 16.5808L32.5294 16.4378L32.531 16.9959L32.0098 17.2968V17.3648L32.2836 17.2068L32.5312 17.0638L32.5314 18.48L32.036 18.7659L32.0098 18.7811V18.8491L32.5906 18.5137L33.8082 17.8108L33.8059 15.6328ZM32.5884 16.4037L33.1382 16.0863L33.1398 16.6444L32.589 16.9624L32.5884 16.4037ZM32.5905 18.4458L32.5891 17.0304L33.14 16.7123L33.1401 18.1285L32.5905 18.4458ZM33.1972 16.0522L33.747 15.7348L33.7486 16.2929L33.1978 16.6109L33.1972 16.0522ZM33.1993 18.0943L33.1978 16.6789L33.7488 16.3608L33.7489 17.777L33.1993 18.0943Z" fill="#AF91BF"/>
    </g>
    <mask id="mask3_4546_25381" style="mask-type:luminance" maskUnits="userSpaceOnUse" x="30" y="16" width="2" height="4">
      <path d="M31.7032 16.9258L30.9028 17.3879V19.6639L31.7032 19.2018V16.9258Z" fill="white"/>
    </mask>
    <g mask="url(#mask3_4546_25381)">
      <path d="M30.7855 17.3972L30.795 19.5289L31.4909 19.109L31.4986 17L30.7855 17.3972Z" fill="#4B245A"/>
      <path d="M31.8773 19.2919L30.5728 20.045L30.1553 19.804L31.4598 19.0508L31.8773 19.2919Z" fill="#F2E5E9"/>
      <path d="M32.0533 19.4042L31.4404 19.0503V16.7168L32.0533 17.0706V19.4042Z" fill="#99609F"/>
      <path d="M30.8733 19.4133L30.837 19.3923L31.4387 19.0449L31.4749 19.066L30.8733 19.4133Z" fill="#D0BEDA"/>
      <path d="M31.475 19.0662L31.4387 19.0451L31.4386 17.6289L31.4748 17.65L31.475 19.0662Z" fill="#64317B"/>
      <path d="M31.4746 17.5811L31.4384 17.5601L31.4368 17.002L31.4731 17.023L31.4746 17.5811Z" fill="#64317B"/>
      <path d="M30.873 17.929L30.8367 17.9079L31.4384 17.5605L31.4746 17.5816L30.873 17.929Z" fill="#D0BEDA"/>
      <path d="M30.8121 17.337L30.7759 17.316L31.4957 16.9004L31.5319 16.9214L30.8121 17.337Z" fill="#D0BEDA"/>
      <path opacity="0.5" d="M30.7855 17.3972L30.795 19.5289L31.4909 19.109L31.4986 17L30.7855 17.3972Z" fill="#261637"/>
      <path d="M30.8121 17.3375L31.5319 16.9219L31.5342 19.0998L30.8144 19.5154L30.8121 17.3375ZM31.475 19.066L31.4748 17.6498L30.8732 17.9972L30.8733 19.4134L31.475 19.066ZM31.4747 17.582L31.4731 17.0239L30.8714 17.3712L30.873 17.9293L31.4747 17.582Z" fill="#AF91BF"/>
    </g>
    <mask id="mask4_4546_25381" style="mask-type:luminance" maskUnits="userSpaceOnUse" x="34" y="14" width="2" height="4">
      <path d="M35.0801 14.9766L34.2797 15.4387V17.7147L35.0801 17.2526V14.9766Z" fill="white"/>
    </mask>
    <g mask="url(#mask4_4546_25381)">
      <path d="M34.1624 15.448L34.1719 17.5797L34.8678 17.1598L34.8755 15.0508L34.1624 15.448Z" fill="#4B245A"/>
      <path d="M35.2543 17.3426L33.9498 18.0958L33.5322 17.8548L34.8368 17.1016L35.2543 17.3426Z" fill="#F2E5E9"/>
      <path d="M35.4302 17.4549L34.8174 17.1011V14.7676L35.4302 15.1214V17.4549Z" fill="#99609F"/>
      <path d="M34.2502 17.4641L34.214 17.4431L34.8157 17.0957L34.8519 17.1168L34.2502 17.4641Z" fill="#D0BEDA"/>
      <path d="M34.8519 17.1169L34.8157 17.0959L34.8156 15.6797L34.8518 15.7007L34.8519 17.1169Z" fill="#64317B"/>
      <path d="M34.8516 15.6319L34.8154 15.6109L34.8138 15.0527L34.85 15.0738L34.8516 15.6319Z" fill="#64317B"/>
      <path d="M34.2499 15.9798L34.2137 15.9587L34.8153 15.6113L34.8516 15.6324L34.2499 15.9798Z" fill="#D0BEDA"/>
      <path d="M34.1891 15.3878L34.1528 15.3668L34.8726 14.9512L34.9089 14.9722L34.1891 15.3878Z" fill="#D0BEDA"/>
      <path opacity="0.5" d="M34.1624 15.448L34.1719 17.5797L34.8678 17.1598L34.8755 15.0508L34.1624 15.448Z" fill="#261637"/>
      <path d="M34.1891 15.3882L34.9089 14.9727L34.9112 17.1506L34.1914 17.5662L34.1891 15.3882ZM34.8519 17.1168L34.8518 15.7006L34.2501 16.048L34.2503 17.4642L34.8519 17.1168ZM34.8516 15.6327L34.85 15.0746L34.2484 15.422L34.2499 15.9801L34.8516 15.6327Z" fill="#AF91BF"/>
    </g>
    <mask id="mask5_4546_25381" style="mask-type:luminance" maskUnits="userSpaceOnUse" x="32" y="11" width="2" height="4">
      <path d="M33.9771 11.5684L32.0111 12.7034V14.9794L33.9771 13.8444V11.5684Z" fill="white"/>
    </mask>
    <g mask="url(#mask5_4546_25381)">
      <path d="M31.8938 12.7127L31.9033 14.8445L33.7647 13.7515L33.7725 11.6426L31.8938 12.7127Z" fill="#4B245A"/>
      <path d="M34.1513 13.9344L31.6811 15.3606L31.2636 15.1195L33.7337 13.6934L34.1513 13.9344Z" fill="#F2E5E9"/>
      <path d="M34.3272 14.0467L33.7144 13.6929V11.3594L34.3272 11.7132V14.0467Z" fill="#99609F"/>
      <path d="M31.9816 14.7289L31.9454 14.7078L33.7126 13.6875L33.7489 13.7086L31.9816 14.7289Z" fill="#D0BEDA"/>
      <path d="M33.7489 13.7087L33.7127 13.6877L33.7125 12.2715L33.7487 12.2925L33.7489 13.7087Z" fill="#64317B"/>
      <path d="M33.7486 12.2237L33.7123 12.2026L33.7108 11.6445L33.747 11.6656L33.7486 12.2237Z" fill="#64317B"/>
      <path d="M31.9813 13.2445L31.9451 13.2235L33.7123 12.2031L33.7486 12.2242L31.9813 13.2445Z" fill="#D0BEDA"/>
      <path d="M31.9204 12.6526L31.8842 12.6315L33.7696 11.543L33.8059 11.564L31.9204 12.6526Z" fill="#D0BEDA"/>
      <path d="M33.1391 14.0623L33.1029 14.0412L33.1027 12.625L33.1389 12.646L33.1391 14.0623Z" fill="#64317B"/>
      <path d="M33.1388 12.5772L33.1025 12.5562L33.101 11.998L33.1372 12.0191L33.1388 12.5772Z" fill="#64317B"/>
      <path d="M32.5312 14.4138L32.495 14.3928L32.4949 12.9766L32.5311 12.9976L32.5312 14.4138Z" fill="#64317B"/>
      <path d="M32.5309 12.9288L32.4947 12.9077L32.4931 12.3496L32.5293 12.3707L32.5309 12.9288Z" fill="#64317B"/>
      <path opacity="0.5" d="M31.8938 12.7127L31.9033 14.8445L33.7647 13.7515L33.7725 11.6426L31.8938 12.7127Z" fill="#261637"/>
      <path d="M33.8059 11.5645L32.5883 12.2674L32.0098 12.6014V12.6694L32.2818 12.5124L32.5294 12.3694L32.531 12.9275L32.0098 13.2284V13.2965L32.2836 13.1384L32.5312 12.9954L32.5314 14.4116L32.036 14.6976L32.0098 14.7127V14.7807L32.5906 14.4454L33.8082 13.7424L33.8059 11.5645ZM32.5884 12.3354L33.1382 12.0179L33.1398 12.576L32.589 12.894L32.5884 12.3354ZM32.5905 14.3774L32.5891 12.962L33.14 12.6439L33.1401 14.0601L32.5905 14.3774ZM33.1972 11.9839L33.747 11.6664L33.7486 12.2245L33.1978 12.5426L33.1972 11.9839ZM33.1993 14.0259L33.1978 12.6105L33.7488 12.2924L33.7489 13.7086L33.1993 14.0259Z" fill="#AF91BF"/>
    </g>
    <mask id="mask6_4546_25381" style="mask-type:luminance" maskUnits="userSpaceOnUse" x="30" y="12" width="2" height="4">
      <path d="M31.7032 12.8574L30.9028 13.3195V15.5955L31.7032 15.1334V12.8574Z" fill="white"/>
    </mask>
    <g mask="url(#mask6_4546_25381)">
      <path d="M30.7855 13.3288L30.795 15.4606L31.4909 15.0406L31.4986 12.9316L30.7855 13.3288Z" fill="#4B245A"/>
      <path d="M31.8773 15.2235L30.5728 15.9767L30.1553 15.7356L31.4598 14.9824L31.8773 15.2235Z" fill="#F2E5E9"/>
      <path d="M32.0533 15.3358L31.4404 14.982V12.6484L32.0533 13.0023V15.3358Z" fill="#99609F"/>
      <path d="M30.8733 15.345L30.837 15.3239L31.4387 14.9766L31.4749 14.9976L30.8733 15.345Z" fill="#D0BEDA"/>
      <path d="M31.475 14.9978L31.4387 14.9767L31.4386 13.5605L31.4748 13.5816L31.475 14.9978Z" fill="#64317B"/>
      <path d="M31.4746 13.5128L31.4384 13.4917L31.4368 12.9336L31.4731 12.9547L31.4746 13.5128Z" fill="#64317B"/>
      <path d="M30.873 13.8606L30.8367 13.8396L31.4384 13.4922L31.4746 13.5132L30.873 13.8606Z" fill="#D0BEDA"/>
      <path d="M30.8121 13.2687L30.7759 13.2476L31.4957 12.832L31.5319 12.8531L30.8121 13.2687Z" fill="#D0BEDA"/>
      <path opacity="0.5" d="M30.7855 13.3288L30.795 15.4606L31.4909 15.0406L31.4986 12.9316L30.7855 13.3288Z" fill="#261637"/>
      <path d="M30.8121 13.2691L31.5319 12.8535L31.5342 15.0315L30.8144 15.4471L30.8121 13.2691ZM31.475 14.9977L31.4748 13.5815L30.8732 13.9289L30.8733 15.3451L31.475 14.9977ZM31.4747 13.5136L31.4731 12.9555L30.8714 13.3029L30.873 13.861L31.4747 13.5136Z" fill="#AF91BF"/>
    </g>
    <mask id="mask7_4546_25381" style="mask-type:luminance" maskUnits="userSpaceOnUse" x="34" y="10" width="2" height="4">
      <path d="M35.0801 10.9082L34.2797 11.3703V13.6463L35.0801 13.1842V10.9082Z" fill="white"/>
    </mask>
    <g mask="url(#mask7_4546_25381)">
      <path d="M34.1624 11.3796L34.1719 13.5114L34.8678 13.0914L34.8755 10.9824L34.1624 11.3796Z" fill="#4B245A"/>
      <path d="M35.2543 13.2743L33.9498 14.0275L33.5322 13.7864L34.8368 13.0332L35.2543 13.2743Z" fill="#F2E5E9"/>
      <path d="M35.4302 13.3866L34.8174 13.0328V10.6992L35.4302 11.053V13.3866Z" fill="#99609F"/>
      <path d="M34.2502 13.3958L34.214 13.3747L34.8157 13.0273L34.8519 13.0484L34.2502 13.3958Z" fill="#D0BEDA"/>
      <path d="M34.8519 13.0486L34.8157 13.0275L34.8156 11.6113L34.8518 11.6324L34.8519 13.0486Z" fill="#64317B"/>
      <path d="M34.8516 11.5635L34.8154 11.5425L34.8138 10.9844L34.85 11.0054L34.8516 11.5635Z" fill="#64317B"/>
      <path d="M34.2499 11.9114L34.2137 11.8903L34.8153 11.543L34.8516 11.564L34.2499 11.9114Z" fill="#D0BEDA"/>
      <path d="M34.1891 11.3195L34.1528 11.2984L34.8726 10.8828L34.9089 10.9039L34.1891 11.3195Z" fill="#D0BEDA"/>
      <path opacity="0.5" d="M34.1624 11.3796L34.1719 13.5114L34.8678 13.0914L34.8755 10.9824L34.1624 11.3796Z" fill="#261637"/>
      <path d="M34.1891 11.3199L34.9089 10.9043L34.9112 13.0822L34.1914 13.4978L34.1891 11.3199ZM34.8519 13.0485L34.8518 11.6323L34.2501 11.9796L34.2503 13.3959L34.8519 13.0485ZM34.8516 11.5644L34.85 11.0063L34.2484 11.3537L34.2499 11.9118L34.8516 11.5644Z" fill="#AF91BF"/>
    </g>
    <path d="M23.132 30.7317L18.5605 28.0924V19.3906L23.132 22.03V30.7317Z" fill="#9F4803"/>
    <path d="M34.198 24.3424L23.132 30.7314V22.0296L34.198 15.6406V24.3424Z" fill="#DF7905"/>
    <path d="M35.7983 9.46961L28.7603 5.40625L5.25104 18.9794L12.289 23.0427L18.5881 19.4059L23.132 22.0293L34.198 15.6403L29.6542 13.0169L35.7983 9.46961Z" fill="#EFA012"/>
    <path d="M12.2697 23.6114L4.78888 19.2923V18.8555L12.2697 23.1746V23.6114Z" fill="#99609F"/>
    <path d="M36.3352 9.71806L12.2699 23.6122V23.1754L36.3352 9.28125V9.71806Z" fill="#D4BAD4"/>
    <path d="M23.1144 22.6247L18.5502 19.9895V19.5527L23.1144 22.1879V22.6247Z" fill="#99609F"/>
    <path d="M34.8552 15.845L23.1144 22.6236V22.1868L34.8552 15.4082V15.845Z" fill="#D4BAD4"/>
    <path d="M36.3351 9.28198L28.8542 4.96289L4.78888 18.857L12.2697 23.1761L18.5485 19.5511L23.1144 22.1872L34.8552 15.4086L30.2893 12.7725L36.3351 9.28198Z" fill="#F2E5E9"/>
    <g style="mix-blend-mode:multiply" opacity="0.6">
      <path d="M21.8491 19.0873C21.1508 18.3783 20.4373 17.7022 19.6815 17.0535C18.1114 15.7059 16.5545 14.2632 14.8899 13.0254L4.78888 18.8572L11.6022 22.7909H12.2751C12.2751 21.5246 12.1721 21.2331 12.455 21.1547C12.5252 20.945 12.8619 20.8965 12.944 21.1609C12.9987 21.3368 13.2432 21.2709 13.5241 21.1258C13.5845 21.0706 14.5147 20.4558 14.8441 20.2939C15.0942 20.0955 15.3284 19.8116 15.5644 20.0145C15.7481 19.9573 15.8906 19.8855 16.0094 20.0369H17.1272L17.4273 20.1986L18.5485 19.5513L22.4555 21.807H23.1205V20.094C22.6073 19.8843 22.2509 19.4954 21.8491 19.0873Z" fill="#AE7DB1"/>
    </g>
    <path d="M12.289 22.8103L5.25104 18.7469V17.7988L12.289 21.8622V22.8103Z" fill="#99609F"/>
    <path d="M35.7983 9.23716L12.289 22.8103V21.8622L35.7983 8.28906V9.23716Z" fill="#D4BAD4"/>
    <path d="M23.132 21.7983L18.5605 19.159V18.2109L23.132 20.8503V21.7983Z" fill="#99609F"/>
    <path d="M34.198 15.409L23.132 21.798V20.8499L34.198 14.4609V15.409Z" fill="#D4BAD4"/>
    <path d="M35.7983 8.28993L28.7603 4.22656L5.25104 17.7997L12.289 21.863L18.5881 18.2262L23.132 20.8496L34.198 14.4606L29.6542 11.8372L35.7983 8.28993Z" fill="#F2E5E9"/>
    <path d="M5.68237 17.8005L28.7602 4.47656L35.367 8.29086L29.2227 11.8381L33.7665 14.4617L23.1319 20.6014L18.5881 17.9782L12.2892 21.6152L5.68237 17.8005Z" fill="#38183B"/>
    <mask id="mask8_4546_25381" style="mask-type:luminance" maskUnits="userSpaceOnUse" x="32" y="21" width="2" height="3">
      <path d="M33.6632 21.0742L32.8629 21.5363V23.8123L33.6632 23.3502V21.0742Z" fill="white"/>
    </mask>
    <g mask="url(#mask8_4546_25381)">
      <path d="M32.7456 21.5456L32.7551 23.6774L33.4509 23.2574L33.4586 21.1484L32.7456 21.5456Z" fill="#4B245A"/>
      <path d="M33.8374 23.4403L32.5329 24.1935L32.1154 23.9524L33.4199 23.1992L33.8374 23.4403Z" fill="#F2E5E9"/>
      <path d="M34.0133 23.5526L33.4005 23.1988V20.8652L34.0133 21.219V23.5526Z" fill="#99609F"/>
      <path d="M32.8333 23.5618L32.7971 23.5407L33.3988 23.1934L33.435 23.2144L32.8333 23.5618Z" fill="#D0BEDA"/>
      <path d="M33.435 23.2146L33.3988 23.1936L33.3987 21.7773L33.4349 21.7984L33.435 23.2146Z" fill="#64317B"/>
      <path d="M33.4347 21.7296L33.3985 21.7085L33.3969 21.1504L33.4331 21.1714L33.4347 21.7296Z" fill="#64317B"/>
      <path d="M32.833 22.0774L32.7968 22.0564L33.3985 21.709L33.4347 21.73L32.833 22.0774Z" fill="#D0BEDA"/>
      <path d="M32.7722 21.4855L32.736 21.4644L33.4558 21.0488L33.492 21.0699L32.7722 21.4855Z" fill="#D0BEDA"/>
      <path opacity="0.5" d="M32.7456 21.5456L32.7551 23.6774L33.4509 23.2574L33.4586 21.1484L32.7456 21.5456Z" fill="#261637"/>
      <path d="M32.7722 21.4859L33.492 21.0703L33.4943 23.2483L32.7745 23.6638L32.7722 21.4859ZM33.4351 23.2145L33.4349 21.7983L32.8333 22.1457L32.8334 23.5619L33.4351 23.2145ZM33.4347 21.7304L33.4332 21.1723L32.8315 21.5197L32.8331 22.0778L33.4347 21.7304Z" fill="#AF91BF"/>
    </g>
    <mask id="mask9_4546_25381" style="mask-type:luminance" maskUnits="userSpaceOnUse" x="31" y="21" width="2" height="4">
      <path d="M32.5747 21.7031L31.7744 22.1652V24.4412L32.5747 23.9791V21.7031Z" fill="white"/>
    </mask>
    <g mask="url(#mask9_4546_25381)">
      <path d="M31.6571 22.1745L31.6666 24.3063L32.3624 23.8863L32.3701 21.7773L31.6571 22.1745Z" fill="#4B245A"/>
      <path d="M32.7489 24.0692L31.4444 24.8224L31.0269 24.5813L32.3314 23.8281L32.7489 24.0692Z" fill="#F2E5E9"/>
      <path d="M32.9248 24.1815L32.312 23.8277V21.4941L32.9248 21.848V24.1815Z" fill="#99609F"/>
      <path d="M31.7448 24.1907L31.7086 24.1696L32.3103 23.8223L32.3465 23.8433L31.7448 24.1907Z" fill="#D0BEDA"/>
      <path d="M32.3465 23.8435L32.3103 23.8224L32.3102 22.4062L32.3464 22.4273L32.3465 23.8435Z" fill="#64317B"/>
      <path d="M32.3462 22.3585L32.31 22.3374L32.3084 21.7793L32.3446 21.8004L32.3462 22.3585Z" fill="#64317B"/>
      <path d="M31.7445 22.7063L31.7083 22.6853L32.31 22.3379L32.3462 22.3589L31.7445 22.7063Z" fill="#D0BEDA"/>
      <path d="M31.6837 22.1144L31.6475 22.0933L32.3673 21.6777L32.4035 21.6988L31.6837 22.1144Z" fill="#D0BEDA"/>
      <path opacity="0.5" d="M31.6571 22.1745L31.6666 24.3063L32.3624 23.8863L32.3701 21.7773L31.6571 22.1745Z" fill="#261637"/>
      <path d="M31.6837 22.1148L32.4035 21.6992L32.4058 23.8772L31.686 24.2928L31.6837 22.1148ZM32.3466 23.8434L32.3464 22.4272L31.7448 22.7746L31.7449 24.1908L32.3466 23.8434ZM32.3462 22.3593L32.3447 21.8012L31.743 22.1486L31.7446 22.7067L32.3462 22.3593Z" fill="#AF91BF"/>
    </g>
    <mask id="mask10_4546_25381" style="mask-type:luminance" maskUnits="userSpaceOnUse" x="24" y="25" width="2" height="4">
      <path d="M25.6349 25.709L24.8345 26.1711V28.4471L25.6349 27.985V25.709Z" fill="white"/>
    </mask>
    <g mask="url(#mask10_4546_25381)">
      <path d="M24.7172 26.1804L24.7266 28.3121L25.4225 27.8922L25.4302 25.7832L24.7172 26.1804Z" fill="#4B245A"/>
      <path d="M25.809 28.0751L24.5045 28.8282L24.087 28.5872L25.3915 27.834L25.809 28.0751Z" fill="#F2E5E9"/>
      <path d="M25.985 28.1874L25.3721 27.8335V25.5L25.985 25.8538V28.1874Z" fill="#99609F"/>
      <path d="M24.805 28.1966L24.7687 28.1755L25.3704 27.8281L25.4066 27.8492L24.805 28.1966Z" fill="#D0BEDA"/>
      <path d="M25.4067 27.8494L25.3704 27.8283L25.3703 26.4121L25.4065 26.4332L25.4067 27.8494Z" fill="#64317B"/>
      <path d="M25.4063 26.3643L25.3701 26.3433L25.3685 25.7852L25.4048 25.8062L25.4063 26.3643Z" fill="#64317B"/>
      <path d="M24.8047 26.7122L24.7684 26.6911L25.3701 26.3438L25.4063 26.3648L24.8047 26.7122Z" fill="#D0BEDA"/>
      <path d="M24.7438 26.1202L24.7076 26.0992L25.4274 25.6836L25.4636 25.7046L24.7438 26.1202Z" fill="#D0BEDA"/>
      <path opacity="0.5" d="M24.7172 26.1804L24.7266 28.3121L25.4225 27.8922L25.4302 25.7832L24.7172 26.1804Z" fill="#261637"/>
      <path d="M24.7438 26.1207L25.4636 25.7051L25.4659 27.883L24.7461 28.2986L24.7438 26.1207ZM25.4067 27.8493L25.4065 26.4331L24.8049 26.7804L24.805 28.1966L25.4067 27.8493ZM25.4063 26.3652L25.4048 25.8071L24.8031 26.1544L24.8047 26.7126L25.4063 26.3652Z" fill="#AF91BF"/>
    </g>
    <mask id="mask11_4546_25381" style="mask-type:luminance" maskUnits="userSpaceOnUse" x="23" y="26" width="2" height="4">
      <path d="M24.5464 26.3379L23.746 26.8V29.076L24.5464 28.6139V26.3379Z" fill="white"/>
    </mask>
    <g mask="url(#mask11_4546_25381)">
      <path d="M23.6287 26.8093L23.6381 28.9411L24.334 28.5211L24.3417 26.4121L23.6287 26.8093Z" fill="#4B245A"/>
      <path d="M24.7205 28.7039L23.416 29.4571L22.9985 29.2161L24.303 28.4629L24.7205 28.7039Z" fill="#F2E5E9"/>
      <path d="M24.8965 28.8163L24.2836 28.4625V26.1289L24.8965 26.4827V28.8163Z" fill="#99609F"/>
      <path d="M23.7165 28.8255L23.6802 28.8044L24.2819 28.457L24.3181 28.4781L23.7165 28.8255Z" fill="#D0BEDA"/>
      <path d="M24.3182 28.4783L24.2819 28.4572L24.2818 27.041L24.318 27.0621L24.3182 28.4783Z" fill="#64317B"/>
      <path d="M24.3178 26.9932L24.2816 26.9722L24.28 26.4141L24.3163 26.4351L24.3178 26.9932Z" fill="#64317B"/>
      <path d="M23.7162 27.3411L23.6799 27.32L24.2816 26.9727L24.3178 26.9937L23.7162 27.3411Z" fill="#D0BEDA"/>
      <path d="M23.6553 26.7491L23.6191 26.7281L24.3389 26.3125L24.3751 26.3335L23.6553 26.7491Z" fill="#D0BEDA"/>
      <path opacity="0.5" d="M23.6287 26.8093L23.6381 28.9411L24.334 28.5211L24.3417 26.4121L23.6287 26.8093Z" fill="#261637"/>
      <path d="M23.6553 26.7496L24.3751 26.334L24.3774 28.5119L23.6576 28.9275L23.6553 26.7496ZM24.3182 28.4782L24.318 27.062L23.7164 27.4093L23.7165 28.8255L24.3182 28.4782ZM24.3178 26.9941L24.3163 26.436L23.7146 26.7833L23.7162 27.3415L24.3178 26.9941Z" fill="#AF91BF"/>
    </g>
    <mask id="mask12_4546_25381" style="mask-type:luminance" maskUnits="userSpaceOnUse" x="14" y="25" width="3" height="5">
      <path d="M16.1432 25.9316L14.1772 27.0667V29.3427L16.1432 28.2076V25.9316Z" fill="white"/>
    </mask>
    <g mask="url(#mask12_4546_25381)">
      <path d="M14.06 27.076L14.0695 29.2078L15.9309 28.1148L15.9386 26.0059L14.06 27.076Z" fill="#4B245A"/>
      <path d="M16.3174 28.2977L13.8473 29.7239L13.4297 29.4828L15.8999 28.0566L16.3174 28.2977Z" fill="#F2E5E9"/>
      <path d="M16.4934 28.41L15.8806 28.0562V25.7227L16.4934 26.0765V28.41Z" fill="#99609F"/>
      <path d="M14.1477 29.0922L14.1115 29.0711L15.8788 28.0508L15.915 28.0718L14.1477 29.0922Z" fill="#D0BEDA"/>
      <path d="M15.915 28.072L15.8788 28.051L15.8787 26.6348L15.9149 26.6558L15.915 28.072Z" fill="#64317B"/>
      <path d="M15.9147 26.587L15.8785 26.5659L15.8769 26.0078L15.9131 26.0289L15.9147 26.587Z" fill="#64317B"/>
      <path d="M14.1474 27.6078L14.1112 27.5867L15.8785 26.5664L15.9147 26.5875L14.1474 27.6078Z" fill="#D0BEDA"/>
      <path d="M14.0866 27.0158L14.0504 26.9948L15.9358 25.9062L15.972 25.9273L14.0866 27.0158Z" fill="#D0BEDA"/>
      <path d="M15.3052 28.4255L15.269 28.4045L15.2689 26.9883L15.3051 27.0093L15.3052 28.4255Z" fill="#64317B"/>
      <path d="M15.3049 26.9405L15.2687 26.9194L15.2671 26.3613L15.3033 26.3824L15.3049 26.9405Z" fill="#64317B"/>
      <path d="M14.6974 28.7771L14.6611 28.756L14.661 27.3398L14.6972 27.3609L14.6974 28.7771Z" fill="#64317B"/>
      <path d="M14.6971 27.2921L14.6608 27.271L14.6592 26.7129L14.6955 26.7339L14.6971 27.2921Z" fill="#64317B"/>
      <path opacity="0.5" d="M14.06 27.076L14.0695 29.2078L15.9309 28.1148L15.9386 26.0059L14.06 27.076Z" fill="#261637"/>
      <path d="M15.972 25.9277L14.7544 26.6307L14.1759 26.9647V27.0327L14.4479 26.8757L14.6956 26.7327L14.6971 27.2908L14.1759 27.5917V27.6597L14.4497 27.5017L14.6974 27.3587L14.6975 28.7749L14.2022 29.0608L14.1759 29.076V29.144L14.7567 28.8086L15.9743 28.1057L15.972 25.9277ZM14.7545 26.6986L15.3043 26.3812L15.3059 26.9393L14.7551 27.2573L14.7545 26.6986ZM14.7567 28.7407L14.7552 27.3253L15.3061 27.0072L15.3063 28.4234L14.7567 28.7407ZM15.3633 26.3472L15.9131 26.0297L15.9147 26.5878L15.3639 26.9058L15.3633 26.3472ZM15.3654 28.3892L15.364 26.9738L15.9149 26.6557L15.915 28.0719L15.3654 28.3892Z" fill="#AF91BF"/>
    </g>
    <mask id="mask13_4546_25381" style="mask-type:luminance" maskUnits="userSpaceOnUse" x="13" y="27" width="1" height="3">
      <path d="M13.8692 27.2207L13.0688 27.6828V29.9588L13.8692 29.4967V27.2207Z" fill="white"/>
    </mask>
    <g mask="url(#mask13_4546_25381)">
      <path d="M12.9515 27.6921L12.961 29.8239L13.6569 29.4039L13.6646 27.2949L12.9515 27.6921Z" fill="#4B245A"/>
      <path d="M14.0434 29.5868L12.7389 30.34L12.3214 30.0989L13.6259 29.3457L14.0434 29.5868Z" fill="#F2E5E9"/>
      <path d="M14.2193 29.6991L13.6065 29.3453V27.0117L14.2193 27.3655V29.6991Z" fill="#99609F"/>
      <path d="M13.0394 29.7083L13.0031 29.6872L13.6048 29.3398L13.641 29.3609L13.0394 29.7083Z" fill="#D0BEDA"/>
      <path d="M13.641 29.3611L13.6048 29.34L13.6047 27.9238L13.6409 27.9449L13.641 29.3611Z" fill="#64317B"/>
      <path d="M13.6407 27.876L13.6045 27.855L13.6029 27.2969L13.6391 27.3179L13.6407 27.876Z" fill="#64317B"/>
      <path d="M13.039 28.2239L13.0028 28.2028L13.6045 27.8555L13.6407 27.8765L13.039 28.2239Z" fill="#D0BEDA"/>
      <path d="M12.9782 27.632L12.942 27.6109L13.6618 27.1953L13.698 27.2164L12.9782 27.632Z" fill="#D0BEDA"/>
      <path opacity="0.5" d="M12.9515 27.6921L12.961 29.8239L13.6569 29.4039L13.6646 27.2949L12.9515 27.6921Z" fill="#261637"/>
      <path d="M12.9782 27.6324L13.698 27.2168L13.7003 29.3947L12.9805 29.8103L12.9782 27.6324ZM13.641 29.361L13.6409 27.9448L13.0392 28.2921L13.0394 29.7084L13.641 29.361ZM13.6407 27.8769L13.6391 27.3188L13.0375 27.6662L13.0391 28.2243L13.6407 27.8769Z" fill="#AF91BF"/>
    </g>
    <mask id="mask14_4546_25381" style="mask-type:luminance" maskUnits="userSpaceOnUse" x="16" y="25" width="2" height="4">
      <path d="M17.2462 25.2715L16.4458 25.7336V28.0096L17.2462 27.5475V25.2715Z" fill="white"/>
    </mask>
    <g mask="url(#mask14_4546_25381)">
      <path d="M16.3286 25.7429L16.338 27.8746L17.0339 27.4547L17.0416 25.3457L16.3286 25.7429Z" fill="#4B245A"/>
      <path d="M17.4204 27.6375L16.1158 28.3907L15.6983 28.1497L17.0028 27.3965L17.4204 27.6375Z" fill="#F2E5E9"/>
      <path d="M17.5963 27.7499L16.9835 27.396V25.0625L17.5963 25.4163V27.7499Z" fill="#99609F"/>
      <path d="M16.4163 27.7591L16.3801 27.738L16.9817 27.3906L17.018 27.4117L16.4163 27.7591Z" fill="#D0BEDA"/>
      <path d="M17.018 27.4119L16.9818 27.3908L16.9816 25.9746L17.0179 25.9957L17.018 27.4119Z" fill="#64317B"/>
      <path d="M17.0177 25.9268L16.9815 25.9058L16.9799 25.3477L17.0161 25.3687L17.0177 25.9268Z" fill="#64317B"/>
      <path d="M16.416 26.2747L16.3798 26.2536L16.9814 25.9062L17.0177 25.9273L16.416 26.2747Z" fill="#D0BEDA"/>
      <path d="M16.3551 25.6827L16.3189 25.6617L17.0387 25.2461L17.0749 25.2672L16.3551 25.6827Z" fill="#D0BEDA"/>
      <path opacity="0.5" d="M16.3286 25.7429L16.338 27.8746L17.0339 27.4547L17.0416 25.3457L16.3286 25.7429Z" fill="#261637"/>
      <path d="M16.3552 25.6832L17.075 25.2676L17.0773 27.4455L16.3575 27.8611L16.3552 25.6832ZM17.018 27.4118L17.0179 25.9956L16.4162 26.3429L16.4163 27.7591L17.018 27.4118ZM17.0177 25.9277L17.0161 25.3696L16.4144 25.7169L16.416 26.275L17.0177 25.9277Z" fill="#AF91BF"/>
    </g>
    <mask id="mask15_4546_25381" style="mask-type:luminance" maskUnits="userSpaceOnUse" x="14" y="21" width="3" height="5">
      <path d="M16.1432 21.8633L14.1772 22.9983V25.2744L16.1432 24.1393V21.8633Z" fill="white"/>
    </mask>
    <g mask="url(#mask15_4546_25381)">
      <path d="M14.06 23.0076L14.0695 25.1394L15.9309 24.0465L15.9386 21.9375L14.06 23.0076Z" fill="#4B245A"/>
      <path d="M16.3174 24.2294L13.8473 25.6555L13.4297 25.4144L15.8999 23.9883L16.3174 24.2294Z" fill="#F2E5E9"/>
      <path d="M16.4934 24.3417L15.8806 23.9878V21.6543L16.4934 22.0081V24.3417Z" fill="#99609F"/>
      <path d="M14.1477 25.0238L14.1115 25.0028L15.8788 23.9824L15.915 24.0035L14.1477 25.0238Z" fill="#D0BEDA"/>
      <path d="M15.915 24.0037L15.8788 23.9826L15.8787 22.5664L15.9149 22.5875L15.915 24.0037Z" fill="#64317B"/>
      <path d="M15.9147 22.5186L15.8785 22.4976L15.8769 21.9395L15.9131 21.9605L15.9147 22.5186Z" fill="#64317B"/>
      <path d="M14.1474 23.5394L14.1112 23.5184L15.8785 22.498L15.9147 22.5191L14.1474 23.5394Z" fill="#D0BEDA"/>
      <path d="M14.0866 22.9475L14.0504 22.9264L15.9358 21.8379L15.972 21.8589L14.0866 22.9475Z" fill="#D0BEDA"/>
      <path d="M15.3052 24.3572L15.269 24.3361L15.2689 22.9199L15.3051 22.941L15.3052 24.3572Z" fill="#64317B"/>
      <path d="M15.3049 22.8721L15.2687 22.8511L15.2671 22.293L15.3033 22.314L15.3049 22.8721Z" fill="#64317B"/>
      <path d="M14.6974 24.7087L14.6611 24.6877L14.661 23.2715L14.6972 23.2925L14.6974 24.7087Z" fill="#64317B"/>
      <path d="M14.6971 23.2237L14.6608 23.2026L14.6592 22.6445L14.6955 22.6656L14.6971 23.2237Z" fill="#64317B"/>
      <path opacity="0.5" d="M14.06 23.0076L14.0695 25.1394L15.9309 24.0465L15.9386 21.9375L14.06 23.0076Z" fill="#261637"/>
      <path d="M15.972 21.8594L14.7544 22.5623C14.7544 22.5623 14.1759 22.8963 14.1759 22.8963V22.9643L14.4479 22.8073L14.6956 22.6643L14.6971 23.2224L14.1759 23.5234V23.5914L14.4497 23.4333L14.6974 23.2903L14.6975 24.7065L14.2022 24.9925L14.1759 25.0076V25.0756L14.7567 24.7403L15.9743 24.0373L15.972 21.8594ZM14.7545 22.6303L15.3043 22.3128L15.3059 22.8709L14.7551 23.1889L14.7545 22.6303ZM14.7567 24.6723L14.7552 23.2569L15.3061 22.9388L15.3063 24.355L14.7567 24.6723ZM15.3633 22.2788L15.9131 21.9614L15.9147 22.5195L15.3639 22.8375L15.3633 22.2788ZM15.3654 24.3209L15.364 22.9054L15.9149 22.5874L15.915 24.0036L15.3654 24.3209Z" fill="#AF91BF"/>
    </g>
    <mask id="mask16_4546_25381" style="mask-type:luminance" maskUnits="userSpaceOnUse" x="13" y="23" width="1" height="3">
      <path d="M13.8692 23.1523L13.0688 23.6145V25.8905L13.8692 25.4284V23.1523Z" fill="white"/>
    </mask>
    <g mask="url(#mask16_4546_25381)">
      <path d="M12.9515 23.6237L12.961 25.7555L13.6569 25.3355L13.6646 23.2266L12.9515 23.6237Z" fill="#4B245A"/>
      <path d="M14.0434 25.5184L12.7389 26.2716L12.3214 26.0305L13.6259 25.2773L14.0434 25.5184Z" fill="#F2E5E9"/>
      <path d="M14.2193 25.6307L13.6065 25.2769V22.9434L14.2193 23.2972V25.6307Z" fill="#99609F"/>
      <path d="M13.0394 25.6399L13.0031 25.6189L13.6048 25.2715L13.641 25.2925L13.0394 25.6399Z" fill="#D0BEDA"/>
      <path d="M13.641 25.2927L13.6048 25.2717L13.6047 23.8555L13.6409 23.8765L13.641 25.2927Z" fill="#64317B"/>
      <path d="M13.6407 23.8077L13.6045 23.7866L13.6029 23.2285L13.6391 23.2496L13.6407 23.8077Z" fill="#64317B"/>
      <path d="M13.039 24.1555L13.0028 24.1345L13.6045 23.7871L13.6407 23.8082L13.039 24.1555Z" fill="#D0BEDA"/>
      <path d="M12.9782 23.5636L12.942 23.5425L13.6618 23.127L13.698 23.148L12.9782 23.5636Z" fill="#D0BEDA"/>
      <path opacity="0.5" d="M12.9515 23.6237L12.961 25.7555L13.6569 25.3355L13.6646 23.2266L12.9515 23.6237Z" fill="#261637"/>
      <path d="M12.9782 23.564L13.698 23.1484L13.7003 25.3264L12.9805 25.742L12.9782 23.564ZM13.641 25.2926L13.6409 23.8764L13.0392 24.2238L13.0394 25.64L13.641 25.2926ZM13.6407 23.8085L13.6391 23.2504L13.0375 23.5978L13.0391 24.1559L13.6407 23.8085Z" fill="#AF91BF"/>
    </g>
    <mask id="mask17_4546_25381" style="mask-type:luminance" maskUnits="userSpaceOnUse" x="16" y="21" width="2" height="3">
      <path d="M17.2462 21.2031L16.4458 21.6652V23.9412L17.2462 23.4791V21.2031Z" fill="white"/>
    </mask>
    <g mask="url(#mask17_4546_25381)">
      <path d="M16.3286 21.6745L16.338 23.8063L17.0339 23.3863L17.0416 21.2773L16.3286 21.6745Z" fill="#4B245A"/>
      <path d="M17.4204 23.5692L16.1158 24.3224L15.6983 24.0813L17.0028 23.3281L17.4204 23.5692Z" fill="#F2E5E9"/>
      <path d="M17.5963 23.6815L16.9835 23.3277V20.9941L17.5963 21.3479V23.6815Z" fill="#99609F"/>
      <path d="M16.4163 23.6907L16.3801 23.6696L16.9817 23.3223L17.018 23.3433L16.4163 23.6907Z" fill="#D0BEDA"/>
      <path d="M17.018 23.3435L16.9818 23.3225L16.9816 21.9062L17.0179 21.9273L17.018 23.3435Z" fill="#64317B"/>
      <path d="M17.0177 21.8585L16.9815 21.8374L16.9799 21.2793L17.0161 21.3003L17.0177 21.8585Z" fill="#64317B"/>
      <path d="M16.416 22.2063L16.3798 22.1853L16.9814 21.8379L17.0177 21.8589L16.416 22.2063Z" fill="#D0BEDA"/>
      <path d="M16.3551 21.6144L16.3189 21.5933L17.0387 21.1777L17.0749 21.1988L16.3551 21.6144Z" fill="#D0BEDA"/>
      <path opacity="0.5" d="M16.3286 21.6745L16.338 23.8063L17.0339 23.3863L17.0416 21.2773L16.3286 21.6745Z" fill="#261637"/>
      <path d="M16.3552 21.6148L17.075 21.1992L17.0773 23.3772L16.3575 23.7928L16.3552 21.6148ZM17.018 23.3434L17.0179 21.9272L16.4162 22.2746L16.4163 23.6908L17.018 23.3434ZM17.0177 21.8593L17.0161 21.3012L16.4144 21.6486L16.416 22.2067L17.0177 21.8593Z" fill="#AF91BF"/>
    </g>
    <path d="M31.2141 26.0614L31.2301 26.0522V21.8828L27.4935 23.9134L31.2141 26.0614Z" fill="#99609F"/>
    <path opacity="0.6" d="M31.2301 21.8828L26.6596 24.3769V28.6927L31.2301 26.0522V21.8828Z" fill="#261637"/>
    <path d="M31.1908 21.7755V22.9102L30.3876 23.3771C30.3873 23.3774 30.3873 22.2289 30.3873 22.2289C30.3731 22.237 30.3589 22.2451 30.3446 22.2532V23.392L29.6831 23.7771V22.6335C29.6689 22.6417 29.6546 22.6498 29.6404 22.658V23.802L28.9788 24.1871V23.0343C28.9646 23.0423 28.9504 23.0502 28.9362 23.0582V24.2119L28.2748 24.5969C28.2746 24.5972 28.2746 23.4197 28.2746 23.4197C28.2604 23.4272 28.2462 23.435 28.232 23.4425V24.6118L27.5704 24.9969V23.7775C27.5562 23.7843 27.5419 23.7904 27.5277 23.7972V25.0217L26.7018 25.5017V24.1856C26.6877 24.196 26.6733 24.206 26.6591 24.2163V28.696L26.7018 28.6714V27.1441L27.5277 26.6641V28.1946L30.3873 26.5435V25.0194C30.3876 25.0194 31.1908 24.5525 31.1908 24.5525V26.0796L31.2335 26.055V21.752C31.2192 21.7598 31.205 21.7677 31.1908 21.7755ZM27.5277 26.6148L26.7018 27.0947V25.5511L27.5277 25.0711V26.6148ZM27.5704 25.0462L28.232 24.6612V25.0387L27.5704 25.4238V25.0462ZM28.8693 27.3011L27.6464 28.0072V25.5274L28.8693 24.8213V27.3011ZM28.9362 24.6388L28.2748 25.0237C28.2746 25.0241 28.2746 24.6462 28.2746 24.6462C28.2748 24.6462 28.9362 24.2612 28.9362 24.2612V24.6388ZM28.9788 24.2364L29.6404 23.8513V24.2288L28.9788 24.6139V24.2364ZM30.2719 26.4913L29.049 27.1973V24.7176L30.2719 24.0115V26.4913ZM30.3446 23.8189L29.6831 24.204V23.8265L30.3446 23.4414V23.8189ZM31.1908 24.5032L30.3876 24.9701C30.3873 24.9704 30.3873 23.4264 30.3873 23.4264C30.3876 23.4264 31.1908 22.9595 31.1908 22.9595V24.5032Z" fill="#AF91BF"/>
    <path d="M32.965 27.7007L33.339 27.4844L33.3385 27.6564L32.9645 27.8727L32.965 27.7007Z" fill="#D4BAD4"/>
    <path d="M32.5138 26.0552L32.1398 26.2715L32.9657 27.6991L33.3396 27.4828L32.5138 26.0552Z" fill="#F5F1F7"/>
    <path d="M31.2325 25.7476L31.6065 25.5312L32.5144 26.0554L32.1404 26.2718L31.2325 25.7476Z" fill="#F2E5E9"/>
    <path d="M32.1404 26.2722L32.965 27.7006L32.9646 27.8726L31.4805 27.0158L31.4828 26.1982L31.2316 26.0532L31.2325 25.748L32.1404 26.2722Z" fill="#99609F"/>
    <path d="M28.1576 30.4348L32.7789 27.7677L32.7795 27.6328L28.1583 30.2999L28.1576 30.4348Z" fill="#D4BAD4"/>
    <path d="M28.1583 30.3003L32.7796 27.6332L32.6774 27.5742L28.0561 30.2413L28.1583 30.3003Z" fill="#F2E5E9"/>
    <path d="M28.0568 30.1069L32.678 27.4399L32.5758 27.3809L27.9545 30.0479L28.0568 30.1069Z" fill="#F2E5E9"/>
    <path d="M28.0561 30.2414L32.6774 27.5743L32.6781 27.4395L28.0568 30.1065L28.0561 30.2414Z" fill="#D4BAD4"/>
    <path d="M27.9545 30.048L32.5758 27.381L32.5765 27.2461L27.9552 29.9132L27.9545 30.048Z" fill="#D4BAD4"/>
    <path d="M27.9552 29.9122L32.5765 27.2452L32.436 27.1641L27.8147 29.8254L27.9552 29.9122Z" fill="#F2E5E9"/>
    <path d="M27.8436 29.8424L32.4649 27.1754L32.4643 27.0391L27.8431 29.7061L27.8436 29.8424Z" fill="#D4BAD4"/>
    <path d="M27.8431 29.7046L32.4644 27.0375L32.3621 26.9785L27.7408 29.6456L27.8431 29.7046Z" fill="#F2E5E9"/>
    <path d="M27.7408 29.6457L32.3621 26.9786L32.3628 26.8438L27.7415 29.5108L27.7408 29.6457Z" fill="#D4BAD4"/>
    <path d="M27.7415 29.5112L32.3628 26.8442L32.2606 26.7852L27.6393 29.4522L27.7415 29.5112Z" fill="#F2E5E9"/>
    <path d="M27.6393 29.4523L32.2606 26.7853L32.2612 26.6504L27.64 29.3174L27.6393 29.4523Z" fill="#D4BAD4"/>
    <path d="M27.64 29.3177L32.2612 26.6506L31.4791 26.1953L26.8578 28.8624L27.64 29.3177Z" fill="#F2E5E9"/>
    <path d="M28.0561 30.2372L28.0568 30.1023L27.9546 30.0432L27.9553 29.9083L27.8436 29.838L27.8431 29.7017L27.7408 29.6427L27.7415 29.5078L27.6393 29.4487L27.64 29.3138L26.8596 28.8633L26.8578 29.679L28.1577 30.4311L28.1583 30.2962L28.0561 30.2372Z" fill="#99609F"/>
    <path d="M27.9377 30.6031L28.3117 30.3867L28.3112 30.5587L27.9373 30.7751L27.9377 30.6031Z" fill="#D4BAD4"/>
    <path d="M27.4865 28.9575L27.1125 29.1738L27.9384 30.6014L28.3124 30.3851L27.4865 28.9575Z" fill="#F5F1F7"/>
    <path d="M26.2052 28.6499L26.5792 28.4336L27.4871 28.9578L27.1131 29.1741L26.2052 28.6499Z" fill="#F2E5E9"/>
    <path d="M27.1131 29.1746L27.9378 30.6029L27.9373 30.7749L26.4532 29.9181L26.4556 29.1006L26.2043 28.9556L26.2052 28.6504L27.1131 29.1746Z" fill="#99609F"/>
    <path d="M26.9555 28.5272L26.5804 28.3105L26.2052 28.5272L26.5804 28.7438L26.9555 28.5272Z" fill="#F2E5E9"/>
    <path d="M26.5804 28.8662L26.2052 28.6496V28.5273L26.5804 28.7439V28.8662Z" fill="#99609F"/>
    <path d="M26.9556 28.6496L26.5804 28.8662V28.7439L26.9556 28.5273V28.6496Z" fill="#D4BAD4"/>
    <path d="M26.7375 28.3539C26.6523 28.3026 26.5111 28.3011 26.4222 28.3507C26.3334 28.4003 26.3305 28.482 26.4157 28.5333C26.501 28.5847 26.6421 28.5861 26.731 28.5365C26.8199 28.487 26.8228 28.4052 26.7375 28.3539Z" fill="#F2E5E9"/>
    <path d="M26.731 28.5357C26.6421 28.5852 26.501 28.5838 26.4157 28.5325C26.3749 28.5079 26.3542 28.4763 26.3536 28.4447L26.3539 28.5123C26.3545 28.5439 26.3751 28.5755 26.4159 28.6C26.5011 28.6513 26.6421 28.6527 26.7309 28.6032C26.776 28.5781 26.799 28.5446 26.7994 28.511L26.7996 28.4434C26.7991 28.477 26.7762 28.5105 26.731 28.5357Z" fill="url(#paint1_linear_4546_25381)"/>
    <path d="M26.3878 24.5332L26.388 28.4272C26.3879 28.4552 26.4064 28.4832 26.4433 28.5046C26.5167 28.5469 26.6355 28.5469 26.7084 28.5046C26.7447 28.4835 26.7628 28.4559 26.7629 28.4283L26.7626 24.5332H26.3878Z" fill="url(#paint2_linear_4546_25381)"/>
    <path d="M31.9823 25.6248L31.6071 25.4082L31.2319 25.6248L31.6071 25.8414L31.9823 25.6248Z" fill="#F2E5E9"/>
    <path d="M31.6071 25.9639L31.2319 25.7472V25.625L31.6071 25.8416V25.9639Z" fill="#99609F"/>
    <path d="M31.9823 25.7472L31.6071 25.9639V25.8416L31.9823 25.625V25.7472Z" fill="#D4BAD4"/>
    <path d="M31.7643 25.4516C31.679 25.4002 31.5379 25.3988 31.449 25.4484C31.3601 25.4979 31.3572 25.5797 31.4425 25.631C31.5277 25.6823 31.6689 25.6837 31.7577 25.6342C31.8466 25.5846 31.8496 25.5029 31.7643 25.4516Z" fill="#F2E5E9"/>
    <path d="M31.7577 25.6333C31.6689 25.6829 31.5277 25.6814 31.4424 25.6301C31.4016 25.6055 31.381 25.574 31.3804 25.5423L31.3806 25.6099C31.3813 25.6416 31.4018 25.6731 31.4426 25.6977C31.5278 25.7489 31.6688 25.7504 31.7576 25.7009C31.8027 25.6757 31.8257 25.6422 31.8262 25.6087L31.8263 25.541C31.8259 25.5746 31.8029 25.6081 31.7577 25.6333Z" fill="url(#paint3_linear_4546_25381)"/>
    <path d="M31.4145 22.5352L31.4147 25.5259C31.4146 25.5539 31.4331 25.5819 31.47 25.6032C31.5434 25.6456 31.6622 25.6456 31.7352 25.6032C31.7714 25.5822 31.7895 25.5546 31.7896 25.527L31.7894 22.5352H31.4145Z" fill="url(#paint4_linear_4546_25381)"/>
    <path d="M27.3814 25.2452L26.2052 24.5661V24.2344L27.3814 24.9134V25.2452Z" fill="#9F4803"/>
    <path d="M32.6526 22.2029L27.3814 25.2462V24.9144L32.6526 21.8711V22.2029Z" fill="#BF6504"/>
    <path d="M27.3814 24.9138L26.2052 24.2347L31.4764 21.1914L32.6526 21.8705L27.3814 24.9138Z" fill="#F2E5E9"/>
    <path d="M27.4491 25.0718L26.0151 24.2439V23.9121L27.4491 24.74V25.0718Z" fill="#99609F"/>
    <path d="M32.9817 21.8787L27.449 25.0729V24.7411L32.9817 21.5469V21.8787Z" fill="#D4BAD4"/>
    <path d="M27.4491 24.7409L26.0151 23.913L31.5478 20.7188L32.9817 21.5466L27.4491 24.7409Z" fill="#F2E5E9"/>
    <path d="M29.2227 13.2535L32.5406 15.1693L33.7665 14.4615L29.2227 11.8379V13.2535Z" fill="#99609F"/>
    <path d="M28.7603 4.47656V5.89221L34.141 8.99867L35.367 8.29086L28.7603 4.47656Z" fill="#99609F"/>
    <path d="M5.68237 17.8005L6.90833 18.5084L28.7602 5.89221V4.47656L5.68237 17.8005Z" fill="#D4BAD4"/>
    <mask id="mask18_4546_25381" style="mask-type:luminance" maskUnits="userSpaceOnUse" x="5" y="24" width="3" height="5">
      <path d="M5.99738 24.6211L7.96337 25.7562V28.0322L5.99738 26.8971V24.6211Z" fill="white"/>
    </mask>
    <g mask="url(#mask18_4546_25381)">
      <path d="M8.08067 25.7654L8.07119 27.8972L6.20973 26.8043L6.20203 24.6953L8.08067 25.7654Z" fill="#4B245A"/>
      <path d="M5.82324 26.9872L8.29336 28.4133L8.71089 28.1722L6.24076 26.7461L5.82324 26.9872Z" fill="#D4BAD4"/>
      <path d="M5.64728 27.0995L6.2601 26.7456V24.4121L5.64728 24.7659V27.0995Z" fill="#723682"/>
      <path d="M7.99284 27.7816L8.02908 27.7606L6.26181 26.7402L6.22559 26.7613L7.99284 27.7816Z" fill="#D0BEDA"/>
      <path d="M6.22559 26.7615L6.26181 26.7404L6.26194 25.3242L6.22572 25.3453L6.22559 26.7615Z" fill="#64317B"/>
      <path d="M6.22595 25.2764L6.26219 25.2554L6.26377 24.6973L6.22753 24.7183L6.22595 25.2764Z" fill="#64317B"/>
      <path d="M7.99322 26.2972L8.02944 26.2762L6.26219 25.2559L6.22595 25.2769L7.99322 26.2972Z" fill="#D0BEDA"/>
      <path d="M8.05404 25.7053L8.09028 25.6842L6.20487 24.5957L6.16864 24.6168L8.05404 25.7053Z" fill="#D0BEDA"/>
      <path d="M6.83539 27.115L6.87161 27.0939L6.87175 25.6777L6.83552 25.6988L6.83539 27.115Z" fill="#64317B"/>
      <path d="M6.83569 25.6299L6.87193 25.6089L6.87351 25.0508L6.83729 25.0718L6.83569 25.6299Z" fill="#64317B"/>
      <path d="M7.44324 27.4666L7.47947 27.4455L7.47961 26.0293L7.44337 26.0504L7.44324 27.4666Z" fill="#64317B"/>
      <path d="M7.44354 25.9815L7.47977 25.9605L7.48136 25.4023L7.44512 25.4234L7.44354 25.9815Z" fill="#64317B"/>
      <path opacity="0.65" d="M8.08067 25.7654L8.07119 27.8972L6.20973 26.8043L6.20203 24.6953L8.08067 25.7654Z" fill="#1C1029"/>
      <path d="M6.16632 26.7951L7.38387 27.4981L7.96472 27.8335V27.7654L7.93845 27.7503L7.44313 27.4643L7.44327 26.0481L7.69093 26.1911L7.96472 26.3492V26.2812L7.44348 25.9802L7.44506 25.4221L7.69271 25.5651L7.96472 25.7221V25.6542L7.38617 25.3201C7.38617 25.3202 6.16861 24.6172 6.16861 24.6172L6.16632 26.7951ZM7.38551 25.9468L6.83469 25.6288L6.83627 25.0706L7.38608 25.3881L7.38551 25.9468ZM6.83436 27.1128L6.83448 25.6966L7.38542 26.0147L7.38395 27.4302L6.83436 27.1128ZM6.77672 25.5953L6.22591 25.2773L6.22749 24.7192L6.77731 25.0366L6.77672 25.5953ZM6.22557 26.7614L6.22571 25.3452L6.77665 25.6633L6.77518 27.0787L6.22557 26.7614Z" fill="#80509A"/>
    </g>
    <mask id="mask19_4546_25381" style="mask-type:luminance" maskUnits="userSpaceOnUse" x="5" y="20" width="3" height="4">
      <path d="M5.99738 20.5527L7.96337 21.6878V23.9638L5.99738 22.8287V20.5527Z" fill="white"/>
    </mask>
    <g mask="url(#mask19_4546_25381)">
      <path d="M8.08067 21.6971L8.07119 23.8289L6.20973 22.7359L6.20203 20.627L8.08067 21.6971Z" fill="#4B245A"/>
      <path d="M5.82324 22.9188L8.29336 24.3449L8.71089 24.1039L6.24076 22.6777L5.82324 22.9188Z" fill="#D4BAD4"/>
      <path d="M5.64728 23.0311L6.2601 22.6773V20.3438L5.64728 20.6976V23.0311Z" fill="#723682"/>
      <path d="M7.99284 23.7133L8.02908 23.6922L6.26181 22.6719L6.22559 22.6929L7.99284 23.7133Z" fill="#D0BEDA"/>
      <path d="M6.22559 22.6931L6.26181 22.6721L6.26194 21.2559L6.22572 21.2769L6.22559 22.6931Z" fill="#64317B"/>
      <path d="M6.22595 21.2081L6.26219 21.187L6.26377 20.6289L6.22753 20.65L6.22595 21.2081Z" fill="#64317B"/>
      <path d="M7.99322 22.2289L8.02944 22.2078L6.26219 21.1875L6.22595 21.2086L7.99322 22.2289Z" fill="#D0BEDA"/>
      <path d="M8.05404 21.6369L8.09028 21.6159L6.20487 20.5273L6.16864 20.5484L8.05404 21.6369Z" fill="#D0BEDA"/>
      <path d="M6.83539 23.0466L6.87161 23.0256L6.87175 21.6094L6.83552 21.6304L6.83539 23.0466Z" fill="#64317B"/>
      <path d="M6.83569 21.5616L6.87193 21.5405L6.87351 20.9824L6.83729 21.0035L6.83569 21.5616Z" fill="#64317B"/>
      <path d="M7.44324 23.3982L7.47947 23.3771L7.47961 21.9609L7.44337 21.982L7.44324 23.3982Z" fill="#64317B"/>
      <path d="M7.44354 21.9132L7.47977 21.8921L7.48136 21.334L7.44512 21.355L7.44354 21.9132Z" fill="#64317B"/>
      <path opacity="0.65" d="M8.08067 21.6971L8.07119 23.8289L6.20973 22.7359L6.20203 20.627L8.08067 21.6971Z" fill="#1C1029"/>
      <path d="M6.16632 22.7268L7.38387 23.4297L7.96472 23.7651V23.6971L7.93845 23.6819L7.44313 23.396L7.44327 21.9798L7.69093 22.1228L7.96472 22.2808V22.2128L7.44348 21.9119L7.44506 21.3538L7.69271 21.4968L7.96472 21.6538V21.5858L7.38617 21.2518L6.16861 20.5488L6.16632 22.7268ZM7.38551 21.8784L6.83469 21.5604L6.83627 21.0023L7.38608 21.3197L7.38551 21.8784ZM6.83436 23.0445L6.83448 21.6283L7.38542 21.9464L7.38395 23.3618L6.83436 23.0445ZM6.77672 21.5269L6.22591 21.2089L6.22749 20.6508L6.77731 20.9683L6.77672 21.5269ZM6.22557 22.693L6.22571 21.2768L6.77665 21.5949L6.77518 23.0103L6.22557 22.693Z" fill="#80509A"/>
    </g>
    <mask id="mask20_4546_25381" style="mask-type:luminance" maskUnits="userSpaceOnUse" x="9" y="26" width="3" height="5">
      <path d="M9.48053 26.6328L11.4465 27.7679V30.0439L9.48053 28.9088V26.6328Z" fill="white"/>
    </mask>
    <g mask="url(#mask20_4546_25381)">
      <path d="M11.5638 27.7772L11.5543 29.9089L9.69289 28.816L9.68518 26.707L11.5638 27.7772Z" fill="#4B245A"/>
      <path d="M9.3064 28.9989L11.7765 30.425L12.1941 30.184L9.72392 28.7578L9.3064 28.9989Z" fill="#D4BAD4"/>
      <path d="M9.13043 29.1112L9.74326 28.7574V26.4238L9.13043 26.7776V29.1112Z" fill="#723682"/>
      <path d="M11.476 29.7933L11.5122 29.7723L9.74496 28.752L9.70874 28.773L11.476 29.7933Z" fill="#D0BEDA"/>
      <path d="M9.70874 28.7732L9.74496 28.7521L9.7451 27.3359L9.70888 27.357L9.70874 28.7732Z" fill="#64317B"/>
      <path d="M9.70911 27.2881L9.74533 27.2671L9.74691 26.709L9.71069 26.73L9.70911 27.2881Z" fill="#64317B"/>
      <path d="M11.4764 28.309L11.5126 28.2879L9.74533 27.2676L9.70911 27.2886L11.4764 28.309Z" fill="#D0BEDA"/>
      <path d="M11.5372 27.717L11.5734 27.696L9.68803 26.6074L9.65179 26.6285L11.5372 27.717Z" fill="#D0BEDA"/>
      <path d="M10.3185 29.1267L10.3548 29.1057L10.3549 27.6895L10.3187 27.7105L10.3185 29.1267Z" fill="#64317B"/>
      <path d="M10.3188 27.6417L10.3551 27.6206L10.3566 27.0625L10.3204 27.0835L10.3188 27.6417Z" fill="#64317B"/>
      <path d="M10.9264 29.4783L10.9626 29.4572L10.9628 28.041L10.9265 28.0621L10.9264 29.4783Z" fill="#64317B"/>
      <path d="M10.9267 27.9932L10.9629 27.9722L10.9645 27.4141L10.9283 27.4351L10.9267 27.9932Z" fill="#64317B"/>
      <path opacity="0.65" d="M11.5638 27.7772L11.5543 29.9089L9.69289 28.816L9.68518 26.707L11.5638 27.7772Z" fill="#1C1029"/>
      <path d="M9.64948 28.8068L10.867 29.5098L11.4479 29.8452V29.7772L11.4216 29.762L10.9263 29.476L10.9264 28.0598L11.1741 28.2028L11.4479 28.3609V28.2929L10.9266 27.992L10.9282 27.4338L11.1759 27.5768L11.4479 27.7339V27.6659L10.8693 27.3318L9.65177 26.6289L9.64948 28.8068ZM10.8687 27.9585L10.3179 27.6405L10.3194 27.0824L10.8692 27.3998L10.8687 27.9585ZM10.3175 29.1246L10.3176 27.7084L10.8686 28.0265L10.8671 29.4419L10.3175 29.1246ZM10.2599 27.607L9.70908 27.289L9.71066 26.7309L10.2605 27.0483L10.2599 27.607ZM9.70874 28.7731L9.70886 27.3569L10.2598 27.675L10.2583 29.0904L9.70874 28.7731Z" fill="#80509A"/>
    </g>
    <mask id="mask21_4546_25381" style="mask-type:luminance" maskUnits="userSpaceOnUse" x="9" y="22" width="3" height="4">
      <path d="M9.48053 22.5645L11.4465 23.6995V25.9755L9.48053 24.8405V22.5645Z" fill="white"/>
    </mask>
    <g mask="url(#mask21_4546_25381)">
      <path d="M11.5638 23.7088L11.5543 25.8406L9.69289 24.7476L9.68518 22.6387L11.5638 23.7088Z" fill="#4B245A"/>
      <path d="M9.3064 24.9305L11.7765 26.3567L12.1941 26.1156L9.72392 24.6895L9.3064 24.9305Z" fill="#D4BAD4"/>
      <path d="M9.13043 25.0428L9.74326 24.689V22.3555L9.13043 22.7093V25.0428Z" fill="#723682"/>
      <path d="M11.476 25.725L11.5122 25.7039L9.74496 24.6836L9.70874 24.7046L11.476 25.725Z" fill="#D0BEDA"/>
      <path d="M9.70874 24.7048L9.74496 24.6838L9.7451 23.2676L9.70888 23.2886L9.70874 24.7048Z" fill="#64317B"/>
      <path d="M9.70911 23.2198L9.74533 23.1987L9.74691 22.6406L9.71069 22.6617L9.70911 23.2198Z" fill="#64317B"/>
      <path d="M11.4764 24.2406L11.5126 24.2195L9.74533 23.1992L9.70911 23.2203L11.4764 24.2406Z" fill="#D0BEDA"/>
      <path d="M11.5372 23.6487L11.5734 23.6276L9.68803 22.5391L9.65179 22.5601L11.5372 23.6487Z" fill="#D0BEDA"/>
      <path d="M10.3185 25.0583L10.3548 25.0373L10.3549 23.6211L10.3187 23.6422L10.3185 25.0583Z" fill="#64317B"/>
      <path d="M10.3188 23.5733L10.3551 23.5523L10.3566 22.9941L10.3204 23.0152L10.3188 23.5733Z" fill="#64317B"/>
      <path d="M10.9264 25.4099L10.9626 25.3889L10.9628 23.9727L10.9265 23.9937L10.9264 25.4099Z" fill="#64317B"/>
      <path d="M10.9267 23.9249L10.9629 23.9038L10.9645 23.3457L10.9283 23.3668L10.9267 23.9249Z" fill="#64317B"/>
      <path opacity="0.65" d="M11.5638 23.7088L11.5543 25.8406L9.69289 24.7476L9.68518 22.6387L11.5638 23.7088Z" fill="#1C1029"/>
      <path d="M9.64948 24.7385L10.867 25.4415L11.4479 25.7768V25.7088L11.4216 25.6936L10.9263 25.4077L10.9264 23.9915L11.1741 24.1345L11.4479 24.2926V24.2245L10.9266 23.9236L10.9282 23.3655L11.1759 23.5085L11.4479 23.6655V23.5975L10.8693 23.2635L9.65177 22.5605L9.64948 24.7385ZM10.8687 23.8901L10.3179 23.5721L10.3194 23.014L10.8692 23.3315L10.8687 23.8901ZM10.3175 25.0562L10.3176 23.64L10.8686 23.9581L10.8671 25.3735L10.3175 25.0562ZM10.2599 23.5387L9.70908 23.2206L9.71066 22.6625L10.2605 22.98L10.2599 23.5387ZM9.70874 24.7047L9.70886 23.2885L10.2598 23.6066L10.2583 25.022L9.70874 24.7047Z" fill="#80509A"/>
    </g>
    <mask id="mask22_4546_25381" style="mask-type:luminance" maskUnits="userSpaceOnUse" x="19" y="25" width="2" height="3">
      <path d="M19.3392 25.0547L20.1396 25.5168V27.7928L19.3392 27.3307V25.0547Z" fill="white"/>
    </mask>
    <g mask="url(#mask22_4546_25381)">
      <path d="M20.2569 25.5261L20.2475 27.6579L19.5516 27.2379L19.5439 25.1289L20.2569 25.5261Z" fill="#4B245A"/>
      <path d="M19.1651 27.4207L20.4696 28.1739L20.8872 27.9329L19.5826 27.1797L19.1651 27.4207Z" fill="#D4BAD4"/>
      <path d="M18.9891 27.5331L19.602 27.1792V24.8457L18.9891 25.1995V27.5331Z" fill="#723682"/>
      <path d="M20.1691 27.5423L20.2053 27.5212L19.6037 27.1738L19.5674 27.1949L20.1691 27.5423Z" fill="#D0BEDA"/>
      <path d="M19.5674 27.1951L19.6037 27.174L19.6038 25.7578L19.5676 25.7789L19.5674 27.1951Z" fill="#64317B"/>
      <path d="M19.5678 25.71L19.604 25.689L19.6056 25.1309L19.5694 25.1519L19.5678 25.71Z" fill="#64317B"/>
      <path d="M20.1695 26.0579L20.2057 26.0368L19.604 25.6895L19.5678 25.7105L20.1695 26.0579Z" fill="#D0BEDA"/>
      <path d="M20.2303 25.4659L20.2665 25.4449L19.5467 25.0293L19.5105 25.0503L20.2303 25.4659Z" fill="#D0BEDA"/>
      <path opacity="0.65" d="M20.2569 25.5261L20.2475 27.6579L19.5516 27.2379L19.5439 25.1289L20.2569 25.5261Z" fill="#1C1029"/>
      <path d="M20.228 27.6443L19.5082 27.2287L19.5105 25.0508L20.2303 25.4664L20.228 27.6443ZM19.5674 27.195L20.1691 27.5423L20.1693 26.1261L19.5676 25.7788L19.5674 27.195ZM19.5678 25.7109L20.1694 26.0583L20.171 25.5001L19.5694 25.1528L19.5678 25.7109Z" fill="#80509A"/>
    </g>
    <mask id="mask23_4546_25381" style="mask-type:luminance" maskUnits="userSpaceOnUse" x="21" y="26" width="2" height="4">
      <path d="M21.6884 26.4102L22.4887 26.8723V29.1483L21.6884 28.6862V26.4102Z" fill="white"/>
    </mask>
    <g mask="url(#mask23_4546_25381)">
      <path d="M22.6061 26.8815L22.5966 29.0133L21.9007 28.5934L21.893 26.4844L22.6061 26.8815Z" fill="#4B245A"/>
      <path d="M21.5142 28.7762L22.8188 29.5294L23.2363 29.2884L21.9317 28.5352L21.5142 28.7762Z" fill="#D4BAD4"/>
      <path d="M21.3383 28.8885L21.9511 28.5347V26.2012L21.3383 26.555V28.8885Z" fill="#723682"/>
      <path d="M22.5182 28.8977L22.5545 28.8767L21.9528 28.5293L21.9166 28.5503L22.5182 28.8977Z" fill="#D0BEDA"/>
      <path d="M21.9166 28.5505L21.9528 28.5295L21.9529 27.1133L21.9167 27.1343L21.9166 28.5505Z" fill="#64317B"/>
      <path d="M21.9169 27.0655L21.9532 27.0444L21.9547 26.4863L21.9185 26.5074L21.9169 27.0655Z" fill="#64317B"/>
      <path d="M22.5186 27.4133L22.5548 27.3923L21.9532 27.0449L21.9169 27.066L22.5186 27.4133Z" fill="#D0BEDA"/>
      <path d="M22.5794 26.8214L22.6157 26.8003L21.8958 26.3848L21.8596 26.4058L22.5794 26.8214Z" fill="#D0BEDA"/>
      <path opacity="0.65" d="M22.6061 26.8815L22.5966 29.0133L21.9007 28.5934L21.893 26.4844L22.6061 26.8815Z" fill="#1C1029"/>
      <path d="M22.5771 28.9998L21.8573 28.5842L21.8596 26.4062L22.5794 26.8218L22.5771 28.9998ZM21.9166 28.5504L22.5182 28.8978L22.5184 27.4816L21.9167 27.1342L21.9166 28.5504ZM21.9169 27.0664L22.5186 27.4137L22.5201 26.8556L21.9185 26.5082L21.9169 27.0664Z" fill="#80509A"/>
    </g>
    <mask id="mask24_4546_25381" style="mask-type:luminance" maskUnits="userSpaceOnUse" x="19" y="20" width="2" height="4">
      <path d="M19.3392 20.9766L20.1396 21.4387V23.7147L19.3392 23.2526V20.9766Z" fill="white"/>
    </mask>
    <g mask="url(#mask24_4546_25381)">
      <path d="M20.2569 21.448L20.2475 23.5797L19.5516 23.1598L19.5439 21.0508L20.2569 21.448Z" fill="#4B245A"/>
      <path d="M19.1651 23.3426L20.4696 24.0958L20.8872 23.8548L19.5826 23.1016L19.1651 23.3426Z" fill="#D4BAD4"/>
      <path d="M18.9891 23.4549L19.602 23.1011V20.7676L18.9891 21.1214V23.4549Z" fill="#723682"/>
      <path d="M20.1691 23.4641L20.2053 23.4431L19.6037 23.0957L19.5674 23.1168L20.1691 23.4641Z" fill="#D0BEDA"/>
      <path d="M19.5674 23.1169L19.6037 23.0959L19.6038 21.6797L19.5676 21.7007L19.5674 23.1169Z" fill="#64317B"/>
      <path d="M19.5678 21.6319L19.604 21.6108L19.6056 21.0527L19.5694 21.0738L19.5678 21.6319Z" fill="#64317B"/>
      <path d="M20.1695 21.9798L20.2057 21.9587L19.604 21.6113L19.5678 21.6324L20.1695 21.9798Z" fill="#D0BEDA"/>
      <path d="M20.2303 21.3878L20.2665 21.3668L19.5467 20.9512L19.5105 20.9722L20.2303 21.3878Z" fill="#D0BEDA"/>
      <path opacity="0.65" d="M20.2569 21.448L20.2475 23.5797L19.5516 23.1598L19.5439 21.0508L20.2569 21.448Z" fill="#1C1029"/>
      <path d="M20.228 23.5662L19.5082 23.1506L19.5105 20.9727L20.2303 21.3882L20.228 23.5662ZM19.5674 23.1168L20.1691 23.4642L20.1693 22.048L19.5676 21.7006L19.5674 23.1168ZM19.5678 21.6327L20.1694 21.9801L20.171 21.422L19.5694 21.0746L19.5678 21.6327Z" fill="#80509A"/>
    </g>
    <mask id="mask25_4546_25381" style="mask-type:luminance" maskUnits="userSpaceOnUse" x="21" y="22" width="2" height="4">
      <path d="M21.6884 22.332L22.4887 22.7941V25.0702L21.6884 24.608V22.332Z" fill="white"/>
    </mask>
    <g mask="url(#mask25_4546_25381)">
      <path d="M22.6061 22.8034L22.5966 24.9352L21.9007 24.5152L21.893 22.4062L22.6061 22.8034Z" fill="#4B245A"/>
      <path d="M21.5142 24.6981L22.8188 25.4513L23.2363 25.2102L21.9317 24.457L21.5142 24.6981Z" fill="#D4BAD4"/>
      <path d="M21.3383 24.8104L21.9511 24.4566V22.123L21.3383 22.4769V24.8104Z" fill="#723682"/>
      <path d="M22.5182 24.8196L22.5545 24.7985L21.9528 24.4512L21.9166 24.4722L22.5182 24.8196Z" fill="#D0BEDA"/>
      <path d="M21.9166 24.4724L21.9528 24.4514L21.9529 23.0352L21.9167 23.0562L21.9166 24.4724Z" fill="#64317B"/>
      <path d="M21.9169 22.9874L21.9532 22.9663L21.9547 22.4082L21.9185 22.4293L21.9169 22.9874Z" fill="#64317B"/>
      <path d="M22.5186 23.3352L22.5548 23.3142L21.9532 22.9668L21.9169 22.9879L22.5186 23.3352Z" fill="#D0BEDA"/>
      <path d="M22.5794 22.7433L22.6157 22.7222L21.8958 22.3066L21.8596 22.3277L22.5794 22.7433Z" fill="#D0BEDA"/>
      <path opacity="0.65" d="M22.6061 22.8034L22.5966 24.9352L21.9007 24.5152L21.893 22.4062L22.6061 22.8034Z" fill="#1C1029"/>
      <path d="M22.5771 24.9217L21.8573 24.5061L21.8596 22.3281L22.5794 22.7437L22.5771 24.9217ZM21.9166 24.4723L22.5182 24.8197L22.5184 23.4035L21.9167 23.0561L21.9166 24.4723ZM21.9169 22.9882L22.5186 23.3356L22.5201 22.7775L21.9185 22.4301L21.9169 22.9882Z" fill="#80509A"/>
    </g>
    <g style="mix-blend-mode:multiply" opacity="0.6">
      <g style="mix-blend-mode:multiply" opacity="0.6">
        <path d="M18.5606 28.1304L18.562 19.9913L18.5502 19.9883L18.5481 19.5508L17.4273 20.1979V20.6288L15.6784 21.6402L14.1307 23.8191V30.6942L18.5606 28.1304Z" fill="#AA79AE"/>
      </g>
    </g>
    <path d="M40.2209 17.084C40.1629 17.1606 40.0593 17.2892 39.8624 17.3668C39.8379 17.3765 39.8124 17.3838 39.786 17.3897C39.5798 17.4362 39.3808 17.5059 39.2063 17.6251C39.0852 17.7078 38.9251 17.8087 38.7518 17.8952C38.7667 18.0414 38.7452 18.826 38.7452 18.826C38.9225 18.7377 39.0851 18.6353 39.2073 18.5518C39.3815 18.4329 39.5803 18.3635 39.7861 18.3171C39.8125 18.3111 39.8379 18.3038 39.8624 18.2942C40.1132 18.1954 40.2441 18.018 40.2441 17.9658C40.2441 17.9658 40.2245 17.3639 40.2209 17.084Z" fill="#ED9B07"/>
    <path d="M38.8356 25.5141C38.7619 25.5566 38.6425 25.5566 38.5688 25.5141C38.4951 25.4715 38.4951 25.4026 38.5688 25.36C38.6425 25.3175 38.7619 25.3175 38.8356 25.36C38.9093 25.4026 38.9093 25.4715 38.8356 25.5141Z" fill="#F5F1F7"/>
    <path d="M38.8908 25.4355V25.5162C38.8913 25.5444 38.8729 25.5727 38.8356 25.5942C38.7619 25.6367 38.6425 25.6367 38.5688 25.5942C38.5324 25.5732 38.514 25.5457 38.5135 25.5182V25.4376C38.514 25.4651 38.5324 25.4925 38.5688 25.5136C38.6425 25.5561 38.7619 25.5561 38.8356 25.5136C38.8729 25.492 38.8913 25.4638 38.8908 25.4355Z" fill="url(#paint5_linear_4546_25381)"/>
    <path d="M38.7539 17.8846C38.7253 17.901 38.679 17.901 38.6505 17.8846C38.622 17.8681 38.622 17.8413 38.6505 17.8249C38.6791 17.8084 38.7253 17.8084 38.7539 17.8249C38.7824 17.8413 38.7824 17.8681 38.7539 17.8846Z" fill="#F5F1F7"/>
    <path d="M38.7753 17.8535V25.4371C38.7755 25.448 38.7683 25.459 38.7539 25.4673C38.7253 25.4838 38.679 25.4838 38.6505 25.4673C38.6364 25.4592 38.6293 25.4485 38.6291 25.4379V17.8543C38.6293 17.865 38.6364 17.8756 38.6505 17.8838C38.6791 17.9002 38.7253 17.9002 38.7539 17.8838C38.7683 17.8754 38.7755 17.8644 38.7753 17.8535Z" fill="url(#paint6_linear_4546_25381)"/>
    <path d="M37.9824 18.377C37.9244 18.4536 37.8209 18.5822 37.624 18.6598C37.5995 18.6694 37.574 18.6767 37.5475 18.6827C37.3414 18.7292 37.1423 18.7989 36.9678 18.9181C36.8468 19.0008 36.6867 19.1017 36.5134 19.1882C36.5282 19.3343 36.5067 20.119 36.5067 20.119C36.684 20.0307 36.8466 19.9283 36.9688 19.8448C37.143 19.7258 37.3419 19.6565 37.5477 19.61C37.574 19.6041 37.5995 19.5968 37.624 19.5872C37.8748 19.4883 38.0057 19.3109 38.0057 19.2588C38.0057 19.2588 37.9861 18.6569 37.9824 18.377Z" fill="#ED9B07"/>
    <path d="M36.5971 26.807C36.5235 26.8496 36.404 26.8496 36.3303 26.807C36.2567 26.7645 36.2567 26.6955 36.3303 26.653C36.404 26.6105 36.5235 26.6105 36.5971 26.653C36.6708 26.6955 36.6708 26.7645 36.5971 26.807Z" fill="#F5F1F7"/>
    <path d="M36.6524 26.7285V26.8091C36.6528 26.8373 36.6344 26.8656 36.5971 26.8872C36.5234 26.9297 36.404 26.9297 36.3303 26.8872C36.2939 26.8662 36.2755 26.8387 36.2751 26.8111V26.7305C36.2755 26.7581 36.2939 26.7855 36.3303 26.8065C36.404 26.8491 36.5235 26.8491 36.5971 26.8065C36.6344 26.785 36.6528 26.7567 36.6524 26.7285Z" fill="url(#paint7_linear_4546_25381)"/>
    <path d="M36.5154 19.1775C36.4869 19.194 36.4406 19.194 36.412 19.1775C36.3835 19.161 36.3835 19.1343 36.412 19.1178C36.4406 19.1013 36.4869 19.1013 36.5154 19.1178C36.544 19.1343 36.544 19.161 36.5154 19.1775Z" fill="#F5F1F7"/>
    <path d="M36.5368 19.1465V26.73C36.537 26.741 36.5299 26.7519 36.5154 26.7603C36.4869 26.7768 36.4406 26.7768 36.412 26.7603C36.3979 26.7521 36.3908 26.7415 36.3906 26.7308V19.1473C36.3908 19.1579 36.3979 19.1686 36.412 19.1767C36.4406 19.1932 36.4869 19.1932 36.5154 19.1767C36.5299 19.1684 36.537 19.1574 36.5368 19.1465Z" fill="url(#paint8_linear_4546_25381)"/>
    <g style="mix-blend-mode:multiply" opacity="0.7">
      <path d="M25.7932 32.8023H19.2802C19.4059 32.7281 19.5122 32.6588 19.5845 32.6056C19.7131 32.5111 19.9463 32.4032 20.2207 32.2915C20.2559 32.2772 20.2878 32.2634 20.3151 32.2501C20.5946 32.114 20.5766 32.043 20.5087 32.043C20.5087 32.043 19.6931 32.0536 19.3227 32.0556C19.3281 32.0871 19.327 32.1432 19.1077 32.2501C19.0803 32.2634 19.0484 32.2772 19.0131 32.2916C18.7382 32.4034 18.505 32.5115 18.3762 32.6062C18.3038 32.6595 18.1981 32.7286 18.073 32.8023H17.8904C17.8574 32.8023 17.8093 32.829 17.7831 32.862C17.7569 32.8951 17.7624 32.9218 17.7954 32.9218H26.0003L25.7932 32.8023Z" fill="#7F347D"/>
    </g>
    <path d="M27.4459 24.459C27.3878 24.5356 27.2843 24.6642 27.0874 24.7418C27.0629 24.7515 27.0374 24.7588 27.011 24.7647C26.8048 24.8112 26.6058 24.8809 26.4313 25.0001C26.3102 25.0828 26.1501 25.1837 25.9768 25.2702C25.9917 25.4164 25.9702 26.201 25.9702 26.201C26.1475 26.1127 26.3101 26.0103 26.4323 25.9268C26.6065 25.8079 26.8053 25.7385 27.0111 25.6921C27.0375 25.6861 27.0629 25.6788 27.0874 25.6692C27.3382 25.5704 27.4691 25.393 27.4691 25.3408C27.4691 25.3408 27.4495 24.7389 27.4459 24.459Z" fill="#ED9B07"/>
    <path d="M26.0606 32.8891C25.9869 32.9316 25.8675 32.9316 25.7938 32.8891C25.7201 32.8465 25.7201 32.7776 25.7938 32.735C25.8675 32.6925 25.9869 32.6925 26.0606 32.735C26.1342 32.7776 26.1342 32.8465 26.0606 32.8891Z" fill="#F5F1F7"/>
    <path d="M26.1158 32.8105V32.8912C26.1163 32.9194 26.0978 32.9477 26.0606 32.9692C25.9869 33.0117 25.8674 33.0117 25.7938 32.9692C25.7574 32.9482 25.739 32.9207 25.7385 32.8932V32.8126C25.739 32.8401 25.7574 32.8676 25.7938 32.8886C25.8674 32.9311 25.9869 32.9311 26.0606 32.8886C26.0978 32.867 26.1163 32.8388 26.1158 32.8105Z" fill="url(#paint9_linear_4546_25381)"/>
    <path d="M25.9789 25.2595C25.9503 25.276 25.904 25.276 25.8755 25.2595C25.8469 25.2431 25.8469 25.2163 25.8755 25.1999C25.904 25.1834 25.9503 25.1834 25.9789 25.1999C26.0074 25.2163 26.0074 25.2431 25.9789 25.2595Z" fill="#F5F1F7"/>
    <path d="M26.0003 25.2285V32.8121C26.0004 32.823 25.9933 32.834 25.9789 32.8423C25.9503 32.8588 25.904 32.8588 25.8755 32.8423C25.8614 32.8342 25.8542 32.8235 25.8541 32.8128V25.2293C25.8542 25.24 25.8614 25.2506 25.8755 25.2587C25.904 25.2752 25.9503 25.2752 25.9789 25.2587C25.9933 25.2504 26.0004 25.2394 26.0003 25.2285Z" fill="url(#paint10_linear_4546_25381)"/>
    <g style="mix-blend-mode:multiply" opacity="0.7">
      <path d="M23.5548 34.0952H17.0417C17.1675 34.0211 17.2737 33.9518 17.346 33.8986C17.4746 33.8041 17.7079 33.6962 17.9823 33.5845C18.0174 33.5702 18.0494 33.5564 18.0767 33.5431C18.3561 33.407 18.3381 33.3359 18.2702 33.3359C18.2702 33.3359 17.4546 33.3466 17.0842 33.3485C17.0896 33.38 17.0886 33.4362 16.8692 33.5431C16.8419 33.5564 16.8099 33.5702 16.7747 33.5845C16.4997 33.6964 16.2665 33.8045 16.1378 33.8992C16.0654 33.9525 15.9596 34.0215 15.8345 34.0952H15.6519C15.6189 34.0952 15.5709 34.122 15.5447 34.155C15.5184 34.188 15.5239 34.2148 15.5569 34.2148H23.7618L23.5548 34.0952Z" fill="#7F347D"/>
    </g>
    <path d="M25.2074 25.752C25.1494 25.8286 25.0458 25.9572 24.8489 26.0348C24.8244 26.0444 24.7989 26.0518 24.7725 26.0577C24.5664 26.1042 24.3673 26.1739 24.1928 26.2931C24.0718 26.3758 23.9116 26.4767 23.7383 26.5632C23.7532 26.7094 23.7317 27.494 23.7317 27.494C23.909 27.4057 24.0716 27.3033 24.1938 27.2198C24.368 27.1009 24.5669 27.0315 24.7726 26.985C24.799 26.9791 24.8245 26.9718 24.8489 26.9622C25.0997 26.8634 25.2306 26.686 25.2306 26.6338C25.2306 26.6338 25.211 26.0319 25.2074 25.752Z" fill="#ED9B07"/>
    <path d="M23.8221 34.182C23.7484 34.2246 23.629 34.2246 23.5553 34.182C23.4816 34.1395 23.4816 34.0705 23.5553 34.028C23.629 33.9855 23.7484 33.9855 23.8221 34.028C23.8958 34.0705 23.8958 34.1395 23.8221 34.182Z" fill="#F5F1F7"/>
    <path d="M23.8773 34.1035V34.1841C23.8778 34.2123 23.8594 34.2406 23.8221 34.2622C23.7484 34.3047 23.629 34.3047 23.5553 34.2622C23.5189 34.2412 23.5005 34.2137 23.5001 34.1861V34.1055C23.5005 34.1331 23.5189 34.1605 23.5553 34.1815C23.629 34.2241 23.7484 34.2241 23.8221 34.1815C23.8594 34.16 23.8778 34.1317 23.8773 34.1035Z" fill="url(#paint11_linear_4546_25381)"/>
    <path d="M23.7404 26.5525C23.7118 26.569 23.6656 26.569 23.637 26.5525C23.6085 26.536 23.6085 26.5093 23.637 26.4928C23.6656 26.4763 23.7119 26.4763 23.7404 26.4928C23.7689 26.5093 23.7689 26.536 23.7404 26.5525Z" fill="#F5F1F7"/>
    <path d="M23.7618 26.5215V34.1051C23.762 34.116 23.7548 34.1269 23.7404 34.1353C23.7118 34.1518 23.6655 34.1518 23.637 34.1353C23.6229 34.1271 23.6158 34.1165 23.6156 34.1058V26.5223C23.6158 26.5329 23.6229 26.5436 23.637 26.5517C23.6655 26.5682 23.7118 26.5682 23.7404 26.5517C23.7548 26.5434 23.762 26.5324 23.7618 26.5215Z" fill="url(#paint12_linear_4546_25381)"/>
    <g style="mix-blend-mode:multiply" opacity="0.4">
      <path d="M12.0159 17.4844L12.6218 19.3164H12.0159L10.4293 18.4004L12.0159 17.4844Z" fill="#3E1C46"/>
    </g>
    <path d="M14.2038 17.8809L12.6172 16.9648L11.0306 17.8809L12.6172 18.7969L14.2038 17.8809Z" fill="#A079B1"/>
    <path d="M12.6172 19.3267L11.0306 18.4107V17.8809L12.6172 18.7969V19.3267Z" fill="#5E2E72"/>
    <path d="M14.2038 18.4107L12.6172 19.3267V18.7969L14.2038 17.8809V18.4107Z" fill="#774291"/>
    <path opacity="0.8" d="M13.9044 18.2318L12.9167 18.802V18.7343L13.9044 18.1641V18.2318ZM13.9044 18.2915L12.9167 18.8617V18.9294L13.9044 18.3592V18.2915ZM13.9044 18.4189L12.9167 18.9891V19.0569L13.9044 18.4867V18.4189Z" fill="#5E2E72"/>
    <g style="mix-blend-mode:multiply" opacity="0.5">
      <path d="M11.3372 18.1582L12.3248 18.7284V18.7961L11.3372 18.2259V18.1582ZM11.3372 18.3534L12.3248 18.9236V18.8558L11.3372 18.2856V18.3534ZM11.3372 18.4808L12.3248 19.051V18.9833L11.3372 18.4131V18.4808Z" fill="#5E2E72"/>
    </g>
    <g style="mix-blend-mode:multiply" opacity="0.4">
      <path d="M19.6348 13.0859L20.2408 14.918H19.6348L18.0482 14.002L19.6348 13.0859Z" fill="#3E1C46"/>
    </g>
    <path d="M21.8227 13.4824L20.2361 12.5664L18.6495 13.4824L20.2361 14.3985L21.8227 13.4824Z" fill="#A079B1"/>
    <path d="M20.2361 14.9283L18.6495 14.0123V13.4824L20.2361 14.3984V14.9283Z" fill="#5E2E72"/>
    <path d="M21.8228 14.0123L20.2361 14.9283V14.3984L21.8228 13.4824V14.0123Z" fill="#774291"/>
    <path opacity="0.8" d="M21.5233 13.8333L20.5356 14.4036V14.3358L21.5233 13.7656V13.8333ZM21.5233 13.8931L20.5356 14.4633V14.531L21.5233 13.9608V13.8931ZM21.5233 14.0205L20.5356 14.5907V14.6584L21.5233 14.0882V14.0205Z" fill="#5E2E72"/>
    <g style="mix-blend-mode:multiply" opacity="0.5">
      <path d="M18.9561 13.7598L19.9437 14.33V14.3977L18.9561 13.8275V13.7598ZM18.9561 13.9549L19.9437 14.5251V14.4574L18.9561 13.8872V13.9549ZM18.9561 14.0824L19.9437 14.6526V14.5848L18.9561 14.0146V14.0824Z" fill="#5E2E72"/>
    </g>
    <g style="mix-blend-mode:multiply" opacity="0.4">
      <path d="M27.2538 8.68555L27.8597 10.5176H27.2538L25.6672 9.60157L27.2538 8.68555Z" fill="#3E1C46"/>
    </g>
    <path d="M29.4417 9.08399L27.8551 8.16797L26.2685 9.08399L27.8551 10L29.4417 9.08399Z" fill="#A079B1"/>
    <path d="M27.8551 10.5298L26.2685 9.61382V9.08398L27.8551 10V10.5298Z" fill="#5E2E72"/>
    <path d="M29.4417 9.61382L27.8551 10.5298V10L29.4417 9.08398V9.61382Z" fill="#774291"/>
    <path opacity="0.8" d="M29.1422 9.43491L28.1546 10.0051V9.9374L29.1422 9.36719V9.43491ZM29.1422 9.49463L28.1546 10.0648V10.1325L29.1422 9.56235V9.49463ZM29.1422 9.62206L28.1546 10.1923V10.26L29.1422 9.68978V9.62206Z" fill="#5E2E72"/>
    <g style="mix-blend-mode:multiply" opacity="0.5">
      <path d="M26.575 9.36133L27.5626 9.93154V9.99926L26.575 9.42905V9.36133ZM26.575 9.55649L27.5626 10.1267V10.059L26.575 9.48877V9.55649ZM26.575 9.68392L27.5626 10.2541V10.1864L26.575 9.6162V9.68392Z" fill="#5E2E72"/>
    </g>
    <path opacity="0.7" d="M25.2415 21.7441L25.0642 22.0525V23.9113L26.5692 23.0424L25.2415 21.7441Z" fill="#9F4803"/>
    <path d="M25.5037 23.8076L25.2415 23.6562V21.7461L25.5037 21.8975V23.8076Z" fill="#9F4803"/>
    <path d="M32.3737 19.8417L25.5037 23.8081V21.898L32.3737 17.9316V19.8417Z" fill="#DD8A06"/>
    <path d="M25.5037 21.8971L25.2415 21.7457L32.1115 17.7793L32.3737 17.9307L25.5037 21.8971Z" fill="#ED9B07"/>
  </g>
  <defs>
    <linearGradient id="paint0_linear_4546_25381" x1="19.0215" y1="30.593" x2="13.9861" y2="30.593" gradientUnits="userSpaceOnUse">
      <stop stop-color="#D3B8DD"/>
      <stop offset="1" stop-color="#A575C1"/>
    </linearGradient>
    <linearGradient id="paint1_linear_4546_25381" x1="26.3236" y1="28.5414" x2="26.682" y2="28.5414" gradientUnits="userSpaceOnUse">
      <stop stop-color="#99609F"/>
      <stop offset="1" stop-color="#D4BAD4"/>
    </linearGradient>
    <linearGradient id="paint2_linear_4546_25381" x1="26.3863" y1="26.5348" x2="26.7198" y2="26.5348" gradientUnits="userSpaceOnUse">
      <stop stop-color="#99609F"/>
      <stop offset="1" stop-color="#D4BAD4"/>
    </linearGradient>
    <linearGradient id="paint3_linear_4546_25381" x1="31.3503" y1="25.6391" x2="31.7087" y2="25.6391" gradientUnits="userSpaceOnUse">
      <stop stop-color="#99609F"/>
      <stop offset="1" stop-color="#D4BAD4"/>
    </linearGradient>
    <linearGradient id="paint4_linear_4546_25381" x1="31.4131" y1="24.0851" x2="31.7466" y2="24.0851" gradientUnits="userSpaceOnUse">
      <stop stop-color="#99609F"/>
      <stop offset="1" stop-color="#D4BAD4"/>
    </linearGradient>
    <linearGradient id="paint5_linear_4546_25381" x1="38.5135" y1="25.5308" x2="38.8908" y2="25.5308" gradientUnits="userSpaceOnUse">
      <stop stop-color="#CCB8D6"/>
      <stop offset="0.349006" stop-color="#D0BFD9"/>
      <stop offset="1" stop-color="#D7C8DF"/>
    </linearGradient>
    <linearGradient id="paint6_linear_4546_25381" x1="38.6291" y1="21.6666" x2="38.7753" y2="21.6666" gradientUnits="userSpaceOnUse">
      <stop stop-color="#CCB8D6"/>
      <stop offset="0.349006" stop-color="#D0BFD9"/>
      <stop offset="1" stop-color="#D7C8DF"/>
    </linearGradient>
    <linearGradient id="paint7_linear_4546_25381" x1="36.2751" y1="26.8238" x2="36.6524" y2="26.8238" gradientUnits="userSpaceOnUse">
      <stop stop-color="#CCB8D6"/>
      <stop offset="0.349006" stop-color="#D0BFD9"/>
      <stop offset="1" stop-color="#D7C8DF"/>
    </linearGradient>
    <linearGradient id="paint8_linear_4546_25381" x1="36.3906" y1="22.9596" x2="36.5368" y2="22.9596" gradientUnits="userSpaceOnUse">
      <stop stop-color="#CCB8D6"/>
      <stop offset="0.349006" stop-color="#D0BFD9"/>
      <stop offset="1" stop-color="#D7C8DF"/>
    </linearGradient>
    <linearGradient id="paint9_linear_4546_25381" x1="25.7385" y1="32.9058" x2="26.1158" y2="32.9058" gradientUnits="userSpaceOnUse">
      <stop stop-color="#CCB8D6"/>
      <stop offset="0.349006" stop-color="#D0BFD9"/>
      <stop offset="1" stop-color="#D7C8DF"/>
    </linearGradient>
    <linearGradient id="paint10_linear_4546_25381" x1="25.8541" y1="29.0416" x2="26.0003" y2="29.0416" gradientUnits="userSpaceOnUse">
      <stop stop-color="#CCB8D6"/>
      <stop offset="0.349006" stop-color="#D0BFD9"/>
      <stop offset="1" stop-color="#D7C8DF"/>
    </linearGradient>
    <linearGradient id="paint11_linear_4546_25381" x1="23.5001" y1="34.1988" x2="23.8773" y2="34.1988" gradientUnits="userSpaceOnUse">
      <stop stop-color="#CCB8D6"/>
      <stop offset="0.349006" stop-color="#D0BFD9"/>
      <stop offset="1" stop-color="#D7C8DF"/>
    </linearGradient>
    <linearGradient id="paint12_linear_4546_25381" x1="23.6156" y1="30.3346" x2="23.7618" y2="30.3346" gradientUnits="userSpaceOnUse">
      <stop stop-color="#CCB8D6"/>
      <stop offset="0.349006" stop-color="#D0BFD9"/>
      <stop offset="1" stop-color="#D7C8DF"/>
    </linearGradient>
  </defs>
</svg>