<svg xmlns="http://www.w3.org/2000/svg" width="48" height="48" viewBox="0 0 48 48" fill="none">
  <path d="M24 48C37.2548 48 48 37.2548 48 24C48 10.7452 37.2548 0 24 0C10.7452 0 0 10.7452 0 24C0 37.2548 10.7452 48 24 48Z" fill="#673192"/>
  <mask id="mask0_4546_25071" style="mask-type:luminance" maskUnits="userSpaceOnUse" x="0" y="0" width="48" height="48">
    <path d="M24 48C37.2548 48 48 37.2548 48 24C48 10.7452 37.2548 0 24 0C10.7452 0 0 10.7452 0 24C0 37.2548 10.7452 48 24 48Z" fill="white"/>
  </mask>
  <g mask="url(#mask0_4546_25071)">
    <path d="M-10.3113 25.9062L-7.69381 41.147L-6.5528 42.0981L-3.6668 44.5029L-1.11634 42.6907L0.225994 46.315L12.2399 53.161L13.9178 50.5434L21.7061 54.0415L21.8376 54.1006L30.2272 53.5637L37.3416 48.8655L42.7781 46.9191L49.5115 40.889L50.0831 40.9994L51.0657 39.8456L54.5907 37.1968L56.2686 25.9062H-10.3113Z" fill="#3C1D82"/>
    <path d="M-10.3113 25.9062L-7.69381 41.147L-6.5528 42.0981L-3.6668 44.5029L-1.11634 42.6907L0.225995 46.315L12.2399 53.161L13.9178 50.5434L21.7061 54.0415C21.8759 53.8234 21.9719 53.6979 21.9719 53.6979L22.5759 37.9873L14.1528 25.9063L-10.3113 25.9062Z" fill="#512084"/>
    <path d="M33.7173 34.0957L35.3953 40.5389L37.3416 48.8667L41.6076 36.2923L45.0601 39.3979L44.3124 36.4441L43.7177 34.0957H33.7173Z" fill="#6F2B93"/>
    <path d="M46.738 32.9537L51.4362 34.5645L50.0377 40.2717L51.0203 39.118L54.5907 30.9402L46.5367 30.1348L46.738 32.9537Z" fill="#6F2B93"/>
    <path d="M8.01156 39.4653L12.2399 53.1624L13.9178 50.5448L13.8554 43.3102L13.7165 40.6062L13.8192 38.737L12.4952 36.2473C12.4952 36.2473 7.40749 34.6328 8.01156 39.4653Z" fill="#3C1D82"/>
    <path d="M-3.66681 44.5036L-1.17407 42.7324L-1.11635 42.6914L0.225985 46.3158L-0.445184 37.5234L-3.66681 44.5036Z" fill="#3C1D82"/>
    <path d="M-8.83478 28.927L-7.69379 41.1475L-6.55279 42.0985V31.4774L0.158889 29.3297L-5.61315 26.0215L-8.83478 28.927Z" fill="#3C1D82"/>
    <path d="M-0.445166 37.5234L-1.11633 42.6914L0.226003 46.3158L-0.445166 37.5234Z" fill="#552779"/>
    <path d="M13.8554 43.3093L13.7165 40.6053L13.8192 38.7361L12.3741 37.8535L13.8554 43.3093Z" fill="#552779"/>
    <path d="M39.5565 37.4503L41.6076 36.291L45.06 39.3966L44.3124 36.4428C42.6197 36.7858 39.5565 37.4503 39.5565 37.4503Z" fill="#582288"/>
    <path d="M-8.80592 28.956L-3.80101 29.7996L-6.5528 31.4776L-3.89365 32.9387L5.36112 38.0255L5.694 38.2081L8.03974 39.4974L10.6638 38.655L11.322 38.6477L12.4204 37.9496L13.7245 40.6383L14.0648 40.8464L22.4417 45.9748L35.3952 40.5383L35.0596 37.451L45.0601 39.3973L51.4362 34.5649L47.9461 32.283L54.5907 30.9406C54.5907 30.9406 56.2686 27.672 56.2686 25.9068C56.2686 25.8062 56.2659 25.7055 56.2605 25.6048C56.2136 24.6833 55.9518 23.784 55.4947 22.9155C55.1712 22.3 54.7497 21.7 54.2376 21.1181C53.6141 20.4093 52.8564 19.7274 51.9765 19.0777C50.6865 18.126 49.1347 17.2434 47.3622 16.4481C42.2083 14.1352 35.1878 12.5566 27.3003 12.1298C25.8854 12.0533 24.4431 12.0137 22.9786 12.0137C22.3068 12.0137 21.6396 12.0217 20.9772 12.0385C11.6016 12.2701 3.27042 14.1218 -2.43318 16.932C-4.33797 17.8703 -5.9501 18.9153 -7.20989 20.0435C-9.02474 21.6678 -10.1093 23.4631 -10.2859 25.3558C-10.3026 25.5384 -10.3113 25.7223 -10.3113 25.9068C-10.3113 26.8565 -8.80592 28.956 -8.80592 28.956Z" fill="#A089BC"/>
    <path d="M-8.80592 28.9556L-3.80101 29.7993L-6.5528 31.4772L8.03974 39.497L11.2113 39.3524L13.7245 40.638L22.4417 45.9744L35.3952 40.538L35.0596 37.4506L45.0601 39.397L51.4362 34.5646L47.9461 32.2826L54.5907 30.9403C54.5907 30.9403 56.2686 27.6717 56.2686 25.9065C56.2686 25.8058 56.2659 25.7052 56.2605 25.6045L54.3893 30.4704L46.8051 32.0142L50.4965 34.5646L44.993 38.7258L34.1871 36.6452L34.7912 40.2695L22.5759 45.169L14.3205 40.4037L11.322 38.6473L8.01156 38.7929L-5.47893 31.4101L-2.72714 29.5308L-8.3173 28.5818C-8.3173 28.5818 -9.78316 27.0589 -10.2859 25.3555C-10.3026 25.538 -10.3113 25.7219 -10.3113 25.9065C-10.3113 26.8562 -8.80592 28.9556 -8.80592 28.9556Z" fill="white"/>
    <path d="M24.8131 23.3626L24.815 19.0624L27.2958 14.4336L29.7777 16.1938L29.7771 20.4958L37.2262 16.1938L37.2291 26.5082L17.3666 37.9758V27.6631L24.8131 23.3626Z" fill="#F8BE53"/>
    <path d="M9.91817 13.3281L17.3666 27.6627V39.1303L2.46973 30.5296V19.0619L9.91817 13.3281Z" fill="#F1B860"/>
    <path d="M13.6424 32.6988V28.3984L11.1595 26.9453V31.2457L13.6424 32.6988Z" fill="#1A1346"/>
    <mask id="mask1_4546_25071" style="mask-type:luminance" maskUnits="userSpaceOnUse" x="11" y="26" width="3" height="7">
      <path d="M13.6424 32.6988V28.3984L11.1595 26.9453V31.2457L13.6424 32.6988Z" fill="white"/>
    </mask>
    <g mask="url(#mask1_4546_25071)">
      <path d="M12.5934 25.8203H12.2085V33.3528H12.5934V25.8203Z" fill="#CFBBD8"/>
    </g>
    <path d="M11.1595 26.9453V31.2457L11.5633 31.0126L11.5638 27.1819L11.1595 26.9453Z" fill="#5D2A6A"/>
    <path d="M11.1595 31.2468L13.6424 32.6999V32.201L11.5633 31.0137L11.1595 31.2468Z" fill="#EAB673"/>
    <path d="M8.67671 29.8511V25.5508L6.19391 24.0977V28.398L8.67671 29.8511Z" fill="#1A1346"/>
    <mask id="mask2_4546_25071" style="mask-type:luminance" maskUnits="userSpaceOnUse" x="6" y="24" width="3" height="6">
      <path d="M8.67671 29.8511V25.5508L6.19391 24.0977V28.398L8.67671 29.8511Z" fill="white"/>
    </mask>
    <g mask="url(#mask2_4546_25071)">
      <path d="M7.62781 23.5879H7.24286V30.8548H7.62781V23.5879Z" fill="#CFBBD8"/>
    </g>
    <path d="M6.19391 24.0977V28.398L6.59762 28.1649L6.59812 24.3342L6.19391 24.0977Z" fill="#5D2A6A"/>
    <path d="M6.19391 28.3972L8.67671 29.8503V29.3514L6.59762 28.1641L6.19391 28.3972Z" fill="#EAB673"/>
    <path d="M8.67671 22.6715V18.3711L6.19391 16.918V21.2183L8.67671 22.6715Z" fill="#1A1346"/>
    <mask id="mask3_4546_25071" style="mask-type:luminance" maskUnits="userSpaceOnUse" x="6" y="16" width="3" height="7">
      <path d="M8.67671 22.6715V18.3711L6.19391 16.918V21.2183L8.67671 22.6715Z" fill="white"/>
    </mask>
    <g mask="url(#mask3_4546_25071)">
      <path d="M7.74567 16.6855H7.36072V23.704H7.74567V16.6855Z" fill="#CFBBD8"/>
      <path d="M7.74565 16.6855H7.57275V23.704H7.74565V16.6855Z" fill="#B18FBF"/>
      <path d="M4.8021 17.3994L4.72992 17.5215L10.7712 21.0939L10.8434 20.9718L4.8021 17.3994Z" fill="#CFBBD8"/>
      <path d="M4.80217 18.8135L4.72998 18.9355L10.7711 22.5082L10.8433 22.3862L4.80217 18.8135Z" fill="#CFBBD8"/>
    </g>
    <path d="M6.19391 16.918V21.2183L6.59762 20.9852L6.59812 17.1545L6.19391 16.918Z" fill="#5D2A6A"/>
    <path d="M6.19391 21.2175L8.67671 22.6706V22.1717L6.59762 20.9844L6.19391 21.2175Z" fill="#EAB673"/>
    <path d="M13.6424 25.5249V21.2246L11.1595 19.7715V24.0718L13.6424 25.5249Z" fill="#1A1346"/>
    <mask id="mask4_4546_25071" style="mask-type:luminance" maskUnits="userSpaceOnUse" x="11" y="19" width="3" height="7">
      <path d="M13.6424 25.5249V21.2246L11.1595 19.7715V24.0718L13.6424 25.5249Z" fill="white"/>
    </mask>
    <g mask="url(#mask4_4546_25071)">
      <path d="M12.5934 19.0684H12.2085V25.8213H12.5934V19.0684Z" fill="#CFBBD8"/>
    </g>
    <path d="M13.6423 25.3916V21.2668L11.2639 19.873V23.9978L13.6423 25.3916Z" fill="#1A1346"/>
    <mask id="mask5_4546_25071" style="mask-type:luminance" maskUnits="userSpaceOnUse" x="11" y="19" width="3" height="7">
      <path d="M13.6423 25.3916V21.2668L11.2639 19.873V23.9978L13.6423 25.3916Z" fill="white"/>
    </mask>
    <g mask="url(#mask5_4546_25071)">
      <path d="M12.6375 19.5391H12.2687V26.271H12.6375V19.5391Z" fill="#CFBBD8"/>
      <path d="M12.6375 19.5391H12.4531V26.271H12.6375V19.5391Z" fill="#B18FBF"/>
      <path d="M15.718 23.7603L15.6488 23.8774L9.86139 20.4511L9.93052 20.334L15.718 23.7603Z" fill="#CFBBD8"/>
      <path d="M15.718 25.1157L15.6488 25.2328L9.86139 21.8065L9.93052 21.6895L15.718 25.1157Z" fill="#CFBBD8"/>
    </g>
    <path d="M11.1595 19.7715V24.0718L11.5633 23.8388L11.5638 20.0081L11.1595 19.7715Z" fill="#5D2A6A"/>
    <path d="M11.1595 24.071L13.6424 25.5241V25.0252L11.5633 23.8379L11.1595 24.071Z" fill="#EAB673"/>
    <g style="mix-blend-mode:multiply">
      <path d="M11.1595 19.7715L11.5637 20.327L12.6921 20.9784L12.4579 20.5314L11.1595 19.7715Z" fill="#A57EB5"/>
    </g>
    <path d="M28.5333 30.4026L26.0565 31.814V26.9452L28.5393 25.5117L28.5333 30.4026Z" fill="#361847"/>
    <path d="M28.5334 30.8677L28.136 30.6319L28.1351 25.7451L28.5393 25.5117L28.5334 30.8677Z" fill="#E59811"/>
    <path d="M27.4592 29.0175C27.5276 29.0569 27.638 28.9937 27.7059 28.8761C27.7737 28.7586 27.7733 28.6313 27.7049 28.5918C27.6365 28.5523 27.526 28.6156 27.4582 28.7331C27.3903 28.8507 27.3908 28.978 27.4592 29.0175Z" fill="#542874"/>
    <path d="M27.4904 28.8143C27.5588 28.8538 27.6692 28.7906 27.7371 28.673C27.8049 28.5555 27.8045 28.4282 27.7361 28.3887C27.6677 28.3492 27.5572 28.4125 27.4894 28.53C27.4215 28.6475 27.422 28.7748 27.4904 28.8143Z" fill="#632E85"/>
    <path d="M19.1925 33.776L23.5736 31.2465L23.5721 26.9453L19.1925 29.4756V33.776Z" fill="#3B206E"/>
    <mask id="mask6_4546_25071" style="mask-type:luminance" maskUnits="userSpaceOnUse" x="19" y="26" width="5" height="8">
      <path d="M19.1925 33.776L23.5736 31.2465L23.5721 26.9453L19.1925 29.4756V33.776Z" fill="white"/>
    </mask>
    <g mask="url(#mask6_4546_25071)">
      <path d="M20.6672 28.3418H20.2823V32.9535H20.6672V28.3418Z" fill="#D9C8E0"/>
      <path d="M20.8132 28.1973H20.4282V32.8089H20.8132V28.1973Z" fill="white"/>
      <path d="M22.1472 27.6016H21.7622V32.2132H22.1472V27.6016Z" fill="#D9C8E0"/>
      <path d="M22.293 27.457H21.9081V32.0687H22.293V27.457Z" fill="white"/>
    </g>
    <path d="M23.5737 31.2465L23.1689 31.0094L23.1694 27.178L23.5721 26.9453L23.5737 31.2465Z" fill="#E59811"/>
    <path d="M23.1689 31.0098L19.1925 33.2914V33.7763L23.5736 31.2469L23.1689 31.0098Z" fill="#FFF0CD"/>
    <path d="M23.5736 28.4023L19.1925 30.6602V31.1451L23.5736 28.6156V28.4023Z" fill="white"/>
    <path d="M23.1689 28.1641L19.1925 30.4457V30.9306L23.5736 28.4012L23.1689 28.1641Z" fill="#F0E9F2"/>
    <path d="M31.0221 30.9003L35.87 28.1108L35.8685 21.8047L31.0221 24.595V30.9003Z" fill="#361847"/>
    <mask id="mask7_4546_25071" style="mask-type:luminance" maskUnits="userSpaceOnUse" x="31" y="21" width="5" height="10">
      <path d="M31.0221 30.9003L35.87 28.1108L35.8685 21.8047L31.0221 24.595V30.9003Z" fill="white"/>
    </mask>
    <g mask="url(#mask7_4546_25071)">
      <path d="M37.5544 21.5412L28.9537 26.5059L29.0179 26.617L37.6185 21.6523L37.5544 21.5412Z" fill="#592B7B"/>
      <path d="M37.5544 22.0822L28.9537 27.0469L29.0179 27.158L37.6185 22.1933L37.5544 22.0822Z" fill="#592B7B"/>
      <path d="M37.5546 22.626L28.9535 27.5898L29.0176 27.701L37.6188 22.7371L37.5546 22.626Z" fill="#592B7B"/>
      <path d="M37.5544 23.1662L28.9537 28.1309L29.0179 28.242L37.6185 23.2773L37.5544 23.1662Z" fill="#592B7B"/>
      <path d="M37.5544 23.7091L28.9537 28.6738L29.0179 28.785L37.6185 23.8203L37.5544 23.7091Z" fill="#592B7B"/>
      <path d="M37.5546 24.251L28.9535 29.2148L29.0176 29.326L37.6188 24.3621L37.5546 24.251Z" fill="#592B7B"/>
      <path d="M37.5545 24.7935L28.9536 29.7578L29.0178 29.869L37.6187 24.9047L37.5545 24.7935Z" fill="#592B7B"/>
      <path d="M37.5545 25.3345L28.9536 30.2988L29.0178 30.41L37.6187 25.4457L37.5545 25.3345Z" fill="#592B7B"/>
      <path d="M37.5546 25.8779L28.9535 30.8418L29.0176 30.953L37.6188 25.9891L37.5546 25.8779Z" fill="#592B7B"/>
      <path d="M37.5545 26.4185L28.9536 31.3828L29.0178 31.494L37.6187 26.5297L37.5545 26.4185Z" fill="#592B7B"/>
    </g>
    <path d="M35.87 28.571L35.4612 28.3382L35.4694 22.0344L35.8685 21.8047L35.87 28.571Z" fill="#E59811"/>
    <path d="M28.8875 22.3761V17.3828L25.7031 19.2196V24.2129L28.8875 22.3761Z" fill="#3B206E"/>
    <mask id="mask8_4546_25071" style="mask-type:luminance" maskUnits="userSpaceOnUse" x="25" y="17" width="4" height="8">
      <path d="M28.8875 22.3761V17.3828L25.7031 19.2196V24.2129L28.8875 22.3761Z" fill="white"/>
    </mask>
    <g mask="url(#mask8_4546_25071)">
      <path d="M27.4039 18.0703H27.0189V23.5239H27.4039V18.0703Z" fill="white"/>
    </g>
    <path d="M28.8875 22.3753L28.4627 22.1387L25.7031 23.7319V24.2121L28.8875 22.3753Z" fill="#FFF0CD"/>
    <path d="M28.8875 22.3761L28.4627 22.1395L28.4833 17.616L28.8875 17.3828V22.3761Z" fill="#E59811"/>
    <g style="mix-blend-mode:multiply">
      <path d="M8.68038 25.5527V25.8552L6.60175 24.6551L6.19757 24.0996L8.68038 25.5527Z" fill="#A57EB5"/>
    </g>
    <g style="mix-blend-mode:multiply">
      <path d="M8.67671 18.3945V18.697L6.59808 17.4969L6.19391 16.9414L8.67671 18.3945Z" fill="#A57EB5"/>
    </g>
    <g style="mix-blend-mode:multiply">
      <path d="M13.6424 28.4082V28.7107L11.5637 27.5106L11.1595 26.9551L13.6424 28.4082Z" fill="#A57EB5"/>
    </g>
    <g style="mix-blend-mode:multiply">
      <path d="M17.3666 29.8508L37.2291 18.373V19.7997L29.5101 24.2129L30.8483 24.978L26.0416 27.7085L24.7269 26.9588L17.3666 31.2021V29.8508Z" fill="#C69EC4"/>
    </g>
    <path d="M29.7806 21.8613L24.815 24.7282L27.2964 26.1609L32.2634 23.2948L29.7806 21.8613Z" fill="#FFF0CD"/>
    <path d="M32.2635 23.2949V23.6414L27.2964 26.5075V26.161L32.2635 23.2949Z" fill="#F8BE53"/>
    <path d="M24.815 24.7285V25.075L27.2964 26.5076V26.1611L24.815 24.7285Z" fill="#E59811"/>
    <path d="M31.612 23.4059C31.5588 23.4059 31.5157 23.3629 31.5157 23.3097V21.6529C31.5157 21.5997 31.5588 21.5566 31.612 21.5566C31.6651 21.5566 31.7082 21.5997 31.7082 21.6529V23.3097C31.7082 23.3629 31.6651 23.4059 31.612 23.4059Z" fill="#D9C8E0"/>
    <path d="M31.0018 23.7576C30.9487 23.7576 30.9056 23.7145 30.9056 23.6613V22.0045C30.9056 21.9513 30.9487 21.9082 31.0018 21.9082C31.0549 21.9082 31.0981 21.9513 31.0981 22.0045V23.6613C31.0981 23.7145 31.0549 23.7576 31.0018 23.7576Z" fill="#D9C8E0"/>
    <path d="M30.3917 24.111C30.3386 24.111 30.2955 24.068 30.2955 24.0148V22.358C30.2955 22.3048 30.3386 22.2617 30.3917 22.2617C30.4449 22.2617 30.4879 22.3048 30.4879 22.358V24.0148C30.4879 24.068 30.4449 24.111 30.3917 24.111Z" fill="#D9C8E0"/>
    <path d="M29.7815 24.4626C29.7284 24.4626 29.6853 24.4195 29.6853 24.3664V22.7095C29.6853 22.6564 29.7284 22.6133 29.7815 22.6133C29.8347 22.6133 29.8778 22.6564 29.8778 22.7095V24.3664C29.8778 24.4195 29.8347 24.4626 29.7815 24.4626Z" fill="#D9C8E0"/>
    <path d="M29.1714 24.8142C29.1183 24.8142 29.0752 24.7711 29.0752 24.7179V23.0611C29.0752 23.0079 29.1183 22.9648 29.1714 22.9648C29.2246 22.9648 29.2677 23.0079 29.2677 23.0611V24.7179C29.2677 24.7711 29.2246 24.8142 29.1714 24.8142Z" fill="#D9C8E0"/>
    <path d="M28.5613 25.1677C28.5082 25.1677 28.465 25.1246 28.465 25.0715V23.4146C28.465 23.3614 28.5082 23.3184 28.5613 23.3184C28.6144 23.3184 28.6575 23.3614 28.6575 23.4146V25.0715C28.6575 25.1246 28.6144 25.1677 28.5613 25.1677Z" fill="#D9C8E0"/>
    <path d="M27.9511 25.5193C27.898 25.5193 27.8549 25.4762 27.8549 25.423V23.7662C27.8549 23.713 27.898 23.6699 27.9511 23.6699C28.0042 23.6699 28.0473 23.713 28.0473 23.7662V25.423C28.0473 25.4762 28.0042 25.5193 27.9511 25.5193Z" fill="#D9C8E0"/>
    <path d="M27.341 25.8728C27.2878 25.8728 27.2448 25.8297 27.2448 25.7766V24.1197C27.2448 24.0665 27.2878 24.0234 27.341 24.0234C27.3941 24.0234 27.4372 24.0665 27.4372 24.1197V25.7766C27.4372 25.8297 27.3941 25.8728 27.341 25.8728Z" fill="#D9C8E0"/>
    <path d="M27.341 25.8708C27.2878 25.8708 27.2448 25.8278 27.2448 25.7746V24.1177C27.2448 24.0646 27.2878 24.0215 27.341 24.0215C27.3941 24.0215 27.4372 24.0646 27.4372 24.1177V25.7746C27.4372 25.8278 27.3941 25.8708 27.341 25.8708Z" fill="#D9C8E0"/>
    <path d="M26.7907 25.5622C26.7375 25.5622 26.6944 25.5192 26.6944 25.466V23.8091C26.6944 23.756 26.7375 23.7129 26.7907 23.7129C26.8438 23.7129 26.8869 23.756 26.8869 23.8091V25.466C26.8869 25.5192 26.8438 25.5622 26.7907 25.5622Z" fill="#D9C8E0"/>
    <path d="M26.2404 25.2536C26.1872 25.2536 26.1441 25.2106 26.1441 25.1574V23.5005C26.1441 23.4474 26.1872 23.4043 26.2404 23.4043C26.2935 23.4043 26.3366 23.4474 26.3366 23.5005V25.1574C26.3366 25.2106 26.2935 25.2536 26.2404 25.2536Z" fill="#D9C8E0"/>
    <path d="M25.6901 24.945C25.637 24.945 25.5939 24.902 25.5939 24.8488V23.1919C25.5939 23.1388 25.637 23.0957 25.6901 23.0957C25.7432 23.0957 25.7863 23.1388 25.7863 23.1919V24.8488C25.7863 24.902 25.7432 24.945 25.6901 24.945Z" fill="#D9C8E0"/>
    <path d="M25.1398 24.6364C25.0866 24.6364 25.0435 24.5933 25.0435 24.5402V22.8833C25.0435 22.8302 25.0866 22.7871 25.1398 22.7871C25.1929 22.7871 25.236 22.8302 25.236 22.8833V24.5402C25.236 24.5933 25.1929 24.6364 25.1398 24.6364Z" fill="#D9C8E0"/>
    <g style="mix-blend-mode:multiply">
      <path d="M29.7799 17.2297L27.9328 15.9546L24.815 22.0566L24.8142 20.7329L27.9025 15.1582L29.7799 16.4686V17.2297Z" fill="#B18FBF"/>
    </g>
    <path d="M31.737 23.4059C31.6838 23.4059 31.6407 23.3629 31.6407 23.3097V21.6529C31.6407 21.5997 31.6838 21.5566 31.737 21.5566C31.7901 21.5566 31.8332 21.5997 31.8332 21.6529V23.3097C31.8332 23.3629 31.7901 23.4059 31.737 23.4059Z" fill="white"/>
    <path d="M31.1268 23.7576C31.0737 23.7576 31.0306 23.7145 31.0306 23.6613V22.0045C31.0306 21.9513 31.0737 21.9082 31.1268 21.9082C31.1799 21.9082 31.2231 21.9513 31.2231 22.0045V23.6613C31.2231 23.7145 31.1799 23.7576 31.1268 23.7576Z" fill="white"/>
    <path d="M30.5167 24.111C30.4636 24.111 30.4205 24.068 30.4205 24.0148V22.358C30.4205 22.3048 30.4636 22.2617 30.5167 22.2617C30.5699 22.2617 30.6129 22.3048 30.6129 22.358V24.0148C30.6129 24.068 30.5699 24.111 30.5167 24.111Z" fill="white"/>
    <path d="M29.9065 24.4626C29.8534 24.4626 29.8103 24.4195 29.8103 24.3664V22.7095C29.8103 22.6564 29.8534 22.6133 29.9065 22.6133C29.9597 22.6133 30.0028 22.6564 30.0028 22.7095V24.3664C30.0028 24.4195 29.9597 24.4626 29.9065 24.4626Z" fill="white"/>
    <path d="M29.2964 24.8142C29.2433 24.8142 29.2002 24.7711 29.2002 24.7179V23.0611C29.2002 23.0079 29.2433 22.9648 29.2964 22.9648C29.3496 22.9648 29.3927 23.0079 29.3927 23.0611V24.7179C29.3927 24.7711 29.3496 24.8142 29.2964 24.8142Z" fill="white"/>
    <path d="M28.6863 25.1677C28.6332 25.1677 28.59 25.1246 28.59 25.0715V23.4146C28.59 23.3614 28.6332 23.3184 28.6863 23.3184C28.7394 23.3184 28.7825 23.3614 28.7825 23.4146V25.0715C28.7825 25.1246 28.7394 25.1677 28.6863 25.1677Z" fill="white"/>
    <path d="M28.0761 25.5193C28.023 25.5193 27.9799 25.4762 27.9799 25.423V23.7662C27.9799 23.713 28.023 23.6699 28.0761 23.6699C28.1292 23.6699 28.1723 23.713 28.1723 23.7662V25.423C28.1723 25.4762 28.1292 25.5193 28.0761 25.5193Z" fill="white"/>
    <path d="M27.466 25.8728C27.4128 25.8728 27.3698 25.8297 27.3698 25.7766V24.1197C27.3698 24.0665 27.4128 24.0234 27.466 24.0234C27.5191 24.0234 27.5622 24.0665 27.5622 24.1197V25.7766C27.5622 25.8297 27.5191 25.8728 27.466 25.8728Z" fill="white"/>
    <path d="M27.466 25.8708C27.4128 25.8708 27.3698 25.8278 27.3698 25.7746V24.1177C27.3698 24.0646 27.4128 24.0215 27.466 24.0215C27.5191 24.0215 27.5622 24.0646 27.5622 24.1177V25.7746C27.5622 25.8278 27.5191 25.8708 27.466 25.8708Z" fill="white"/>
    <path d="M26.9157 25.5622C26.8626 25.5622 26.8195 25.5192 26.8195 25.466V23.8091C26.8195 23.756 26.8626 23.7129 26.9157 23.7129C26.9688 23.7129 27.0119 23.756 27.0119 23.8091V25.466C27.0119 25.5192 26.9688 25.5622 26.9157 25.5622Z" fill="white"/>
    <path d="M26.3654 25.2536C26.3122 25.2536 26.2691 25.2106 26.2691 25.1574V23.5005C26.2691 23.4474 26.3122 23.4043 26.3654 23.4043C26.4185 23.4043 26.4616 23.4474 26.4616 23.5005V25.1574C26.4616 25.2106 26.4185 25.2536 26.3654 25.2536Z" fill="white"/>
    <path d="M25.8151 24.945C25.762 24.945 25.7189 24.902 25.7189 24.8488V23.1919C25.7189 23.1388 25.762 23.0957 25.8151 23.0957C25.8682 23.0957 25.9113 23.1388 25.9113 23.1919V24.8488C25.9113 24.902 25.8682 24.945 25.8151 24.945Z" fill="white"/>
    <path d="M25.2648 24.6364C25.2116 24.6364 25.1685 24.5933 25.1685 24.5402V22.8833C25.1685 22.8302 25.2116 22.7871 25.2648 22.7871C25.3179 22.7871 25.361 22.8302 25.361 22.8833V24.5402C25.361 24.5933 25.3179 24.6364 25.2648 24.6364Z" fill="white"/>
    <path d="M8.87542 13.9297L0.509338 20.1933L2.4697 19.0615L8.95036 14.0727L8.87542 13.9297Z" fill="#381848"/>
    <path d="M30.7737 1.28711L39.0409 17.1973L30.6136 22.0648L29.777 20.4953L29.7777 16.1933L27.2958 14.4331L24.815 19.0619L24.8129 23.3622L25.6319 24.9388L17.1426 29.8402L8.87543 13.9301L30.7737 1.28711Z" fill="#F7E0B5"/>
    <path d="M20.9441 10.6914L21.6011 17.1959L22.8689 19.6301L23.8704 21.553L24.8129 23.363L24.8136 22.056L24.8142 20.3244V20.1113L24.8149 19.0411L27.2978 14.4338L20.9441 10.6914Z" fill="#E59811"/>
    <g style="mix-blend-mode:multiply">
      <path d="M22.8689 19.6289L23.8704 21.5518L24.8136 22.0548L24.8149 22.0554L24.8142 20.1101L22.8689 19.6289Z" fill="#B18FBF"/>
    </g>
    <path d="M27.9328 14.8066L27.9025 14.8627L29.7777 16.1927V16.2909L31.1798 17.1003L27.9328 14.8066Z" fill="#381848"/>
    <path d="M27.9328 14.8078L24.6676 20.8613L20.8149 18.6369L20.9443 10.6914L27.9328 14.8078Z" fill="#673192"/>
    <path d="M18.6936 20.1337L16.8459 16.6113L14.3821 18.0164L16.2107 21.558L18.6936 20.1337Z" fill="#41237A"/>
    <path d="M16.8458 16.6113L16.6862 17.1469L18.3562 20.3273L18.6936 20.1337L16.8458 16.6113Z" fill="#663090"/>
    <path d="M16.8459 16.6113L16.6862 17.1469L14.5648 18.3702L14.3821 18.0164L16.8459 16.6113Z" fill="#985FAA"/>
    <path d="M17.6213 18.101L17.4441 17.8359L14.9965 19.2062L15.1383 19.5253L17.6213 18.101Z" fill="white"/>
    <path d="M17.5605 17.9684L17.4441 17.8359L14.9965 19.2062L15.0776 19.3927L17.5605 17.9684Z" fill="#D4C2DC"/>
    <path d="M16.8458 16.6113L16.6862 17.1469L18.3562 20.3273L18.6936 20.1337L16.8458 16.6113Z" fill="#663090"/>
    <path d="M16.8459 16.6113L16.6862 17.1469L14.5648 18.3702L14.3821 18.0164L16.8459 16.6113Z" fill="#985FAA"/>
    <path d="M32.9461 11.8915L31.0983 8.36914L28.6346 9.77423L30.4631 13.3159L32.9461 11.8915Z" fill="#41237A"/>
    <path d="M31.0983 8.36914L30.9386 8.90472L28.8172 10.128L28.6346 9.77423L31.0983 8.36914Z" fill="#985FAA"/>
    <path d="M31.9045 9.94278L31.7274 9.67773L29.2797 11.048L29.4216 11.3671L31.9045 9.94278Z" fill="white"/>
    <path d="M31.8437 9.81019L31.7274 9.67773L29.2797 11.048L29.3608 11.2345L31.8437 9.81019Z" fill="#D4C2DC"/>
    <path d="M31.0983 8.36914L30.9387 8.90472L32.6087 12.0851L32.9461 11.8915L31.0983 8.36914Z" fill="#663090"/>
    <path d="M0.509338 20.1933V20.6309L8.95036 14.3229L17.1446 29.9751V29.8399L8.87542 13.9297L0.509338 20.1933Z" fill="#622F8A"/>
    <path d="M25.6319 24.9395V25.0761L17.1447 29.9762V29.8398L25.6319 24.9395Z" fill="#783695"/>
    <path d="M31.1798 17.1003V17.4446L27.9025 15.1571L24.6847 21.044L24.6677 20.8601L27.9328 14.8066L31.1798 17.1003Z" fill="#632F8D"/>
    <path d="M24.6676 20.8611L24.6846 21.045L20.8149 18.7956V18.6367L24.6676 20.8611Z" fill="#632F8D"/>
    <path d="M29.4425 22.1521C29.3894 22.1521 29.3463 22.109 29.3463 22.0558V20.399C29.3463 20.3458 29.3894 20.3027 29.4425 20.3027C29.4956 20.3027 29.5387 20.3458 29.5387 20.399V22.0558C29.5387 22.109 29.4956 22.1521 29.4425 22.1521Z" fill="#D9C8E0"/>
    <path d="M29.9849 22.4665C29.9317 22.4665 29.8886 22.4234 29.8886 22.3703V20.7134C29.8886 20.6603 29.9317 20.6172 29.9849 20.6172C30.038 20.6172 30.0811 20.6603 30.0811 20.7134V22.3703C30.0811 22.4234 30.038 22.4665 29.9849 22.4665Z" fill="#D9C8E0"/>
    <path d="M30.5273 22.779C30.4741 22.779 30.431 22.7359 30.431 22.6828V21.0259C30.431 20.9728 30.4741 20.9297 30.5273 20.9297C30.5804 20.9297 30.6235 20.9728 30.6235 21.0259V22.6828C30.6235 22.7359 30.5804 22.779 30.5273 22.779Z" fill="#D9C8E0"/>
    <path d="M31.0696 23.0934C31.0165 23.0934 30.9734 23.0504 30.9734 22.9972V21.3404C30.9734 21.2872 31.0165 21.2441 31.0696 21.2441C31.1228 21.2441 31.1659 21.2872 31.1659 21.3404V22.9972C31.1659 23.0504 31.1228 23.0934 31.0696 23.0934Z" fill="#D9C8E0"/>
    <path d="M31.612 23.4059C31.5588 23.4059 31.5157 23.3629 31.5157 23.3097V21.6529C31.5157 21.5997 31.5588 21.5566 31.612 21.5566C31.6651 21.5566 31.7082 21.5997 31.7082 21.6529V23.3097C31.7082 23.3629 31.6651 23.4059 31.612 23.4059Z" fill="#D9C8E0"/>
    <path d="M29.5676 22.1521C29.5144 22.1521 29.4713 22.109 29.4713 22.0558V20.399C29.4713 20.3458 29.5144 20.3027 29.5676 20.3027C29.6207 20.3027 29.6638 20.3458 29.6638 20.399V22.0558C29.6638 22.109 29.6207 22.1521 29.5676 22.1521Z" fill="white"/>
    <path d="M30.1099 22.4665C30.0568 22.4665 30.0137 22.4234 30.0137 22.3703V20.7134C30.0137 20.6603 30.0568 20.6172 30.1099 20.6172C30.1631 20.6172 30.2062 20.6603 30.2062 20.7134V22.3703C30.2062 22.4234 30.1631 22.4665 30.1099 22.4665Z" fill="white"/>
    <path d="M30.6523 22.779C30.5991 22.779 30.556 22.7359 30.556 22.6828V21.0259C30.556 20.9728 30.5991 20.9297 30.6523 20.9297C30.7054 20.9297 30.7485 20.9728 30.7485 21.0259V22.6828C30.7485 22.7359 30.7054 22.779 30.6523 22.779Z" fill="white"/>
    <path d="M31.1947 23.0934C31.1415 23.0934 31.0984 23.0504 31.0984 22.9972V21.3404C31.0984 21.2872 31.1415 21.2441 31.1947 21.2441C31.2478 21.2441 31.2909 21.2872 31.2909 21.3404V22.9972C31.2909 23.0504 31.2478 23.0934 31.1947 23.0934Z" fill="white"/>
    <path d="M31.737 23.4059C31.6839 23.4059 31.6408 23.3629 31.6408 23.3097V21.6529C31.6408 21.5997 31.6839 21.5566 31.737 21.5566C31.7902 21.5566 31.8333 21.5997 31.8333 21.6529V23.3097C31.8333 23.3629 31.7902 23.4059 31.737 23.4059Z" fill="white"/>
    <path d="M39.0409 17.1973V17.3337L31.4256 21.7015V21.546L39.0409 17.1973Z" fill="#783695"/>
    <path d="M27.3409 24.2794C27.3139 24.2794 27.2869 24.2726 27.2625 24.2589L25.0613 23.0245C24.984 22.9811 24.9565 22.8834 24.9998 22.8061C25.0432 22.7289 25.1409 22.7014 25.2182 22.7447L27.3398 23.9344L31.2913 21.653L29.3622 20.5376C29.2855 20.4932 29.2593 20.3951 29.3036 20.3184C29.3479 20.2417 29.4462 20.2155 29.5227 20.2599L31.6922 21.5143C31.7418 21.543 31.7724 21.5959 31.7724 21.6532C31.7724 21.7105 31.7418 21.7634 31.6921 21.7921L27.4211 24.2579C27.3963 24.2722 27.3686 24.2794 27.3409 24.2794Z" fill="white"/>
    <path d="M26.4625 34.4606L17.3701 39.7164L17.3666 37.4038L26.4692 32.1465L26.4625 34.4606Z" fill="#673086"/>
    <path d="M28.9445 30.7167L31.4198 29.2871L31.4256 31.5916L28.9441 33.026L28.9445 30.7167Z" fill="#673086"/>
    <path d="M36.262 26.5211L38.1334 25.4082V27.7165L36.2657 28.7948L36.262 26.5211Z" fill="#673086"/>
    <path d="M17.3666 37.4024V39.7058L1.50769 30.5497L1.508 28.2461L17.3666 37.4024Z" fill="#562870"/>
    <path d="M1.508 28.2466L2.46968 27.6914V28.2688L17.3666 36.8696V37.403L1.508 28.2466Z" fill="#7F499B"/>
    <path d="M28.9446 30.7155L31.4199 29.2859L31.0221 29.0566L28.5333 30.4805L28.9446 30.7155Z" fill="#B16060"/>
    <path d="M26.0564 31.9121L17.3666 36.8705V37.4039L26.4679 32.1474L26.0564 31.9121Z" fill="#B16060"/>
    <path d="M36.2619 26.5217L38.1334 25.4087L37.2291 24.8867V25.4772L35.8694 26.2931L36.2619 26.5217Z" fill="#B16060"/>
    <path d="M35.8694 26.293L36.2619 26.5215L36.2656 28.7952L35.8699 28.5689L35.8694 26.293Z" fill="#4E214F"/>
    <path d="M28.9441 33.0248L28.9446 30.7155L28.5333 30.4805V32.6813L28.9441 33.0248Z" fill="#4E214F"/>
    <path d="M29.7349 31.0254V31.3321L26.3593 33.2905L26.3615 32.973L29.7349 31.0254Z" fill="#9267AC"/>
    <path d="M26.3615 32.9739L26.3593 33.2915L26.3581 33.2908L26.3593 33.2927V33.2915L26.684 33.4802V33.7978L26.6816 33.7964L26.684 33.8002V33.7978L27.0088 33.9865V34.3041L27.0051 34.302L27.3261 34.4886V34.8038L27.3286 34.8076L27.6509 34.9949V35.3113L27.6521 35.3132L27.9756 35.5013V35.8188L26.0346 34.709V32.7852L26.3615 32.9739Z" fill="#E59811"/>
    <path d="M26.4625 32.5376V32.1448L26.0565 31.9127V31.8149L28.136 30.6328L28.9446 31.1046L29.4067 30.8364L29.7349 31.0258L26.3615 32.9734L26.0346 32.7847L26.4625 32.5376Z" fill="#FFF0CD"/>
    <path d="M29.7349 31.332L26.3593 33.2905L26.684 33.4792L30.0596 31.5208L29.7349 31.332Z" fill="#FFF0CD"/>
    <path d="M30.3843 32.0266L27.0087 33.9851L26.684 33.7964L30.0596 31.8379L30.3843 32.0266Z" fill="#FFF0CD"/>
    <path d="M30.7018 32.5286L27.3262 34.4871L27.0015 34.2983L30.377 32.3398L30.7018 32.5286Z" fill="#FFF0CD"/>
    <path d="M30.7017 32.8477L27.3262 34.8061L27.6509 34.9949L31.0264 33.0364L30.7017 32.8477Z" fill="#FFF0CD"/>
    <path d="M31.3511 33.5423L27.9756 35.5008L27.6509 35.312L31.0264 33.3535L31.3511 33.5423Z" fill="#FFF0CD"/>
    <path d="M30.0596 31.5215V31.8391L26.684 33.7975V33.48L30.0596 31.5215Z" fill="#9267AC"/>
    <path d="M27.0088 33.9858L27.0015 34.2992L30.377 32.3407L30.3843 32.0273L27.0088 33.9858Z" fill="#9267AC"/>
    <path d="M30.7017 32.5293V32.8468L27.3262 34.8053V34.4878L30.7017 32.5293Z" fill="#9267AC"/>
    <path d="M31.0264 33.0352V33.3527L27.6509 35.3112V34.9936L31.0264 33.0352Z" fill="#9267AC"/>
    <path d="M31.3511 33.541V33.8682L27.9756 35.8171V35.4995L31.3511 33.541Z" fill="#9267AC"/>
    <path d="M25.843 34.8198V32.9129L26.0346 32.7852V34.709L25.843 34.8198Z" fill="#4E214F"/>
    <path d="M18.5709 39.3429L24.909 35.709L27.0353 36.9366L20.6972 40.5705L18.5709 39.3429Z" fill="#592B7B"/>
    <path d="M27.0353 37.5791V36.9375L20.6972 40.5714V41.213L27.0353 37.5791Z" fill="#B16060"/>
    <path d="M26.8198 36.793L27.0353 36.936L20.6972 40.5699L20.4817 40.4269L26.8198 36.793Z" fill="#F1B860"/>
    <path d="M18.5709 39.3418V39.9834L20.6972 41.211V40.5694L18.5709 39.3418Z" fill="#562870"/>
    <path fill-rule="evenodd" clip-rule="evenodd" d="M27.0165 36.0577C27.0165 36.1613 26.978 36.2795 26.965 36.3796C26.9516 36.482 26.9831 36.6131 26.957 36.7109C26.9304 36.8104 26.5431 36.7862 26.5042 36.88C26.4648 36.9749 26.6182 37.1523 26.5672 37.2404C26.5159 37.3291 26.5115 37.4583 26.4494 37.5392C26.3871 37.6203 26.1652 37.5598 26.093 37.632C26.0208 37.7042 26.1288 37.9877 26.0476 38.05C25.9668 38.1122 25.7855 38.0469 25.6968 38.0982C25.6088 38.1492 25.5223 38.2121 25.4275 38.2515C25.3337 38.2904 25.2006 38.2041 25.1011 38.2307C25.0033 38.2568 24.9007 38.165 24.7983 38.1784C24.6982 38.1914 24.6224 38.2661 24.5188 38.2661C24.4151 38.2661 24.2912 38.561 24.1911 38.548C24.0887 38.5346 24.0388 38.2398 23.9409 38.2137C23.8415 38.1871 23.6527 38.4137 23.5589 38.3748C23.464 38.3354 23.5333 37.9685 23.4451 37.9175C23.3565 37.8662 23.062 38.1234 22.9811 38.0613C22.9 37.9989 22.9384 37.7825 22.8661 37.7102C22.7939 37.638 22.5476 37.6992 22.4853 37.6181C22.4231 37.5373 22.3973 37.4009 22.346 37.3122C22.295 37.2242 22.3502 37.0671 22.3108 36.9722C22.2719 36.8784 22.3741 36.739 22.3475 36.6396C22.3213 36.5417 22.0509 36.4866 22.0375 36.3842C22.0245 36.2841 22.3966 36.1613 22.3966 36.0577C22.3966 35.954 22.333 35.8715 22.3461 35.7714C22.3594 35.669 22.316 35.5722 22.3422 35.4744C22.3688 35.3749 22.1911 35.2033 22.23 35.1095C22.2693 35.0146 22.3683 34.9335 22.4193 34.8454C22.4706 34.7567 22.6773 34.7732 22.7394 34.6924C22.8018 34.6113 22.8196 34.5029 22.8918 34.4306C22.964 34.3584 23.0242 34.2778 23.1053 34.2154C23.1861 34.1533 23.1754 33.9361 23.2641 33.8848C23.3522 33.8338 23.5826 34.0657 23.6775 34.0264C23.7712 33.9875 23.8714 34.0402 23.9709 34.0137C24.0687 33.9875 24.0823 33.5318 24.1847 33.5184C24.2848 33.5053 24.4151 33.6531 24.5188 33.6531C24.6224 33.6531 24.7274 33.7 24.8275 33.7131C24.9299 33.7264 25.0587 33.6512 25.1565 33.6773C25.256 33.7039 25.375 33.7254 25.4688 33.7643C25.5637 33.8036 25.4883 34.1743 25.5765 34.2253C25.6651 34.2766 25.7654 34.2654 25.8462 34.3275C25.9273 34.3899 26.0409 34.3911 26.1132 34.4633C26.1854 34.5356 26.4894 34.4165 26.5518 34.4976C26.6139 34.5785 26.6105 34.7316 26.6618 34.8203C26.7128 34.9084 26.621 35.0758 26.6603 35.1707C26.6992 35.2644 26.7326 35.3578 26.7592 35.4573C26.7854 35.5551 26.8452 35.6472 26.8586 35.7496C26.8716 35.8497 27.0165 35.954 27.0165 36.0577Z" fill="#7E7900"/>
    <path fill-rule="evenodd" clip-rule="evenodd" d="M23.41 34.6791C23.4648 34.6245 23.5106 34.5636 23.5721 34.5163C23.6335 34.469 23.6263 34.3053 23.6937 34.266C23.7608 34.2267 23.9347 34.3995 24.0069 34.3689C24.078 34.3391 24.1539 34.3781 24.2292 34.3574C24.304 34.3367 24.3156 33.9937 24.3938 33.9831C24.4698 33.9729 24.5685 34.0835 24.6471 34.0835C24.7266 34.0835 24.8066 34.1206 24.8828 34.1326C24.9604 34.1448 25.0579 34.0906 25.132 34.1127C25.2072 34.1347 25.2974 34.1524 25.3682 34.184C25.4093 34.2024 25.4096 34.3003 25.4146 34.3881C25.4183 34.4559 25.425 34.5182 25.4551 34.535C25.5235 34.5732 25.6007 34.5646 25.6636 34.6107C25.7264 34.6571 25.8131 34.6581 25.8696 34.7114C25.927 34.7655 26.1588 34.6755 26.2067 34.7383C26.254 34.8002 26.2508 34.9167 26.2884 34.9849C26.3256 35.0524 26.2557 35.1793 26.2839 35.2519C26.3119 35.3235 26.3358 35.3948 26.3547 35.4706C26.3731 35.5453 26.417 35.6156 26.4262 35.6936C26.4351 35.7701 26.5432 35.8496 26.5432 35.9285C26.5432 36.0077 26.5144 36.0977 26.5048 36.1739C26.4949 36.2519 26.5187 36.3512 26.4992 36.4256C26.4794 36.5017 26.1887 36.485 26.1587 36.5571C26.1505 36.5767 26.153 36.6008 26.1601 36.6269C26.1792 36.6973 26.2323 36.782 26.2041 36.8311C26.1651 36.8987 26.1614 36.9966 26.1144 37.0582C26.0671 37.1202 25.9003 37.0758 25.8454 37.131C25.7904 37.1862 25.8703 37.3999 25.808 37.4475C25.7463 37.4947 25.6094 37.4469 25.5418 37.4868C25.4749 37.5263 25.4093 37.5749 25.3373 37.6059C25.266 37.6366 25.1653 37.5735 25.0897 37.5949C25.0155 37.6158 24.9375 37.5481 24.8597 37.5589C24.7837 37.5695 24.7259 37.626 24.6471 37.626C24.5685 37.626 24.4746 37.8471 24.3987 37.8371C24.3209 37.8268 24.2826 37.6054 24.2083 37.5854C24.1328 37.5651 23.9902 37.7346 23.9189 37.705C23.8467 37.675 23.8975 37.3991 23.8304 37.3603C23.7628 37.3212 23.5409 37.5135 23.4793 37.4663C23.4177 37.419 23.4457 37.2562 23.3909 37.2017C23.336 37.147 23.1508 37.1923 23.1032 37.1314C23.0547 37.0693 23.0338 36.9648 22.9943 36.8955C22.9551 36.8266 22.9957 36.7057 22.9652 36.632C22.9564 36.6107 22.9566 36.5865 22.9607 36.5611C22.9706 36.4993 23.004 36.4297 22.9892 36.375C22.9685 36.2985 22.765 36.2539 22.755 36.1734C22.7452 36.0959 23.0243 36.0014 23.0245 35.9214C23.0246 35.8423 22.9771 35.779 22.9872 35.7026C22.9975 35.6245 22.9654 35.5506 22.9855 35.4759C22.9919 35.4527 22.9838 35.4243 22.9705 35.394C22.9404 35.3256 22.8831 35.2476 22.9041 35.1978C22.9344 35.1254 23.0096 35.0633 23.0488 34.9961C23.0884 34.9283 23.2446 34.9395 23.2924 34.8778C23.3402 34.816 23.3547 34.7339 23.41 34.6791Z" fill="#AF9300"/>
    <path fill-rule="evenodd" clip-rule="evenodd" d="M23.9283 34.9295C23.9657 34.8928 23.9969 34.8514 24.0388 34.8191C24.0809 34.7867 24.0772 34.6765 24.1233 34.6491C24.1695 34.6216 24.2867 34.7351 24.3364 34.7135C24.3847 34.6925 24.4364 34.718 24.4876 34.703C24.5393 34.6879 24.5488 34.4575 24.6029 34.4498C24.6547 34.4423 24.7218 34.5158 24.7754 34.5158C24.8307 34.5158 24.8857 34.5431 24.9381 34.554C24.991 34.5651 25.0569 34.5322 25.1074 34.55C25.1583 34.5678 25.2198 34.5814 25.2675 34.6057C25.2963 34.6204 25.2976 34.6883 25.3024 34.7478C25.3061 34.7936 25.312 34.8352 25.3336 34.8465C25.3819 34.8717 25.4362 34.8656 25.481 34.8959C25.5256 34.9261 25.5853 34.9271 25.6261 34.9615C25.6687 34.9975 25.8282 34.9365 25.8616 34.981C25.8941 35.0239 25.8911 35.1038 25.9149 35.1514C25.9384 35.1983 25.8902 35.2847 25.9075 35.335C25.9244 35.3845 25.939 35.4337 25.9501 35.4859C25.9609 35.5374 25.9889 35.586 25.9938 35.6396C25.9987 35.6924 26.0698 35.7472 26.0698 35.8013C26.0698 35.8562 26.0508 35.9178 26.0446 35.9701C26.0383 36.0237 26.0542 36.0913 26.0414 36.1422C26.0282 36.1949 25.8343 36.1857 25.8131 36.2362C25.8075 36.2496 25.809 36.266 25.8135 36.2838C25.8256 36.332 25.8603 36.3898 25.8409 36.4238C25.8143 36.4702 25.8113 36.5369 25.7794 36.5792C25.7472 36.622 25.6353 36.5939 25.5977 36.6319C25.56 36.6702 25.6119 36.814 25.5684 36.8469C25.5258 36.8792 25.4332 36.8488 25.3869 36.8774C25.3411 36.9053 25.2962 36.9397 25.2471 36.9623C25.1984 36.9849 25.13 36.9449 25.0783 36.961C25.0276 36.9768 24.9744 36.9332 24.9212 36.9415C24.8693 36.9495 24.8294 36.9878 24.7754 36.9878C24.7219 36.9878 24.6581 37.135 24.6062 37.1281C24.5532 37.121 24.5264 36.9729 24.4756 36.9591C24.424 36.9451 24.3277 37.0575 24.2789 37.0371C24.2293 37.0164 24.2618 36.8318 24.2157 36.8051C24.1692 36.7782 24.0198 36.9055 23.9774 36.8732C23.9353 36.8411 23.9531 36.732 23.9156 36.695C23.878 36.658 23.754 36.6874 23.7211 36.6465C23.6864 36.6032 23.6703 36.5306 23.6427 36.4807C23.6152 36.4311 23.6413 36.3463 23.6196 36.2938C23.6133 36.2786 23.6131 36.2616 23.6153 36.2437C23.6207 36.2002 23.6416 36.1514 23.6309 36.1124C23.6156 36.0573 23.4793 36.023 23.4725 35.9646C23.4661 35.9097 23.652 35.8435 23.6524 35.787C23.6526 35.7325 23.6212 35.6885 23.6283 35.6358C23.6356 35.5819 23.6147 35.5309 23.6289 35.4795C23.6334 35.4634 23.6283 35.4438 23.6198 35.4231C23.6005 35.376 23.5633 35.3226 23.5782 35.288C23.5996 35.2381 23.6509 35.1951 23.6783 35.1487C23.7062 35.1018 23.8119 35.1077 23.8454 35.0651C23.8787 35.0227 23.8899 34.967 23.9283 34.9295Z" fill="#EE9C05"/>
    <path fill-rule="evenodd" clip-rule="evenodd" d="M24.4464 35.1779C24.4665 35.159 24.4833 35.1372 24.5055 35.12C24.5282 35.1024 24.5281 35.0458 24.5528 35.0303C24.578 35.0146 24.6387 35.0689 24.6658 35.0561C24.6914 35.044 24.7189 35.0558 24.7458 35.0468C24.7746 35.0371 24.7821 34.9195 24.8119 34.9145C24.8397 34.9098 24.8751 34.9462 24.9037 34.9462C24.9348 34.9462 24.9648 34.9636 24.9933 34.9736C25.0214 34.9834 25.0559 34.9718 25.0828 34.9854C25.1094 34.9988 25.1421 35.0089 25.1668 35.0255C25.1834 35.0366 25.1856 35.0745 25.1902 35.1056C25.1937 35.1294 25.1988 35.1504 25.2122 35.1562C25.2401 35.1683 25.2715 35.1647 25.2984 35.1791C25.3246 35.1933 25.3578 35.194 25.3825 35.2096C25.4108 35.2275 25.4974 35.1957 25.5165 35.2218C25.5341 35.2457 25.5314 35.2888 25.5414 35.316C25.5511 35.3422 25.5248 35.3882 25.531 35.4163C25.5371 35.4435 25.5422 35.4707 25.5455 35.4993C25.5487 35.5276 25.5606 35.5545 25.5614 35.5837C25.5621 35.6128 25.5964 35.6428 25.5964 35.6722C25.5964 35.7026 25.5872 35.736 25.5844 35.7644C25.5816 35.7936 25.5898 35.8294 25.5836 35.8569C25.5771 35.8862 25.4799 35.8845 25.4676 35.9134C25.4645 35.9206 25.465 35.9294 25.4669 35.9389C25.4719 35.9649 25.4882 35.9957 25.4777 36.0145C25.4635 36.0399 25.4612 36.0752 25.4444 36.0983C25.4273 36.1219 25.3702 36.11 25.3501 36.1309C25.3295 36.1523 25.3534 36.2261 25.3287 36.2443C25.3052 36.2616 25.257 36.249 25.2318 36.266C25.2073 36.2826 25.1831 36.3024 25.1569 36.3168C25.1306 36.3311 25.0947 36.3145 25.0669 36.3253C25.0397 36.3358 25.0112 36.3163 24.9826 36.3221C24.9548 36.3277 24.9328 36.3477 24.9037 36.3477C24.8752 36.3477 24.8416 36.4211 24.8138 36.4172C24.7854 36.4132 24.7702 36.3386 24.7429 36.3309C24.7152 36.3232 24.6652 36.3785 24.6389 36.3674C24.612 36.3559 24.6261 36.2624 24.6009 36.2479C24.5755 36.2332 24.4987 36.2956 24.4755 36.2782C24.453 36.2612 24.4604 36.2058 24.4403 36.1864C24.4201 36.1671 24.357 36.1806 24.339 36.1598C24.3178 36.1353 24.3068 36.0945 24.291 36.064C24.2752 36.0336 24.2868 35.985 24.2739 35.9537C24.2702 35.9445 24.2695 35.9346 24.2698 35.9245C24.2706 35.8992 24.2792 35.8711 24.2725 35.8479C24.2627 35.8141 24.1935 35.7904 24.19 35.7538C24.1869 35.7216 24.2798 35.6836 24.2803 35.6508C24.2807 35.6207 24.2653 35.596 24.2694 35.5671C24.2736 35.5374 24.264 35.5093 24.2722 35.4812C24.2748 35.4722 24.2728 35.4615 24.269 35.4502C24.2606 35.4246 24.2434 35.3957 24.2523 35.3763C24.2647 35.3489 24.2921 35.3249 24.3078 35.2994C24.3239 35.2734 24.3791 35.2739 24.3984 35.2505C24.4172 35.2276 24.425 35.1982 24.4464 35.1779Z" fill="#EE9C05"/>
    <path fill-rule="evenodd" clip-rule="evenodd" d="M25.1231 35.5453C25.1231 35.5687 25.1311 35.5774 25.1202 35.5962C25.109 35.6157 25.1085 35.6328 25.089 35.6441C25.0701 35.655 25.0554 35.7099 25.032 35.7099C25.0086 35.7099 24.9758 35.6862 24.9569 35.6753C24.9375 35.664 24.9356 35.6269 24.9243 35.6075C24.9134 35.5886 24.9075 35.5687 24.9075 35.5453C24.9075 35.5219 24.9074 35.4985 24.9183 35.4797C24.9296 35.4602 24.9452 35.4399 24.9646 35.4287C24.9835 35.4177 25.0086 35.3789 25.032 35.3789C25.0554 35.3789 25.0591 35.4547 25.078 35.4656C25.0975 35.4769 25.1602 35.4453 25.1714 35.4648C25.1824 35.4837 25.1231 35.5219 25.1231 35.5453Z" fill="#EE9C05"/>
    <path fill-rule="evenodd" clip-rule="evenodd" d="M22.8492 38.4639C22.8492 38.5676 22.8107 38.6858 22.7976 38.7858C22.7843 38.8883 22.8158 39.0193 22.7897 39.1171C22.7631 39.2166 22.3758 39.1924 22.3369 39.2862C22.2975 39.3811 22.4509 39.5585 22.3999 39.6466C22.3486 39.7353 22.3442 39.8646 22.2821 39.9454C22.2197 40.0265 21.9979 39.966 21.9257 40.0382C21.8535 40.1105 21.9614 40.3939 21.8803 40.4563C21.7995 40.5184 21.6182 40.4532 21.5295 40.5045C21.4414 40.5555 21.355 40.6184 21.2602 40.6577C21.1664 40.6966 21.0333 40.6103 20.9338 40.6369C20.836 40.6631 20.7334 40.5712 20.631 40.5846C20.5309 40.5976 20.4551 40.6724 20.3515 40.6724C20.2478 40.6724 20.1238 40.9673 20.0238 40.9542C19.9214 40.9409 19.8715 40.6461 19.7736 40.6199C19.6742 40.5933 19.4854 40.8199 19.3916 40.781C19.2967 40.7417 19.3659 40.3748 19.2779 40.3238C19.1892 40.2725 18.8947 40.5297 18.8138 40.4675C18.7327 40.4052 18.771 40.1887 18.6988 40.1165C18.6266 40.0443 18.3803 40.1055 18.318 40.0244C18.2559 39.9435 18.23 39.8072 18.1787 39.7185C18.1277 39.6304 18.1829 39.4733 18.1435 39.3785C18.1046 39.2847 18.2068 39.1453 18.1802 39.0458C18.1541 38.948 17.8836 38.8928 17.8702 38.7904C17.8572 38.6904 18.2293 38.5676 18.2293 38.4639C18.2293 38.3603 18.1657 38.2777 18.1788 38.1776C18.1921 38.0752 18.1488 37.9784 18.1749 37.8806C18.2015 37.7811 18.0238 37.6096 18.0627 37.5158C18.102 37.4209 18.201 37.3398 18.252 37.2517C18.3033 37.163 18.51 37.1795 18.5721 37.0986C18.6345 37.0175 18.6523 36.9091 18.7245 36.8369C18.7967 36.7646 18.8569 36.684 18.938 36.6217C19.0188 36.5596 19.0081 36.3423 19.0968 36.291C19.1849 36.24 19.4153 36.4719 19.5102 36.4326C19.6039 36.3937 19.7041 36.4465 19.8036 36.4199C19.9014 36.3938 19.915 35.938 20.0174 35.9246C20.1175 35.9116 20.2478 36.0593 20.3515 36.0593C20.4551 36.0593 20.5601 36.1063 20.6601 36.1193C20.7626 36.1327 20.8914 36.0574 20.9892 36.0835C21.0887 36.1101 21.2077 36.1317 21.3015 36.1705C21.3964 36.2099 21.3211 36.5806 21.4091 36.6316C21.4979 36.6829 21.5981 36.6716 21.6789 36.7338C21.76 36.7961 21.8736 36.7974 21.9459 36.8696C22.0181 36.9418 22.3221 36.8227 22.3845 36.9038C22.4466 36.9847 22.4432 37.1379 22.4945 37.2266C22.5455 37.3146 22.4537 37.482 22.493 37.5769C22.5319 37.6707 22.5654 37.7641 22.5919 37.8635C22.6181 37.9613 22.6779 38.0534 22.6912 38.1558C22.7043 38.2559 22.8492 38.3603 22.8492 38.4639Z" fill="#7E7900"/>
    <path fill-rule="evenodd" clip-rule="evenodd" d="M19.2427 37.0853C19.2975 37.0308 19.3433 36.9698 19.4048 36.9225C19.4662 36.8753 19.459 36.7116 19.5264 36.6722C19.5935 36.6329 19.7674 36.8058 19.8397 36.7752C19.9107 36.7453 19.9867 36.7844 20.0619 36.7636C20.1367 36.743 20.1483 36.4 20.2265 36.3893C20.3025 36.3791 20.4012 36.4897 20.4798 36.4897C20.5593 36.4897 20.6393 36.5268 20.7155 36.5388C20.7931 36.551 20.8906 36.4968 20.9647 36.5189C21.0399 36.541 21.1301 36.5586 21.2009 36.5903C21.242 36.6087 21.2423 36.7065 21.2473 36.7944C21.251 36.8622 21.2577 36.9244 21.2878 36.9412C21.3562 36.9794 21.4334 36.9708 21.4963 37.017C21.5591 37.0633 21.6458 37.0644 21.7023 37.1177C21.7597 37.1717 21.9915 37.0818 22.0394 37.1446C22.0867 37.2064 22.0835 37.323 22.1211 37.3911C22.1582 37.4586 22.0884 37.5855 22.1166 37.6581C22.1446 37.7297 22.1686 37.801 22.1874 37.8769C22.2059 37.9515 22.2497 38.0219 22.2589 38.0999C22.2678 38.1763 22.3759 38.2559 22.3759 38.3348C22.3759 38.414 22.3471 38.5039 22.3375 38.5801C22.3276 38.6581 22.3515 38.7575 22.3319 38.8318C22.3121 38.9079 22.0214 38.8912 21.9914 38.9634C21.9832 38.9829 21.9857 39.007 21.9928 39.0331C22.0119 39.1035 22.065 39.1883 22.0368 39.2373C21.9978 39.3049 21.9941 39.4029 21.9471 39.4645C21.8998 39.5264 21.733 39.4821 21.6781 39.5372C21.6231 39.5925 21.703 39.8061 21.6407 39.8537C21.579 39.9009 21.4421 39.8531 21.3745 39.8931C21.3077 39.9325 21.242 39.9812 21.17 40.0122C21.0987 40.0429 20.998 39.9798 20.9224 40.0011C20.8482 40.022 20.7703 39.9544 20.6924 39.9652C20.6164 39.9757 20.5586 40.0322 20.4798 40.0322C20.4012 40.0322 20.3073 40.2533 20.2314 40.2433C20.1536 40.2331 20.1153 40.0116 20.041 39.9917C19.9654 39.9714 19.8229 40.1409 19.7516 40.1112C19.6794 40.0812 19.7303 39.8054 19.6631 39.7666C19.5955 39.7275 19.3736 39.9197 19.312 39.8725C19.2504 39.8253 19.2784 39.6625 19.2236 39.6079C19.1687 39.5533 18.9835 39.5986 18.9359 39.5376C18.8874 39.4755 18.8665 39.371 18.827 39.3017C18.7878 39.2329 18.8284 39.112 18.7979 39.0383C18.7891 39.017 18.7893 38.9928 18.7934 38.9673C18.8033 38.9055 18.8367 38.8359 18.8219 38.7812C18.8012 38.7048 18.5977 38.6601 18.5877 38.5796C18.5779 38.5022 18.857 38.4077 18.8572 38.3276C18.8573 38.2485 18.8098 38.1852 18.8199 38.1089C18.8302 38.0307 18.7981 37.9568 18.8182 37.8822C18.8246 37.8589 18.8165 37.8305 18.8032 37.8003C18.7731 37.7318 18.7158 37.6539 18.7368 37.604C18.7671 37.5316 18.8423 37.4696 18.8815 37.4023C18.9211 37.3345 19.0773 37.3457 19.1251 37.284C19.1729 37.2223 19.1874 37.1402 19.2427 37.0853Z" fill="#AF9300"/>
    <path fill-rule="evenodd" clip-rule="evenodd" d="M19.761 37.3357C19.7984 37.299 19.8296 37.2576 19.8715 37.2254C19.9136 37.1929 19.9099 37.0827 19.956 37.0554C20.0021 37.0278 20.1194 37.1414 20.1691 37.1197C20.2174 37.0987 20.2691 37.1242 20.3203 37.1093C20.372 37.0942 20.3815 36.8638 20.4356 36.856C20.4874 36.8485 20.5545 36.922 20.6081 36.922C20.6634 36.922 20.7184 36.9493 20.7708 36.9603C20.8236 36.9714 20.8896 36.9385 20.9401 36.9562C20.991 36.9741 21.0525 36.9877 21.1002 37.012C21.129 37.0266 21.1303 37.0946 21.1351 37.1541C21.1388 37.1999 21.1447 37.2415 21.1663 37.2528C21.2146 37.2779 21.2689 37.2718 21.3137 37.3022C21.3583 37.3324 21.418 37.3333 21.4588 37.3677C21.5015 37.4037 21.6609 37.3428 21.6943 37.3872C21.7268 37.4301 21.7238 37.51 21.7476 37.5577C21.7711 37.6045 21.7229 37.691 21.7402 37.7413C21.7571 37.7908 21.7717 37.8399 21.7828 37.8922C21.7936 37.9437 21.8216 37.9923 21.8265 38.0459C21.8314 38.0987 21.9025 38.1534 21.9025 38.2076C21.9025 38.2624 21.8836 38.3241 21.8773 38.3764C21.871 38.43 21.8869 38.4975 21.8741 38.5485C21.8609 38.6012 21.667 38.592 21.6458 38.6425C21.6402 38.6559 21.6417 38.6723 21.6462 38.6901C21.6583 38.7383 21.693 38.7961 21.6736 38.83C21.647 38.8765 21.644 38.9431 21.6121 38.9855C21.5799 39.0283 21.468 39.0001 21.4304 39.0382C21.3927 39.0765 21.4446 39.2202 21.401 39.2531C21.3585 39.2854 21.2659 39.2551 21.2196 39.2836C21.1738 39.3116 21.1289 39.346 21.0798 39.3686C21.0311 39.3911 20.9627 39.3512 20.911 39.3673C20.8603 39.383 20.8071 39.3394 20.7539 39.3477C20.702 39.3558 20.6621 39.3941 20.6081 39.3941C20.5546 39.3941 20.4908 39.5413 20.4389 39.5343C20.3859 39.5272 20.3591 39.3792 20.3083 39.3654C20.2567 39.3514 20.1604 39.4638 20.1117 39.4434C20.062 39.4227 20.0945 39.238 20.0484 39.2113C20.0019 39.1844 19.8525 39.3118 19.8101 39.2795C19.768 39.2474 19.7858 39.1382 19.7483 39.1013C19.7107 39.0643 19.5867 39.0937 19.5538 39.0528C19.519 39.0095 19.5031 38.9369 19.4754 38.887C19.4479 38.8374 19.474 38.7526 19.4523 38.7001C19.446 38.6849 19.4458 38.6678 19.448 38.65C19.4534 38.6065 19.4743 38.5576 19.4636 38.5187C19.4483 38.4635 19.312 38.4293 19.3052 38.3708C19.2988 38.316 19.4848 38.2498 19.4851 38.1933C19.4854 38.1387 19.4539 38.0947 19.461 38.0421C19.4683 37.9882 19.4474 37.9372 19.4616 37.8858C19.4661 37.8696 19.461 37.8501 19.4525 37.8294C19.4332 37.7823 19.396 37.7289 19.4109 37.6942C19.4323 37.6443 19.4836 37.6013 19.511 37.555C19.5389 37.508 19.6445 37.5139 19.6781 37.4713C19.7114 37.429 19.7226 37.3733 19.761 37.3357Z" fill="#EE9C05"/>
    <path fill-rule="evenodd" clip-rule="evenodd" d="M20.2792 37.5842C20.2992 37.5652 20.316 37.5435 20.3383 37.5262C20.3609 37.5087 20.3608 37.452 20.3856 37.4366C20.4108 37.4208 20.4715 37.4752 20.4986 37.4623C20.5241 37.4503 20.5516 37.4621 20.5786 37.4531C20.6074 37.4434 20.6148 37.3257 20.6447 37.3207C20.6724 37.3161 20.7078 37.3525 20.7364 37.3525C20.7676 37.3525 20.7976 37.3698 20.8261 37.3798C20.8541 37.3896 20.8887 37.378 20.9155 37.3916C20.9422 37.4051 20.9749 37.4151 20.9995 37.4317C21.0161 37.4428 21.0183 37.4807 21.0229 37.5118C21.0265 37.5357 21.0316 37.5566 21.0449 37.5624C21.0728 37.5746 21.1043 37.5709 21.1311 37.5854C21.1574 37.5995 21.1906 37.6002 21.2152 37.6158C21.2435 37.6337 21.3302 37.6019 21.3493 37.628C21.3669 37.652 21.3641 37.6951 21.3742 37.7222C21.3839 37.7484 21.3575 37.7945 21.3637 37.8225C21.3698 37.8498 21.375 37.8769 21.3782 37.9056C21.3814 37.9339 21.3934 37.9607 21.3941 37.99C21.3949 38.0191 21.4292 38.0491 21.4292 38.0784C21.4292 38.1089 21.42 38.1423 21.4172 38.1706C21.4143 38.1998 21.4226 38.2357 21.4164 38.2632C21.4098 38.2925 21.3126 38.2908 21.3003 38.3196C21.2972 38.3269 21.2977 38.3356 21.2996 38.3451C21.3047 38.3712 21.3209 38.402 21.3105 38.4208C21.2962 38.4461 21.2939 38.4814 21.2771 38.5045C21.26 38.5282 21.203 38.5162 21.1828 38.5372C21.1623 38.5585 21.1861 38.6323 21.1614 38.6506C21.138 38.6679 21.0898 38.6552 21.0646 38.6722C21.0401 38.6888 21.0158 38.7087 20.9896 38.723C20.9634 38.7373 20.9274 38.7207 20.8996 38.7315C20.8725 38.7421 20.844 38.7225 20.8154 38.7283C20.7875 38.7339 20.7656 38.754 20.7364 38.754C20.708 38.754 20.6743 38.8273 20.6465 38.8234C20.6182 38.8194 20.603 38.7448 20.5757 38.7372C20.548 38.7294 20.498 38.7848 20.4717 38.7736C20.4447 38.7622 20.4588 38.6687 20.4336 38.6541C20.4082 38.6394 20.3315 38.7018 20.3082 38.6844C20.2857 38.6675 20.2931 38.612 20.273 38.5927C20.2528 38.5733 20.1898 38.5869 20.1718 38.566C20.1506 38.5415 20.1396 38.5007 20.1238 38.4702C20.1079 38.4399 20.1196 38.3913 20.1067 38.3599C20.1029 38.3508 20.1022 38.3409 20.1025 38.3307C20.1033 38.3054 20.112 38.2774 20.1053 38.2542C20.0954 38.2204 20.0262 38.1966 20.0227 38.1601C20.0196 38.1278 20.1126 38.0899 20.1131 38.057C20.1135 38.027 20.098 38.0023 20.1021 37.9733C20.1063 37.9437 20.0967 37.9156 20.1049 37.8874C20.1076 37.8784 20.1055 37.8678 20.1018 37.8565C20.0933 37.8309 20.0762 37.802 20.085 37.7825C20.0975 37.7551 20.1249 37.7311 20.1406 37.7057C20.1566 37.6796 20.2119 37.6802 20.2311 37.6567C20.2499 37.6338 20.2578 37.6044 20.2792 37.5842Z" fill="#EE9C05"/>
    <path fill-rule="evenodd" clip-rule="evenodd" d="M20.9558 37.9516C20.9558 37.9749 20.9639 37.9836 20.9529 38.0025C20.9417 38.0219 20.9412 38.0391 20.9218 38.0503C20.9029 38.0613 20.8881 38.1162 20.8647 38.1162C20.8414 38.1162 20.8086 38.0925 20.7897 38.0816C20.7702 38.0703 20.7684 38.0332 20.7571 38.0137C20.7462 37.9949 20.7402 37.9749 20.7402 37.9516C20.7402 37.9282 20.7401 37.9048 20.7511 37.8859C20.7623 37.8665 20.7779 37.8462 20.7974 37.8349C20.8163 37.824 20.8414 37.7852 20.8647 37.7852C20.8881 37.7852 20.8918 37.861 20.9107 37.8719C20.9302 37.8832 20.9929 37.8516 21.0042 37.871C21.0151 37.8899 20.9558 37.9282 20.9558 37.9516Z" fill="#EE9C05"/>
    <path d="M12.6129 36.9929L2.24539 31.0332L0.11908 32.2608L10.4866 38.2206L12.6129 36.9929Z" fill="#592B7B"/>
    <path d="M0.11908 32.9033V32.2617L10.4866 38.2215V38.8631L0.11908 32.9033Z" fill="#B16060"/>
    <path d="M0.33462 32.1172L0.11908 32.2602L10.4866 38.22L10.7021 38.0769L0.33462 32.1172Z" fill="#F1B860"/>
    <path d="M12.6129 36.9922V37.6338L10.4866 38.8614V38.2198L12.6129 36.9922Z" fill="#562870"/>
    <path fill-rule="evenodd" clip-rule="evenodd" d="M4.1673 33.7081C4.1673 33.8117 4.20578 33.9299 4.21882 34.03C4.23219 34.1324 4.20066 34.2635 4.22683 34.3613C4.2534 34.4608 4.64071 34.4366 4.67961 34.5304C4.71894 34.6253 4.56559 34.8027 4.61656 34.8908C4.66788 34.9795 4.67227 35.1087 4.7344 35.1896C4.79673 35.2707 5.01852 35.2102 5.09074 35.2824C5.16298 35.3546 5.05503 35.6381 5.13615 35.7004C5.21702 35.7625 5.39825 35.6973 5.48695 35.7486C5.57503 35.7996 5.66147 35.8625 5.7563 35.9019C5.85011 35.9408 5.9832 35.8545 6.08265 35.8811C6.18046 35.9072 6.28312 35.8154 6.38551 35.8287C6.48558 35.8418 6.56138 35.9165 6.665 35.9165C6.76864 35.9165 6.89263 36.2114 6.9927 36.1984C7.09511 36.185 7.14502 35.8902 7.24283 35.8641C7.3423 35.8375 7.53111 36.0641 7.6249 36.0252C7.71977 35.9858 7.65051 35.6189 7.73862 35.5679C7.82731 35.5166 8.12179 35.7738 8.20265 35.7117C8.28376 35.6493 8.24543 35.4329 8.31766 35.3606C8.38988 35.2884 8.63618 35.3496 8.69851 35.2685C8.76064 35.1877 8.78649 35.0513 8.83781 34.9626C8.88878 34.8745 8.83362 34.7175 8.87296 34.6226C8.91184 34.5288 8.80969 34.3894 8.83629 34.29C8.86244 34.1921 9.13292 34.137 9.14628 34.0346C9.15933 33.9345 8.78719 33.8117 8.78719 33.7081C8.78719 33.6044 8.85074 33.5218 8.8377 33.4218C8.82434 33.3194 8.86773 33.2225 8.84159 33.1247C8.815 33.0253 8.9927 32.8537 8.9538 32.7599C8.91446 32.665 8.81546 32.5839 8.76449 32.4958C8.71317 32.4071 8.50649 32.4236 8.44436 32.3428C8.38201 32.2617 8.36421 32.1532 8.29198 32.081C8.21974 32.0088 8.15962 31.9281 8.0785 31.8658C7.99763 31.8037 8.00834 31.5865 7.91963 31.5352C7.83155 31.4842 7.60117 31.7161 7.50632 31.6768C7.41253 31.6379 7.31234 31.6906 7.21289 31.664C7.11508 31.6379 7.10149 31.1821 6.99909 31.1688C6.89902 31.1557 6.76864 31.3034 6.665 31.3034C6.56138 31.3034 6.45639 31.3504 6.35632 31.3635C6.25392 31.3768 6.12503 31.3015 6.02722 31.3277C5.92775 31.3543 5.80877 31.3758 5.71498 31.4147C5.62011 31.454 5.69544 31.8247 5.60732 31.8757C5.51863 31.927 5.41843 31.9158 5.33755 31.9779C5.25644 32.0403 5.14283 32.0415 5.07061 32.1137C4.9984 32.1859 4.69435 32.0669 4.63202 32.148C4.56989 32.2288 4.57331 32.382 4.52201 32.4707C4.47102 32.5588 4.56282 32.7262 4.52349 32.821C4.48459 32.9148 4.45115 33.0082 4.42455 33.1077C4.3984 33.2055 4.33857 33.2976 4.32521 33.4C4.31217 33.5001 4.1673 33.6044 4.1673 33.7081Z" fill="#7E7900"/>
    <path fill-rule="evenodd" clip-rule="evenodd" d="M7.77374 32.3295C7.71895 32.2749 7.67323 32.214 7.61172 32.1667C7.55028 32.1194 7.55744 31.9557 7.49006 31.9164C7.42294 31.8771 7.24908 32.0499 7.17684 32.0193C7.10577 31.9895 7.02984 32.0285 6.95454 32.0077C6.87977 31.9871 6.8682 31.6441 6.78998 31.6335C6.71401 31.6233 6.61531 31.7339 6.53666 31.7339C6.45721 31.7339 6.3772 31.771 6.30102 31.783C6.22336 31.7952 6.12592 31.741 6.0518 31.7631C5.97656 31.7851 5.88638 31.8028 5.8156 31.8344C5.77445 31.8528 5.77417 31.9507 5.76918 32.0385C5.76542 32.1063 5.75875 32.1686 5.72872 32.1853C5.66025 32.2236 5.58304 32.215 5.52015 32.2611C5.45738 32.3075 5.37071 32.3085 5.31415 32.3618C5.25675 32.4159 5.02496 32.3259 4.97708 32.3887C4.92977 32.4506 4.93298 32.5671 4.89542 32.6353C4.8582 32.7028 4.92809 32.8297 4.89988 32.9023C4.87184 32.9738 4.84794 33.0452 4.8291 33.121C4.81063 33.1957 4.76681 33.266 4.75761 33.344C4.7487 33.4205 4.64062 33.5 4.64062 33.5789C4.64062 33.6581 4.66936 33.7481 4.67899 33.8243C4.68884 33.9022 4.66504 34.0016 4.68456 34.076C4.70442 34.1521 4.99507 34.1354 5.02512 34.2075C5.03324 34.2271 5.03079 34.2511 5.02366 34.2773C5.00458 34.3476 4.95143 34.4324 4.97971 34.4815C5.01867 34.5491 5.02237 34.647 5.0694 34.7086C5.11663 34.7706 5.28352 34.7262 5.3384 34.7814C5.39336 34.8366 5.31346 35.0503 5.37577 35.0979C5.43749 35.1451 5.5744 35.0973 5.64193 35.1372C5.70884 35.1767 5.7745 35.2253 5.8465 35.2563C5.91774 35.287 6.01848 35.2239 6.09405 35.2453C6.1683 35.2662 6.24624 35.1985 6.32404 35.2093C6.40004 35.2199 6.45789 35.2764 6.53667 35.2764C6.61524 35.2764 6.70914 35.4974 6.78512 35.4875C6.86283 35.4772 6.90121 35.2558 6.97548 35.2358C7.05101 35.2155 7.19357 35.385 7.26485 35.3554C7.3371 35.3253 7.28624 35.0495 7.35335 35.0107C7.42095 34.9716 7.64286 35.1639 7.7045 35.1167C7.76608 35.0694 7.73808 34.9066 7.79292 34.852C7.8478 34.7974 8.03295 34.8427 8.08056 34.7817C8.12903 34.7197 8.14994 34.6152 8.18944 34.5459C8.22868 34.477 8.18804 34.3561 8.21854 34.2824C8.22738 34.2611 8.22718 34.2369 8.22306 34.2115C8.21319 34.1497 8.17982 34.0801 8.19458 34.0254C8.21529 33.9489 8.41875 33.9043 8.42877 33.8238C8.43856 33.7463 8.15945 33.6518 8.15926 33.5718C8.15915 33.4927 8.20663 33.4294 8.19657 33.353C8.18626 33.2749 8.21841 33.2009 8.19823 33.1263C8.19191 33.103 8.19994 33.0747 8.21326 33.0444C8.24339 32.976 8.30064 32.898 8.27969 32.8482C8.24934 32.7758 8.17417 32.7137 8.13499 32.6465C8.09539 32.5787 7.9392 32.5899 7.89136 32.5281C7.84355 32.4664 7.82908 32.3843 7.77374 32.3295Z" fill="#AF9300"/>
    <path fill-rule="evenodd" clip-rule="evenodd" d="M7.2555 32.5799C7.21807 32.5432 7.18683 32.5018 7.14494 32.4695C7.10291 32.4371 7.10656 32.3269 7.06047 32.2995C7.01432 32.272 6.89705 32.3855 6.84735 32.3639C6.79908 32.3429 6.74733 32.3684 6.69622 32.3534C6.64442 32.3383 6.63492 32.1079 6.5809 32.1001C6.52902 32.0927 6.46199 32.1662 6.40834 32.1662C6.35305 32.1662 6.29805 32.1935 6.24571 32.2044C6.1928 32.2155 6.12687 32.1826 6.07638 32.2004C6.02544 32.2182 5.96399 32.2318 5.91628 32.2561C5.88743 32.2708 5.88613 32.3387 5.88135 32.3982C5.87767 32.444 5.87179 32.4856 5.85012 32.4969C5.8019 32.5221 5.74755 32.516 5.70275 32.5463C5.65818 32.5765 5.59847 32.5775 5.55769 32.6119C5.51502 32.6479 5.35556 32.5869 5.32213 32.6314C5.28966 32.6743 5.29268 32.7542 5.26884 32.8018C5.24539 32.8487 5.29357 32.9351 5.27631 32.9854C5.25931 33.0349 5.24474 33.0841 5.23369 33.1363C5.22287 33.1878 5.19491 33.2364 5.18997 33.29C5.18509 33.3428 5.11395 33.3976 5.11395 33.4517C5.11395 33.5065 5.13291 33.5682 5.13914 33.6205C5.14548 33.6741 5.12952 33.7416 5.14233 33.7926C5.15557 33.8453 5.34943 33.8361 5.37064 33.8866C5.37623 33.9 5.37474 33.9164 5.37028 33.9342C5.35817 33.9824 5.32348 34.0402 5.34286 34.0742C5.36945 34.1206 5.37245 34.1873 5.40437 34.2296C5.43653 34.2724 5.54849 34.2443 5.58603 34.2823C5.62376 34.3207 5.57189 34.4644 5.61541 34.4972C5.65795 34.5296 5.75057 34.4993 5.79691 34.5278C5.84265 34.5557 5.88754 34.5901 5.9367 34.6127C5.9854 34.6353 6.05378 34.5953 6.10544 34.6114C6.15615 34.6272 6.20936 34.5836 6.26256 34.5919C6.31449 34.5999 6.35439 34.6382 6.40834 34.6382C6.46187 34.6382 6.52566 34.7854 6.57756 34.7785C6.63053 34.7714 6.65735 34.6233 6.70813 34.6095C6.75974 34.5955 6.85604 34.7079 6.90484 34.6875C6.95441 34.6668 6.92194 34.4822 6.96808 34.4555C7.01459 34.4286 7.16393 34.5559 7.20636 34.5236C7.24842 34.4915 7.23071 34.3824 7.26816 34.3454C7.30572 34.3084 7.42977 34.3378 7.46263 34.2969C7.49741 34.2536 7.51342 34.181 7.5411 34.1311C7.56861 34.0815 7.54246 33.9967 7.56417 33.9442C7.57045 33.929 7.57069 33.912 7.5685 33.8941C7.56311 33.8506 7.54216 33.8018 7.55288 33.7628C7.56815 33.7077 7.70444 33.6735 7.71125 33.615C7.71764 33.5601 7.53172 33.4939 7.53134 33.4374C7.53112 33.3829 7.56254 33.3389 7.55545 33.2862C7.54819 33.2323 7.56909 33.1813 7.55487 33.1299C7.55038 33.1138 7.55543 33.0942 7.56397 33.0735C7.58322 33.0264 7.62051 32.973 7.60557 32.9384C7.58421 32.8885 7.53289 32.8455 7.50545 32.7991C7.47759 32.7522 7.37192 32.758 7.33834 32.7155C7.30507 32.6731 7.29385 32.6174 7.2555 32.5799Z" fill="#EE9C05"/>
    <path fill-rule="evenodd" clip-rule="evenodd" d="M6.73734 32.8283C6.71728 32.8094 6.7005 32.7876 6.67823 32.7704C6.65559 32.7528 6.65568 32.6962 6.63095 32.6807C6.60576 32.6649 6.54505 32.7193 6.51793 32.7065C6.49238 32.6944 6.46489 32.7062 6.43794 32.6972C6.40915 32.6875 6.40171 32.5699 6.37186 32.5649C6.34412 32.5602 6.30871 32.5966 6.28006 32.5966C6.24893 32.5966 6.219 32.614 6.19047 32.6239C6.16238 32.6338 6.12789 32.6222 6.10101 32.6358C6.07438 32.6492 6.04166 32.6593 6.01696 32.6759C6.00042 32.687 5.99821 32.7248 5.9936 32.756C5.99005 32.7798 5.98493 32.8008 5.97158 32.8066C5.9437 32.8187 5.91222 32.8151 5.88541 32.8295C5.85916 32.8437 5.82597 32.8444 5.80129 32.86C5.77298 32.8779 5.68635 32.8461 5.66724 32.8722C5.64969 32.8961 5.65241 32.9392 5.64233 32.9664C5.63263 32.9926 5.659 33.0386 5.65276 33.0667C5.64671 33.0939 5.64154 33.1211 5.6383 33.1497C5.63511 33.178 5.62315 33.2049 5.6224 33.2341C5.62163 33.2632 5.58734 33.2932 5.58734 33.3226C5.58734 33.353 5.59655 33.3864 5.59936 33.4148C5.60221 33.444 5.59398 33.4798 5.60012 33.5073C5.6067 33.5366 5.70391 33.5349 5.7162 33.5638C5.71929 33.571 5.71878 33.5798 5.71692 33.5893C5.71188 33.6153 5.69556 33.6461 5.70606 33.6649C5.72029 33.6903 5.72259 33.7256 5.7394 33.7487C5.75649 33.7723 5.81354 33.7604 5.83371 33.7813C5.85422 33.8027 5.83041 33.8765 5.85509 33.8947C5.87854 33.912 5.92676 33.8994 5.95194 33.9164C5.97645 33.933 6.0007 33.9528 6.02692 33.9672C6.05315 33.9815 6.08912 33.9648 6.11688 33.9757C6.14404 33.9862 6.17255 33.9667 6.20113 33.9725C6.229 33.978 6.25096 33.9981 6.28006 33.9981C6.30853 33.9981 6.34222 34.0715 6.37002 34.0676C6.39833 34.0636 6.41359 33.989 6.44084 33.9813C6.46853 33.9736 6.51858 34.0289 6.54487 34.0178C6.57179 34.0063 6.55771 33.9128 6.58288 33.8983C6.6083 33.8836 6.68508 33.946 6.70829 33.9286C6.7308 33.9116 6.72339 33.8562 6.74349 33.8368C6.76371 33.8175 6.82674 33.831 6.84476 33.8102C6.86593 33.7857 6.87694 33.7449 6.8928 33.7144C6.90856 33.684 6.89696 33.6354 6.90984 33.6041C6.91358 33.5949 6.91429 33.585 6.91397 33.5749C6.91319 33.5495 6.90455 33.5215 6.91124 33.4983C6.92109 33.4645 6.99029 33.4407 6.99382 33.4042C6.99691 33.372 6.90395 33.3341 6.9035 33.3012C6.90306 33.2711 6.9185 33.2464 6.91441 33.2175C6.91017 33.1878 6.91981 33.1597 6.91157 33.1316C6.90893 33.1225 6.91101 33.1119 6.91473 33.1006C6.92321 33.075 6.94034 33.0461 6.93149 33.0267C6.91905 32.9993 6.89166 32.9753 6.87599 32.9498C6.85987 32.9238 6.80464 32.9243 6.78541 32.9009C6.76661 32.878 6.75874 32.8486 6.73734 32.8283Z" fill="#EE9C05"/>
    <path fill-rule="evenodd" clip-rule="evenodd" d="M6.06063 33.1957C6.06063 33.2191 6.05257 33.2278 6.0635 33.2466C6.07476 33.2661 6.07524 33.2832 6.0947 33.2945C6.11358 33.3054 6.12833 33.3603 6.1517 33.3603C6.17507 33.3603 6.2079 33.3366 6.22677 33.3257C6.24626 33.3144 6.24812 33.2773 6.25937 33.2579C6.2703 33.239 6.27625 33.2191 6.27625 33.1957C6.27625 33.1723 6.27632 33.1489 6.2654 33.1301C6.25412 33.1106 6.23853 33.0903 6.21907 33.0791C6.20018 33.0681 6.17507 33.0293 6.1517 33.0293C6.12833 33.0293 6.1246 33.1051 6.10573 33.116C6.08625 33.1273 6.02353 33.0957 6.01227 33.1152C6.00134 33.1341 6.06063 33.1723 6.06063 33.1957Z" fill="#EE9C05"/>
    <path fill-rule="evenodd" clip-rule="evenodd" d="M8.33459 36.1143C8.33459 36.2179 8.37306 36.3362 8.38611 36.4362C8.39944 36.5387 8.36795 36.6698 8.39407 36.7675C8.42067 36.867 8.80797 36.8428 8.84686 36.9366C8.88623 37.0315 8.73285 37.2089 8.78383 37.297C8.83517 37.3857 8.83954 37.515 8.90168 37.5958C8.96402 37.6769 9.18579 37.6164 9.25803 37.6886C9.33025 37.7609 9.22232 38.0444 9.30342 38.1067C9.38426 38.1688 9.56551 38.1036 9.65421 38.1549C9.74231 38.2058 9.82873 38.2688 9.92359 38.3081C10.0174 38.347 10.1505 38.2607 10.2499 38.2873C10.3477 38.3135 10.4504 38.2216 10.5528 38.235C10.6528 38.2481 10.7286 38.3228 10.8323 38.3228C10.9359 38.3228 11.0599 38.6177 11.16 38.6046C11.2624 38.5913 11.3123 38.2965 11.4101 38.2703C11.5096 38.2437 11.6984 38.4703 11.7922 38.4314C11.887 38.3921 11.8178 38.0252 11.9059 37.9742C11.9946 37.9228 12.2891 38.1801 12.3699 38.1179C12.451 38.0556 12.4127 37.8391 12.4849 37.7669C12.5572 37.6947 12.8034 37.7559 12.8658 37.6748C12.9279 37.5939 12.9538 37.4576 13.0051 37.3689C13.056 37.2808 13.0009 37.1237 13.0402 37.0289C13.0791 36.9351 12.977 36.7957 13.0035 36.6962C13.0297 36.5984 13.3002 36.5432 13.3135 36.4408C13.3266 36.3408 12.9545 36.2179 12.9545 36.1143C12.9545 36.0107 13.018 35.9281 13.005 35.828C12.9916 35.7256 13.035 35.6288 13.0089 35.531C12.9823 35.4315 13.16 35.26 13.1211 35.1662C13.0817 35.0713 12.9827 34.9902 12.9318 34.9021C12.8804 34.8134 12.6738 34.8299 12.6116 34.749C12.5493 34.6679 12.5315 34.5595 12.4592 34.4873C12.387 34.415 12.3269 34.3344 12.2458 34.2721C12.1649 34.2099 12.1756 33.9927 12.0869 33.9414C11.9988 33.8905 11.7685 34.1223 11.6736 34.083C11.5798 34.0441 11.4796 34.0969 11.3802 34.0703C11.2824 34.0442 11.2688 33.5884 11.1664 33.575C11.0663 33.562 10.9359 33.7097 10.8323 33.7097C10.7287 33.7097 10.6237 33.7567 10.5236 33.7697C10.4212 33.7831 10.2923 33.7078 10.1945 33.7339C10.095 33.7605 9.97604 33.7821 9.88225 33.821C9.78738 33.8603 9.86268 34.231 9.77461 34.282C9.68588 34.3333 9.58567 34.322 9.50483 34.3842C9.42371 34.4465 9.31012 34.4478 9.23788 34.52C9.16567 34.5922 8.86162 34.4731 8.79929 34.5542C8.73718 34.6351 8.74058 34.7883 8.68925 34.877C8.63829 34.965 8.73008 35.1324 8.69075 35.2273C8.65186 35.3211 8.61839 35.4145 8.59182 35.5139C8.56567 35.6117 8.50584 35.7038 8.49251 35.8062C8.47944 35.9063 8.33459 36.0107 8.33459 36.1143Z" fill="#7E7900"/>
    <path fill-rule="evenodd" clip-rule="evenodd" d="M11.941 34.7357C11.8863 34.6812 11.8405 34.6202 11.779 34.5729C11.7176 34.5257 11.7247 34.362 11.6573 34.3226C11.5902 34.2833 11.4164 34.4562 11.3441 34.4256C11.2731 34.3957 11.1971 34.4348 11.1219 34.414C11.0471 34.3934 11.0355 34.0504 10.9573 34.0397C10.8813 34.0295 10.7826 34.1401 10.704 34.1401C10.6245 34.1401 10.5445 34.1772 10.4683 34.1892C10.3906 34.2014 10.2932 34.1472 10.2191 34.1693C10.1438 34.1914 10.0537 34.209 9.98293 34.2407C9.94176 34.2591 9.94147 34.3569 9.93647 34.4448C9.93272 34.5126 9.92604 34.5748 9.89602 34.5916C9.82755 34.6298 9.75034 34.6212 9.68746 34.6674C9.62468 34.7137 9.53801 34.7148 9.48145 34.7681C9.42404 34.8221 9.19226 34.7322 9.14437 34.795C9.09706 34.8568 9.10027 34.9734 9.06272 35.0415C9.02551 35.109 9.09539 35.2359 9.0672 35.3085C9.03915 35.3801 9.01522 35.4514 8.9964 35.5273C8.97792 35.6019 8.93411 35.6723 8.92488 35.7503C8.916 35.8267 8.80792 35.9063 8.80792 35.9851C8.80792 36.0644 8.83665 36.1543 8.84629 36.2305C8.85613 36.3085 8.83231 36.4079 8.85186 36.4822C8.87172 36.5583 9.16236 36.5416 9.19241 36.6138C9.20054 36.6333 9.19809 36.6574 9.19096 36.6835C9.17189 36.7539 9.11872 36.8386 9.14701 36.8877C9.18598 36.9553 9.18964 37.0533 9.23669 37.1149C9.28393 37.1768 9.45081 37.1325 9.5057 37.1876C9.56069 37.2429 9.48076 37.4565 9.54309 37.5041C9.60476 37.5513 9.74172 37.5035 9.80923 37.5435C9.87613 37.5829 9.9418 37.6316 10.0138 37.6625C10.085 37.6933 10.1858 37.6302 10.2613 37.6515C10.3356 37.6724 10.4135 37.6047 10.4913 37.6156C10.5673 37.6261 10.6252 37.6826 10.704 37.6826C10.7825 37.6826 10.8764 37.9037 10.9524 37.8937C11.0301 37.8835 11.0685 37.662 11.1428 37.6421C11.2183 37.6218 11.3609 37.7913 11.4322 37.7616C11.5044 37.7316 11.4535 37.4558 11.5206 37.4169C11.5883 37.3778 11.8102 37.5701 11.8718 37.5229C11.9334 37.4757 11.9054 37.3129 11.9602 37.2583C12.0151 37.2037 12.2002 37.249 12.2479 37.188C12.2963 37.1259 12.3173 37.0214 12.3567 36.9521C12.396 36.8833 12.3553 36.7624 12.3859 36.6887C12.3947 36.6674 12.3945 36.6432 12.3904 36.6177C12.3805 36.5559 12.3471 36.4863 12.3619 36.4317C12.3826 36.3552 12.586 36.3105 12.5961 36.23C12.6058 36.1526 12.3267 36.0581 12.3266 35.978C12.3264 35.8989 12.3739 35.8356 12.3639 35.7593C12.3536 35.6811 12.3857 35.6072 12.3655 35.5326C12.3592 35.5093 12.3673 35.4809 12.3806 35.4507C12.4107 35.3822 12.4679 35.3043 12.447 35.2544C12.4166 35.182 12.3415 35.1199 12.3023 35.0527C12.2627 34.9849 12.1065 34.9961 12.0586 34.9344C12.0108 34.8727 11.9964 34.7906 11.941 34.7357Z" fill="#AF9300"/>
    <path fill-rule="evenodd" clip-rule="evenodd" d="M11.4228 34.9861C11.3853 34.9494 11.3541 34.908 11.3122 34.8758C11.2702 34.8433 11.2739 34.7331 11.2278 34.7058C11.1816 34.6782 11.0643 34.7918 11.0146 34.7701C10.9664 34.7491 10.9146 34.7746 10.8635 34.7597C10.8117 34.7446 10.8022 34.5142 10.7482 34.5064C10.6963 34.4989 10.6293 34.5724 10.5756 34.5724C10.5203 34.5724 10.4653 34.5997 10.413 34.6107C10.3601 34.6218 10.2942 34.5889 10.2437 34.6066C10.1927 34.6245 10.1313 34.6381 10.0835 34.6624C10.0547 34.677 10.0534 34.745 10.0487 34.8045C10.045 34.8503 10.0391 34.8919 10.0174 34.9032C9.96921 34.9283 9.91485 34.9222 9.87004 34.9526C9.82549 34.9827 9.76577 34.9837 9.72499 35.0181C9.68229 35.0541 9.52287 34.9932 9.48944 35.0376C9.45693 35.0805 9.45995 35.1604 9.43615 35.2081C9.41269 35.2549 9.46089 35.3414 9.4436 35.3917C9.42661 35.4412 9.41205 35.4903 9.40096 35.5426C9.39016 35.5941 9.36221 35.6427 9.35726 35.6963C9.35241 35.7491 9.28125 35.8038 9.28125 35.858C9.28125 35.9128 9.30021 35.9745 9.30642 36.0268C9.3128 36.0803 9.29682 36.1479 9.30963 36.1989C9.32287 36.2516 9.51673 36.2424 9.53792 36.2929C9.54353 36.3063 9.54204 36.3227 9.53756 36.3405C9.52544 36.3887 9.49075 36.4465 9.51017 36.4804C9.53675 36.5269 9.53975 36.5935 9.57166 36.6359C9.60383 36.6787 9.71581 36.6505 9.75331 36.6886C9.79107 36.7269 9.73917 36.8706 9.78272 36.9035C9.82525 36.9358 9.91787 36.9055 9.9642 36.934C10.01 36.962 10.0548 36.9963 10.104 37.0189C10.1527 37.0415 10.2211 37.0016 10.2727 37.0177C10.3235 37.0334 10.3767 36.9898 10.4299 36.9981C10.4818 37.0062 10.5217 37.0445 10.5756 37.0445C10.6291 37.0445 10.693 37.1917 10.7448 37.1847C10.7979 37.1776 10.8247 37.0296 10.8754 37.0158C10.927 37.0018 11.0233 37.1142 11.0721 37.0938C11.1217 37.0731 11.0892 36.8884 11.1354 36.8617C11.1819 36.8348 11.3312 36.9621 11.3737 36.9298C11.4157 36.8978 11.398 36.7886 11.4355 36.7517C11.473 36.7146 11.597 36.7441 11.6299 36.7032C11.6647 36.6599 11.6807 36.5873 11.7084 36.5374C11.7359 36.4877 11.7098 36.403 11.7315 36.3505C11.7377 36.3353 11.738 36.3182 11.7358 36.3004C11.7304 36.2568 11.7095 36.208 11.7202 36.1691C11.7355 36.1139 11.8717 36.0797 11.8785 36.0212C11.8849 35.9664 11.699 35.9002 11.6986 35.8437C11.6984 35.7891 11.7298 35.7451 11.7228 35.6925C11.7155 35.6386 11.7364 35.5876 11.7222 35.5362C11.7177 35.52 11.7227 35.5005 11.7313 35.4798C11.7505 35.4327 11.7878 35.3793 11.7729 35.3446C11.7515 35.2947 11.7002 35.2517 11.6727 35.2054C11.6449 35.1584 11.5392 35.1643 11.5056 35.1217C11.4724 35.0794 11.4611 35.0237 11.4228 34.9861Z" fill="#EE9C05"/>
    <path fill-rule="evenodd" clip-rule="evenodd" d="M10.9046 35.2346C10.8845 35.2156 10.8677 35.1939 10.8455 35.1766C10.8228 35.1591 10.8229 35.1024 10.7982 35.087C10.773 35.0712 10.7123 35.1256 10.6852 35.1127C10.6596 35.1007 10.6321 35.1125 10.6052 35.1034C10.5764 35.0938 10.5689 34.9761 10.5391 34.9711C10.5113 34.9665 10.476 35.0029 10.4473 35.0029C10.4162 35.0029 10.3862 35.0202 10.3577 35.0302C10.3296 35.04 10.2951 35.0284 10.2683 35.042C10.2416 35.0554 10.2089 35.0655 10.1842 35.0821C10.1677 35.0932 10.1655 35.1311 10.1608 35.1622C10.1573 35.1861 10.1522 35.207 10.1388 35.2128C10.1109 35.225 10.0795 35.2213 10.0526 35.2358C10.0264 35.2499 9.99318 35.2506 9.96852 35.2662C9.94024 35.2841 9.85359 35.2523 9.83448 35.2784C9.81691 35.3024 9.81963 35.3455 9.80958 35.3726C9.79986 35.3988 9.82623 35.4449 9.82001 35.4729C9.81394 35.5002 9.80878 35.5273 9.80553 35.556C9.80232 35.5843 9.7904 35.6111 9.78963 35.6404C9.78888 35.6695 9.75458 35.6995 9.75458 35.7288C9.75458 35.7593 9.76378 35.7927 9.76658 35.821C9.76945 35.8502 9.76121 35.8861 9.76738 35.9136C9.77394 35.9429 9.87115 35.9412 9.88344 35.97C9.88652 35.9773 9.88602 35.986 9.88418 35.9955C9.87909 36.0216 9.86282 36.0524 9.8733 36.0712C9.88756 36.0965 9.88983 36.1318 9.90666 36.1549C9.92375 36.1786 9.98078 36.1666 10.001 36.1876C10.0214 36.2089 9.99766 36.2827 10.0224 36.301C10.0458 36.3183 10.094 36.3056 10.1192 36.3226C10.1437 36.3392 10.1679 36.3591 10.1942 36.3734C10.2204 36.3877 10.2564 36.3711 10.2841 36.3819C10.3113 36.3925 10.3398 36.3729 10.3684 36.3787C10.3962 36.3843 10.4182 36.4044 10.4473 36.4044C10.4758 36.4044 10.5095 36.4777 10.5373 36.4738C10.5656 36.4698 10.5808 36.3952 10.6081 36.3876C10.6358 36.3798 10.6858 36.4352 10.7121 36.424C10.7391 36.4126 10.7249 36.3191 10.7501 36.3045C10.7755 36.2898 10.8523 36.3522 10.8755 36.3348C10.8981 36.3179 10.8906 36.2624 10.9107 36.2431C10.931 36.2237 10.994 36.2373 11.012 36.2164C11.0332 36.1919 11.0442 36.1511 11.06 36.1206C11.0758 36.0903 11.0642 36.0417 11.0771 36.0103C11.0808 36.0012 11.0815 35.9913 11.0812 35.9811C11.0804 35.9558 11.0718 35.9278 11.0785 35.9046C11.0883 35.8708 11.1575 35.847 11.161 35.8105C11.1642 35.7782 11.0712 35.7403 11.0707 35.7074C11.0703 35.6774 11.0857 35.6527 11.0816 35.6237C11.0774 35.5941 11.087 35.566 11.0788 35.5378C11.0761 35.5288 11.0782 35.5182 11.082 35.5069C11.0904 35.4812 11.1076 35.4524 11.0987 35.4329C11.0863 35.4055 11.0589 35.3815 11.0432 35.3561C11.0271 35.33 10.9719 35.3306 10.9526 35.3071C10.9338 35.2842 10.926 35.2548 10.9046 35.2346Z" fill="#EE9C05"/>
    <path fill-rule="evenodd" clip-rule="evenodd" d="M10.2279 35.602C10.2279 35.6253 10.2199 35.634 10.2308 35.6529C10.2421 35.6723 10.2425 35.6895 10.262 35.7007C10.2809 35.7117 10.2956 35.7665 10.319 35.7665C10.3424 35.7665 10.3752 35.7429 10.3941 35.7319C10.4135 35.7207 10.4154 35.6836 10.4266 35.6641C10.4376 35.6452 10.4436 35.6253 10.4436 35.602C10.4436 35.5786 10.4436 35.5552 10.4327 35.5363C10.4214 35.5168 10.4058 35.4966 10.3863 35.4853C10.3675 35.4744 10.3424 35.4355 10.319 35.4355C10.2956 35.4355 10.2919 35.5113 10.273 35.5223C10.2536 35.5335 10.1908 35.5019 10.1796 35.5214C10.1686 35.5403 10.2279 35.5786 10.2279 35.602Z" fill="#EE9C05"/>
    <path fill-rule="evenodd" clip-rule="evenodd" d="M0 31.3018C0 31.4054 0.0384811 31.5237 0.0515251 31.6237C0.0648941 31.7261 0.0333654 31.8572 0.0595284 31.9551C0.0861033 32.0545 0.473416 32.0303 0.51231 32.1241C0.551641 32.219 0.398292 32.3964 0.449266 32.4845C0.500578 32.5732 0.504969 32.7025 0.567099 32.7833C0.629429 32.8644 0.851236 32.8039 0.923446 32.8761C0.995681 32.9483 0.887729 33.2319 0.968855 33.2942C1.04972 33.3563 1.23096 33.2911 1.31965 33.3424C1.40773 33.3933 1.49417 33.4563 1.589 33.4956C1.68281 33.5345 1.8159 33.4482 1.91535 33.4748C2.01317 33.501 2.11582 33.4091 2.21821 33.4225C2.31829 33.4355 2.39408 33.5103 2.4977 33.5103C2.60134 33.5103 2.72533 33.8052 2.8254 33.7921C2.92781 33.7788 2.97772 33.484 3.07553 33.4578C3.17501 33.4312 3.36381 33.6578 3.45761 33.6189C3.55248 33.5796 3.48322 33.2126 3.57132 33.1617C3.66003 33.1103 3.95449 33.3676 4.03535 33.3054C4.11646 33.2431 4.07813 33.0266 4.15036 32.9544C4.22259 32.8822 4.46888 32.9434 4.53121 32.8623C4.59334 32.7814 4.61919 32.6451 4.67052 32.5564C4.72148 32.4683 4.66633 32.3112 4.70566 32.2163C4.74454 32.1226 4.6424 31.9832 4.66899 31.8837C4.69514 31.7859 4.96562 31.7307 4.97898 31.6283C4.99203 31.5283 4.61989 31.4054 4.61989 31.3018C4.61989 31.1982 4.68345 31.1156 4.6704 31.0155C4.65705 30.9131 4.70043 30.8163 4.67429 30.7185C4.64772 30.619 4.82542 30.4474 4.7865 30.3537C4.74717 30.2588 4.64817 30.1777 4.59721 30.0896C4.54587 30.0009 4.33919 30.0174 4.27706 29.9365C4.21471 29.8554 4.19691 29.747 4.12468 29.6748C4.05245 29.6025 3.99233 29.5219 3.9112 29.4596C3.83033 29.3974 3.84104 29.1802 3.75233 29.1289C3.66425 29.078 3.43388 29.3098 3.33902 29.2705C3.24523 29.2316 3.14505 29.2844 3.04559 29.2578C2.94778 29.2316 2.93419 28.7759 2.8318 28.7625C2.73172 28.7495 2.60134 28.8972 2.4977 28.8972C2.39408 28.8972 2.28909 28.9442 2.18902 28.9572C2.08662 28.9706 1.95773 28.8953 1.85993 28.9214C1.76046 28.948 1.64148 28.9695 1.54768 29.0084C1.45281 29.0478 1.52814 29.4185 1.44002 29.4695C1.35133 29.5208 1.25113 29.5096 1.17025 29.5717C1.08914 29.634 0.975532 29.6352 0.90331 29.7075C0.8311 29.7797 0.527054 29.6606 0.464724 29.7417C0.402594 29.8226 0.406008 29.9758 0.354708 30.0645C0.303721 30.1526 0.395515 30.3199 0.356184 30.4148C0.31729 30.5086 0.283849 30.6019 0.257249 30.7014C0.231099 30.7992 0.17127 30.8913 0.157914 30.9937C0.14487 31.0938 0 31.1982 0 31.3018Z" fill="#7E7900"/>
    <path fill-rule="evenodd" clip-rule="evenodd" d="M3.60645 29.9232C3.55166 29.8687 3.50593 29.8077 3.44442 29.7604C3.38298 29.7132 3.39015 29.5494 3.32278 29.5101C3.25566 29.4708 3.08179 29.6436 3.00954 29.6131C2.93848 29.5832 2.86255 29.6223 2.78724 29.6015C2.71247 29.5809 2.70091 29.2379 2.62268 29.2272C2.54673 29.217 2.44802 29.3276 2.36937 29.3276C2.28992 29.3276 2.2099 29.3647 2.13373 29.3767C2.05607 29.3889 1.95862 29.3347 1.88451 29.3568C1.80926 29.3789 1.71908 29.3965 1.64831 29.4282C1.60715 29.4466 1.60687 29.5444 1.60188 29.6322C1.59813 29.7001 1.59145 29.7623 1.56143 29.7791C1.49296 29.8173 1.41576 29.8087 1.35285 29.8549C1.29008 29.9012 1.20342 29.9023 1.14685 29.9556C1.08946 30.0097 0.857663 29.9197 0.809777 29.9825C0.762467 30.0443 0.765682 30.1609 0.728126 30.229C0.690908 30.2965 0.760791 30.4234 0.732577 30.496C0.704538 30.5676 0.680639 30.6389 0.661805 30.7148C0.643334 30.7894 0.599512 30.8598 0.590308 30.9378C0.581404 31.0142 0.473328 31.0938 0.473328 31.1726C0.473328 31.2519 0.502067 31.3418 0.511697 31.418C0.521539 31.496 0.49774 31.5953 0.517262 31.6697C0.537122 31.7458 0.827773 31.7291 0.857825 31.8013C0.865941 31.8208 0.86349 31.8449 0.856362 31.871C0.837278 31.9414 0.78414 32.0262 0.812416 32.0753C0.851385 32.1428 0.855075 32.2408 0.902098 32.3024C0.949333 32.3643 1.11623 32.32 1.1711 32.3751C1.22607 32.4304 1.14617 32.644 1.20848 32.6916C1.27019 32.7388 1.40712 32.691 1.47464 32.731C1.54156 32.7704 1.60721 32.8191 1.6792 32.8501C1.75046 32.8808 1.85118 32.8177 1.92677 32.839C2.001 32.86 2.07894 32.7922 2.15674 32.8031C2.23274 32.8136 2.29059 32.8701 2.36937 32.8701C2.44794 32.8701 2.54185 33.0912 2.61782 33.0812C2.69554 33.071 2.7339 32.8495 2.80818 32.8296C2.88373 32.8093 3.02627 32.9788 3.09756 32.9491C3.1698 32.9191 3.11895 32.6433 3.18605 32.6044C3.25366 32.5653 3.47556 32.7576 3.53721 32.7104C3.59879 32.6632 3.57078 32.5004 3.62562 32.4458C3.68051 32.3912 3.86566 32.4365 3.91326 32.3755C3.96174 32.3134 3.98265 32.2089 4.02215 32.1396C4.06138 32.0708 4.02074 31.9499 4.05125 31.8762C4.0601 31.8549 4.05988 31.8307 4.05576 31.8052C4.0459 31.7434 4.01252 31.6738 4.02728 31.6192C4.048 31.5427 4.25145 31.498 4.26147 31.4175C4.27126 31.3401 3.99215 31.2456 3.99196 31.1655C3.99186 31.0864 4.03934 31.0231 4.02927 30.9468C4.01896 30.8686 4.05112 30.7947 4.03093 30.7201C4.02462 30.6968 4.03266 30.6684 4.04596 30.6382C4.07609 30.5697 4.13334 30.4918 4.1124 30.4419C4.08204 30.3695 4.00687 30.3075 3.96769 30.2402C3.92809 30.1724 3.77191 30.1836 3.72406 30.1219C3.67625 30.0602 3.66178 29.9781 3.60645 29.9232Z" fill="#AF9300"/>
    <path fill-rule="evenodd" clip-rule="evenodd" d="M3.08821 30.1736C3.05077 30.1369 3.01953 30.0955 2.97765 30.0632C2.93561 30.0308 2.93927 29.9206 2.89317 29.8932C2.84702 29.8657 2.72976 29.9793 2.68005 29.9576C2.63178 29.9366 2.58003 29.9621 2.52892 29.9472C2.47712 29.9321 2.46763 29.7017 2.4136 29.6939C2.36172 29.6864 2.29469 29.7599 2.24104 29.7599C2.18575 29.7599 2.13075 29.7872 2.07841 29.7982C2.02551 29.8093 1.95958 29.7764 1.90908 29.7941C1.85815 29.812 1.79669 29.8256 1.74898 29.8499C1.72013 29.8645 1.71883 29.9325 1.71405 29.9919C1.71037 30.0378 1.7045 30.0794 1.68282 30.0907C1.6346 30.1158 1.58025 30.1097 1.53545 30.14C1.49088 30.1702 1.43118 30.1712 1.3904 30.2056C1.34772 30.2416 1.18826 30.1807 1.15483 30.2251C1.12236 30.268 1.12538 30.3479 1.10154 30.3955C1.07809 30.4424 1.12628 30.5289 1.10901 30.5792C1.09203 30.6287 1.07744 30.6778 1.06639 30.7301C1.05557 30.7816 1.02761 30.8301 1.02267 30.8838C1.01779 30.9366 0.946655 30.9913 0.946655 31.0454C0.946655 31.1003 0.965614 31.162 0.971855 31.2142C0.978183 31.2678 0.962225 31.3354 0.975032 31.3863C0.988276 31.4391 1.18214 31.4299 1.20335 31.4804C1.20894 31.4938 1.20744 31.5102 1.20298 31.528C1.19087 31.5762 1.15618 31.634 1.17557 31.6679C1.20217 31.7144 1.20516 31.781 1.23707 31.8234C1.26925 31.8662 1.38119 31.838 1.41874 31.8761C1.45647 31.9144 1.4046 32.0581 1.44811 32.091C1.49066 32.1233 1.58328 32.093 1.62961 32.1215C1.67536 32.1495 1.72024 32.1838 1.7694 32.2064C1.8181 32.229 1.88649 32.1891 1.93815 32.2052C1.98886 32.2209 2.04206 32.1773 2.09526 32.1856C2.1472 32.1937 2.18709 32.232 2.24104 32.232C2.29457 32.232 2.35836 32.3792 2.41026 32.3722C2.46324 32.3651 2.49006 32.2171 2.54085 32.2033C2.59245 32.1893 2.68875 32.3017 2.73755 32.2813C2.78712 32.2606 2.75464 32.0759 2.80079 32.0492C2.8473 32.0223 2.99663 32.1496 3.03907 32.1173C3.08112 32.0852 3.06342 31.9761 3.10087 31.9392C3.13843 31.9022 3.26247 31.9316 3.29534 31.8907C3.33012 31.8474 3.34613 31.7747 3.3738 31.7248C3.40132 31.6752 3.37517 31.5905 3.39688 31.538C3.40316 31.5228 3.40339 31.5057 3.4012 31.4879C3.39581 31.4444 3.37487 31.3955 3.38558 31.3566C3.40085 31.3014 3.53714 31.2672 3.54396 31.2087C3.55035 31.1538 3.36444 31.0877 3.36405 31.0312C3.36382 30.9766 3.39525 30.9326 3.38816 30.88C3.38089 30.8261 3.40179 30.7751 3.38757 30.7237C3.38308 30.7075 3.38815 30.688 3.39668 30.6673C3.41592 30.6202 3.45322 30.5668 3.43827 30.5321C3.41691 30.4822 3.3656 30.4392 3.33816 30.3929C3.3103 30.3459 3.20462 30.3518 3.17104 30.3092C3.13778 30.2669 3.12655 30.2112 3.08821 30.1736Z" fill="#EE9C05"/>
    <path fill-rule="evenodd" clip-rule="evenodd" d="M2.57005 30.4221C2.54999 30.4031 2.5332 30.3814 2.51093 30.3641C2.4883 30.3466 2.48838 30.2899 2.46365 30.2745C2.43846 30.2587 2.37776 30.313 2.35063 30.3002C2.32508 30.2882 2.29759 30.3 2.27064 30.291C2.24185 30.2813 2.23442 30.1636 2.20457 30.1586C2.17682 30.1539 2.14142 30.1904 2.11276 30.1904C2.08164 30.1904 2.0517 30.2077 2.02318 30.2177C1.99508 30.2276 1.96059 30.2159 1.93372 30.2295C1.90708 30.243 1.87436 30.2531 1.84966 30.2696C1.83312 30.2807 1.83092 30.3186 1.8263 30.3497C1.82275 30.3735 1.81763 30.3945 1.80429 30.4003C1.7764 30.4125 1.74492 30.4089 1.71811 30.4233C1.69186 30.4374 1.65867 30.4381 1.63401 30.4537C1.60568 30.4716 1.51905 30.4398 1.49994 30.4659C1.4824 30.4899 1.48511 30.5329 1.47503 30.5601C1.46533 30.5863 1.49172 30.6324 1.48546 30.6604C1.47941 30.6877 1.47424 30.7148 1.47102 30.7434C1.46782 30.7718 1.45585 30.7986 1.4551 30.8279C1.45434 30.857 1.42004 30.887 1.42004 30.9163C1.42004 30.9468 1.42925 30.9802 1.43206 31.0086C1.43491 31.0377 1.4267 31.0735 1.43283 31.1011C1.4394 31.1304 1.53661 31.1287 1.54891 31.1575C1.55199 31.1648 1.55148 31.1735 1.54962 31.183C1.54458 31.209 1.52827 31.2399 1.53878 31.2587C1.55301 31.284 1.5553 31.3194 1.5721 31.3424C1.58919 31.3661 1.64624 31.3541 1.66641 31.3751C1.68692 31.3965 1.66311 31.4703 1.68781 31.4885C1.71125 31.5058 1.75946 31.4931 1.78465 31.5101C1.80917 31.5267 1.83341 31.5466 1.85962 31.5609C1.88586 31.5752 1.92182 31.5586 1.9496 31.5694C1.97674 31.58 2.00525 31.5605 2.03383 31.5662C2.0617 31.5718 2.08366 31.5919 2.11277 31.5919C2.14123 31.5919 2.17492 31.6652 2.20272 31.6613C2.23104 31.6573 2.24629 31.5827 2.27356 31.5751C2.30123 31.5673 2.35128 31.6227 2.37757 31.6115C2.40449 31.6001 2.39041 31.5066 2.41559 31.492C2.441 31.4773 2.51779 31.5397 2.541 31.5223C2.56351 31.5054 2.55609 31.4499 2.57619 31.4306C2.59641 31.4112 2.65944 31.4248 2.67746 31.4039C2.69864 31.3794 2.70964 31.3386 2.7255 31.3082C2.74126 31.2778 2.72966 31.2292 2.74255 31.1978C2.74628 31.1887 2.747 31.1788 2.74667 31.1686C2.74591 31.1433 2.73727 31.1153 2.74395 31.0921C2.7538 31.0583 2.823 31.0345 2.82652 30.9979C2.82961 30.9657 2.73666 30.9278 2.7362 30.8949C2.73577 30.8649 2.7512 30.8402 2.74711 30.8112C2.74287 30.7816 2.75251 30.7535 2.74428 30.7253C2.74163 30.7163 2.74371 30.7057 2.74743 30.6944C2.75591 30.6687 2.77305 30.6399 2.76419 30.6204C2.75175 30.593 2.72436 30.569 2.70869 30.5436C2.69258 30.5175 2.63734 30.5181 2.61811 30.4946C2.59931 30.4717 2.59145 30.4423 2.57005 30.4221Z" fill="#EE9C05"/>
    <path fill-rule="evenodd" clip-rule="evenodd" d="M1.89339 30.7895C1.89339 30.8129 1.88534 30.8215 1.89626 30.8404C1.90752 30.8599 1.908 30.877 1.92746 30.8882C1.94636 30.8991 1.96109 30.9541 1.98446 30.9541C2.00785 30.9541 2.04068 30.9304 2.05955 30.9194C2.07902 30.9082 2.08088 30.8711 2.09214 30.8516C2.10306 30.8327 2.10901 30.8129 2.10901 30.7895C2.10901 30.7661 2.10908 30.7427 2.09817 30.7238C2.08689 30.7043 2.07129 30.6841 2.05183 30.6728C2.03295 30.6619 2.00785 30.623 1.98446 30.623C1.96109 30.623 1.95736 30.6988 1.93849 30.7098C1.91902 30.721 1.85629 30.6895 1.84503 30.7089C1.83411 30.7278 1.89339 30.7661 1.89339 30.7895Z" fill="#EE9C05"/>
    <path d="M37.1674 28.5484L39.6159 27.2129L41.7423 28.4405L39.2937 29.7761L37.1674 28.5484Z" fill="#592B7B"/>
    <path d="M41.7423 29.083V28.4414L39.2937 29.777V30.4186L41.7423 29.083Z" fill="#B16060"/>
    <path d="M41.5267 28.2969L41.7422 28.4399L39.2937 29.7755L39.0781 29.6325L41.5267 28.2969Z" fill="#F1B860"/>
    <path d="M37.1674 28.5469V29.1885L39.2937 30.4161V29.7745L37.1674 28.5469Z" fill="#562870"/>
    <path fill-rule="evenodd" clip-rule="evenodd" d="M41.4457 27.669C41.4457 27.7726 41.4072 27.8908 41.3941 27.9909C41.3808 28.0933 41.4123 28.2244 41.3862 28.3222C41.3596 28.4217 40.9723 28.3975 40.9334 28.4913C40.894 28.5862 41.0474 28.7636 40.9964 28.8517C40.9451 28.9404 40.9407 29.0697 40.8786 29.1505C40.8162 29.2316 40.5944 29.1711 40.5222 29.2433C40.45 29.3155 40.5579 29.599 40.4768 29.6614C40.396 29.7235 40.2147 29.6582 40.126 29.7096C40.0379 29.7605 39.9515 29.8235 39.8567 29.8628C39.7629 29.9017 39.6298 29.8154 39.5303 29.842C39.4325 29.8681 39.3299 29.7763 39.2274 29.7897C39.1274 29.8027 39.0516 29.8774 38.9479 29.8774C38.8443 29.8774 38.7203 30.1724 38.6203 30.1593C38.5178 30.146 38.4679 29.8511 38.3701 29.825C38.2707 29.7984 38.0818 30.025 37.9881 29.9861C37.8932 29.9468 37.9624 29.5798 37.8744 29.5289C37.7857 29.4775 37.4912 29.7347 37.4103 29.6726C37.3292 29.6103 37.3675 29.3938 37.2953 29.3216C37.2231 29.2493 36.9768 29.3105 36.9145 29.2294C36.8523 29.1486 36.8265 29.0123 36.7752 28.9236C36.7242 28.8355 36.7794 28.6784 36.74 28.5835C36.7011 28.4898 36.8033 28.3503 36.7767 28.2509C36.7505 28.1531 36.4801 28.0979 36.4667 27.9955C36.4537 27.8954 36.8258 27.7726 36.8258 27.669C36.8258 27.5654 36.7622 27.4828 36.7753 27.3827C36.7886 27.2803 36.7452 27.1835 36.7714 27.0857C36.798 26.9862 36.6203 26.8146 36.6592 26.7208C36.6985 26.626 36.7975 26.5448 36.8485 26.4567C36.8998 26.368 37.1065 26.3846 37.1686 26.3037C37.2309 26.2226 37.2488 26.1142 37.321 26.042C37.3932 25.9697 37.4534 25.8891 37.5345 25.8268C37.6153 25.7646 37.6046 25.5474 37.6933 25.4961C37.7814 25.4451 38.0118 25.677 38.1067 25.6377C38.2004 25.5988 38.3006 25.6516 38.4001 25.625C38.4979 25.5988 38.5115 25.1431 38.6139 25.1297C38.7139 25.1167 38.8443 25.2644 38.948 25.2644C39.0516 25.2644 39.1566 25.3113 39.2566 25.3244C39.359 25.3378 39.4879 25.2625 39.5857 25.2886C39.6852 25.3152 39.8042 25.3367 39.898 25.3756C39.9928 25.415 39.9176 25.7856 40.0056 25.8366C40.0943 25.8879 40.1946 25.8767 40.2754 25.9389C40.3565 26.0012 40.4701 26.0024 40.5423 26.0747C40.6146 26.1469 40.9186 26.0278 40.981 26.1089C41.0431 26.1898 41.0396 26.343 41.091 26.4316C41.142 26.5197 41.0501 26.6871 41.0895 26.782C41.1284 26.8757 41.1618 26.9691 41.1884 27.0686C41.2146 27.1664 41.2744 27.2585 41.2877 27.3609C41.3008 27.461 41.4457 27.5654 41.4457 27.669Z" fill="#7E7900"/>
    <path fill-rule="evenodd" clip-rule="evenodd" d="M37.8392 26.2904C37.894 26.2359 37.9397 26.1749 38.0012 26.1276C38.0626 26.0803 38.0555 25.9166 38.1229 25.8773C38.19 25.838 38.3638 26.0108 38.4361 25.9803C38.5072 25.9504 38.5831 25.9895 38.6584 25.9687C38.7332 25.9481 38.7447 25.605 38.8229 25.5944C38.8989 25.5842 38.9976 25.6948 39.0763 25.6948C39.1557 25.6948 39.2357 25.7319 39.3119 25.7439C39.3896 25.7561 39.487 25.7019 39.5611 25.724C39.6364 25.7461 39.7265 25.7637 39.7973 25.7953C39.8385 25.8138 39.8387 25.9116 39.8437 25.9994C39.8475 26.0672 39.8542 26.1295 39.8842 26.1463C39.9527 26.1845 40.0299 26.1759 40.0928 26.2221C40.1556 26.2684 40.2422 26.2695 40.2988 26.3227C40.3562 26.3768 40.588 26.2868 40.6359 26.3496C40.6832 26.4115 40.6799 26.528 40.7175 26.5962C40.7547 26.6637 40.6848 26.7906 40.713 26.8632C40.7411 26.9348 40.765 27.0061 40.7838 27.082C40.8023 27.1566 40.8461 27.2269 40.8554 27.305C40.8642 27.3814 40.9723 27.461 40.9723 27.5398C40.9723 27.6191 40.9436 27.709 40.9339 27.7852C40.9241 27.8632 40.9479 27.9625 40.9284 28.0369C40.9085 28.113 40.6179 28.0963 40.5878 28.1685C40.5797 28.188 40.5821 28.2121 40.5893 28.2382C40.6083 28.3086 40.6615 28.3933 40.6332 28.4424C40.5943 28.51 40.5906 28.608 40.5435 28.6695C40.4963 28.7315 40.3294 28.6872 40.2745 28.7423C40.2195 28.7976 40.2995 29.0112 40.2371 29.0588C40.1755 29.106 40.0385 29.0582 39.971 29.0982C39.9041 29.1376 39.8384 29.1863 39.7664 29.2172C39.6952 29.248 39.5944 29.1849 39.5189 29.2062C39.4446 29.2271 39.3667 29.1594 39.2889 29.1702C39.2129 29.1808 39.155 29.2373 39.0762 29.2373C38.9977 29.2373 38.9038 29.4584 38.8278 29.4484C38.7501 29.4382 38.7118 29.2167 38.6374 29.1968C38.5619 29.1764 38.4193 29.346 38.3481 29.3163C38.2758 29.2863 38.3267 29.0105 38.2596 28.9716C38.192 28.9325 37.9701 29.1248 37.9084 29.0776C37.8468 29.0304 37.8749 28.8676 37.82 28.813C37.7651 28.7583 37.58 28.8037 37.5324 28.7426C37.4839 28.6806 37.463 28.5761 37.4235 28.5068C37.3842 28.438 37.4249 28.3171 37.3944 28.2434C37.3855 28.222 37.3857 28.1979 37.3899 28.1724C37.3997 28.1106 37.4331 28.041 37.4183 27.9863C37.3976 27.9099 37.1942 27.8652 37.1841 27.7847C37.1744 27.7072 37.4535 27.6128 37.4537 27.5327C37.4538 27.4536 37.4063 27.3903 37.4164 27.3139C37.4267 27.2358 37.3945 27.1619 37.4147 27.0873C37.421 27.0639 37.413 27.0356 37.3997 27.0054C37.3695 26.9369 37.3123 26.8589 37.3332 26.8091C37.3636 26.7367 37.4387 26.6746 37.478 26.6074C37.5175 26.5396 37.6737 26.5508 37.7216 26.4891C37.7694 26.4274 37.7839 26.3452 37.8392 26.2904Z" fill="#AF9300"/>
    <path fill-rule="evenodd" clip-rule="evenodd" d="M38.3575 26.5408C38.3949 26.5041 38.4261 26.4627 38.468 26.4304C38.5101 26.398 38.5064 26.2878 38.5525 26.2604C38.5986 26.2329 38.7159 26.3465 38.7656 26.3248C38.8139 26.3038 38.8656 26.3293 38.9167 26.3144C38.9685 26.2993 38.978 26.0689 39.0321 26.0611C39.0839 26.0536 39.151 26.1271 39.2046 26.1271C39.2599 26.1271 39.3149 26.1544 39.3672 26.1654C39.4201 26.1764 39.4861 26.1436 39.5366 26.1613C39.5875 26.1792 39.649 26.1927 39.6967 26.2171C39.7255 26.2317 39.7268 26.2997 39.7316 26.3592C39.7353 26.4049 39.7412 26.4466 39.7628 26.4579C39.811 26.483 39.8654 26.4769 39.9102 26.5072C39.9548 26.5374 40.0145 26.5384 40.0553 26.5728C40.098 26.6088 40.2574 26.5479 40.2908 26.5923C40.3233 26.6352 40.3203 26.7151 40.3441 26.7627C40.3676 26.8096 40.3194 26.8961 40.3367 26.9464C40.3536 26.9958 40.3682 27.045 40.3793 27.0973C40.3901 27.1488 40.418 27.1973 40.423 27.251C40.4279 27.3037 40.499 27.3585 40.499 27.4126C40.499 27.4675 40.48 27.5291 40.4738 27.5814C40.4675 27.635 40.4834 27.7026 40.4706 27.7535C40.4574 27.8063 40.2635 27.7971 40.2423 27.8475C40.2367 27.8609 40.2382 27.8774 40.2427 27.8952C40.2548 27.9434 40.2895 28.0012 40.2701 28.0351C40.2435 28.0816 40.2405 28.1482 40.2086 28.1906C40.1764 28.2334 40.0645 28.2052 40.0269 28.2432C39.9892 28.2816 40.0411 28.4253 39.9975 28.4582C39.955 28.4905 39.8624 28.4602 39.8161 28.4887C39.7703 28.5167 39.7254 28.551 39.6763 28.5736C39.6276 28.5962 39.5592 28.5563 39.5075 28.5724C39.4568 28.5881 39.4036 28.5445 39.3504 28.5528C39.2985 28.5609 39.2586 28.5992 39.2046 28.5992C39.1511 28.5992 39.0873 28.7463 39.0354 28.7394C38.9824 28.7323 38.9556 28.5843 38.9048 28.5705C38.8532 28.5565 38.7569 28.6689 38.7081 28.6485C38.6585 28.6278 38.691 28.4431 38.6449 28.4164C38.5984 28.3895 38.449 28.5168 38.4066 28.4845C38.3645 28.4524 38.3823 28.3433 38.3448 28.3063C38.3072 28.2693 38.1832 28.2988 38.1503 28.2579C38.1155 28.2146 38.0995 28.1419 38.0719 28.092C38.0444 28.0424 38.0705 27.9577 38.0488 27.9051C38.0425 27.8899 38.0423 27.8729 38.0445 27.8551C38.0498 27.8115 38.0708 27.7627 38.0601 27.7238C38.0448 27.6686 37.9085 27.6344 37.9017 27.5759C37.8953 27.521 38.0813 27.4548 38.0816 27.3984C38.0818 27.3438 38.0504 27.2998 38.0575 27.2471C38.0648 27.1933 38.0439 27.1423 38.0581 27.0909C38.0626 27.0747 38.0575 27.0552 38.049 27.0344C38.0297 26.9874 37.9925 26.934 38.0074 26.8993C38.0287 26.8494 38.0801 26.8064 38.1075 26.7601C38.1353 26.7131 38.241 26.719 38.2746 26.6764C38.3079 26.6341 38.3191 26.5784 38.3575 26.5408Z" fill="#EE9C05"/>
    <path fill-rule="evenodd" clip-rule="evenodd" d="M38.8757 26.7893C38.8957 26.7703 38.9125 26.7486 38.9348 26.7313C38.9574 26.7138 38.9573 26.6571 38.9821 26.6416C39.0073 26.6259 39.0679 26.6802 39.0951 26.6674C39.1206 26.6554 39.1481 26.6672 39.1751 26.6581C39.2039 26.6485 39.2113 26.5308 39.2412 26.5258C39.2689 26.5211 39.3043 26.5575 39.3329 26.5575C39.3641 26.5575 39.394 26.5749 39.4226 26.5849C39.4506 26.5947 39.4851 26.5831 39.512 26.5967C39.5386 26.6101 39.5714 26.6202 39.596 26.6368C39.6126 26.6479 39.6148 26.6858 39.6194 26.7169C39.623 26.7407 39.6281 26.7617 39.6414 26.7675C39.6693 26.7797 39.7008 26.776 39.7276 26.7905C39.7538 26.8046 39.7871 26.8053 39.8117 26.8209C39.84 26.8388 39.9267 26.807 39.9458 26.8331C39.9633 26.857 39.9606 26.9001 39.9707 26.9273C39.9804 26.9535 39.954 26.9995 39.9602 27.0276C39.9663 27.0549 39.9715 27.082 39.9747 27.1106C39.9779 27.1389 39.9898 27.1658 39.9906 27.195C39.9914 27.2242 40.0257 27.2542 40.0257 27.2835C40.0257 27.314 40.0165 27.3473 40.0137 27.3757C40.0108 27.4049 40.019 27.4407 40.0129 27.4683C40.0063 27.4976 39.9091 27.4958 39.8968 27.5247C39.8937 27.5319 39.8942 27.5407 39.8961 27.5502C39.9012 27.5762 39.9174 27.6071 39.9069 27.6259C39.8927 27.6512 39.8904 27.6865 39.8736 27.7096C39.8565 27.7333 39.7995 27.7213 39.7793 27.7422C39.7588 27.7636 39.7826 27.8374 39.7579 27.8557C39.7345 27.873 39.6863 27.8603 39.6611 27.8773C39.6366 27.8939 39.6123 27.9138 39.5861 27.9281C39.5599 27.9424 39.5239 27.9258 39.4961 27.9366C39.469 27.9471 39.4405 27.9276 39.4119 27.9334C39.384 27.939 39.3621 27.9591 39.3329 27.9591C39.3045 27.9591 39.2708 28.0324 39.243 28.0285C39.2147 28.0245 39.1994 27.9499 39.1722 27.9422C39.1445 27.9345 39.0944 27.9898 39.0682 27.9787C39.0412 27.9673 39.0553 27.8738 39.0301 27.8592C39.0047 27.8445 38.928 27.9069 38.9047 27.8895C38.8822 27.8725 38.8896 27.8171 38.8695 27.7978C38.8493 27.7784 38.7863 27.7919 38.7683 27.7711C38.7471 27.7466 38.7361 27.7058 38.7202 27.6753C38.7044 27.645 38.716 27.5963 38.7032 27.565C38.6994 27.5559 38.6987 27.546 38.699 27.5358C38.6998 27.5105 38.7085 27.4825 38.7018 27.4593C38.6919 27.4254 38.6227 27.4017 38.6192 27.3651C38.6161 27.3329 38.7091 27.295 38.7095 27.2621C38.71 27.2321 38.6945 27.2073 38.6986 27.1784C38.7028 27.1488 38.6932 27.1207 38.7014 27.0925C38.7041 27.0835 38.702 27.0729 38.6983 27.0616C38.6898 27.0359 38.6727 27.0071 38.6815 26.9876C38.694 26.9602 38.7214 26.9362 38.737 26.9107C38.7531 26.8847 38.8084 26.8853 38.8276 26.8618C38.8464 26.8389 38.8543 26.8095 38.8757 26.7893Z" fill="#EE9C05"/>
    <path fill-rule="evenodd" clip-rule="evenodd" d="M39.5523 27.1567C39.5523 27.18 39.5604 27.1887 39.5494 27.2076C39.5382 27.227 39.5377 27.2441 39.5182 27.2554C39.4993 27.2663 39.4846 27.3212 39.4612 27.3212C39.4379 27.3212 39.405 27.2976 39.3862 27.2866C39.3667 27.2754 39.3648 27.2383 39.3536 27.2188C39.3426 27.1999 39.3367 27.18 39.3367 27.1567C39.3367 27.1333 39.3366 27.1099 39.3475 27.091C39.3588 27.0715 39.3744 27.0513 39.3939 27.04C39.4127 27.0291 39.4379 26.9902 39.4612 26.9902C39.4846 26.9902 39.4883 27.066 39.5072 27.077C39.5267 27.0882 39.5894 27.0566 39.6007 27.0761C39.6116 27.095 39.5523 27.1333 39.5523 27.1567Z" fill="#EE9C05"/>
    <path d="M13.6423 32.3079V28.3943L11.5637 27.1758V31.0895L13.6423 32.3079Z" fill="#1A1346"/>
    <mask id="mask9_4546_25071" style="mask-type:luminance" maskUnits="userSpaceOnUse" x="11" y="27" width="3" height="6">
      <path d="M13.6423 32.3079V28.3943L11.5637 27.1758V31.0895L13.6423 32.3079Z" fill="white"/>
    </mask>
    <g mask="url(#mask9_4546_25071)">
      <path d="M12.6298 26.6562H12.2764V33.0436H12.6298V26.6562Z" fill="#CFBBD8"/>
      <path d="M12.6298 26.6562H12.4531V33.0436H12.6298V26.6562Z" fill="#B18FBF"/>
      <path d="M15.631 30.7587L15.5648 30.8698L10.0197 27.6189L10.086 27.5078L15.631 30.7587Z" fill="#CFBBD8"/>
      <path d="M15.631 32.0458L15.5648 32.1569L10.0197 28.906L10.086 28.7949L15.631 32.0458Z" fill="#CFBBD8"/>
    </g>
    <path d="M8.67676 29.3821V25.528L6.59814 24.3281V28.1822L8.67676 29.3821Z" fill="#1A1346"/>
    <mask id="mask10_4546_25071" style="mask-type:luminance" maskUnits="userSpaceOnUse" x="6" y="24" width="3" height="6">
      <path d="M8.67676 29.3821V25.528L6.59814 24.3281V28.1822L8.67676 29.3821Z" fill="white"/>
    </mask>
    <g mask="url(#mask10_4546_25071)">
      <path d="M7.73705 23.8281H7.38373V30.1182H7.73705V23.8281Z" fill="#CFBBD8"/>
      <path d="M7.73705 23.8281H7.56036V30.1182H7.73705V23.8281Z" fill="#B18FBF"/>
      <path d="M10.6655 27.8557L10.5992 27.9651L5.05414 24.7637L5.12038 24.6543L10.6655 27.8557Z" fill="#CFBBD8"/>
      <path d="M10.6655 29.1233L10.5992 29.2327L5.05414 26.0313L5.12038 25.9219L10.6655 29.1233Z" fill="#CFBBD8"/>
    </g>
  </g>
</svg>