<svg xmlns="http://www.w3.org/2000/svg" width="48" height="48" viewBox="0 0 48 48" fill="none">
  <path d="M24 48C37.2548 48 48 37.2548 48 24C48 10.7452 37.2548 0 24 0C10.7452 0 0 10.7452 0 24C0 37.2548 10.7452 48 24 48Z" fill="#BCAACE"/>
  <mask id="mask0_4546_24768" style="mask-type:luminance" maskUnits="userSpaceOnUse" x="0" y="0" width="48" height="48">
    <path d="M24 48C37.2548 48 48 37.2548 48 24C48 10.7452 37.2548 0 24 0C10.7452 0 0 10.7452 0 24C0 37.2548 10.7452 48 24 48Z" fill="white"/>
  </mask>
  <g mask="url(#mask0_4546_24768)">
    <path d="M-7.85254 39.1602L-4.63457 57.897L-3.23184 59.0662L0.316177 62.0226L3.45168 59.7948L5.10193 64.2505L19.8717 72.6668L21.9345 69.4488L31.5093 73.7493L31.671 73.8219L41.9851 73.1618L50.7314 67.3859L57.415 64.9931L65.6929 57.5798L66.3956 57.7155L67.6036 56.2971L71.9372 53.0407L74 39.1602H-7.85254Z" fill="#3C1D82"/>
    <path d="M-7.85254 39.1602L-4.63457 57.897L-3.23184 59.0662L0.316178 62.0226L3.45168 59.7948L5.10193 64.2505L19.8717 72.6668L21.9345 69.4488L31.5093 73.7493C31.718 73.4812 31.836 73.3268 31.836 73.3268L32.5787 54.0124L22.2233 39.1602H-7.85254Z" fill="#512084"/>
    <path d="M-6.03741 42.8727L-4.6347 57.8965L-3.23196 59.0657V46.0082L5.01929 43.3678L-2.07679 39.3008L-6.03741 42.8727Z" fill="#3C1D82"/>
    <path d="M-6.0018 42.9087L0.151176 43.9459L-3.23184 46.0087L0.0372925 47.805L11.415 54.0587L11.8242 54.2831L14.7081 55.8682L17.934 54.8326L18.7432 54.8236L20.0936 53.9654L21.6969 57.2709L22.1152 57.5267L32.4136 63.8315L48.3386 57.148L47.926 53.3524L60.2204 55.7452L68.0591 49.8043L63.7684 46.9989L71.9372 45.3486C71.9372 45.3486 74 41.3303 74 39.1602C74 39.0364 73.9967 38.9127 73.9901 38.7889C73.9323 37.656 73.6105 36.5503 73.0486 35.4826C72.6509 34.726 72.1327 33.9883 71.5032 33.2729C70.7366 32.4016 69.805 31.5632 68.7233 30.7645C67.1374 29.5945 65.2297 28.5095 63.0506 27.5317C56.7144 24.6883 48.0836 22.7476 38.3867 22.2228C36.6473 22.1288 34.8741 22.0801 33.0737 22.0801C32.2478 22.0801 31.4276 22.09 30.6132 22.1106C19.087 22.3953 8.8447 24.6718 1.83277 28.1266C-0.50895 29.2801 -2.49089 30.5649 -4.03965 31.9519C-6.27081 33.9487 -7.60421 36.1559 -7.82122 38.4828C-7.84183 38.7072 -7.85254 38.9333 -7.85254 39.1602C-7.85254 40.3277 -6.0018 42.9087 -6.0018 42.9087Z" fill="#A089BC"/>
    <path d="M-6.00179 42.9084L0.151181 43.9456L-3.23183 46.0084L14.7081 55.8678L18.6071 55.6901L21.6969 57.2705L32.4136 63.8311L48.3386 57.1476L47.926 53.352L60.2204 55.7449L68.0591 49.804L63.7684 46.9985L71.9372 45.3483C71.9372 45.3483 74 41.3299 74 39.1598C74 39.0361 73.9967 38.9123 73.9901 38.7885L71.6897 44.7707L62.3657 46.6685L66.9039 49.804L60.1379 54.9198L46.8533 52.3619L47.596 56.8176L32.5787 62.841L22.4296 56.9826L18.7432 54.8233L14.6734 55.0023L-1.91164 45.9259L1.47138 43.6155L-5.4011 42.4488C-5.4011 42.4488 -7.2032 40.5766 -7.82122 38.4824C-7.84183 38.7069 -7.85254 38.933 -7.85254 39.1598C-7.85254 40.3274 -6.00179 42.9084 -6.00179 42.9084Z" fill="white"/>
    <path d="M55.5458 39.9599L45.9823 34.4384C44.8522 33.7859 44.9939 32.6462 46.2989 31.8928C47.6038 31.1394 49.5779 31.0575 50.708 31.71L60.2715 37.2315C61.4016 37.884 61.2599 39.0237 59.9549 39.7771C58.65 40.5305 56.6759 40.6124 55.5458 39.9599Z" fill="#673192"/>
    <path d="M59.9546 39.7785C58.6496 40.5319 56.6756 40.6137 55.5455 39.9612L45.982 34.4398C45.4901 34.1558 45.2397 33.7794 45.2207 33.3828V38.2174C45.2209 38.2255 45.2203 38.2337 45.2207 38.2418C45.2303 38.6474 45.48 39.0334 45.982 39.3232L55.5455 44.8447C56.6756 45.4972 58.6496 45.4153 59.9546 44.6619C60.6916 44.2364 61.0571 43.6878 61.0325 43.1733V38.3143C61.0445 38.8217 60.6799 39.3597 59.9546 39.7785Z" fill="url(#paint0_linear_4546_24768)"/>
    <path d="M42.7997 39.8489L46.2017 37.8848L49.6037 39.8489L46.2017 41.8319L42.7997 39.8489Z" fill="#673192"/>
    <path d="M46.2014 41.8306L46.2279 47.4821L49.6034 45.5275V39.8477L46.2014 41.8306Z" fill="#62468B"/>
    <path d="M42.7997 39.8477L46.2017 41.8306L46.2282 47.4821L42.7997 45.512V39.8477Z" fill="#673192"/>
    <path d="M40.4729 42.3404C40.692 42.3796 40.9033 42.2324 40.9424 42.0134L41.3407 39.757C41.3799 39.538 41.2327 39.3267 41.0136 39.2876C40.7946 39.2484 40.5833 39.3956 40.5442 39.6146L40.1459 41.8709C40.1067 42.09 40.2539 42.3013 40.4729 42.3404Z" fill="#EE9D05"/>
    <path d="M38.6641 42.4841C38.7309 42.6963 38.9592 42.8153 39.1714 42.7486L40.5676 42.3415C40.7896 42.3272 40.9596 42.1338 40.9453 41.9118C40.931 41.6897 40.7376 41.5197 40.5156 41.534L38.9286 41.9767C38.7163 42.0435 38.5973 42.2718 38.6641 42.4841Z" fill="#EE9D05"/>
    <path d="M41.9915 48.6255L42.0218 44.8906L43.2565 45.2909L43.0448 45.8995C43.0448 45.8995 43.1404 46.7128 42.8888 47.5363C42.8888 47.5363 42.7126 47.8957 42.7475 48.7325C42.7475 48.7325 42.2941 48.9903 41.9915 48.6255Z" fill="#EE9D05"/>
    <path d="M41.672 48.1949C41.6773 48.2487 41.6341 48.2951 41.5626 48.3406C41.5421 48.3537 41.5653 48.0502 41.4947 48.1008C41.4743 48.1155 40.4996 48.8745 39.9554 48.7343C39.8951 48.7188 39.8758 48.6633 39.8741 48.6173L39.8742 48.4949C39.8666 48.3568 40.0719 48.1464 40.3838 47.8425C40.7273 47.5077 40.9464 47.2987 41.4599 47.5952C41.6067 47.6799 41.6656 47.7433 41.6663 47.7974L41.672 48.1949Z" fill="#010400"/>
    <path d="M40.3838 47.8425C39.9688 48.2469 39.7423 48.4859 39.9555 48.609C40.1687 48.7321 40.5946 48.5468 41.0317 48.2165C41.4144 47.9273 41.9736 47.8917 41.46 47.5952C40.9465 47.2987 40.7274 47.5077 40.3838 47.8425Z" fill="#855F96"/>
    <path d="M40.8009 47.649L40.8312 43.9141L42.066 44.3143L41.8542 44.9229C41.8542 44.9229 41.9498 45.7363 41.6982 46.5597C41.6982 46.5597 41.5221 46.9191 41.5569 47.756C41.5569 47.756 41.1035 48.0138 40.8009 47.649Z" fill="#EC9706"/>
    <path d="M43.6935 44.0204V45.3996C43.6935 45.3996 42.0774 45.9452 40.5583 44.0204V42.6855L43.6935 44.0204Z" fill="#F0CDA8"/>
    <path d="M42.9248 44.5523C42.9098 44.5618 42.8925 44.5679 42.8731 44.5695C42.6021 44.5904 41.6284 44.3783 40.6541 43.2804C40.5739 43.19 40.5221 43.0673 40.5221 42.9646V39.849C40.5221 39.6141 40.606 39.4494 40.7409 39.3734L41.4735 38.9461C41.6067 38.8667 41.7917 38.8762 41.9955 38.9938L42.9945 39.5707C43.398 39.8036 43.728 40.3753 43.728 40.8411V43.975C43.728 44.048 43.7019 44.1015 43.6574 44.125L42.9248 44.5523Z" fill="#62468B"/>
    <path d="M42.6415 39.7637C42.643 39.8411 42.5928 39.9189 42.4905 39.978C42.2888 40.0945 41.9617 40.0945 41.7599 39.978C41.6576 39.9189 41.6074 39.8411 41.6089 39.7637V39.0848C41.6074 39.0074 41.6576 38.9297 41.7599 38.8706C41.9617 38.7541 42.2888 38.7541 42.4905 38.8706C42.5928 38.9297 42.643 39.0074 42.6415 39.0848V39.7637Z" fill="#E9910A"/>
    <path d="M42.6008 38.8017C42.6008 38.9713 42.7198 39.0401 42.8667 38.9552C43.0136 38.8704 43.1327 38.6642 43.1327 38.4946C43.1327 38.3249 43.0136 38.2562 42.8667 38.341C42.7198 38.4258 42.6008 38.6321 42.6008 38.8017Z" fill="#EE9D05"/>
    <path d="M41.2148 40.6313C41.2148 40.6313 39.8395 39.3809 40.6783 37.1562L41.3227 39.4654L41.2148 40.6313Z" fill="#EE9D05"/>
    <path d="M42.133 39.4149C42.9185 39.4149 43.5553 38.7781 43.5553 37.9926C43.5553 37.2071 42.9185 36.5703 42.133 36.5703C41.3475 36.5703 40.7107 37.2071 40.7107 37.9926C40.7107 38.7781 41.3475 39.4149 42.133 39.4149Z" fill="#EE9D05"/>
    <path d="M41.7113 40.6307C41.7113 40.6307 42.7692 39.4648 42.0351 37.3059L40.7182 37.7593C40.7182 37.7593 40.2648 36.6366 41.7545 36.3128C41.7545 36.3128 42.7476 36.0969 43.093 36.9173C43.093 36.9173 43.8918 36.982 43.5896 38.6228C43.5896 38.6228 43.5464 40.1773 41.7113 40.6307Z" fill="#EE9D05"/>
    <path d="M42.6459 43.2511C42.8603 43.3109 43.0845 43.1844 43.1442 42.97L43.7703 40.6381C43.83 40.4237 43.7035 40.1995 43.4891 40.1398C43.2748 40.0801 43.0505 40.2066 42.9908 40.421L42.3647 42.7529C42.305 42.9672 42.4315 43.1914 42.6459 43.2511Z" fill="#EE9D05"/>
    <path d="M40.375 43.3329C40.4214 43.5505 40.6374 43.6906 40.8551 43.6442L42.7389 43.2619C42.9613 43.2687 43.1488 43.0923 43.1556 42.8698C43.1623 42.6474 42.9859 42.4599 42.7635 42.4531L40.6864 42.8528C40.4687 42.8992 40.3286 43.1152 40.375 43.3329Z" fill="#EE9D05"/>
    <path d="M40.2367 48.8192L30.6732 43.2978C29.5431 42.6453 29.6848 41.5056 30.9898 40.7522C32.2948 39.9987 34.2688 39.9169 35.3989 40.5694L44.9624 46.0909C46.0925 46.7433 45.9508 47.8831 44.6458 48.6365C43.3409 49.3899 41.3668 49.4717 40.2367 48.8192Z" fill="#673192"/>
    <path d="M44.6455 48.6378C43.3406 49.3913 41.3665 49.4731 40.2364 48.8206L30.6729 43.2992C30.181 43.0151 29.9306 42.6388 29.9116 42.2422V47.0768C29.9118 47.0849 29.9113 47.0931 29.9116 47.1012C29.9213 47.5067 30.171 47.8928 30.6729 48.1826L40.2364 53.7041C41.3665 54.3565 43.3406 54.2747 44.6455 53.5213C45.3825 53.0958 45.748 52.5472 45.7234 52.0327V47.1737C45.7354 47.6811 45.3709 48.2191 44.6455 48.6378Z" fill="url(#paint1_linear_4546_24768)"/>
    <path d="M35.5124 44.2865L38.6476 46.0906L41.0525 44.7794L37.8436 42.9434L35.5124 44.2865Z" fill="url(#paint2_linear_4546_24768)"/>
    <path d="M36.097 43.9643L39.2323 45.7683L41.6372 44.4572L38.4283 42.6211L36.097 43.9643Z" fill="#62468B"/>
    <path d="M36.098 43.964L35.6049 40.8203L38.7274 42.6208L39.2333 45.768L36.098 43.964Z" fill="url(#paint3_linear_4546_24768)"/>
    <path d="M39.5398 46.5975L41.5254 47.7439L43.5109 46.5975L41.5253 45.4512L39.5398 46.5975Z" fill="url(#paint4_linear_4546_24768)"/>
    <path d="M41.5251 47.7421L43.5106 46.5957V46.8079L41.5251 47.9542L41.522 47.9525V47.7403L41.5251 47.7421Z" fill="url(#paint5_linear_4546_24768)"/>
    <path d="M39.5395 46.5957L41.522 47.7403V47.9525L39.5395 46.8079V46.5957Z" fill="url(#paint6_linear_4546_24768)"/>
    <path d="M40.2104 46.6406L41.5445 47.4109L41.4907 47.442L40.1565 46.6718L40.2104 46.6406Z" fill="#673192"/>
    <path d="M40.7276 46.7988L41.6665 47.3409L41.6126 47.3721L40.6736 46.83L40.7276 46.7988Z" fill="#673192"/>
    <path d="M40.5564 46.5605L41.7877 47.2714L41.7338 47.3025L40.5025 46.5917L40.5564 46.5605Z" fill="#673192"/>
    <path d="M40.5752 46.4297L41.9093 47.2L41.8554 47.2311L40.5212 46.4608L40.5752 46.4297Z" fill="#673192"/>
    <path d="M41.5421 46.8477L42.0309 47.1299L41.977 47.161L41.4882 46.8788L41.5421 46.8477Z" fill="#673192"/>
    <path d="M40.9794 46.2031L42.3135 46.9734L42.2596 47.0045L40.9255 46.2342L40.9794 46.2031Z" fill="#673192"/>
    <path d="M41.4965 46.3613L42.4355 46.9034L42.3816 46.9346L41.4426 46.3925L41.4965 46.3613Z" fill="#673192"/>
    <path d="M41.3254 46.123L42.5567 46.8339L42.5027 46.865L41.2715 46.1542L41.3254 46.123Z" fill="#673192"/>
    <path d="M41.3441 45.9922L42.6783 46.7624L42.6244 46.7936L41.2902 46.0233L41.3441 45.9922Z" fill="#673192"/>
    <path d="M42.3111 46.4102L42.7999 46.6924L42.746 46.7235L42.2571 46.4413L42.3111 46.4102Z" fill="#673192"/>
    <path d="M6.83998 40.688C6.68125 40.688 6.52268 40.6531 6.40192 40.5836C6.27681 40.5113 6.20789 40.4126 6.20789 40.3058C6.20789 40.1992 6.27681 40.1005 6.40192 40.0282C6.64344 39.889 7.03652 39.889 7.27804 40.0282C7.40313 40.1005 7.47198 40.1992 7.47198 40.3058C7.47198 40.4126 7.40313 40.5113 7.27804 40.5836C7.15728 40.6531 6.99855 40.688 6.83998 40.688ZM6.83998 40.0079C6.69677 40.0079 6.55364 40.0394 6.44466 40.1023C6.3471 40.1586 6.29334 40.2309 6.29334 40.3058C6.29334 40.3809 6.3471 40.4532 6.44466 40.5094C6.66256 40.6353 7.01724 40.6353 7.23532 40.5094C7.33279 40.4532 7.38652 40.3809 7.38652 40.3058C7.38652 40.2309 7.33279 40.1586 7.23532 40.1023C7.12632 40.0394 6.98311 40.0079 6.83998 40.0079Z" fill="#673192"/>
    <path d="M8.30408 41.5337C8.14543 41.5337 7.98678 41.4988 7.86602 41.4292C7.74093 41.357 7.672 41.2583 7.672 41.1515C7.672 41.0448 7.74093 40.9462 7.86602 40.8739C8.10754 40.7347 8.50061 40.7347 8.74213 40.8739C8.86722 40.9462 8.93609 41.0448 8.93609 41.1517C8.93609 41.2585 8.86722 41.357 8.74213 41.4292C8.62137 41.4988 8.46272 41.5337 8.30408 41.5337ZM8.30408 40.8536C8.16086 40.8536 8.01774 40.8851 7.90874 40.948C7.81118 41.0043 7.75745 41.0766 7.75745 41.1515C7.75745 41.2266 7.81118 41.2989 7.90874 41.3551C8.12673 41.481 8.48142 41.481 8.6994 41.3551C8.79695 41.2989 8.85063 41.2266 8.85063 41.1517C8.85063 41.0766 8.79695 41.0043 8.6994 40.948C8.59041 40.8851 8.4472 40.8536 8.30408 40.8536Z" fill="#673192"/>
    <path d="M9.76934 42.3794C9.61069 42.3794 9.45204 42.3445 9.33128 42.2749C9.20617 42.2027 9.13733 42.104 9.13733 41.9972C9.13733 41.8906 9.20617 41.7919 9.33128 41.7196C9.5728 41.5804 9.96588 41.5804 10.2074 41.7196C10.3325 41.7919 10.4014 41.8906 10.4014 41.9972C10.4014 42.104 10.3325 42.2027 10.2074 42.2749C10.0866 42.3445 9.92799 42.3794 9.76934 42.3794ZM9.76934 41.6993C9.62623 41.6993 9.48302 41.7308 9.37402 41.7937C9.27655 41.85 9.22279 41.9223 9.22279 41.9972C9.22279 42.0723 9.27655 42.1446 9.37402 42.2008C9.59208 42.3267 9.94677 42.3267 10.1647 42.2008C10.2622 42.1446 10.316 42.0723 10.316 41.9972C10.316 41.9223 10.2622 41.85 10.1647 41.7937C10.0557 41.7308 9.91255 41.6993 9.76934 41.6993Z" fill="#673192"/>
    <path d="M36.8338 23.5984C36.6751 23.5984 36.5165 23.5635 36.3957 23.4938C36.2706 23.4216 36.2017 23.323 36.2017 23.2162C36.2017 23.1094 36.2706 23.0108 36.3957 22.9386C36.6372 22.7992 37.0299 22.799 37.2718 22.9386C37.3968 23.0108 37.4656 23.1094 37.4656 23.2162C37.4656 23.323 37.3968 23.4216 37.2718 23.4938C37.1509 23.5635 36.9924 23.5984 36.8338 23.5984ZM36.8338 22.9183C36.6906 22.9183 36.5474 22.9497 36.4384 23.0126C36.3409 23.0689 36.2872 23.1412 36.2872 23.2162C36.2872 23.2912 36.3409 23.3635 36.4384 23.4198C36.6562 23.5454 37.0109 23.5456 37.2291 23.4198C37.3265 23.3635 37.3801 23.2912 37.3801 23.2162C37.3801 23.1412 37.3265 23.0689 37.2291 23.0126C37.1201 22.9497 36.9768 22.9183 36.8338 22.9183Z" fill="#673192"/>
    <path d="M38.2978 24.4441C38.139 24.4441 37.9804 24.4092 37.8596 24.3395C37.7346 24.2673 37.6658 24.1687 37.6658 24.0619C37.6658 23.9551 37.7346 23.8565 37.8596 23.7844C38.1013 23.6449 38.494 23.6447 38.7357 23.7844C38.8607 23.8565 38.9297 23.9551 38.9297 24.0619C38.9297 24.1687 38.8607 24.2673 38.7357 24.3395C38.615 24.4092 38.4563 24.4441 38.2978 24.4441ZM38.2976 23.764C38.1546 23.764 38.0113 23.7954 37.9023 23.8583C37.8049 23.9146 37.7513 23.9869 37.7513 24.0619C37.7513 24.1369 37.8049 24.2092 37.9023 24.2655C38.1203 24.3914 38.475 24.3914 38.693 24.2655C38.7905 24.2092 38.8442 24.1369 38.8442 24.0619C38.8442 23.9869 38.7905 23.9146 38.693 23.8583C38.584 23.7954 38.4408 23.764 38.2976 23.764Z" fill="#673192"/>
    <path d="M39.7633 25.2898C39.6045 25.2898 39.446 25.255 39.3251 25.1852C39.2001 25.113 39.1312 25.0145 39.1312 24.9076C39.1312 24.8008 39.2001 24.7022 39.3251 24.63C39.5666 24.4906 39.9594 24.4904 40.2012 24.63C40.3262 24.7022 40.3952 24.8008 40.3952 24.9076C40.3952 25.0145 40.3262 25.113 40.2012 25.1852C40.0804 25.255 39.9218 25.2898 39.7633 25.2898ZM39.7633 24.6097C39.62 24.6097 39.4768 24.6412 39.3678 24.704C39.2704 24.7603 39.2166 24.8326 39.2166 24.9076C39.2166 24.9826 39.2704 25.0549 39.3678 25.1113C39.5856 25.2369 39.9403 25.237 40.1585 25.1113C40.256 25.0549 40.3097 24.9826 40.3097 24.9076C40.3097 24.8326 40.256 24.7603 40.1585 24.704C40.0495 24.6412 39.9063 24.6097 39.7633 24.6097Z" fill="#673192"/>
    <path d="M67.6238 37.7667L36.6861 20.2077C35.8601 19.7391 34.8366 19.7431 34.0149 20.2176L31.6049 21.6089L31.5621 21.535L33.9722 20.1436C34.8201 19.6538 35.8763 19.6497 36.7282 20.1334L67.6658 37.6923L67.6238 37.7667Z" fill="#673192"/>
    <path d="M27.1998 39.4053L20.1329 35.3252L20.0901 35.3993L27.1571 39.4794C27.4444 39.6452 27.6164 39.9423 27.6175 40.2741C27.6185 40.6058 27.4481 40.9039 27.1619 41.0714L21.5954 44.3299C21.3174 44.4928 20.9817 44.4993 20.6973 44.3479L12.6919 40.0828C12.9546 39.8878 13.1042 39.6505 13.1059 39.4103C13.1076 39.1578 12.9493 38.9268 12.66 38.7597L1.82981 32.5068C1.19496 32.1404 0.0922729 32.1695 -0.628266 32.5724C-1.00817 32.7847 -1.22715 33.0744 -1.22924 33.3674C-1.2309 33.6199 -1.0726 33.8509 -0.783341 34.018L10.0469 40.2708C10.3449 40.4427 10.7457 40.5277 11.1619 40.5277C11.6324 40.5277 12.1226 40.419 12.5049 40.2052C12.5432 40.1837 12.5788 40.161 12.6138 40.1381L20.6571 44.4233C20.8065 44.5028 20.9687 44.5423 21.1307 44.5423C21.3058 44.5423 21.4808 44.4961 21.6386 44.4036L27.2051 41.1452C27.5179 40.9621 27.704 40.6363 27.7028 40.2738C27.7018 39.9113 27.5138 39.5866 27.1998 39.4053ZM12.4632 40.1307C11.7662 40.5202 10.7013 40.5499 10.0896 40.1967L-0.740602 33.9439C-1.00208 33.793 -1.14529 33.5883 -1.14378 33.368C-1.14193 33.1067 -0.938884 32.8439 -0.586551 32.6468C-0.215592 32.4395 0.259532 32.3342 0.715108 32.3342C1.11551 32.3342 1.50092 32.4156 1.78709 32.5809L12.6173 38.8339C12.8788 38.9847 13.022 39.1894 13.0204 39.4097C13.0186 39.6709 12.8155 39.9338 12.4632 40.1307Z" fill="#673192"/>
    <path d="M23.1881 20.1995L34.0183 26.4525C34.3163 26.6244 34.717 26.7092 35.1331 26.7092C35.6038 26.7092 36.094 26.6006 36.4764 26.3867C36.5073 26.3695 36.5353 26.351 36.564 26.3328L43.5918 30.1329C43.8563 30.2759 44.0169 30.541 44.0211 30.8417C44.0253 31.1424 43.8722 31.4117 43.6118 31.562L37.57 35.0502C37.3168 35.1964 37.0027 35.1961 36.7498 35.0496L28.6351 30.3423L28.5924 30.4161L36.7071 35.1233C36.8468 35.2046 37.0037 35.2452 37.1606 35.2452C37.317 35.2452 37.4732 35.2048 37.6127 35.1243L43.6546 31.6361C43.9421 31.47 44.1111 31.1726 44.1066 30.8406C44.1019 30.5082 43.9246 30.2157 43.6325 30.0578L36.6441 26.279C36.919 26.0815 37.0756 25.8381 37.0773 25.5919C37.0791 25.3394 36.9207 25.1084 36.6315 24.9413L25.8012 18.6885C25.1662 18.3218 24.0635 18.3513 23.3432 18.7539C22.9633 18.9663 22.7443 19.2562 22.7422 19.549C22.7405 19.8015 22.8989 20.0325 23.1881 20.1995ZM23.3849 18.8285C24.082 18.439 25.1469 18.4094 25.7585 18.7624L36.5888 25.0154C36.8503 25.1663 36.9933 25.3709 36.9918 25.5914C36.9902 25.8195 36.8351 26.0487 36.5613 26.2343L36.5532 26.2298L36.5454 26.2443C36.5101 26.2676 36.4737 26.2905 36.4347 26.3123C35.7375 26.7019 34.6726 26.7316 34.0611 26.3784L23.2308 20.1256C22.9694 19.9746 22.8262 19.7701 22.8277 19.5496C22.8295 19.2884 23.0326 19.0255 23.3849 18.8285Z" fill="#673192"/>
    <path d="M36.7179 32.9014C37.5162 32.9014 38.3146 32.726 38.9223 32.3751C39.5192 32.0305 39.848 31.5696 39.848 31.0776C39.848 30.5857 39.5193 30.1248 38.9225 29.7802C37.7068 29.0785 35.7288 29.0785 34.5135 29.7802C33.9167 30.1248 33.588 30.5857 33.588 31.0776C33.588 31.5696 33.9167 32.0305 34.5135 32.3751C35.1212 32.726 35.9196 32.9014 36.7179 32.9014ZM33.6735 31.0776C33.6735 30.6174 33.9869 30.1829 34.5563 29.8543C35.1523 29.5103 35.9351 29.3382 36.7179 29.3382C37.5009 29.3382 38.2837 29.5103 38.8797 29.8543C39.4491 30.1829 39.7625 30.6174 39.7625 31.0776C39.7625 31.5379 39.4489 31.9724 38.8796 32.301C37.6876 32.9892 35.7482 32.9892 34.5563 32.301C33.9869 31.9724 33.6735 31.5379 33.6735 31.0776Z" fill="#673192"/>
    <path d="M35.3546 31.8893C35.7307 32.1065 36.2244 32.215 36.7185 32.215C37.2123 32.215 37.7064 32.1063 38.0824 31.8893C38.4548 31.6744 38.6598 31.3859 38.6599 31.0773C38.6599 30.7685 38.4548 30.4801 38.0824 30.265C37.3303 29.831 36.1067 29.8308 35.3546 30.2651C34.9822 30.4801 34.7773 30.7685 34.7773 31.0772C34.7773 31.3859 34.9822 31.6744 35.3546 31.8893ZM35.3973 30.3392C35.7617 30.1288 36.2401 30.0236 36.7186 30.0236C37.197 30.0236 37.6755 30.1288 38.0397 30.3391C38.3845 30.5382 38.5745 30.8003 38.5745 31.0773C38.5743 31.3542 38.3845 31.6163 38.0397 31.8152C37.3111 32.2358 36.1259 32.2358 35.3973 31.8152C35.0525 31.6163 34.8627 31.3542 34.8627 31.0772C34.8627 30.8003 35.0525 30.5382 35.3973 30.3392Z" fill="#673192"/>
    <path d="M19.0806 41.299C19.6884 41.6498 20.4867 41.8252 21.285 41.8252C22.0833 41.8252 22.8818 41.6498 23.4895 41.299C24.0864 40.9543 24.4151 40.4934 24.4151 40.0014C24.4151 39.5095 24.0864 39.0487 23.4895 38.704C22.2739 38.0023 20.2961 38.0023 19.0806 38.704C18.4838 39.0487 18.155 39.5095 18.155 40.0014C18.155 40.4934 18.4838 40.9543 19.0806 41.299ZM19.1234 38.7781C19.7193 38.4339 20.5022 38.262 21.2851 38.262C22.0679 38.262 22.8508 38.4339 23.4468 38.7781C24.0161 39.1067 24.3296 39.5412 24.3296 40.0014C24.3296 40.4617 24.0161 40.8962 23.4468 41.2248C22.2548 41.913 20.3152 41.9128 19.1234 41.2248C18.554 40.8962 18.2405 40.4617 18.2405 40.0014C18.2405 39.5412 18.554 39.1067 19.1234 38.7781Z" fill="#673192"/>
    <path d="M19.9218 40.8131C20.2979 41.0302 20.7917 41.1387 21.2857 41.1387C21.7795 41.1387 22.2736 41.0301 22.6495 40.8131C23.0219 40.5981 23.227 40.3097 23.227 40.0009C23.227 39.6923 23.0219 39.4039 22.6495 39.1889C21.8978 38.7547 20.6741 38.7547 19.9218 39.1889C19.5494 39.4039 19.3443 39.6923 19.3443 40.0009C19.3443 40.3097 19.5494 40.5981 19.9218 40.8131ZM19.9645 39.263C20.3288 39.0527 20.8073 38.9475 21.2857 38.9475C21.7641 38.9475 22.2425 39.0527 22.6068 39.263C22.9516 39.4619 23.1416 39.724 23.1416 40.0009C23.1416 40.278 22.9516 40.54 22.6068 40.739C21.8783 41.1596 20.6929 41.1596 19.9645 40.739C19.6197 40.54 19.4298 40.278 19.4298 40.0009C19.4298 39.724 19.6197 39.4619 19.9645 39.263Z" fill="#673192"/>
    <path d="M50.6507 34.4356C50.1027 34.1256 49.4232 34.1283 48.8771 34.4433L28.7864 46.0427C28.2251 46.3668 27.8911 46.9472 27.8928 47.5953C27.8944 48.2432 28.2316 48.8219 28.7946 49.1429L41.779 56.5641L41.8214 56.49L28.837 49.0688C28.3009 48.763 27.9799 48.212 27.9782 47.595C27.9765 46.9779 28.2947 46.4253 28.8291 46.1168L48.9198 34.5174C49.4397 34.2171 50.087 34.2146 50.6086 34.51L65.4277 42.9108L65.4697 42.8364L50.6507 34.4356Z" fill="#673192"/>
    <path d="M32.1825 58.0267L1.76166 40.4632C1.45037 40.2835 1.26453 39.9615 1.26453 39.602C1.26453 39.2426 1.45037 38.9206 1.76166 38.7409L4.64479 37.0723L4.68753 37.1464L1.8044 38.815C1.51982 38.9792 1.34998 39.2735 1.34998 39.602C1.34998 39.9306 1.51982 40.2249 1.8044 40.3891L32.2252 57.9526L32.1825 58.0267Z" fill="#673192"/>
    <path style="mix-blend-mode:color-dodge" d="M55.8367 33.3452L43.6127 26.2877C43.3604 26.1421 42.9156 26.1605 42.6243 26.3287C42.333 26.4969 42.3011 26.7536 42.5534 26.8993L54.7773 33.9568C55.0296 34.1025 55.4744 34.084 55.7657 33.9158C56.057 33.7477 56.0889 33.4909 55.8367 33.3452Z" fill="url(#paint7_linear_4546_24768)"/>
    <path style="mix-blend-mode:color-dodge" d="M25.7989 50.7574L13.575 43.6998C13.3227 43.5542 12.8779 43.5726 12.5866 43.7408C12.2953 43.909 12.2634 44.1658 12.5156 44.3114L24.7396 51.369C24.9919 51.5146 25.4367 51.4962 25.728 51.328C26.0193 51.1598 26.0512 50.903 25.7989 50.7574Z" fill="url(#paint8_linear_4546_24768)"/>
    <path style="mix-blend-mode:color-dodge" d="M49.5665 45.5566L46.1733 47.5157L61.8086 56.5427L65.2018 54.5836L49.5665 45.5566Z" fill="url(#paint9_linear_4546_24768)"/>
    <path d="M10.6234 5.93976C10.5291 5.99424 10.4525 5.95011 10.4525 5.84106C10.4525 5.73201 10.5291 5.5961 10.6234 5.5416C10.7178 5.48712 10.7944 5.52799 10.7944 5.63703V5.64365C10.7944 5.7527 10.7178 5.88528 10.6234 5.93976Z" fill="url(#paint10_linear_4546_24768)"/>
    <path d="M10.6234 16.9843C10.5291 17.0388 10.4525 16.9946 10.4525 16.8856C10.4525 16.7766 10.5291 16.6376 10.6234 16.5831C10.7178 16.5286 10.7944 16.5664 10.7944 16.6754V16.6882C10.7944 16.7972 10.7178 16.9298 10.6234 16.9843ZM10.6234 16.064C10.5291 16.1185 10.4525 16.0743 10.4525 15.9653C10.4525 15.8563 10.5291 15.7171 10.6234 15.6626C10.7178 15.6081 10.7944 15.6459 10.7944 15.7549V15.7679C10.7944 15.8769 10.7178 16.0095 10.6234 16.064ZM10.6234 15.1435C10.5291 15.198 10.4525 15.1539 10.4525 15.0448C10.4525 14.9358 10.5291 14.7967 10.6234 14.7422C10.7178 14.6877 10.7944 14.7254 10.7944 14.8344V14.8474C10.7944 14.9565 10.7178 15.089 10.6234 15.1435ZM10.6234 14.2231C10.5291 14.2776 10.4525 14.2334 10.4525 14.1244C10.4525 14.0153 10.5291 13.8763 10.6234 13.8218C10.7178 13.7673 10.7944 13.8049 10.7944 13.914V13.9269C10.7944 14.036 10.7178 14.1686 10.6234 14.2231ZM10.6234 13.3027C10.5291 13.3572 10.4525 13.313 10.4525 13.204C10.4525 13.0949 10.5291 12.9559 10.6234 12.9014C10.7178 12.8469 10.7944 12.8845 10.7944 12.9936V13.0066C10.7944 13.1156 10.7178 13.2482 10.6234 13.3027ZM10.6234 12.3822C10.5291 12.4367 10.4525 12.3925 10.4525 12.2835C10.4525 12.1745 10.5291 12.0354 10.6234 11.9809C10.7178 11.9264 10.7944 11.9641 10.7944 12.0731V12.0861C10.7944 12.1951 10.7178 12.3277 10.6234 12.3822ZM10.6234 11.4617C10.5291 11.5162 10.4525 11.4721 10.4525 11.363C10.4525 11.254 10.5291 11.115 10.6234 11.0605C10.7178 11.006 10.7944 11.0437 10.7944 11.1527V11.1656C10.7944 11.2747 10.7178 11.4073 10.6234 11.4617ZM10.6234 10.5414C10.5291 10.5958 10.4525 10.5517 10.4525 10.4426C10.4525 10.3336 10.5291 10.1945 10.6234 10.14C10.7178 10.0856 10.7944 10.1232 10.7944 10.2323V10.2452C10.7944 10.3543 10.7178 10.4868 10.6234 10.5414ZM10.6234 9.62089C10.5291 9.67538 10.4525 9.63123 10.4525 9.52218C10.4525 9.41313 10.5291 9.27408 10.6234 9.21958C10.7178 9.16508 10.7944 9.2028 10.7944 9.31185V9.32477C10.7944 9.43382 10.7178 9.5664 10.6234 9.62089ZM10.6234 8.7005C10.5291 8.75498 10.4525 8.71085 10.4525 8.60178C10.4525 8.49273 10.5291 8.35368 10.6234 8.2992C10.7178 8.24469 10.7944 8.28234 10.7944 8.3914V8.40437C10.7944 8.51344 10.7178 8.646 10.6234 8.7005ZM10.6234 7.78003C10.5291 7.83453 10.4525 7.79038 10.4525 7.68134C10.4525 7.57227 10.5291 7.43329 10.6234 7.37879C10.7178 7.32429 10.7944 7.36196 10.7944 7.47101V7.48393C10.7944 7.59297 10.7178 7.72553 10.6234 7.78003ZM10.6234 6.85963C10.5291 6.91413 10.4525 6.86997 10.4525 6.76094C10.4525 6.65189 10.5291 6.51282 10.6234 6.45832C10.7178 6.40384 10.7944 6.44149 10.7944 6.55054V6.56353C10.7944 6.67258 10.7178 6.80513 10.6234 6.85963Z" fill="url(#paint11_linear_4546_24768)"/>
    <path d="M10.6234 17.8986C10.5291 17.9531 10.4525 17.9089 10.4525 17.7999C10.4525 17.6909 10.5291 17.5551 10.6234 17.5006C10.7178 17.4461 10.7944 17.487 10.7944 17.596V17.6025C10.7944 17.7115 10.7178 17.8441 10.6234 17.8986Z" fill="url(#paint12_linear_4546_24768)"/>
    <path d="M6.69433 8.20735C6.59996 8.26184 6.52338 8.21769 6.52338 8.10864C6.52338 7.99959 6.59996 7.86368 6.69433 7.80918C6.78873 7.7547 6.86529 7.79557 6.86529 7.9046V7.91125C6.86529 8.02028 6.78873 8.15285 6.69433 8.20735Z" fill="url(#paint13_linear_4546_24768)"/>
    <path d="M6.69445 19.2519C6.60008 19.3064 6.5235 19.2622 6.5235 19.1532C6.5235 19.0442 6.60008 18.9051 6.69445 18.8507C6.78885 18.7962 6.86541 18.834 6.86541 18.9429V18.9558C6.86541 19.0648 6.78885 19.1974 6.69445 19.2519ZM6.69445 18.3316C6.60008 18.3861 6.5235 18.3419 6.5235 18.2329C6.5235 18.1239 6.60008 17.9847 6.69445 17.9302C6.78885 17.8757 6.86541 17.9135 6.86541 18.0225V18.0355C6.86541 18.1444 6.78885 18.2771 6.69445 18.3316ZM6.69445 17.4111C6.60008 17.4656 6.5235 17.4215 6.5235 17.3124C6.5235 17.2033 6.60008 17.0643 6.69445 17.0098C6.78885 16.9553 6.86541 16.993 6.86541 17.102V17.115C6.86541 17.2241 6.78885 17.3566 6.69445 17.4111ZM6.69445 16.4906C6.60008 16.5451 6.5235 16.501 6.5235 16.3919C6.5235 16.2829 6.60008 16.1438 6.69445 16.0893C6.78885 16.0348 6.86541 16.0725 6.86541 16.1816V16.1945C6.86541 16.3036 6.78885 16.4361 6.69445 16.4906ZM6.69445 15.5702C6.60008 15.6247 6.5235 15.5806 6.5235 15.4715C6.5235 15.3625 6.60008 15.2234 6.69445 15.1689C6.78885 15.1144 6.86541 15.1521 6.86541 15.2612V15.2741C6.86541 15.3832 6.78885 15.5158 6.69445 15.5702ZM6.69445 14.6498C6.60008 14.7043 6.5235 14.6601 6.5235 14.5511C6.5235 14.442 6.60008 14.303 6.69445 14.2485C6.78885 14.194 6.86541 14.2317 6.86541 14.3407V14.3537C6.86541 14.4627 6.78885 14.5953 6.69445 14.6498ZM6.69445 13.7293C6.60008 13.7838 6.5235 13.7397 6.5235 13.6306C6.5235 13.5216 6.60008 13.3826 6.69445 13.3281C6.78885 13.2736 6.86541 13.3113 6.86541 13.4203V13.4332C6.86541 13.5423 6.78885 13.6748 6.69445 13.7293ZM6.69445 12.8089C6.60008 12.8634 6.5235 12.8193 6.5235 12.7102C6.5235 12.6012 6.60008 12.4621 6.69445 12.4076C6.78885 12.3531 6.86541 12.3908 6.86541 12.4998V12.5128C6.86541 12.6219 6.78885 12.7544 6.69445 12.8089ZM6.69445 11.8885C6.60008 11.943 6.5235 11.8988 6.5235 11.7898C6.5235 11.6807 6.60008 11.5417 6.69445 11.4872C6.78885 11.4327 6.86541 11.4704 6.86541 11.5794V11.5923C6.86541 11.7014 6.78885 11.834 6.69445 11.8885ZM6.69445 10.9681C6.60008 11.0226 6.5235 10.9784 6.5235 10.8694C6.5235 10.7603 6.60008 10.6213 6.69445 10.5668C6.78885 10.5123 6.86541 10.5499 6.86541 10.659V10.672C6.86541 10.781 6.78885 10.9136 6.69445 10.9681ZM6.69445 10.0476C6.60008 10.1021 6.5235 10.058 6.5235 9.94891C6.5235 9.83986 6.60008 9.70086 6.69445 9.64636C6.78885 9.59188 6.86541 9.62953 6.86541 9.73858V9.7515C6.86541 9.86055 6.78885 9.99312 6.69445 10.0476ZM6.69445 9.1272C6.60008 9.18169 6.5235 9.13754 6.5235 9.02851C6.5235 8.91946 6.60008 8.78041 6.69445 8.72591C6.78885 8.67141 6.86541 8.70906 6.86541 8.81813V8.8311C6.86541 8.94013 6.78885 9.07272 6.69445 9.1272Z" fill="url(#paint14_linear_4546_24768)"/>
    <path d="M6.69445 20.1662C6.60008 20.2207 6.5235 20.1765 6.5235 20.0675C6.5235 19.9585 6.60008 19.8227 6.69445 19.7682C6.78885 19.7137 6.86541 19.7546 6.86541 19.8635V19.8701C6.86541 19.9791 6.78885 20.1117 6.69445 20.1662Z" fill="url(#paint15_linear_4546_24768)"/>
    <path d="M9.64112 8.71118C9.54672 8.76568 9.47015 8.72153 9.47015 8.61248C9.47015 8.50343 9.54672 8.36757 9.64112 8.31309C9.7355 8.25861 9.81207 8.29946 9.81207 8.40851V8.41507C9.81207 8.52412 9.7355 8.6567 9.64112 8.71118Z" fill="url(#paint16_linear_4546_24768)"/>
    <path d="M9.64112 17.4968C9.54672 17.5513 9.47015 17.5071 9.47015 17.3981V17.3843C9.47015 17.2754 9.54672 17.1427 9.64112 17.0882C9.7355 17.0337 9.81207 17.078 9.81207 17.1869V17.2007C9.81207 17.3097 9.7355 17.4423 9.64112 17.4968ZM9.64112 16.5207C9.54672 16.5752 9.47015 16.531 9.47015 16.422V16.4082C9.47015 16.2992 9.54672 16.1666 9.64112 16.1121C9.7355 16.0576 9.81207 16.1018 9.81207 16.2108V16.2246C9.81207 16.3336 9.7355 16.4662 9.64112 16.5207ZM9.64112 15.5446C9.54672 15.5991 9.47015 15.5549 9.47015 15.4459V15.4321C9.47015 15.3231 9.54672 15.1905 9.64112 15.136C9.7355 15.0815 9.81207 15.1257 9.81207 15.2347V15.2485C9.81207 15.3575 9.7355 15.4901 9.64112 15.5446ZM9.64112 14.5684C9.54672 14.6229 9.47015 14.5787 9.47015 14.4697V14.4559C9.47015 14.3469 9.54672 14.2143 9.64112 14.1598C9.7355 14.1053 9.81207 14.1495 9.81207 14.2585V14.2723C9.81207 14.3813 9.7355 14.5139 9.64112 14.5684ZM9.64112 13.5923C9.54672 13.6468 9.47015 13.6026 9.47015 13.4936V13.4798C9.47015 13.3708 9.54672 13.2382 9.64112 13.1837C9.7355 13.1292 9.81207 13.1734 9.81207 13.2824V13.2962C9.81207 13.4052 9.7355 13.5378 9.64112 13.5923ZM9.64112 12.6162C9.54672 12.6707 9.47015 12.6265 9.47015 12.5175V12.5037C9.47015 12.3947 9.54672 12.2621 9.64112 12.2076C9.7355 12.1531 9.81207 12.1973 9.81207 12.3063V12.32C9.81207 12.4291 9.7355 12.5617 9.64112 12.6162ZM9.64112 11.6401C9.54672 11.6945 9.47015 11.6504 9.47015 11.5414V11.5276C9.47015 11.4186 9.54672 11.286 9.64112 11.2315C9.7355 11.177 9.81207 11.2212 9.81207 11.3302V11.3439C9.81207 11.453 9.7355 11.5856 9.64112 11.6401ZM9.64112 10.6639C9.54672 10.7184 9.47015 10.6742 9.47015 10.5652V10.5514C9.47015 10.4424 9.54672 10.3098 9.64112 10.2553C9.7355 10.2008 9.81207 10.245 9.81207 10.354V10.3678C9.81207 10.4768 9.7355 10.6094 9.64112 10.6639ZM9.64112 9.68777C9.54672 9.74227 9.47015 9.6981 9.47015 9.58907V9.57533C9.47015 9.46626 9.54672 9.33371 9.64112 9.27921C9.7355 9.22471 9.81207 9.26886 9.81207 9.37792V9.39166C9.81207 9.50071 9.7355 9.63329 9.64112 9.68777Z" fill="url(#paint17_linear_4546_24768)"/>
    <path d="M9.64112 18.465C9.54672 18.5195 9.47015 18.4753 9.47015 18.3663C9.47015 18.2573 9.54672 18.1215 9.64112 18.067C9.7355 18.0125 9.81207 18.0534 9.81207 18.1624V18.1689C9.81207 18.2779 9.7355 18.4105 9.64112 18.465Z" fill="url(#paint18_linear_4546_24768)"/>
    <path d="M8.65973 5.47095C8.56535 5.52544 8.48877 5.48129 8.48877 5.37226C8.48877 5.26321 8.56535 5.12735 8.65973 5.07286C8.75412 5.01836 8.83068 5.05924 8.83068 5.16827V5.17485C8.83068 5.28388 8.75412 5.41647 8.65973 5.47095Z" fill="url(#paint19_linear_4546_24768)"/>
    <path d="M8.65973 18.1341C8.56535 18.1885 8.48877 18.1443 8.48877 18.0354C8.48877 17.9264 8.56535 17.7873 8.65973 17.7328C8.75412 17.6783 8.83068 17.7162 8.83068 17.8252V17.8379C8.83068 17.9469 8.75412 18.0796 8.65973 18.1341ZM8.65973 17.2295C8.56535 17.284 8.48877 17.2398 8.48877 17.1308C8.48877 17.0218 8.56535 16.8829 8.65973 16.8284C8.75412 16.7739 8.83068 16.8117 8.83068 16.9207V16.9334C8.83068 17.0424 8.75412 17.175 8.65973 17.2295ZM8.65973 16.325C8.56535 16.3795 8.48877 16.3354 8.48877 16.2263C8.48877 16.1172 8.56535 15.9783 8.65973 15.9238C8.75412 15.8693 8.83068 15.9071 8.83068 16.0162V16.0289C8.83068 16.1379 8.75412 16.2705 8.65973 16.325ZM8.65973 15.4205C8.56535 15.475 8.48877 15.4308 8.48877 15.3218C8.48877 15.2127 8.56535 15.0738 8.65973 15.0193C8.75412 14.9648 8.83068 15.0026 8.83068 15.1116V15.1244C8.83068 15.2334 8.75412 15.366 8.65973 15.4205ZM8.65973 14.516C8.56535 14.5704 8.48877 14.5263 8.48877 14.4172C8.48877 14.3082 8.56535 14.1693 8.65973 14.1148C8.75412 14.0603 8.83068 14.098 8.83068 14.207V14.2198C8.83068 14.3289 8.75412 14.4615 8.65973 14.516ZM8.65973 13.6114C8.56535 13.6659 8.48877 13.6218 8.48877 13.5127C8.48877 13.4037 8.56535 13.2647 8.65973 13.2102C8.75412 13.1557 8.83068 13.1935 8.83068 13.3025V13.3153C8.83068 13.4244 8.75412 13.5569 8.65973 13.6114ZM8.65973 12.7068C8.56535 12.7613 8.48877 12.7172 8.48877 12.6081C8.48877 12.4991 8.56535 12.3601 8.65973 12.3057C8.75412 12.2512 8.83068 12.2889 8.83068 12.398V12.4107C8.83068 12.5198 8.75412 12.6524 8.65973 12.7068ZM8.65973 11.8023C8.56535 11.8568 8.48877 11.8126 8.48877 11.7036C8.48877 11.5946 8.56535 11.4556 8.65973 11.4011C8.75412 11.3466 8.83068 11.3844 8.83068 11.4935V11.5062C8.83068 11.6152 8.75412 11.7478 8.65973 11.8023ZM8.65973 10.8978C8.56535 10.9523 8.48877 10.9081 8.48877 10.7991C8.48877 10.69 8.56535 10.5511 8.65973 10.4966C8.75412 10.4421 8.83068 10.4799 8.83068 10.5889V10.6017C8.83068 10.7107 8.75412 10.8433 8.65973 10.8978ZM8.65973 9.99325C8.56535 10.0478 8.48877 10.0036 8.48877 9.89455C8.48877 9.7855 8.56535 9.64658 8.65973 9.59209C8.75412 9.53759 8.83068 9.57537 8.83068 9.68442V9.69714C8.83068 9.80621 8.75412 9.93876 8.65973 9.99325ZM8.65973 9.08872C8.56535 9.14324 8.48877 9.09909 8.48877 8.99002C8.48877 8.88098 8.56535 8.74199 8.65973 8.68749C8.75412 8.63299 8.83068 8.67078 8.83068 8.77983V8.79262C8.83068 8.90168 8.75412 9.03424 8.65973 9.08872ZM8.65973 8.18421C8.56535 8.2387 8.48877 8.19455 8.48877 8.0855C8.48877 7.97645 8.56535 7.83752 8.65973 7.78304C8.75412 7.72854 8.83068 7.76627 8.83068 7.87531V7.88809C8.83068 7.99714 8.75412 8.12971 8.65973 8.18421ZM8.65973 7.27962C8.56535 7.3341 8.48877 7.28997 8.48877 7.18091C8.48877 7.07188 8.56535 6.93292 8.65973 6.87844C8.75412 6.82396 8.83068 6.86175 8.83068 6.97078V6.9835C8.83068 7.09257 8.75412 7.22512 8.65973 7.27962ZM8.65973 6.3751C8.56535 6.42958 8.48877 6.38543 8.48877 6.27638C8.48877 6.16735 8.56535 6.0284 8.65973 5.97392C8.75412 5.91944 8.83068 5.95721 8.83068 6.06627V6.07898C8.83068 6.18802 8.75412 6.32061 8.65973 6.3751Z" fill="url(#paint20_linear_4546_24768)"/>
    <path d="M8.65973 19.0334C8.56535 19.0879 8.48877 19.0437 8.48877 18.9347C8.48877 18.8257 8.56535 18.6898 8.65973 18.6354C8.75412 18.5809 8.83068 18.6217 8.83068 18.7307V18.7373C8.83068 18.8463 8.75412 18.9789 8.65973 19.0334Z" fill="url(#paint21_linear_4546_24768)"/>
    <path d="M7.67583 11.262C7.58145 11.3165 7.50488 11.2723 7.50488 11.1633C7.50488 11.0542 7.58145 10.9184 7.67583 10.8639C7.77023 10.8094 7.8468 10.8503 7.8468 10.9593V10.9658C7.8468 11.0749 7.77023 11.2075 7.67583 11.262Z" fill="url(#paint22_linear_4546_24768)"/>
    <path d="M7.67583 18.6802C7.58145 18.7347 7.50488 18.6905 7.50488 18.5815C7.50488 18.4726 7.58145 18.3335 7.67583 18.279C7.77023 18.2245 7.8468 18.2622 7.8468 18.3712V18.3841C7.8468 18.4931 7.77023 18.6258 7.67583 18.6802ZM7.67583 17.7531C7.58145 17.8076 7.50488 17.7634 7.50488 17.6544C7.50488 17.5454 7.58145 17.4062 7.67583 17.3517C7.77023 17.2972 7.8468 17.3349 7.8468 17.4439V17.457C7.8468 17.566 7.77023 17.6986 7.67583 17.7531ZM7.67583 16.8258C7.58145 16.8803 7.50488 16.8362 7.50488 16.7271C7.50488 16.6181 7.58145 16.479 7.67583 16.4245C7.77023 16.37 7.8468 16.4076 7.8468 16.5167V16.5297C7.8468 16.6388 7.77023 16.7713 7.67583 16.8258ZM7.67583 15.8986C7.58145 15.9531 7.50488 15.909 7.50488 15.7999C7.50488 15.6909 7.58145 15.5518 7.67583 15.4973C7.77023 15.4428 7.8468 15.4804 7.8468 15.5895V15.6025C7.8468 15.7116 7.77023 15.8441 7.67583 15.8986ZM7.67583 14.9714C7.58145 15.0259 7.50488 14.9817 7.50488 14.8727C7.50488 14.7637 7.58145 14.6245 7.67583 14.57C7.77023 14.5155 7.8468 14.5532 7.8468 14.6623V14.6753C7.8468 14.7843 7.77023 14.9169 7.67583 14.9714ZM7.67583 14.0442C7.58145 14.0987 7.50488 14.0546 7.50488 13.9455C7.50488 13.8364 7.58145 13.6973 7.67583 13.6428C7.77023 13.5883 7.8468 13.626 7.8468 13.735V13.7481C7.8468 13.8571 7.77023 13.9897 7.67583 14.0442ZM7.67583 13.117C7.58145 13.1715 7.50488 13.1273 7.50488 13.0183C7.50488 12.9092 7.58145 12.7701 7.67583 12.7156C7.77023 12.6611 7.8468 12.6988 7.8468 12.8078V12.8209C7.8468 12.9299 7.77023 13.0625 7.67583 13.117ZM7.67583 12.1898C7.58145 12.2443 7.50488 12.2001 7.50488 12.0911C7.50488 11.982 7.58145 11.8429 7.67583 11.7884C7.77023 11.7339 7.8468 11.7716 7.8468 11.8806V11.8937C7.8468 12.0027 7.77023 12.1353 7.67583 12.1898Z" fill="url(#paint23_linear_4546_24768)"/>
    <path d="M7.67583 19.5998C7.58145 19.6543 7.50488 19.6101 7.50488 19.5011C7.50488 19.3921 7.58145 19.2563 7.67583 19.2018C7.77023 19.1473 7.8468 19.1881 7.8468 19.2971V19.3037C7.8468 19.4127 7.77023 19.5453 7.67583 19.5998Z" fill="url(#paint24_linear_4546_24768)"/>
    <path d="M2.55383 31.9056C3.17022 32.2615 3.17022 32.8384 2.55383 33.1943C1.93744 33.5502 0.938058 33.5502 0.321668 33.1943C-0.294723 32.8384 -0.294723 32.2614 0.321668 31.9056C0.938074 31.5497 1.93744 31.5497 2.55383 31.9056Z" fill="#F0CDA8"/>
    <path d="M2.55344 33.1941C1.93705 33.55 0.937691 33.55 0.321284 33.1941C0.0152455 33.0175 -0.138453 32.7863 -0.140602 32.5547V33.534C-0.142783 33.7689 0.010932 34.0041 0.321284 34.1833C0.937691 34.5392 1.93705 34.5392 2.55344 34.1833C2.86379 34.0041 3.01751 33.7689 3.01533 33.534V32.5547C3.01318 32.7863 2.85947 33.0175 2.55344 33.1941Z" fill="#62468B"/>
    <path d="M7.05481 34.4974C7.6712 34.8532 7.6712 35.4302 7.05481 35.7861C6.43842 36.142 5.43902 36.142 4.82264 35.7861C4.20625 35.4302 4.20626 34.8532 4.82265 34.4974C5.43904 34.1415 6.43842 34.1415 7.05481 34.4974Z" fill="#F0CDA8"/>
    <path d="M7.05443 35.786C6.43804 36.1418 5.43865 36.1418 4.82226 35.786C4.51624 35.6093 4.36254 35.3781 4.36037 35.1465V36.1258C4.35821 36.3607 4.51191 36.5959 4.82226 36.7751C5.43865 37.131 6.43804 37.131 7.05443 36.7751C7.36478 36.5959 7.5185 36.3607 7.51632 36.1258V35.1465C7.51417 35.3781 7.36046 35.6093 7.05443 35.786Z" fill="#62468B"/>
    <path d="M11.5558 37.0872C12.1722 37.4431 12.1722 38.0201 11.5558 38.3759C10.9394 38.7318 9.94001 38.7318 9.32362 38.3759C8.70723 38.0201 8.70723 37.4431 9.32364 37.0872C9.94003 36.7313 10.9394 36.7313 11.5558 37.0872Z" fill="#F0CDA8"/>
    <path d="M11.5554 38.3758C10.939 38.7317 9.93963 38.7317 9.32324 38.3758C9.01721 38.1991 8.86352 37.9679 8.86135 37.7363V38.7157C8.85919 38.9505 9.01288 39.1857 9.32324 39.3649C9.93963 39.7208 10.939 39.7208 11.5554 39.3649C11.8658 39.1857 12.0195 38.9505 12.0173 38.7157V37.7363C12.0151 37.9679 11.8614 38.1991 11.5554 38.3758Z" fill="#62468B"/>
    <path d="M26.5248 18.0872C27.1412 18.4431 27.1412 19.0201 26.5248 19.3759C25.9084 19.7318 24.9091 19.7318 24.2927 19.3759C23.6763 19.0201 23.6763 18.4431 24.2927 18.0872C24.9091 17.7313 25.9084 17.7313 26.5248 18.0872Z" fill="#F0CDA8"/>
    <path d="M26.5245 19.3758C25.9081 19.7317 24.9087 19.7317 24.2923 19.3758C23.9863 19.1991 23.8326 18.9679 23.8304 18.7363V19.7157C23.8282 19.9505 23.9819 20.1858 24.2923 20.3649C24.9087 20.7208 25.9081 20.7208 26.5245 20.3649C26.8348 20.1857 26.9885 19.9505 26.9864 19.7157V18.7363C26.9842 18.9679 26.8305 19.1991 26.5245 19.3758Z" fill="#62468B"/>
    <path d="M31.0258 20.679C31.6422 21.0349 31.6422 21.6119 31.0258 21.9678C30.4094 22.3236 29.41 22.3236 28.7936 21.9678C28.1773 21.6119 28.1773 21.0349 28.7937 20.679C29.4101 20.3231 30.4094 20.3231 31.0258 20.679Z" fill="#F0CDA8"/>
    <path d="M31.0254 21.9676C30.409 22.3234 29.4097 22.3235 28.7933 21.9676C28.4872 21.7909 28.3335 21.5597 28.3314 21.3281V22.3075C28.3292 22.5423 28.4829 22.7776 28.7933 22.9567C29.4097 23.3126 30.409 23.3126 31.0254 22.9567C31.3358 22.7775 31.4895 22.5423 31.4873 22.3075V21.3281C31.4852 21.5597 31.3315 21.7909 31.0254 21.9676Z" fill="#62468B"/>
    <path d="M35.5268 23.2688C36.1432 23.6247 36.1432 24.2017 35.5268 24.5576C34.9104 24.9135 33.911 24.9135 33.2946 24.5576C32.6782 24.2017 32.6782 23.6247 33.2946 23.2688C33.911 22.913 34.9104 22.913 35.5268 23.2688Z" fill="#F0CDA8"/>
    <path d="M35.5264 24.5574C34.91 24.9133 33.9106 24.9133 33.2942 24.5574C32.9882 24.3807 32.8345 24.1495 32.8324 23.918V24.8973C32.8302 25.1322 32.9839 25.3674 33.2942 25.5466C33.9106 25.9025 34.91 25.9025 35.5264 25.5466C35.8368 25.3674 35.9905 25.1322 35.9883 24.8973V23.918C35.9861 24.1495 35.8324 24.3807 35.5264 24.5574Z" fill="#62468B"/>
    <path d="M15.2729 32.1688L5.92561 25.0827C5.12198 24.6844 5.22371 23.9823 6.15165 23.5224L18.7691 17.2694C19.697 16.8095 21.1137 16.7591 21.9173 17.1574L31.2646 24.2434C32.0683 24.6417 31.9665 25.3438 31.0386 25.8037L18.4212 32.0567C17.4933 32.5166 16.0765 32.5671 15.2729 32.1688Z" fill="#673192"/>
    <path d="M15.2729 32.1692L5.92558 25.0831C5.58251 24.913 5.40588 24.6875 5.38665 24.4492V31.4706C5.37376 31.7345 5.549 31.988 5.92558 32.1746L15.2729 36.807C15.7077 37.0225 16.3221 37.1055 16.9414 37.0645V32.4266C16.3221 32.4677 15.7077 32.3847 15.2729 32.1692Z" fill="#673192"/>
    <path d="M31.0385 30.4418C31.5669 30.1799 31.8264 29.8396 31.8044 29.5214V24.9297C31.7995 25.2343 31.5415 25.5547 31.0385 25.8039L18.4211 32.057C17.9953 32.268 17.4666 32.3917 16.9413 32.4265V37.0644C17.4666 37.0296 17.9953 36.9059 18.4211 36.6949L31.0385 30.4418Z" fill="#62468B"/>
    <path d="M16.6397 31.6423C16.3208 31.6423 16.0183 31.595 15.8098 31.5126L15.7994 31.5068L6.53922 24.4867C6.49783 24.4551 6.45276 24.4268 6.40529 24.4021L6.35663 24.3769L6.39843 24.3438C6.45569 24.2985 6.52863 24.2538 6.61525 24.2108L19.2327 17.9579C19.5791 17.7861 20.0721 17.6836 20.5514 17.6836C20.8708 17.6836 21.1732 17.7309 21.3812 17.8133L21.3916 17.8191L30.6518 24.8391C30.6932 24.8705 30.7383 24.8989 30.7859 24.9237L30.8346 24.9489L30.7929 24.982C30.7358 25.0272 30.6628 25.0721 30.5759 25.1151L17.9585 31.3681C17.6121 31.5397 17.1191 31.6423 16.6397 31.6423ZM15.8512 31.4482C16.0488 31.525 16.3356 31.569 16.6397 31.569C17.1047 31.569 17.5818 31.4701 17.9157 31.3045L30.5332 25.0517C30.5943 25.0214 30.6477 24.9904 30.6927 24.9592C30.6585 24.9392 30.626 24.9174 30.5953 24.8941L21.3397 17.8777C21.1427 17.8009 20.856 17.7569 20.5514 17.7569C20.0864 17.7569 19.6094 17.8558 19.2754 18.0214L6.65799 24.2743C6.59715 24.3045 6.54372 24.3354 6.49867 24.3665C6.53254 24.3866 6.5651 24.4084 6.5958 24.4317L15.8512 31.4482Z" fill="#A891D2"/>
    <path d="M16.7282 30.853C16.5194 30.853 16.3072 30.7931 16.162 30.6798L13.0685 28.2648C12.943 28.1668 12.8826 28.0436 12.8986 27.9178C12.9148 27.7908 13.0062 27.6802 13.1562 27.6064L24.7438 21.9035C25.0321 21.7617 25.4652 21.801 25.7094 21.9915L28.8029 24.4065C28.9284 24.5046 28.9888 24.6278 28.9728 24.7534C28.9566 24.8804 28.8651 24.991 28.7152 25.0648L17.1276 30.7678C17.0108 30.8252 16.8703 30.853 16.7282 30.853ZM25.1436 21.9646C25.0308 21.9646 24.9195 21.9861 24.8287 22.0307L13.2412 27.7337C13.1399 27.7835 13.0786 27.8546 13.0685 27.9337C13.0586 28.0116 13.0995 28.0906 13.1835 28.1562L16.277 30.5712C16.4669 30.7195 16.8175 30.7514 17.0426 30.6405L28.6301 24.9376C28.7314 24.8877 28.7928 24.8167 28.8029 24.7375C28.8127 24.6597 28.772 24.5807 28.6879 24.515L25.5944 22.1001C25.481 22.0116 25.3105 21.9646 25.1436 21.9646Z" fill="#673192"/>
    <path d="M16.9386 28.784L15.9971 29.2473L15.3082 28.7094L16.2496 28.2461L16.9386 28.784Z" fill="#673192"/>
    <path d="M18.8636 27.8367L17.9222 28.3L17.2332 27.7622L18.1746 27.2988L18.8636 27.8367Z" fill="#673192"/>
    <path d="M20.7887 26.8894L19.8473 27.3528L19.1583 26.8149L20.0997 26.3516L20.7887 26.8894Z" fill="#673192"/>
    <path d="M22.7125 25.9422L21.7711 26.4055L21.0821 25.8676L22.0235 25.4043L22.7125 25.9422Z" fill="#673192"/>
    <path d="M24.6376 24.9949L23.6961 25.4582L23.0071 24.9204L23.9486 24.457L24.6376 24.9949Z" fill="#673192"/>
    <path d="M26.5627 24.0476L25.6212 24.511L24.9323 23.9731L25.8737 23.5098L26.5627 24.0476Z" fill="#673192"/>
    <path d="M16.9386 28.616L15.9971 29.0793L15.3082 28.5414L16.2496 28.0781L16.9386 28.616Z" fill="#673192"/>
    <path d="M18.8636 27.6687L17.9222 28.1321L17.2332 27.5942L18.1746 27.1309L18.8636 27.6687Z" fill="#673192"/>
    <path d="M20.7887 26.7215L19.8473 27.1848L19.1583 26.6469L20.0997 26.1836L20.7887 26.7215Z" fill="#673192"/>
    <path d="M22.7125 25.7742L21.7711 26.2375L21.0821 25.6996L22.0235 25.2363L22.7125 25.7742Z" fill="#673192"/>
    <path d="M24.6376 24.8269L23.6961 25.2903L23.0071 24.7524L23.9486 24.2891L24.6376 24.8269Z" fill="#673192"/>
    <path d="M26.5627 23.8797L25.6212 24.343L24.9323 23.8051L25.8737 23.3418L26.5627 23.8797Z" fill="#673192"/>
    <path d="M21.6383 27.3544L16.7239 29.773L16.3776 29.5026L21.2919 27.084L21.6383 27.3544Z" fill="#673192"/>
    <path d="M27.2898 24.5731L22.4904 26.9352L22.144 26.6648L26.9435 24.3027L27.2898 24.5731Z" fill="#673192"/>
    <path d="M18.0541 26.7925L15.459 28.0697L15.1869 27.8573L17.782 26.5801L18.0541 26.7925Z" fill="#673192"/>
    <path d="M21.4795 25.107L18.8845 26.3842L18.6123 26.1717L21.2074 24.8945L21.4795 25.107Z" fill="#673192"/>
    <path d="M24.9037 23.4214L22.3086 24.6986L22.0364 24.4862L24.6315 23.209L24.9037 23.4214Z" fill="#673192"/>
    <path d="M7.69806 30.4345C7.69806 30.8122 8.00695 31.2714 8.38796 31.4602C8.76899 31.6491 9.07788 31.496 9.07788 31.1183C9.07788 30.7407 8.76899 30.2814 8.38796 30.0926C8.00695 29.9038 7.69806 30.0569 7.69806 30.4345Z" fill="#673192"/>
    <path d="M8.11083 30.0146C8.07346 30.0803 8.05197 30.1622 8.05197 30.2601C8.05197 30.6378 8.36084 31.097 8.74187 31.2858C8.8406 31.3348 8.93406 31.3598 9.01898 31.3648C8.91218 31.5525 8.67026 31.6011 8.38796 31.4612C8.00695 31.2724 7.69806 30.8132 7.69806 30.4355C7.69806 30.1557 7.86803 30.0001 8.11083 30.0146Z" fill="#62468B"/>
    <path d="M6.17995 34.4206C6.31304 34.4206 6.42073 34.3281 6.42073 34.2139V31.9465L8.76573 30.7843C8.88096 30.7272 8.92034 30.6008 8.85391 30.5019C8.78748 30.4028 8.64004 30.3691 8.52495 30.4262L6.05954 31.6482C5.98501 31.6852 5.93915 31.7534 5.93915 31.8272V34.2139C5.93915 34.3281 6.04684 34.4206 6.17995 34.4206Z" fill="url(#paint25_linear_4546_24768)"/>
    <path d="M10.3055 31.749C10.3055 32.1266 10.6144 32.5858 10.9954 32.7747C11.3765 32.9635 11.6854 32.8104 11.6854 32.4328C11.6854 32.0551 11.3765 31.5959 10.9954 31.407C10.6144 31.2182 10.3055 31.3713 10.3055 31.749Z" fill="#673192"/>
    <path d="M10.7183 31.329C10.6809 31.3947 10.6595 31.4767 10.6595 31.5745C10.6595 31.9522 10.9683 32.4114 11.3494 32.6003C11.4481 32.6492 11.5415 32.6742 11.6265 32.6793C11.5197 32.867 11.2777 32.9156 10.9954 32.7757C10.6144 32.5868 10.3055 32.1276 10.3055 31.7499C10.3055 31.4702 10.4755 31.3146 10.7183 31.329Z" fill="#62468B"/>
    <path d="M8.7878 35.735C8.92089 35.735 9.02858 35.6426 9.02858 35.5283V33.261L11.3736 32.0988C11.4888 32.0416 11.5282 31.9153 11.4618 31.8164C11.3953 31.7173 11.2479 31.6836 11.1328 31.7407L8.66739 32.9627C8.59284 32.9996 8.547 33.0678 8.547 33.1417V35.5283C8.547 35.6426 8.65469 35.735 8.7878 35.735Z" fill="url(#paint26_linear_4546_24768)"/>
    <path d="M23.6092 19.8468L11.2235 25.985C10.9958 26.0979 10.5944 26.0836 10.3315 25.9533C10.0686 25.823 10.0397 25.6241 10.2674 25.5112L22.6531 19.373C22.8808 19.2602 23.2822 19.2744 23.5452 19.4047C23.8081 19.5351 23.8369 19.734 23.6092 19.8468Z" fill="#F0CDA8"/>
    <path d="M23.6085 19.8475L11.2228 25.9857C10.9951 26.0985 10.5937 26.0842 10.3308 25.9539C10.1999 25.8891 10.1272 25.8072 10.1151 25.7274C10.1154 25.7303 10.1147 25.7332 10.1151 25.7361V26.5921C10.1231 26.6746 10.1951 26.7601 10.3308 26.8273C10.5937 26.9576 10.9951 26.9719 11.2228 26.859L23.6085 20.7208C23.7228 20.6641 23.7723 20.5858 23.7601 20.5052V19.6492C23.7598 19.6463 23.7605 19.6435 23.7601 19.6406C23.7675 19.718 23.7187 19.7929 23.6085 19.8475Z" fill="#62468B"/>
    <path d="M10.2674 25.7607L22.653 19.6225C22.8807 19.5097 23.2822 19.524 23.5451 19.6543C23.6178 19.6903 23.6707 19.7317 23.7071 19.7749C23.815 19.6614 23.7589 19.5107 23.5451 19.4047C23.2822 19.2744 22.8807 19.2602 22.653 19.373L10.2674 25.5112C10.1026 25.5929 10.074 25.7194 10.1694 25.8327C10.1942 25.8066 10.2248 25.7818 10.2674 25.7607Z" fill="#EE9D05"/>
    <path d="M22.2183 20.325L11.6439 25.5655C10.7348 26.0161 9.99097 25.5334 9.99097 24.4929V8.12041C9.99097 7.0799 10.7348 5.85995 11.6439 5.40939L22.2183 0.16885C23.1274 -0.281709 23.8712 0.200984 23.8712 1.24147V17.614C23.8712 18.6545 23.1274 19.8744 22.2183 20.325Z" fill="url(#paint27_linear_4546_24768)"/>
    <path d="M11.4643 13.5104C11.4126 13.5104 11.3633 13.4993 11.3187 13.4772C11.2036 13.4202 11.1376 13.2962 11.1376 13.1373V8.73491C11.1376 8.45526 11.3315 8.14005 11.5791 8.01733L22.2155 2.74602C22.3385 2.68513 22.4613 2.67882 22.5615 2.72847C22.6765 2.78555 22.7425 2.90942 22.7425 3.06839V7.47067C22.7425 7.75043 22.5486 8.06568 22.301 8.18833L11.6646 13.4596C11.5965 13.4934 11.5285 13.5104 11.4643 13.5104ZM22.4153 2.84209C22.3742 2.84209 22.3328 2.85727 22.301 2.8731L11.6646 8.14441C11.4716 8.24007 11.3085 8.51049 11.3085 8.73492V13.1373C11.3085 13.2409 11.3442 13.3205 11.4041 13.3501C11.4621 13.3789 11.5312 13.3563 11.5791 13.3326L22.2155 8.06125C22.4085 7.9657 22.5716 7.69519 22.5716 7.47068V3.06839C22.5716 2.96479 22.5359 2.88519 22.476 2.85555C22.4567 2.84596 22.436 2.84209 22.4153 2.84209Z" fill="#673192"/>
    <path d="M11.4642 19.8951C11.4126 19.8951 11.3633 19.8842 11.3187 19.862C11.2036 19.805 11.1376 19.6811 11.1376 19.522V15.1197C11.1376 14.8401 11.3315 14.5249 11.5791 14.4021L22.2155 9.13083C22.3385 9.06986 22.4613 9.06363 22.5614 9.1132C22.6765 9.17022 22.7425 9.29415 22.7425 9.45319V13.8555C22.7425 14.1352 22.5486 14.4504 22.301 14.5731L11.6646 19.8444C11.5965 19.8781 11.5284 19.8951 11.4642 19.8951ZM22.4154 9.22688C22.3742 9.22688 22.3329 9.24208 22.301 9.25792L11.6646 14.5292C11.4716 14.6249 11.3085 14.8953 11.3085 15.1197V19.522C11.3085 19.6257 11.3442 19.7053 11.4041 19.7349C11.4621 19.7638 11.5311 19.7412 11.5791 19.7173L22.2155 14.4461C22.4085 14.3504 22.5716 14.0799 22.5716 13.8555V9.45319C22.5716 9.34954 22.5359 9.26995 22.476 9.24028C22.4567 9.23069 22.4361 9.22688 22.4154 9.22688Z" fill="#673192"/>
    <path d="M19.5095 15.4116L14.3719 17.9577C14.2984 17.9942 14.2382 17.9551 14.2382 17.8709C14.2382 17.7867 14.2984 17.688 14.3719 17.6516L19.5095 15.1055C19.583 15.069 19.6432 15.1081 19.6432 15.1923C19.6432 15.2764 19.583 15.3751 19.5095 15.4116Z" fill="#006F05"/>
    <path d="M21.8478 5.09051L16.6769 7.65314C16.6125 7.68505 16.5599 7.65086 16.5599 7.57716C16.5599 7.50346 16.6125 7.41705 16.6769 7.38512L21.8478 4.82251C21.9122 4.79059 21.9649 4.82478 21.9649 4.89847C21.9649 4.97219 21.9122 5.05859 21.8478 5.09051Z" fill="#006F05"/>
    <path d="M21.8311 5.812L16.6936 8.35811C16.62 8.39456 16.5599 8.35552 16.5599 8.27132C16.5599 8.18713 16.62 8.08842 16.6936 8.05197L21.8311 5.50585C21.9047 5.46939 21.9649 5.50846 21.9649 5.59264C21.9649 5.67683 21.9047 5.77553 21.8311 5.812Z" fill="#006F05"/>
    <path d="M21.8311 6.52294L16.6936 9.06906C16.62 9.1055 16.5599 9.06644 16.5599 8.98225C16.5599 8.89807 16.62 8.79935 16.6936 8.76289L21.8311 6.21679C21.9047 6.18033 21.9649 6.21939 21.9649 6.30358C21.9649 6.38778 21.9047 6.48648 21.8311 6.52294Z" fill="#006F05"/>
    <path d="M13.9858 11.093C13.1339 11.5152 12.4434 11.173 12.4434 10.3286C12.4434 10.1954 12.4606 10.0575 12.493 9.9183C12.3323 9.91506 12.1661 9.91055 12.0155 9.9043C11.9497 10.1373 11.9136 10.3689 11.9136 10.5911C11.9136 11.7254 12.8414 12.1852 13.9858 11.6181C14.024 11.5991 14.0619 11.5792 14.0996 11.5585V11.0321C14.062 11.0534 14.0241 11.074 13.9858 11.093Z" fill="#F0CDA8"/>
    <path d="M13.9863 8.03555C14.5187 7.77171 14.988 7.80641 15.2652 8.07562L15.7586 7.62126C15.3952 7.20839 14.7374 7.13826 13.9863 7.51051C13.0661 7.96657 12.2864 8.94779 12.0161 9.90449C12.1666 9.91074 12.3328 9.91525 12.4935 9.91849C12.6659 9.17543 13.2689 8.39109 13.9863 8.03555Z" fill="#006F05"/>
    <path d="M16.0582 8.53727C16.0582 8.14744 15.9486 7.8373 15.7583 7.62109L15.2649 8.07546C15.4313 8.23705 15.5285 8.4831 15.5285 8.79979C15.5285 9.60617 14.8985 10.5785 14.0998 11.0321V11.5585C15.1913 10.959 16.0582 9.63374 16.0582 8.53727Z" fill="#EE9D05"/>
    <path d="M15.3714 16.0897L14.1515 15.1831L14.2405 15.0684L15.3828 15.9173L17.2425 13.239L18.8033 13.5226L20.2759 11.4395L20.3534 11.4839L18.8142 13.6613L17.2543 13.378L15.3714 16.0897Z" fill="#006F05"/>
    <path d="M20.5081 11.7484L20.7528 10.8418L19.9442 11.4251L20.5081 11.7484Z" fill="#006F05"/>
    <path d="M14.5753 14.9376C14.5753 15.1453 14.4054 15.3979 14.1959 15.5018C13.9863 15.6056 13.8164 15.5214 13.8164 15.3137C13.8164 15.106 13.9863 14.8534 14.1959 14.7496C14.4054 14.6457 14.5753 14.7299 14.5753 14.9376Z" fill="#F0CDA8"/>
    <path d="M15.7559 15.8165C15.7559 16.0242 15.586 16.2768 15.3764 16.3807C15.1668 16.4845 14.9969 16.4003 14.9969 16.1926C14.9969 15.9849 15.1668 15.7323 15.3764 15.6285C15.586 15.5246 15.7559 15.6088 15.7559 15.8165Z" fill="#EE9D05"/>
    <path d="M17.6272 13.1193C17.6272 13.327 17.4573 13.5795 17.2478 13.6834C17.0382 13.7873 16.8683 13.7031 16.8683 13.4954C16.8683 13.2877 17.0382 13.0351 17.2478 12.9312C17.4573 12.8273 17.6272 12.9115 17.6272 13.1193Z" fill="#006F05"/>
    <path d="M19.1887 13.4025C19.1887 13.6102 19.0188 13.8628 18.8093 13.9666C18.5997 14.0705 18.4298 13.9863 18.4298 13.7786C18.4298 13.5708 18.5997 13.3183 18.8093 13.2144C19.0188 13.1105 19.1887 13.1947 19.1887 13.4025Z" fill="#F0CDA8"/>
    <path d="M13.7598 17.4001L11.9606 18.2917V17.2588L13.7598 16.3672V17.4001Z" fill="#EE9D05"/>
    <path d="M21.9097 13.361L20.1106 14.2527V13.2198L21.9097 12.3281V13.361Z" fill="#006F05"/>
    <path style="mix-blend-mode:color-dodge" d="M34.8265 15.6204C34.7894 15.3147 34.9716 15.0019 35.3762 14.7683C36.1177 14.3402 37.3198 14.3402 38.0613 14.7683C38.4659 15.0019 38.648 15.3147 38.611 15.6203V31.002C38.648 31.3076 38.4659 31.6204 38.0613 31.854C37.3198 32.2821 36.1177 32.2821 35.3762 31.854C34.9716 31.6204 34.7894 31.3076 34.8265 31.002V15.6204Z" fill="url(#paint28_linear_4546_24768)"/>
    <path style="mix-blend-mode:color-dodge" d="M19.3935 24.5442C19.3565 24.2386 19.5386 23.9258 19.9432 23.6922C20.6847 23.2641 21.8868 23.2641 22.6283 23.6922C23.033 23.9258 23.2151 24.2386 23.178 24.5442V39.9258C23.2151 40.2314 23.0329 40.5442 22.6283 40.7778C21.8868 41.2059 20.6847 41.2059 19.9432 40.7778C19.5386 40.5442 19.3565 40.2314 19.3935 39.9258V24.5442Z" fill="url(#paint29_linear_4546_24768)"/>
    <path d="M24.5207 34.5236C24.5109 34.6926 24.766 34.9298 25.1543 35.154C25.6709 35.4522 25.8539 35.8301 26.4923 35.4615C26.6751 35.356 26.7516 35.272 26.756 35.199V34.8019C26.7739 34.6173 26.3312 34.5024 25.9598 34.288C25.4432 33.9897 24.8868 33.8274 24.6217 33.9805C24.5544 34.0193 24.5226 34.0691 24.5207 34.1266V34.5236Z" fill="#010400"/>
    <path d="M25.1544 34.753C24.6379 34.4547 24.3568 34.1335 24.6218 33.9805C24.8869 33.8274 25.4434 33.9897 25.9599 34.288C26.4765 34.5862 27.131 34.6918 26.4925 35.0605C25.854 35.4291 25.671 35.0512 25.1544 34.753Z" fill="#EE9D05"/>
    <path d="M25.9564 33.5354C25.9466 33.7043 26.2017 33.9415 26.59 34.1657C27.1066 34.4639 27.2896 34.8418 27.9281 34.4732C28.1108 34.3677 28.1873 34.2837 28.1918 34.2107V33.8136C28.2097 33.629 27.7669 33.5141 27.3955 33.2997C26.8789 33.0014 26.3225 32.8391 26.0574 32.9922C25.9901 33.0311 25.9583 33.0809 25.9564 33.1384L25.9564 33.5354Z" fill="#010400"/>
    <path d="M26.5902 33.7647C26.0736 33.4665 25.7925 33.1452 26.0576 32.9922C26.3227 32.8391 26.8791 33.0014 27.3956 33.2997C27.9122 33.5979 28.5667 33.7036 27.9282 34.0722C27.2897 34.4408 27.1067 34.0629 26.5902 33.7647Z" fill="#EE9D05"/>
    <path d="M28.4473 30.1765C28.2155 30.2014 28.0055 30.0322 27.9805 29.8004L27.6262 26.5083C27.6013 26.2765 27.7705 26.0665 28.0023 26.0415C28.2341 26.0166 28.4442 26.1858 28.4691 26.4176L28.8234 29.7097C28.8484 29.9415 28.6791 30.1516 28.4473 30.1765Z" fill="#EE9D05"/>
    <path d="M28.7558 26.9113L28.6415 25.8492C28.6029 25.4906 28.278 25.2289 27.9195 25.2674C27.5609 25.306 27.2992 25.6309 27.3378 25.9895L27.4521 27.0516C27.4521 27.0516 27.975 27.6053 28.7558 26.9113Z" fill="#673192"/>
    <path d="M26.7372 34.6202C26.7578 34.5807 26.7668 34.5363 26.7668 34.4917V30.062C26.7668 29.7819 26.478 29.5527 26.125 29.5527C25.7719 29.5527 25.4831 29.7819 25.4831 30.062V34.8788C25.4831 34.9499 25.5291 35.013 25.5972 35.0336C25.8434 35.1081 26.4272 35.2146 26.7372 34.6202Z" fill="url(#paint30_linear_4546_24768)"/>
    <path d="M28.1277 33.5968C28.1483 33.5573 28.1573 33.5128 28.1573 33.4683V29.0386C28.1573 28.7585 27.8685 28.5293 27.5154 28.5293C27.1624 28.5293 26.8735 28.7585 26.8735 29.0386V33.8554C26.8735 33.9265 26.9195 33.9896 26.9876 34.0102C27.2338 34.0847 27.8177 34.1912 28.1277 33.5968Z" fill="url(#paint31_linear_4546_24768)"/>
    <path d="M25.6951 30.8596C25.7108 30.8696 25.7289 30.876 25.7493 30.8776C26.0332 30.8995 27.0534 30.6773 28.0741 29.5269C28.1582 29.4322 28.2125 29.3036 28.2125 29.1961V25.9317C28.2125 25.6856 28.1246 25.513 27.9833 25.4334L27.2157 24.9857C27.0761 24.9025 26.8823 24.9125 26.6688 25.0357L25.622 25.6401C25.1993 25.8841 24.8535 26.4831 24.8535 26.9712V30.2547C24.8535 30.3312 24.8809 30.3873 24.9275 30.4118L25.6951 30.8596Z" fill="#673192"/>
    <path d="M25.9928 25.8417C25.9913 25.9229 26.0438 26.0043 26.1511 26.0663C26.3624 26.1883 26.7051 26.1883 26.9165 26.0663C27.0238 26.0044 27.0763 25.9229 27.0747 25.8418V25.1305C27.0763 25.0493 27.0238 24.9679 26.9165 24.906C26.7051 24.7839 26.3624 24.7839 26.1511 24.906C26.0438 24.9679 25.9913 25.0493 25.9928 25.1305V25.8417Z" fill="#E9910A"/>
    <path d="M27.9893 24.3129C28.1635 23.5085 27.6526 22.7152 26.8482 22.541C26.0438 22.3669 25.2505 22.8778 25.0764 23.6822C24.9022 24.4866 25.4131 25.2798 26.2175 25.454C27.0219 25.6282 27.8152 25.1172 27.9893 24.3129Z" fill="#EE9D05"/>
    <path d="M22.5557 26.7746C22.5551 26.5414 22.7454 26.3502 22.9785 26.3496L24.6769 26.3516C24.9101 26.351 25.1013 26.5413 25.1019 26.7744C25.1025 27.0076 24.9122 27.1988 24.6791 27.1994L22.9807 27.1974C22.7476 27.198 22.5563 27.0077 22.5557 26.7746Z" fill="#EE9D05"/>
    <path d="M24.1575 27.4331L25.2258 27.4304C25.5864 27.4295 25.8807 27.1337 25.8798 26.7731C25.8789 26.4125 25.5831 26.1182 25.2225 26.1191L24.1542 26.1219C24.1542 26.1219 23.549 26.5841 24.1575 27.4331Z" fill="#673192"/>
    <path d="M21.5274 24.8576C21.7129 24.7164 21.9803 24.7527 22.1214 24.9382L23.3018 26.4961C23.4429 26.6817 23.4066 26.949 23.2211 27.0902C23.0356 27.2313 22.7683 27.195 22.6271 27.0095L21.4467 25.4516C21.3056 25.2661 21.3419 24.9987 21.5274 24.8576Z" fill="#EE9D05"/>
    <path fill-rule="evenodd" clip-rule="evenodd" d="M27.373 25.3551C26.9031 25.6289 26.5439 25.4209 26.4162 25.2225C26.0947 24.724 26.0413 25.0566 25.8497 24.8219C25.5985 24.4093 25.6549 23.8468 25.3066 23.587C24.8068 23.2139 24.9437 22.4712 26.2473 22.1388C27.9989 21.6922 28.6891 23.8993 27.5959 25.175C27.5175 25.2663 27.4771 25.2943 27.373 25.3551Z" fill="#CA7F0B"/>
    <path d="M26.0124 24.8836C25.8868 25.0092 25.7476 24.9719 25.7016 24.8003C25.6556 24.6286 25.7202 24.3876 25.8458 24.2619C25.9715 24.1363 26.1107 24.1735 26.1567 24.3452C26.2027 24.5169 26.1381 24.7579 26.0124 24.8836Z" fill="#EE9D05"/>
    <path d="M47.8643 38.8747C48.0767 38.8264 48.2109 38.613 48.1625 38.4006L47.8044 36.8549C47.756 36.6426 47.5426 36.5084 47.3303 36.5567C47.1179 36.6051 46.9837 36.8185 47.0321 37.0308L47.3903 38.5765C47.4386 38.7889 47.652 38.9231 47.8643 38.8747Z" fill="#EE9D05"/>
    <path d="M46.9292 37.5537L46.7075 36.5806C46.6327 36.2521 46.8402 35.9221 47.1687 35.8473C47.4972 35.7725 47.8271 35.98 47.9019 36.3085L48.1236 37.2816C48.1236 37.2816 47.8298 37.9296 46.9292 37.5537Z" fill="#673192"/>
    <path d="M49.8272 39.4079C49.9168 39.2094 49.8277 38.9737 49.6291 38.8841L47.9632 38.1364C47.7647 38.0468 47.529 38.136 47.4393 38.3345C47.3498 38.533 47.4389 38.7688 47.6374 38.8584L49.3033 39.606C49.5019 39.6956 49.7376 39.6065 49.8272 39.4079Z" fill="#EE9D05"/>
    <path d="M46.5914 40.1287C46.6135 40.1632 46.6449 40.1908 46.6805 40.2112L48.735 41.3866C48.9588 41.515 49.2743 41.3893 49.4361 41.1073C49.5979 40.8253 49.5473 40.4895 49.3235 40.3611L46.9598 39.0082C46.903 38.9756 46.8314 38.9834 46.7838 39.0284C46.6114 39.1909 46.2587 39.6085 46.5914 40.1287Z" fill="#673192"/>
    <path d="M45.231 40.8259C45.2531 40.8605 45.2845 40.8881 45.3201 40.9085L47.3746 42.0839C47.5984 42.2123 47.9139 42.0866 48.0757 41.8046C48.2375 41.5226 48.1869 41.1867 47.9631 41.0583L45.5994 39.7055C45.5426 39.6729 45.471 39.6807 45.4234 39.7256C45.251 39.8882 44.8983 40.3058 45.231 40.8259Z" fill="#673192"/>
    <path d="M45.4348 41.0673C45.4494 41.0765 45.466 41.0824 45.4848 41.0839C45.7462 41.1041 46.6859 40.8994 47.6261 39.8399C47.7035 39.7526 47.7535 39.6342 47.7535 39.5351V36.5285C47.7535 36.3019 47.6725 36.1429 47.5424 36.0696L46.8354 35.6572C46.7068 35.5806 46.5283 35.5897 46.3317 35.7033L45.3675 36.2599C44.9783 36.4847 44.6597 37.0364 44.6597 37.4859V40.5102C44.6597 40.5806 44.6849 40.6323 44.7279 40.6549L45.4348 41.0673Z" fill="#704A9A"/>
    <path d="M47.0359 44.9842C47.0188 45.1545 47.4268 45.2603 47.7691 45.458C48.2449 45.7326 48.7574 45.8821 49.0016 45.7412C49.0634 45.7055 49.0927 45.6598 49.0947 45.6071L49.0946 45.3278C49.1032 45.1696 48.8681 44.9286 48.511 44.5807C48.1176 44.1972 47.8667 43.9579 47.2786 44.2975C47.1106 44.3945 47.0431 44.4671 47.0423 44.5291L47.0359 44.9842Z" fill="#010400"/>
    <path d="M48.5105 44.5807C48.9858 45.0438 49.2452 45.3175 49.001 45.4585C48.7569 45.5994 48.2692 45.3872 47.7686 45.009C47.3303 44.6778 46.69 44.637 47.2781 44.2975C47.8662 43.9579 48.1171 44.1972 48.5105 44.5807Z" fill="#483162"/>
    <path d="M48.1305 44.246C48.1495 44.2097 48.1578 44.1687 48.1578 44.1277V41.3792C48.1578 41.1212 47.8918 40.9102 47.5666 40.9102C47.2415 40.9102 46.9754 41.1212 46.9754 41.3792V44.4842C46.9754 44.5497 47.0178 44.6078 47.0805 44.6268C47.3073 44.6954 47.845 44.7935 48.1305 44.246Z" fill="#673192"/>
    <path d="M45.5417 36.4462C45.5402 36.5209 45.5887 36.596 45.6874 36.653C45.8821 36.7654 46.1978 36.7654 46.3924 36.653C46.4912 36.5959 46.5396 36.5209 46.5382 36.4462V35.7911C46.5396 35.7163 46.4912 35.6413 46.3924 35.5843C46.1978 35.4719 45.8821 35.4719 45.6874 35.5843C45.5887 35.6413 45.5402 35.7163 45.5417 35.7911V36.4462Z" fill="#F0A63C"/>
    <path d="M47.4261 34.7456C47.4261 35.5036 46.8115 36.1181 46.0535 36.1181C45.2955 36.1181 44.681 35.5036 44.681 34.7456C44.681 33.9876 45.2955 33.373 46.0535 33.373C46.8115 33.373 47.4261 33.9876 47.4261 34.7456Z" fill="#EE9D05"/>
    <path fill-rule="evenodd" clip-rule="evenodd" d="M44.9083 33.1226C43.7356 33.5253 44.3187 35.2384 45.1718 35.8563C45.589 35.6283 45.0817 35.2203 45.6508 35.5042C45.7641 34.9525 45.5095 35.1206 45.6639 34.4269C46.2602 34.738 47.4212 34.3609 47.6014 33.786C47.3937 33.6938 47.176 33.1038 46.6901 32.8874C46.0648 32.6088 45.2643 32.7318 44.9083 33.1226Z" fill="#E48F0A"/>
    <path d="M45.5953 35.5167C45.5953 35.6804 45.4804 35.7468 45.3387 35.6649C45.1969 35.5831 45.082 35.384 45.082 35.2203C45.082 35.0567 45.1969 34.9903 45.3387 35.0722C45.4804 35.154 45.5953 35.3531 45.5953 35.5167Z" fill="#EE9D05"/>
    <path d="M45.3056 34.8626V35.0796L45.385 35.1255V35.0002L46.0476 35.3827C46.0494 35.6098 46.2098 35.7016 46.4078 35.5873C46.5947 35.4794 46.7483 35.2266 46.7666 35.0059L46.8823 34.939C46.9021 35.136 47.0549 35.2099 47.2406 35.1027C47.4398 34.9877 47.6012 34.7081 47.6012 34.4781C47.6012 34.2482 47.4398 34.155 47.2406 34.27C47.0549 34.3772 46.9021 34.6275 46.8823 34.8473L46.7657 34.9147C46.7444 34.7204 46.5924 34.6479 46.4078 34.7545C46.2325 34.8558 46.0867 35.0846 46.0542 35.2948L45.3056 34.8626ZM46.9685 34.8432C46.9686 34.6697 47.0904 34.4588 47.2406 34.3721C47.3909 34.2853 47.5128 34.3556 47.5128 34.5292C47.5128 34.7028 47.3909 34.9138 47.2406 35.0006C47.0904 35.0873 46.9686 35.0166 46.9685 34.8432ZM46.1357 35.328C46.1357 35.1544 46.2575 34.9434 46.4078 34.8566C46.5581 34.7698 46.68 34.8402 46.68 35.0138C46.68 35.1873 46.5581 35.3984 46.4078 35.4851C46.2575 35.5719 46.1357 35.5016 46.1357 35.328Z" fill="#1F1F1F"/>
    <path d="M50.2865 40.0045L47.5269 41.5923L45.4103 40.4383L48.2346 38.8223L50.2865 40.0045Z" fill="#62468B"/>
    <path d="M50.286 40.0033L50.7201 37.2363L47.6567 39.0027L47.5265 41.5911L50.286 40.0033Z" fill="url(#paint32_linear_4546_24768)"/>
    <path d="M45.0287 39.8999C45.2465 39.8971 45.4223 39.7166 45.4195 39.4988L45.3928 37.9123C45.39 37.6945 45.2095 37.5187 44.9917 37.5215C44.7739 37.5244 44.598 37.7049 44.6009 37.9227L44.6275 39.5091C44.6304 39.7269 44.8109 39.9028 45.0287 39.8999Z" fill="#EE9D05"/>
    <path d="M44.3905 38.4134L44.3775 37.4154C44.3731 37.0786 44.6451 36.7994 44.982 36.795C45.3188 36.7906 45.598 37.0626 45.6024 37.3994L45.6155 38.3974C45.6155 38.3974 45.1925 38.9695 44.3905 38.4134Z" fill="#673192"/>
    <path d="M46.8353 40.8334C46.9644 40.658 46.9266 40.4088 46.7512 40.2796L45.2788 39.1998C45.1034 39.0706 44.8542 39.1084 44.7251 39.2838C44.5959 39.4592 44.6337 39.7083 44.8091 39.8375L46.2815 40.9174C46.4569 41.0465 46.7061 41.0087 46.8353 40.8334Z" fill="#EE9D05"/>
    <path d="M30.9408 36.3717C30.8911 36.3935 30.8719 36.4542 30.8674 36.5391C30.8661 36.5634 31.1197 36.3935 31.1104 36.4801C31.1076 36.5052 30.9256 37.731 31.3165 38.1372C31.3598 38.1822 31.4178 38.1716 31.4588 38.1505L31.5657 38.09C31.69 38.0285 31.7725 37.7453 31.8841 37.323C32.007 36.8577 32.0815 36.5633 31.5692 36.261C31.4228 36.1746 31.3383 36.1545 31.2907 36.1805L30.9408 36.3717Z" fill="#010400"/>
    <path d="M31.884 37.3232C31.7355 37.8852 31.6385 38.201 31.4258 38.0755C31.2131 37.95 31.1649 37.4866 31.2377 36.9419C31.3014 36.4649 31.0567 35.9589 31.5691 36.2612C32.0814 36.5635 32.0069 36.8579 31.884 37.3232Z" fill="#EE9D05"/>
    <path d="M35.1877 33.7285L34.1357 34.1134L33.7086 34.5986C33.7086 34.5986 32.951 34.9164 32.3559 35.5425C32.3559 35.5425 32.1288 35.8736 31.3807 36.2561C31.3807 36.2561 31.3792 36.7793 31.8472 36.8636L34.8453 35.1379C35.0551 35.0171 35.1939 34.8037 35.2198 34.5631C35.2408 34.369 35.241 34.0981 35.1877 33.7285Z" fill="#EC9706"/>
    <path d="M32.9756 39.0293C32.9701 39.0833 33.0135 39.1298 33.0852 39.1755C33.1058 39.1886 33.0825 38.8841 33.1534 38.9349C33.1739 38.9496 34.1516 39.711 34.6975 39.5704C34.7581 39.5548 34.7774 39.4991 34.7791 39.453L34.779 39.3302C34.7866 39.1917 34.5806 38.9806 34.2678 38.6758C33.9232 38.3399 33.7034 38.1302 33.1882 38.4277C33.041 38.5127 32.9819 38.5763 32.9812 38.6306L32.9756 39.0293Z" fill="#010400"/>
    <path d="M34.2681 38.6758C34.6845 39.0815 34.9117 39.3213 34.6979 39.4448C34.484 39.5682 34.0567 39.3823 33.6182 39.051C33.2343 38.7609 32.6734 38.7251 33.1885 38.4277C33.7037 38.1302 33.9235 38.3399 34.2681 38.6758Z" fill="#EE9D05"/>
    <path d="M33.8498 38.4811L33.8193 34.7344L32.8032 35.0638L32.7931 35.7464C32.7931 35.7464 32.6972 36.5623 32.9496 37.3884C32.9496 37.3884 33.1263 37.749 33.0913 38.5885C33.0913 38.5885 33.5462 38.8471 33.8498 38.4811Z" fill="#EE9D05"/>
    <path d="M36.6201 33.2326C36.4168 33.3248 36.175 33.2339 36.0828 33.0307L34.4747 29.4777C34.3825 29.2744 34.4733 29.0326 34.6766 28.9404C34.8799 28.8481 35.1217 28.939 35.2139 29.1423L36.822 32.6952C36.9142 32.8985 36.8234 33.1403 36.6201 33.2326Z" fill="#EC9706"/>
    <path d="M36.7771 32.8282L34.259 31.3744V29.3438L36.7771 30.7976V32.8282Z" fill="url(#paint33_linear_4546_24768)"/>
    <path d="M36.1575 32.2807V30.7402L36.2114 30.7714V32.3119L36.1575 32.2807Z" fill="#673192"/>
    <path d="M36.035 31.7541V30.6699L36.089 30.701V31.7852L36.035 31.7541Z" fill="#673192"/>
    <path d="M35.9139 32.0213L35.9139 30.5996L35.9678 30.6307V32.0524L35.9139 32.0213Z" fill="#673192"/>
    <path d="M35.7914 32.0698L35.7915 30.5293L35.8454 30.5604V32.101L35.7914 32.0698Z" fill="#673192"/>
    <path d="M35.6703 31.0234V30.459L35.7242 30.4901L35.7242 31.0545L35.6703 31.0234Z" fill="#673192"/>
    <path d="M32.1426 33.8606V35.2441C32.1426 35.2441 33.7639 35.7915 35.2878 33.8606V32.5215L32.1426 33.8606Z" fill="#F0CDA8"/>
    <path d="M34.9668 29.4614C34.8522 29.2533 34.7344 29.044 34.6201 28.8324L34.3331 28.665C34.1994 28.5854 34.0139 28.5949 33.8094 28.7129L32.8072 29.2916C32.4025 29.5252 32.0714 30.0987 32.0714 30.566V33.7098C32.0714 33.7831 32.0976 33.8368 32.1423 33.8603L32.8772 34.289C32.8923 34.2986 32.9095 34.3047 32.9291 34.3062C33.2009 34.3272 34.1777 34.1144 35.155 33.0131C35.2355 32.9223 35.2875 32.7992 35.2875 32.6963V30.7131C35.2875 30.2777 35.1798 29.8483 34.9698 29.4669C34.9688 29.465 34.9678 29.4632 34.9668 29.4614Z" fill="#F0CDA8"/>
    <path d="M33.162 29.4855C33.1605 29.5632 33.2108 29.6412 33.3135 29.7005C33.5159 29.8173 33.844 29.8173 34.0464 29.7005C34.1491 29.6412 34.1994 29.5633 34.1979 29.4855V28.8045C34.1994 28.7268 34.1491 28.6489 34.0464 28.5896C33.844 28.4727 33.5159 28.4727 33.3135 28.5896C33.2108 28.6489 33.1605 28.7269 33.162 28.8045V29.4855Z" fill="#E9910A"/>
    <path d="M30.3963 33.957C30.1971 33.8563 30.1165 33.6109 30.2172 33.4117L31.9841 29.91C32.0848 29.7108 32.3302 29.6302 32.5294 29.7309C32.7286 29.8316 32.8092 30.077 32.7085 30.2762L30.9416 33.7779C30.8409 33.9771 30.5955 34.0577 30.3963 33.957Z" fill="#EE9D05"/>
    <path d="M34.9969 27.3295L35.5092 29.3176C35.5569 29.503 35.3722 29.6632 35.1954 29.5897L34.0165 29.0993C33.9145 29.0568 33.8566 28.9484 33.878 28.8401L34.2642 26.8844C34.3052 26.6771 34.5793 26.628 34.6897 26.8082L34.9701 27.2662C34.9822 27.2858 34.9912 27.3072 34.9969 27.3295Z" fill="#673192"/>
    <path d="M33.203 28.5201C33.203 28.6902 33.0835 28.7592 32.9362 28.6741C32.7888 28.589 32.6693 28.3821 32.6693 28.212C32.6693 28.0418 32.7888 27.9728 32.9362 28.0579C33.0835 28.143 33.203 28.3499 33.203 28.5201Z" fill="#EE9D05"/>
    <path d="M33.6727 29.1349C34.4607 29.1349 35.0995 28.4961 35.0995 27.7081C35.0995 26.9201 34.4607 26.2812 33.6727 26.2812C32.8847 26.2812 32.2458 26.9201 32.2458 27.7081C32.2458 28.4961 32.8847 29.1349 33.6727 29.1349Z" fill="#EE9D05"/>
    <path d="M32.2848 27.8979C32.2848 27.8979 33.4905 28.5592 34.0781 26.8392C34.0781 26.8392 34.3924 27.5656 35.1766 27.4052C35.1766 27.4052 35.1766 26.2741 34.0093 26.0546C34.0093 26.0546 31.9454 25.8485 32.2848 27.8979Z" fill="#673192"/>
    <path d="M32.9494 27.9545L33.4617 29.9426C33.5094 30.128 33.3247 30.2882 33.1479 30.2147L31.969 29.7243C31.8671 29.6818 31.8091 29.5734 31.8305 29.4651L32.2168 27.5094C32.2577 27.3021 32.5318 27.253 32.6422 27.4332L32.9226 27.8912C32.9347 27.9108 32.9437 27.9322 32.9494 27.9545Z" fill="#673192"/>
  </g>
  <defs>
    <linearGradient id="paint0_linear_4546_24768" x1="61.3091" y1="43.2075" x2="44.2812" y2="34.0322" gradientUnits="userSpaceOnUse">
      <stop stop-color="#62468B"/>
      <stop offset="0.438405" stop-color="#643A8E"/>
      <stop offset="0.999293" stop-color="#673192"/>
    </linearGradient>
    <linearGradient id="paint1_linear_4546_24768" x1="46.0001" y1="52.0668" x2="28.9722" y2="42.8916" gradientUnits="userSpaceOnUse">
      <stop stop-color="#62468B"/>
      <stop offset="0.438405" stop-color="#643A8E"/>
      <stop offset="0.999293" stop-color="#673192"/>
    </linearGradient>
    <linearGradient id="paint2_linear_4546_24768" x1="41.4503" y1="44.5069" x2="35.2542" y2="44.5263" gradientUnits="userSpaceOnUse">
      <stop stop-color="#673192"/>
      <stop offset="1" stop-color="#5C3877"/>
    </linearGradient>
    <linearGradient id="paint3_linear_4546_24768" x1="37.4191" y1="40.8203" x2="37.4191" y2="45.768" gradientUnits="userSpaceOnUse">
      <stop stop-color="#62468B"/>
      <stop offset="0.438405" stop-color="#643A8E"/>
      <stop offset="0.999293" stop-color="#673192"/>
    </linearGradient>
    <linearGradient id="paint4_linear_4546_24768" x1="43.812" y1="46.5415" x2="39.3182" y2="46.6516" gradientUnits="userSpaceOnUse">
      <stop stop-color="#FDE8FF"/>
      <stop offset="0.999647" stop-color="#A891D2"/>
    </linearGradient>
    <linearGradient id="paint5_linear_4546_24768" x1="43.9784" y1="46.3369" x2="41.5972" y2="47.8633" gradientUnits="userSpaceOnUse">
      <stop stop-color="#FDE8FF"/>
      <stop offset="0.999647" stop-color="#A891D2"/>
    </linearGradient>
    <linearGradient id="paint6_linear_4546_24768" x1="41.8646" y1="47.9097" x2="38.8321" y2="46.4647" gradientUnits="userSpaceOnUse">
      <stop stop-color="#673192"/>
      <stop offset="0.999647" stop-color="#673192"/>
    </linearGradient>
    <linearGradient id="paint7_linear_4546_24768" x1="42.6638" y1="26.3537" x2="55.8923" y2="33.9866" gradientUnits="userSpaceOnUse">
      <stop stop-color="#F0CDA8"/>
      <stop offset="0.079988" stop-color="#E1BEA4" stop-opacity="0.895731"/>
      <stop offset="0.336896" stop-color="#B5939A" stop-opacity="0.581219"/>
      <stop offset="0.566423" stop-color="#927091" stop-opacity="0.33161"/>
      <stop offset="0.760287" stop-color="#79578C" stop-opacity="0.151593"/>
      <stop offset="0.910934" stop-color="#694888" stop-opacity="0.040997"/>
      <stop offset="1" stop-color="#644387" stop-opacity="0"/>
    </linearGradient>
    <linearGradient id="paint8_linear_4546_24768" x1="12.626" y1="43.7658" x2="25.8546" y2="51.3988" gradientUnits="userSpaceOnUse">
      <stop stop-color="#F0CDA8"/>
      <stop offset="0.079988" stop-color="#E1BEA4" stop-opacity="0.895731"/>
      <stop offset="0.336896" stop-color="#B5939A" stop-opacity="0.581219"/>
      <stop offset="0.566423" stop-color="#927091" stop-opacity="0.33161"/>
      <stop offset="0.760287" stop-color="#79578C" stop-opacity="0.151593"/>
      <stop offset="0.910934" stop-color="#694888" stop-opacity="0.040997"/>
      <stop offset="1" stop-color="#644387" stop-opacity="0"/>
    </linearGradient>
    <linearGradient id="paint9_linear_4546_24768" x1="45.5626" y1="44.847" x2="60.8667" y2="54.2225" gradientUnits="userSpaceOnUse">
      <stop stop-color="#F0CDA8"/>
      <stop offset="0.079931" stop-color="#E1BEA4" stop-opacity="0.895731"/>
      <stop offset="0.336658" stop-color="#B5939A" stop-opacity="0.581219"/>
      <stop offset="0.566022" stop-color="#927091" stop-opacity="0.33161"/>
      <stop offset="0.759749" stop-color="#79578C" stop-opacity="0.151593"/>
      <stop offset="0.91029" stop-color="#694888" stop-opacity="0.040997"/>
      <stop offset="0.999293" stop-color="#644387" stop-opacity="0"/>
    </linearGradient>
    <linearGradient id="paint10_linear_4546_24768" x1="-696.432" y1="412.409" x2="-688.907" y2="425.443" gradientUnits="userSpaceOnUse">
      <stop stop-color="#673192"/>
      <stop offset="0.038741" stop-color="#663191" stop-opacity="0.949114"/>
      <stop offset="0.369075" stop-color="#65398C" stop-opacity="0.543961"/>
      <stop offset="0.650736" stop-color="#643E89" stop-opacity="0.248787"/>
      <stop offset="0.869729" stop-color="#644187" stop-opacity="0.067321"/>
      <stop offset="0.999293" stop-color="#644387" stop-opacity="0"/>
    </linearGradient>
    <linearGradient id="paint11_linear_4546_24768" x1="-699.095" y1="413.945" x2="-690.462" y2="426.34" gradientUnits="userSpaceOnUse">
      <stop stop-color="#673192"/>
      <stop offset="0.038741" stop-color="#663191" stop-opacity="0.949114"/>
      <stop offset="0.369075" stop-color="#65398C" stop-opacity="0.543961"/>
      <stop offset="0.650736" stop-color="#643E89" stop-opacity="0.248787"/>
      <stop offset="0.869729" stop-color="#644187" stop-opacity="0.067321"/>
      <stop offset="0.999293" stop-color="#644387" stop-opacity="0"/>
    </linearGradient>
    <linearGradient id="paint12_linear_4546_24768" x1="-699.095" y1="413.946" x2="-690.462" y2="426.341" gradientUnits="userSpaceOnUse">
      <stop stop-color="#673192"/>
      <stop offset="0.038741" stop-color="#663191" stop-opacity="0.949114"/>
      <stop offset="0.369075" stop-color="#65398C" stop-opacity="0.543961"/>
      <stop offset="0.650736" stop-color="#643E89" stop-opacity="0.248787"/>
      <stop offset="0.869729" stop-color="#644187" stop-opacity="0.067321"/>
      <stop offset="0.999293" stop-color="#644387" stop-opacity="0"/>
    </linearGradient>
    <linearGradient id="paint13_linear_4546_24768" x1="-700.362" y1="414.676" x2="-692.836" y2="427.711" gradientUnits="userSpaceOnUse">
      <stop stop-color="#673192"/>
      <stop offset="0.038741" stop-color="#663191" stop-opacity="0.949114"/>
      <stop offset="0.369075" stop-color="#65398C" stop-opacity="0.543961"/>
      <stop offset="0.650736" stop-color="#643E89" stop-opacity="0.248787"/>
      <stop offset="0.869729" stop-color="#644187" stop-opacity="0.067321"/>
      <stop offset="0.999293" stop-color="#644387" stop-opacity="0"/>
    </linearGradient>
    <linearGradient id="paint14_linear_4546_24768" x1="-700.362" y1="414.676" x2="-692.837" y2="427.71" gradientUnits="userSpaceOnUse">
      <stop stop-color="#673192"/>
      <stop offset="0.038741" stop-color="#663191" stop-opacity="0.949114"/>
      <stop offset="0.369075" stop-color="#65398C" stop-opacity="0.543961"/>
      <stop offset="0.650736" stop-color="#643E89" stop-opacity="0.248787"/>
      <stop offset="0.869729" stop-color="#644187" stop-opacity="0.067321"/>
      <stop offset="0.999293" stop-color="#644387" stop-opacity="0"/>
    </linearGradient>
    <linearGradient id="paint15_linear_4546_24768" x1="-700.362" y1="414.677" x2="-692.837" y2="427.711" gradientUnits="userSpaceOnUse">
      <stop stop-color="#673192"/>
      <stop offset="0.038741" stop-color="#663191" stop-opacity="0.949114"/>
      <stop offset="0.369075" stop-color="#65398C" stop-opacity="0.543961"/>
      <stop offset="0.650736" stop-color="#643E89" stop-opacity="0.248787"/>
      <stop offset="0.869729" stop-color="#644187" stop-opacity="0.067321"/>
      <stop offset="0.999293" stop-color="#644387" stop-opacity="0"/>
    </linearGradient>
    <linearGradient id="paint16_linear_4546_24768" x1="-697.415" y1="412.975" x2="-689.89" y2="426.009" gradientUnits="userSpaceOnUse">
      <stop stop-color="#673192"/>
      <stop offset="0.038741" stop-color="#663191" stop-opacity="0.949114"/>
      <stop offset="0.369075" stop-color="#65398C" stop-opacity="0.543961"/>
      <stop offset="0.650736" stop-color="#643E89" stop-opacity="0.248787"/>
      <stop offset="0.869729" stop-color="#644187" stop-opacity="0.067321"/>
      <stop offset="0.999293" stop-color="#644387" stop-opacity="0"/>
    </linearGradient>
    <linearGradient id="paint17_linear_4546_24768" x1="-697.415" y1="412.975" x2="-689.89" y2="426.009" gradientUnits="userSpaceOnUse">
      <stop stop-color="#673192"/>
      <stop offset="0.038741" stop-color="#663191" stop-opacity="0.949114"/>
      <stop offset="0.369075" stop-color="#65398C" stop-opacity="0.543961"/>
      <stop offset="0.650736" stop-color="#643E89" stop-opacity="0.248787"/>
      <stop offset="0.869729" stop-color="#644187" stop-opacity="0.067321"/>
      <stop offset="0.999293" stop-color="#644387" stop-opacity="0"/>
    </linearGradient>
    <linearGradient id="paint18_linear_4546_24768" x1="-697.416" y1="412.974" x2="-689.89" y2="426.009" gradientUnits="userSpaceOnUse">
      <stop stop-color="#673192"/>
      <stop offset="0.038741" stop-color="#663191" stop-opacity="0.949114"/>
      <stop offset="0.369075" stop-color="#65398C" stop-opacity="0.543961"/>
      <stop offset="0.650736" stop-color="#643E89" stop-opacity="0.248787"/>
      <stop offset="0.869729" stop-color="#644187" stop-opacity="0.067321"/>
      <stop offset="0.999293" stop-color="#644387" stop-opacity="0"/>
    </linearGradient>
    <linearGradient id="paint19_linear_4546_24768" x1="-698.394" y1="413.542" x2="-690.869" y2="426.576" gradientUnits="userSpaceOnUse">
      <stop stop-color="#673192"/>
      <stop offset="0.038741" stop-color="#663191" stop-opacity="0.949114"/>
      <stop offset="0.369075" stop-color="#65398C" stop-opacity="0.543961"/>
      <stop offset="0.650736" stop-color="#643E89" stop-opacity="0.248787"/>
      <stop offset="0.869729" stop-color="#644187" stop-opacity="0.067321"/>
      <stop offset="0.999293" stop-color="#644387" stop-opacity="0"/>
    </linearGradient>
    <linearGradient id="paint20_linear_4546_24768" x1="-698.394" y1="413.542" x2="-690.869" y2="426.576" gradientUnits="userSpaceOnUse">
      <stop stop-color="#673192"/>
      <stop offset="0.038741" stop-color="#663191" stop-opacity="0.949114"/>
      <stop offset="0.369075" stop-color="#65398C" stop-opacity="0.543961"/>
      <stop offset="0.650736" stop-color="#643E89" stop-opacity="0.248787"/>
      <stop offset="0.869729" stop-color="#644187" stop-opacity="0.067321"/>
      <stop offset="0.999293" stop-color="#644387" stop-opacity="0"/>
    </linearGradient>
    <linearGradient id="paint21_linear_4546_24768" x1="-698.394" y1="413.544" x2="-690.869" y2="426.578" gradientUnits="userSpaceOnUse">
      <stop stop-color="#673192"/>
      <stop offset="0.038741" stop-color="#663191" stop-opacity="0.949114"/>
      <stop offset="0.369075" stop-color="#65398C" stop-opacity="0.543961"/>
      <stop offset="0.650736" stop-color="#643E89" stop-opacity="0.248787"/>
      <stop offset="0.869729" stop-color="#644187" stop-opacity="0.067321"/>
      <stop offset="0.999293" stop-color="#644387" stop-opacity="0"/>
    </linearGradient>
    <linearGradient id="paint22_linear_4546_24768" x1="-699.381" y1="414.11" x2="-691.855" y2="427.144" gradientUnits="userSpaceOnUse">
      <stop stop-color="#673192"/>
      <stop offset="0.038741" stop-color="#663191" stop-opacity="0.949114"/>
      <stop offset="0.369075" stop-color="#65398C" stop-opacity="0.543961"/>
      <stop offset="0.650736" stop-color="#643E89" stop-opacity="0.248787"/>
      <stop offset="0.869729" stop-color="#644187" stop-opacity="0.067321"/>
      <stop offset="0.999293" stop-color="#644387" stop-opacity="0"/>
    </linearGradient>
    <linearGradient id="paint23_linear_4546_24768" x1="-699.381" y1="414.111" x2="-691.855" y2="427.145" gradientUnits="userSpaceOnUse">
      <stop stop-color="#673192"/>
      <stop offset="0.038741" stop-color="#663191" stop-opacity="0.949114"/>
      <stop offset="0.369075" stop-color="#65398C" stop-opacity="0.543961"/>
      <stop offset="0.650736" stop-color="#643E89" stop-opacity="0.248787"/>
      <stop offset="0.869729" stop-color="#644187" stop-opacity="0.067321"/>
      <stop offset="0.999293" stop-color="#644387" stop-opacity="0"/>
    </linearGradient>
    <linearGradient id="paint24_linear_4546_24768" x1="-699.381" y1="414.109" x2="-691.855" y2="427.144" gradientUnits="userSpaceOnUse">
      <stop stop-color="#673192"/>
      <stop offset="0.038741" stop-color="#663191" stop-opacity="0.949114"/>
      <stop offset="0.369075" stop-color="#65398C" stop-opacity="0.543961"/>
      <stop offset="0.650736" stop-color="#643E89" stop-opacity="0.248787"/>
      <stop offset="0.869729" stop-color="#644187" stop-opacity="0.067321"/>
      <stop offset="0.999293" stop-color="#644387" stop-opacity="0"/>
    </linearGradient>
    <linearGradient id="paint25_linear_4546_24768" x1="8.42662" y1="30.081" x2="4.56195" y2="35.1376" gradientUnits="userSpaceOnUse">
      <stop offset="0.071518" stop-color="#F5B33D"/>
      <stop offset="0.167013" stop-color="#E4A638" stop-opacity="0.931089"/>
      <stop offset="0.35608" stop-color="#B8872D" stop-opacity="0.751127"/>
      <stop offset="0.620752" stop-color="#71541C" stop-opacity="0.460691"/>
      <stop offset="0.947988" stop-color="#100F03" stop-opacity="0.065551"/>
      <stop offset="1" stop-color="#010400" stop-opacity="0"/>
    </linearGradient>
    <linearGradient id="paint26_linear_4546_24768" x1="11.0345" y1="31.3955" x2="7.16979" y2="36.4521" gradientUnits="userSpaceOnUse">
      <stop offset="0.071518" stop-color="#F5B33D"/>
      <stop offset="0.167013" stop-color="#E4A638" stop-opacity="0.931089"/>
      <stop offset="0.35608" stop-color="#B8872D" stop-opacity="0.751127"/>
      <stop offset="0.620752" stop-color="#71541C" stop-opacity="0.460691"/>
      <stop offset="0.947988" stop-color="#100F03" stop-opacity="0.065551"/>
      <stop offset="1" stop-color="#010400" stop-opacity="0"/>
    </linearGradient>
    <linearGradient id="paint27_linear_4546_24768" x1="16.9311" y1="0.767476" x2="16.9311" y2="28.1084" gradientUnits="userSpaceOnUse">
      <stop stop-color="#673192"/>
      <stop offset="0.038741" stop-color="#663191" stop-opacity="0.949114"/>
      <stop offset="0.369075" stop-color="#65398C" stop-opacity="0.543961"/>
      <stop offset="0.650736" stop-color="#643E89" stop-opacity="0.248787"/>
      <stop offset="0.869729" stop-color="#644187" stop-opacity="0.067321"/>
      <stop offset="0.999293" stop-color="#644387" stop-opacity="0"/>
    </linearGradient>
    <linearGradient id="paint28_linear_4546_24768" x1="36.7187" y1="38.6826" x2="36.7187" y2="12.1191" gradientUnits="userSpaceOnUse">
      <stop stop-color="#F0CDA8"/>
      <stop offset="0.079931" stop-color="#E1BEA4" stop-opacity="0.895731"/>
      <stop offset="0.336658" stop-color="#B5939A" stop-opacity="0.581219"/>
      <stop offset="0.566022" stop-color="#927091" stop-opacity="0.33161"/>
      <stop offset="0.759749" stop-color="#79578C" stop-opacity="0.151593"/>
      <stop offset="0.91029" stop-color="#694888" stop-opacity="0.040997"/>
      <stop offset="0.999293" stop-color="#644387" stop-opacity="0"/>
    </linearGradient>
    <linearGradient id="paint29_linear_4546_24768" x1="21.2858" y1="47.6065" x2="21.2858" y2="21.043" gradientUnits="userSpaceOnUse">
      <stop stop-color="#F0CDA8"/>
      <stop offset="0.079931" stop-color="#E1BEA4" stop-opacity="0.895731"/>
      <stop offset="0.336658" stop-color="#B5939A" stop-opacity="0.581219"/>
      <stop offset="0.566022" stop-color="#927091" stop-opacity="0.33161"/>
      <stop offset="0.759749" stop-color="#79578C" stop-opacity="0.151593"/>
      <stop offset="0.91029" stop-color="#694888" stop-opacity="0.040997"/>
      <stop offset="0.999293" stop-color="#644387" stop-opacity="0"/>
    </linearGradient>
    <linearGradient id="paint30_linear_4546_24768" x1="26.125" y1="35.6228" x2="26.125" y2="30.6497" gradientUnits="userSpaceOnUse">
      <stop stop-color="#62468B"/>
      <stop offset="0.438405" stop-color="#643A8E"/>
      <stop offset="0.999293" stop-color="#673192"/>
    </linearGradient>
    <linearGradient id="paint31_linear_4546_24768" x1="27.5154" y1="33.991" x2="27.5154" y2="29.9089" gradientUnits="userSpaceOnUse">
      <stop stop-color="#62468B"/>
      <stop offset="0.438405" stop-color="#643A8E"/>
      <stop offset="0.999293" stop-color="#673192"/>
    </linearGradient>
    <linearGradient id="paint32_linear_4546_24768" x1="50.5578" y1="39.7006" x2="46.3928" y2="38.8676" gradientUnits="userSpaceOnUse">
      <stop stop-color="#62468B"/>
      <stop offset="0.438405" stop-color="#643A8E"/>
      <stop offset="0.999293" stop-color="#673192"/>
    </linearGradient>
    <linearGradient id="paint33_linear_4546_24768" x1="37.0989" y1="31.7029" x2="34.0057" y2="30.4958" gradientUnits="userSpaceOnUse">
      <stop stop-color="#FDE8FF"/>
      <stop offset="0.999647" stop-color="#A891D2"/>
    </linearGradient>
  </defs>
</svg>