<svg xmlns="http://www.w3.org/2000/svg" width="48" height="48" viewBox="0 0 48 48" fill="none">
  <mask id="mask0_4546_22898" style="mask-type:luminance" maskUnits="userSpaceOnUse" x="0" y="0" width="48" height="48">
    <path d="M24 48C37.2548 48 48 37.2548 48 24C48 10.7452 37.2548 0 24 0C10.7452 0 0 10.7452 0 24C0 37.2548 10.7452 48 24 48Z" fill="white"/>
  </mask>
  <g mask="url(#mask0_4546_22898)">
    <path d="M-8.84961 27.7617L-6.14362 43.5175L-4.96406 44.5007L-1.98054 46.9868L0.656104 45.1134L2.0438 48.8602L14.4637 55.9374L16.1983 53.2314L24.2497 56.8477L24.3857 56.9088L33.0588 56.3537L40.4136 51.4968L46.0338 49.4846L52.9947 43.2508L53.5857 43.3649L54.6015 42.1721L58.2456 39.4338L59.9802 27.7617H-8.84961Z" fill="#3C1D82"/>
    <path d="M-8.84961 27.7617L-6.14362 43.5175L-4.96406 44.5007L-1.98054 46.9868L0.656105 45.1134L2.0438 48.8602L14.4637 55.9374L16.1983 53.2314L24.2497 56.8477C24.4253 56.6222 24.5245 56.4925 24.5245 56.4925L25.149 40.251L16.4412 27.7617H-8.84961Z" fill="#512084"/>
    <path d="M36.6669 36.2266L38.4016 42.8875L40.4137 51.4967L44.8238 38.4974L48.393 41.708L47.62 38.6543L47.0053 36.2266H36.6669Z" fill="#6F2B93"/>
    <path d="M10.0925 41.7761L14.4638 55.9361L16.1984 53.23L16.1339 45.751L15.9902 42.9557L16.0964 41.0233L14.7277 38.4494C14.7277 38.4494 9.46804 36.7804 10.0925 41.7761Z" fill="#3C1D82"/>
    <path d="M-1.98035 46.9856L0.596629 45.1545L0.656295 45.1122L2.04399 48.859L1.35014 39.7695L-1.98035 46.9856Z" fill="#3C1D82"/>
    <path d="M-7.32288 30.8826L-6.14333 43.516L-4.96377 44.4992V33.5192L1.9747 31.2989L-3.99239 27.8789L-7.32288 30.8826Z" fill="#3C1D82"/>
    <path d="M1.34979 39.7695L0.655945 45.1122L2.04364 48.859L1.34979 39.7695Z" fill="#552779"/>
    <path d="M16.1337 45.7515L15.9901 42.9561L16.0962 41.0237L14.6024 40.1113L16.1337 45.7515Z" fill="#552779"/>
    <path d="M42.7034 39.6945L44.8238 38.4961L48.393 41.7067L47.62 38.653C45.8702 39.0076 42.7034 39.6945 42.7034 39.6945Z" fill="#582288"/>
    <path d="M-7.29332 30.9132L-2.11929 31.7854L-4.96406 33.52L-2.21505 35.0306L7.35245 40.2892L7.69658 40.478L10.1216 41.8108L12.8343 40.94L13.5147 40.9325L14.6503 40.2108L15.9985 42.9904L16.3503 43.2055L25.0102 48.5072L38.4015 42.887L38.0545 39.6953L48.3929 41.7074L54.9845 36.7117L51.3765 34.3527L58.2456 32.965C58.2456 32.965 59.9802 29.5859 59.9802 27.7611C59.9802 27.657 59.9774 27.553 59.9718 27.4489C59.9233 26.4962 59.6527 25.5665 59.1802 24.6686C58.8457 24.0323 58.41 23.4121 57.8806 22.8105C57.236 22.0778 56.4526 21.3728 55.543 20.7012C54.2094 19.7173 52.6053 18.8049 50.7728 17.9827C45.4447 15.5917 38.1871 13.9598 30.033 13.5185C28.5703 13.4394 27.0793 13.3984 25.5653 13.3984C24.8707 13.3984 24.181 13.4068 23.4962 13.4241C13.8038 13.6635 5.1911 15.5778 -0.70523 18.4829C-2.67438 19.453 -4.341 20.5333 -5.64335 21.6996C-7.51954 23.3787 -8.64079 25.2348 -8.82327 27.1914C-8.8406 27.3802 -8.84961 27.5703 -8.84961 27.7611C-8.84961 28.7429 -7.29332 30.9132 -7.29332 30.9132Z" fill="#A089BC"/>
    <path d="M-7.29332 30.9132L-2.11929 31.7854L-4.96406 33.52L10.1216 41.8108L13.4003 41.6613L15.9985 42.9903L25.0102 48.5071L38.4015 42.887L38.0545 39.6953L48.3929 41.7074L54.9845 36.7117L51.3765 34.3526L58.2456 32.9649C58.2456 32.9649 59.9802 29.5859 59.9802 27.761C59.9802 27.657 59.9774 27.5529 59.9718 27.4488L58.0374 32.4792L50.1969 34.0751L54.0131 36.7117L48.3235 41.0136L37.1526 38.8626L37.777 42.6094L25.149 47.6745L16.6146 42.7482L13.5147 40.9324L10.0925 41.083L-3.85391 33.4506L-1.00913 31.5078L-6.78819 30.5267C-6.78819 30.5267 -8.30358 28.9524 -8.82327 27.1914C-8.8406 27.3801 -8.84961 27.5703 -8.84961 27.761C-8.84961 28.7428 -7.29332 30.9132 -7.29332 30.9132Z" fill="white"/>
    <path fill-rule="evenodd" clip-rule="evenodd" d="M-0.959308 28.6328L-0.966431 30.2934L24.8271 45.1854L24.9269 44.82L24.8344 43.5247L20.574 40.5978L-0.959308 28.6328Z" fill="#E9A00E"/>
    <path fill-rule="evenodd" clip-rule="evenodd" d="M24.6658 13.7402L-0.959167 28.6318L24.8345 43.5239L50.4596 28.6323L24.6658 13.7402Z" fill="#EC9A13"/>
    <path fill-rule="evenodd" clip-rule="evenodd" d="M50.4594 28.6328L50.4521 30.2934L24.8271 45.1851L24.8344 43.5244L34.422 37.504L50.4594 28.6328Z" fill="#F1AD22"/>
    <path fill-rule="evenodd" clip-rule="evenodd" d="M0.0257643 11.2816L0.303335 18.6907L-0.0366753 29.2269L-0.964233 28.6913L-0.901735 10.7461L0.0257643 11.2816Z" fill="#DABED0"/>
    <path fill-rule="evenodd" clip-rule="evenodd" d="M24.7008 -3.20508L25.2939 6.17498L24.6383 14.8866L-0.0368042 29.2263L0.0256354 11.1345L24.7008 -3.20508Z" fill="#CBA4BA"/>
    <path fill-rule="evenodd" clip-rule="evenodd" d="M49.5371 11.134L50.0022 17.9459L49.4745 29.2256L24.6386 14.8866L24.7011 -3.20508L49.5371 11.134Z" fill="#DABED0"/>
    <path fill-rule="evenodd" clip-rule="evenodd" d="M50.4586 10.7457L49.537 11.2812L24.701 -3.05792L0.0258878 11.2817L-0.901611 10.7463L24.6951 -4.12891L50.4586 10.7457Z" fill="#E9D8E3"/>
    <path fill-rule="evenodd" clip-rule="evenodd" d="M40.8023 27.5589L40.1212 27.163L40.1188 26.4648L40.7998 26.8606L40.8023 27.5589Z" fill="#552D86"/>
    <path fill-rule="evenodd" clip-rule="evenodd" d="M40.7999 26.86L40.1189 26.4642L42.347 25.1777L43.0281 25.5735L40.7999 26.86Z" fill="#020F30"/>
    <path fill-rule="evenodd" clip-rule="evenodd" d="M43.0281 25.5742L43.0305 26.2725L40.8024 27.5589L40.7999 26.8607L43.0281 25.5742Z" fill="#041440"/>
    <path fill-rule="evenodd" clip-rule="evenodd" d="M44.8994 29.9006L44.2183 29.5047L44.2158 28.8066L44.8969 29.2024L44.8994 29.9006Z" fill="#552D86"/>
    <path fill-rule="evenodd" clip-rule="evenodd" d="M44.8969 29.2017L44.2158 28.8059L46.4441 27.5195L47.1251 27.9152L44.8969 29.2017Z" fill="#020F30"/>
    <path fill-rule="evenodd" clip-rule="evenodd" d="M47.125 27.916L47.1273 28.6143L44.8994 29.9006L44.8969 29.2025L47.125 27.916Z" fill="#041440"/>
    <path fill-rule="evenodd" clip-rule="evenodd" d="M41.123 19.861L41.5258 19.627L41.9316 19.8612L41.5289 20.0953L41.123 19.861Z" fill="#743862"/>
    <path fill-rule="evenodd" clip-rule="evenodd" d="M41.5288 20.0956L41.6381 22.7209L41.5112 26.295L41.1053 26.0608L41.123 19.8613L41.5288 20.0956Z" fill="#041440"/>
    <path fill-rule="evenodd" clip-rule="evenodd" d="M41.529 20.0953L41.9316 19.8613L41.914 26.0608L41.5115 26.2947L41.529 20.0953Z" fill="#020F30"/>
    <path fill-rule="evenodd" clip-rule="evenodd" d="M45.5826 22.4393L45.8072 25.418L45.565 28.6388L45.1594 28.4045L45.1769 22.2051L45.5826 22.4393Z" fill="#041440"/>
    <path fill-rule="evenodd" clip-rule="evenodd" d="M45.5824 22.4389L45.985 22.2051L45.9676 28.4045L45.5649 28.6385L45.5824 22.4389Z" fill="#020F30"/>
    <path fill-rule="evenodd" clip-rule="evenodd" d="M45.177 22.2047L45.5797 21.9707L45.9855 22.2051L45.5828 22.439L45.177 22.2047Z" fill="#743862"/>
    <path fill-rule="evenodd" clip-rule="evenodd" d="M46.1748 22.3846L46.7223 22.0664L46.7206 22.6409L46.1731 22.9591L46.1748 22.3846Z" fill="#041440"/>
    <path fill-rule="evenodd" clip-rule="evenodd" d="M40.5657 19.1462L41.1132 18.8281L46.7224 22.0666L46.1751 22.3847L40.5657 19.1462Z" fill="#020F30"/>
    <path fill-rule="evenodd" clip-rule="evenodd" d="M46.175 22.3849L46.1732 22.9592L40.5641 19.7208L40.5656 19.1465L46.175 22.3849Z" fill="#552D86"/>
    <path fill-rule="evenodd" clip-rule="evenodd" d="M40.8635 10.4983L41.0825 10.3711L46.4486 13.4693L46.2297 13.5966L40.8635 10.4983Z" fill="#BA8AAB"/>
    <path fill-rule="evenodd" clip-rule="evenodd" d="M46.2295 13.5961L46.4484 13.4688L46.4241 22.0678L46.2051 22.1951L46.2295 13.5961Z" fill="#D7CDDD"/>
    <path fill-rule="evenodd" clip-rule="evenodd" d="M46.2298 13.5963L46.2054 22.1954L40.8393 19.0972L40.8636 10.498L46.2298 13.5963Z" fill="#F3F7F9"/>
    <path fill-rule="evenodd" clip-rule="evenodd" d="M45.8961 15.2267L45.9933 15.2828L45.993 15.3398L45.8958 15.2837L45.8961 15.2267ZM45.433 18.4282L45.4333 18.3165L45.481 18.344L45.4806 18.4557L45.433 18.4282ZM45.4336 18.2059L45.4339 18.0942L45.4815 18.1217L45.4813 18.2334L45.4336 18.2059ZM45.4343 17.9827L45.4346 17.8721L45.4822 17.8996L45.4819 18.01L45.4343 17.9827ZM45.4351 17.7604L45.4353 17.6498L45.4828 17.6773L45.4826 17.7879L45.4351 17.7604ZM45.4356 17.5381L45.436 17.4265L45.4835 17.454L45.4832 17.5656L45.4356 17.5381ZM45.4362 17.316L45.4365 17.2043L45.4841 17.2319L45.4837 17.3435L45.4362 17.316ZM45.4369 17.0927L45.4371 16.9821L45.4848 17.0096L45.4844 17.1201L45.4369 17.0927ZM45.4375 16.8704L45.4378 16.7587L45.4853 16.7863L45.485 16.8979L45.4375 16.8704ZM45.4382 16.6483L45.4384 16.5365L45.4859 16.5639L45.4857 16.6756L45.4382 16.6483ZM45.4387 16.426L45.4391 16.3143L45.4866 16.3419L45.4863 16.4535L45.4387 16.426ZM45.4393 16.2027L45.4397 16.0921L45.4872 16.1195L45.4868 16.2302L45.4393 16.2027ZM45.44 15.9838L45.4403 15.8733L45.4879 15.9008L45.4875 16.0113L45.44 15.9838ZM45.4406 15.7617L45.4409 15.65L45.4885 15.6775L45.4881 15.7892L45.4406 15.7617ZM45.4413 15.5394L45.4415 15.4277L45.4892 15.4552L45.4889 15.5669L45.4413 15.5394ZM45.4418 15.316L45.4422 15.2056L45.4898 15.233L45.4895 15.3435L45.4418 15.316ZM45.4424 15.0939L45.4427 14.9822L45.4905 15.0097L45.4902 15.1214L45.4424 15.0939ZM45.4431 14.8716L45.4434 14.76L45.4911 14.7874L45.4907 14.8991L45.4431 14.8716ZM45.444 14.5377L45.4917 14.5651L45.4914 14.6758L45.4438 14.6482L45.444 14.5377ZM44.7934 18.0588L44.7936 17.9473L44.8402 17.9742L44.8399 18.0859L44.7934 18.0588ZM44.794 17.8367L44.7943 17.725L44.8409 17.7519L44.8406 17.8636L44.794 17.8367ZM44.7952 17.3911L44.7954 17.2807L44.8423 17.3075L44.8418 17.4181L44.7952 17.3911ZM44.7958 17.1689L44.7962 17.0573L44.8429 17.0842L44.8425 17.1958L44.7958 17.1689ZM44.7973 16.7233L44.7975 16.6129L44.8441 16.6397L44.8438 16.7502L44.7973 16.7233ZM44.7979 16.5012L44.7981 16.3895L44.8448 16.4164L44.8445 16.5281L44.7979 16.5012ZM44.7984 16.2789L44.7988 16.1672L44.8454 16.1941L44.845 16.3058L44.7984 16.2789ZM44.7997 15.8333L44.8 15.7228L44.8466 15.7497L44.8463 15.8603L44.7997 15.8333ZM44.8004 15.6145L44.8006 15.504L44.8472 15.5309L44.8469 15.6414L44.8004 15.6145ZM44.8015 15.1701L44.8019 15.0585L44.8485 15.0853L44.8481 15.1971L44.8015 15.1701ZM44.8022 14.9468L44.8024 14.8362L44.8491 14.8631L44.8488 14.9737L44.8022 14.9468ZM44.8369 14.6323L44.8497 14.6397L44.8494 14.7514L44.8028 14.7245L44.803 14.6528L44.7406 14.6167L44.7407 14.5597L44.837 14.6152L44.8369 14.6323ZM44.8035 14.5022L44.8037 14.3906L44.8503 14.4176L44.85 14.5293L44.8035 14.5022ZM44.8044 14.1685L44.851 14.1953L44.8507 14.3059L44.8041 14.2789L44.8044 14.1685ZM44.1497 17.6873L44.1501 17.5756L44.1967 17.6025L44.1965 17.7142L44.1497 17.6873ZM44.1504 17.4652L44.1508 17.3535L44.1974 17.3804L44.197 17.4921L44.1504 17.4652ZM44.151 17.2418L44.1514 17.1312L44.198 17.1581L44.1977 17.2151L44.2513 17.246L44.2511 17.3041L44.154 17.248V17.2435L44.151 17.2418ZM44.1517 17.0195L44.1519 16.9089L44.1985 16.9359L44.1983 17.0464L44.1517 17.0195ZM44.1523 16.7972L44.1526 16.6856L44.1992 16.7126L44.1989 16.8243L44.1523 16.7972ZM44.1535 16.3517L44.1539 16.2412L44.2004 16.2681L44.2002 16.3787L44.1535 16.3517ZM44.1542 16.1295L44.1545 16.0178L44.2011 16.0448L44.2007 16.1564L44.1542 16.1295ZM44.1561 15.4617L44.1563 15.3511L44.2029 15.3781L44.2027 15.4886L44.1561 15.4617ZM44.1566 15.2429L44.157 15.1324L44.2036 15.1594L44.2032 15.2699L44.1566 15.2429ZM44.1579 14.7985L44.1582 14.6868L44.2049 14.7139L44.2045 14.8254L44.1579 14.7985ZM44.1585 14.5751L44.1588 14.4646L44.2054 14.4916L44.2051 14.6022L44.1585 14.5751ZM44.1597 14.1307L44.1602 14.019L44.2068 14.0459L44.2065 14.1576L44.1597 14.1307ZM44.1609 13.7967L44.2075 13.8238L44.2071 13.9342L44.1605 13.9073L44.1609 13.7967ZM43.5061 17.3157L43.5065 17.2041L43.5571 17.2333L43.5567 17.3449L43.5061 17.3157ZM43.5068 17.0935L43.507 16.9818L43.5577 17.011L43.5574 17.1227L43.5068 17.0935ZM43.5074 16.8701L43.5077 16.7596L43.5584 16.7889L43.558 16.8993L43.5074 16.8701ZM43.5081 16.648L43.5084 16.5373L43.559 16.5666L43.5587 16.6772L43.5081 16.648ZM43.5086 16.4257L43.509 16.314L43.5596 16.3432L43.5593 16.4549L43.5086 16.4257ZM43.5093 16.2034L43.5096 16.0917L43.5603 16.1209L43.56 16.2326L43.5093 16.2034ZM43.5099 15.9802L43.5103 15.8696L43.5609 15.8988L43.5605 16.0094L43.5099 15.9802ZM43.5105 15.758L43.5108 15.6462L43.5615 15.6754L43.5611 15.7871L43.5105 15.758ZM43.5112 15.5356L43.5114 15.424L43.5621 15.4532L43.5618 15.5649L43.5112 15.5356ZM43.5117 15.3136L43.5122 15.2019L43.5627 15.231L43.5624 15.3428L43.5117 15.3136ZM43.5126 15.0902L43.5129 14.9796L43.5633 15.0088L43.5631 15.1194L43.5126 15.0902ZM43.5131 14.8713L43.5135 14.7607L43.5639 14.7899L43.5636 14.9005L43.5131 14.8713ZM43.5138 14.6492L43.514 14.5375L43.5646 14.5668L43.5642 14.6783L43.5138 14.6492ZM43.5144 14.4269L43.5147 14.3153L43.5652 14.3445L43.5649 14.4561L43.5144 14.4269ZM43.515 14.2036L43.5153 14.093L43.5658 14.1222L43.5655 14.2328L43.515 14.2036ZM43.5157 13.9813L43.516 13.8696L43.5665 13.8989L43.5662 14.0105L43.5157 13.9813ZM43.5162 13.7592L43.5166 13.6475L43.5671 13.6767L43.5667 13.7884L43.5162 13.7592ZM43.5173 13.4252L43.5679 13.4544L43.5675 13.565L43.5169 13.5358L43.5173 13.4252ZM42.8665 16.9463L42.8669 16.8347L42.9135 16.8617L42.9131 16.9732L42.8665 16.9463ZM42.8671 16.7242L42.8674 16.6126L42.914 16.6395L42.9138 16.7511L42.8671 16.7242ZM42.8679 16.4473L42.8681 16.3903L42.9146 16.4171L42.9144 16.5277L42.9045 16.522V16.5265L42.8083 16.4711L42.8084 16.4129L42.8679 16.4473ZM42.8684 16.2786L42.8687 16.168L42.9153 16.195L42.915 16.3055L42.8684 16.2786ZM42.869 16.0564L42.8693 15.9446L42.916 15.9717L42.9156 16.0834L42.869 16.0564ZM42.9066 15.7436L42.9166 15.7494L42.9162 15.8611L42.8696 15.8342L42.8698 15.7625L42.8103 15.728L42.8105 15.6733L42.9067 15.7289L42.9066 15.7436ZM42.8702 15.6108L42.8705 15.5002L42.9171 15.5273L42.9169 15.6377L42.8702 15.6108ZM42.8709 15.3886L42.8712 15.2769L42.9178 15.3039L42.9175 15.4156L42.8709 15.3886ZM42.8716 15.1665L42.8718 15.0547L42.9184 15.0816L42.9181 15.1933L42.8716 15.1665ZM42.8721 14.9442L42.8725 14.8325L42.919 14.8594L42.9187 14.971L42.8721 14.9442ZM42.8727 14.7209L42.8731 14.6104L42.9198 14.6372L42.9194 14.7477L42.8727 14.7209ZM42.8734 14.5021L42.8736 14.3915L42.9205 14.4184L42.9201 14.529L42.8734 14.5021ZM42.8748 14.0575L42.8751 13.9459L42.9216 13.9729L42.9214 14.0846L42.8748 14.0575ZM42.8754 13.8342L42.8757 13.7237L42.9223 13.7506L42.922 13.8612L42.8754 13.8342ZM42.8766 13.3898L42.877 13.2781L42.9234 13.305L42.9232 13.4167L42.8766 13.3898ZM42.8775 13.056L42.9241 13.0829L42.9239 13.1933L42.8773 13.1664L42.8775 13.056ZM41.5822 16.205L41.5826 16.0933L41.6292 16.1202L41.6289 16.2319L41.5822 16.205ZM41.5828 15.9827L41.5832 15.8711L41.6298 15.8979L41.6294 16.0096L41.5828 15.9827ZM41.5835 15.7593L41.5838 15.6488L41.6305 15.6758L41.6301 15.7862L41.5835 15.7593ZM41.5841 15.5371L41.5844 15.4266L41.631 15.4535L41.6308 15.5641L41.5841 15.5371ZM41.5848 15.315L41.585 15.2033L41.6316 15.2301L41.6314 15.3418L41.5848 15.315ZM41.5853 15.0927L41.5857 14.981L41.6323 15.008L41.6319 15.1196L41.5853 15.0927ZM41.586 14.8693L41.5864 14.7589L41.6329 14.7857L41.6326 14.8963L41.586 14.8693ZM41.5866 14.6472L41.5869 14.5355L41.6336 14.5623L41.6332 14.6741L41.5866 14.6472ZM41.5872 14.4249L41.5875 14.3132L41.6341 14.3401L41.6338 14.4518L41.5872 14.4249ZM41.5879 14.2026L41.5882 14.0911L41.6347 14.118L41.6345 14.2297L41.5879 14.2026ZM41.5884 13.9794L41.5888 13.8688L41.6354 13.8957L41.6351 14.0063L41.5884 13.9794ZM41.5891 13.7606L41.5894 13.65L41.6361 13.677L41.6357 13.7874L41.5891 13.7606ZM41.5897 13.5383L41.5901 13.4266L41.6367 13.4536L41.6363 13.5653L41.5897 13.5383ZM41.5903 13.3162L41.5906 13.2045L41.6373 13.2313L41.6371 13.343L41.5903 13.3162ZM41.5911 13.0928L41.5914 12.9822L41.638 13.0091L41.6377 13.1196L41.5911 13.0928ZM41.5918 12.8706L41.592 12.7588L41.6387 12.7857L41.6384 12.8974L41.5918 12.8706ZM41.5923 12.6484L41.5927 12.5368L41.6393 12.5636L41.639 12.6752L41.5923 12.6484ZM41.5933 12.3145L41.6399 12.3413L41.6396 12.4519L41.5929 12.4251L41.5933 12.3145ZM42.2229 16.5748L42.2232 16.4631L42.2727 16.4917L42.2724 16.6034L42.2229 16.5748ZM42.2235 16.3525L42.2238 16.2409L42.2735 16.2696L42.2731 16.3813L42.2235 16.3525ZM42.224 16.1292L42.2244 16.0188L42.2741 16.0473L42.274 16.1044L42.3273 16.1352L42.3272 16.1933L42.2301 16.1372V16.1326L42.224 16.1292ZM42.2247 15.907L42.2251 15.7965L42.2747 15.8251L42.2744 15.9357L42.2247 15.907ZM42.2253 15.6848L42.2256 15.5731L42.2754 15.6017L42.275 15.7133L42.2253 15.6848ZM42.2267 15.2393L42.227 15.1287L42.2766 15.1573L42.2763 15.2679L42.2267 15.2393ZM42.2274 15.017L42.2277 14.9053L42.2772 14.934L42.277 15.0456L42.2274 15.017ZM42.2292 14.3492L42.2295 14.2387L42.2791 14.2673L42.2788 14.3778L42.2292 14.3492ZM42.2298 14.1304L42.2301 14.0199L42.2797 14.0485L42.2794 14.1591L42.2298 14.1304ZM42.2312 13.686L42.2314 13.5743L42.281 13.6029L42.2806 13.7146L42.2312 13.686ZM42.2317 13.4626L42.2321 13.352L42.2815 13.3808L42.2812 13.4912L42.2317 13.4626ZM42.2329 13.0182L42.2332 12.9066L42.2828 12.9351L42.2825 13.0468L42.2329 13.0182ZM42.2339 12.6843L42.2834 12.7131L42.283 12.8235L42.2336 12.7949L42.2339 12.6843ZM41.0746 15.4701L41.0749 15.412L41.1711 15.4676L41.171 15.5258L41.0746 15.4701ZM41.2681 15.5818L41.2683 15.5237L41.3615 15.5776L41.3614 15.6357L41.2681 15.5818ZM41.4585 15.6918L41.4586 15.6337L41.5558 15.6897L41.5557 15.7478L41.4585 15.6918ZM41.6518 15.8034L41.652 15.7454L41.7493 15.8014L41.749 15.8596L41.6518 15.8034ZM41.8422 15.9135L41.8425 15.8552L41.9397 15.9114L41.9396 15.9695L41.8422 15.9135ZM42.0367 16.0256L42.0369 15.9675L42.1331 16.0229L42.1329 16.0812L42.0367 16.0256ZM42.4204 16.2472L42.4206 16.189L42.5178 16.2452L42.5177 16.3033L42.4204 16.2472ZM42.6138 16.3587L42.614 16.3007L42.7112 16.3567L42.711 16.415L42.6138 16.3587ZM42.9988 16.581L42.9989 16.5228L43.0949 16.5783V16.6365L42.9988 16.581ZM43.1921 16.6925L43.1923 16.6345L43.2893 16.6905L43.2892 16.7488L43.1921 16.6925ZM43.3855 16.8042L43.3856 16.7462L43.4827 16.8022L43.4826 16.8603L43.3855 16.8042ZM43.5759 16.9143L43.5762 16.8561L43.6731 16.9122L43.6729 16.9703L43.5759 16.9143ZM43.7701 17.0264L43.7704 16.9683L43.8666 17.0239L43.8663 17.082L43.7701 17.0264ZM43.9636 17.138L43.9637 17.08L44.058 17.1343L44.0577 17.1924L43.9636 17.138ZM44.3474 17.3597L44.3475 17.3016L44.4448 17.3576L44.4444 17.4158L44.3474 17.3597ZM44.5418 17.4718L44.5419 17.4138L44.6351 17.4677L44.635 17.5257L44.5418 17.4718ZM44.8283 17.6328V17.6374L44.7322 17.5818L44.7323 17.5237L44.7948 17.5598L44.7949 17.5027L44.8415 17.5298L44.8411 17.6402L44.8283 17.6328ZM44.9255 17.6935L44.9257 17.6354L45.023 17.6915L45.0227 17.7496L44.9255 17.6935ZM45.1189 17.8052L45.119 17.7471L45.2133 17.8015L45.2132 17.8596L45.1189 17.8052ZM45.3094 17.915L45.3095 17.8569L45.4067 17.913L45.4066 17.9713L45.3094 17.915ZM45.5036 18.0273L45.5038 17.9692L45.6001 18.0247L45.6 18.0828L45.5036 18.0273ZM45.697 18.139L45.6972 18.0809L45.7915 18.1352L45.7914 18.1934L45.697 18.139ZM45.8877 18.1907L45.9849 18.2469L45.9848 18.305L45.8874 18.2488L45.8877 18.1907ZM41.0768 14.7272L41.0769 14.6725L41.1731 14.728L41.173 14.7828L41.0768 14.7272ZM41.2702 14.8389L41.2704 14.7842L41.3636 14.8379L41.3633 14.8926L41.2702 14.8389ZM41.4607 14.9489L41.4608 14.894L41.558 14.9502L41.5579 15.0049L41.4607 14.9489ZM41.654 15.0603L41.6541 15.0057L41.7514 15.0617L41.7512 15.1166L41.654 15.0603ZM41.8444 15.1703L41.8447 15.1156L41.9417 15.1718L41.9415 15.2265L41.8444 15.1703ZM42.0388 15.2826L42.039 15.2278L42.1351 15.2834L42.135 15.3381L42.0388 15.2826ZM42.2323 15.3544V15.3395L42.3295 15.3957L42.3294 15.4504L42.2758 15.4195L42.2757 15.4913L42.226 15.4627L42.2264 15.351L42.2323 15.3544ZM42.4226 15.5041L42.4227 15.4495L42.52 15.5055L42.5198 15.5602L42.4226 15.5041ZM42.6159 15.6158L42.6162 15.5611L42.7134 15.6173L42.7133 15.6719L42.6159 15.6158ZM43.0007 15.8379L43.0008 15.7833L43.0972 15.8389L43.097 15.8935L43.0007 15.8379ZM43.1941 15.9496L43.1942 15.8949L43.2915 15.951L43.2914 16.0057L43.1941 15.9496ZM43.3875 16.0613L43.3877 16.0067L43.4849 16.0627L43.4848 16.1174L43.3875 16.0613ZM43.578 16.1713L43.5781 16.1164L43.6753 16.1727L43.6751 16.2274L43.578 16.1713ZM43.7722 16.2834L43.7724 16.2287L43.8686 16.2842L43.8685 16.339L43.7722 16.2834ZM43.9655 16.3951L43.9657 16.3404L44.06 16.3948L44.0599 16.4494L43.9655 16.3951ZM44.1562 16.4652V16.4502L44.2534 16.5065L44.2533 16.5612L44.1997 16.5302L44.1995 16.602L44.153 16.5751L44.1532 16.4635L44.1562 16.4652ZM44.3494 16.6166L44.3496 16.5619L44.4467 16.6182V16.6728L44.3494 16.6166ZM44.5438 16.7289L44.5441 16.6742L44.6373 16.728L44.637 16.7827L44.5438 16.7289ZM44.7343 16.8389L44.7345 16.7842L44.8307 16.8396V16.8544L44.8434 16.8619L44.8432 16.9736L44.7966 16.9467L44.7967 16.8749L44.7343 16.8389ZM44.9277 16.9504L44.9278 16.8957L45.0249 16.952L45.0248 17.0067L44.9277 16.9504ZM45.1211 17.0621L45.1212 17.0074L45.2154 17.0618L45.2152 17.1165L45.1211 17.0621ZM45.3113 17.172L45.3115 17.1174L45.4088 17.1734L45.4085 17.2281L45.3113 17.172ZM45.5059 17.2843L45.506 17.2295L45.6022 17.2851L45.602 17.3398L45.5059 17.2843ZM45.6992 17.3959L45.6993 17.3412L45.7934 17.3956L45.7933 17.4504L45.6992 17.3959ZM45.8897 17.4512L45.9869 17.5073L45.9867 17.5619L45.8896 17.5059L45.8897 17.4512ZM41.0788 13.9877L41.0791 13.9296L41.1753 13.985L41.1752 14.0431L41.0788 13.9877ZM41.2722 14.0992L41.2725 14.0411L41.3658 14.095L41.3656 14.1531L41.2722 14.0992ZM41.4626 14.2092L41.4629 14.1511L41.5601 14.2071L41.5599 14.2653L41.4626 14.2092ZM41.6561 14.3209L41.6562 14.2627L41.7535 14.3188L41.7533 14.3769L41.6561 14.3209ZM41.8465 14.4308L41.8466 14.3727L41.9438 14.4288L41.9437 14.4869L41.8465 14.4308ZM42.0409 14.5429L42.0411 14.4848L42.1373 14.5405L42.1371 14.5986L42.0409 14.5429ZM42.2344 14.6547L42.2345 14.5966L42.3316 14.6526L42.3315 14.7107L42.2344 14.6547ZM42.2279 14.7947L42.2775 14.8234L42.2779 14.7118L42.2283 14.683L42.2279 14.7947ZM42.2286 14.5726L42.2781 14.6012L42.2784 14.4895L42.2289 14.461L42.2286 14.5726ZM42.4246 14.7647L42.4249 14.7065L42.522 14.7626L42.5219 14.8207L42.4246 14.7647ZM42.618 14.8763L42.6183 14.818L42.7155 14.8743L42.7152 14.9324L42.618 14.8763ZM42.8124 14.9884L42.9087 15.044L42.9088 14.986L42.8127 14.9303L42.8124 14.9884ZM43.0029 15.0985L43.0031 15.0403L43.0992 15.0958L43.0991 15.1538L43.0029 15.0985ZM43.1963 15.2101L43.1964 15.152L43.2935 15.2081L43.2933 15.2662L43.1963 15.2101ZM43.3896 15.3216L43.3898 15.2635L43.487 15.3198L43.4867 15.3779L43.3896 15.3216ZM43.5801 15.4316L43.5803 15.3735L43.6773 15.4296L43.6772 15.4877L43.5801 15.4316ZM43.7744 15.5439L43.7745 15.4858L43.8707 15.5413L43.8705 15.5993L43.7744 15.5439ZM43.9678 15.6556L43.9679 15.5973L44.0622 15.6519L44.0621 15.7099L43.9678 15.6556ZM44.1582 15.7654L44.1584 15.7073L44.2556 15.7634L44.2555 15.8216L44.1582 15.7654ZM44.1548 15.9073L44.2014 15.9342L44.2017 15.8226L44.155 15.7957L44.1548 15.9073ZM44.1554 15.6851L44.202 15.712L44.2023 15.6003L44.1557 15.5734L44.1554 15.6851ZM44.3515 15.8771L44.3518 15.819L44.449 15.8751L44.4488 15.9332L44.3515 15.8771ZM44.5459 15.9893L44.5461 15.9311L44.6392 15.985L44.6391 16.0432L44.5459 15.9893ZM44.7363 16.0992L44.7366 16.0411L44.8326 16.0967L44.8325 16.1548L44.7363 16.0992ZM44.7991 16.0567L44.8457 16.0836L44.846 15.972L44.7993 15.9449L44.7991 16.0567ZM44.9298 16.2109L44.9299 16.1528L45.0271 16.2089L45.027 16.267L44.9298 16.2109ZM45.1231 16.3226L45.1233 16.2645L45.2175 16.3188L45.2174 16.3769L45.1231 16.3226ZM45.3135 16.4325L45.3137 16.3744L45.4109 16.4305L45.4108 16.4886L45.3135 16.4325ZM45.5078 16.5447L45.5079 16.4866L45.6043 16.5422L45.6041 16.6003L45.5078 16.5447ZM45.7013 16.6563L45.7014 16.5983L45.7957 16.6527L45.7955 16.7107L45.7013 16.6563ZM45.8918 16.7083L45.989 16.7643L45.9889 16.8224L45.8917 16.7664L45.8918 16.7083ZM41.081 13.2446L41.0812 13.191L41.1773 13.2466L41.1772 13.3002L41.081 13.2446ZM41.2744 13.3562L41.2745 13.3027L41.3677 13.3565L41.3676 13.4101L41.2744 13.3562ZM41.4648 13.4662L41.465 13.4127L41.5623 13.4687L41.562 13.5223L41.4648 13.4662ZM41.6582 13.5779L41.6583 13.5243L41.7556 13.5804L41.7555 13.634L41.6582 13.5779ZM41.8487 13.6878L41.8488 13.6343L41.9459 13.6903L41.9458 13.744L41.8487 13.6878ZM42.043 13.8L42.0431 13.7465L42.1393 13.802L42.1391 13.8555L42.043 13.8ZM42.2802 13.8833L42.3338 13.9142L42.3337 13.9678L42.2801 13.9368L42.2363 13.9118L42.2305 13.9083L42.2308 13.7966L42.2803 13.8252L42.2802 13.8833ZM42.4269 14.0215L42.427 13.9681L42.5242 14.0242L42.524 14.0777L42.4269 14.0215ZM42.6202 14.1332L42.6203 14.0796L42.7176 14.1358L42.7174 14.1894L42.6202 14.1332ZM42.8146 14.192L42.8742 14.2262L42.8744 14.1681L42.921 14.195L42.9207 14.3068L42.9108 14.301L42.8742 14.2798L42.8145 14.2455L42.8146 14.192ZM43.005 14.3553L43.0051 14.3019L43.1014 14.3574L43.1013 14.4109L43.005 14.3553ZM43.1983 14.467L43.1985 14.4134L43.2957 14.4696L43.2956 14.5232L43.1983 14.467ZM43.3917 14.5787L43.3919 14.5251L43.489 14.5813L43.4889 14.6348L43.3917 14.5787ZM43.5821 14.6887L43.5823 14.635L43.6795 14.6911L43.6793 14.7447L43.5821 14.6887ZM43.7766 14.8008L43.7768 14.7474L43.8729 14.8028L43.8728 14.8564L43.7766 14.8008ZM43.97 14.9125L43.9701 14.8589L44.0642 14.9134L44.0641 14.9669L43.97 14.9125ZM44.2041 14.994L44.2577 15.0249L44.2574 15.0785L44.2038 15.0476L44.1602 15.0225L44.1573 15.0207L44.1576 14.9091L44.2042 14.936L44.2041 14.994ZM44.3536 15.1342L44.3537 15.0806L44.451 15.1366L44.4508 15.1902L44.3536 15.1342ZM44.5481 15.2463L44.5482 15.1927L44.6414 15.2466L44.6413 15.3002L44.5481 15.2463ZM44.7386 15.3027L44.8011 15.3387L44.8013 15.2806L44.8479 15.3075L44.8476 15.4192L44.8347 15.4119L44.801 15.3923L44.7385 15.3563L44.7386 15.3027ZM44.9319 15.4679L44.932 15.4144L45.0292 15.4704L45.0289 15.524L44.9319 15.4679ZM45.1254 15.5797L45.1255 15.5261L45.2196 15.5804L45.2195 15.634L45.1254 15.5797ZM45.3157 15.6894L45.3159 15.6358L45.4129 15.6921L45.4128 15.7457L45.3157 15.6894ZM45.51 15.8018L45.5102 15.7481L45.6063 15.8037L45.6062 15.8572L45.51 15.8018ZM45.7034 15.9135L45.7035 15.8599L45.7977 15.9142L45.7976 15.9678L45.7034 15.9135ZM45.894 15.9698L45.9911 16.0259L45.991 16.0795L45.8939 16.0232L45.894 15.9698ZM41.0831 12.5051L41.0834 12.448L41.1794 12.5036L41.1793 12.5605L41.0831 12.5051ZM41.2766 12.6167L41.2767 12.5598L41.37 12.6135L41.3698 12.6705L41.2766 12.6167ZM41.4669 12.7265L41.467 12.6697L41.5642 12.7258L41.5641 12.7828L41.4669 12.7265ZM41.6603 12.8382L41.6604 12.7812L41.7577 12.8374L41.7574 12.8944L41.6603 12.8382ZM41.8506 12.9482L41.8509 12.8912L41.9481 12.9473L41.9478 13.0043L41.8506 12.9482ZM42.0452 13.0605L42.0453 13.0035L42.1415 13.059L42.1413 13.116L42.0452 13.0605ZM42.2385 13.1323L42.2387 13.1152L42.3357 13.1713L42.3356 13.2282L42.2822 13.1973L42.2819 13.2691L42.2323 13.2404L42.2326 13.1287L42.2385 13.1323ZM42.4289 13.282L42.4292 13.225L42.5262 13.2812L42.5261 13.338L42.4289 13.282ZM42.6224 13.3937L42.6225 13.3367L42.7196 13.3927L42.7195 13.4497L42.6224 13.3937ZM42.8167 13.5058L42.8168 13.449L42.913 13.5044V13.5215L42.9229 13.5273L42.9227 13.639L42.876 13.612L42.8762 13.5403L42.8167 13.5058ZM43.0071 13.6158L43.0072 13.5588L43.1034 13.6144L43.1032 13.6714L43.0071 13.6158ZM43.2006 13.7275L43.2007 13.6705L43.2979 13.7265L43.2975 13.7835L43.2006 13.7275ZM43.3939 13.8392L43.394 13.7822L43.4912 13.8382L43.491 13.8952L43.3939 13.8392ZM43.5843 13.9489L43.5844 13.8921L43.6815 13.9483L43.6813 14.0052L43.5843 13.9489ZM43.7786 14.0613L43.7788 14.0043L43.8748 14.0599L43.8747 14.1169L43.7786 14.0613ZM43.9719 14.173L43.9721 14.116L44.0664 14.1703L44.0662 14.2273L43.9719 14.173ZM44.1626 14.243V14.2259L44.2598 14.282L44.2596 14.339L44.206 14.3081L44.2059 14.3799L44.1592 14.353L44.1594 14.2413L44.1626 14.243ZM44.3558 14.3945L44.3559 14.3376L44.4531 14.3936L44.453 14.4507L44.3558 14.3945ZM44.5501 14.5067L44.5503 14.4498L44.6436 14.5037L44.6434 14.5605L44.5501 14.5067ZM44.9339 14.7283L44.9341 14.6714L45.0312 14.7275L45.0311 14.7845L44.9339 14.7283ZM45.1273 14.84L45.1274 14.783L45.2218 14.8375L45.2215 14.8943L45.1273 14.84ZM45.3177 14.9499L45.3178 14.8929L45.4151 14.949L45.415 15.0061L45.3177 14.9499ZM45.5121 15.0621L45.5122 15.0052L45.6085 15.0607L45.6084 15.1177L45.5121 15.0621ZM45.7055 15.1738L45.7056 15.1168L45.7999 15.1712L45.7997 15.2281L45.7055 15.1738Z" fill="#A997B8"/>
    <path fill-rule="evenodd" clip-rule="evenodd" d="M46.1748 13.2343L46.7223 12.916L46.7206 13.4906L46.1731 13.8088L46.1748 13.2343Z" fill="#041440"/>
    <path fill-rule="evenodd" clip-rule="evenodd" d="M40.5657 9.99587L41.1132 9.67773L46.7224 12.9162L46.1751 13.2343L40.5657 9.99587Z" fill="#020F30"/>
    <path fill-rule="evenodd" clip-rule="evenodd" d="M46.175 13.2345L46.1732 13.809L40.5641 10.5705L40.5656 9.99609L46.175 13.2345Z" fill="#552D86"/>
    <path fill-rule="evenodd" clip-rule="evenodd" d="M4.75092 24.959L5.3383 28.1238C5.40786 28.413 5.63262 28.6925 6.01642 28.915C6.95046 29.4542 8.4584 29.4542 9.38544 28.9153C9.81045 28.6684 10.0397 28.3514 10.0737 28.0284L10.6408 24.9759C10.5712 26.9102 4.74851 25.818 4.75092 24.959Z" fill="#773B69"/>
    <path fill-rule="evenodd" clip-rule="evenodd" d="M9.77154 23.761C8.61825 23.0951 6.75388 23.0951 5.6069 23.7618C4.4612 24.4279 4.46711 25.5076 5.62052 26.1735C6.19767 26.5066 6.95224 26.6734 7.70573 26.6734C8.45932 26.6735 9.21205 26.507 9.78514 26.174C10.9322 25.5075 10.9261 24.4276 9.77154 23.761Z" fill="#7C3E6E"/>
    <path fill-rule="evenodd" clip-rule="evenodd" d="M9.29967 24.0341C8.40866 23.5198 6.96846 23.5198 6.08245 24.0347C5.1973 24.5492 5.20195 25.3834 6.09295 25.8978C6.98487 26.4127 8.42485 26.4127 9.31016 25.8982C10.1963 25.3833 10.1915 24.5491 9.29967 24.0341Z" fill="#58281D"/>
    <path fill-rule="evenodd" clip-rule="evenodd" d="M7.99648 16.782C7.99618 16.7851 7.99602 16.7883 7.99538 16.7915C7.99493 16.794 7.99417 16.7966 7.99349 16.7991C7.99268 16.8021 7.99194 16.8051 7.99091 16.808C7.99005 16.8105 7.9889 16.813 7.9878 16.8154C7.98649 16.8185 7.98511 16.8217 7.98344 16.8247C7.98224 16.827 7.98081 16.8292 7.97938 16.8314C7.97725 16.835 7.97496 16.8385 7.97237 16.8419C7.96984 16.8452 7.96726 16.8486 7.96439 16.8518C7.96375 16.8526 7.96313 16.8534 7.96244 16.8541C7.95859 16.8584 7.95429 16.8625 7.94975 16.8665C7.94694 16.8691 7.94372 16.8716 7.94057 16.8741C7.93781 16.8763 7.93512 16.8786 7.93213 16.8808C7.92875 16.8833 7.92501 16.8856 7.92134 16.888C7.91762 16.8904 7.914 16.893 7.90992 16.8953C7.90097 16.9006 7.89138 16.9052 7.88168 16.9097C7.87882 16.9109 7.87595 16.9121 7.87308 16.9134C7.86538 16.9165 7.85752 16.9195 7.84949 16.9222C7.84662 16.9232 7.8438 16.9243 7.84087 16.9252C7.83577 16.9268 7.8306 16.9282 7.82538 16.9296C7.82148 16.9306 7.81757 16.9318 7.81361 16.9328C7.80816 16.9341 7.80259 16.9352 7.79703 16.9363C7.79329 16.9371 7.7895 16.9379 7.78572 16.9386C7.77447 16.9406 7.7631 16.9422 7.75157 16.9434C7.74801 16.9437 7.74451 16.944 7.74095 16.9442C7.73418 16.9448 7.72741 16.9453 7.72058 16.9456C7.71627 16.9458 7.71196 16.9459 7.70766 16.946C7.70216 16.9461 7.69664 16.9461 7.69113 16.9461C7.68654 16.946 7.68201 16.9458 7.67741 16.9457C7.6723 16.9455 7.66726 16.9452 7.6622 16.9449C7.65756 16.9445 7.65296 16.9442 7.64831 16.9437C7.64333 16.9432 7.63833 16.9427 7.63333 16.942C7.62886 16.9414 7.62438 16.9409 7.6199 16.9402C7.61456 16.9393 7.60923 16.9384 7.60401 16.9374C7.59981 16.9366 7.59568 16.9357 7.59155 16.9348C7.58523 16.9335 7.57904 16.9319 7.57285 16.9303C7.56945 16.9293 7.56596 16.9285 7.56262 16.9275C7.55155 16.9243 7.54076 16.9206 7.53031 16.9166C7.5252 16.9146 7.52027 16.9124 7.51527 16.9102C7.51263 16.9091 7.50994 16.908 7.50735 16.9068C7.49978 16.9031 7.49243 16.8993 7.48537 16.8953C7.4262 16.8611 7.39663 16.8162 7.39675 16.7715L7.39606 24.9313C7.39595 24.976 7.4255 25.0208 7.48463 25.055C7.49174 25.0591 7.49909 25.0629 7.50667 25.0665C7.50919 25.0677 7.51189 25.0688 7.51447 25.0699C7.51895 25.0719 7.52337 25.074 7.52801 25.0758C7.52853 25.076 7.52911 25.0761 7.52962 25.0764C7.54006 25.0805 7.55085 25.084 7.56188 25.0873C7.5628 25.0875 7.56359 25.0878 7.56446 25.0882C7.56704 25.0889 7.56962 25.0893 7.57221 25.09C7.57835 25.0916 7.58455 25.0932 7.59087 25.0946C7.59252 25.095 7.59413 25.0955 7.5958 25.0958C7.59827 25.0963 7.60079 25.0967 7.60325 25.0971C7.60854 25.0982 7.61388 25.0991 7.61922 25.0999C7.62134 25.1002 7.62346 25.1007 7.62559 25.101C7.62794 25.1013 7.63029 25.1015 7.63259 25.1017C7.63758 25.1024 7.64257 25.103 7.64763 25.1035C7.65004 25.1037 7.65239 25.104 7.6548 25.1043C7.65698 25.1045 7.65928 25.1045 7.66146 25.1046C7.66656 25.1049 7.67162 25.1053 7.67672 25.1054C7.67925 25.1055 7.68183 25.1057 7.68436 25.1059C7.68643 25.1059 7.68838 25.1057 7.69044 25.1057C7.69595 25.1059 7.7014 25.1059 7.70692 25.1057C7.70961 25.1056 7.71237 25.1057 7.71506 25.1057C7.71673 25.1056 7.71833 25.1054 7.71994 25.1054C7.72671 25.1051 7.73344 25.1046 7.74021 25.104C7.7429 25.1038 7.74566 25.1038 7.74841 25.1035C7.74921 25.1035 7.75002 25.1032 7.75088 25.1031C7.76236 25.102 7.77372 25.1004 7.78497 25.0984C7.78554 25.0983 7.78612 25.0983 7.7867 25.0982C7.78996 25.0976 7.79312 25.0968 7.79633 25.0961C7.80191 25.095 7.80746 25.0938 7.81292 25.0925C7.81694 25.0916 7.82078 25.0905 7.82474 25.0893C7.82992 25.0879 7.83508 25.0866 7.84013 25.085C7.84127 25.0846 7.84242 25.0844 7.84346 25.0839C7.84529 25.0834 7.84696 25.0826 7.84879 25.082C7.85683 25.0792 7.8647 25.0762 7.87239 25.073C7.87525 25.0719 7.87812 25.0707 7.88093 25.0694C7.8907 25.065 7.90022 25.0603 7.90924 25.0551C7.91049 25.0543 7.9117 25.0536 7.9129 25.0529C7.91566 25.0512 7.91796 25.0495 7.9206 25.0478C7.92427 25.0454 7.92805 25.0431 7.93144 25.0405C7.93443 25.0384 7.93707 25.0362 7.93982 25.0339C7.94304 25.0314 7.94619 25.029 7.94906 25.0263C7.94969 25.0257 7.95039 25.0253 7.95096 25.0247C7.95481 25.0211 7.95836 25.0176 7.96174 25.0139C7.96244 25.0131 7.96301 25.0123 7.96375 25.0115C7.9657 25.0093 7.96777 25.007 7.96956 25.0047C7.97042 25.0037 7.97088 25.0027 7.97162 25.0016C7.97426 24.9982 7.97655 24.9946 7.97874 24.9912C7.97966 24.9897 7.98086 24.9883 7.98167 24.9868C7.98212 24.986 7.98235 24.9852 7.9827 24.9845C7.98442 24.9814 7.98574 24.9783 7.98712 24.9751C7.98792 24.9733 7.98895 24.9716 7.98969 24.9697C7.98993 24.969 7.98999 24.9685 7.99021 24.9679C7.99125 24.9649 7.992 24.9619 7.99274 24.9588C7.99332 24.9569 7.99411 24.9548 7.99453 24.9528C7.99463 24.9523 7.99463 24.9517 7.99469 24.9512C7.99527 24.948 7.9955 24.9449 7.99578 24.9417C7.99596 24.9396 7.99642 24.9377 7.99648 24.9356C7.99652 24.9347 7.99652 24.9338 7.99652 24.933L7.99722 16.7732C7.99722 16.7761 7.99676 16.7791 7.99648 16.782Z" fill="#85465D"/>
    <path fill-rule="evenodd" clip-rule="evenodd" d="M7.9089 16.6486C7.79126 16.5807 7.60117 16.5807 7.48422 16.6486C7.36738 16.7166 7.36795 16.8267 7.48559 16.8946C7.60335 16.9626 7.79345 16.9626 7.91028 16.8947C8.02729 16.8267 8.02666 16.7166 7.9089 16.6486Z" fill="#7C3E6E"/>
    <path fill-rule="evenodd" clip-rule="evenodd" d="M7.69594 12.9766C9.75953 12.9766 11.4324 14.499 11.4324 16.377C11.4324 18.255 9.75953 19.7774 7.69594 19.7774C5.63242 19.7774 3.95953 18.255 3.95953 16.377C3.95953 14.499 5.63242 12.9766 7.69594 12.9766Z" fill="#EEA306"/>
    <path fill-rule="evenodd" clip-rule="evenodd" d="M11.4143 16.043C11.4262 16.1533 11.4324 16.265 11.4324 16.3782C11.4324 18.2561 9.75953 19.7786 7.69594 19.7786C5.63242 19.7786 3.95953 18.2561 3.95953 16.3782C3.95953 16.265 3.96584 16.1533 3.97761 16.043C4.72242 17.0551 6.10863 17.7355 7.69594 17.7355C9.28332 17.7355 10.6695 17.0551 11.4143 16.043Z" fill="#E49305"/>
    <path fill-rule="evenodd" clip-rule="evenodd" d="M26.3085 26.6658C26.3089 26.7006 26.3084 26.7361 26.3069 26.7725C26.2482 28.1521 26.4285 29.5039 26.4512 30.9273C26.3416 31.9424 26.1779 32.6626 25.8949 32.9414C25.8425 32.993 25.7552 33.0911 25.5768 33.0332C25.5578 33.0271 25.5447 33.0559 25.5337 33.0744L26.222 33.6208L27.3075 31.5288C27.3217 31.4243 27.3996 31.3314 27.3599 31.2378C27.3266 31.1599 27.2244 30.9868 27.2574 30.7983C27.5369 29.2007 27.8255 28.0279 27.7826 26.9811C27.7661 26.5775 27.7562 26.2544 27.7525 25.9863L26.3085 26.6658Z" fill="#EE9C05"/>
    <path fill-rule="evenodd" clip-rule="evenodd" d="M26.2584 32.7368C26.4147 32.3607 26.5633 32.0164 26.7198 31.727C26.7899 31.5974 26.9068 31.1727 27.3499 31.1963C27.6426 31.4672 27.7043 31.8517 27.5886 32.2753C27.4426 32.8094 27.4077 33.2767 27.3627 33.8952L27.2858 33.9338L27.2282 33.9005C27.2282 33.2504 27.3076 33.1592 27.1418 32.5052C26.8657 32.6986 26.8811 32.9775 26.8312 33.3041C26.8185 33.3876 26.8193 33.4294 26.6847 33.5331C26.5161 33.6632 26.1663 33.8241 26.1265 33.8182C26.0425 33.8134 25.8231 33.6833 25.7175 33.6199C25.5279 33.5057 25.3646 33.3273 25.4148 33.1862C25.4716 33.026 25.5745 33.0351 25.58 33.0336C25.5975 33.1286 25.8482 33.2522 25.9159 33.1997C26.0077 33.1287 26.1809 32.9236 26.2584 32.7368Z" fill="#020F30"/>
    <path fill-rule="evenodd" clip-rule="evenodd" d="M24.7785 27.2776C24.7904 27.3811 24.7967 27.4913 24.7912 27.6235C24.7325 29.0032 24.9128 30.355 24.9354 31.7784C24.8259 32.7934 24.6621 33.5136 24.3791 33.7924C24.3267 33.8441 24.2396 33.9421 24.061 33.8842C24.0421 33.878 24.0289 33.9069 24.0179 33.9253L24.7063 34.4719L25.7917 32.3799C25.806 32.2752 25.8838 32.1823 25.8441 32.0888C25.811 32.011 25.7088 31.8379 25.7417 31.6494C26.0211 30.0518 26.3097 28.8789 26.267 27.8321C26.2475 27.3575 26.2372 26.9948 26.2355 26.7012L26.1757 26.7292C26.1757 26.7292 25.3527 27.0553 24.7785 27.2776Z" fill="#F4AF38"/>
    <path fill-rule="evenodd" clip-rule="evenodd" d="M24.7427 33.5866C24.899 33.2104 25.0477 32.8661 25.2042 32.5766C25.2742 32.447 25.3911 32.0223 25.8342 32.0459C26.1269 32.3168 26.1886 32.7013 26.0729 33.125C25.9271 33.6592 25.892 34.1265 25.847 34.7448L25.7701 34.7834L25.7125 34.7502C25.7125 34.1001 25.7919 34.0088 25.6261 33.3549C25.3501 33.5483 25.3654 33.8271 25.3155 34.1537C25.3028 34.2373 25.3037 34.279 25.169 34.3829C25.0006 34.5128 24.6506 34.6738 24.6108 34.6678C24.5268 34.663 24.3074 34.5329 24.2018 34.4695C24.0122 34.3555 23.849 34.1769 23.899 34.036C23.9559 33.8757 24.0588 33.8849 24.0643 33.8833C24.0818 33.9782 24.3325 34.1018 24.4004 34.0494C24.492 33.9783 24.6652 33.7734 24.7427 33.5866Z" fill="#041440"/>
    <path fill-rule="evenodd" clip-rule="evenodd" d="M16.7894 22.4539L16.183 22.1016L16.1987 30.2543L16.805 30.6066L16.7894 22.4539Z" fill="#8B4478"/>
    <path fill-rule="evenodd" clip-rule="evenodd" d="M16.7896 22.4544L16.8053 30.6072L17.3961 30.2659L17.3806 22.1133L16.7896 22.4544Z" fill="#6E365F"/>
    <path fill-rule="evenodd" clip-rule="evenodd" d="M23.3226 18.6531L22.7163 18.3008L22.732 23.8142L23.3382 24.1665L23.3226 18.6531Z" fill="#8B4478"/>
    <path fill-rule="evenodd" clip-rule="evenodd" d="M23.3225 18.6537L23.3381 24.1671L23.9291 23.826L23.9135 18.3125L23.3225 18.6537Z" fill="#6E365F"/>
    <path fill-rule="evenodd" clip-rule="evenodd" d="M23.0379 26.827L22.4316 26.4746L22.4472 33.9677L23.0536 34.3202L23.0379 26.827Z" fill="#8B4478"/>
    <path fill-rule="evenodd" clip-rule="evenodd" d="M23.0378 26.8275L23.0534 34.3206L23.6442 33.9792L23.6288 26.4863L23.0378 26.8275Z" fill="#6E365F"/>
    <path fill-rule="evenodd" clip-rule="evenodd" d="M29.9011 22.7527L29.2948 22.4004L29.3104 30.5531L29.9167 30.9053L29.9011 22.7527Z" fill="#8B4478"/>
    <path fill-rule="evenodd" clip-rule="evenodd" d="M29.901 22.7534L29.9166 30.9061L30.5076 30.5649L30.492 22.4121L29.901 22.7534Z" fill="#6E365F"/>
    <path fill-rule="evenodd" clip-rule="evenodd" d="M32.9976 28.4298L32.9128 30.2358L33.0034 35.0549L33.4809 34.7793L33.4751 28.1543L32.9976 28.4298Z" fill="#6E365F"/>
    <path fill-rule="evenodd" clip-rule="evenodd" d="M32.9974 28.4298L32.5297 28.1582L32.5356 34.783L33.0031 35.0548L32.9974 28.4298Z" fill="#8B4478"/>
    <path fill-rule="evenodd" clip-rule="evenodd" d="M29.1018 30.6897L29.017 32.4957L29.1077 37.3148L29.5851 37.0391L29.5792 30.4141L29.1018 30.6897Z" fill="#6E365F"/>
    <path fill-rule="evenodd" clip-rule="evenodd" d="M29.1016 30.6897L28.6339 30.418L28.6398 37.0428L29.1075 37.3147L29.1016 30.6897Z" fill="#8B4478"/>
    <path fill-rule="evenodd" clip-rule="evenodd" d="M26.4853 29.0156L30.4173 31.2858C30.4651 31.3135 30.5116 31.3336 30.5568 31.35C30.5657 31.3533 30.5744 31.3563 30.5833 31.3591C30.626 31.3727 30.6676 31.3821 30.7073 31.386C30.711 31.3864 30.7147 31.3868 30.7183 31.3872C30.7609 31.3905 30.8018 31.3885 30.8399 31.3808C30.8421 31.3804 30.8442 31.3799 30.8462 31.3795C30.8854 31.371 30.9221 31.3575 30.9553 31.3379L30.548 31.5748C30.5467 31.5756 30.5453 31.5764 30.544 31.5772C30.5315 31.5841 30.5189 31.5903 30.5058 31.5959C30.4929 31.6013 30.4794 31.606 30.4657 31.6099C30.457 31.6124 30.4478 31.6141 30.4387 31.6161C30.4365 31.6166 30.4347 31.6173 30.4326 31.6177C30.4294 31.6182 30.4264 31.6192 30.4232 31.6198C30.4084 31.6225 30.3929 31.6242 30.3773 31.6251C30.3609 31.6261 30.3443 31.6263 30.3273 31.6255C30.3218 31.6254 30.3161 31.6243 30.3107 31.624C30.3071 31.6236 30.3037 31.6233 30.2999 31.6228C30.2902 31.6219 30.2808 31.6215 30.2707 31.6199C30.2492 31.6165 30.2268 31.6119 30.2042 31.6057C30.1949 31.6031 30.1852 31.5989 30.1758 31.5959C30.167 31.5932 30.1581 31.5899 30.1493 31.5869C30.1379 31.5826 30.1269 31.5799 30.1154 31.5751C30.0808 31.5608 30.0456 31.5433 30.0099 31.5227L26.078 29.2525L26.4853 29.0156Z" fill="#B3779E"/>
    <path fill-rule="evenodd" clip-rule="evenodd" d="M26.0783 29.2532L30.0103 31.5234C30.4273 31.7643 30.7681 31.5699 30.7694 31.0908L30.7815 26.8496L31.0546 27.0072L31.0427 31.2484C31.0407 31.9016 30.5766 32.1645 30.0094 31.8373L26.0773 29.5671L26.0783 29.2532Z" fill="#8B4478"/>
    <path fill-rule="evenodd" clip-rule="evenodd" d="M29.0357 27.5098L32.9677 29.7799C33.0156 29.8075 33.062 29.8278 33.1074 29.8441C33.1161 29.8474 33.1249 29.8504 33.1337 29.8532C33.1765 29.8668 33.2182 29.8762 33.2579 29.8802C33.2614 29.8806 33.2651 29.881 33.2688 29.8814C33.3113 29.8846 33.3522 29.8827 33.3903 29.8749C33.3926 29.8745 33.3947 29.874 33.3968 29.8736C33.4358 29.8651 33.4725 29.8516 33.5059 29.8321L33.0984 30.069C33.0971 30.0697 33.0957 30.0705 33.0944 30.0713C33.0821 30.0783 33.0694 30.0844 33.0563 30.0899C33.0433 30.0954 33.0299 30.1001 33.0162 30.1041C33.0075 30.1066 32.9982 30.1083 32.9892 30.1102C32.9871 30.1108 32.9851 30.1114 32.983 30.1118C32.98 30.1123 32.9769 30.1132 32.9736 30.1139C32.9588 30.1165 32.9433 30.1184 32.9277 30.1193C32.9114 30.1202 32.8949 30.1204 32.8777 30.1197C32.8722 30.1195 32.8666 30.1185 32.8613 30.1181C32.8576 30.1177 32.8541 30.1173 32.8503 30.1169C32.8406 30.116 32.8312 30.1156 32.8212 30.114C32.7996 30.1106 32.7772 30.106 32.7547 30.0997C32.7455 30.0973 32.7358 30.0931 32.7264 30.0899C32.7175 30.0873 32.7087 30.084 32.6998 30.081C32.6884 30.0767 32.6774 30.0741 32.6658 30.0692C32.6314 30.0549 32.5961 30.0374 32.5605 30.0168L28.6284 27.7465L29.0357 27.5098Z" fill="#B3779E"/>
    <path fill-rule="evenodd" clip-rule="evenodd" d="M28.6283 27.7472L32.5604 30.0175C32.9774 30.2583 33.318 30.064 33.3193 29.5848L33.3315 25.3438L33.6045 25.5014L33.5926 29.7425C33.5907 30.3957 33.1266 30.6588 32.5593 30.3314L28.6274 28.0612L28.6283 27.7472Z" fill="#8B4478"/>
    <path fill-rule="evenodd" clip-rule="evenodd" d="M30.0509 26.7052L29.9662 28.5112L30.0567 31.0209L30.5343 30.7452L30.5285 26.4297L30.0509 26.7052Z" fill="#79479D"/>
    <path fill-rule="evenodd" clip-rule="evenodd" d="M30.0507 26.7052L29.583 26.4336L29.5889 30.749L30.0565 31.0209L30.0507 26.7052Z" fill="#3F1D53"/>
    <path fill-rule="evenodd" clip-rule="evenodd" d="M26.1548 28.965L26.07 30.771L26.1605 35.59L26.6381 35.3145L26.6323 28.6895L26.1548 28.965Z" fill="#6E365F"/>
    <path fill-rule="evenodd" clip-rule="evenodd" d="M26.1545 28.9649L25.6868 28.6934L25.6927 35.3181L26.1603 35.59L26.1545 28.9649Z" fill="#8B4478"/>
    <path fill-rule="evenodd" clip-rule="evenodd" d="M25.3414 28.7676C25.3414 28.7832 25.3444 28.7985 25.3491 28.814C25.3496 28.8155 25.35 28.8171 25.3505 28.8188C25.3554 28.8332 25.3629 28.8472 25.3719 28.8606C25.3736 28.8632 25.3752 28.8658 25.3769 28.8685C25.3868 28.8818 25.3988 28.8951 25.4128 28.9078C25.4217 28.9159 25.4332 28.9232 25.444 28.9311C25.4534 28.9375 25.4613 28.9447 25.472 28.9507L29.0274 31.0171L29.029 31.5862L25.4736 29.5201C25.4717 29.5189 25.4699 29.518 25.4682 29.5168C25.4594 29.5115 25.4533 29.5054 25.4454 29.5001C25.4347 29.4923 25.4233 29.4851 25.4144 29.477C25.4134 29.4762 25.4123 29.4757 25.4115 29.4748C25.401 29.4652 25.3916 29.4551 25.3834 29.4447C25.3816 29.4424 25.3803 29.4401 25.3786 29.4375C25.3767 29.4352 25.3753 29.4326 25.3735 29.43C25.3709 29.426 25.3677 29.422 25.3654 29.4179C25.3605 29.4093 25.3564 29.4008 25.3533 29.3921C25.3528 29.3907 25.3525 29.3895 25.3523 29.3882C25.3516 29.3865 25.3512 29.3849 25.3507 29.3829C25.349 29.3777 25.347 29.3721 25.3461 29.3668C25.3443 29.3581 25.3432 29.3495 25.343 29.3406V29.3367L25.3414 28.7676Z" fill="#884374"/>
    <path fill-rule="evenodd" clip-rule="evenodd" d="M29.1647 31.0682C29.1719 31.0701 29.1789 31.072 29.1861 31.0735C29.2363 31.0845 29.2887 31.0911 29.3417 31.0913C29.3436 31.0912 29.3457 31.0913 29.3477 31.0913C29.4034 31.0911 29.4589 31.0849 29.5116 31.0729C29.5135 31.0725 29.5155 31.072 29.5176 31.0716C29.5708 31.059 29.6208 31.0402 29.6642 31.0154L33.7869 28.635C33.8752 28.584 33.9192 28.5168 33.919 28.4492L33.9207 29.0186C33.9209 29.0859 33.8768 29.1534 33.7885 29.2044L29.6658 31.5845C29.6456 31.5961 29.6239 31.6066 29.6011 31.6158C29.5835 31.6225 29.5653 31.6288 29.5466 31.6341C29.5375 31.6366 29.5284 31.6385 29.5192 31.6409C29.5171 31.6413 29.5152 31.6417 29.5133 31.6422C29.5087 31.6432 29.5042 31.6446 29.4997 31.6455C29.4849 31.6485 29.47 31.6512 29.455 31.6533C29.4404 31.6552 29.4258 31.6569 29.4111 31.6582C29.3963 31.6596 29.3815 31.6602 29.3665 31.6607C29.3609 31.6607 29.355 31.6605 29.3493 31.6605H29.3434C29.3356 31.6605 29.3279 31.6607 29.3203 31.6605C29.3035 31.6597 29.2868 31.6588 29.2702 31.6569C29.2507 31.6551 29.2313 31.6525 29.2125 31.6491C29.2041 31.6474 29.1961 31.6446 29.1878 31.6429C29.1804 31.6413 29.1736 31.6395 29.1662 31.6375C29.1533 31.6341 29.1396 31.6318 29.1272 31.6278C29.0918 31.6164 29.0587 31.6019 29.0288 31.5845L29.0272 31.0154C29.0676 31.0389 29.115 31.0557 29.1647 31.0682Z" fill="#763A65"/>
    <path fill-rule="evenodd" clip-rule="evenodd" d="M25.4741 28.5811C25.2972 28.6833 25.2977 28.8487 25.472 28.95L29.0274 31.0163C29.2017 31.1176 29.4875 31.1184 29.6644 31.0163L33.7871 28.6359C33.9624 28.5347 33.9634 28.3683 33.7892 28.267L30.2336 26.2009C30.0595 26.0997 29.7721 26.0997 29.5968 26.2009L25.4741 28.5811Z" fill="#B3779E"/>
    <path fill-rule="evenodd" clip-rule="evenodd" d="M22.7969 26.1167L15.1282 21.6602L15.1322 23.1039L22.8009 27.5604L22.7969 26.1167Z" fill="#9D5382"/>
    <path fill-rule="evenodd" clip-rule="evenodd" d="M15.1284 21.6591L22.7971 26.1157L31.1427 21.2973L23.4757 16.8418L15.1284 21.6591Z" fill="#B3779E"/>
    <path fill-rule="evenodd" clip-rule="evenodd" d="M22.7968 26.1153L22.8009 27.559L31.1481 22.7397L31.1442 21.2979L31.1424 21.2969L22.7968 26.1153Z" fill="#763A65"/>
    <path fill-rule="evenodd" clip-rule="evenodd" d="M25.82 21.0021C25.8299 21.0016 25.8388 21.0034 25.8463 21.0076L23.9099 19.8825C23.9086 19.8815 23.9072 19.881 23.9057 19.8804C23.9043 19.8797 23.9028 19.8793 23.9013 19.8787C23.8997 19.8783 23.8983 19.8781 23.8966 19.8776C23.895 19.8775 23.8933 19.8772 23.8915 19.877H23.886C23.8854 19.877 23.8848 19.8772 23.8841 19.8772H23.8835C23.8823 19.8775 23.8811 19.8775 23.8798 19.8776C23.8774 19.8781 23.8751 19.8785 23.8726 19.8793C23.8694 19.8801 23.8662 19.8811 23.8629 19.8825C23.8592 19.8842 23.8554 19.886 23.8515 19.8882L21.812 21.0656L23.7479 22.1909L25.7875 21.0132C25.7987 21.0068 25.8095 21.0033 25.8194 21.0024C25.8197 21.0024 25.8198 21.0024 25.82 21.0021Z" fill="#673192"/>
    <path fill-rule="evenodd" clip-rule="evenodd" d="M23.6642 22.3349C23.6641 22.3218 23.6665 22.3078 23.6707 22.294C23.6707 22.2936 23.6708 22.2934 23.6709 22.2931C23.6751 22.2793 23.6811 22.2656 23.6886 22.2526C23.6961 22.2397 23.7049 22.2275 23.7148 22.2171C23.7152 22.2165 23.7156 22.2161 23.7161 22.2157C23.7259 22.2052 23.7367 22.1961 23.7481 22.1897L21.8122 21.0645C21.8023 21.0704 21.7929 21.0777 21.784 21.0862C21.7827 21.0876 21.7815 21.0892 21.7802 21.0904C21.7797 21.0911 21.7792 21.0914 21.7788 21.0918C21.7775 21.0934 21.7761 21.0946 21.7749 21.0962C21.7725 21.0988 21.7702 21.1017 21.768 21.1044C21.7661 21.1069 21.7642 21.1094 21.7624 21.1121C21.7608 21.1145 21.7591 21.117 21.7575 21.1192C21.7561 21.1217 21.7546 21.1241 21.7532 21.1264C21.753 21.1268 21.7529 21.1271 21.7528 21.1272C21.7516 21.1293 21.7503 21.1317 21.7492 21.1335C21.748 21.136 21.7468 21.1382 21.7456 21.1408C21.7445 21.1431 21.7433 21.1457 21.7422 21.148C21.7412 21.1505 21.7401 21.1532 21.7391 21.1556C21.7382 21.1581 21.7372 21.1609 21.7363 21.1635C21.7359 21.1651 21.7354 21.1665 21.735 21.168C21.7349 21.1684 21.7348 21.1686 21.7346 21.1687C21.7344 21.1699 21.734 21.1711 21.7337 21.1722C21.7329 21.1753 21.732 21.1786 21.7313 21.1817C21.7305 21.1858 21.7298 21.1894 21.7293 21.1935C21.7286 21.1991 21.7282 21.2046 21.7283 21.2099L21.7285 21.2785C21.7285 21.3049 21.7378 21.3236 21.753 21.3325L23.6889 22.4574C23.6738 22.4486 23.6644 22.43 23.6644 22.4034L23.6642 22.3349Z" fill="#062980"/>
    <path fill-rule="evenodd" clip-rule="evenodd" d="M25.871 21.0619C25.8708 21.0083 25.833 20.9868 25.7875 21.0132L23.7479 22.1909C23.7013 22.2176 23.6638 22.2828 23.6639 22.336L23.6641 22.4045C23.6643 22.4581 23.7021 22.4796 23.7486 22.4526L25.7881 21.2752C25.8337 21.249 25.8713 21.1838 25.8712 21.1304L25.871 21.0619Z" fill="#392F89"/>
    <path fill-rule="evenodd" clip-rule="evenodd" d="M22.8605 20.3691L22.7935 21.2182L23.0838 21.3871L23.1509 20.538L22.8605 20.3691Z" fill="#552D86"/>
    <path fill-rule="evenodd" clip-rule="evenodd" d="M24.3594 19.8418L23.1512 20.5394L23.0842 21.3885L24.431 20.6108L24.3594 19.8418Z" fill="#041440"/>
    <path fill-rule="evenodd" clip-rule="evenodd" d="M21.0878 21.4691L21.0869 21.1433L20.7964 20.9746L20.7973 21.3002C20.7974 21.3357 20.8038 21.3659 20.8153 21.3904C20.8266 21.4149 20.8432 21.4333 20.8635 21.445L21.154 21.6139C21.1133 21.5903 21.088 21.5401 21.0878 21.4691Z" fill="#062980"/>
    <path fill-rule="evenodd" clip-rule="evenodd" d="M26.4202 18.0645L21.0871 21.1434L21.0879 21.4691C21.0883 21.612 21.1905 21.6703 21.3149 21.5984L26.1957 18.7805C26.3201 18.7086 26.4214 18.533 26.421 18.3899L26.4202 18.0645Z" fill="#392F89"/>
    <path fill-rule="evenodd" clip-rule="evenodd" d="M26.2297 14.6777L21.257 17.5487L21.2663 20.8546L26.2391 17.9836L26.2297 14.6777Z" fill="#9278B1"/>
    <path fill-rule="evenodd" clip-rule="evenodd" d="M21.0866 21.0751L21.077 17.6803L20.7866 17.5117L20.7963 20.9062L20.7965 20.9747L21.0869 21.1433L21.0866 21.0751Z" fill="#552D86"/>
    <path fill-rule="evenodd" clip-rule="evenodd" d="M21.2661 20.8531L21.2567 17.5473L26.2294 14.6763L26.2388 17.9822L21.2661 20.8531ZM26.4101 14.6013C26.4099 14.5227 26.379 14.4699 26.3298 14.4498C26.2902 14.4343 26.2393 14.4395 26.1832 14.4719L21.3025 17.2897C21.178 17.3615 21.0766 17.5373 21.077 17.6803L21.0866 21.0749L21.0869 21.1432L26.42 18.0643L26.4101 14.6013Z" fill="#041440"/>
    <path fill-rule="evenodd" clip-rule="evenodd" d="M26.229 14.4523C26.2404 14.4485 26.2515 14.4454 26.262 14.4439C26.2628 14.4437 26.2635 14.4437 26.2643 14.4437C26.2755 14.4422 26.2865 14.4421 26.2967 14.4431C26.2978 14.4431 26.2987 14.4433 26.2998 14.4433C26.3104 14.4446 26.3205 14.4468 26.3299 14.4506L26.0394 14.282C26.0363 14.2805 26.0329 14.2794 26.0295 14.2784C26.0252 14.2771 26.0207 14.2761 26.0162 14.2755C26.014 14.275 26.0117 14.2748 26.0093 14.2746C26.0084 14.2744 26.0073 14.2744 26.0064 14.2742C26.005 14.274 26.0037 14.2739 26.0022 14.2739C25.9973 14.2733 25.9921 14.2734 25.987 14.2736C25.9827 14.2738 25.9783 14.2744 25.9739 14.2748C25.9731 14.275 25.9725 14.275 25.9717 14.275C25.9711 14.2752 25.9705 14.2752 25.97 14.2752C25.9636 14.2763 25.957 14.2776 25.9502 14.2794C25.9464 14.2805 25.9425 14.2822 25.9387 14.2834C25.9361 14.2843 25.9333 14.285 25.9306 14.2862C25.9285 14.287 25.9264 14.2876 25.9241 14.2884C25.9141 14.2926 25.9036 14.2978 25.893 14.3039L21.0122 17.1218C20.9884 17.1356 20.9657 17.1542 20.9441 17.1747C20.9419 17.1768 20.9393 17.1778 20.9371 17.1801C20.9341 17.183 20.9313 17.1862 20.9284 17.1893C20.9258 17.192 20.9233 17.1947 20.9208 17.1975C20.918 17.2004 20.9151 17.2033 20.9124 17.2062C20.906 17.2135 20.9 17.2211 20.894 17.2288C20.8919 17.2315 20.8899 17.2345 20.8878 17.2372C20.8867 17.2386 20.8857 17.2401 20.8845 17.2415C20.8827 17.2441 20.8807 17.2465 20.8789 17.2493C20.8743 17.2558 20.8699 17.2622 20.8657 17.2689C20.8617 17.2752 20.8578 17.2816 20.854 17.2881C20.8536 17.2888 20.8534 17.2892 20.853 17.2898C20.8527 17.2903 20.8525 17.2909 20.8522 17.2913C20.8491 17.2967 20.8461 17.3019 20.8432 17.3074C20.8399 17.3137 20.8366 17.3202 20.8335 17.3266C20.8306 17.3325 20.828 17.3381 20.8255 17.3439C20.8253 17.3443 20.8251 17.3448 20.8249 17.3452C20.8247 17.3456 20.8245 17.3461 20.8245 17.3465C20.8215 17.3531 20.8187 17.36 20.8161 17.3667C20.8133 17.3739 20.8108 17.3811 20.8084 17.3883C20.8072 17.3916 20.8063 17.3952 20.8052 17.3985C20.8048 17.4001 20.8043 17.4016 20.8038 17.4033C20.803 17.4058 20.8021 17.4085 20.8014 17.4112C20.799 17.42 20.7968 17.4286 20.795 17.4372C20.7939 17.4424 20.7932 17.4474 20.7923 17.4526C20.7919 17.4553 20.7914 17.458 20.791 17.4607C20.7905 17.4632 20.79 17.4658 20.7897 17.4685C20.788 17.4815 20.7869 17.4943 20.7867 17.507V17.5124L21.0771 17.681C21.0771 17.6643 21.0787 17.647 21.0814 17.6294C21.0818 17.6267 21.0823 17.624 21.0827 17.6213C21.0856 17.605 21.0893 17.5885 21.0942 17.572C21.0946 17.5705 21.0951 17.5688 21.0957 17.5673C21.1012 17.5494 21.1077 17.5316 21.1154 17.5141C21.1155 17.5137 21.1157 17.5133 21.1158 17.5128C21.1237 17.4948 21.1327 17.4773 21.1425 17.4601C21.1428 17.4595 21.1431 17.4591 21.1434 17.4587C21.1531 17.442 21.1637 17.4257 21.175 17.4102C21.176 17.4087 21.1771 17.4073 21.1782 17.4058C21.1886 17.3918 21.1997 17.3786 21.2113 17.3661C21.2137 17.3634 21.2162 17.3606 21.2188 17.3581C21.2238 17.3529 21.2292 17.3483 21.2344 17.3433C21.2561 17.3228 21.2788 17.3042 21.3026 17.2905L26.1833 14.4727C26.1961 14.4652 26.2087 14.4596 26.2209 14.455C26.2236 14.4539 26.2264 14.4531 26.229 14.4523Z" fill="#68379A"/>
    <path fill-rule="evenodd" clip-rule="evenodd" d="M23.4399 23.0021C24.4938 23.6841 24.2849 24.6487 23.3689 24.6278C22.8188 24.6152 21.5835 23.7846 21.5687 23.2802C21.5401 22.3117 22.9744 22.7007 23.4399 23.0021Z" fill="#6C389D"/>
    <path fill-rule="evenodd" clip-rule="evenodd" d="M31.808 26.3135L32.6666 26.5037C32.9569 27.1142 33.0489 27.6454 32.9351 28.1128C32.7016 29.0718 31.3443 29.9424 30.4347 30.0817C28.7289 30.3429 26.0564 28.2345 24.7176 27.5503C24.6422 26.3924 24.7805 26.1296 25.264 25.835C26.1227 25.312 26.7893 25.1632 27.6 25.4655C28.6152 25.844 29.5124 26.0208 30.3054 26.409L31.808 26.3135Z" fill="#020F30"/>
    <path fill-rule="evenodd" clip-rule="evenodd" d="M29.9573 20.6116C28.8111 21.2734 28.1838 21.9853 28.5558 22.2015C28.9275 22.4176 30.1586 22.0563 31.3045 21.3945C32.4508 20.7328 33.0786 20.021 32.7064 19.8048C32.3344 19.5887 31.1037 19.9499 29.9573 20.6116Z" fill="#041440"/>
    <path fill-rule="evenodd" clip-rule="evenodd" d="M32.5532 21.6015C32.6055 20.6559 32.5028 19.7864 31.8388 19.9055C31.1601 20.0273 29.8343 21.0251 29.092 21.4139L30.1789 21.7673L32.5532 21.6015Z" fill="#041440"/>
    <path fill-rule="evenodd" clip-rule="evenodd" d="M32.5836 19.907C33.1522 20.3861 33.0472 23.4017 33.0982 24.1014L32.7987 27.1938C32.5432 27.3112 31.9834 27.3406 31.7936 27.1689L31.9813 24.0765L31.5973 22.2925C31.5145 21.1414 32.2421 19.762 32.5836 19.907Z" fill="#020F30"/>
    <path fill-rule="evenodd" clip-rule="evenodd" d="M29.8623 19.5762C29.9046 19.8541 30.1535 20.4891 29.8593 21.192C30.4939 21.0643 31.1783 20.613 31.3692 20.3488C31.3912 20.171 31.4297 19.9927 31.4715 19.8019L29.8623 19.5762Z" fill="#EE9C05"/>
    <path fill-rule="evenodd" clip-rule="evenodd" d="M29.3184 21.2848C27.7816 22.0017 28.8704 23.5039 29.1932 25.8718C29.2318 26.1543 28.7865 27.484 28.6857 28.0963C28.6499 28.2108 28.675 28.301 28.7703 28.3565C29.1179 28.5586 30.269 28.2207 31.3407 27.602C32.3913 26.9954 32.976 26.3441 32.6711 26.1281C32.4624 25.8087 32.0753 25.4002 32.1881 24.3937C32.2762 23.6067 32.4268 23.3814 32.5318 22.6848C32.6046 22.2016 32.8925 20.29 32.0293 20.3267C31.7196 20.3398 29.7667 21.0757 29.3184 21.2848Z" fill="#041440"/>
    <path fill-rule="evenodd" clip-rule="evenodd" d="M29.5919 17.1504C29.4295 17.4539 29.2108 17.5007 29.2054 17.901C29.2012 18.2177 29.1816 19.9543 29.7552 20.3268C29.9552 20.4568 30.476 20.1571 30.795 19.8857C31.0129 19.7002 30.9313 19.3523 31.0251 19.2301L30.5428 17.2544L29.5919 17.1504Z" fill="#F4AF38"/>
    <path fill-rule="evenodd" clip-rule="evenodd" d="M31.9267 16.773C32.6892 17.3268 32.7125 18.3147 32.2742 19.0933C32.06 19.4734 32.0116 19.5853 31.6777 19.7539C31.5246 19.8312 31.2876 20.0019 31.0299 19.99C30.7205 19.9757 30.3999 18.6676 30.0856 18.6312C29.9573 18.6164 29.8424 18.7765 29.8756 19.2807C29.6678 18.7892 29.4887 18.6369 29.1734 18.2349C28.6447 16.6716 31.1637 15.7855 31.9267 16.773Z" fill="#58281D"/>
    <path fill-rule="evenodd" clip-rule="evenodd" d="M28.0509 22.5436C28.2863 22.0128 28.5353 21.6966 28.7928 21.5697C29.6013 21.1714 29.9869 22.1029 29.6373 22.9081C29.3046 23.6745 28.7131 24.7671 28.2973 25.5619C27.9158 26.2913 27.4927 26.3146 27.2355 26.136C26.9804 25.959 26.8479 25.5662 27.1977 24.7824C27.5831 23.9191 27.6653 23.4128 28.0509 22.5436Z" fill="#552D86"/>
    <path fill-rule="evenodd" clip-rule="evenodd" d="M33.9171 20.8095C33.1129 21.305 32.6194 21.6112 32.2029 21.1906C31.3755 20.3549 31.1947 18.122 31.7399 17.0771C31.8195 16.9242 31.7958 16.8766 31.7451 16.9087C31.6129 16.899 31.2153 16.4854 31.3509 16.3983C32.9709 15.3577 33.6675 16.4118 33.6318 17.3996C33.5467 19.7619 32.8177 20.4241 33.9171 20.8095Z" fill="#793A2C"/>
    <path fill-rule="evenodd" clip-rule="evenodd" d="M31.442 16.3281C31.3015 16.3828 31.1816 16.4057 31.1485 16.5056C31.0921 16.6754 31.2319 16.982 31.3608 17.0825C31.4597 17.1598 31.7058 17.0121 31.7998 16.9014C31.5763 16.8352 31.4302 16.5386 31.442 16.3281Z" fill="#552D86"/>
    <path fill-rule="evenodd" clip-rule="evenodd" d="M30.4203 20.5673C30.0404 20.7867 29.8325 21.0226 29.9558 21.0943C30.079 21.1659 30.4869 21.0462 30.8667 20.8269C31.2465 20.6076 31.4546 20.3717 31.3313 20.3001C31.208 20.2284 30.8002 20.348 30.4203 20.5673Z" fill="#EE9C05"/>
    <path fill-rule="evenodd" clip-rule="evenodd" d="M29.6606 26.3057L29.6669 28.5206C29.667 28.5452 29.6693 28.568 29.6734 28.5892C29.6736 28.5896 29.6737 28.5904 29.6737 28.5908C29.678 28.6117 29.6841 28.6306 29.6919 28.6474C29.6922 28.6476 29.6922 28.6478 29.6923 28.648C29.6974 28.6593 29.7045 28.668 29.711 28.6772C29.7251 28.6968 29.7408 28.7139 29.7603 28.7253L29.2681 28.4393C29.2486 28.4279 29.2329 28.4109 29.2188 28.3911C29.2171 28.3885 29.2143 28.3876 29.2127 28.3851C29.2082 28.3781 29.2042 28.3708 29.2005 28.3632C29.2004 28.3627 29.2002 28.3624 29.2001 28.3623C29.2 28.362 29.2 28.3618 29.1998 28.3614C29.1972 28.3561 29.195 28.3505 29.1928 28.3447C29.1908 28.3394 29.189 28.3339 29.1873 28.328C29.1857 28.3227 29.1843 28.3174 29.1829 28.3117C29.1824 28.3096 29.1821 28.3071 29.1816 28.305C29.1815 28.3043 29.1814 28.3037 29.1812 28.3031C29.1808 28.3008 29.1803 28.2985 29.1799 28.2961C29.179 28.2913 29.1782 28.286 29.1776 28.2811C29.1769 28.2758 29.1764 28.2707 29.176 28.2656C29.1756 28.2608 29.1753 28.2559 29.1751 28.2508C29.1748 28.2456 29.1747 28.2406 29.1747 28.2353V28.2344L29.1684 26.0195L29.6606 26.3057Z" fill="#884374"/>
    <path fill-rule="evenodd" clip-rule="evenodd" d="M29.8553 25.8545C29.8549 25.8548 29.8545 25.8551 29.8542 25.8557C29.8354 25.8757 29.8174 25.8973 29.8007 25.9201C29.8004 25.9204 29.8003 25.9209 29.8 25.921C29.7836 25.9435 29.7683 25.9669 29.7543 25.9911C29.7535 25.9924 29.7528 25.9938 29.7521 25.9951C29.7383 26.0193 29.7257 26.0439 29.7147 26.0691C29.7146 26.0694 29.7145 26.0699 29.7143 26.07C29.7031 26.0959 29.6934 26.1223 29.6854 26.1483C29.6854 26.1488 29.6852 26.1493 29.6851 26.1494C29.6773 26.1757 29.6711 26.2021 29.667 26.2281C29.6669 26.2283 29.6669 26.2284 29.6669 26.2285C29.6627 26.2546 29.6605 26.2807 29.6606 26.3058L29.1684 26.0197C29.1684 26.0148 29.1685 26.0103 29.1687 26.0054C29.1688 26.0004 29.1691 25.9953 29.1693 25.9902C29.1696 25.9851 29.1701 25.9797 29.1706 25.9746C29.171 25.9695 29.1717 25.9644 29.1723 25.959C29.173 25.9537 29.1738 25.9483 29.1746 25.9432C29.1746 25.9429 29.1747 25.9428 29.1747 25.9425V25.942C29.1755 25.9372 29.1764 25.932 29.1773 25.9269C29.1785 25.9214 29.1795 25.9159 29.1807 25.9103C29.182 25.9048 29.1833 25.8992 29.1846 25.8935C29.1861 25.888 29.1875 25.8821 29.1891 25.8766C29.1903 25.8722 29.1916 25.8677 29.1929 25.8634C29.193 25.8631 29.1932 25.8629 29.1933 25.8624C29.1935 25.8614 29.1937 25.8605 29.1941 25.8596C29.1958 25.8542 29.1975 25.8486 29.1993 25.8431C29.2011 25.8377 29.2031 25.8322 29.2051 25.8269C29.2069 25.8217 29.2089 25.8164 29.211 25.8111C29.2129 25.8059 29.215 25.8008 29.2173 25.7957C29.2188 25.7916 29.2205 25.7879 29.2221 25.784C29.2222 25.7838 29.2224 25.7835 29.2225 25.7832C29.2229 25.7823 29.2233 25.7811 29.2237 25.7802C29.226 25.7752 29.2284 25.7697 29.2309 25.7646C29.2335 25.7591 29.2363 25.7535 29.239 25.7478C29.2423 25.7413 29.2456 25.7351 29.2488 25.7286C29.2525 25.722 29.2562 25.7155 29.2598 25.7091C29.2606 25.7079 29.2614 25.7064 29.2621 25.705C29.263 25.7034 29.2639 25.702 29.2648 25.7004C29.2723 25.6876 29.2803 25.6747 29.2885 25.6624C29.2947 25.6531 29.3012 25.6441 29.3079 25.635C29.3081 25.6348 29.3083 25.6343 29.3084 25.6341C29.3087 25.6339 29.3087 25.6336 29.3088 25.6336C29.3134 25.6273 29.3183 25.621 29.323 25.615C29.3271 25.6099 29.3311 25.6046 29.3353 25.5998C29.3394 25.595 29.3434 25.5901 29.3476 25.5854C29.3518 25.5808 29.3559 25.5761 29.3601 25.5715C29.3607 25.571 29.3614 25.5703 29.362 25.5697C29.3624 25.5692 29.3627 25.5689 29.3631 25.5684C29.3664 25.565 29.3698 25.5613 29.3732 25.5579C29.3775 25.5533 29.3821 25.549 29.3867 25.5446C29.3912 25.5399 29.3958 25.5359 29.4006 25.5317C29.4053 25.5272 29.41 25.5233 29.4148 25.5191C29.4171 25.5173 29.4193 25.5154 29.4216 25.5135C29.4222 25.5129 29.4227 25.5128 29.4232 25.5123C29.4252 25.5107 29.427 25.509 29.429 25.5077C29.4336 25.5039 29.4383 25.5005 29.443 25.497C29.4475 25.4934 29.4522 25.4903 29.4568 25.4871C29.4613 25.4839 29.4658 25.4811 29.4703 25.4781C29.4747 25.4753 29.4793 25.4726 29.4839 25.47C29.4848 25.4692 29.486 25.4688 29.487 25.4681L33.6082 23.0887C33.6116 23.0868 33.6148 23.0849 33.6182 23.083C33.6226 23.0807 33.6269 23.0785 33.6313 23.0764C33.6355 23.0743 33.6399 23.0722 33.6442 23.0703C33.6485 23.0681 33.6527 23.0665 33.657 23.0647C33.6612 23.063 33.6655 23.0614 33.6697 23.06C33.6708 23.0596 33.6717 23.0593 33.6726 23.0591C33.6729 23.0589 33.6731 23.0589 33.6734 23.0589C33.6764 23.0576 33.6796 23.0567 33.6826 23.0558C33.687 23.0545 33.6913 23.0533 33.6957 23.0521C33.7001 23.051 33.7044 23.05 33.7088 23.0494C33.7135 23.0483 33.7182 23.0474 33.7228 23.047C33.7259 23.0465 33.7292 23.0462 33.7325 23.0458H33.7339C33.7348 23.0458 33.7359 23.0456 33.7369 23.0456C33.742 23.0452 33.747 23.0449 33.752 23.0449C33.7575 23.0452 33.7631 23.0453 33.7685 23.0458C33.7748 23.0462 33.781 23.0473 33.787 23.0483C33.7871 23.0483 33.7874 23.0486 33.7875 23.0486C33.7878 23.0486 33.788 23.0489 33.7882 23.0489C33.7955 23.0503 33.8026 23.0521 33.8094 23.0546C33.8184 23.0579 33.8271 23.062 33.8352 23.0665L34.3274 23.3527C34.3131 23.3443 34.2974 23.3384 34.2805 23.335C34.2802 23.3347 34.28 23.3347 34.2796 23.3347C34.263 23.3312 34.2449 23.3303 34.226 23.332H34.2247C34.2058 23.3338 34.1861 23.338 34.1656 23.3447C34.1654 23.345 34.1649 23.345 34.1647 23.3452C34.1439 23.3522 34.1224 23.362 34.1002 23.3748L29.9791 25.7541C29.9572 25.7667 29.936 25.7816 29.9154 25.7984C29.9149 25.7987 29.9144 25.7991 29.9139 25.7996C29.8934 25.8161 29.874 25.8344 29.8553 25.8545Z" fill="#B3779E"/>
    <path fill-rule="evenodd" clip-rule="evenodd" d="M29.9789 25.7552L34.1 23.3759C34.2769 23.2735 34.4201 23.3569 34.4206 23.5585L34.4269 25.7734C34.4276 25.9749 34.2853 26.2229 34.1084 26.3251L29.9873 28.7045C29.8104 28.8065 29.6674 28.7233 29.6667 28.5218L29.6604 26.3069C29.6598 26.1054 29.802 25.8571 29.9789 25.7552Z" fill="#763A65"/>
    <path fill-rule="evenodd" clip-rule="evenodd" d="M31.0432 31.2475L31.0552 27.0064L31.4627 26.7695L31.4506 31.0109C31.4499 31.2133 31.4048 31.3786 31.3261 31.5001C31.2787 31.5732 31.2193 31.6304 31.15 31.6707L30.7424 31.9074C30.9274 31.8 31.0422 31.5718 31.0432 31.2475Z" fill="#6E365F"/>
    <path fill-rule="evenodd" clip-rule="evenodd" d="M31.0552 27.0059L31.4629 26.769L31.1895 26.6113L30.7821 26.8483L31.0552 27.0059Z" fill="#B3779E"/>
    <path fill-rule="evenodd" clip-rule="evenodd" d="M30.011 31.5214C30.428 31.7623 30.7688 31.5679 30.7701 31.0888L30.7823 26.8477L31.0553 27.0053L31.0434 31.2464C31.0414 31.8996 30.5774 32.1626 30.0101 31.8353L30.011 31.5214Z" fill="#8B4478"/>
    <path fill-rule="evenodd" clip-rule="evenodd" d="M33.5933 29.7417L33.6052 25.5005L34.0128 25.2637L34.0006 29.5051C34.0001 29.7075 33.955 29.8727 33.8761 29.9943C33.8287 30.0674 33.7694 30.1245 33.7001 30.1649L33.2925 30.4016C33.4775 30.2942 33.5924 30.0659 33.5933 29.7417Z" fill="#6E365F"/>
    <path fill-rule="evenodd" clip-rule="evenodd" d="M33.6053 25.5001L34.013 25.2631L33.7396 25.1055L33.3322 25.3424L33.6053 25.5001Z" fill="#B3779E"/>
    <path fill-rule="evenodd" clip-rule="evenodd" d="M32.5612 30.0155C32.9782 30.2563 33.3188 30.062 33.3201 29.5828L33.3323 25.3418L33.6053 25.4994L33.5934 29.7405C33.5915 30.3938 33.1274 30.6568 32.5601 30.3294L32.5612 30.0155Z" fill="#8B4478"/>
    <path fill-rule="evenodd" clip-rule="evenodd" d="M24.9276 23.8176C24.4698 23.5873 24.4387 23.5319 24.0165 23.1335C23.8585 22.9845 23.7806 22.9087 23.4965 22.8024C23.2285 22.7022 22.6519 22.9123 22.1351 22.9223C21.7909 22.9288 21.7377 23.2067 21.7538 23.3688C21.7845 23.6774 22.1886 23.7917 22.4946 23.9747C22.7618 24.1348 22.8939 24.2321 23.25 24.3417C23.4793 24.4122 23.8665 24.3316 24.0962 24.4022L24.6661 24.6181L24.9023 23.8695L24.8841 23.859L24.9276 23.8176Z" fill="#EE9C05"/>
    <path fill-rule="evenodd" clip-rule="evenodd" d="M24.4458 23.4863C24.1487 23.5117 23.9576 24.1943 24.1057 24.4599L26.9389 26.0806C27.6445 26.3784 28.0161 26.0965 28.0855 25.7401C28.1532 25.3923 27.9984 24.9234 27.2765 24.7038L24.4458 23.4863Z" fill="#552D86"/>
    <path fill-rule="evenodd" clip-rule="evenodd" d="M25.0018 15.4043L22.4328 16.8875L22.4422 20.1665L25.0111 18.6833L25.0018 15.4043Z" fill="#C9F5EE"/>
    <path fill-rule="evenodd" clip-rule="evenodd" d="M23.9674 16.3091L23.9702 17.2948L24.8268 16.8002L24.824 15.8145L23.9674 16.3091Z" fill="#9278B1"/>
    <path fill-rule="evenodd" clip-rule="evenodd" d="M24.2786 16.7999C24.2832 16.8217 24.2846 16.8537 24.2809 16.8849C24.2987 16.9065 24.3631 16.906 24.4012 16.9075C24.4375 16.8636 24.512 16.8195 24.5145 16.7516C24.5111 16.7255 24.5116 16.6938 24.5147 16.6676C24.4902 16.5957 24.3565 16.6908 24.2786 16.7999Z" fill="#EE9C05"/>
    <path fill-rule="evenodd" clip-rule="evenodd" d="M24.4027 17.0273L24.4272 17.0305L24.5147 16.9798C24.5268 16.9091 24.5273 16.8509 24.5365 16.8086L24.3927 16.8954C24.3426 16.9252 24.3827 16.9689 24.4027 17.0273Z" fill="#9278B1"/>
    <path fill-rule="evenodd" clip-rule="evenodd" d="M24.6003 16.7941C24.6048 16.7935 24.5881 16.8245 24.5927 16.8237L24.6154 16.9229L24.5048 16.9869L24.5362 16.9687L24.8091 16.8112L24.8275 16.8005L24.8274 16.7724C24.7691 16.7259 24.6739 16.78 24.6003 16.7941Z" fill="#393491"/>
    <path fill-rule="evenodd" clip-rule="evenodd" d="M24.5161 16.748C24.5157 16.7491 24.5152 16.7501 24.5146 16.7511C24.498 16.7815 24.4355 16.8457 24.3992 16.8896C24.3986 16.8902 24.398 16.8909 24.3975 16.8916L24.3992 16.8933L24.4009 16.8951L24.4023 16.8943L24.4266 16.9213L24.4737 16.9698L24.5365 16.8084C24.538 16.8018 24.5394 16.7956 24.5407 16.7901C24.5415 16.7904 24.5424 16.7906 24.5433 16.7909L24.5444 16.788C24.528 16.7829 24.5199 16.774 24.5161 16.748Z" fill="#C9F5EE"/>
    <path fill-rule="evenodd" clip-rule="evenodd" d="M24.2606 16.9672C24.2703 16.9987 24.2775 17.0525 24.29 17.1093L24.3724 17.062L24.4054 17.0333L24.3956 16.9327L24.3946 16.918L24.2606 16.9672Z" fill="#9278B1"/>
    <path fill-rule="evenodd" clip-rule="evenodd" d="M24.2532 16.959L24.2524 16.9592L24.2526 16.961L24.2536 16.9596L24.2532 16.959Z" fill="#4A3257"/>
    <path fill-rule="evenodd" clip-rule="evenodd" d="M24.182 17.1737L24.2403 17.0479C24.2399 17.0481 24.1907 17.0349 24.1989 17.0254C24.1255 17.097 24.0293 17.1527 23.9709 17.2674L23.971 17.2955L23.9862 17.2867L24.2579 17.1298C24.3935 17.0517 24.3317 17.0872 24.182 17.1737Z" fill="#393491"/>
    <path fill-rule="evenodd" clip-rule="evenodd" d="M24.5401 16.791C24.5387 16.7965 24.5374 16.8027 24.536 16.8093C24.5268 16.8516 24.5167 16.9155 24.5048 16.9862L24.6154 16.9222L24.6127 16.7934L24.6139 16.7915C24.6093 16.7923 24.6049 16.7929 24.6003 16.7934C24.5776 16.7961 24.5568 16.7956 24.5428 16.7918C24.5418 16.7915 24.5409 16.7914 24.5401 16.791Z" fill="#673192"/>
    <path fill-rule="evenodd" clip-rule="evenodd" d="M24.399 16.8945L24.3972 16.8984L24.4007 16.8964L24.399 16.8945Z" fill="#4A3257"/>
    <path fill-rule="evenodd" clip-rule="evenodd" d="M24.3952 16.8986L24.3582 16.9831V16.984L24.3592 16.9987L24.3908 17.0167L24.3724 17.0622L24.4272 17.0306L24.4082 17.0066L24.4385 16.9529L24.4395 16.9361L24.4266 16.9215L24.4023 16.8945L24.4009 16.8953L24.3973 16.8973L24.3952 16.8986Z" fill="#112982"/>
    <path fill-rule="evenodd" clip-rule="evenodd" d="M24.2805 16.8848C24.2772 16.9148 24.2703 16.9325 24.2524 16.9572L24.2532 16.9582L24.2536 16.9588C24.2547 16.9574 24.2556 16.9561 24.2563 16.9551C24.2576 16.9589 24.259 16.9633 24.2604 16.9681L24.3254 17.0561L24.3579 16.9846V16.9837L24.395 16.8992L24.3971 16.8979L24.399 16.8941L24.3973 16.8924C24.3978 16.8917 24.3984 16.8911 24.399 16.8904C24.3608 16.8889 24.2966 16.897 24.2809 16.8852C24.2808 16.885 24.2806 16.885 24.2805 16.8848Z" fill="#C9F5EE"/>
    <path fill-rule="evenodd" clip-rule="evenodd" d="M24.2562 16.9551C24.2557 16.9561 24.2549 16.9574 24.2537 16.9588C24.2533 16.9593 24.253 16.9597 24.2527 16.9602C24.2419 16.9745 24.2153 17.0054 24.1989 17.0244C24.1907 17.034 24.185 17.0406 24.1853 17.0404L24.182 17.1727L24.293 17.1086C24.2798 17.0424 24.2668 16.9852 24.2562 16.9551Z" fill="#673192"/>
    <path fill-rule="evenodd" clip-rule="evenodd" d="M24.2249 16.5679C24.2188 16.564 24.2134 16.5636 24.2085 16.5664C24.2056 16.568 24.2029 16.5708 24.2003 16.5747C24.1966 16.5811 24.1944 16.5942 24.198 16.607C24.2015 16.6306 24.2157 16.66 24.2202 16.6799C24.2236 16.6918 24.2362 16.725 24.249 16.7176C24.2499 16.7171 24.2509 16.7164 24.2518 16.7153C24.2556 16.7442 24.2545 16.7687 24.2616 16.7864C24.2646 16.7925 24.271 16.7964 24.2785 16.7995C24.289 16.8039 24.3018 16.8067 24.3106 16.8117C24.3281 16.8217 24.3353 16.8312 24.3482 16.8301C24.3608 16.8297 24.3726 16.8241 24.3959 16.8106L24.3982 16.8094C24.4225 16.7953 24.4345 16.7885 24.4485 16.7739C24.4611 16.7598 24.467 16.7415 24.4853 16.7109C24.4934 16.6976 24.5047 16.6822 24.5147 16.6672C24.5235 16.6538 24.5312 16.6408 24.5345 16.6301C24.5425 16.6041 24.5398 16.5814 24.5435 16.5456C24.5448 16.5457 24.5461 16.5454 24.5474 16.5446C24.5603 16.5372 24.573 16.491 24.576 16.4745C24.5795 16.4498 24.5942 16.4039 24.5979 16.3762C24.6001 16.36 24.5989 16.3488 24.5941 16.3473C24.5915 16.3465 24.5889 16.3468 24.5861 16.3484C24.5812 16.3512 24.5761 16.3578 24.57 16.3691C24.5688 16.3763 24.5768 16.2528 24.5282 16.2427C24.4427 16.2251 24.311 16.2585 24.2552 16.3642C24.2283 16.415 24.2336 16.6119 24.2249 16.5679Z" fill="#F4AF38"/>
    <path fill-rule="evenodd" clip-rule="evenodd" d="M24.3908 16.1641C24.3285 16.2001 24.2785 16.2602 24.2658 16.291C24.1996 16.3719 24.2063 16.4728 24.2249 16.5688C24.2292 16.5908 24.2342 16.6126 24.2389 16.6338C24.2388 16.5844 24.2596 16.4544 24.2743 16.3948C24.2836 16.3826 24.2943 16.3737 24.306 16.367C24.3336 16.351 24.3664 16.3477 24.399 16.3444C24.4314 16.3413 24.4638 16.3381 24.4906 16.3227C24.5021 16.3161 24.5125 16.3071 24.5216 16.295C24.545 16.3134 24.5503 16.4341 24.5492 16.4776C24.5571 16.4392 24.5644 16.4032 24.5699 16.37C24.5916 16.244 24.5909 16.1591 24.5234 16.1397C24.4787 16.1269 24.4321 16.1402 24.3908 16.1641Z" fill="#BD4F00"/>
    <path fill-rule="evenodd" clip-rule="evenodd" d="M24.6059 17.3857L24.6063 17.529L24.7274 17.4591L24.727 17.3158L24.6059 17.3857ZM24.4356 18.7771L24.4353 18.6338L22.8199 19.5664L22.8203 19.7097L24.4356 18.7771ZM24.8276 16.9694L24.828 17.1127L22.6157 18.3899L22.6153 18.2466L24.8276 16.9694ZM22.8167 18.4187L22.8171 18.562L24.4324 17.6294L24.432 17.4861L22.8167 18.4187ZM24.4332 17.9161L22.8179 18.8486L22.8174 18.7053L24.4328 17.7727L24.4332 17.9161ZM24.434 18.2026L22.8187 19.1353L22.8183 18.9919L24.4336 18.0593L24.434 18.2026ZM24.7289 18.0323L24.7285 17.889L24.6076 17.9589L24.6079 18.1022L24.7289 18.0323ZM24.7306 18.6068L24.7301 18.4636L24.6092 18.5334L24.6096 18.6767L24.7306 18.6068ZM22.6612 17.07L22.6616 17.2134L23.764 16.5769L23.7636 16.4336L22.6612 17.07ZM22.662 17.3584L22.6625 17.5017L23.7649 16.8652L23.7645 16.7219L22.662 17.3584ZM22.6636 17.9316L22.664 18.0749L23.7665 17.4384L23.766 17.2951L22.6636 17.9316ZM24.8312 18.2604L22.6189 19.5376L22.6185 19.3943L24.8307 18.1171L24.8312 18.2604ZM24.7281 17.7458L24.7277 17.6024L24.6067 17.6723L24.6071 17.8156L24.7281 17.7458ZM22.6629 17.645L22.6632 17.7883L23.7657 17.1518L23.7653 17.0085L22.6629 17.645Z" fill="#9278B1"/>
    <path fill-rule="evenodd" clip-rule="evenodd" d="M26.5085 11.3256L25.4499 10.3084L24.4123 10.1074L16.9772 14.4L19.0735 15.6183L26.5085 11.3256Z" fill="#F8F2F6"/>
    <path fill-rule="evenodd" clip-rule="evenodd" d="M26.5024 9.15571L24.4061 7.9375L24.4123 10.1081L26.5085 11.3263L26.5024 9.15571Z" fill="#DABED0"/>
    <path fill-rule="evenodd" clip-rule="evenodd" d="M19.0737 15.6181L26.5087 11.3254L26.5026 9.15486L19.0675 13.4475L19.0737 15.6181ZM26.813 8.61719L26.8211 11.5035L18.7632 16.1557L18.7551 13.2694L26.813 8.61719Z" fill="#E9D8E3"/>
    <path fill-rule="evenodd" clip-rule="evenodd" d="M25.6945 9.62213L24.1972 8.75195L24.2032 10.8648L25.7004 11.7349L25.6945 9.62213Z" fill="#723861"/>
    <path fill-rule="evenodd" clip-rule="evenodd" d="M26.1567 9.35455L24.6594 8.48438L24.1972 8.75126L25.6945 9.62143L26.1567 9.35455Z" fill="#673192"/>
    <path fill-rule="evenodd" clip-rule="evenodd" d="M25.6944 9.62235L25.7004 11.7352L26.1627 11.4683L26.1567 9.35547L25.6944 9.62235Z" fill="#875DA9"/>
    <path fill-rule="evenodd" clip-rule="evenodd" d="M25.0435 10.0049L23.5462 9.13477L23.5522 11.2476L25.0495 12.1178L25.0435 10.0049Z" fill="#723861"/>
    <path fill-rule="evenodd" clip-rule="evenodd" d="M25.506 9.73735L24.0087 8.86719L23.5464 9.13407L25.0437 10.0042L25.506 9.73735Z" fill="#723861"/>
    <path fill-rule="evenodd" clip-rule="evenodd" d="M25.0433 10.0052L25.0493 12.118L25.5117 11.8512L25.5056 9.73828L25.0433 10.0052Z" fill="#875DA9"/>
    <path fill-rule="evenodd" clip-rule="evenodd" d="M26.8122 8.6186L24.7159 7.40039L16.658 12.0527L17.8222 12.8942L18.7543 13.2709L26.8122 8.6186Z" fill="#F8F2F6"/>
    <path fill-rule="evenodd" clip-rule="evenodd" d="M18.7543 13.2709L16.658 12.0527L16.6662 14.939L18.7624 16.1572L18.7543 13.2709Z" fill="#DABED0"/>
    <path fill-rule="evenodd" clip-rule="evenodd" d="M26.5023 9.15681L19.0672 13.4495L19.0732 15.6012L18.7946 16.1394L18.7629 16.1577L18.7548 13.2714L26.8127 8.61914L26.5023 9.15681Z" fill="#E9D8E3"/>
    <path fill-rule="evenodd" clip-rule="evenodd" d="M26.5089 6.69093L25.4503 5.67366L24.4127 5.47266L16.9776 9.76534L19.0739 10.9835L26.5089 6.69093Z" fill="#F8F2F6"/>
    <path fill-rule="evenodd" clip-rule="evenodd" d="M26.5028 4.52099L24.4065 3.30273L24.4126 5.47329L26.5089 6.69157L26.5028 4.52099Z" fill="#DABED0"/>
    <path fill-rule="evenodd" clip-rule="evenodd" d="M19.0743 10.9852L26.5093 6.69262L26.5032 4.52205L19.0681 8.81468L19.0743 10.9852ZM26.8136 3.98438L26.8217 6.87065L18.7638 11.5229L18.7557 8.63664L26.8136 3.98438Z" fill="#E9D8E3"/>
    <path fill-rule="evenodd" clip-rule="evenodd" d="M21.3723 7.44439L19.875 6.57422L19.881 8.6871L21.3783 9.55721L21.3723 7.44439Z" fill="#723861"/>
    <path fill-rule="evenodd" clip-rule="evenodd" d="M21.8346 7.17681L20.3372 6.30664L19.875 6.57353L21.3723 7.4437L21.8346 7.17681Z" fill="#673192"/>
    <path fill-rule="evenodd" clip-rule="evenodd" d="M21.3722 7.44462L21.3782 9.55744L21.8404 9.29062L21.8344 7.17773L21.3722 7.44462Z" fill="#875DA9"/>
    <path fill-rule="evenodd" clip-rule="evenodd" d="M20.647 7.8604L19.1497 6.99023L19.1557 9.10312L20.653 9.97322L20.647 7.8604Z" fill="#723861"/>
    <path fill-rule="evenodd" clip-rule="evenodd" d="M21.1092 7.59283L19.6119 6.72266L19.1495 6.98955L20.6469 7.85972L21.1092 7.59283Z" fill="#723861"/>
    <path fill-rule="evenodd" clip-rule="evenodd" d="M20.6469 7.86064L20.6528 9.97346L21.1151 9.70663L21.1091 7.59375L20.6469 7.86064Z" fill="#875DA9"/>
    <path fill-rule="evenodd" clip-rule="evenodd" d="M26.8134 3.98383L24.7172 2.76562L16.6592 7.41789L17.8234 8.25946L18.7555 8.63609L26.8134 3.98383Z" fill="#F8F2F6"/>
    <path fill-rule="evenodd" clip-rule="evenodd" d="M18.7555 8.63623L16.6592 7.41797L16.6674 10.3042L18.7636 11.5225L18.7555 8.63623Z" fill="#DABED0"/>
    <path fill-rule="evenodd" clip-rule="evenodd" d="M26.5032 4.522L19.0681 8.81468L19.0742 10.9665L18.7955 11.5046L18.7638 11.5229L18.7557 8.63664L26.8136 3.98438L26.5032 4.522Z" fill="#E9D8E3"/>
    <path fill-rule="evenodd" clip-rule="evenodd" d="M26.8164 1.92328L24.7202 0.705078L16.6622 5.35734L17.62 6.11197L18.7585 6.57549L26.8164 1.92328Z" fill="#F8F2F6"/>
    <path fill-rule="evenodd" clip-rule="evenodd" d="M18.7586 6.57557L16.6622 5.35742L16.6633 5.6922L18.7595 6.91041L18.7586 6.57557Z" fill="#DABED0"/>
    <path fill-rule="evenodd" clip-rule="evenodd" d="M18.7587 6.57604L18.7596 6.91088L26.8176 2.25862L26.8166 1.92383L18.7587 6.57604Z" fill="#E9D8E3"/>
    <path fill-rule="evenodd" clip-rule="evenodd" d="M34.497 6.56596C33.3737 5.91745 32.4605 6.43866 32.4569 7.72942C32.4532 9.01955 33.3603 10.5915 34.4838 11.2401C35.6072 11.8887 36.5202 11.3676 36.5239 10.0775C36.5275 8.78669 35.6204 7.21464 34.497 6.56596Z" fill="white"/>
    <path fill-rule="evenodd" clip-rule="evenodd" d="M33.12 6.37554L32.7906 6.56689C35.0742 5.79194 37.0496 10.1935 35.671 11.5194C36.7848 11.0583 36.6703 9.60653 36.2758 8.63891C36.1114 8.23605 35.8809 7.83571 35.6177 7.49566C35.2787 7.05785 34.8306 6.64069 34.3288 6.41388C34.2101 6.35987 34.0863 6.31585 33.9591 6.28662C33.7793 6.24582 33.5969 6.23371 33.4149 6.26826C33.4119 6.2689 33.4088 6.26924 33.4057 6.26982C33.3065 6.28996 33.2077 6.32451 33.12 6.37554Z" fill="#9D5384"/>
    <path fill-rule="evenodd" clip-rule="evenodd" d="M33.3741 6.8125C31.4915 7.27114 32.7836 10.3198 34.2226 11.0895C34.6247 11.3045 35.2131 11.3621 35.4918 11.0423C35.3029 11.0967 35.1239 11.0937 34.9288 11.0447C34.7372 10.9978 34.5468 10.905 34.3812 10.7997C34.1964 10.6821 34.0242 10.5371 33.8709 10.3811C33.7779 10.2859 33.6904 10.1863 33.6082 10.0819C33.4635 9.89816 33.3306 9.69367 33.2204 9.48727C33.1179 9.29528 33.0312 9.09503 32.9614 8.88887C32.9135 8.74602 32.874 8.59799 32.8463 8.44991C32.809 8.25282 32.7915 8.04758 32.8026 7.84721C32.8181 7.57073 32.8869 7.29375 33.0613 7.08627C33.1274 7.00741 33.2258 6.91259 33.3741 6.8125Z" fill="#9D5384"/>
    <path fill-rule="evenodd" clip-rule="evenodd" d="M34.2254 10.9704C33.3004 10.4363 32.5532 9.14128 32.5562 8.07923C32.5593 7.01629 33.3114 6.58772 34.2362 7.12177C35.1612 7.65584 35.9085 8.94997 35.9055 10.013C35.9024 11.075 35.1503 11.5044 34.2254 10.9704ZM34.2374 6.70865C33.114 6.05997 32.2009 6.58117 32.1973 7.8721C32.1938 9.16205 33.1008 10.734 34.2242 11.3826C35.3476 12.0313 36.2606 11.5101 36.2642 10.2201C36.268 8.9292 35.3608 7.35716 34.2374 6.70865Z" fill="#CBA4BA"/>
    <path fill-rule="evenodd" clip-rule="evenodd" d="M34.5175 9.39844L35.1565 11.0594L35.1026 11.0638L34.4662 9.40814C34.4847 9.40802 34.5018 9.40475 34.5175 9.39844Z" fill="#693594"/>
    <path fill-rule="evenodd" clip-rule="evenodd" d="M34.8004 9.23242L35.4394 10.8935L35.1565 11.0579L34.5175 9.39691L34.8004 9.23242Z" fill="#121212"/>
    <path fill-rule="evenodd" clip-rule="evenodd" d="M33.0222 7.4638L33.0274 7.45703L34.1707 8.76173C34.1232 8.78825 34.0936 8.84593 34.0933 8.92824C34.0933 8.93019 34.0934 8.93208 34.0934 8.93403L33.0222 7.4638Z" fill="#693594"/>
    <path fill-rule="evenodd" clip-rule="evenodd" d="M33.3103 7.29297L34.4535 8.59762L34.1705 8.76217L33.0272 7.45747L33.3103 7.29297Z" fill="#121212"/>
    <path fill-rule="evenodd" clip-rule="evenodd" d="M34.251 8.74525C34.2362 8.74393 34.2221 8.74479 34.2089 8.74737C34.2083 8.74749 34.2076 8.7476 34.2069 8.74772C34.194 8.75053 34.1817 8.75484 34.1705 8.76115L34.4535 8.59655C34.4578 8.59425 34.4619 8.59213 34.4664 8.5904C34.4707 8.58851 34.4752 8.5869 34.48 8.58552C34.4834 8.58455 34.4867 8.58397 34.4902 8.58317C34.4907 8.58299 34.4914 8.58289 34.492 8.58283C34.4928 8.58253 34.4936 8.58231 34.4944 8.58219C34.4996 8.58128 34.5047 8.5807 34.51 8.58036C34.5155 8.58001 34.521 8.58001 34.5269 8.58024C34.5293 8.58036 34.5317 8.58047 34.5341 8.5807C34.538 8.58104 34.5419 8.5815 34.546 8.58208C34.5534 8.58323 34.5608 8.58478 34.5685 8.5869C34.5717 8.58765 34.5751 8.58926 34.5783 8.59028C34.5813 8.59121 34.5841 8.59213 34.5871 8.59333C34.5907 8.5946 34.5944 8.59552 34.5982 8.59707C34.61 8.60195 34.6221 8.60791 34.6345 8.61503C34.6503 8.62416 34.6657 8.63501 34.6808 8.64684C34.6857 8.6508 34.6903 8.6554 34.6951 8.65947C34.7036 8.66682 34.7121 8.67371 34.7204 8.68175C34.723 8.68438 34.7253 8.6868 34.728 8.68938C34.7348 8.69657 34.7416 8.70402 34.7483 8.71161C34.7555 8.71987 34.7625 8.72842 34.7693 8.73721C34.7752 8.74479 34.7809 8.75259 34.7865 8.76058C34.7887 8.76368 34.7909 8.76701 34.7931 8.77028C34.7936 8.7712 34.7942 8.77211 34.7949 8.77298C34.7971 8.77631 34.7995 8.77958 34.8016 8.78314C34.8063 8.79037 34.8109 8.79772 34.8151 8.80519C34.8194 8.81242 34.8234 8.81971 34.8273 8.82706C34.8313 8.83441 34.835 8.84182 34.8385 8.84928C34.8408 8.85416 34.843 8.8591 34.8453 8.86398C34.8457 8.86484 34.846 8.86547 34.8464 8.86622C34.8472 8.86811 34.8481 8.86984 34.8489 8.87173C34.8522 8.87942 34.8553 8.88723 34.8584 8.89499C34.8615 8.90302 34.8644 8.91123 34.8671 8.91939C34.8701 8.92799 34.8726 8.93683 34.8751 8.94556C34.8767 8.95084 34.8778 8.95619 34.8791 8.96159C34.8794 8.96296 34.8798 8.96428 34.8801 8.96565C34.8808 8.96882 34.8818 8.97203 34.8823 8.97513C34.885 8.9873 34.887 8.99931 34.8886 9.01136C34.8908 9.02807 34.8918 9.04466 34.8918 9.06079C34.8916 9.14157 34.8628 9.19835 34.8166 9.22511L34.5334 9.38966C34.5796 9.3629 34.6084 9.30612 34.6085 9.22534C34.6088 9.19462 34.6045 9.16258 34.5969 9.1302C34.5966 9.12883 34.5963 9.12745 34.5959 9.12601C34.5882 9.09421 34.5772 9.06211 34.5632 9.03076C34.5628 9.02996 34.5626 9.02939 34.5623 9.02853C34.5481 8.99712 34.531 8.96651 34.5117 8.93747C34.5112 8.93666 34.5105 8.93574 34.5099 8.93482C34.4903 8.90561 34.4683 8.87828 34.4447 8.85393C34.4344 8.84319 34.4232 8.83377 34.4122 8.82425C34.4073 8.82005 34.4025 8.81541 34.3975 8.81139C34.3827 8.7995 34.3672 8.7887 34.3513 8.77958C34.335 8.77028 34.3193 8.76339 34.3039 8.75777C34.301 8.75673 34.2981 8.75582 34.2952 8.75484C34.28 8.7499 34.2651 8.7464 34.251 8.74525Z" fill="#321848"/>
    <path fill-rule="evenodd" clip-rule="evenodd" d="M34.0931 8.92726C34.0931 8.92922 34.0932 8.93111 34.0932 8.93306C34.0955 9.09508 34.2094 9.29063 34.3496 9.37159C34.3915 9.3957 34.4311 9.407 34.4662 9.40678C34.4846 9.40666 34.5017 9.40339 34.5175 9.39708C34.5731 9.37474 34.6084 9.31469 34.6085 9.22489C34.609 9.09962 34.5407 8.95234 34.4447 8.85348C34.4159 8.82368 34.3842 8.79819 34.3513 8.77913C34.3157 8.75858 34.2819 8.7475 34.251 8.7448C34.2209 8.74211 34.1936 8.74773 34.1705 8.76071C34.1229 8.78723 34.0933 8.84493 34.0931 8.92726Z" fill="#4A246B"/>
    <path fill-rule="evenodd" clip-rule="evenodd" d="M34.642 7.75781L34.7279 8.68853L34.4447 8.85303L34.3589 7.92232L34.642 7.75781Z" fill="#121212"/>
    <path fill-rule="evenodd" clip-rule="evenodd" d="M34.3496 7.91797L34.359 7.92331L34.4447 8.85432C34.4159 8.82452 34.3842 8.79903 34.3514 8.77997C34.3158 8.75942 34.2819 8.74834 34.251 8.74564L34.3496 7.91797Z" fill="#693594"/>
  </g>
</svg>