<svg xmlns="http://www.w3.org/2000/svg" xmlns:xlink="http://www.w3.org/1999/xlink" width="1920" height="1080" viewBox="0 0 1920 1080"><pattern width="712" height="740" patternUnits="userSpaceOnUse" id="a" viewBox="0 -762.569 712 740" overflow="visible"><path fill="none" d="M0-762.569h712v740H0z"/><path d="M504.871-48.144l-4.533 6.113s1.422 3.434 7.928 5.172c9.448 2.527 13.903-4.626 14.983-8.662 1.967-7.359 3.043-13.481 3.564-16.192.121-.069 3.16-.019 3.254.006.049.013 1.594-7.103 1.658-7.341.063-.237-10.093-2.596-10.093-2.596l-.634 2.374s-2.356-3.174-6.393-4.253c-4.843-1.294-11.394-.197-13.805 8.824-2.615 9.781 2.783 14.328 7.15 15.496 4.844 1.295 7.199-.67 7.199-.67.26 1.697-1.607 5.826-5.358 4.824-3.464-.926-4.92-3.095-4.92-3.095zm7.018-8.553c-1.899-.508-3.281-2.759-2.545-5.513.762-2.85 2.772-4.092 5.147-3.457 1.947.521 2.955 3.028 2.283 5.545-.711 2.658-2.749 3.996-4.885 3.425zm-72.05-83.339c-.049.006 16.217-1.818 16.431-2.092l-.901-6.623-4.043.144-3.443-28.396c-3.414-.378-13.102 1.787-13.072 2.03.029.244 1.537 6.547 1.586 6.541.097-.012 3.176.061 3.285.146l2.625 20.426-4.113 1.191c.328 3.129 1.645 6.633 1.645 6.633zM612.585-6.244c-.045-.019 15.553 6.378 15.871 6.242l2.1-5.513-3.506-2.09 6.061-15.15c-2.811-1.971-12.621-5.365-12.713-5.139-.09.229-1.797 6.48-1.752 6.498.092.037 3.65 1.196 3.705 1.323l-3.75 9.245-3.998-1.387c-1.215 2.903-2.018 5.971-2.018 5.971zm17.834-22.616c3.104 1.24 5.211-.722 6.197-3.186.967-2.418-.475-5.43-2.939-6.416-2.418-.967-5.248.018-6.369 2.957-1.061 2.911-.037 5.385 3.111 6.645zm-4.041-90.699c-.045-.026 12.439 7.536 12.791 7.444l3.063-5.379-2.322-2.151 2.844-4.909c1.574-2.662 4.248-3.537 5.98-2.514 2.129 1.26 2.48 3.504.721 6.479l-2.764 4.775-2.41-.887c-.535.701-3.113 5.77-3.113 5.77L652.583-104c1.152-1.235 3.414-5.771 3.414-5.771l-1.627-1.501 3.482-5.788c5.461-9.232 2.148-14.067-2.379-16.746-3.773-2.23-7.469-.643-7.469-.643l.471-4.035s-9.34-4.266-9.471-4.044c-.133.222-3.01 6.607-2.965 6.634.09.054 2.705 1.302 2.74 1.442l-6.318 10.582-3.033-1.555c-1.726 2.815-3.05 5.866-3.05 5.866zM148.871-48.144l-4.533 6.113s1.422 3.434 7.928 5.172c9.448 2.527 13.903-4.626 14.983-8.662 1.967-7.359 3.043-13.481 3.564-16.192.121-.069 3.16-.019 3.254.006.049.013 1.594-7.103 1.658-7.341.063-.237-10.093-2.596-10.093-2.596l-.634 2.374s-2.356-3.174-6.393-4.253c-4.843-1.294-11.394-.197-13.805 8.824-2.615 9.781 2.783 14.328 7.15 15.496 4.844 1.295 7.199-.67 7.199-.67.26 1.697-1.607 5.826-5.358 4.824-3.464-.926-4.92-3.095-4.92-3.095zm7.018-8.553c-1.899-.508-3.281-2.759-2.545-5.513.762-2.85 2.772-4.092 5.147-3.457 1.947.521 2.955 3.028 2.283 5.545-.711 2.658-2.749 3.996-4.885 3.425zm-72.05-83.339c-.049.006 16.217-1.818 16.431-2.092l-.901-6.623-4.043.144-3.443-28.396c-3.414-.378-13.102 1.787-13.072 2.03.029.244 1.537 6.547 1.586 6.541.097-.012 3.176.061 3.285.146l2.625 20.426-4.113 1.191c.328 3.129 1.645 6.633 1.645 6.633zM256.585-6.244c-.045-.019 15.553 6.378 15.871 6.242l2.1-5.513-3.506-2.09 6.061-15.15c-2.811-1.971-12.621-5.365-12.713-5.139-.09.229-1.797 6.48-1.752 6.498.092.037 3.65 1.196 3.705 1.323l-3.75 9.245-3.998-1.387c-1.215 2.903-2.018 5.971-2.018 5.971zm17.834-22.616c3.104 1.24 5.211-.722 6.197-3.186.967-2.418-.475-5.43-2.939-6.416-2.418-.967-5.248.018-6.369 2.957-1.061 2.911-.037 5.385 3.111 6.645zm-4.041-90.699c-.045-.026 12.439 7.536 12.791 7.444l3.063-5.379-2.322-2.151 2.844-4.909c1.574-2.662 4.248-3.537 5.98-2.514 2.129 1.26 2.48 3.504.721 6.479l-2.764 4.775-2.41-.887c-.535.701-3.113 5.77-3.113 5.77L296.583-104c1.152-1.235 3.414-5.771 3.414-5.771l-1.627-1.501 3.482-5.788c5.461-9.232 2.148-14.067-2.379-16.746-3.773-2.23-7.469-.643-7.469-.643l.471-4.035s-9.34-4.266-9.471-4.044c-.133.222-3.01 6.607-2.965 6.634.09.054 2.705 1.302 2.74 1.442l-6.318 10.582-3.033-1.555c-1.726 2.815-3.05 5.866-3.05 5.866zm412.493-298.585l-4.533 6.114s1.422 3.434 7.928 5.172c9.448 2.527 13.903-4.626 14.983-8.662 1.967-7.359 3.043-13.481 3.564-16.192.121-.069 3.16-.019 3.254.006.049.013 1.594-7.103 1.658-7.34.063-.238-10.093-2.596-10.093-2.596l-.634 2.374s-2.356-3.174-6.393-4.253c-4.843-1.294-11.394-.197-13.805 8.824-2.615 9.782 2.783 14.329 7.15 15.497 4.844 1.294 7.199-.67 7.199-.67.26 1.697-1.607 5.827-5.358 4.824-3.464-.929-4.92-3.098-4.92-3.098zm7.018-8.553c-1.899-.508-3.281-2.759-2.545-5.513.762-2.849 2.772-4.091 5.147-3.457 1.947.521 2.955 3.028 2.283 5.545-.711 2.659-2.749 3.996-4.885 3.425zm-72.05-83.339c-.049.006 16.217-1.818 16.431-2.092l-.901-6.624-4.043.144-3.443-28.396c-3.414-.378-13.102 1.787-13.072 2.031.029.244 1.537 6.547 1.586 6.541.097-.012 3.176.06 3.285.146l2.625 20.426-4.113 1.192c.328 3.128 1.645 6.632 1.645 6.632zm49.916 244.684c-.046.018 15.72-5.953 15.86-6.271l-2.229-5.462-3.987.865-5.912-15.209c-3.399.478-12.887 4.693-12.798 4.922s3.108 5.963 3.154 5.945c.092-.035 3.484-1.618 3.611-1.563l3.569 9.317-3.868 1.715c1.093 2.952 2.6 5.741 2.6 5.741zm-2.403-28.701c3.115-1.211 3.316-4.084 2.354-6.558-.943-2.428-4.053-3.645-6.526-2.683-2.428.943-3.823 3.595-2.638 6.509 1.213 2.851 3.648 3.961 6.81 2.732zm-102.373-56.618c-.051.013 14.125-3.467 14.309-3.78l-1.639-5.969-3.162.12-1.461-5.482c-.77-2.997.502-5.506 2.451-6.006 2.396-.615 4.232.724 5.092 4.071l1.422 5.332-2.332 1.078c.117.875 1.879 6.28 1.879 6.28l12.973-3.171c-.059-1.688-1.666-6.494-1.666-6.494l-2.213.089-1.629-6.557c-2.668-10.389-8.428-11.466-13.523-10.158-4.246 1.09-5.736 4.827-5.736 4.827l-2.52-3.186s-9.621 3.587-9.557 3.837c.063.25 2.543 6.8 2.594 6.787.102-.025 2.834-.993 2.959-.918l3.014 11.95-3.244 1.046c.769 3.21 1.989 6.304 1.989 6.304zm-236.108-67.473l-4.533 6.114s1.422 3.434 7.928 5.172c9.448 2.527 13.903-4.626 14.983-8.662 1.967-7.359 3.043-13.481 3.564-16.192.121-.069 3.16-.019 3.254.006.049.013 1.594-7.103 1.658-7.34.063-.238-10.093-2.596-10.093-2.596l-.634 2.374s-2.356-3.174-6.393-4.253c-4.843-1.294-11.394-.197-13.805 8.824-2.615 9.782 2.783 14.329 7.15 15.497 4.844 1.294 7.199-.67 7.199-.67.26 1.697-1.607 5.827-5.358 4.824-3.464-.929-4.92-3.098-4.92-3.098zm7.018-8.553c-1.899-.508-3.281-2.759-2.545-5.513.762-2.849 2.772-4.091 5.147-3.457 1.947.521 2.955 3.028 2.283 5.545-.711 2.659-2.749 3.996-4.885 3.425zm-72.05-83.339c-.049.006 16.217-1.818 16.431-2.092l-.901-6.624-4.043.144-3.443-28.396c-3.414-.378-13.102 1.787-13.072 2.031.029.244 1.537 6.547 1.586 6.541.097-.012 3.176.06 3.285.146l2.625 20.426-4.113 1.192c.328 3.128 1.645 6.632 1.645 6.632zm216.576 271.889c2.104.275 6.516-.531 6.516-.531l4.787-11.42 7.762 9.963c2.104.275 6.027-.48 6.027-.48 2.518-4.76 5.914-19.099 5.914-19.099l2.912-.501c-.277-3.134-1.02-6.466-1.02-6.466.049-.005-14.24 1.337-14.461 1.606l.631 6.507 2.801-.144-1.729 6.16-7.578-9.637-4.463.317-4.785 10.975-3.213-5.693 2.58-.368c.012-.841-.912-6.378-.912-6.378l-14.631 1.378c-.18 1.6 1.166 6.451 1.166 6.451l3.096-.176c1.151 3.933 8.6 17.536 8.6 17.536zm-166.66-27.205c-.046.018 15.72-5.953 15.86-6.271l-2.229-5.462-3.987.865-5.912-15.209c-3.399.478-12.887 4.693-12.798 4.922s3.108 5.963 3.154 5.945c.092-.035 3.484-1.618 3.611-1.563l3.569 9.317-3.868 1.715c1.093 2.952 2.6 5.741 2.6 5.741zm-2.403-28.701c3.115-1.211 3.316-4.084 2.354-6.558-.943-2.428-4.053-3.645-6.526-2.683-2.428.943-3.823 3.595-2.638 6.509 1.213 2.851 3.648 3.961 6.81 2.732zm125.233-82.191c-.045-.019 15.553 6.378 15.871 6.242l2.1-5.513-3.506-2.089 6.061-15.15c-2.811-1.971-12.621-5.366-12.713-5.138-.09.228-1.797 6.479-1.752 6.498.092.037 3.65 1.196 3.705 1.323l-3.75 9.246-3.998-1.387c-1.215 2.9-2.018 5.968-2.018 5.968zm17.834-22.617c3.104 1.241 5.211-.721 6.197-3.185.967-2.418-.475-5.43-2.939-6.416-2.418-.967-5.248.018-6.369 2.957-1.061 2.911-.037 5.384 3.111 6.644zm-245.44 48.19c-.051.013 14.125-3.467 14.309-3.78l-1.639-5.969-3.162.12-1.461-5.482c-.77-2.997.502-5.506 2.451-6.006 2.396-.615 4.232.724 5.092 4.071l1.422 5.332-2.332 1.078c.117.875 1.879 6.28 1.879 6.28l12.973-3.171c-.059-1.688-1.666-6.494-1.666-6.494l-2.213.089-1.629-6.557c-2.668-10.389-8.428-11.466-13.523-10.158-4.246 1.09-5.736 4.827-5.736 4.827l-2.52-3.186s-9.621 3.587-9.557 3.837c.063.25 2.543 6.8 2.594 6.787.102-.025 2.834-.993 2.959-.918l3.014 11.95-3.244 1.046c.769 3.21 1.989 6.304 1.989 6.304zm241.399-138.888c-.045-.027 12.439 7.536 12.791 7.445l3.063-5.379-2.322-2.152 2.844-4.909c1.574-2.663 4.248-3.538 5.98-2.515 2.129 1.26 2.48 3.505.721 6.479l-2.764 4.775-2.41-.887c-.535.702-3.113 5.77-3.113 5.77L474.583-474c1.152-1.236 3.414-5.77 3.414-5.77l-1.627-1.501 3.482-5.789c5.461-9.232 2.148-14.067-2.379-16.746-3.773-2.231-7.469-.642-7.469-.642l.471-4.035s-9.34-4.267-9.471-4.044c-.133.222-3.01 6.607-2.965 6.634.09.053 2.705 1.301 2.74 1.442l-6.318 10.582-3.033-1.555c-1.726 2.814-3.05 5.865-3.05 5.865zM122.415-238.147c2.104.275 6.516-.531 6.516-.531l4.787-11.42 7.762 9.963c2.104.275 6.027-.48 6.027-.48 2.518-4.76 5.914-19.099 5.914-19.099l2.912-.501c-.277-3.134-1.02-6.466-1.02-6.466.049-.005-14.24 1.337-14.461 1.606l.631 6.507 2.801-.144-1.729 6.16-7.578-9.637-4.463.317-4.785 10.975-3.213-5.693 2.58-.368c.012-.841-.912-6.378-.912-6.378l-14.631 1.378c-.18 1.6 1.166 6.451 1.166 6.451l3.096-.176c1.151 3.933 8.6 17.536 8.6 17.536zm-43.83-138.097c-.045-.019 15.553 6.378 15.871 6.242l2.1-5.513-3.506-2.089 6.061-15.15c-2.811-1.971-12.621-5.366-12.713-5.138-.09.228-1.797 6.479-1.752 6.498.092.037 3.65 1.196 3.705 1.323l-3.75 9.246-3.998-1.387c-1.215 2.9-2.018 5.968-2.018 5.968zm17.834-22.617c3.104 1.241 5.211-.721 6.197-3.185.967-2.418-.475-5.43-2.939-6.416-2.418-.967-5.248.018-6.369 2.957-1.061 2.911-.037 5.384 3.111 6.644zm-4.041-90.698c-.045-.027 12.439 7.536 12.791 7.445l3.063-5.379-2.322-2.152 2.844-4.909c1.574-2.663 4.248-3.538 5.98-2.515 2.129 1.26 2.48 3.505.721 6.479l-2.764 4.775-2.41-.887c-.535.702-3.113 5.77-3.113 5.77L118.583-474c1.152-1.236 3.414-5.77 3.414-5.77l-1.627-1.501 3.482-5.789c5.461-9.232 2.148-14.067-2.379-16.746-3.773-2.231-7.469-.642-7.469-.642l.471-4.035s-9.34-4.267-9.471-4.044c-.133.222-3.01 6.607-2.965 6.634.09.053 2.705 1.301 2.74 1.442l-6.318 10.582-3.033-1.555c-1.726 2.814-3.05 5.865-3.05 5.865zm564.037-118.588c2.104.275 6.516-.531 6.516-.531l4.787-11.42 7.762 9.963c2.104.275 6.027-.48 6.027-.48 2.518-4.76 5.914-19.099 5.914-19.099l2.912-.501c-.277-3.134-1.02-6.466-1.02-6.466.049-.005-14.24 1.337-14.461 1.606l.631 6.507 2.801-.144-1.729 6.16-7.578-9.637-4.463.317-4.785 10.975-3.213-5.693 2.58-.368c.012-.841-.912-6.378-.912-6.378l-14.631 1.378c-.18 1.6 1.166 6.451 1.166 6.451l3.096-.176c1.151 3.933 8.6 17.536 8.6 17.536zm-166.66-27.205c-.046.018 15.72-5.953 15.86-6.271l-2.229-5.462-3.987.865-5.912-15.209c-3.399.478-12.887 4.693-12.798 4.922s3.108 5.963 3.154 5.945c.092-.035 3.484-1.618 3.611-1.563l3.569 9.317-3.868 1.715c1.093 2.952 2.6 5.741 2.6 5.741zm-2.403-28.701c3.115-1.211 3.316-4.084 2.354-6.558-.943-2.428-4.053-3.645-6.526-2.683-2.428.943-3.823 3.595-2.638 6.509 1.213 2.851 3.648 3.961 6.81 2.732zm125.233-82.191c-.045-.019 15.553 6.378 15.871 6.242l2.1-5.513-3.506-2.089 6.061-15.15c-2.811-1.971-12.621-5.366-12.713-5.138-.09.228-1.797 6.479-1.752 6.498.092.037 3.65 1.196 3.705 1.323l-3.75 9.246-3.998-1.387c-1.215 2.9-2.018 5.968-2.018 5.968zm17.834-22.617c3.104 1.241 5.211-.721 6.197-3.185.967-2.418-.475-5.43-2.939-6.416-2.418-.967-5.248.018-6.369 2.957-1.061 2.911-.037 5.384 3.111 6.644zm-245.44 48.19c-.051.013 14.125-3.467 14.309-3.78l-1.639-5.969-3.162.12-1.461-5.482c-.77-2.997.502-5.506 2.451-6.006 2.396-.615 4.232.724 5.092 4.071l1.422 5.332-2.332 1.078c.117.875 1.879 6.28 1.879 6.28l12.973-3.171c-.059-1.688-1.666-6.494-1.666-6.494l-2.213.089-1.629-6.557c-2.668-10.389-8.428-11.466-13.523-10.158-4.246 1.09-5.736 4.827-5.736 4.827l-2.52-3.186s-9.621 3.587-9.557 3.837c.063.25 2.543 6.8 2.594 6.787.102-.025 2.834-.993 2.959-.918l3.014 11.95-3.244 1.046c.769 3.21 1.989 6.304 1.989 6.304zm-84.564 112.524c2.104.275 6.516-.531 6.516-.531l4.787-11.42 7.762 9.963c2.104.275 6.027-.48 6.027-.48 2.518-4.76 5.914-19.099 5.914-19.099l2.912-.501c-.277-3.134-1.02-6.466-1.02-6.466.049-.005-14.24 1.337-14.461 1.606l.631 6.507 2.801-.144-1.729 6.16-7.578-9.637-4.463.317-4.785 10.975-3.213-5.693 2.58-.368c.012-.841-.912-6.378-.912-6.378l-14.631 1.378c-.18 1.6 1.166 6.451 1.166 6.451l3.096-.176c1.151 3.933 8.6 17.536 8.6 17.536zm-166.66-27.205c-.046.018 15.72-5.953 15.86-6.271l-2.229-5.462-3.987.865-5.912-15.209c-3.399.478-12.887 4.693-12.798 4.922s3.108 5.963 3.154 5.945c.092-.035 3.484-1.618 3.611-1.563l3.569 9.317-3.868 1.715c1.093 2.952 2.6 5.741 2.6 5.741zm-2.403-28.701c3.115-1.211 3.316-4.084 2.354-6.558-.943-2.428-4.053-3.645-6.526-2.683-2.428.943-3.823 3.595-2.638 6.509 1.213 2.851 3.648 3.961 6.81 2.732zm125.233-82.191c-.045-.019 15.553 6.378 15.871 6.242l2.1-5.513-3.506-2.089 6.061-15.15c-2.811-1.971-12.621-5.366-12.713-5.138-.09.228-1.797 6.479-1.752 6.498.092.037 3.65 1.196 3.705 1.323l-3.75 9.246-3.998-1.387c-1.215 2.9-2.018 5.968-2.018 5.968zm17.834-22.617c3.104 1.241 5.211-.721 6.197-3.185.967-2.418-.475-5.43-2.939-6.416-2.418-.967-5.248.018-6.369 2.957-1.061 2.911-.037 5.384 3.111 6.644zm-245.44 48.19c-.051.013 14.125-3.467 14.309-3.78l-1.639-5.969-3.162.12-1.461-5.482c-.77-2.997.502-5.506 2.451-6.006 2.396-.615 4.232.724 5.092 4.071l1.422 5.332-2.332 1.078c.117.875 1.879 6.28 1.879 6.28l12.973-3.171c-.059-1.688-1.666-6.494-1.666-6.494l-2.213.089-1.629-6.557c-2.668-10.389-8.428-11.466-13.523-10.158-4.246 1.09-5.736 4.827-5.736 4.827l-2.52-3.186s-9.621 3.587-9.557 3.837c.063.25 2.543 6.8 2.594 6.787.102-.025 2.834-.993 2.959-.918l3.014 11.95-3.244 1.046c.769 3.21 1.989 6.304 1.989 6.304z"/></pattern><pattern id="b" xlink:href="#a" patternTransform="matrix(1 0 0 .9853 -234.92 101.43)"/><path opacity=".1" fill="url(#b)" d="M-69.999-27.722h5820.352v3227.353H-69.999z"/></svg>