<svg width="1333pt" height="1000" opacity=".15" viewBox="0 0 1333 750" xmlns="http://www.w3.org/2000/svg"><path fill="transparent" d="M0 0h9.15c3.48 4.6 5 11.49 1.28 16.4C8.06 19.71 3.54 19.02 0 19.43v-6.47c1.78-2.93 3.61-5.82 5.11-8.9C3.36 5.28 1.63 6.51 0 7.89V0z"/><path fill="transparent" d="M9.15 0h235.46c-.12 1.4-.2 2.84.2 4.21 1.4.7 3.05.97 4.51.28.83-1.41 1.35-2.97 1.95-4.49h1.34c.92 1.02 1.79 2.09 2.79 3.05 1.51-.1 2.97-.54 4.42-.96-1.09-.52-3.28-1.57-4.37-2.09H532.8c-2.01 1.62-4.16 3.45-4.74 6.09-1.21 4.83 1.25 9.45 3.08 13.77 4.51-.68 10.59.15 13.18-4.51 2.99-4.86.69-10.56-1.21-15.35h233.3c1.24 1.71 1.72 5.29 4.5 4.93 2.57.03 2.53-3.2 3.38-4.93h1.39c1.04 1.15 2.06 2.39 3.28 3.38 1.82-.9 3.4-2.18 5.04-3.38h271.21c-2.14 1.77-4.33 3.9-4.71 6.8-.87 4.64 1.46 9 3.14 13.17 4.59-.8 10.91.01 13.38-4.92 2.73-4.88.6-10.51-1.76-15.05h233.22c1.06 1.5 2 3.12 3.22 4.52 1.94.48 3.91-.57 5.84-.87L1314.81 0h2.03c1.66 1.04 3.25 2.28 5.05 3.12 1.77-.87 3.32-2.07 5.01-3.12h6.1v117.09c-2.25 2.39-5.57 4.33-6.12 7.84-.86 4.51 1.33 8.76 3.14 12.73.98.43 1.97.86 2.98 1.3V353.7c-2.18 2.25-5.4 4.03-6.04 7.35-1.04 4.69 1.24 9.15 3.09 13.31.97.21 1.95.42 2.95.64v215.01c-2.3 2.42-5.69 4.41-6.15 8.01-.78 4.37 1.26 8.5 3.17 12.29.99.59 1.98 1.2 2.98 1.84V750H903.69c-.75-2.03-1.49-4.05-2.11-6.11 2.04 1.15 4.11 2.28 6.18 3.41.08-1.83.23-3.65.18-5.47-3.57-1.78-7.74-2.58-11.69-1.97-3.41 2.69-5.2 6.78-7.82 10.14h-517.1c-.76-1.95-1.52-3.89-2.29-5.82 1.99.93 3.98 1.85 5.98 2.79.24-1.9.5-3.77.75-5.65-4-.76-8-1.46-12.01-2.14-2.77 3.58-5.3 7.33-8.19 10.82H0v-21.29c3.67-.17 8.29.34 10.62-3.18 3.75-5.02 1.14-11.39-.7-16.61-3.31.17-6.63.32-9.92.8V492.43c3.74-.4 8.59.11 10.83-3.64 3.41-5 .96-11.13-.92-16.2-3.31-.02-6.62-.08-9.91-.43V255.77c3.65-.19 8.26.38 10.6-3.12 3.75-5.03 1.17-11.41-.68-16.65-3.31.16-6.63.3-9.92.76V19.43c3.54-.41 8.06.28 10.43-3.03 3.72-4.91 2.2-11.8-1.28-16.4z"/><path fill="#57267e" d="M244.61 0h6.66c-.6 1.52-1.12 3.08-1.95 4.49-1.46.69-3.11.42-4.51-.28-.4-1.37-.32-2.81-.2-4.21zm8 0h2.84c1.09.52 3.28 1.57 4.37 2.09-1.45.42-2.91.86-4.42.96-1-.96-1.87-2.03-2.79-3.05zM532.8 0h10.31c1.9 4.79 4.2 10.49 1.21 15.35-2.59 4.66-8.67 3.83-13.18 4.51-1.83-4.32-4.29-8.94-3.08-13.77.58-2.64 2.73-4.47 4.74-6.09zm243.61 0h7.88c-.85 1.73-.81 4.96-3.38 4.93-2.78.36-3.26-3.22-4.5-4.93zm9.27 0H794c-1.64 1.2-3.22 2.48-5.04 3.38-1.22-.99-2.24-2.23-3.28-3.38zm279.53 0h10.05c2.36 4.54 4.49 10.17 1.76 15.05-2.47 4.93-8.79 4.12-13.38 4.92-1.68-4.17-4.01-8.53-3.14-13.17.38-2.9 2.57-5.03 4.71-6.8zm243.27 0h6.33l2.73 3.65c-1.93.3-3.9 1.35-5.84.87-1.22-1.4-2.16-3.02-3.22-4.52zm8.36 0h10.06c-1.69 1.05-3.24 2.25-5.01 3.12-1.8-.84-3.39-2.08-5.05-3.12zM416.39 4.23c1.82-4.04 8.64-4.31 10.96-.61.77 3.18.35 6.51.42 9.76-1.91.08-3.83.15-5.74.22.77-2.49 1.83-4.88 2.51-7.4-.92-2.39-4.31-2.31-5.24.02.47 2.46 1.54 4.74 2.41 7.07-1.89.22-3.78.45-5.66.67.04-3.24-.27-6.52.34-9.73zm532.64-.2c1.96-3.76 8.12-4 10.63-.71 1.21 3.22.58 6.82.75 10.2-2.01-.04-4-.08-5.98-.13 1.01-2.87 2.02-5.75 2.91-8.67-1.72.18-4.59-.85-5.39 1.34.36 2.6 1.33 5.05 2.12 7.54-1.92.03-3.82.05-5.72.07.12-3.21-.24-6.52.68-9.64zM253.17 5.7c3.51-.83 7.04-1.6 10.57-2.32.18 4.22-.46 8.49.51 12.64.54 3.24 1.69 6.9-.25 9.89-2.98 4.52-10.09 5.8-14.44 2.58-5.16-4.26-2.19-12.85-8-16.63-.24-1.16-.48-2.33-.7-3.5 3.71-.82 7.42-1.62 11.16-2.33-.1 5.61-.76 11.3 1.38 16.67l4.64.12c-.17-4.64-.26-9.81-3.88-13.25l-.99-3.87zm532.81.12c3.58-.84 7.21-2.2 10.96-1.76.94 3.29-.72 6.65.13 9.96.55 3.95 2.42 8.39.04 12.08-3.47 4.92-12.36 5.96-15.93.65-2.16-4-2.55-8.63-3.62-12.98-.67-.25-1.99-.76-2.66-1.01-.3-1.46-.59-2.91-.87-4.37 3.72-.85 7.46-1.65 11.22-2.36-.02 5.43-1.29 11.27 1.59 16.27 1.43.46 2.93.64 4.42.93-.07-3.41.04-7.03-1.62-10.13-1.21-2.43-2.54-4.81-3.66-7.28zm532.43.11c3.68-1.01 7.41-1.84 11.18-2.47.03 4.51-.5 9.08.52 13.53.63 3.3 1.35 7.21-1.14 9.96-3.9 4.18-12.29 4.85-15.46-.52-2.01-3.85-2.39-8.27-3.32-12.44-.98-.48-1.94-.96-2.89-1.44-.34-1.31-.66-2.62-.96-3.93 3.69-.98 7.41-1.89 11.15-2.72.15 5.74-.36 11.59 1.7 17.09 1.63-.24 3.29-.48 4.95-.72-.25-5.95-2.77-11.3-5.73-16.34z"/><path fill="transparent" d="M0 7.89c1.63-1.38 3.36-2.61 5.11-3.83-1.5 3.08-3.33 5.97-5.11 8.9V7.89z"/><path fill="#57267e" d="M127.75 6.89c.29-.65.86-1.94 1.15-2.59 1.42.91 2.86 1.81 4.29 2.72-.32.52-.95 1.57-1.26 2.09-1.4-.74-2.79-1.48-4.18-2.22z"/><path fill="transparent" d="M534.02 7.04c.59-1.73 2.76-1.79 4.14-2.57-1.22 2.66-2.66 5.22-4.2 7.71-.09-1.71-.32-3.45.06-5.14z"/><path fill="#57267e" d="M661.14 6.56c.19-.58.57-1.72.77-2.29 1.09.67 2.19 1.36 3.3 2.04.63 1.79 1.23 3.6 1.92 5.37-1.49 1.32-2.98 2.63-4.46 3.94-.08 1.76-.25 3.52-.33 5.28-1.39-.5-2.76-1.05-4.09-1.65.22-1.64.83-3.21.94-4.87-.44-2.12-1.34-4.14-1.57-6.31 2.28.3 4.53.82 6.77 1.36-1.09-.96-2.17-1.91-3.25-2.87z"/><path fill="transparent" d="M1066.93 6.05c1.23-.61 2.54-1.03 3.86-1.51a72.225 72.225 0 0 1-4.6 7.73c.15-2.07.05-4.23.74-6.22z"/><path fill="#57267e" d="M1192.57 5.77c2.28-1.39 4.44.03 6.46 1.1-.32.58-.98 1.74-1.31 2.32-1.74-1.1-3.47-2.25-5.15-3.42z"/><path fill="transparent" d="M2.94 14.37C4.09 12 5.45 9.73 6.98 7.58c-.04 2.98-1.11 5.67-4.04 6.79z"/><path fill="#57267e" d="M123.9 7.94c3.74.58 7.41 1.57 10.99 2.81-1.72 1.59-3.76 2.95-5.07 4.92-.47 1.58-.55 3.24-.75 4.87-1.52-.41-3.04-.81-4.56-1.22.54-1.98 2.29-4.02 1.41-6.15-.58-1.78-1.33-3.5-2.02-5.23z"/><path fill="transparent" d="M536.17 14.43a56.64 56.64 0 0 1 3.87-6.88c-.06 2.95-.67 5.93-3.87 6.88zm532.61.02c1.03-2.41 2.34-4.7 3.92-6.8-.13 2.84-1.09 5.63-3.92 6.8z"/><path fill="#57267e" d="M1189.77 7.88c3.52.71 7.05 1.41 10.44 2.66-1.3 1.93-3.11 3.4-4.88 4.85-.09 1.68-.18 3.37-.22 5.06-1.65-.37-3.26-.75-4.87-1.13 2.26-3.67 1.11-7.76-.47-11.44zM355.5 40.48c2.82-3.51 5.57-7.09 8.31-10.67 4.04.61 8.06 1.35 12.05 2.21-.32 1.88-.65 3.75-.97 5.63-2-.94-3.99-1.89-5.98-2.85l2.4 5.01c-1.03.37-2.04.73-3.05 1.09-.08.54-.23 1.61-.31 2.15 2.2-.67 4.41-1.31 6.65-1.88-.3 2.22-.62 4.45-.93 6.67-4.12-.56-8.52-.46-12.21-2.6.58-1.48 1.27-2.92 1.97-4.34-.94.06-1.87.13-2.8.19.09 1.44.18 2.88.28 4.31-2.28-.18-4.57-.3-6.82-.74-.95-1.64.54-2.93 1.41-4.18zm540.62-10.6c4.11.55 8.2 1.24 12.27 2.03-.4 1.96-.78 3.92-1.16 5.88-1.57-.88-3.11-1.77-4.65-2.66-.27.09-.81.27-1.08.35.6 1.19 1.23 2.36 1.75 3.58-1.01 1.44-2.3 2.63-3.55 3.84 2.49-.57 5.01-1.07 7.55-1.47-.41 2.17-.82 4.33-1.24 6.5-4.09-.55-8.17-1.23-12.19-2.14.65-1.61 1.3-3.21 1.97-4.82-.59.02-1.79.04-2.39.06-.07 1.47-.14 2.94-.19 4.42-2.32-.26-4.64-.52-6.94-.78.01-.57.04-1.69.05-2.25 3.57-3.94 6.66-8.26 9.8-12.54z"/><path fill="transparent" d="M896.25 35.54c1.5-.12 1.43 2.35.03 2.4-1.52.12-1.45-2.35-.03-2.4z"/><path fill="#57267e" d="M32.73 51.98c3.98-1.2 8.01-2.23 12.09-3.02.48 1.84.96 3.68 1.45 5.52-2.18-.04-4.36-.1-6.54-.15 1.31 1.16 2.61 2.34 3.92 3.5-.96 1.32-1.92 2.64-2.84 3.98 1.95-.06 3.3-1.45 4.6-2.73.71-.08 2.13-.26 2.84-.34.09 4.04.36 8.07.7 12.1-2.68-.57-4.22-2.61-5.14-5.05-2.39.51-4.77 1.03-7.16 1.55 0-2.89.24-5.82-.32-8.68-.71-2.46-2.29-4.52-3.6-6.68zm533.23-.06c3.98-1.15 8.01-2.14 12.07-2.98.48 1.84.95 3.69 1.43 5.53-2.19-.03-4.37-.09-6.55-.2 1.17 1.14 2.58 2.11 3.4 3.56-.53 1.12-1.12 2.21-1.71 3.3.25.22.75.66 1 .89 1.66-1.65 3.55-3.04 5.7-3.97.22 4.28.38 8.56.85 12.81-2.62-.68-4.25-2.63-5.29-5.01-2.4.47-4.79.95-7.18 1.44.19-2.95.66-6-.22-8.89-.83-2.32-2.26-4.37-3.5-6.48zm532.52-.04c4.03-1.15 8.11-2.13 12.23-2.92.33 1.9.69 3.8 1.03 5.71-2.13-.12-4.25-.32-6.36-.42 1.36 1.11 2.56 2.41 3.93 3.53-.85 1.34-1.69 2.67-2.5 4.02l1.96-.28c1.27-1.27 3.01-3.89 5.06-2.32.39 3.85.14 7.76 1 11.56-2.58-.56-4.37-2.31-5.5-4.62-2.37.27-4.73.57-7.08.87.11-2.43.43-4.88.06-7.3-.62-2.88-2.39-5.32-3.83-7.83zM426.5 55.64c2.81.6 5.62 1.23 8.42 1.9-1.12 2.21-2.24 4.4-3.32 6.62 1.56-1.18 3.14-2.34 4.71-3.53 1.05 1.89 2.13 3.77 3.22 5.65-.06-2.51-.28-5.03-.53-7.53 2.99.61 5.97 1.28 8.94 2.01-3.13 4.46-6.07 9.07-8.33 14.05-1.09-.06-2.17-.12-3.25-.19-.61-1.98-1.24-3.95-1.84-5.93-1.3 1.41-2.6 2.82-3.89 4.24-.98-.26-1.95-.52-2.92-.76.15-5.54-.32-11.07-1.21-16.53zm532.95 3.86c-.03-1.18-.73-2.69.52-3.49 2.47.15 4.88.77 7.31 1.29-.95 2.27-1.94 4.52-2.95 6.75 1.61-.84 3-3.17 5.05-2.59.95 1.42 1.64 2.98 2.42 4.5.3-.65.62-1.31.94-1.96-.51-1.01-1.01-2.01-1.49-3.02.16-.57.47-1.71.63-2.28 2.81.62 5.62 1.25 8.43 1.91-2.99 4.92-6.22 9.71-8.65 14.95-3.07-1.05-3.99-4.06-4.78-6.88-1.27 1.47-2.56 2.93-3.82 4.39-.97-.38-1.94-.74-2.9-1.08.1-4.18-.1-8.36-.71-12.49zM661.12 70.02c2.38-6.15 11.03-10.04 16.74-5.93 3.01 1.98 2.75 5.87 3.01 9.04 2.26 1.39 5.39 2.19 6.46 4.87 1.08 4.35-1.97 8.15-4.17 11.57-1.7-1.18-3.4-2.37-5.09-3.56.21-1.45.43-2.91.65-4.36-1.84-1.24-3.88-2.29-5.33-4-.74-2.39-.7-4.92-.9-7.39-1.21.04-2.42.07-3.62.1.49 7.42 6.17 12.97 8.85 19.63-2.75 1.68-5.5 3.36-8.26 5.02-2.21-3.72-2.06-8.32-4.55-11.91-2.28-3.91-5.41-8.33-3.79-13.08zm532.13 3.88c-1.09-8.69 11.55-15.25 17.88-9.07 2.3 2.15 1.94 5.56 2.37 8.42 2.47 1.45 6.27 2.41 6.56 5.82.32 4.08-2.35 7.45-4.63 10.54-1.64-1.22-3.26-2.44-4.87-3.65.19-1.36.4-2.71.62-4.07-1.77-1.3-3.68-2.47-5.12-4.14-.99-2.6-.84-5.45-1.15-8.17-1.2.81-3.29.87-3.59 2.56 0 1.73 1 3.24 1.74 4.75 2.46 4.33 4.96 8.66 7.21 13.11-2.75 1.65-5.52 3.26-8.31 4.82-.67-1.2-1.29-2.41-1.91-3.62.3-6.59-6.02-10.96-6.8-17.3zM127.58 74c-1.19-8.67 11.3-15.25 17.73-9.32 2.39 2.13 2.02 5.6 2.42 8.49 2.46 1.49 6.26 2.42 6.59 5.82.39 4.01-2.3 7.33-4.27 10.54l-5.16-3.45c.24-1.46.48-2.9.72-4.35-1.86-1.25-3.89-2.33-5.41-4.01-.72-2.38-.64-4.9-.82-7.35-1.22-.04-2.43-.09-3.64-.14 0 2.01.12 4.09 1.2 5.85 2.53 4.65 5.31 9.16 7.56 13.96-2.74 1.65-5.48 3.31-8.22 4.95-1.02-2-1.76-4.12-2.22-6.3-1.14-5.33-5.66-9.25-6.48-14.69zm369.43-4.53c-.68-1.54-4.14-3.58-2.07-4.99 3.47.52 4.02 4.35 5.27 6.97-3.03 2-5.32 4.91-4.86 8.73-1.57-.28-3.13-.56-4.69-.84.59-1.55 1.35-3.05 1.71-4.68-.39-2.27-1.81-4.33-1.66-6.7 2.13.31 4.23.87 6.3 1.51zM1025.44 66c2.84-2.8 5.26.5 7.2 2.41-2.65.09-5.07-.93-7.2-2.41zm-806.45 2.12c1.99.04 3.98 0 5.98.03.23.41.69 1.25.92 1.67-1.3.96-2.6 1.93-3.9 2.9-1.44-.92-2.88-1.83-4.32-2.74.33-.46.99-1.39 1.32-1.86zm531.68.9c2.39-.72 4.88-1.02 7.37-1.24.24.55.73 1.64.97 2.19-1.4.99-2.79 1.98-4.17 2.97-1.43-1.27-2.86-2.54-4.17-3.92zm272.1-1.22c3.59.77 7.17 1.6 10.71 2.62-1.69 1.69-3.4 3.34-5.13 4.97-.11 1.66-.21 3.32-.28 4.98-1.65-.4-3.28-.79-4.9-1.18 2.35-3.63 1.14-7.72-.4-11.39zm261.55.78c2.44-1 5.14-.51 7.58.27-1.15 1.4-2.37 2.76-3.92 3.71-1.45-.8-5.89-1.93-3.66-3.98zM215.99 73.7c3.42.03 7.2-.81 10.34.93 2.07 1.93.16 4.98-.03 7.36.92 1.87 1.86 3.73 2.79 5.6-4.33.06-8.66-.03-12.98-.26 1.48-4.47 1.32-9.18-.12-13.63zm533.22 13.59c1.79-4.48 1.35-9.32.14-13.88 3.35.24 7.01-.34 10.13 1.19 2.17 1.95.26 5.06-.13 7.4 1.05 1.81 2.1 3.62 3.16 5.43-2.3.07-4.59.13-6.87.18.01-1.78.05-3.55.09-5.32l-1.77-.08c.44 1.78.88 3.57 1.33 5.35l-6.08-.27zm532.57-13.76c3.27.1 6.73-.38 9.86.83 2.64 1.75.68 5.29.48 7.78.91 1.78 1.8 3.58 2.75 5.35-4.33.16-8.67.09-12.99-.08 1.37-4.55 1.23-9.34-.1-13.88z"/><path fill="transparent" d="M221.09 77.1c1.63-.49 2.17.07 1.62 1.69-1.63.49-2.18-.07-1.62-1.69zm533.13.03c1.61-.55 2.18 0 1.69 1.63-1.63.55-2.19.01-1.69-1.63zm532.22-.04c1.02-1.52 3.45.3 2.26 1.71-1.06 1.52-3.48-.3-2.26-1.71z"/><path fill="#57267e" d="M327.88 82.53c1.69-1 3.34-2.06 5.04-3.04.61 1.17 1.29 2.32 1.79 3.55-1.31 2.1-3.15 3.8-4.83 5.6-2.63-.96-5.26-1.92-7.88-2.9.57-1.45 1.13-2.89 1.71-4.33 1.38.38 2.78.75 4.17 1.12zm533.52.03c1.15-.99 2.3-1.97 3.47-2.96.91 1.1 1.83 2.2 2.76 3.3-1.55 1.94-3.09 3.89-4.62 5.84-2.68-1.05-5.34-2.14-7.98-3.26.63-1.32 1.27-2.63 1.91-3.94 1.47.34 2.97.68 4.46 1.02z"/><path fill="transparent" d="M221.23 82.55c1.85-1.06 2.93 2.82.85 2.97-1.35-.13-1.88-2.14-.85-2.97zm1065.73.03c1.55-.89 2.75 1.84 1.43 2.74-1.58.89-2.78-1.84-1.43-2.74z"/><path fill="#57267e" d="M321.65 92.01c5.14-.95 10.19-2.5 15.4-3 2.25-.51 2.42 2.47 3.42 3.78-2.51 4.83-5.07 9.64-7.26 14.62 2.8-.58 4.64-2.47 5.31-5.25 1.17-.09 2.36-.19 3.54-.3.53 2.88 1.07 5.76 1.61 8.64-3.96 1.05-7.98 1.85-12.03 2.5 0-6.03-.09-12.07-.16-18.1-.79.26-1.57.53-2.35.79-1.22 1.93-2.56 4.13-5.23 3.71-1.69-2.04-1.64-4.92-2.25-7.39zm533.15.12c5.5-1.36 11.05-2.57 16.63-3.59 2.72 6.81-3.49 12.36-5.59 18.42 1.15-.2 2.3-.4 3.47-.6.4-1.36.8-2.72 1.23-4.08 1.27-.24 2.56-.47 3.86-.7.64 3 1.21 6.01 1.69 9.04-5.64 1.27-11.27 2.54-16.96 3.54-.57-1.73-1.14-3.45-1.69-5.17 2.56-4.56 5.21-9.09 6.94-14.05-.55.21-1.64.64-2.18.85-1.22 1.94-2.59 4.09-5.25 3.6-1.3-2.21-1.62-4.79-2.15-7.26z"/><path fill="#57267e" d="M324.93 107.99c1.57-3.91 3.95-7.43 6.14-11.01.41 5.38.45 10.78.31 16.18-1.86.36-3.72.72-5.57 1.08-.4-2.03-1.77-4.18-.88-6.25zm195.38 7.36c1.56-1.9 5.41-.88 5.86 1.66.82 2.11-.88 4.58-3.18 4.4-3.14.41-4.83-3.98-2.68-6.06zm532.78-.42c4.03-2.91 8.23 4.17 3.87 6.14-3.81 2.05-7.1-3.58-3.87-6.14zm-539.81 1.28c4.27-1.14 6.14 6.21 1.69 6.9-4.38 1.24-6.18-6.17-1.69-6.9zm532.01.11c4.17-1.83 7 5.51 2.64 6.6-4.18 2.06-6.84-5.31-2.64-6.6zm-249.63 5.28c2.83-4.74 9.07-3.58 13.75-4.05 1.93 5.03 4.5 10.99 1.31 16.09-2.57 4.79-8.77 3.64-13.29 4.32-2.17-5.06-4.92-11.09-1.77-16.36zm-533.14-.08c2.85-4.61 9-3.5 13.6-4 1.98 5 4.62 10.85 1.49 15.97-2.53 4.88-8.76 3.82-13.33 4.47-2.24-5.05-4.97-11.19-1.76-16.44zm1064.36 3.41c.55-3.51 3.87-5.45 6.12-7.84v21.87c-1.01-.44-2-.87-2.98-1.3-1.81-3.97-4-8.22-3.14-12.73zm-1177.01-3.01c2.31-3.55 8.92-3.71 10.84.28.54 3.22.15 6.51.13 9.75l-5.69-.54c1.09-2.79 2.16-5.59 3.04-8.46-2.17-.08-4.35.16-6.09 1.57 1.17 2.35 2.16 4.8 2.71 7.38-1.87 0-3.75-.01-5.62-.02.16-3.31-.35-6.77.68-9.96zm533.19.07c2.24-3.66 8.77-3.72 10.85.12.43 3.16.19 6.38.28 9.56-1.98-.04-3.95-.1-5.92-.15 1.11-2.87 2.19-5.76 3.04-8.72-2.14.09-4.22.52-6.14 1.44.65 2.33 3.76 5.12 1.84 7.52-1.57.22-3.14.28-4.7.37.16-3.37-.27-6.87.75-10.14zm532.35.24c2-3.8 8.4-3.98 10.85-.56.92 3.27.36 6.76.41 10.12-1.97-.05-3.95-.1-5.9-.16.87-2.45 1.93-4.84 3.17-7.14-1.79-1.56-3.98-2.63-5.65-.29.45 2.61 1.39 5.09 2.14 7.62-1.86.08-3.69.15-5.52.23.13-3.27-.11-6.59.5-9.82zm-695.81 1.78c3.64-.89 7.31-1.69 11-2.39.12 4.47-.51 9 .55 13.41.61 3.3 1.48 7.27-1.07 10.02-3.6 3.99-11.01 4.92-14.75.66-2.81-3.49-2.4-8.31-4.16-12.25-1.34-2.22-2.97-4.26-4.2-6.54 3.88-1.04 7.79-1.95 11.73-2.77.19 5.26-1.1 10.91 1.43 15.81.82 1.89 3.23.83 4.82 1.16-.31-3.46-.28-7.11-1.92-10.27-1.18-2.27-2.4-4.5-3.43-6.84zm532.54-.13c3.7-.83 7.43-1.55 11.19-2.11-.04 3.76-.91 7.54-.05 11.27.6 3.82 2.22 8.28-.4 11.7-3.72 4.55-12.36 5.43-15.73.05-2-3.71-2.3-8.01-3.48-12-1.72-1.7-3.09-3.68-4.14-5.84 3.93-1.16 7.94-2.04 12-2.61-.43 5.32-1.42 11.07 1.29 16 1.23 1.43 3.25.34 4.84.38-.51-3.44-.58-7.08-2.35-10.17-1.18-2.17-2.26-4.38-3.17-6.67z"/><path fill="transparent" d="M267.65 124.48c.88-1.1 2.54-1.23 3.72-1.93a55.072 55.072 0 0 1-4.26 7.85c.11-1.97-.04-4 .54-5.92zm533.11.14c.87-1.21 2.56-1.34 3.78-2.08a42.637 42.637 0 0 1-4.42 7.92c.13-1.95.05-3.96.64-5.84zm-531.04 7.93c.94-2.32 2.04-4.58 3.28-6.76-.03 2.74-.31 5.66-3.28 6.76z"/><path fill="#57267e" d="M390.81 126.04c3.7.75 7.35 1.71 10.94 2.86-1.77 1.55-3.55 3.08-5.34 4.6-.09 1.71-.18 3.42-.26 5.13-1.65-.41-3.29-.81-4.94-1.21.6-1.47 1.27-2.92 1.65-4.46-.3-2.4-1.29-4.64-2.05-6.92z"/><path fill="transparent" d="M802.69 132.5c1.13-2.35 2.5-4.59 4.07-6.68-.33 2.79-1.12 5.67-4.07 6.68z"/><path fill="#57267e" d="M923.08 126.44c1.73.11 3.48.22 5.23.34-.06.94-.12 1.89-.16 2.83 1.37-2.57 3.86-1.68 6.13-1.05-1.85 1.86-3.74 3.67-5.66 5.45.06 1.51.11 3.02.19 4.53-1.81-.39-3.61-.76-5.4-1.14.81-1.53 1.65-3.04 2.48-4.56-.94-2.14-1.89-4.27-2.81-6.4zM97.25 148.46c3.99-.31 7.88 1.01 11.76 1.74-.28 1.86-.57 3.72-.85 5.58-2.07-.95-4.12-1.93-6.19-2.88.85 1.57 1.61 3.18 2.46 4.75-1.29 1.06-2.59 2.12-3.88 3.19.5.18 1.51.55 2.02.73.78-.69 1.57-1.37 2.36-2.05.76.18 2.28.53 3.04.71-.39 1.95-.79 3.9-1.19 5.85-4.12-.47-8.21-1.17-12.26-2.04.66-1.68 1.34-3.37 2.01-5.05-.55.03-1.67.08-2.23.11-.1 1.52-.19 3.05-.29 4.57-2.34-.26-4.69-.47-6.99-.97-.3-2.6 2.18-4.27 3.47-6.23 2.35-2.56 3.85-6.06 6.76-8.01zm532.89-.38c4.05.58 8.1 1.25 12.13 2-.33 1.91-.64 3.82-.96 5.72-2.09-.95-4.15-1.93-6.22-2.88.91 1.65 1.75 3.34 2.66 5-1.42.71-2.83 1.43-4.23 2.16 2.31 1.91 5.18-.14 7.69-.43-.41 2.15-.83 4.31-1.23 6.46-4.09-.49-8.15-1.2-12.16-2.09.6-1.66 1.23-3.33 1.85-4.99-.57.02-1.72.04-2.3.06-.07 1.51-.13 3.02-.19 4.54-2.57-.3-5.14-.62-7.7-.96 3.08-5.19 7.13-9.71 10.66-14.59zm532.36.07c4.13.44 8.23 1.13 12.28 2.08-.26 1.85-.55 3.7-.78 5.55-2.13-.92-4.23-1.87-6.32-2.83.84 1.43 1.7 2.87 2.56 4.3-1.21.98-2.41 1.95-3.6 2.93.27.33.8.97 1.07 1.29 1.78-.91 3.61-1.98 5.73-1.74-.17 2.21-.58 4.38-1 6.54-3.99-.67-7.97-1.37-11.94-2.13.42-1.7.86-3.4 1.31-5.09-.53 0-1.57.01-2.09.02-.08 1.61-.16 3.23-.22 4.85-2.57-.52-5.13-1.04-7.67-1.58 3.49-4.78 7.23-9.37 10.67-14.19z"/><path fill="transparent" d="M97.19 153.41c1.69-.02 1.44 2.73-.14 2.68-1.7.02-1.44-2.72.14-2.68zm533.07.18c1.5-.09 1.39 2.37-.01 2.4-1.52.09-1.4-2.37.01-2.4z"/><path fill="#57267e" d="M299.17 170.39c3.97-1.48 8.09-2.51 12.27-3.16.41 1.82.82 3.63 1.24 5.44-2.26-.08-4.51-.2-6.75-.31 1.34 1.11 2.65 2.26 3.99 3.38-.73 1.55-1.48 3.11-2.22 4.66 2.06-1.44 4.13-2.89 6.46-3.88 1.11 3.82.28 7.9 1.48 11.71-1.21-.01-2.42-.01-3.63 0-.5-1.39-.99-2.78-1.49-4.16-2.56.45-5.11.89-7.67 1.34 1.24-5.35-.07-10.88-3.68-15.02zm533.29-.36c3.98-1.08 7.99-2.04 12.03-2.88.45 1.85.89 3.7 1.36 5.56-2.16-.1-4.31-.24-6.45-.35 1.23 1.16 2.47 2.32 3.72 3.48-.78 1.49-1.57 2.97-2.35 4.46a64.66 64.66 0 0 1 7.14-3.88c-.03 4.14-.02 8.32.94 12.38-2.81-.3-4.58-2.18-5.61-4.67-2.3.46-4.6.94-6.87 1.43.69-5.53-.58-11.04-3.91-15.53zm-672.62 3.91c2.7.52 5.41 1.04 8.11 1.58-1.09 2.51-2.15 5.03-3.12 7.59 1.32-1.4 2.63-2.82 3.95-4.23a64.69 64.69 0 0 1 4.12 5.19c.14-.55.42-1.66.57-2.22-.57-.94-1.13-1.88-1.68-2.83.31-.54.92-1.62 1.23-2.16 2.66.69 5.32 1.37 7.99 2.07-3.07 4.76-5.98 9.62-8.68 14.6-.73-.25-2.18-.76-2.91-1.01-.49-1.86-.98-3.71-1.46-5.57-1.85 2.05-4 3.87-6.79 4.45-.2-5.84-.38-11.68-1.33-17.46zm533.19-.06c2.83.6 5.66 1.25 8.48 1.94a248.56 248.56 0 0 1-3.58 6.09c1.68-.91 3.36-1.82 5.14-2.52.99 1.5 1.83 3.1 2.67 4.7.31-.67.64-1.34.98-2.01-.55-1.02-1.09-2.04-1.62-3.05.22-.54.67-1.62.89-2.16 2.79.7 5.58 1.41 8.36 2.15-3.17 4.55-6.16 9.24-8.46 14.3-1.08-.27-2.15-.53-3.22-.79-.65-1.91-1.24-3.83-1.88-5.74-1.27 1.49-2.54 2.96-3.8 4.45-.68-.18-2.05-.53-2.74-.7-.16-5.57-.5-11.14-1.22-16.66zm532.46-.06c2.73.6 5.46 1.22 8.2 1.85-1.11 2.45-2.17 4.92-3.1 7.44 1.35-1.41 2.69-2.84 4.04-4.28 1.45 1.79 2.86 3.63 4.24 5.5-.36-2.48-.69-4.96-.96-7.45 2.97.63 5.94 1.31 8.92 2.03-3.14 4.68-6.1 9.48-8.68 14.5-.73-.19-2.21-.57-2.95-.76-.54-1.88-1.07-3.76-1.57-5.64-2.03 1.42-4.14 5.83-6.68 3.1-.46-5.43-.53-10.91-1.46-16.29zm-831.13 18.82c-1.63-8.78 11.2-15.9 17.7-9.72 2.44 2.12 2.08 5.62 2.5 8.53 2.43 1.44 5.98 2.37 6.56 5.58.28 3.75-1.65 7.45-4.24 10.07-2.08 0-3.67-1.96-5.44-2.91.33-1.36.67-2.71 1-4.07-1.85-1.33-3.92-2.46-5.36-4.26-.87-2.68-.87-5.54-1.22-8.31-1.34 1.05-4.3 1.78-3.34 4.05 2.45 5.75 6.11 10.91 8.79 16.57-2.8 1.73-5.64 3.41-8.52 5-.81-2.14-1.45-4.34-1.98-6.55-1.29-5.05-5.39-8.86-6.45-13.98zm532.59.38c-2.18-9.09 11.34-16.49 17.85-9.91 2.2 2.12 1.81 5.39 2.11 8.17 2.42 1.54 6.13 2.45 6.64 5.74.47 4.11-2.29 7.55-4.33 10.83-1.72-1.25-3.43-2.51-5.13-3.77.2-1.43.42-2.86.64-4.28-1.72-1.12-3.54-2.11-4.99-3.56-1.04-2.44-.85-5.21-1.51-7.76-1.15-.69-2.19.06-2.97.89-1 1.83.44 3.65 1.15 5.3 2.49 4.5 5.1 8.93 7.42 13.53-2.8 1.7-5.62 3.36-8.46 4.99-.9-2.07-1.65-4.2-2.13-6.4-1.02-5.05-5.17-8.76-6.29-13.77zm-700.73-9.11c2.79-1.88 5.19.6 7.17 2.32-2.81 1.32-5.08-.8-7.17-2.32zm533.24-.23c2.29-.88 5.49-.39 6.2 2.33-2.04 2.74-4.32-1.44-6.2-2.33zm533.07-1.1c2.74.55 5.33 1.78 5.93 4.8-2.56-.78-5.31-1.86-5.93-4.8zm-1068.97 3.31c3.59.85 7.15 1.84 10.68 2.94-2.98 2.43-6.09 5.22-5.71 9.48l-4.53-.54c2.14-3.85 1.24-8.06-.44-11.88zm260.19 1.74c2.79-1.52 6.05-1.77 9.08-.79-1.03 1.6-2.28 3.74-4.46 3.68-1.67-.73-3.13-1.89-4.62-2.89zm272.98-1.64c3.41.74 6.85 1.38 10.13 2.6-.58 2.26-2.95 3.35-4.53 4.86-.1 1.7-.2 3.4-.27 5.12-1.66-.41-3.3-.81-4.94-1.21 2.39-3.63 1.17-7.7-.39-11.37zm261.5.68c2.02-.66 4.22-.62 6.29-.1 1.1 2.49-3.17 5.31-5.26 3.24-.96-.7-3.74-3.07-1.03-3.14zm271.23.42c.94-1.61 3.27-.19 4.79-.41 0 .81.01 2.43.01 3.24.55-1.07 1.12-2.15 1.71-3.22 1.11.92 2.52 1.63 3.39 2.86-1.49 1.5-3.13 2.81-4.75 4.14-.08 1.65-.14 3.29-.19 4.94-1.63-.41-3.22-.82-4.82-1.23.58-1.54 1.38-3.03 1.74-4.66-.44-1.95-1.4-3.73-1.88-5.66zm-806.66 4.62c3.38.17 7.18-.65 10.25 1.16 2.24 1.94.31 4.95-.01 7.31.96 1.8 1.94 3.6 2.92 5.4-4.33.19-8.66.2-12.98.1 1.34-4.59 1.17-9.4-.18-13.97zm532.64-.13c3.52.27 7.47-.45 10.62 1.52 1.2 2.22-.15 4.69-.59 6.95.94 1.91 1.91 3.81 2.88 5.72-2.12.09-4.23.18-6.33.26-.14-1.63-.26-3.25-.37-4.87-.41-.31-1.24-.93-1.65-1.24.44 1.91.89 3.82 1.36 5.73-1.99-.01-3.97-.06-5.94-.07 1.62-4.56 1.3-9.41.02-14z"/><path fill="transparent" d="M487.93 195.23c1.63-.51 2.18.05 1.65 1.67-1.64.51-2.19-.05-1.65-1.67zm532.39.02c1.62-.51 2.17.04 1.65 1.67-1.64.51-2.19-.05-1.65-1.67z"/><path fill="#57267e" d="M61.77 200.72c1.13-1.02 2.25-2.03 3.39-3.04l3.4 3.34c-1.77 1.96-3.55 3.92-5.34 5.87-2.53-.99-5.06-1.98-7.58-2.97.44-1.36.87-2.73 1.32-4.09 1.6.29 3.2.59 4.81.89zm533.16.13c1.1-1.05 2.2-2.1 3.31-3.14l3.54 3.24c-1.58 1.85-3.08 3.81-4.99 5.34-2.85.19-5.47-1.49-8.1-2.39.67-1.44 1.34-2.89 2.03-4.33 1.39.42 2.8.85 4.21 1.28zm527.62-.91c3.16 1.01 6.2.21 8.61-2 1 1.03 2.01 2.07 3.03 3.1-1.69 1.96-3.37 3.92-5.05 5.89-2.51-.92-5.06-1.74-7.37-3.05.16-1.33.48-2.64.78-3.94z"/><path fill="transparent" d="M488 200.68c1.55-.88 2.78 1.84 1.42 2.72-1.57.87-2.8-1.84-1.42-2.72z"/><path fill="#57267e" d="M55.34 210.1c5.63-1.12 11.25-2.32 16.91-3.31.34 2.16 1.28 4.49.16 6.59-1.75 3.95-3.99 7.66-5.76 11.61 1.23-.17 2.46-.35 3.7-.52.34-1.38.68-2.76 1.03-4.14 1.29-.13 2.59-.25 3.88-.37.54 3 1.03 6 1.49 9.01-5.75 1.21-11.5 2.42-17.26 3.62-.56-2.23-2.02-4.65-.72-6.9 2.04-4.43 4.87-8.49 6.32-13.19-1.88 1.39-3.58 3.01-5.18 4.71-.81.07-2.45.21-3.27.27-.44-2.46-.88-4.92-1.3-7.38zm533.2.01c5.61-1.13 11.2-2.31 16.83-3.36 2.73 6.77-3.41 12.28-5.59 18.24l3.67-.42c.35-1.39.7-2.77 1.06-4.15 1.25-.21 2.51-.42 3.77-.63.63 3 1.22 6.01 1.77 9.03-5.79 1.38-11.61 2.62-17.46 3.72-.46-2.14-1.83-4.44-.75-6.6 2.09-4.47 4.9-8.61 6.36-13.37-2.47 2.22-4.97 4.61-8.33 5.34-.47-2.59-.9-5.2-1.33-7.8zm532.36.15c5.69-1.34 11.42-2.55 17.22-3.39.19 2.08 1.01 4.31.09 6.34-1.75 4.07-4.1 7.85-5.99 11.85 1.29-.22 2.6-.44 3.92-.65.36-1.42.73-2.83 1.12-4.24l3.73-.12c.53 2.97 1.02 5.94 1.5 8.92-5.71 1.18-11.42 2.37-17.11 3.64-.55-2.05-2.19-4.2-1.11-6.33 1.96-4.58 4.72-8.77 6.72-13.34-.89.34-1.76.69-2.62 1.04-1.38 2.02-3.35 3.43-5.64 4.23-.65-2.65-1.25-5.3-1.83-7.95zm-866.67 22.8c4.06-2.64 7.83 4.88 3.16 6.43-3.84 1.73-6.86-4.44-3.16-6.43zm533.03.12c2.42-1.82 5.95.73 5.41 3.58.12 3.37-5.29 4.02-6.47 1.09-.89-1.54-.45-3.7 1.06-4.67zm532.83-.17c2.39-1.55 5.74 1.25 5.21 3.96-.4 3.01-5.15 3.8-6.45 1.07-1.09-1.65-.57-4.1 1.24-5.03zm-1075 1.82c2.48-1.09 5.74.21 5.76 3.17.33 3.22-4.4 4.78-6.16 2.2-1.5-1.57-.89-3.89.4-5.37zm533.13.33c2.74-2.42 7.32 1.23 5.45 4.52-.29 1.87-2.32 1.7-3.76 1.68-2.81-.24-3.78-4.48-1.69-6.2zm532.82-.3c2.28-1.25 5.66.31 5.43 3.12.72 3.49-5.09 4.84-6.37 1.79-1.01-1.62-.58-3.77.94-4.91zM0 236.76c3.29-.46 6.61-.6 9.92-.76 1.85 5.24 4.43 11.62.68 16.65-2.34 3.5-6.95 2.93-10.6 3.12v-6.3c1.78-2.99 3.64-5.95 5.11-9.11C3.3 241.63 1.54 243 0 244.59v-7.83zm529.06 3.38c2.75-5.06 9.18-3.8 13.97-4.04 1.98 5 4.44 10.99 1.13 16.02-2.69 4.47-8.56 3.4-12.98 4.23-2.24-4.98-5.21-10.92-2.12-16.21zm536-3.18c3.39-1.15 7.05-.75 10.58-.86 1.74 4.93 4.23 10.71 1.22 15.68-2.54 4.8-8.61 3.72-13.11 4.65-1.66-3.82-3.8-7.74-3.39-12.03.22-3.02 1.65-6.34 4.7-7.44zm-648.58 3.56c2-3.77 8.26-4.05 10.72-.65 1.09 3.33.4 6.96.52 10.41-1.83-.18-3.67-.32-5.46-.68.32-2.1 1.34-3.99 2.03-5.98 1.32-2.85-4.04-3.53-4.87-1.2.28 2.65 1.39 5.12 2.21 7.64-1.89.06-3.77.13-5.66.19.16-3.24-.21-6.55.51-9.73zm532.65-.3c2.24-3.58 8.55-3.66 10.8-.04.58 3.35.22 6.79.26 10.17-1.81-.17-3.61-.33-5.38-.61.57-3 1.58-5.88 2.39-8.81-1.83.25-3.65.46-5.4.98.45 2.77 1.44 5.4 2.37 8.04-1.97.07-3.93.13-5.88.2.18-3.31-.21-6.74.84-9.93zm-696.51 2.33c3.71-1.17 7.51-1.98 11.35-2.53-.13 3.98-.72 8.02.19 11.96.67 3.73 2.03 8.17-.81 11.37-3.84 4.21-12.12 5.02-15.43-.26-2.01-3.71-2.35-8-3.51-11.99-1.88-1.59-3.23-3.65-4.1-5.94 3.8-.98 7.62-1.9 11.46-2.76.31 5.39-.91 11.12 1.72 16.13.95 2.16 5.07.94 4.59-1.47.12-5.39-2.81-10.07-5.46-14.51zm534.01-.63c3.52-.66 7.05-1.31 10.59-1.88.13 3.64-.77 7.3-.07 10.92.58 3.89 2.34 8.35-.21 11.91-3.68 4.71-12.46 5.65-15.87.13-2.01-3.83-2.45-8.22-3.44-12.38-.95-.55-1.89-1.09-2.82-1.63-.28-1.31-.56-2.62-.83-3.92 3.62-.93 7.24-1.84 10.87-2.7.73 5.62-1 11.65 2.09 16.83 1.47.74 3.29.51 4.28-.9.32-4.5-.8-9.41-4.18-12.61-.14-1.26-.28-2.52-.41-3.77zm531.92.32c3.64-.85 7.3-1.6 10.99-2.27.12 4.34-.43 8.73.48 13.02.59 3.32 1.54 7.26-.82 10.14-3.72 4.4-12.02 5.27-15.5.14-2.09-3.7-2.4-8.06-3.51-12.09-1.99-1.58-3.33-3.7-4.08-6.1a348.3 348.3 0 0 1 11.51-2.63c.28 5.21-1.04 10.77 1.4 15.65.82 2.16 3.28 1.1 4.99 1.11-.4-3.46-.48-7.11-2.14-10.27-1.17-2.2-2.35-4.4-3.32-6.7z"/><path fill="transparent" d="M0 244.59c1.54-1.59 3.3-2.96 5.11-4.23-1.47 3.16-3.33 6.12-5.11 9.11v-4.88z"/><path fill="#57267e" d="M129.16 240.77c1.58 1.2 3.14 2.44 4.67 3.71-2.31.92-4.48-.15-6.5-1.23.46-.62 1.37-1.86 1.83-2.48z"/><path fill="transparent" d="M534.21 243.08c.89-1.3 2.63-1.59 3.93-2.35a48.24 48.24 0 0 1-4.28 7.86c.01-1.83-.3-3.75.35-5.51z"/><path fill="#57267e" d="M660.78 242.33c2.15-3.01 5.11 1.3 5.92 3.34-2.15-.7-4.79-1.1-5.92-3.34z"/><path fill="transparent" d="M1067.95 242.12c.57-.4 1.71-1.18 2.28-1.57-.8 2.92-2.14 5.65-3.96 8.06.33-2.14-.67-5.22 1.68-6.49z"/><path fill="#57267e" d="M1192.58 242.93c1.85-3.08 6.85-.51 5.87 2.6-2.03-.71-3.97-1.64-5.87-2.6z"/><path fill="transparent" d="M3.07 250.58a65.23 65.23 0 0 1 3.85-6.75c-.19 2.84-.55 6.01-3.85 6.75zm536.88-6.66c-.15 1.55-.26 3.12-.6 4.65-.96.77-2.05 1.35-3.07 2 1.08-2.29 2.33-4.5 3.67-6.65z"/><path fill="#57267e" d="M126.35 250.98c-.82-2.22-1.61-4.46-2.3-6.73 3.68.72 7.29 1.8 10.79 3.15-1.89 1.98-5.29 3.34-5.33 6.49-.12.92-.23 1.84-.32 2.77-1.58-.16-3.17-.33-4.76-.48.66-1.73 1.27-3.47 1.92-5.2zm530.8-6.66c3.71.59 7.34 1.63 10.82 3.05-1.68 1.53-3.59 2.87-4.92 4.74-.51 1.48-.55 3.07-.75 4.61-1.57-.22-3.15-.44-4.7-.65.66-1.7 1.38-3.38 2.05-5.08-.88-2.21-1.73-4.43-2.5-6.67z"/><path fill="transparent" d="M1068.68 249.9c1.28-1.79 2.59-3.57 3.93-5.32-.31 1.68-.59 3.36-.9 5.04l-3.03.28z"/><path fill="#57267e" d="M1189.51 244.45c3.61.68 7.58.85 10.69 3.05-2.94 2.43-5.68 5.2-5.51 9.33-1.55-.34-3.09-.68-4.61-1.02.71-1.59 1.41-3.19 2.13-4.78-.92-2.19-1.83-4.38-2.7-6.58zm-832.97 31.16c2.5-3.03 4.85-6.17 7.21-9.3 4.05.61 8.09 1.31 12.11 2.13-.36 1.93-.74 3.87-1.09 5.81-1.95-1.06-3.89-2.14-5.82-3.21.76 1.81 1.52 3.62 2.28 5.44-.78.27-2.32.82-3.1 1.1.01.63.02 1.89.03 2.52 1.32-.79 2.63-1.58 3.96-2.36.65.21 1.96.64 2.61.85-.43 1.97-.88 3.93-1.31 5.9-4.15-.6-8.26-1.36-12.35-2.28.83-1.42 1.66-2.83 2.5-4.24-.98-.34-1.96-.67-2.93-.99.04 1.67.09 3.34.14 5.01-2.39-.26-4.79-.51-7.14-1.04.18-2.13 1.64-3.75 2.9-5.34zm528.99 5.22c3.3-4.85 6.68-9.72 10.65-14.04 4.08-.31 8.09.87 12.08 1.56-.39 1.93-.65 3.89-1.02 5.82-2.03-.99-4.05-1.97-6.08-2.92.87 1.58 1.71 3.19 2.63 4.77-1.05.61-2.08 1.24-3.09 1.86-.16.48-.49 1.43-.65 1.9 2.39-.91 4.88-1.55 7.46-1.56-.51 2.05-1.02 4.1-1.54 6.15-4.02-.5-8.03-1.15-12.01-1.91.54-1.59 1.09-3.17 1.65-4.74-.74-.25-1.47-.5-2.19-.74-.1 1.68-.18 3.36-.26 5.04-2.55-.38-5.1-.77-7.63-1.19zm-852.73 7.5c4.06-1.14 8.18-2.1 12.34-2.81l.87 5.66c-2.13-.24-4.24-.53-6.37-.77 1.32 1.38 2.62 2.77 3.95 4.15-.81 1-1.61 2.03-2.41 3.05.38.32 1.14.97 1.52 1.29.73-1.1 1.46-2.2 2.2-3.3 1.06-.18 2.13-.35 3.19-.53.23 3.98.53 7.95.92 11.91-2.77-.19-4.38-2.18-5.09-4.73-2.42.52-4.84 1.06-7.26 1.6 0-2.8.21-5.63-.29-8.39-.7-2.59-2.28-4.81-3.57-7.13zm533.14.22c4.01-1.32 8.11-2.35 12.28-3.06.35 1.92.71 3.85 1.07 5.79-2.22-.29-4.42-.62-6.63-.89 1.31 1.12 2.46 2.41 3.79 3.53-.6 1.69-1.21 3.39-1.79 5.09 2.05-1.69 4.21-3.25 6.51-4.59.31 4.19.5 8.38 1.09 12.55-2.84-.14-4.39-2.18-5.24-4.71-2.41.51-4.81 1.04-7.21 1.57.15-2.84.55-5.76-.22-8.54-.8-2.45-2.36-4.55-3.65-6.74zm532.47.05c3.96-1.31 7.99-2.38 12.08-3.26.41 2 .82 4 1.25 6.01-2.06-.33-4.1-.66-6.14-1.03 1.02 1.21 2.09 2.39 2.95 3.74-.3 1.69-.8 3.33-1.17 5.01 1.33-1.09 2.56-2.3 3.82-3.49.9-.16 1.8-.31 2.72-.46-.04 3.93-.06 7.92 1.03 11.75-1.24-.29-2.49-.49-3.65-.94-.6-1.2-1-2.47-1.41-3.72-2.54.51-5.06 1.04-7.59 1.56.85-5.41-.21-10.97-3.89-15.17zm-671.32 3.62c2.53.55 5.06 1.11 7.59 1.67-1.05 2.4-2.09 4.79-3.07 7.22 1.55-1.35 3.08-2.71 4.62-4.06 1.04 1.77 2.01 3.59 3.05 5.38.32-.72.64-1.45.97-2.16-.62-1.57-1.19-3.15-1.69-4.74 3.13.15 6.21.75 9.26 1.44-2.8 4.91-6.07 9.55-8.52 14.65-.79-.18-2.36-.56-3.14-.74-.49-1.92-.98-3.84-1.45-5.76-1.88 2.08-3.97 4.13-6.9 4.5-.07-5.23.04-10.54-1.28-15.65l.56-1.75zm532.06-.09c2.74.6 5.49 1.21 8.25 1.85-1.03 2.05-2.07 4.09-3.14 6.12 1.69-.61 3.4-2.88 5.32-1.86.95 1.5 1.64 3.17 2.39 4.79.2-.97.41-1.95.64-2.92-.5-.94-.98-1.88-1.45-2.81.21-.53.63-1.6.83-2.13 2.8.67 5.59 1.35 8.39 2.06-3.03 4.57-6 9.19-8.35 14.15-.8-.05-2.4-.15-3.2-.19-.6-2.1-1.19-4.19-1.78-6.27-1.33 1.55-2.67 3.08-3.98 4.64l-2.84-.92c.02-5.52-.39-11.03-1.08-16.51zm-830.79 13.28c3-5.51 11.45-9.03 16.65-4.46 2.7 2.04 2.34 5.69 2.64 8.69 2.38 1.46 5.86 2.32 6.62 5.38.66 4.19-2.22 7.72-4.21 11.11-1.79-1.29-3.57-2.57-5.34-3.85.32-1.31.65-2.62.98-3.92-1.76-1.21-3.67-2.27-5.13-3.85-1.59-2.4-.03-6.17-2.39-8.1-1.11.68-2.17 1.45-3.23 2.21 2.83 6 6.7 11.48 9.3 17.58-2.31 2.45-5.52 3.68-8.47 5.15-1.26-4.04-1.81-8.38-4.22-11.97-2.48-4.09-5.62-9.14-3.2-13.97zm532.48 5.57c-1.8-8.92 11.45-16.14 17.83-9.58 2.3 2.08 1.9 5.4 2.16 8.2 2.18 1.33 5.02 2.14 6.34 4.5 1.5 4.46-1.79 8.48-3.98 12.04-1.76-1.29-3.5-2.59-5.24-3.88.27-1.32.56-2.63.84-3.94-1.78-1.25-3.71-2.34-5.18-3.95-.85-2.35-.78-4.92-1.33-7.34-1.03-.6-2.02-.5-2.95.29-1.19 1.77.15 3.67.88 5.33 2.46 4.6 5.15 9.08 7.58 13.7-2.72 1.59-5.26 4.11-8.53 4.33-1.55-1.49-1.58-3.78-2.12-5.73-1.07-5.09-5.32-8.84-6.3-13.97zm532.99-5c2.72-5.73 11.03-9.54 16.54-5.36 3.02 1.99 2.71 5.93 3.11 9.08 2.33 1.44 5.76 2.29 6.49 5.31.67 4.12-2.17 7.61-4 11.02-1.85-1.16-3.69-2.33-5.53-3.49.24-1.46.47-2.91.72-4.35-1.83-1.28-3.85-2.37-5.29-4.09-.62-2.09-.57-4.29-.7-6.43-.41-.45-1.23-1.36-1.64-1.81-.86 1.38-2.98 2.75-1.85 4.55 2.46 5.62 6.18 10.61 8.5 16.31-2.83 1.57-5.66 3.13-8.49 4.67-1.71-4.34-2.42-9.09-5.01-13.04-2.18-3.64-4.74-8.06-2.85-12.37zm-975.84-.9c2.15-.66 4.52-1.06 6.71-.38 2.64 1.65-1.75 3.33-2.68 4.87-1.44-1.37-3.82-2.26-4.03-4.49zm272.94-.82c3.4.83 6.78 1.71 10.15 2.67-1.78 1.71-3.58 3.4-5.38 5.08-.06 1.58-.11 3.16-.16 4.74-1.68-.26-3.37-.53-5.04-.78.75-1.71 1.5-3.41 2.27-5.11-.79-1.62-1.59-3.23-2.37-4.84.13-.44.4-1.32.53-1.76zm260.71.26c2.44-.02 5.02-.36 7.33.66-.48 1.94-2.36 2.93-3.71 4.2-1.35-.91-2.7-1.82-4.04-2.73.11-.53.32-1.6.42-2.13zm531.1 1.11c2.47-.78 5.19-1.85 7.78-.9 2.4 1.59-1.69 3.25-2.54 4.75-1.76-1.27-3.53-2.54-5.24-3.85zm-260.09-1.25c3.75.58 7.45 1.46 11.06 2.67-1.72 1.52-3.47 3.01-5.21 4.5-.24 1.77-.46 3.55-.67 5.33-1.54-.37-3.09-.74-4.61-1.1 2.2-3.7 1.26-7.77-.57-11.4zm-806.6 5.68c3.29.02 6.9-.72 9.93.9 2.05 1.24.71 3.91.78 5.8-.63 2.68 1.25 4.95 2.33 7.22-4.32.06-8.63.05-12.95-.07 1.39-4.55 1.26-9.32-.09-13.85zm533.14.03c3.63.04 8.22-1.17 11.02 1.83.51 2.17-.52 4.36-.44 6.55.48 2.01 1.57 3.8 2.47 5.64-2.17.04-4.34.09-6.49.13-.01-1.7-.01-3.4.01-5.1-.46-.04-1.39-.1-1.85-.14.52 1.58 1.03 3.16 1.57 4.75-1.92.19-3.83.36-5.74.42.44-4.72 1.24-9.51-.55-14.08zm532.48.22c3.57-.27 7.71-1.21 10.79 1.2.85 1.52.08 3.38.17 5.04-.49 2.75.92 5.26 1.91 7.74-4.22-.27-8.43-.39-12.64-.29 1.29-4.5 1.34-9.25-.23-13.69z"/><path fill="transparent" d="M221.19 313.33c1.35-1.02 2.85 1.3 1.42 2.16-1.35 1.02-2.85-1.31-1.42-2.16zm1066.02-.26c1.75-.6 2.47 2.32.7 2.69-1.77.6-2.49-2.32-.7-2.69z"/><path fill="#57267e" d="M856.87 318.37c2.95.59 5.8-.1 8.15-1.98l2.71 2.74c-1.58 2.03-3.17 4.06-4.75 6.09-2.66-1.05-5.3-2.11-7.94-3.19.6-1.22 1.2-2.44 1.83-3.66zm-528.85.48c1.38-.92 2.76-1.83 4.15-2.73l3.05 3.5c-1.83 1.82-3.66 3.65-5.48 5.5-2.49-.88-5.09-1.63-7.3-3.13.09-1.3.34-2.58.55-3.86 1.68.23 3.35.47 5.03.72z"/><path fill="transparent" d="M221.11 319.16c1.46-1.11 3.09 1.43 1.65 2.43-1.47 1.11-3.1-1.43-1.65-2.43zm1065.81.2c1.31-1 2.86 1.26 1.55 2.19-1.34 1-2.9-1.27-1.55-2.19z"/><path fill="#57267e" d="M332.1 326.48c2.26-.69 4.6-1.04 6.93-1.45.24 2.07 1.21 4.27.29 6.3-1.71 4-3.99 7.73-5.79 11.7 1.27-.16 2.54-.31 3.81-.45.17-1.25.35-2.5.54-3.75 1.32-.25 2.64-.5 3.97-.74.67 3 1.23 6.02 1.74 9.05-3.97.88-7.95 1.71-11.95 2.45.36-7.69-1.01-15.52.46-23.11zm522.68 2.24c5.46-1.49 11-2.66 16.58-3.66.38 2.15 1.52 4.48.34 6.57-1.86 4.08-4.16 7.94-5.91 12.08 1.25-.37 2.5-.74 3.76-1.1.26-1.25.52-2.5.8-3.75 1.39-.22 2.79-.43 4.2-.65.53 2.94 1.06 5.88 1.57 8.83-5.52 1.29-11.06 2.48-16.58 3.74-.75-1.61-1.49-3.22-2.22-4.83 2.48-4.87 5.43-9.54 7.12-14.78-2.46 1.95-4.86 4.1-7.92 5.03-.6-2.49-1.17-4.98-1.74-7.48zm-533.24-.09c3.32-.79 6.65-1.52 9.99-2.19l-.45 4.19a276 276 0 0 0-4.3 4.71c-1.18.15-2.35.31-3.52.47-.58-2.4-1.15-4.79-1.72-7.18z"/><path fill="#57267e" d="M324.22 345.85c2-4.23 4.21-8.36 6.84-12.22.45 5.4.45 10.83.21 16.25-1.79.22-3.57.45-5.36.67-.56-1.57-1.13-3.14-1.69-4.7zm197.08 5.31c4.27-2.35 7.38 5.76 2.45 6.65-3.99 1.41-6.25-5.18-2.45-6.65zm532.01.3c3.88-3.25 8.16 4.68 3.41 6.25-3.75 1.74-6.94-4.12-3.41-6.25zm-541.11 1.6c2.03-1.3 5.48.28 5.29 2.86.69 2.61-2.41 4.44-4.64 3.53-2.59-.86-3.09-5.07-.65-6.39zm532.11.34c2.21-2.22 6.58.41 5.79 3.54-.26 2.96-5 3.76-6.33 1.18-.98-1.47-.75-3.52.54-4.72zm-781.99 4.91c2.68-5.02 9.21-3.75 13.94-4.05 1.8 4.86 4.4 10.44 1.5 15.42-2.41 5.02-8.72 4.31-13.35 5-2.25-5.04-5.03-11-2.09-16.37zm533.48-.48c3-4.52 9.12-3.25 13.76-3.57 1.72 4.88 4.31 10.59 1.33 15.54-2.51 4.92-8.72 4.2-13.34 4.9-2.28-5.2-5.16-11.49-1.75-16.87zm531.16 3.22c.64-3.32 3.86-5.1 6.04-7.35V375c-1-.22-1.98-.43-2.95-.64-1.85-4.16-4.13-8.62-3.09-13.31zm-1177.24-2.36c2.03-3.84 8.55-4.04 10.86-.38.75 3.23.26 6.61.38 9.91-1.91-.01-3.82-.01-5.73-.01.89-2.77 2.55-5.48 2.25-8.49-1.59-.59-4.15-1.1-4.75 1.08-.06 2.62 1.42 5.03 2.11 7.51-1.92.01-3.82.04-5.73.06.14-3.22-.15-6.52.61-9.68zm533.42-.41c2.25-3.44 8.44-3.53 10.64.02.72 3.25.22 6.63.33 9.94-1.92-.01-3.83-.03-5.74-.04.97-2.65 2.1-5.27 2.54-8.08-1.94-1.73-4.17-.54-5.62 1.13.86 2.07 2.62 4.05 2.42 6.42-1.65.9-3.64.61-5.44.88.2-3.42-.27-6.99.87-10.27zm532.42.21c2.2-3.67 8.69-3.83 10.79.01.7 3.21.32 6.54.46 9.8-2.07-.13-4.13-.24-6.17-.33 1.06-2.47 2.21-4.91 3.38-7.33-1.49-.52-3.03-2.01-4.63-1.08-1.28.28-.98 1.96-.71 2.87.5 1.98 1.22 3.89 1.88 5.82-1.91.05-3.8.11-5.69.17.22-3.3-.21-6.71.69-9.93z"/><path fill="transparent" d="M267.51 361.3c1.07-1.04 2.42-1.72 3.69-2.49-.94 2.84-2.39 5.48-4.21 7.85.12-1.79.13-3.6.52-5.36z"/><path fill="#57267e" d="M519.68 360.39c3.64-.82 7.31-1.54 11-2.19-.07 4.63-.53 9.31.57 13.86.69 3.27 1.16 7.16-1.38 9.8-3.8 3.76-11.24 4.62-14.77.06-2.51-3.88-2.82-8.66-3.84-13.05-.91-.5-1.81-1-2.71-1.49-.45-1.28-.9-2.56-1.35-3.83 3.75-1.19 7.56-2.15 11.41-2.91.46 5.72-1.45 12.39 2.56 17.23 1.25-.01 2.51-.3 3.56-1 .85-6.06-2.72-11.22-5.05-16.48z"/><path fill="transparent" d="M800.65 361.46c.83-1.28 2.46-1.76 3.68-2.61-.93 2.85-2.34 5.53-4.21 7.88.12-1.77.09-3.56.53-5.27z"/><path fill="#57267e" d="M928.1 358.8c1.52 1.09 3.03 2.22 4.46 3.46-1.54 1.98-3.76.06-5.62-.3.39-1.05.77-2.11 1.16-3.16zm123.78 1.94c3.77-1.19 7.65-1.98 11.59-2.45-.17 2.28-.44 4.57-.57 6.86-.19 4.34 1.81 8.5 1.35 12.84-1.42 7.48-13.45 9.74-17.26 3.01-1.83-3.71-2.23-7.9-3.35-11.83-1.97-1.48-3.21-3.56-3.98-5.85 3.87-1.01 7.77-1.86 11.71-2.56-.42 5.75-.64 11.59 1.39 17.1 1.5-.42 3.63.11 4.54-1.49.71-5.79-2.71-10.84-5.42-15.63zm-657.16-1.27c2.34.16 4.2 1.69 6.05 2.98-2.26 1.45-6.96.26-6.05-2.98z"/><path fill="transparent" d="M269.78 369.27c.87-2.35 1.92-4.63 3.18-6.79.15 2.78-.64 5.37-3.18 6.79z"/><path fill="#57267e" d="M392.74 369.84c.49-2.42-2.27-4.79-1.04-7.11 3.36.43 6.6 1.49 9.83 2.49-1.7 1.73-3.44 3.43-5.2 5.1-.07 1.6-.13 3.2-.18 4.8-1.63-.38-3.25-.75-4.86-1.12.52-1.37 1.09-2.74 1.45-4.16z"/><path fill="transparent" d="M802.8 369.27c.88-2.46 2.19-4.74 3.86-6.75-.13 2.83-1.32 5.35-3.86 6.75z"/><path fill="#57267e" d="M923.55 362.78c1.65.18 3.31.46 4.97.75-.06.87-.2 2.62-.26 3.5.52-1.22 1.04-2.44 1.59-3.65 1.35.79 2.71 1.59 4.09 2.4-1.66 1.39-3.49 2.63-4.8 4.37-.52 1.56-.57 3.23-.76 4.85-1.54-.28-3.08-.56-4.6-.82.56-1.67 1.45-3.27 1.6-5.04-.51-2.15-1.45-4.18-1.83-6.36zM86.18 399.1c3.24-5.1 7.26-9.65 10.78-14.56 4.1.57 8.18 1.32 12.23 2.23-.42 1.9-.84 3.81-1.25 5.72-1.74-1.05-3.46-2.11-5.18-3.16-.07.29-.21.88-.28 1.18.59 1.1 1.21 2.21 1.72 3.37-.89.79-1.81 1.55-2.74 2.29-.08.51-.23 1.54-.3 2.06 1.36-.7 2.71-1.4 4.06-2.09.7.1 2.1.29 2.79.39-.35 1.84-.68 3.69-1.25 5.48-3.91.81-7.98-.49-11.75-1.53.28-1.56.77-3.08 1.24-4.59-.63-.23-1.26-.45-1.89-.67-.15 1.64-.29 3.29-.44 4.94-2.58-.34-5.16-.68-7.74-1.06zm543.96-14.13c4.21-.36 8.31 1.01 12.38 1.87-.53 1.9-1.04 3.81-1.55 5.73-1.57-.92-3.01-2-4.55-2.93l-1.2.32c.88 1.33 1.75 2.66 2.64 4-1.07.66-2.14 1.33-3.2 2.01-.16.48-.49 1.44-.66 1.92 2.37-.81 4.82-1.37 7.32-1.6-.42 2.08-.83 4.16-1.26 6.23-4.09-.43-8.15-1.04-12.17-1.88.53-1.57 1.08-3.14 1.64-4.71-.73-.24-1.45-.48-2.17-.71-.07 1.7-.15 3.39-.21 5.09-2.59-.43-5.18-.86-7.75-1.33 3.42-4.77 6.73-9.71 10.74-14.01zm522.38 14.15c2.05-5.65 7.02-9.64 10.25-14.65 4 .68 8 1.39 11.99 2.16-.33 1.93-.68 3.86-1 5.8-1.87-.98-3.74-1.98-5.57-3.01.53 1.54 1.2 3.06 1.43 4.7-.55.51-1.65 1.54-2.2 2.06-.16.49-.48 1.49-.64 1.98 1.42-.71 2.85-1.41 4.29-2.12l2.65.8c-.53 1.93-.9 3.9-1.31 5.87-4.17-.6-8.32-1.33-12.39-2.36.8-1.48 1.64-2.95 2.47-4.42-.92-.19-1.83-.38-2.72-.57-.03 1.6-.07 3.2-.07 4.81-2.42-.27-4.83-.5-7.18-1.05z"/><path fill="transparent" d="M630.24 390.26c1.67-.06 1.51 2.69-.08 2.65-1.7.05-1.54-2.7.08-2.65z"/><path fill="#57267e" d="M299.16 406.67c4-1.18 8.05-2.21 12.14-3.1.43 2 .86 4 1.29 6.02-1.94-.29-3.86-.66-5.79-.97-.12.29-.35.85-.47 1.13 1.17.63 2.33 1.26 3.5 1.91-.64 1.83-1.32 3.65-1.98 5.48 2.16-1.58 4.39-3.06 6.67-4.45.2 2.75.28 5.5.36 8.26.24 1.41.58 2.85.36 4.29-2.87.04-4.02-2.51-5.01-4.73-2.4.46-4.8.94-7.19 1.42.12-2.92.6-5.94-.31-8.79-.83-2.34-2.31-4.36-3.57-6.47zm533.56.2c3.69-1.72 7.74-2.41 11.68-3.3.44 2 .89 3.99 1.34 6-1.98-.34-3.94-.71-5.9-1.06.14.37.42 1.11.57 1.49.87.77 1.77 1.56 2.67 2.35-.74 1.62-1.55 3.22-2.3 4.85 2.21-1.73 4.64-3.19 7.31-4.11-.17 4.12-.24 8.27.65 12.33-2.7-.54-4.53-2.31-5.36-4.89-2.38.46-4.75.93-7.12 1.4.05-3.22.69-6.66-.75-9.68-.86-1.84-1.93-3.56-2.79-5.38zm-672.53 4.43l.37-.76c2.55.35 5.04 1.02 7.53 1.68-1.13 2.29-2.26 4.57-3.36 6.88 1.59-1.29 3.17-2.58 4.76-3.86 1.08 1.92 2.14 3.86 3.2 5.8.18-.87.37-1.73.56-2.58-.42-1.75-.8-3.51-1.19-5.27 3.07.72 6.12 1.52 9.14 2.4-3.38 4.54-6.18 9.46-8.87 14.43-.76-.29-2.28-.88-3.04-1.17-.48-1.95-.97-3.9-1.45-5.85-1.28 1.53-2.55 3.06-3.83 4.6-.74-.14-2.23-.41-2.97-.55.22-5.28-.73-10.5-.85-15.75zm533.98 15.66c.21-5.51-1.03-10.96-.69-16.45 2.67.37 5.28 1.04 7.9 1.7-.91 1.65-1.9 3.25-2.8 4.9 0 .45.01 1.35.01 1.79 1.21-1.11 2.41-2.24 3.73-3.23 1.98 1.28 2.71 3.68 3.96 5.57-.08-1.91-.32-3.8-.71-5.66l.08-2.22c2.9.65 5.8 1.33 8.69 2.04-3.18 4.74-6.23 9.59-8.67 14.77-3.26-.92-4.07-4.15-4.89-7.02-1.2 1.52-2.41 3.04-3.62 4.57l-2.99-.76zm531.3-16.57c2.71.53 5.44 1.06 8.18 1.6-1.05 2.38-2.08 4.77-3.06 7.18 1.6-1.34 3.18-2.7 4.8-4.03.9 1.94 1.78 3.88 2.69 5.83.25-.67.51-1.33.78-1.99-.45-1.85-.9-3.69-1.32-5.53 3.18.49 6.34 1.18 9.42 2.16-3.34 4.45-6.2 9.22-8.68 14.2-.82-.2-2.44-.58-3.25-.77-.47-1.94-.94-3.87-1.37-5.8-1.86 2.11-3.96 4.11-6.82 4.65-.03-5.86-.37-11.72-1.37-17.5zm-831.26 17.59c-.3-8.23 11.25-14.18 17.63-8.81 2.67 2.05 2.32 5.7 2.69 8.69 2.55 1.52 6.4 2.61 6.66 6.14.07 3.89-2.49 7.11-4.34 10.33-1.65-1.11-3.39-2.13-4.82-3.52-.09-1.46.03-2.91.09-4.36-1.67-1.21-3.48-2.28-4.89-3.79-1.14-2.61-.89-5.57-1.25-8.34-1.31.85-4.28 1.32-3.51 3.51 2.32 5.95 6.24 11.13 8.84 16.97-2.74 1.58-5.48 3.14-8.23 4.67-.67-1.12-1.32-2.23-1.96-3.34.4-6.91-6.42-11.44-6.91-18.15zm532.87-2.94c2.22-6.6 11.96-10.82 17.48-5.61 2.48 2.05 2.07 5.5 2.28 8.38 2.48 1.48 6.17 2.43 6.71 5.76.45 3.95-2.24 7.34-4 10.64-1.81-1.1-3.61-2.21-5.41-3.31.19-1.5.39-2.99.6-4.47-1.78-1.24-3.72-2.31-5.16-3.95-.96-2.35-.8-4.96-1.07-7.44-1.26.09-2.5.18-3.74.28.96 7.32 6.44 12.81 8.97 19.56-2.78 1.58-5.56 3.16-8.33 4.74-1.93-3.7-2.06-8.07-4.32-11.61-2.25-3.91-5.41-8.22-4.01-12.97zm-699.58-3.58c.19-1 .5-1.97.79-2.92 1.49 1.16 2.99 2.32 4.36 3.63-1.43 2.5-3.58.46-5.15-.71zM1293.93 419c1.96.8 3.79 2.11 4.41 4.27-2.52.18-6.78-1.2-4.41-4.27zm-534.03.12c2.83.4 5.46 1.68 6.11 4.74-2.67-.69-5.29-1.83-6.11-4.74zm-276.1 4.57c3.03-1.24 6.37-1.46 9.42-.12-1.45 1.38-2.89 2.76-4.35 4.12-1.71-1.32-3.41-2.65-5.07-4zm534.22-.67c2.07-.42 4.21-.44 6.33-.54.14.59.4 1.77.54 2.35-1.33.94-2.66 1.87-3.97 2.82-.96-1.45-5.18-2.83-2.9-4.63zm-794.55-.59c3.66.76 7.29 1.67 10.87 2.75-1.77 1.67-3.57 3.3-5.38 4.92-.09 1.64-.17 3.28-.25 4.94-1.59-.33-3.17-.66-4.76-.97.56-1.65 1.34-3.24 1.55-4.97-.31-2.32-1.31-4.47-2.03-6.67zm534.59 4.42c-.17-1.36-1.76-3.04-.33-4.15 3.41.26 6.6 1.6 9.76 2.82-1.59 1.36-3.33 2.6-4.64 4.25-.77 1.63-.87 3.47-1.26 5.22-1.48-.33-2.94-.64-4.41-.96.78-2.3 2.15-4.79.88-7.18zm531.09-4.91c2.06.85 4.2 1.76 5.9 3.28.23-.44.68-1.32.91-1.75 1.26.73 2.54 1.48 3.84 2.22-1.62 1.38-3.41 2.61-4.69 4.32-.66 1.63-.75 3.42-1.02 5.15l-4.57-1.16c.69-1.62 1.35-3.26 2.05-4.89-.99-2.33-1.87-4.7-2.42-7.17zm-806.23 6.24c3.46.25 7.39-.55 10.48 1.42 1.6 2.13-.07 4.89-.28 7.25.9 1.82 1.84 3.62 2.76 5.45-2.16.02-4.3.06-6.44.09 0-1.7.02-3.39.04-5.07l-1.99-.2c.42 1.73.83 3.47 1.26 5.21l-5.82-.12c1.37-4.6 1.18-9.42-.01-14.03zm532.4.23c3.62.03 7.84-.97 10.93 1.5.87 2.24-.36 4.58-.79 6.79.92 1.52 1.86 3.04 2.66 4.65-1.73 1.59-4.35.84-6.47 1.2.03-1.81.08-3.6.13-5.4-.43-.03-1.29-.08-1.73-.11.35 1.71.7 3.41 1.06 5.12-1.88.09-3.75.17-5.61.26 1.24-4.61 1.47-9.47-.18-14.01z"/><path fill="transparent" d="M488.23 431.33c1.57-.57 2.35 2.06.73 2.45-1.58.55-2.36-2.07-.73-2.45z"/><path fill="#57267e" d="M61.85 437.18c1.07-.98 2.14-1.96 3.21-2.93 1.15 1.01 2.3 2.02 3.45 3.04-1.71 2.11-3.47 4.19-5.26 6.23-2.59-1.1-5.18-2.19-7.77-3.28a783.1 783.1 0 0 1 1.77-3.99c1.53.3 3.06.61 4.6.93zm533.11-.08c1.08-.94 2.15-1.87 3.25-2.79 1.17.96 2.35 1.92 3.53 2.9-2.07 2.07-3.72 6.89-7.37 5.42-1.97-.63-3.81-1.55-5.68-2.41.55-1.31 1.11-2.61 1.68-3.91 1.53.26 3.05.52 4.59.79zm527.96-.51c2.97.37 5.9-.14 8.31-2.03.98.91 1.98 1.82 2.99 2.74-1.71 2.06-3.44 4.1-5.17 6.14-2.66-1.05-5.3-2.11-7.94-3.18.58-1.24 1.2-2.45 1.81-3.67zM55.16 446.78c5.7-1.34 11.42-2.57 17.21-3.44.3 2.3 1.16 4.79-.12 6.96-1.84 3.84-3.97 7.54-5.53 11.52 1.27-.37 2.54-.73 3.81-1.08.2-1.29.41-2.57.61-3.84 1.38-.15 2.76-.28 4.15-.42.53 2.9 1.06 5.8 1.57 8.7-5.72 1.49-11.52 2.73-17.36 3.67-.57-1.63-1.15-3.25-1.72-4.87 2.41-4.67 4.93-9.29 7.33-13.97-.68.07-2.04.22-2.72.3-.6 1.1-1.21 2.21-1.81 3.33-1.25.15-2.49.31-3.73.47-.57-2.44-1.14-4.89-1.69-7.33zm533.22.01c5.66-1.34 11.36-2.54 17.1-3.5.22 2.1 1.22 4.35.22 6.4-1.84 4.13-4.19 8.01-5.93 12.19 1.26-.36 2.54-.71 3.83-1.06.24-1.28.49-2.55.74-3.82 1.34-.21 2.68-.42 4.04-.63l1.74 8.76c-5.78 1.25-11.5 3.4-17.46 3.38-.88-1.74-1.91-3.84-.96-5.76 1.94-4.44 4.61-8.51 6.6-12.93l-2.71.56c-.6 1.1-1.19 2.2-1.78 3.31-1.3.06-2.6.14-3.89.23-.52-2.38-1.04-4.76-1.54-7.13zm532.53.04c5.38-1.14 10.7-2.89 16.23-3.18 1.86 1.01 2.04 3.92 1.19 5.73-1.86 4.29-4.31 8.3-6.22 12.58 1.39-.45 2.8-.9 4.21-1.34.16-1.28.33-2.56.51-3.83 1.43-.03 2.87-.06 4.33-.08.45 2.85.9 5.7 1.36 8.55a281.84 281.84 0 0 1-17.23 3.62c-.61-1.65-1.22-3.28-1.81-4.92 2.41-4.67 4.92-9.3 7.37-13.95l-2.61.2c-.62 1.14-1.23 2.27-1.82 3.42-1.37.06-2.73.13-4.08.21-.49-2.34-.96-4.68-1.43-7.01zm-865.63 22.34c2.18-.42 4.66 1.51 4.18 3.85.49 2.91-3.93 4.19-5.7 2.26-2.04-1.82-1.41-5.7 1.52-6.11zm532.92.06c4.44-1.59 6.52 6.35 1.77 6.86-4.14 1.2-6.01-5.9-1.77-6.86zm532.15.1c2.7-1.14 5.95 1.86 4.7 4.63-.65 2.9-5.6 2.98-6.43.12-.76-1.67-.18-4.2 1.73-4.75zm-1074.98 2.04c3.62-2.78 7.78 3.69 4.03 6-3.74 2.61-7.99-3.68-4.03-6zm533.75-.38c2.41-1.1 5.27 1.37 4.9 3.9 0 3.17-4.97 4.12-6.35 1.44-1.11-1.8-.6-4.48 1.45-5.34zm532.15.24c4.11-2.72 7.66 5.16 3.17 6.38-3.86 1.92-6.93-4.53-3.17-6.38zM0 472.16c3.29.35 6.6.41 9.91.43 1.88 5.07 4.33 11.2.92 16.2-2.24 3.75-7.09 3.24-10.83 3.64v-6.3c1.72-3.01 3.53-5.97 5.07-9.08-1.73 1.15-3.45 2.32-5.07 3.63v-8.52zm529.21 4.1c2.87-4.76 9.15-3.49 13.85-3.84 1.78 5 4.38 10.8 1.26 15.84-2.54 4.76-8.6 3.86-13.12 4.5-2.41-5.03-5.26-11.17-1.99-16.5zm532.4.25c2.74-4.95 9.2-3.75 13.94-4.14 1.91 5.08 4.45 11.19 1.06 16.24-2.75 4.43-8.62 3.49-13.06 4.18-2.16-5.04-4.9-10.96-1.94-16.28zm-645.24.77c1.69-4.28 8.71-4.54 11-.67.77 3.17.32 6.49.4 9.72-1.7.07-3.4.14-5.09.23-.09-.58-.26-1.72-.35-2.29.87-1.66 1.83-3.29 2.44-5.07-1.1-2.12-3.83-2.43-5.39-.63.14 2.72 1.42 5.2 2.32 7.73l-5.62.51c.03-3.18-.28-6.4.29-9.53zm532.64-.3c1.93-3.88 8.29-4.14 10.72-.64 1.06 3.24.55 6.74.67 10.1-1.99-.03-3.98-.06-5.95-.08.99-2.89 1.98-5.78 2.87-8.71-2.18-.23-4.38-.05-5.97 1.63 1.15 2.32 2.11 4.74 2.82 7.24-1.95.05-3.88.1-5.81.14.12-3.22-.23-6.54.65-9.68zm-696.23 1.76c3.63-.89 7.28-1.71 10.95-2.45.2 4.24-.46 8.54.53 12.73.54 3.2 1.67 6.85-.27 9.81-3.09 4.68-10.7 5.98-14.93 2.15-4.48-4.42-1.84-12.5-7.45-16.12-.28-1.19-.54-2.39-.79-3.57 3.71-.85 7.45-1.63 11.2-2.33-.48 5.62-.54 11.34 1.42 16.72 1.52.03 3.05.06 4.57.1-.2-3.24.02-6.66-1.48-9.65-1.17-2.51-2.56-4.9-3.75-7.39zm533.15.05c3.62-.92 7.27-1.75 10.94-2.52.22 2.11.35 4.25.09 6.36-.62 4.52 1.67 8.84 1.26 13.36-1.16 7.71-13.63 10.06-17.36 3.13-1.83-3.89-2.31-8.23-3.27-12.38l-2.64-1.04c-.33-1.46-.65-2.9-.96-4.35 3.73-.89 7.48-1.7 11.26-2.4-.3 5.59-.68 11.28 1.31 16.66 1.56.08 3.12.15 4.7.24-.11-3.3 0-6.79-1.57-9.79-1.2-2.46-2.57-4.82-3.76-7.27zm532.78-.31c3.63-.75 7.27-1.42 10.94-2.04-.01 4.2-.57 8.44.31 12.6.65 3.57 1.69 7.85-1.02 10.88-3.92 4.14-12.18 4.84-15.39-.51-2.05-3.84-2.42-8.27-3.33-12.45-.97-.49-1.92-.96-2.86-1.43-.37-1.32-.73-2.64-1.07-3.95 3.7-1.02 7.43-1.95 11.19-2.77.18 5.82-.36 11.75 1.78 17.32 1.39-.26 2.8-.48 4.2-.85 1.55-6.19-3.01-11.25-4.75-16.8z"/><path fill="transparent" d="M0 480.68c1.62-1.31 3.34-2.48 5.07-3.63-1.54 3.11-3.35 6.07-5.07 9.08v-5.45z"/><path fill="#57267e" d="M127.17 478.31c1.7-.21 3.37.07 4.97.68.55 1.89 1.14 3.78 1.8 5.64-1.49 1.22-2.96 2.48-4.45 3.7-.07 1.7-.13 3.39-.2 5.09-1.65-.41-3.29-.81-4.93-1.22.72-1.63 1.46-3.24 2.19-4.86-.93-2.11-1.86-4.22-2.77-6.34 2.47.42 4.93.86 7.39 1.33-1.36-1.31-2.7-2.65-4-4.02z"/><path fill="transparent" d="M534.33 479.33c1.04-1 2.51-1.33 3.78-1.96-1.19 2.67-2.58 5.25-4.09 7.76-.07-1.92-.64-4.02.31-5.8z"/><path fill="#57267e" d="M660.46 478.28c1.76-.07 3.51.18 5.24.55-.02 1.16-.01 2.34 0 3.51.47.45 1.42 1.35 1.9 1.79-1.51 1.33-3.16 2.55-4.39 4.15-.79 1.61-.75 3.47-1.03 5.22-1.5-.45-2.98-.88-4.46-1.32.55-1.5 1.26-2.96 1.59-4.53-.29-2.42-1.31-4.67-2.03-6.98 2.31.58 4.64 1.18 6.95 1.8a113.99 113.99 0 0 1-3.77-4.19z"/><path fill="transparent" d="M1066.94 479.02c1.22-.61 2.52-1.03 3.82-1.49a71.55 71.55 0 0 1-4.58 7.67c.16-2.07.01-4.22.76-6.18z"/><path fill="#57267e" d="M1192.46 478.93c2.87-2.57 5.28.52 7.19 2.44-2.68.17-5.08-.92-7.19-2.44z"/><path fill="transparent" d="M2.94 487.36c1.14-2.4 2.48-4.69 4.03-6.83-.04 2.97-1.13 5.66-4.03 6.83zm533.25.05c1.11-2.39 2.38-4.71 3.84-6.91.09 2.99-.97 5.68-3.84 6.91zm532.66.02c.95-2.45 2.26-4.74 3.86-6.83-.11 2.86-1.19 5.5-3.86 6.83z"/><path fill="#57267e" d="M1190.05 481.08c3.44.3 6.86 1.04 10.04 2.43-1.15 2.02-3.05 3.41-4.79 4.86-.09 1.67-.16 3.33-.21 5.01-1.64-.39-3.24-.77-4.85-1.15 2.23-3.57.95-7.47-.19-11.15zm-836.7 36.08c2.66-5.36 7.1-9.56 10.47-14.47 4.1.67 8.18 1.43 12.23 2.31-.54 1.92-1.1 3.84-1.65 5.76-1.81-1.08-3.64-2.12-5.45-3.2.76 1.7 1.53 3.41 2.31 5.12l-2.93 1.16c-.1.59-.31 1.76-.41 2.34l4.08-1.83c.68.13 2.02.37 2.7.49-.39 1.97-.77 3.95-1.15 5.94-3.95-.5-7.96-.79-11.74-2.06-.11-1.76.93-3.28 1.54-4.85-.9.06-1.81.12-2.7.19.1 1.43.19 2.86.29 4.31-2.55-.26-5.13-.47-7.59-1.21zm542.91-14.02c4.19-.21 8.26 1.04 12.35 1.79-.64 1.91-1.26 3.83-1.9 5.74-1.83-.98-3.62-1.97-5.41-2.97.66 1.35 1.36 2.69 1.89 4.13-1.02 1.52-2.23 2.91-3.41 4.31 1.66-.6 3.36-1.17 5.05-1.75.63.14 1.89.41 2.53.55-.49 1.96-.96 3.93-1.44 5.91-4.06-.55-8.1-1.24-12.1-2.11.65-1.62 1.31-3.23 1.98-4.83-.6.03-1.79.08-2.38.11-.09 1.44-.16 2.89-.23 4.35-2.29-.26-4.57-.52-6.84-.77-.02-.57-.05-1.71-.06-2.28 3.73-3.73 6.22-8.49 9.97-12.18z"/><path fill="transparent" d="M896.26 508.36c1.68-.09 1.56 2.66-.03 2.66-1.7.08-1.58-2.67.03-2.66z"/><path fill="#57267e" d="M32.74 524.89c4-1.24 8.07-2.24 12.19-2.99.42 1.85.84 3.71 1.25 5.58-2.12-.07-4.24-.15-6.36-.25 1.18 1.14 2.41 2.23 3.44 3.52-.6 1.19-1.29 2.35-1.98 3.51.67.22 1.34.44 2.02.67.55-1.06 1.11-2.11 1.67-3.15.83 0 2.48-.01 3.31-.01.07 4 .32 7.98.68 11.96-2.81-.5-4.32-2.5-4.8-5.19-2.5.59-5 1.17-7.5 1.77 0-2.89.23-5.82-.32-8.67-.67-2.5-2.28-4.58-3.6-6.75zm533.2-.01c3.98-1.19 8.01-2.2 12.09-3.02.46 1.85.91 3.69 1.38 5.55-2.25 0-4.5-.01-6.74-.01 1.26.86 2.52 1.73 3.8 2.6-.6 1.83-1.16 3.68-1.74 5.52 1.24-1.16 2.48-2.31 3.72-3.48l3.01-.4c.05 4.07.25 8.15.66 12.2-2.7-.64-4.28-2.62-4.9-5.23-2.52.52-5.02 1.06-7.52 1.6.16-2.91.62-5.9-.19-8.75-.83-2.38-2.3-4.44-3.57-6.58zm532.53-.07c4.02-1.18 8.11-2.16 12.24-2.89.37 1.83.75 3.67 1.14 5.52-2.1-.04-4.2-.1-6.29-.19 1.09.99 2.23 1.93 3.24 3.05-.43 1.6-1.1 3.14-1.68 4.7.41-.15 1.25-.44 1.67-.58 1.42-1.56 3.23-2.63 5.26-3.23-.11 4.17-.15 8.37.82 12.45-2.7-.44-4.46-2.3-5.49-4.73-2.38.35-4.75.73-7.12 1.11.1-2.41.42-4.84.07-7.23-.59-2.95-2.39-5.43-3.86-7.98zm-671.96 3.69c2.8.64 5.6 1.31 8.39 2.02-1.12 2.21-2.23 4.42-3.3 6.65 1.53-1.19 3.06-2.37 4.59-3.55 1.23 1.87 2.46 3.75 3.71 5.63-.36-2.54-.74-5.08-1.1-7.62 3.07.58 6.13 1.25 9.17 2.02-3.18 4.51-6.16 9.18-8.43 14.23-1.18-.23-2.36-.45-3.53-.67-.46-2.02-.94-4.05-1.4-6.06-1.3 1.58-2.6 3.15-3.89 4.75-1-.28-2-.54-3-.77.14-5.58-.33-11.13-1.21-16.63zm533.69 16.46c.54-5.4-1.32-10.86-.48-16.15 2.53.25 5.01.86 7.5 1.42-.95 2.34-1.9 4.68-2.82 7.03 1.36-1.26 2.73-2.52 4.11-3.78 1.16 1.8 2.28 3.61 3.41 5.43.17-.62.34-1.23.54-1.83-.41-1.86-.79-3.72-1.15-5.58 3.02.64 6.03 1.34 9.04 2.08-3.13 4.84-6.24 9.69-8.71 14.91-3.06-1.03-3.88-4.09-4.69-6.85l-3.96 4.35c-.94-.37-1.87-.71-2.79-1.03zm-832.61 2.06c-1.32-8.76 11.28-15.38 17.76-9.4 2.35 2.15 1.97 5.61 2.39 8.49 2.45 1.49 6.31 2.39 6.59 5.82.13 3.52-1.43 7.07-3.9 9.55-2.01 1.01-3.76-1.62-5.54-2.35.23-1.51.47-3.01.7-4.52-1.81-1.2-3.81-2.22-5.27-3.87-.61-2.27-.65-4.64-1.2-6.91-1.06-.47-2.14-.88-3.24-1.22-.07 1.91-.29 3.97.73 5.72 2.57 4.92 5.54 9.63 7.97 14.65-2.9 1.73-5.86 3.36-8.88 4.87-1.04-3.49-1.45-7.21-3.23-10.44-1.79-3.38-4.25-6.53-4.88-10.39zm533.75-4.68c2.74-5.76 11.12-9.41 16.61-5.22 2.94 1.99 2.67 5.81 2.91 8.94 2.28 1.38 5.47 2.18 6.5 4.93 1 4.33-2.01 8.1-4.2 11.52-1.7-1.21-3.4-2.41-5.08-3.6.21-1.45.43-2.88.65-4.31-1.82-1.24-3.8-2.3-5.28-3.95-.85-2.52-.75-5.24-.99-7.85-1.44.64-2.89 1.28-4.32 1.93 2.9 6.22 6.55 12.04 9.58 18.19-2.77 1.67-5.55 3.35-8.33 5-2.02-3.77-2.05-8.28-4.46-11.86-2.42-4.06-5.66-8.84-3.59-13.72zm531.91 4.54c-1.16-8.76 11.65-15.37 17.95-9.06 2.25 2.16 1.87 5.54 2.3 8.37 2.5 1.41 6.32 2.39 6.56 5.84.26 3.93-2.36 7.19-4.2 10.42-1.77-1.12-3.54-2.24-5.3-3.37.2-1.42.42-2.84.65-4.26-1.75-1.27-3.64-2.41-5.07-4.04-.99-2.48-.75-5.23-1.38-7.79-1.06.15-2.09.4-3.07.77-1.03 2.16.54 4.28 1.45 6.18 2.45 4.29 4.92 8.57 7.12 13.01-2.75 1.63-5.53 3.23-8.31 4.79-.66-1.21-1.27-2.41-1.88-3.62.24-6.57-5.99-10.94-6.82-17.24zm-696.23-4.39c-1.31-1.6-2.55-3.32-2.92-5.4 1.51.67 3.04 1.39 4.54 2.1.01 1.02.03 2.06.06 3.1.47.45 1.42 1.34 1.89 1.79-1.8 1.78-4.74 3.09-4.92 5.92-.15 1.02-.26 2.04-.34 3.08-1.55-.25-3.1-.5-4.64-.73.56-1.58 1.31-3.11 1.6-4.76-.29-2.43-1.32-4.69-2.04-7.01 2.26.59 4.54 1.19 6.77 1.91zm529.32-4.85c1.44.32 2.93.73 4.39 1.14.65 1.88 1.32 3.78 2.02 5.66-1.5 1.25-2.98 2.51-4.46 3.76-.08 1.7-.16 3.39-.21 5.1-1.64-.39-3.27-.77-4.89-1.14 2.08-3.4 1.28-7.11-.18-10.55 2.11-1.17 4.6.26 6.8.58-1.37-1.34-2.75-2.75-3.47-4.55zm-807.39 3.49c2-.07 3.99-.14 5.99-.22.22.48.66 1.44.88 1.93-1.28.93-2.57 1.86-3.85 2.81-1.44-.94-2.87-1.86-4.31-2.79.33-.43.97-1.3 1.29-1.73zm532.97-.02l6.22-.24c.2.52.59 1.55.79 2.07-1.28.9-2.56 1.8-3.82 2.72-1.38-.92-2.74-1.83-4.1-2.73.23-.46.68-1.37.91-1.82zm530.88.84c2.44-.52 4.91-.98 7.38-1.4.38.68 1.14 2.04 1.53 2.72-1.52.72-3 1.52-4.58 2-1.57-.96-2.95-2.17-4.33-3.32zm-1066.76 4.56c3.44.09 7.2-.62 10.37 1.06 1.93 2.03.08 4.98-.09 7.38.91 1.86 1.84 3.72 2.77 5.59-4.33.03-8.66-.09-12.98-.24 1.48-4.52 1.29-9.28-.07-13.79zm533.2 13.75c1.75-4.53 1.27-9.39.12-13.98 3.13.15 6.35-.06 9.4.85 3.16 1.41 1.08 5.25.68 7.69.99 1.78 2.03 3.59 2.47 5.62-1.96.16-3.92.15-5.87.15-.31-2.19-.26-4.58-1.82-6.32.22 2.07.54 4.14.93 6.2-1.98-.08-3.95-.14-5.91-.21zm532.52-13.81c3.48.18 7.38-.61 10.52 1.28 1.61 2.14.04 4.97-.13 7.36.88 1.78 1.72 3.57 2.64 5.35-4.32.12-8.63.04-12.93-.09 1.41-4.56 1.25-9.35-.1-13.9z"/><path fill="transparent" d="M221.06 550.06c1.61-.57 2.18-.03 1.7 1.62-1.62.55-2.18.01-1.7-1.62zm533.19-.03c1.62-.53 2.17.03 1.65 1.66-1.64.51-2.19-.04-1.65-1.66zm532.15.06c.96-1.57 3.45.17 2.32 1.62-1 1.55-3.49-.18-2.32-1.62z"/><path fill="#57267e" d="M327.62 555.34c1.4-.74 2.77-1.58 4.29-2.04 1.27.43 2.46 1.06 3.67 1.65a188.31 188.31 0 0 1-5.7 6.64c-2.63-.97-5.26-1.94-7.88-2.92.6-1.46 1.2-2.91 1.81-4.36 1.27.34 2.54.69 3.81 1.03zm533.53.18c1.24-.98 2.49-1.97 3.75-2.94.9 1.07 1.81 2.16 2.73 3.25-1.55 1.93-3.08 3.88-4.61 5.83-2.67-1.05-5.32-2.12-7.96-3.23.62-1.35 1.24-2.69 1.87-4.02 1.39.36 2.81.74 4.22 1.11z"/><path fill="transparent" d="M221.21 555.52c1.81-1.1 3 2.75.94 2.97-1.35-.11-1.93-2.1-.94-2.97zm1065.77.03c1.57-.87 2.71 1.89 1.39 2.78-1.59.86-2.74-1.9-1.39-2.78z"/><path fill="#57267e" d="M321.55 564.96c5.61-1.23 11.24-2.35 16.87-3.51.63 1.48 1.26 2.97 1.89 4.47-2.37 4.69-4.79 9.36-7.11 14.08 1.33-.32 2.67-.63 4.01-.94.24-1.33.49-2.66.74-3.97 1.36-.12 2.73-.22 4.1-.33.54 2.88 1.08 5.75 1.64 8.63-3.97 1.09-8 1.9-12.06 2.55-.04-6.31-.07-12.61-.09-18.91-2.39 2.3-4.97 4.4-7.8 6.13-.81-2.71-1.52-5.45-2.19-8.2zm533.24.04c5.43-1.27 10.87-2.48 16.35-3.5.53 1.51 1.06 3.03 1.61 4.56-2.37 4.63-4.79 9.24-6.93 13.99 1.26-.38 2.55-.73 3.83-1.1.25-1.27.52-2.54.79-3.79 1.33-.22 2.67-.42 4.01-.63.61 3.01 1.15 6.04 1.56 9.09-5.61 1.17-11.2 2.44-16.83 3.48-.59-1.7-1.18-3.4-1.75-5.09 2.52-4.56 5.09-9.11 6.98-13.99-.66.16-1.96.46-2.62.61-.44 1.18-.87 2.36-1.3 3.55-1.36-.15-2.74-.18-4.04-.54-.81-2.15-1.21-4.41-1.66-6.64z"/><path fill="#57267e" d="M324.89 581.03c1.56-3.99 3.98-7.56 6.23-11.17.35 5.4.35 10.83.23 16.25-1.84.34-3.68.69-5.52 1.05-.4-2-1.76-4.08-.94-6.13zm197.37 6.28c4.01-.79 5.86 5.98 1.7 6.92-4.64 1.82-6.59-6.45-1.7-6.92zm532.1.06c2.49-.62 5.02 1.85 4.37 4.37-.38 3.06-5.1 3.58-6.38.91-1.37-1.86-.24-4.83 2.01-5.28zm-541.96 2.02c2.37-1.22 5.71.96 5.1 3.7.24 3.15-4.75 4.07-6.19 1.58-1.15-1.64-.87-4.41 1.09-5.28zm532.85-.16c2.76-1.07 5.89 1.97 4.65 4.75-.27 1.78-2.33 2.15-3.81 2.09-3.37-.26-4.06-5.81-.84-6.84zm-782.79 5.3c2.81-4.78 9.08-3.59 13.76-3.99 1.88 5.02 4.56 10.9 1.31 15.96-2.57 4.77-8.7 3.76-13.23 4.41-2.22-5.03-4.97-11.12-1.84-16.38zm533.17.04c2.82-4.8 9.12-3.63 13.82-4.06 1.86 5.05 4.5 11.03 1.23 16.11-2.6 4.62-8.6 3.59-13.04 4.38-2.43-5-5.13-11.1-2.01-16.43zm531.22 3.45c.46-3.6 3.85-5.59 6.15-8.01v22.14c-1-.64-1.99-1.25-2.98-1.84-1.91-3.79-3.95-7.92-3.17-12.29zm-1177.26-2.46c1.67-4.36 9.23-4.66 11.15-.37.45 3.14.21 6.34.29 9.51-1.87-.07-3.75-.11-5.59-.45.7-2.84 1.78-5.56 2.74-8.32-1.82.29-5.19-.99-5.57 1.7.53 2.26 1.63 4.35 2.1 6.64-1.82.38-3.66.6-5.5.86.06-3.19-.21-6.43.38-9.57zm533.43-.53c2.12-3.85 8.9-3.93 10.9.07.42 3.11.18 6.26.25 9.39-1.87.11-3.74.22-5.6.34.84-3.07 1.78-6.1 2.66-9.14-2.13.07-4.19.56-6.05 1.58.96 2.28 2.8 4.49 2.46 7.12-1.77.34-3.57.49-5.35.68.16-3.34-.23-6.8.73-10.04zm532.38.26c1.83-4 8.49-4.22 10.87-.63.94 3.27.35 6.77.38 10.13-1.94-.07-3.87-.16-5.79-.22.84-2.28 1.89-4.49 2.5-6.84-.62-1.18-1.57-2.23-2.28-3.29-.94.94-1.82 1.94-2.62 3 .28 2.5 1.26 4.85 1.99 7.26-1.86.09-3.7.19-5.53.3.14-3.24-.15-6.52.48-9.71zm-695.83 1.68c3.65-.94 7.33-1.74 11.05-2.4.1 4.16-.46 8.36.38 12.48.4 2.53 1.09 5.11.68 7.7-1.65 7.27-13.5 9.25-17.19 2.65-1.85-3.69-2.23-7.89-3.35-11.82-1.87-1.52-3.2-3.51-4.14-5.71 3.77-1.02 7.55-2.38 11.51-2.36.79 5.1-1.04 10.56 1.55 15.39.74 1.91 3.07 1.34 4.5.62 1.27-6.08-2.52-11.36-4.99-16.55zm532.5-.12c3.72-.87 7.48-1.6 11.27-2.13-.05 3.76-.9 7.56-.04 11.29.63 3.83 2.18 8.32-.5 11.74-3.33 3.95-10.09 4.97-14.2 1.7-4.92-4.23-1.92-12.66-7.6-16.23-.33-1.25-.62-2.49-.9-3.73 3.77-.88 7.57-1.62 11.4-2.25-.34 5.13-1.3 10.55.97 15.41.73 2.36 4.88 1.94 4.91-.59.4-5.67-3.25-10.26-5.31-15.21z"/><path fill="transparent" d="M267.55 597.41c1.12-.91 2.54-1.32 3.82-1.91a59.486 59.486 0 0 1-4.29 7.88c.09-2 .08-4.02.47-5.97z"/><path fill="#57267e" d="M393.59 596.75c2.38-1.18 4.66-.16 6.44 1.49-.56.68-1.16 1.33-1.79 1.94-1.67-.98-3.17-2.22-4.65-3.43z"/><path fill="transparent" d="M800.72 597.6c.8-1.28 2.6-1.35 3.81-2.11a51.811 51.811 0 0 1-4.35 7.94c.1-1.95-.03-3.95.54-5.83zm-527.82 1.14c-.01 2.7-.21 5.62-3.1 6.8.87-2.33 1.93-4.6 3.1-6.8z"/><path fill="#57267e" d="M390.88 598.99c3.36.71 6.76 1.32 9.99 2.54-.15 2.4-2.96 3.37-4.47 4.91a430 430 0 0 0-.24 5.13c-1.63-.41-3.25-.8-4.86-1.2 2.15-3.66 1.08-7.71-.42-11.38z"/><path fill="transparent" d="M802.72 605.47c1.07-2.37 2.38-4.62 3.92-6.72-.2 2.81-.99 5.67-3.92 6.72z"/><path fill="#57267e" d="M923.42 598.88c1.57.35 3.17.73 4.77 1.1.05.77.16 2.31.22 3.08.16-.68.49-2.04.66-2.73 1.69.45 3.37.9 5.09 1.37-3.04 2.5-6.4 5.36-5.71 9.76-1.59-.36-3.16-.71-4.73-1.05.58-1.53 1.36-3 1.66-4.61-.26-2.4-1.26-4.64-1.96-6.92zM97.26 621.31c4.05-.17 7.99 1.08 11.94 1.85-.38 1.73-.74 3.47-1.26 5.18-2.08-.56-4.04-1.49-5.98-2.43.83 1.52 1.62 3.05 2.43 4.58-1.37 1.14-2.6 2.45-3.97 3.61 2.53-.5 5.06-1.03 7.59-1.51-.4 2.14-.8 4.28-1.21 6.42-4.09-.51-8.17-1.18-12.21-1.99.64-1.69 1.29-3.37 1.95-5.05-.57.02-1.7.04-2.26.06l-.21 4.55c-2.32-.25-4.65-.43-6.92-.93-.83-2.08 1.38-3.5 2.36-5.06 2.73-2.96 4.53-6.8 7.75-9.28zm532.86-.33c4.1.59 8.19 1.28 12.25 2.09-.37 1.88-.75 3.77-1.12 5.66-2.05-.95-4.07-1.92-6.11-2.87.86 1.67 1.69 3.35 2.56 5.03-1.19.56-2.38 1.13-3.55 1.71.13.39.4 1.18.53 1.57 2.15-.61 4.32-1.2 6.5-1.74-.39 2.19-.78 4.4-1.18 6.61-4.12-.51-8.21-1.22-12.25-2.13.62-1.66 1.26-3.3 1.9-4.95-.57.02-1.72.05-2.3.07-.06 1.51-.12 3.03-.17 4.56-2.56-.31-5.12-.64-7.67-.98 2.98-5.27 7.15-9.7 10.61-14.63zm530.94 2.06c.74-.85 1.57-2 2.89-1.75 3.69.06 7.27 1.13 10.86 1.93-.29 1.82-.61 3.64-.88 5.48-2.1-.91-4.17-1.84-6.25-2.76.84 1.41 1.7 2.83 2.56 4.26-1.18.96-2.36 1.92-3.52 2.89.24.34.73 1.01.98 1.35 1.78-.94 3.58-2.01 5.71-1.81-.13 2.21-.54 4.39-.97 6.56-3.98-.68-7.95-1.36-11.9-2.08.39-1.72.81-3.42 1.23-5.13-.51.01-1.54.01-2.06.01-.07 1.62-.14 3.25-.19 4.88-2.49-.47-4.96-.9-7.35-1.68 2.55-4.33 5.93-8.1 8.89-12.15z"/><path fill="transparent" d="M97.09 626.41c1.7-.13 1.58 2.63 0 2.67-1.7.12-1.58-2.64 0-2.67zm533.17.16c1.5-.1 1.37 2.36-.02 2.4-1.52.08-1.39-2.38.02-2.4z"/><path fill="#57267e" d="M299.28 642.95c3.93-1.03 7.88-2.02 11.84-2.96.55 1.89 1.1 3.77 1.65 5.68-2.29-.12-4.58-.24-6.87-.39 1.33 1.15 2.71 2.23 4.04 3.39-.76 1.53-1.48 3.08-2.23 4.63 2.21-1.45 4.46-2.85 6.77-4.16.23 4.16.23 8.37 1.15 12.46-2.79-.13-4.48-2-5.48-4.44-2.32.37-4.63.77-6.98.91-.11-2.69.3-5.43-.35-8.07-.75-2.55-2.27-4.76-3.54-7.05zm533.17.04c4-1.14 8.05-2.11 12.14-2.89.4 1.82.79 3.64 1.21 5.47-2.2-.01-4.39-.03-6.57-.04 1.33 1.05 2.69 2.12 4.05 3.19-.85 1.36-1.69 2.74-2.51 4.12.58-.03 1.76-.11 2.34-.15.6-.98 1.21-1.95 1.83-2.91.77.07 2.3.22 3.06.3-.17 3.9-.06 7.83.81 11.66-2.72-.36-4.5-2.18-5.59-4.58-2.19.4-4.37.83-6.58 1.04-.44-2.73-.11-5.52-.62-8.23-.74-2.54-2.28-4.72-3.57-6.98zm-672.62 3.87c2.74.52 5.49 1.07 8.23 1.64-1.06 2.22-2.14 4.43-3.27 6.62 1.65-.94 3.13-2.61 5.14-2.65 1.07 1.49 1.96 3.11 2.89 4.7.09-.52.28-1.55.37-2.06-.44-1.64-.88-3.27-1.16-4.92 3.08 0 6.07.8 9.03 1.56-3.11 4.81-6 9.75-8.82 14.74-.69-.26-2.08-.77-2.77-1.03-.53-1.89-1.06-3.78-1.6-5.67-1.33 1.41-2.67 2.81-4 4.23-.67-.08-2.02-.23-2.69-.31-.2-5.64-.46-11.28-1.35-16.85zm533.3.87c2.41-1.37 5.31.19 7.74.88-.41 2.33-1.68 4.37-2.84 6.39 1.74-1.03 3.51-2.04 5.29-3.02.83 1.79 1.67 3.59 2.51 5.4.14-.55.41-1.64.55-2.19-.39-1.84-.77-3.68-1.09-5.52 3.06.69 6.1 1.47 9.14 2.3-3.3 4.47-6.24 9.19-8.52 14.26-1.09-.28-2.17-.53-3.25-.77-.61-1.91-1.22-3.8-1.82-5.7-1.43 1.64-2.85 3.29-4.26 4.94-1.04-1.05-2.62-1.9-2.41-3.62-.23-4.46-.64-8.91-1.04-13.35zm532.85-.94c2.58.61 5.17 1.22 7.76 1.84-1.11 2.39-2.19 4.8-3.23 7.23 1.43-1.29 2.81-2.65 4.39-3.77 1.6 1.51 2.72 3.43 3.93 5.27-.36-2.52-.68-5.04-.95-7.55 3.11.46 6.15 1.35 9.04 2.61-3.61 4.16-6.21 9.02-8.75 13.88-.72-.18-2.16-.52-2.88-.69-.61-1.94-1.23-3.87-1.82-5.8-1.28 1.42-2.58 2.82-3.83 4.25-1-.3-1.99-.57-2.98-.8.14-4.84.13-9.74-1.15-14.44.12-.51.35-1.52.47-2.03zm-831.79 17.2c.14-7.94 11.11-13.57 17.44-8.54 2.82 2.05 2.54 5.83 2.93 8.93 2.46 1.45 6.11 2.38 6.59 5.68.32 3.98-2.36 7.31-4.19 10.61-1.82-1.18-3.62-2.36-5.43-3.54.26-1.41.54-2.8.81-4.2-2.17-1.76-5.73-2.93-5.81-6.18-.24-1.9-.24-3.81-.3-5.7-1.41.45-3.58.34-3.87 2.23 0 1.7 1.02 3.18 1.74 4.67 2.46 4.35 4.95 8.69 7.23 13.15a217.56 217.56 0 0 1-8.38 4.87c-.63-1.25-1.25-2.47-1.85-3.71.25-6.91-6.69-11.46-6.91-18.27zm532.97-2.79c2.36-6.37 11.61-10.3 17.19-5.62 2.61 2.07 2.29 5.64 2.54 8.62 2.5 1.54 6.34 2.54 6.71 5.98.28 4-2.34 7.36-4.38 10.56-1.72-1.23-3.42-2.45-5.12-3.67.2-1.46.41-2.91.63-4.35-1.82-1.26-3.96-2.21-5.3-4.02-.74-2.58-.76-5.29-1.01-7.93-1.38.75-4.04 1.06-3.27 3.25 1.81 6.15 6.1 11.24 8.67 17.1a637.78 637.78 0 0 1-8.38 4.99c-2.06-3.85-2.12-8.44-4.59-12.09-2.25-3.83-5.24-8.17-3.69-12.82zm-699.97-6.17c2.63.92 4.87 2.6 4.99 5.58.53.56 1.08 1.12 1.63 1.7-3.11 2.13-5.57 5.03-5.32 9.04-1.55-.36-3.09-.71-4.63-1.05 2.5-3.64 1.26-7.75-.3-11.46 2.12.54 4.24 1.1 6.34 1.72-1.15-1.72-2.26-3.49-2.71-5.53zm533.14 1.56c1.77-1.31 3.54.37 5.24.96-.31.94-.62 1.89-.91 2.84.81.71 1.65 1.43 2.5 2.15-1.64 1.23-3.27 2.47-4.89 3.72-.07 1.73-.14 3.46-.19 5.21-1.67-.39-3.32-.77-4.97-1.15 2.42-3.66 1.13-7.79-.4-11.51 2.2.59 4.4 1.2 6.59 1.84-1.03-1.33-2.05-2.67-2.97-4.06zm532.78-.73c2.54-.13 4.27 1.88 5.97 3.45-2.39.56-6.67-.09-5.97-3.45zm-809.24 4.65c2.78-1.41 5.93-1.77 8.91-.71-1.12 1.49-2.34 2.91-3.55 4.33-1.81-1.19-3.59-2.4-5.36-3.62zm532.83-.44c2.36-.7 4.83-.93 7.28-1.1.32.56.96 1.7 1.28 2.27-1.42.8-2.82 1.63-4.3 2.3-1.8-.62-3.12-2.03-4.26-3.47zm273.25-.83c1.43.03 2.85.23 4.3.41l.04 3.24c.46-.97.94-1.94 1.44-2.89 1.4.64 2.81 1.3 4.24 1.96-1.8 1.54-3.58 3.08-5.36 4.62-.07 1.67-.2 3.35-.25 5.04-1.61-.43-3.17-.84-4.74-1.26.54-1.4 1.16-2.76 1.6-4.18.49-2.38-2.51-4.77-1.27-6.94zm-807.14 5.37c3.62.42 8.8-1.22 11.15 2.41-.63 3.86-.5 7.71 1.37 11.24-4.05 1.11-8.33.19-12.47.16 1.54-4.51 1.29-9.29-.05-13.81zm532.65-.11c3.49.31 7.51-.5 10.58 1.58 1.29 2.22-.2 4.75-.62 7.03 1.04 1.8 2.08 3.59 3.14 5.4-2.12.14-4.23.32-6.33.23-.38-1.54-.57-3.11-.8-4.65-.31-.31-.93-.93-1.24-1.25.24 2 .49 4.01.75 6.02-1.82-.15-3.64-.29-5.45-.42 1.53-4.55 1.22-9.37-.03-13.94z"/><path fill="transparent" d="M487.94 668.18c1.63-.5 2.18.06 1.63 1.69-1.64.48-2.18-.08-1.63-1.69zm532.39.03c1.61-.54 2.17.01 1.67 1.65-1.64.52-2.2-.03-1.67-1.65z"/><path fill="#57267e" d="M61.72 673.64l3.44-3.02c1.14 1.1 2.27 2.21 3.4 3.32-1.76 1.96-3.52 3.92-5.29 5.87-2.52-.96-5.04-1.92-7.56-2.87.39-1.41.78-2.82 1.17-4.21 1.62.29 3.23.6 4.84.91zm533.21.14c1.11-1.06 2.22-2.13 3.35-3.18 1.16 1.11 2.31 2.22 3.48 3.34-1.59 1.84-3.11 3.78-5.01 5.33-2.83 0-5.39-1.45-7.99-2.38.62-1.48 1.25-2.96 1.89-4.43 1.42.43 2.85.88 4.28 1.32zm527.83-.84c3.13.96 6.08.08 8.42-2.13.99 1.05 1.99 2.1 3 3.17-1.67 1.94-3.35 3.88-5.02 5.82-2.62-.95-5.22-1.9-7.82-2.85.45-1.35.93-2.68 1.42-4.01z"/><path fill="transparent" d="M487.98 673.65c1.54-.92 2.8 1.79 1.47 2.71-1.55.91-2.82-1.8-1.47-2.71z"/><path fill="#57267e" d="M55.32 683.03c5.53-1.12 11.04-2.32 16.59-3.29.53 1.44 1.06 2.88 1.59 4.33-2.25 4.64-4.67 9.2-6.86 13.87 1.23-.16 2.45-.32 3.68-.47.34-1.41.68-2.81 1.03-4.19 1.29-.15 2.58-.3 3.87-.43.57 2.95 1.12 5.91 1.65 8.88-5.75 1.42-11.56 2.57-17.36 3.76-.54-2.19-2.03-4.59-.77-6.8 2.06-4.44 4.8-8.55 6.43-13.19-2.65 2.05-5.19 4.32-8.38 5.51-.52-2.65-1.01-5.32-1.47-7.98zm533.2.01c5.62-1.14 11.23-2.33 16.88-3.39 2.69 6.79-3.45 12.32-5.63 18.31 1.22-.17 2.46-.32 3.7-.47.33-1.38.67-2.75 1.02-4.11 1.25-.23 2.5-.47 3.77-.7.65 3.01 1.26 6.04 1.81 9.08-5.78 1.38-11.61 2.56-17.44 3.73-.44-2.13-1.89-4.4-.83-6.54 2.02-4.39 4.65-8.47 6.48-12.94-.63.18-1.91.54-2.55.72-.63 1.12-1.25 2.25-1.86 3.38-1.36.06-2.72.14-4.08.22-.43-2.43-.86-4.86-1.27-7.29zm532.34.21c5.73-1.41 11.5-2.69 17.36-3.47 2 6.86-3.71 12.32-6.04 18.28 1.31-.26 2.64-.51 3.98-.75.3-1.36.61-2.73.94-4.07 1.29-.1 2.6-.19 3.92-.28.52 2.99.99 6 1.41 9.01-5.69 1.1-11.37 2.27-17.02 3.58-.69-2.24-2.34-4.69-.93-6.98 2.04-4.3 4.58-8.35 6.5-12.71-.88.35-1.75.7-2.6 1.07-1.39 2-3.35 3.39-5.65 4.16-.66-2.61-1.27-5.23-1.87-7.84zm-866.71 22.8c2.09-1.47 5.52.34 5.33 2.95.72 2.89-3.2 4.59-5.3 3.09-2.11-1.2-2.23-4.9-.03-6.04zm533-.14c2.62-1.31 5.99.79 5.54 3.79.02 3.32-5.3 3.98-6.49 1.11-.98-1.66-.22-3.59.95-4.9zm532.23.49c2.39-2.3 6.63.35 5.88 3.52-.25 2.51-3.26 3.09-5.26 2.41-1.79-1.38-2.42-4.31-.62-5.93zm-1072.15.95c2.54-.11 4.32 2.78 3.34 5.08-.89 2.46-5.04 2.61-6.2.23-1.63-2.05.21-5.58 2.86-5.31zm532.99.03c4.33-.71 5.38 6.98.76 6.94-4.45 1.03-5.42-7.25-.76-6.94zm530.8.35c3.99-2.37 7.84 4.04 3.83 6.25-3.96 2.26-7.3-3.73-3.83-6.25zM0 709.72c3.29-.48 6.61-.63 9.92-.8 1.84 5.22 4.45 11.59.7 16.61-2.33 3.52-6.95 3.01-10.62 3.18v-6.17c1.77-3.05 3.62-6.05 5.08-9.25-1.78 1.31-3.49 2.72-5.08 4.27v-7.84zm529.4 2.8c3-4.52 8.99-3.24 13.63-3.46 1.99 5 4.47 11.04 1.07 16.04-2.69 4.48-8.55 3.36-12.97 4.03-2.38-5.06-5.29-11.37-1.73-16.61zm532.72-.4c3.25-4.08 8.99-2.81 13.56-3.08 1.73 4.96 4.19 10.79 1.13 15.76-2.57 4.71-8.65 3.62-13.12 4.5-2.56-5.2-5.24-11.81-1.57-17.18zm-645.69 1.42c1.9-3.92 8.38-4.13 10.83-.69.95 3.23.37 6.7.47 10.03-1.61.09-3.22.17-4.83.28l-.72-2.08c.78-2.17 3.73-4.71 1.53-6.86-1.51-.14-3.7-.73-4.27 1.2.25 2.63 1.37 5.07 2.17 7.57-1.89.05-3.76.12-5.63.18.12-3.21-.19-6.48.45-9.63zm532.67-.35c2.22-3.63 8.65-3.74 10.84-.02.56 3.28.21 6.64.25 9.96-1.89-.08-3.77-.16-5.63-.22.93-2.97 1.85-5.94 2.63-8.94-1.65.14-3.28.22-4.88.53-.82 2.89 1.13 5.64 1.9 8.36-1.98.08-3.94.16-5.89.25.16-3.31-.24-6.73.78-9.92zm-695.25 1.93c3.22-1.35 6.75-1.6 10.17-2.14-.18 3.99-.77 8.04.15 11.98.68 3.74 2.03 8.2-.87 11.37-3.74 3.94-11.34 4.87-14.96.28-2.46-3.73-2.66-8.37-3.91-12.55-1.86-1.63-3.24-3.68-4.17-5.95 3.83-1.02 7.7-1.94 11.58-2.78.22 5.76-1.3 12.35 2.57 17.27 1.28-.04 3.16-.14 3.59-1.61.35-4.19-1.01-8.29-3.32-11.74-.5-1.24-2.13-2.9-.83-4.13zm532.28-.12c3.68-.76 7.38-1.45 11.1-2.04-.03 2.38-.21 4.76-.35 7.14-.23 4.35 1.89 8.54 1.27 12.9-1.64 7.42-13.94 9.33-17.41 2.34-1.68-3.73-2.2-7.83-3.1-11.78-.95-.56-1.89-1.11-2.81-1.65-.3-1.33-.59-2.65-.87-3.96 3.78-1.02 7.61-1.86 11.48-2.44-.36 5.11-1.35 10.52.96 15.36.38 1.94 3.18 2.25 4.31.79 1.2-1.27.43-3.2.35-4.71-.51-4.41-3.77-7.75-4.93-11.95zm532.43.14c3.63-.85 7.29-1.59 10.97-2.26.15 4.38-.41 8.82.51 13.15.57 3.3 1.52 7.21-.87 10.05-3.59 4.17-11.21 5.13-15 .75-2.56-3.73-2.76-8.46-3.98-12.69-1.97-1.61-3.32-3.75-4.11-6.14 3.83-.96 7.68-1.83 11.55-2.64.25 5.21-1.07 10.77 1.4 15.65.78 2.15 3.27 1.13 4.95 1.17.16-6.22-2.64-11.69-5.42-17.04z"/><path fill="transparent" d="M0 717.56c1.59-1.55 3.3-2.96 5.08-4.27-1.46 3.2-3.31 6.2-5.08 9.25v-4.98z"/><path fill="#57267e" d="M127.48 713.88c1.88.63 3.75 1.33 5.6 2.07-.3.78-.91 2.34-1.22 3.11-1.84-1.39-3.53-2.99-4.38-5.18z"/><path fill="transparent" d="M533.91 716.78c.4-1.97 2.76-2.23 4.2-3.13a61.534 61.534 0 0 1-4 7.79c-.15-1.55-.42-3.11-.2-4.66z"/><path fill="#57267e" d="M660.1 714.67c2.15-.2 4.24.33 6.25 1.04l-1.36 3.29c-1.67-1.41-3.32-2.83-4.89-4.33z"/><path fill="transparent" d="M1066.89 715.85c1.02-.92 2.2-1.6 3.37-2.33-.83 2.89-2.18 5.61-3.99 8.02.15-1.89-.16-3.92.62-5.69zM3.06 723.57c1.14-2.35 2.42-4.62 3.86-6.8-.15 2.87-.58 5.99-3.86 6.8z"/><path fill="#57267e" d="M123.76 717.43c3.81.44 7.53 1.43 11.06 2.96-1.68 1.44-3.55 2.73-4.94 4.49-.45 1.54-.51 3.17-.69 4.77-1.6-.2-3.21-.41-4.81-.59.7-1.73 1.39-3.45 2.09-5.16-.92-2.16-1.83-4.31-2.71-6.47z"/><path fill="transparent" d="M540 716.92c-.18 1.54-.32 3.1-.68 4.63-.91.77-2.05 1.2-3.09 1.76 1.15-2.2 2.41-4.32 3.77-6.39z"/><path fill="#57267e" d="M657.88 717.23c3.39.86 6.77 1.77 10.14 2.73-1.75 1.72-3.53 3.42-5.32 5.11-.07 1.59-.13 3.19-.18 4.8-1.72-.46-3.44-.93-5.15-1.39.82-1.52 1.66-3.01 2.49-4.51-.82-1.65-1.63-3.3-2.44-4.93.11-.46.34-1.36.46-1.81z"/><path fill="transparent" d="M1068.77 722.91c1.28-2.01 2.57-4 3.88-5.98-.32 1.87-.63 3.75-.94 5.63-.73.08-2.2.26-2.94.35z"/><path fill="#57267e" d="M1189.49 717.37c3.78.5 7.49 1.43 11.13 2.59-3.13 2.49-6.17 5.42-5.88 9.8-1.58-.35-3.16-.7-4.71-1.03.73-1.57 1.45-3.15 2.19-4.72-.93-2.21-1.85-4.43-2.73-6.64zM355.57 750c2.89-3.49 5.42-7.24 8.19-10.82 4.01.68 8.01 1.38 12.01 2.14-.25 1.88-.51 3.75-.75 5.65-2-.94-3.99-1.86-5.98-2.79.77 1.93 1.53 3.87 2.29 5.82h-15.76zm532.86 0c2.62-3.36 4.41-7.45 7.82-10.14 3.95-.61 8.12.19 11.69 1.97.05 1.82-.1 3.64-.18 5.47-2.07-1.13-4.14-2.26-6.18-3.41.62 2.06 1.36 4.08 2.11 6.11h-15.26z"/></svg>