<svg id="Layer_1" xmlns="http://www.w3.org/2000/svg" viewBox="58.8 92.9 463.7 609" enable-background="new 58.8 92.9 463.7 609"><style>.st0{fill:url(#SVGID_1_)}.st1{opacity:.5;fill:#f29d1f;enable-background:new}.st2{fill:#f5af1b}.st3{fill:url(#SVGID_2_)}.st3,.st4,.st5,.st6{opacity:.5;enable-background:new}.st4{fill:url(#SVGID_3_)}.st5{fill:url(#SVGID_4_)}.st6{fill:url(#SVGID_5_)}.st7{fill:#f4a01e}.st8,.st9{opacity:.8;fill:url(#SVGID_6_);enable-background:new}.st9{opacity:.2;fill:url(#SVGID_7_)}.st10{fill:#dc7d27}.st11{fill:#2b1b0f}.st12{fill:#d28529}.st13{fill:#ffd379}.st14{fill:url(#SVGID_8_)}.st15{filter:url(#Adobe_OpacityMaskFilter)}.st16{fill:#fff}.st17{opacity:.8;mask:url(#SVGID_9_)}.st18{fill:#931a2c}.st19{fill:#7ac7ef}.st20{opacity:.8;fill:#dc7d27;enable-background:new}.st21{fill:#ed9623}.st22,.st23{opacity:.5;fill:url(#SVGID_10_);enable-background:new}.st23{fill:url(#SVGID_11_)}.st24{fill:url(#SVGID_12_)}.st25{fill:url(#SVGID_13_)}.st26{fill:url(#SVGID_14_)}</style><linearGradient id="SVGID_1_" gradientUnits="userSpaceOnUse" x1="310.285" y1="247.294" x2="471.05" y2="336.003" gradientTransform="matrix(1 0 0 -1 0 797.44)"><stop offset="0" stop-color="#dc7d27"/><stop offset=".239" stop-color="#e48826"/><stop offset=".71" stop-color="#f29c25"/><stop offset="1" stop-color="#faa424"/></linearGradient><path class="st0" d="M295.7 554.2s51.6-44.4 35.7-18.1c8.6-8.9 103.8-69.3 65.4-33.4s-98.2 63.8-98.2 63.8l-2.9-12.3z"/><path class="st1" d="M298.4 555.1s35.5-31.5 23.6-9c1.9-.8 48.6-34.8 53.3-34.5.7 0 .5.8-.7 2.4-12.4 16.6-72.1 49-74.7 49.5-1-1.4-1.5-8.4-1.5-8.4z"/><path class="st2" d="M129.3 247.2s5.7-14.3-25-8.2c-30.6 6.2-47.8 46-45.3 90.3S98.6 435 146.1 439.7c47.5 4.7 6.2-83.8 6.2-83.8s-43.2 6.5-49-64.3c3.1-6.6 26-44.4 26-44.4z"/><radialGradient id="SVGID_2_" cx="109.608" cy="542.014" r="145.36" gradientTransform="matrix(1 0 0 -1 0 797.44)" gradientUnits="userSpaceOnUse"><stop offset="0" stop-color="#dc7d27"/><stop offset=".239" stop-color="#e48826"/><stop offset=".71" stop-color="#f29c25"/><stop offset="1" stop-color="#faa424"/></radialGradient><path class="st3" d="M129.3 247.2s5.7-14.3-25-8.2c-30.6 6.2-47.8 46-45.3 90.3S98.6 435 146.1 439.7c47.5 4.7 6.2-83.8 6.2-83.8s-43.2 6.5-49-64.3c3.1-6.6 26-44.4 26-44.4z"/><path class="st2" d="M141.3 261.1s17.5-10.3 12 21.4-15.7 36.8-22.6 21.6c-5-15.6.2-20.6.2-20.6l10.4-22.4z"/><radialGradient id="SVGID_3_" cx="136.225" cy="519.54" r="25.492" gradientTransform="matrix(1 0 0 -1 0 797.44)" gradientUnits="userSpaceOnUse"><stop offset="0" stop-color="#dc7d27"/><stop offset=".239" stop-color="#e48826"/><stop offset=".71" stop-color="#f29c25"/><stop offset="1" stop-color="#faa424"/></radialGradient><path class="st4" d="M141.3 261.1s17.5-10.3 12 21.4-15.7 36.8-22.6 21.6c-5-15.6.2-20.6.2-20.6l10.4-22.4z"/><path class="st2" d="M123.8 243.6s29.5-.9 21.6 24.7c-11 31.2-50.7 41.7-46.6 18 5-26.7 9.8-25.2 9.8-25.2l15.2-17.5z"/><radialGradient id="SVGID_4_" cx="113.122" cy="539.011" r="30.594" gradientTransform="matrix(1 0 0 -1 0 797.44)" gradientUnits="userSpaceOnUse"><stop offset="0" stop-color="#dc7d27"/><stop offset=".239" stop-color="#e48826"/><stop offset=".71" stop-color="#f29c25"/><stop offset="1" stop-color="#faa424"/></radialGradient><path class="st5" d="M123.8 243.6s29.5-.9 21.6 24.7c-11 31.2-50.7 41.7-46.6 18 5-26.7 9.8-25.2 9.8-25.2l15.2-17.5z"/><path class="st2" d="M100 261.8s-.4-6.7-7-.2c-6.5 6.5-7 18 11.8 7 18.7-11.1 31.9-27.8 16.6-28.3-15.4-.5-21.3 5.3-20.2 10.1 1.1 4.7 1.1 5.2-1.2 11.4z"/><radialGradient id="SVGID_5_" cx="98.219" cy="554.835" r="31.005" gradientTransform="matrix(1 0 0 -1 0 797.44)" gradientUnits="userSpaceOnUse"><stop offset="0" stop-color="#dc7d27"/><stop offset=".239" stop-color="#e48826"/><stop offset=".71" stop-color="#f29c25"/><stop offset="1" stop-color="#faa424"/></radialGradient><path class="st6" d="M100 261.8s-.4-6.7-7-.2c-6.5 6.5-7 18 11.8 7 18.7-11.1 31.9-27.8 16.6-28.3-15.4-.5-21.3 5.3-20.2 10.1 1.1 4.7 1.1 5.2-1.2 11.4z"/><path class="st7" d="M120.2 616s25.3-19.5 72.8-17.7c15.6.6 33.6 3.5 53.9 10.2 27.7 9 59.6 25 95.5 51.6-30.4-40-74.7-181.9-38.4-298 7.1-22.8 17.3-44.6 31.4-64.4 2.3-3.3 4.8-6.5 7.3-9.7 31.3-33.9 36.5-39.4 42.2-28.3s15.3 36.7 30.7 43.4c30.5 10.2 24.3-34.5 13.4-56.8-2.7-5.5-5.6-9.7-8.4-11.3 35.3 20 44.5 9.5 42-2.6-2.6-14.9-43.9-52.1-83.3-48.7 52.4-9.6 13.1-27.4 10.7-28.7-11.2-4.8-24.9-6.4-39.8-5.1-11 .9-22.6 3.4-34.5 7.2-36.2 11.7-74.5 36.2-101.8 69.5-4.1 5-7.9 10.1-11.4 15.5-20.3 30.7-36.4 66.4-47.5 104.1-11.8 40-18.1 82.2-18.2 122.6 0 5.8.1 11.2.3 16.4 2.4 65.4 17.5 88.9-16.9 130.8z"/><linearGradient id="SVGID_6_" gradientUnits="userSpaceOnUse" x1="120.165" y1="392.714" x2="463.092" y2="392.714" gradientTransform="matrix(1 0 0 -1 0 797.44)"><stop offset="0" stop-color="#dc7d27"/><stop offset=".239" stop-color="#e48826"/><stop offset=".71" stop-color="#f29c25"/><stop offset="1" stop-color="#faa424"/></linearGradient><path class="st8" d="M462.7 232.3c-2.6-14.9-43.9-52.1-83.3-48.7 52.4-9.6 13.1-27.4 10.7-28.7-11.2-4.8-24.9-6.4-39.8-5.1-4.3.4-8.7 1-13.2 1.8-1.8 21.7-9.7 54.1-30.4 102.4-41.3 129.2-30.8 184.3-53.4 240.8-24.9 59.8-79.6 88.4-112.8 6.3-1.1-2.7-2.1-5.5-3.1-8.4 3.1 59.8 15.8 83.1-17.3 123.3 0 0 25.3-19.5 72.8-17.7 15.6.6 33.6 3.5 53.9 10.2 27.7 9 59.6 25 95.5 51.6-30.4-40-74.7-181.9-38.4-298 7.1-22.8 17.3-44.6 31.4-64.4 2.3-3.3 4.8-6.5 7.3-9.7 31.3-33.9 36.5-39.4 42.2-28.3s15.3 36.7 30.7 43.4c30.5 10.2 24.3-34.5 13.4-56.8-2.7-5.5-5.6-9.7-8.4-11.3 35.5 20 44.7 9.5 42.2-2.7z"/><radialGradient id="SVGID_7_" cx="346.13" cy="488.047" r="63.361" gradientTransform="matrix(1 0 0 -1 0 797.44)" gradientUnits="userSpaceOnUse"><stop offset="0"/><stop offset="1" stop-opacity="0"/></radialGradient><path class="st9" d="M462.7 232.3c-2.6-14.9-43.9-52.1-83.3-48.7 52.4-9.6 13.1-27.4 10.7-28.7-11.2-4.8-24.9-6.4-39.8-5.1-4.3.4-8.7 1-13.2 1.8-1.8 21.7-9.7 54.1-30.4 102.4-41.3 129.2-30.8 184.3-53.4 240.8-24.9 59.8-79.6 88.4-112.8 6.3-1.1-2.7-2.1-5.5-3.1-8.4 3.1 59.8 15.8 83.1-17.3 123.3 0 0 25.3-19.5 72.8-17.7 15.6.6 33.6 3.5 53.9 10.2 27.7 9 59.6 25 95.5 51.6-30.4-40-74.7-181.9-38.4-298 7.1-22.8 17.3-44.6 31.4-64.4 2.3-3.3 4.8-6.5 7.3-9.7 31.3-33.9 36.5-39.4 42.2-28.3s15.3 36.7 30.7 43.4c30.5 10.2 24.3-34.5 13.4-56.8-2.7-5.5-5.6-9.7-8.4-11.3 35.5 20 44.7 9.5 42.2-2.7z"/><path class="st10" d="M349.1 674.5s-6.4-6.6-6.1 12.2 6.4 15.8 8.1 13.2c1.9-2.6 4.6-18.1-2-25.4zm11.8-5.3s10.4 18.4 21.5 8.1c4.8-4.4-5.6-8.8-7.5-9.5-2-.6-16.2-4.8-14 1.4zM90.3 607.8s-6 5.1 6.8 8.1 12.2-3.3 10.8-5.5c-1.3-2.3-11.1-7.7-17.6-2.6zm1.3 21.1s-4.1 7.5 11.6 3.6 11.8-9.2 9.3-10.4c-2.6-1.3-16.3-.9-20.9 6.8z"/><path class="st11" d="M219.1 289.7s6.7 9-.2 18.3c3.1 6.5 28.4 17.4 42.6-32.5-8.2-12-42.4 14.2-42.4 14.2z"/><path class="st12" d="M261.3 275.5s-17.3 54-43.2 29.8c-5.5 7.4 1 36.2 25 16.1 15.7-15.7 18.2-45.9 18.2-45.9z"/><path class="st13" d="M253 278.6s24.4-3.4 10.8-16.2c1.5-9.6 10.3-42.1-47.9-40.5-53.2 3.8-14 96.5 4.7 74.4 10.8-22.1 19.5-14.2 32.4-17.7z"/><radialGradient id="SVGID_8_" cx="373.787" cy="549.987" r="98.664" gradientTransform="matrix(1 0 0 -1 0 797.44)" gradientUnits="userSpaceOnUse"><stop offset="0" stop-color="#ed1a3c"/><stop offset="1" stop-color="#ed1f24"/></radialGradient><path class="st14" d="M273.3 175.6s84.7-6.9 109.3 80.5c.4 2.2-27.4 18.6-27.4 18.6s-29.5-91.2-114.7-75.6c-3.6-1.6 29.1-25.5 32.8-23.5z"/><defs><filter id="Adobe_OpacityMaskFilter" filterUnits="userSpaceOnUse" x="349.5" y="125.1" width="32.1" height="186.8"><feColorMatrix values="1 0 0 0 0 0 1 0 0 0 0 0 1 0 0 0 0 0 1 0"/></filter></defs><mask maskUnits="userSpaceOnUse" x="349.5" y="125.1" width="32.1" height="186.8" id="SVGID_9_"><path class="st15 st16" d="M273.3 175.6s84.7-6.9 109.3 80.5c.4 2.2-27.4 18.6-27.4 18.6s-29.5-91.2-114.7-75.6c-3.6-1.6 29.1-25.5 32.8-23.5z"/></mask><g class="st17"><path transform="rotate(92.275 354.625 217.934) scale(.99999)" class="st18" d="M261.8 216.5h185.7v2.9H261.8z"/><path transform="rotate(92.275 360.807 218.18) scale(.99999)" class="st18" d="M267.9 216.7h185.7v2.9H267.9z"/><path transform="rotate(92.275 366.987 218.425) scale(.99999)" class="st18" d="M274.1 217h185.7v2.9H274.1z"/><path transform="rotate(92.275 373.17 218.672) scale(.99999)" class="st18" d="M280.3 217.2H466v2.9H280.3z"/><path class="st18" d="M377.1 311.8l-2.9-.2 7.4-185.5"/></g><path class="st11" d="M202 199.4s.1-.3.5-.7c.3-.4.8-1 1.4-1.7.7-.7 1.5-1.5 2.5-2.3 1-.8 2.3-1.6 3.7-2.4 1.4-.7 3-1.5 4.9-2 1.8-.5 3.9-1 6.1-1.1 1.1-.1 2.2 0 3.4 0 1.2.1 2.4.2 3.6.6 2.4.5 4.9 1.6 7.1 3 2.2 1.4 4.2 3.3 5.7 5.3s2.6 4.2 3.4 6.3c.3 1.1.7 2.1.9 3.1.2 1 .4 2 .5 3 0 1 .1 1.9.1 2.8 0 .9-.1 1.7-.2 2.5s-.2 1.6-.3 2.3c-.2.7-.3 1.4-.5 2-.2.6-.3 1.2-.5 1.7s-.4 1-.6 1.4c-.4.9-.8 1.5-1 2-.2.4-.4.7-.4.7h-.9s-.1-.9-.2-2.5c0-.4-.1-.8-.1-1.3-.1-.5-.2-1-.2-1.5-.1-.6-.2-1.1-.3-1.8-.1-.6-.3-1.3-.4-1.9-.2-1.4-.7-2.8-1.1-4.3-.3-.7-.6-1.5-.8-2.2-.3-.8-.7-1.5-1.1-2.3-.4-.8-.9-1.5-1.3-2.2-.5-.7-1-1.4-1.6-2.1-.6-.6-1.2-1.3-1.9-1.8-.3-.3-.7-.6-1-.8l-1.1-.7c-1.5-.9-3.1-1.8-4.8-2.2-1.7-.5-3.4-.9-5.1-1-1.7-.2-3.3-.1-4.9 0-1.6.1-3 .3-4.4.6-1.3.3-2.6.5-3.6.8-1.1.3-2 .6-2.8.8l-2.4.8-.3-.9zm67 42.7s.2-.4.5-1.1c.4-.7.9-1.7 1.7-2.9 1.6-2.4 4.1-5.6 7.7-8.7 1.8-1.6 3.9-3.1 6.4-4.6 2.4-1.4 5.1-2.8 8.1-3.9 1.5-.6 3.1-1 4.7-1.4.8-.2 1.6-.4 2.5-.6.8-.2 1.7-.3 2.6-.4 1.7-.2 3.5-.4 5.3-.3h1.2c.5 0 1 0 1.5.1.9.1 1.8.2 2.8.3 3.7.6 7.4 1.6 10.8 3.3.8.4 1.7.8 2.5 1.3s1.6 1 2.3 1.5c1.5 1 2.9 2.1 4.1 3.3 2.5 2.3 4.5 4.9 6.1 7.4 1.6 2.5 2.7 5 3.6 7.3.9 2.3 1.4 4.5 1.7 6.5.3 1.9.5 3.7.6 5.1.1 1.4 0 2.6 0 3.3 0 .8-.1 1.2-.1 1.2v.3c0 .3-.3.5-.6.5-.2 0-.3-.1-.4-.3 0 0-.2-.3-.5-.9-.3-.6-.7-1.5-1.3-2.6-1.2-2.2-2.9-5.3-5.4-8.8-1.2-1.7-2.7-3.5-4.3-5.3-1.7-1.8-3.6-3.5-5.7-5s-4.5-2.9-7-3.9c-2.5-1.1-5.2-1.8-8-2.2-5.5-.8-11.2-.3-16.3.9-5.2 1.2-9.8 2.9-13.7 4.7-3.9 1.8-7 3.5-9.1 4.8-2.1 1.3-3.3 2.1-3.3 2.1-.2.2-.6.1-.8-.1-.1-.2-.1-.4-.1-.5l-.1-.4z"/><path class="st19" d="M215.4 120.5s-8.3-39.6-28.4-24c-7.4 7.1-2.5 16.7 4.4 18 6.3 1.6 19.7-6.5 24 6zm263.5 99.2s23.7-38.1 40.8-15.8c4.1 4.8 3.8 12.2-2.4 16.3-9.8 6.3-17.8-8.6-38.4-.5zM163 153.8s-14.5-13.1-31.9-4.6c-17.5 8.5-2.5 22.4 6 16.9 8.4-5.5 7.4-16.4 25.9-12.3z"/><path class="st20" d="M299.3 377.6c-20.1 11.5-39.2 57.7-10.3 88.1-.4-27.1 3.6-61.5 10.3-88.1z"/><path class="st21" d="M357.7 293.6s-17.6-27.3 18.2-16.5 70.8 77 42.6 126.2c-28.3 49.2-74.5 57.3-129.5 57.1-31.9-32.2-3.3-82.2 10.3-82.7 9.5 11.6 103.3 9.1 58.4-84.1z"/><radialGradient id="SVGID_10_" cx="349.213" cy="426.304" r="104.453" gradientTransform="matrix(1 0 0 -1 0 797.44)" gradientUnits="userSpaceOnUse"><stop offset="0" stop-color="#c17c22"/><stop offset="1" stop-color="#f29d22"/></radialGradient><path class="st22" d="M357.7 293.6s-17.6-27.3 18.2-16.5 70.8 77 42.6 126.2c-28.3 49.2-74.5 57.3-129.5 57.1-31.9-32.2-3.3-82.2 10.3-82.7 9.5 11.6 103.3 9.1 58.4-84.1z"/><radialGradient id="SVGID_11_" cx="377.096" cy="512.239" r="71.97" gradientTransform="matrix(1 0 0 -1 0 797.44)" gradientUnits="userSpaceOnUse"><stop offset="0" stop-color="#c17c22"/><stop offset="1" stop-color="#f29d22"/></radialGradient><path class="st23" d="M357.7 293.6s-17.6-27.3 18.2-16.5 70.8 77 42.6 126.2c-28.3 49.2-74.5 57.3-129.5 57.1-31.9-32.2-3.3-82.2 10.3-82.7 9.5 11.6 103.3 9.1 58.4-84.1z"/><radialGradient id="SVGID_12_" cx="351.702" cy="497.88" r="30.904" gradientTransform="matrix(1 0 0 -1 0 797.44)" gradientUnits="userSpaceOnUse"><stop offset="0" stop-color="#da8b28"/><stop offset="1" stop-color="#f29d22"/></radialGradient><path class="st24" d="M345.4 279.7s-7.7-11.7-16.2 8.8-7.7 51.8 12.5 46.5c10.6-3.3 8.8-20.6 8.8-20.6l-5.1-34.7z"/><radialGradient id="SVGID_13_" cx="369.887" cy="513.746" r="31.381" gradientTransform="matrix(1 0 0 -1 0 797.44)" gradientUnits="userSpaceOnUse"><stop offset="0" stop-color="#da8b28"/><stop offset="1" stop-color="#f29d22"/></radialGradient><path class="st25" d="M362.3 270.9s-18.8-7.7-20.8 18.9c-2.1 26.5 27.6 54.6 32.9 36s-.2-39.9-.2-39.9l-11.9-15z"/><radialGradient id="SVGID_14_" cx="375.91" cy="526.769" r="34.573" gradientTransform="matrix(1 0 0 -1 0 797.44)" gradientUnits="userSpaceOnUse"><stop offset="0" stop-color="#da8b28"/><stop offset="1" stop-color="#f3a421"/></radialGradient><path class="st26" d="M381.6 291.8s.1-5.8 5.5-1.5 6.4 14.4 2.9 13.6c-3.6-.8-24-11.4-30.3-24.8-6.3-13.4 28.1-4.9 23.9.9-4.3 5.6-2 11.8-2 11.8z"/></svg>