<svg xmlns="http://www.w3.org/2000/svg" width="210mm" height="297mm" viewBox="0 0 21000 29700" shape-rendering="geometricPrecision" text-rendering="geometricPrecision" image-rendering="optimizeQuality" fill-rule="evenodd" clip-rule="evenodd"><defs><style>.str0{stroke:#f39c12;stroke-width:20}.fil0{fill:#f39c12}</style></defs><path class="fil0 str0" d="M10066 4998l942 1274 1275-939 526 1496 1494-520 63 1584 1580-55-405 1533 1526 414-838 1345 1337 846-1196 1038 1029 1204-1448 638 628 1455-1571 182 174 1576-1555-291-298 1557-1400-737-742 1400-1121-1119-1121 1119-742-1400-1400 737-298-1557-1555 291 174-1576-1571-182 629-1455-1448-638 1028-1204-1196-1038 1337-846-838-1345 1527-414-406-1533 1580 55 63-1584 1494 520 526-1496 1275 939z" id="Слой_x0020_1"/></svg>