<svg xmlns="http://www.w3.org/2000/svg" width="645" height="850" viewBox="0 0 645 850"><g fill="#EBEBEB"><path d="M282.037 715.951c-6.406-.092-8.549-3.458-9.69-8.806-5.979-28.012-13.083-55.834-17.869-84.046-22.338-131.648-.502-258.282 44.836-382.069.64-1.752 2.16-3.181 3.312-4.824 10.878 9.041 5.474 30.661 26.111 31.243l-14.004 5.007c10.12 12.718 2.735 35.103 26.518 37.606-4.864 5.353-18.154 1.25-13.182 15.574 3.303 9.516 12.215 8.432 18.738 13.423-2.563 1.14-3.918 2.227-5.318 2.286-11.111.453-11.882 7.312-11.398 16.338 1.311 24.378 1.153 48.721-6.22 72.401-.313.988.152 2.217.403 4.954 5.342-3.3 9.986-5.606 13.988-8.735 28.564-22.351 46.367-51.723 54.436-86.773 9.117-39.602-3.275-71.762-36.131-95.635-8.845-6.427-18.638-11.544-27.158-16.749 5.85-4.052 12.08-8.373 19.452-13.478-.438 3.173-.313 4.799-.896 6.11-3.847 8.656-.044 12.142 8.013 15.608 15.536 6.683 30.532 14.685 45.484 22.645 16.155 8.603 16.014 8.85 26.184-6.212.257-.383 1.053-.407 2.038-.754.561 2.111 1.796 4.246 1.538 6.183-1.965 14.863 8.123 21.46 18.89 27.144 2.21 1.163 6.641.149 8.966-1.441 3.165-2.165 5.289-5.851 7.861-8.882 1.576 7.16 1.021 13.272 1.118 19.375.046 3.229.119 7.595 2.074 9.466 12.325 11.79 25.181 23.021 38.87 35.343 0-4.563.364-7.897-.054-11.129-4.988-38.191-19.362-72.493-43.413-102.573-21.363-26.719-49.468-39.934-83.612-40.384-6.666-.088-13.332-.013-19.996-.013l-.507-1.601c19.996-5.397 39.995-10.794 59.922-16.175-.687-9.684-1.356-19.166-2.03-28.646l2.647-.479c4.059 4.928 7.868 10.095 12.273 14.683 2.184 2.272 5.754 5.253 8.217 4.868 14.172-2.215 28.201-5.341 42.633-8.232-.884-4.793-1.551-8.422-2.317-12.562 2.118.312 3.072.283 3.885.608 1.423.572 3.149 1.027 4.064 2.109 9.753 11.505 22.702 9.829 35.664 9.321 13.348-.522 26.729-.116 42.234-.116-29.789-31.412-62.41-54.588-103.901-61.077-65.848-10.3-119.327 9.982-155.771 69.589C298.215 76.789 277.04 43.767 225.24 25.755c-33.802-11.752-67.105-10.615-99.81 3.866 16.74 11.774 32.144 22.891 47.933 33.431 2.445 1.632 6.731 1.183 10.022.706 4.931-.715 9.737-2.31 16.435-3.994-1.513 4.171-1.732 6.476-2.967 7.891-5.733 6.552-3.126 11.19 2.398 16.333 7.639 7.11 14.329 15.24 21.985 22.324 2.58 2.385 6.767 3.483 10.408 4.154 4.817.887 9.816.779 15.482 1.149-3.075 8.949-7.432 9.026-13.711 6.991-28.47-9.229-57.73-13.187-87.424-8.716-47.874 7.208-88.359 29.703-123.458 62.479-2.137 1.996-3.834 4.457-7.158 8.384 4.588-.722 6.894-1.116 9.212-1.441 16.756-2.344 33.459-5.487 50.298-6.693 9.629-.691 18.05-1.79 24.908-9.27 2.536-2.772 6.297-4.426 10.875-7.516-.365 7.428-.636 13.003-.926 18.876 14.491.732 27.958 1.646 41.433 1.834 2.005.029 4.607-3.017 5.973-5.232 2.401-3.906 4.067-8.271 6.671-13.774 6.655 10.789 3.52 25.287 20.923 27.562-5.749 2.001-8.88 3.129-12.035 4.185-32.194 10.763-56.665 30.755-72.163 61.111-19.216 37.634-23.896 77.995-21.602 119.56.04.726.881 1.409 1.276 1.998 10.253-11.73 20.691-23.003 30.247-34.979 3.118-3.912 4.614-9.52 5.644-14.595 1.152-5.705.94-11.685 1.318-17.548l1.981-.038 6.355 11.523c14.316-11.539 28.153-22.695 41.995-33.85 1.199-.967 3.017-1.69 3.491-2.928 1.014-2.658 1.748-5.562 1.863-8.395.265-6.409.084-12.837.084-21.215 5.362 4.52 9.125 7.208 12.298 10.473 5.556 5.722 10.986 3.487 16.756.599 5.805-2.908 11.962-4.949 11.304-13.617-.369-4.854 1.012-9.84 1.601-14.734 2.323.297 2.983.242 3.508.479.831.379 1.746.804 2.326 1.47 7.273 8.313 14.885 6.849 23.841 2.262 9.687-4.958 20.218-8.263 30.381-12.29.365.599.733 1.199 1.098 1.799-.693 1.261-1.274 2.6-2.094 3.77-33.889 48.308-54.692 102.571-71.647 158.492-19.097 62.991-31.59 127.365-38.469 192.802-5.037 47.882-7.36 95.876-3.126 143.96.582 6.622-1.131 9.625-7.594 12.186-1.518.598-3.038 1.192-4.556 1.787 50.656-1.984 99.509-9.946 145.655-23.086-4.139-.153-8.286-.27-12.441-.329zm67.062-547.2c8.056 14.686 7.438 17.643-3.696 18.802 1.136-5.799 2.193-11.157 3.696-18.802zm-119.8 16.278c4.546-6.015 7.477-9.891 12.093-16.001l2.702 18.511c-4.852-.823-8.515-1.443-14.795-2.51z"/><path d="M631.597 788.701c0 38.31-123.752 50.997-276.405 50.997-152.654 0-276.405-12.688-276.405-50.997 0-38.311 123.75-87.733 276.405-87.733 152.653 0 276.405 49.423 276.405 87.733z"/></g></svg>