<svg id="Layer_1" xmlns="http://www.w3.org/2000/svg" viewBox="-173 240.9 263.4 312.1"><style>.st0{opacity:.5;fill:#49226b;enable-background:new}.st1{fill:url(#SVGID_1_)}.st2{fill:#f39c12}.st3{fill:#f6a213}.st4{opacity:.8;fill:url(#SVGID_2_);enable-background:new}.st5{fill:#dd7c1b}.st6{opacity:.5;fill:#f39c12;enable-background:new}.st7{fill:#fff}.st8{fill:#262626}.st9{fill:#ffd278}.st10{fill:#d38411}</style><g id="Layer_2"><ellipse class="st0" cx="-68.1" cy="545.6" rx="85" ry="7.4"/><linearGradient id="SVGID_1_" gradientUnits="userSpaceOnUse" x1="-56.391" y1="601.897" x2="-28.011" y2="601.897" gradientTransform="translate(0 -128.649)"><stop offset="0" stop-color="#dd8b12"/><stop offset="1" stop-color="#f39c12"/></linearGradient><path class="st1" d="M-63.1 491.1c10.4-.1 17.2-54.3 36.5-55.1 16.5-.5 7 50-18.3 74.5-9.9-.3-19.9-17.9-18.2-19.4z"/><path class="st2" d="M-74.2 499s5.5.6 8.7 2.8c-1.2-1.7-7.7-10.2-1.6-21.5 11.2 2.8 11.1 26.5 23.4 29.2-7.9 10.5-26.3 2.6-30.5-10.5zM10 465.4c6.6 2 13 2.7 19 2.6 23.6-.7 41.8-15.8 50.7-25.9 2.9-3.2 4.8-6 5.6-7.5 3.2-5.9-.6-5.3-2.5-4.7-.6.2-1 .4-1 .4s6.7-6.2 8.3-9c2.9-8.3-22.3.2-26.5 6.4 2.7-11.5.3-16.1-3.2-15.6-5.3 35.5-29.7 32.2-44.7 26.4-7.1-2.7-12.1-6-12.1-6s.4 5.3 1.1 11.6c1.3 8.8 3 19.6 5.3 21.3z"/><path class="st3" d="M-134.1 544.9c14 .5 53.9-1.3 73.3-4.8 4.2-.8 7.5-1.6 9.3-2.6-1 .8-.8 4.3 2.1 1.3 0-.1.1-.1.1-.2 2.6-3 31.2-16 41.1-2.1 2.2-1.9 22.4-24.7 31.4-60.7 6.4-25.9 7.1-58.6-8.9-95.4-2.8-6.5-10.9-20.3-25.4-26.6-13.1-5.7-31.3-5.5-55.8 11.2-5.6 4.1-6.1 8.2 0 8.3-10.9 3.6-28 25.7-13.1 24.4 4.3-.6 8.6-2.6 10.7-5-5.2 11.8-4.2 27.2 2.9 21.3 8.5-8.7 13.8-25.6 19-17.5 2.8 5.5 5.1 16 6.8 28.7 4.5 35.6 3.3 89.5-10.8 107.2v.1c-3.5-.8-3.1 2-1.2 2.7 2 .7-59.9-4.6-39.1 3.1-8-.7-58.4.7-42.4 6.6z"/><linearGradient id="SVGID_2_" gradientUnits="userSpaceOnUse" x1="-40.336" y1="652.741" x2="-101.255" y2="538.823" gradientTransform="translate(0 -128.649)"><stop offset="0" stop-color="#dd7c1b"/><stop offset="1" stop-color="#f39c12"/></linearGradient><path class="st4" d="M-32.2 405.1c-1-19.3 1.2-37.8 6-54.7-11.1-.3-24.6 3.5-40.8 14.6-5.6 4.1-6.1 8.2 0 8.3-10.8 3.6-27.9 25.7-13 24.4 4.3-.6 8.6-2.6 10.7-5-5.2 11.8-4.2 27.2 2.9 21.3 8.5-8.7 13.8-25.6 19-17.5 10.5 20.9 15.2 111.9-4 135.9v.1c-3.5-.8-3.1 2-1.2 2.7 2 .7-59.9-4.6-39.1 3.1-8-.5-58.4.9-42.4 6.7 17.1.7 72.7-2.2 82.5-7.4-1 .8-.8 4.3 2.1 1.3 0-.1.1-.1.1-.2 2.6-3 31.2-16 41.1-2.1 1.5-1.3 11.1-12 19.9-29.8C-13 483.6-30 447-32.2 405.1z"/><path class="st5" d="M-45.4 541.7s1.5-6.9 4.7-4.6c2.3 1.9-1.2 8-2.6 8.5-1.4.4-3.3 0-2.1-3.9z"/><path class="st5" d="M-39.1 541.7c-1-.8-.7-8 2.9-6.4 1.5.7.1 5.3-.3 5.7-.4.7-1.6 1.5-2.6.7zm23.8-7.7c1.4-1.3 5.9-.2 2.9 4.5-2.8 3.7-4.8 2.2-5.3 1.5-1-1.4 1-4.6 2.4-6zm5.1 3.8c.8-.2 3-.3.9 3-1.8 2.7-3.1 2-3.5 1.3-.8-.9 1.6-4 2.6-4.3z"/><path class="st6" d="M-56.7 536.4s-30.3-2.2-31.3-.5c-1 1.6 3.9 3 3.9 3s-34.5.4-35.2 2.6c-.6 2 61.7-.8 62.6-5.1z"/><path class="st7" d="M-10.8 391.9c3.6-7.9-.6-16.2-6.1-20.5s-22.5-3.6-18.4 14.9c5.2 16.6 20.9 13.5 24.5 5.6z"/><path d="M-14.7 389.5c.4-1 .6-2 .4-3.2-.4-3.4-3.5-5.7-6.9-5.3s-5.7 3.5-5.3 6.9c.2 1.5 1 2.9 2 3.8 3.1-1.8 6.6-2.7 9.8-2.2z"/><path class="st8" d="M-1.9 394.1l.9-.7 10.7 1 .2 2.2-1.6 2.3-5.5-.6-4.7-4.2z"/><path class="st9" d="M-2.7 392.1s-.8.5 0 1.5c2 .1 1.5 1.1 4.9 1.5 2.4.2 8.1-1.2 9.4 3.4 2.1 9.8 11.8.5 13-3.9 1.2-4.4 4.4-17.1-7.9-22.2-9.4-3.5-23.8 4-19.7 17.6.3 1.2.3 2.1.3 2.1z"/><path class="st10" d="M-2.8 393.6s-.7.5.6 1.1c2.5 1.2 2.7 7.3 4.4 9.8 1.6 2.5 5.9 5.2 9.8-4.4-.5-.5-.2-3.4-3-4.6-.1.8-.2 2.9-4.9 1.5-1.6-.5-3.3-1.3-5.4-3.2-.4-.1-1.1-.3-1.5-.2z"/></g></svg>