<svg id="Layer_1" xmlns="http://www.w3.org/2000/svg" viewBox="1184.4 208.2 834.9 562.9"><style>.st0{fill:url(#SVGID_1_)}.st1{fill:#f29d1f}.st2{fill:#231f20}.st3{fill:url(#SVGID_2_)}.st4{opacity:.7}.st5{fill:#fff}.st6{fill:#676767}.st7{fill:#7a7a7a;stroke:#676767;stroke-width:2;stroke-miterlimit:10}.st8{fill:#2b1b0f}.st10,.st9{enable-background:new}.st9{opacity:.4;fill:url(#SVGID_3_)}.st10{opacity:.2;fill:#231f20}.st11{fill:url(#SVGID_4_)}.st12{fill:url(#SVGID_5_)}.st13{fill:none}.st14{fill:#f29c21}.st15{fill:#f6a61d}.st16,.st17{opacity:.8;fill:url(#SVGID_6_);enable-background:new}.st17{fill:#dc7d27}.st18{fill:#f5af1b}.st19{opacity:.5;fill:url(#SVGID_7_);enable-background:new}.st20{fill:url(#SVGID_8_)}.st21{opacity:.8;fill:#f29d1f;enable-background:new}.st22{fill:#dc7d27}.st23{fill:#ffd379}.st24{fill:#d28529}.st25{fill:#010101}.st26{fill:url(#SVGID_9_)}.st27{fill:url(#SVGID_10_)}.st28{fill:#cc77e0}</style><linearGradient id="SVGID_1_" gradientUnits="userSpaceOnUse" x1="1833.899" y1="309.28" x2="1910.275" y2="309.28" gradientTransform="rotate(-153.47 1613.982 396.006)"><stop offset="0" stop-color="#848687"/><stop offset="1" stop-color="#b9b9ba"/></linearGradient><path class="st0" d="M1373.7 385s-35.4-65.9-47.8-64.4c-12.4 1.5-13.6 19.5-10 52.7 24 6.6 57.8 11.7 57.8 11.7z"/><path class="st1" d="M1482.5 385.7s-129.6-21.8-156.3-15.8c13.2 15.4 129.1 40.1 129.1 40.1l27.2-24.3z"/><path class="st2" d="M1634.4 611.8s1.3 14.6-10.2 20.9c-8.2 2.1-23.3.2-22.9-5.2.4-5.4 14.7-27.3 14.7-27.3l18.4 11.6z"/><linearGradient id="SVGID_2_" gradientUnits="userSpaceOnUse" x1="1511.48" y1="245.789" x2="2016.458" y2="245.789" gradientTransform="rotate(-153.47 1613.982 396.006)"><stop offset="0" stop-color="#848687"/><stop offset="1" stop-color="#b9b9ba"/></linearGradient><path class="st3" d="M1479.9 407.2s-196.7-59.7-293.7-55.4c36.6 55.2 205.5 214.8 413.9 287.4 17.4-14.1 29.2-46.1 29.2-46.1l-125.5-160.3-23.9-25.6z"/><path class="st4 st5" d="M1212.4 353.5c51.9-.2 132.9 18.4 196.3 35.6-57.6-9.6-130.1-19.2-182.1-17.4-5.9-6.9-10.7-13-14.2-18.2z"/><path class="st6" d="M1499.6 597.6c33.5 16.7 67.2 31 100.3 42.5.3.1.7.1 1-.2 17.4-14.1 29-45.2 29.5-46.5.1-.3.1-.7-.2-1l-125.5-160.3-24-25.7c-.1-.1-.3-.2-.4-.3-2-.6-197.9-59.7-294-55.5-.4 0-.7.2-.8.5-.2.3-.1.7.1 1 30.4 46.3 153.9 165.6 314 245.5zm100.4 40.5c-32.8-11.4-66.3-25.7-99.5-42.3-158-78.9-280.3-196.1-312.4-243.1 94.8-3.4 283.2 52.9 291.3 55.4l23.8 25.4 125 159.8c-1.6 4.1-12.7 31.8-28.2 44.8z"/><path class="st7" d="M1480.3 428.9s-16-16-34.5-8.9c-20.2 7.5-9 45.3 13.5 45.4 22.5.1 20.9-20.9 20.9-20.9l.1-15.6zm-64.1-7.1c1.4-7-1.2-15.8-14.8-17.6-13.6-1.8-16.8 18.4-4.8 24.2 8.6 4.7 18.2.4 19.6-6.6zm-51.4-13.6c2.9-2.5 3.5-7-2.4-10.8-7.4-4.1-13.4 1.4-11.4 7.2 2.1 5.8 10 6.9 13.8 3.6z"/><path class="st8" d="M1877.6 761.4l-37.9-15.6.3.2-36.2-19.2-.1-.1s-.1 0-.1-.1l-37.9-15.6.2.1-36.2-19.2-37.9-15.6 37.1 17.4h-.1l35.2 20.9h.2l37.1 17.4-.3-.1 35.2 20.9c.1 0 .1.1.2.1l.2.1 37.1 17.4c2.5 1.2 5.5.1 6.7-2.4 1.2-2.5.1-5.5-2.4-6.7-.2.2-.3.1-.4.1zm-1.1-31.5l-32.3-12 .3.2-30.7-15.7-.1-.1-32.3-12 31 15.1-.2-.1 29.1 18.6h.1l.3.1 31 15.1c2.5 1.2 5.5.2 6.7-2.3 1.2-2.5.2-5.5-2.3-6.7-.3-.1-.4-.2-.6-.2z"/><linearGradient id="SVGID_3_" gradientUnits="userSpaceOnUse" x1="1515.548" y1="208.206" x2="2018.458" y2="208.206" gradientTransform="rotate(-153.47 1613.982 396.006)"><stop offset="0" stop-color="#848687"/><stop offset="1" stop-color="#b9b9ba"/></linearGradient><path class="st9" d="M1608.3 627.8c-3 4-6.4 7.6-10 10.6-208.4-72.6-377.3-232.2-413.9-287.4 4.5-.2 9.2-.3 14-.2 56.6 68.1 216.5 208.4 409.9 277z"/><path class="st10" d="M1470.6 445c-.3-13.8 1.6-22.3 1.6-22.3s3.9-5.5 9.4-13.6l22.3 23.8 125.5 160.3s-5.4 14.5-14.2 28.4c-9.1-4.6-17.8-9.4-26.1-14.2-26.5-15.6-48.5-32.1-63.1-45.7-22.2-20.6-35.7-42.1-43.8-61.9-8.9-21.5-11.3-40.9-11.6-54.8zm-127.3 55.3c.3-25 5.8-40.5 19.9-31.6 31 22.2 45.5 32.1 47.7 67.9.5 3.6.9 7.1 1.2 10.7-24.3-15.3-47.4-31.2-68.8-47z"/><linearGradient id="SVGID_4_" gradientUnits="userSpaceOnUse" x1="1656.024" y1="164.904" x2="1817.654" y2="164.904" gradientTransform="rotate(-153.47 1613.982 396.006)"><stop offset="0" stop-color="#848687"/><stop offset="1" stop-color="#b9b9ba"/></linearGradient><path class="st11" d="M1402.1 597.1c-33.9-48.5-77-138.5-41.1-130.1 36.6 10.6 53.6 15.2 67.6 48.1 41.4 80.9 35.2 170.5-26.5 82z"/><radialGradient id="SVGID_5_" cx="2006.665" cy="245.4" r="49.996" gradientTransform="rotate(-153.47 1613.982 396.006)" gradientUnits="userSpaceOnUse"><stop offset="0" stop-color="#ed1a3c"/><stop offset="1" stop-color="#d51a2f"/></radialGradient><path class="st12" d="M1245.4 353.9s1.9 22.7-22.4 43.1c-17.8-18.6-30.9-34.5-38.6-46.1 17.8-.8 38.6.4 61 3z"/><path class="st13" d="M1756.3 433.6c-2.7-1.4-4.8-2.6-4.8-2.6s2 1 4.8 2.6z"/><path class="st14" d="M1834.6 631.5c-76.8 37.7-175.3 3.3-244-37.1-26.5-15.6-48.5-32.1-63.1-45.7-22.2-20.6-35.7-42.1-43.8-61.9-8.8-21.4-11.3-40.8-11.5-54.7-.3-13.8 1.6-22.4 1.6-22.4s48.7-69.7 51.3-76.3c3.6-4.2 9.5-7.6 13.3-8.9 3.8-1.3 8.2-2.2 14.6.3 7.7 3.1 20.4 8.3 24.4 9.8 3.9 1.4 32 11.2 59.6 20.4 18.3 6.1 51.6 20.4 69.9 27.1 54.7 19.9 65.9 21.8 62.2 28.1-3.7 6.3-31.6-3.4-31.6-3.4s33.3 17.6 32.6 26.5c-.4 5.9-8.3 3-13.7.4-2.8-1.6-4.8-2.6-4.8-2.6s2.1 1.3 4.8 2.6c4.3 2.4 10.6 6.3 15.4 10.2 4.3 3.5 7.3 7 6.7 9.7-4 13.9-50.2.7-80.6-21.2-30.4-21.9-41.2-32-57.4-34.3-25-3.8-46.3 42.9-14.9 71.7 31.4 28.8 106 55.6 158 43.5 51.7-12.1 84.2-38.2 95.5-48.6 1.5 0 4.6 1.1 5.7 1.9h-.1c7.9 24.2 6.3 64.4 5.6 73.6-.4 5.7-2.9 28.4-16.2 51.6-8.4 14.3-20.8 28.9-39.5 39.7z"/><path class="st15" d="M1834.6 631.5c-76.8 37.7-175.3 3.3-244-37.1-26.5-15.6-48.5-32.1-63.1-45.7-22.2-20.6-35.7-42.1-43.8-61.9-8.8-21.4-11.3-40.8-11.5-54.7-.3-13.8 1.6-22.4 1.6-22.4s48.7-69.7 51.3-76.3c3.6-4.2 9.5-7.6 13.3-8.9 3.8-1.3 8.2-2.2 14.6.3 7.7 3.1 20.4 8.3 24.4 9.8 3.9 1.4 32 11.2 59.6 20.4 18.3 6.1 51.6 20.4 69.9 27.1 54.7 19.9 65.9 21.8 62.2 28.1-3.7 6.3-31.6-3.4-31.6-3.4s33.3 17.6 32.6 26.5c-.4 5.9-8.3 3-13.7.4-2.8-1.6-4.8-2.6-4.8-2.6s2.1 1.3 4.8 2.6c4.3 2.4 10.6 6.3 15.4 10.2 4.3 3.5 7.3 7 6.7 9.7-4 13.9-50.2.7-80.6-21.2-30.4-21.9-41.2-32-57.4-34.3-25-3.8-46.3 42.9-14.9 71.7 31.4 28.8 106 55.6 158 43.5 51.7-12.1 84.2-38.2 95.5-48.6 1.5 0 4.6 1.1 5.7 1.9h-.1c7.9 24.2 6.3 64.4 5.6 73.6-.4 5.7-2.9 28.4-16.2 51.6-8.4 14.3-20.8 28.9-39.5 39.7z"/><linearGradient id="SVGID_6_" gradientUnits="userSpaceOnUse" x1="1287.794" y1="344.177" x2="1630.905" y2="344.177" gradientTransform="rotate(-153.47 1613.982 396.006)"><stop offset="0" stop-color="#dc7d27"/><stop offset="1" stop-color="#f4a81d"/></linearGradient><path class="st16" d="M1780.2 625.6c-2.4-13.8-23.8-31.1-37.5-43.1-57.5-52.7-129.1-85-187-139.6-22.5-22.1-21.8-37-43-61.3-3.1-3.5-7.7-8-12.7-9.8 12-17.5 23.8-35.2 25-38.4 3.6-4.2 9.5-7.6 13.3-8.9 3.8-1.3 8.2-2.2 14.6.3 7.7 3.1 20.4 8.3 24.4 9.8 3.9 1.4 32 11.2 59.6 20.4 18.3 6.1 51.6 20.4 69.9 27.1 54.7 19.9 65.9 21.8 62.2 28.1-3.7 6.3-31.6-3.4-31.6-3.4s33.3 17.6 32.6 26.5c-.4 5.9-8.3 3-13.7.4-2.8-1.6-4.8-2.6-4.8-2.6s2.1 1.3 4.8 2.6c4.3 2.4 10.6 6.3 15.4 10.2 4.3 3.5 7.3 7 6.7 9.7-4 13.9-50.2.7-80.6-21.2-30.4-21.9-41.2-32-57.4-34.3-25-3.8-46.3 42.9-14.9 71.7 31.4 28.8 106 55.6 158 43.5 51.7-12.1 84.2-38.2 95.5-48.6 1.5 0 4.6 1.1 5.7 1.9h-.1c7.9 24.2 6.3 64.4 5.6 73.6-.4 5.7-2.9 28.4-16.2 51.6-8.3 14.4-20.7 29-39.4 39.8-26.4 12.9-55.3 17.4-84.7 16 12.8-1.5 33-6.4 30.3-22z"/><path class="st17" d="M1587.9 593c-25.8-15.2-47.2-31.2-61.5-44.5-11.4-10.6-20.5-21.5-27.6-32.2 38.5-6.2 81.6-20.7 97.2-9.4 16.7 12 38.3 43.1 40 63.9 0 0 25.9 18.2-26.4 6.6 29.9 9.5 47.1 27.8 47.1 27.8s15.7 16.2-26.8 4.2c-5.4-1.5-13.2-3.4-22.7-5.6-6.6-3.6-13.1-7.2-19.3-10.8z"/><path class="st18" d="M1633.8 569.6s26.3 18.1-26.2 5.7c30.1 9.9 47.8 27.9 47.8 27.9s16.1 15.9-26.6 3.3c-42.8-12.6-227.6-50.7-261.6-69.2 4.7 9.3 9.1 17.7 9.1 17.7s3.8 9.2-8.8 1c-12.6-8.3-31.2-30.2-23.7-36.3-.9-.6-15.8-16.6 2.2-17.4-1.6-2.5-2.1-7 7.2-4.7s94 21 134.2 17.1c40.1-4 87.9-19.4 104.9-7.5 16.8 12 39.2 42.4 41.5 62.4z"/><radialGradient id="SVGID_7_" cx="1882.855" cy="156.984" r="325.479" gradientTransform="rotate(-153.47 1613.982 396.006)" gradientUnits="userSpaceOnUse"><stop offset="0" stop-color="#dc7d27"/><stop offset=".119" stop-color="#e18327"/><stop offset=".663" stop-color="#f39b25"/><stop offset="1" stop-color="#faa424"/></radialGradient><path class="st19" d="M1633.8 569.6s26.3 18.1-26.2 5.7c30.1 9.9 47.8 27.9 47.8 27.9s16.1 15.9-26.6 3.3c-42.8-12.6-227.6-50.7-261.6-69.2 4.7 9.3 9.1 17.7 9.1 17.7s3.8 9.2-8.8 1c-12.6-8.3-31.2-30.2-23.7-36.3-.9-.6-15.8-16.6 2.2-17.4-1.6-2.5-2.1-7 7.2-4.7s94 21 134.2 17.1c40.1-4 87.9-19.4 104.9-7.5 16.8 12 39.2 42.4 41.5 62.4z"/><linearGradient id="SVGID_8_" gradientUnits="userSpaceOnUse" x1="1341.218" y1="472.926" x2="1407.218" y2="657.926" gradientTransform="rotate(-153.47 1613.982 396.006)"><stop offset="0" stop-color="#dc7d27"/><stop offset="1" stop-color="#f4a81d"/></linearGradient><path class="st20" d="M1879.2 464.4c-3.8-18.7 4.3-18.3 5.9-12.9 12.9-27.1 26-80.3 24.3-125.5-1.7-45.2-30.8-125.2-19.5-117.3 13.2 9.3 31 41.6 40.6 72.9 9.6 31.3 3.3 92.6-7.1 107.8-.2.3 8.1-11.8 10.1-4.4 2.9 26-33.5 65.2-43 70.8 8.7 5.8-4.8 10.4-5.8 10.7-1.6-.5-3.8-1.3-5.7-1.9 0-.1.1-.2.2-.2z"/><path class="st21" d="M1889.3 452s22.5-19.5 29.8-40.9c7.3-21.4-5.6-5.5-5.6-5.5 7.2-13.5 19.7-74.3 10-94-2.4-4.8-4.6 8.5-6 26.5-1.9 30.9-1.9 41.7-10.9 69.9-8.3 24.7-19.8 43.6-17.3 44z"/><path class="st22" d="M1926.6 596.2c-.1 4.7-5 5.1-14.9-1.8-6.7-4.9-4.6-9.7 1.2-9.3 5.7.3 13.7 6.4 13.7 11.1zm-31.5 19.4c-1.3-4.3 2.9-5.1 6-5 7.6.5 23.6 12 16.4 16s-21-6.7-22.4-11zm88.4-139.9s-6.9-1.6-.3-6.3c6.6-4.8 18.5-4.5 22.1.3 3.6 4.8-8.2 9-21.8 6zm27.3-17.7c-6.3 1.3-13.3-1.2-9.7-6.4 3.6-5.3 12.5-4.5 16.6-1.6 4.3 2.8-.6 6.7-6.9 8z"/><path class="st8" d="M1507.6 381.1l-3.4 10.1-10 9.8-12.8.3-10.8-8.4-4.1-7.9s18.6-1.6 24.5-23.2c5.8 2.9 16.6 19.3 16.6 19.3z"/><path class="st23" d="M1512.7 376.4c-.8 2.5-.1 5.4-1.6 7.5-1.6 3.6-13.2 3.5-14.5-7.5-.3-4.5 2.9-6.7-2.2-10.2-10.9-5.9-13.8.8-22.5-9.6-4.7-6.3-4.3-19.3 4.4-30.3 8.7-10.9 25.2-22 46.1-4.9 20.9 17.2 3.2 45.2-3.7 48.8-2.3 1.5-4.9 2.4-6 6.2z"/><path class="st24" d="M1507.1 391c1.8-5-.6-5.8-2.7-4.1-3.2 2.2-3.8 4.1-9.7 8-7.8 4.9-17.7 2.6-25.3-10.6-6.4-11.3-10.8-2.4-10.6 3 .2 5.4 5.9 42.7 27 33.3 14.2-7.2 19.6-24.7 21.3-29.6z"/><path class="st8" d="M1566.3 295.8c1.5 1.4 2.9 1 2.3-.8-1.3-3.3-6.5-6.9-11.7-5.6-5.2 1.3-6.5 7.3-6.4 8.6 0 1.3 1.1 2 1.7-.2.9-2.7 5.8-9.5 14.1-2zm97.9 48.9c-3.6-1.2-3.7-2.6-2.5-2.6 3.2.4 6.4 1.2 9.8-2.4 1.6-2 1.6-4.1-.2-6-6.5-6.6-22.7-9.7-23.7-10-4-.9-3.9-2.2-2.9-2.3 1-.1 11.7.1 22.1 4.1 3.7 1.4 10.8 4.6 11.4 9.4.6 5.3-5.5 12.5-14 9.8z"/><path class="st5" d="M1524.1 377.1c18.8 7.9 21.7 23 21.1 33.9 6 2.5 40.2 1.6 55.3-14.4 15.1-16.1-.1-34.2-11.9-39.5-19-9.4-38.7-1.9-47 2.3-11.9 6.3-14.8 12.6-17.5 17.7z"/><path class="st25" d="M1542.5 394.2c-2.9-6.6-8.4-12.9-18.4-17.1 2.7-5.1 5.7-11.4 17.5-17.7 3.2-1.6 8-3.7 13.8-5.1 17.7 2.7 25.8 11.9 24 24.6-1.8 12.9-16.3 18.2-34.6 15.6-.9-.1-1.6-.2-2.3-.3z"/><path class="st5" d="M1571.4 378.9c-.1.6-.4 2.8-.1.4.8-5.6 0-10.8-1.4-16.2 11 11.7 3.7 25.1-9.5 28.8 6-2.7 10-6.4 11-13 0 .2-1 7.1 0 0zm.3-2.1c0 .1 0 .3-.1.6 0-.3.1-.5.1-.6z"/><linearGradient id="SVGID_9_" gradientUnits="userSpaceOnUse" x1="1624.708" y1="377.827" x2="1648.709" y2="405.703" gradientTransform="rotate(-153.47 1613.982 396.006)"><stop offset="0" stop-color="#ca7323"/><stop offset="1" stop-color="#f3a11e"/></linearGradient><path class="st26" d="M1570.4 352.6c5.9.2 12.1 1.5 18.2 4.5 11.8 5.3 27 23.4 11.9 39.5-1.8 1.9-3.9 3.6-6.1 5.1l-4.1 4c-.8.8-.8 1.3-.7 1.7.3 1.7 3.5 3.7 4.9 4.4l-1.3 2.7c-.6-.3-5.1-2.4-6.4-5.6-.4.8-.7 1.7-.7 2.6 0 3.8 3.6 7.9 9.9 11.3l-1.4 2.7c-10-5.3-11.5-11-11.5-13.9 0-1.8.6-3.4 1.6-4.9-1.9.7-3.8 1.4-5.7 1.9 33.8-19.5 24.9-48.8-8.6-56z"/><radialGradient id="SVGID_10_" cx="1885.336" cy="451.272" r="57.036" gradientTransform="rotate(-156.621 1700.913 474.864)" gradientUnits="userSpaceOnUse"><stop offset="0" stop-color="#ff9dfc"/><stop offset="1" stop-color="#f8bdd7"/></radialGradient><path class="st27" d="M1492.3 383.8c8.1 3.5.7 12.1 5.7 18.3 5 6.2 29.3 12.5 35.2 16.3 6 3.7.4 16.2-6 18.2s-25.5 4.2-36.7-12.8c-13.9-21-8.1-44.3 1.8-40z"/><path class="st28" d="M1492.3 383.9l.4.2c.1.1.3.2.5.3.2.1.4.3.7.5.5.4 1.1.9 1.5 1.7.4.8.7 1.8.8 2.9.1 1.2 0 2.4-.2 3.8-.1 1.4-.3 3-.1 4.6.2 1.7.8 3.5 2.1 4.9 1.4 1.4 3 2.5 4.7 3.6 3.5 2.1 7.5 3.9 11.8 5.8 4.2 1.9 8.8 3.7 13.3 5.7 1.1.5 2.2 1 3.2 1.6.2.1.5.3.7.4l.2.1.1.1s-.2-.1-.1 0l.4.3c.1.2.1.2.3.3.1.1.2.3.3.5.3.7.5 1.5.4 2.5-.1 1-.3 2.1-.7 3.1-.4 1-.9 2.1-1.6 3-.6 1-1.3 1.8-2.1 2.5s-1.6 1.3-2.4 1.5h-.1c.1 0 0 0 0 0h-.1l-.2.1-.5.1-.5.1-.4.1c-.6.1-1.1.2-1.8.3-2.4.4-5 .6-7.4.5l-1.9-.1c-.6-.1-1.2-.2-1.8-.2l-1.8-.3c-.6-.1-1.2-.2-1.8-.4-4.7-1.3-9-3.5-12.4-6.8-.8-.8-1.7-1.6-2.4-2.6-.4-.5-.7-.9-1.1-1.4-.2-.2-.4-.5-.5-.7l-.5-.7c-.7-1-1.3-2-1.9-2.9-.6-1-1.1-2-1.6-3-2.1-4-3.4-8.1-4.2-12-.8-3.9-.9-7.6-.5-10.8.4-3.2 1.4-5.9 2.9-7.7.7-.9 1.6-1.5 2.4-1.8.8-.4 1.6-.3 2.2-.3.3 0 .6.1.8.1.2 0 .4.1.6.2.1.3.3.3.3.3zm.1-.2s-.2-.1-.5-.2c-.2 0-.3-.1-.6-.2-.2 0-.5-.1-.8-.2-.6 0-1.5 0-2.3.3-.9.3-1.8 1-2.5 1.9-1.6 1.8-2.6 4.6-3.1 7.9-.5 3.2-.5 7 .1 11s1.8 8.2 3.7 12.5c1.9 4.2 4.4 8.5 7.9 12.1.2.2.4.5.6.7l.7.6c.5.4 1 .8 1.4 1.3.5.4 1 .8 1.6 1.1.5.4 1 .8 1.6 1.1 1.1.6 2.3 1.3 3.5 1.8.6.2 1.2.6 1.8.8.6.2 1.3.4 1.9.6 2.6.7 5.2 1.2 7.9 1.3 2.7.1 5.4 0 8.1-.4 1.3-.2 2.7-.5 4-.9 1.3-.4 2.5-1.3 3.5-2.2 2-1.9 3.4-4.2 4.3-6.8.4-1.3.7-2.6.8-3.9 0-1.3-.2-2.7-.9-3.9-.3-.6-.8-1.1-1.3-1.5l-.4-.3c-.2-.1-.3-.2-.4-.3-.3-.2-.6-.3-.9-.5-1.2-.6-2.3-1.1-3.5-1.5-4.7-1.9-9.3-3.4-13.6-5.1-4.3-1.6-8.4-3.3-11.9-5.2-1.7-1-3.4-2-4.7-3.3-1.3-1.3-1.9-3-2.1-4.5-.2-1.6-.1-3.1 0-4.5s.2-2.7.1-3.9c-.1-1.2-.4-2.3-.8-3.1-.5-.8-1.1-1.4-1.6-1.7-.3-.2-.5-.3-.7-.5-.2-.1-.4-.2-.5-.3-.3-.1-.4-.1-.4-.1z"/><path class="st28" d="M1520.6 423s-.7 0-1.8-.1-2.8-.4-4.7-.8c-.9-.3-2-.5-3-.9-1.1-.4-2.1-.8-3.2-1.4-1.1-.5-2.1-1.2-3.2-1.9-1-.7-2.1-1.5-3-2.4-1-.9-1.8-1.8-2.6-2.8-.4-.5-.8-1-1.1-1.5-.3-.5-.7-1-1-1.5l-.9-1.5c-.3-.5-.5-1-.8-1.5-.3-.5-.4-1-.7-1.5-.2-.5-.4-.9-.6-1.4-.3-.9-.7-1.8-.9-2.5-.2-.8-.5-1.4-.6-2-.3-1.1-.5-1.8-.5-1.8s.1.7.2 1.8c.1.6.2 1.3.3 2.1.1.4.1.8.3 1.3.1.4.2.9.4 1.4.1.5.3 1 .5 1.5s.3 1.1.6 1.6c.2.5.5 1.1.7 1.6.3.5.6 1.1.9 1.7.3.5.7 1.1 1 1.7.4.5.8 1.1 1.2 1.6.8 1 1.7 2.1 2.7 3 1 .9 2.1 1.7 3.2 2.5 1.1.7 2.3 1.4 3.5 1.9 1.2.5 2.3.9 3.4 1.2 1.1.3 2.2.5 3.2.7 2 .3 3.7.3 4.8.3 1-.2 1.7-.4 1.7-.4z"/></svg>