<svg xmlns="http://www.w3.org/2000/svg" viewBox="0 0 263.4 312.1"><style>.st0,.st1{fill:#49226b}.st0{fill-rule:evenodd;clip-rule:evenodd;opacity:.7}.st1{opacity:.5;enable-background:new}.st2{fill:url(#SVGID_1_)}.st3{fill:#f39c12}.st4{fill:#f6a213}.st5{opacity:.8;fill:url(#SVGID_2_);enable-background:new}.st6{fill:#dd7c1b}.st7{opacity:.5;fill:#f39c12;enable-background:new}.st8{fill:#fff}.st9{fill:#262626}.st10{fill:#ffd278}.st11{fill:#d38411}</style><path class="st0" d="M213.4 213.4c-40 40-104.8 40-144.8 0L30 174.8C-10 134.8-10 70 30 30c40-40 104.8-40 144.8 0l38.6 38.5c40 40 40 104.9 0 144.9z" id="Layer_1"/><g id="Layer_2"><ellipse class="st1" cx="104.9" cy="304.7" rx="85" ry="7.4"/><linearGradient id="SVGID_1_" gradientUnits="userSpaceOnUse" x1="116.609" y1="430.978" x2="144.989" y2="430.978" gradientTransform="matrix(1 0 0 -1 0 663.351)"><stop offset="0" stop-color="#dd8b12"/><stop offset="1" stop-color="#f39c12"/></linearGradient><path class="st2" d="M109.9 250.2c10.4-.1 17.2-54.3 36.5-55.1 16.5-.5 7 50-18.3 74.5-9.9-.3-19.9-17.9-18.2-19.4z"/><path class="st3" d="M98.8 258.1s5.5.6 8.7 2.8c-1.2-1.7-7.7-10.2-1.6-21.5 11.2 2.8 11.1 26.5 23.4 29.2-7.9 10.5-26.3 2.6-30.5-10.5zm84.2-33.6c6.6 2 13 2.7 19 2.6 23.6-.7 41.8-15.8 50.7-25.9 2.9-3.2 4.8-6 5.6-7.5 3.2-5.9-.6-5.3-2.5-4.7-.6.2-1 .4-1 .4s6.7-6.2 8.3-9c2.9-8.3-22.3.2-26.5 6.4 2.7-11.5.3-16.1-3.2-15.6-5.3 35.5-29.7 32.2-44.7 26.4-7.1-2.7-12.1-6-12.1-6s.4 5.3 1.1 11.6c1.3 8.8 3 19.6 5.3 21.3z"/><path class="st4" d="M38.9 304c14 .5 53.9-1.3 73.3-4.8 4.2-.8 7.5-1.6 9.3-2.6-1 .8-.8 4.3 2.1 1.3 0-.1.1-.1.1-.2 2.6-3 31.2-16 41.1-2.1 2.2-1.9 22.4-24.7 31.4-60.7 6.4-25.9 7.1-58.6-8.9-95.4-2.8-6.5-10.9-20.3-25.4-26.6-13.1-5.7-31.3-5.5-55.8 11.2-5.6 4.1-6.1 8.2 0 8.3-10.9 3.6-28 25.7-13.1 24.4 4.3-.6 8.6-2.6 10.7-5-5.2 11.8-4.2 27.2 2.9 21.3 8.5-8.7 13.8-25.6 19-17.5 2.8 5.5 5.1 16 6.8 28.7 4.5 35.6 3.3 89.5-10.8 107.2v.1c-3.5-.8-3.1 2-1.2 2.7 2 .7-59.9-4.6-39.1 3.1-8-.7-58.4.7-42.4 6.6z"/><linearGradient id="SVGID_2_" gradientUnits="userSpaceOnUse" x1="132.67" y1="380.162" x2="71.751" y2="494.08" gradientTransform="matrix(1 0 0 -1 0 663.351)"><stop offset="0" stop-color="#dd7c1b"/><stop offset="1" stop-color="#f39c12"/></linearGradient><path class="st5" d="M140.8 164.2c-1-19.3 1.2-37.8 6-54.7-11.1-.3-24.6 3.5-40.8 14.6-5.6 4.1-6.1 8.2 0 8.3-10.8 3.6-27.9 25.7-13 24.4 4.3-.6 8.6-2.6 10.7-5-5.2 11.8-4.2 27.2 2.9 21.3 8.5-8.7 13.8-25.6 19-17.5 10.5 20.9 15.2 111.9-4 135.9v.1c-3.5-.8-3.1 2-1.2 2.7 2 .7-59.9-4.6-39.1 3.1-8-.5-58.4.9-42.4 6.7 17.1.7 72.7-2.2 82.5-7.4-1 .8-.8 4.3 2.1 1.3 0-.1.1-.1.1-.2 2.6-3 31.2-16 41.1-2.1 1.5-1.3 11.1-12 19.9-29.8-24.6-23.2-41.6-59.8-43.8-101.7z"/><path class="st6" d="M127.6 300.8s1.5-6.9 4.7-4.6c2.3 1.9-1.2 8-2.6 8.5-1.4.4-3.3 0-2.1-3.9z"/><path class="st6" d="M133.9 300.8c-1-.8-.7-8 2.9-6.4 1.5.7.1 5.3-.3 5.7-.4.7-1.6 1.5-2.6.7zm23.8-7.7c1.4-1.3 5.9-.2 2.9 4.5-2.8 3.7-4.8 2.2-5.3 1.5-1-1.4 1-4.6 2.4-6zm5.1 3.8c.8-.2 3-.3.9 3-1.8 2.7-3.1 2-3.5 1.3-.8-.9 1.6-4 2.6-4.3z"/><path class="st7" d="M116.3 295.5S86 293.3 85 295c-1 1.6 3.9 3 3.9 3s-34.5.4-35.2 2.6c-.6 2 61.7-.8 62.6-5.1z"/><path class="st8" d="M162.2 151c3.6-7.9-.6-16.2-6.1-20.5-5.5-4.3-22.5-3.6-18.4 14.9 5.2 16.6 20.9 13.5 24.5 5.6z"/><path d="M158.3 148.6c.4-1 .6-2 .4-3.2-.4-3.4-3.5-5.7-6.9-5.3-3.4.4-5.7 3.5-5.3 6.9.2 1.5 1 2.9 2 3.8 3.1-1.8 6.6-2.7 9.8-2.2z"/><path class="st9" d="M171.1 153.2l.9-.7 10.7 1 .2 2.2-1.6 2.3-5.5-.6-4.7-4.2z"/><path class="st10" d="M170.3 151.2s-.8.5 0 1.5c2 .1 1.5 1.1 4.9 1.5 2.4.2 8.1-1.2 9.4 3.4 2.1 9.8 11.8.5 13-3.9 1.2-4.4 4.4-17.1-7.9-22.2-9.4-3.5-23.8 4-19.7 17.6.3 1.2.3 2.1.3 2.1z"/><path class="st11" d="M170.2 152.7s-.7.5.6 1.1c2.5 1.2 2.7 7.3 4.4 9.8 1.6 2.5 5.9 5.2 9.8-4.4-.5-.5-.2-3.4-3-4.6-.1.8-.2 2.9-4.9 1.5-1.6-.5-3.3-1.3-5.4-3.2-.4-.1-1.1-.3-1.5-.2z"/></g></svg>