<svg xmlns="http://www.w3.org/2000/svg" width="300" height="305" viewBox="0 0 300 305"><path fill="#EBEBEB" stroke="#CDCCCC" stroke-width="12" stroke-linecap="round" stroke-linejoin="round" stroke-miterlimit="10" d="M258.295 82.342c19.374 27.036 33.522 62.035 28.005 94.084-4.322 32.192-28.312 61.441-57.509 80.309-21.274 14.296-56.562 29.866-96.021 26.334-19.156-1.467-38.005-7.231-53.324-16.804-15.517-9.448-27.5-22.705-37.517-36.332-20.076-26.625-30.168-63.724-21.008-96.551 7.89-33.111 35.031-61.951 60.125-78.57 27.256-18.988 61.269-35.813 93.189-32.202 32.048 2.479 62 25.394 84.06 59.732z"/><g opacity=".5"><ellipse transform="rotate(-4.686 178.425 82.969)" fill="#CDCCCC" cx="178.519" cy="83.008" rx="18.665" ry="20.984"/><path fill="#CDCCCC" d="M70.369 162.295c.682 9.018-4.768 16.861-12.172 17.519-7.406.655-13.963-6.12-14.645-15.138-.682-9.017 4.768-16.859 12.173-17.518 7.405-.655 13.962 6.12 14.644 15.137zm21.301-53.361c-.971 6.568-6.489 11.348-12.324 10.678-5.833-.67-9.776-6.537-8.804-13.105.972-6.567 6.488-11.348 12.323-10.679 5.835.671 9.777 6.538 8.805 13.106zm11.518 21.934c-.317 2.145-2.12 3.705-4.025 3.485-1.904-.218-3.193-2.134-2.875-4.278.317-2.145 2.119-3.707 4.024-3.488 1.905.221 3.192 2.136 2.876 4.281zm88.278 39.787c4.445 2.936 6.669 7.57 4.964 10.347-1.699 2.78-6.681 2.653-11.126-.283-4.442-2.938-6.667-7.57-4.967-10.349 1.702-2.779 6.684-2.649 11.129.285zm-45.198-90.777c1.348.897 1.885 2.522 1.197 3.627-.686 1.107-2.334 1.277-3.682.379-1.346-.898-1.884-2.523-1.199-3.629.687-1.106 2.335-1.274 3.684-.377zm70.389-5.296c1.301-.965 3.013-.92 3.82.102.808 1.02.41 2.627-.894 3.591-1.301.963-3.012.917-3.82-.101-.808-1.021-.407-2.628.894-3.592zm37.629 77.002c-.931 9.285-8.903 15.565-17.807 14.028s-15.368-10.308-14.437-19.592c.931-9.285 8.902-15.563 17.807-14.028 8.905 1.538 15.369 10.309 14.437 19.592zm-95.075 85.157c-1.031 11.483-9.828 19.253-19.656 17.352-9.826-1.898-16.961-12.75-15.933-24.233 1.027-11.483 9.826-19.252 19.653-17.352 9.829 1.9 16.961 12.75 15.936 24.233z"/><path opacity=".6" fill="#B3B3B3" d="M197.122 81.484c-.946-11.552-10.042-20.233-20.317-19.391a16.787 16.787 0 0 0-4.236.914c9.217.614 16.961 8.796 17.83 19.404.813 9.893-4.621 18.676-12.651 21.525.819.055 1.649.055 2.486-.013 10.275-.842 17.835-10.889 16.888-22.439zM70.369 162.295c-.683-9.017-7.239-15.792-14.644-15.137a11.416 11.416 0 0 0-3.055.713c6.644.48 12.226 6.868 12.853 15.149.584 7.723-3.332 14.577-9.12 16.802.591.044 1.189.044 1.793-.009 7.405-.657 12.855-8.5 12.173-17.518zm21.301-53.361c.972-6.568-2.97-12.435-8.805-13.106a9.694 9.694 0 0 0-2.48.041c5.058 1.367 8.311 6.805 7.419 12.837-.833 5.625-5 9.935-9.844 10.636.45.123.912.216 1.386.27 5.835.67 11.353-4.11 12.324-10.678zm162.616 42.65c.932-9.283-5.532-18.054-14.437-19.592a15.587 15.587 0 0 0-3.758-.188c7.782 2.455 13.166 10.545 12.312 19.071-.798 7.951-6.762 13.692-14.05 14.214a16.17 16.17 0 0 0 2.126.522c8.904 1.538 16.876-4.742 17.807-14.027zm-95.075 85.157c1.025-11.483-6.107-22.333-15.936-24.233a15.36 15.36 0 0 0-4.146-.232c8.59 3.037 14.531 13.044 13.586 23.59-.879 9.834-7.463 16.938-15.506 17.583a16.08 16.08 0 0 0 2.346.645c9.828 1.9 18.625-5.869 19.656-17.353z"/></g></svg>