<svg width="32" height="15" viewBox="0 0 32 15" fill="none" xmlns="http://www.w3.org/2000/svg">
<g clip-path="url(#clip0_1882_52006)">
<path d="M32 -1.90735e-06C32 -1.90735e-06 31.8204 3.61389 28.107 2.8076C28.107 2.8076 27.9044 9.58078 21.991 9.97468C16.0776 10.3686 15.0205 6.06055 14.6719 4.47943C14.6719 4.47943 9.49537 5.3568 10.0402 1.24405e-08L32 -1.90735e-06Z" fill="#F7AB2A"/>
<path d="M22.0707 7.89318L22.1469 6.61678C22.1633 6.3402 22.3617 6.10537 22.6379 6.03507L23.9124 5.7109C24.0225 5.68297 24.031 5.5347 23.9254 5.49479L22.698 5.03003C22.4319 4.92935 22.263 4.67394 22.2794 4.39705L22.3557 3.12065C22.3623 3.01045 22.2197 2.95673 22.1478 3.04207L21.3133 4.03114C21.1324 4.24541 20.83 4.32246 20.5639 4.22177L19.3365 3.75701C19.2305 3.7168 19.1337 3.8316 19.1951 3.92462L19.9066 5.00056C20.0606 5.23386 20.0426 5.53685 19.8616 5.75112L19.0271 6.74019C18.955 6.82553 19.0376 6.95047 19.1476 6.92253L20.4222 6.59837C20.6984 6.52807 20.9897 6.63858 21.1441 6.87157L21.8555 7.94752C21.9169 8.04023 22.065 8.00277 22.0713 7.89257L22.0707 7.89318Z" fill="#6D3498"/>
<path d="M29.6758 1.92776L29.6758 1.90798C29.6758 1.75618 29.7778 1.62164 29.9284 1.57485L29.9479 1.56872C30.0174 1.54699 30.0174 1.45313 29.9479 1.4314L29.9284 1.42527C29.7778 1.37848 29.6758 1.24395 29.6758 1.09214L29.6758 1.07237C29.6758 1.00245 29.5825 0.973207 29.5395 1.03003L29.5273 1.0459C29.4342 1.16874 29.2691 1.21999 29.1186 1.1732L29.0991 1.16707C29.0296 1.14534 28.972 1.22166 29.0148 1.27821L29.027 1.29408C29.12 1.41692 29.12 1.58321 29.027 1.70604L29.0148 1.72192C28.9718 1.77846 29.0296 1.85478 29.0991 1.83305L29.1186 1.82693C29.2691 1.78013 29.4342 1.83138 29.5273 1.95422L29.5395 1.97009C29.5825 2.02664 29.6758 1.99767 29.6758 1.92776Z" fill="#6D3498"/>
<path d="M13.2108 2.90739L13.2455 2.68817C13.2819 2.46048 13.4605 2.28189 13.6882 2.24592L13.9074 2.21121C14.0123 2.19471 14.0348 2.05336 13.94 2.00511L13.7423 1.90439C13.5371 1.79943 13.4224 1.57429 13.4588 1.3466L13.4935 1.12738C13.51 1.02242 13.3826 0.95725 13.3077 1.03258L13.1507 1.18959C12.9873 1.35253 12.7381 1.39188 12.5324 1.28693L12.3348 1.18621C12.24 1.13796 12.1388 1.23911 12.1871 1.33348L12.2878 1.53154C12.3923 1.73722 12.3525 1.98649 12.1896 2.14943L12.0326 2.30643C11.9573 2.38134 12.0224 2.50915 12.1274 2.49222L12.3466 2.45752C12.5743 2.42155 12.7994 2.53624 12.904 2.74192L13.0047 2.93998C13.0529 3.03477 13.1943 3.01235 13.2108 2.90739Z" fill="#6D3498"/>
</g>
<defs>
<clipPath id="clip0_1882_52006">
<rect width="32" height="15" fill="white" transform="matrix(1 8.74228e-08 8.74228e-08 -1 0 15)"/>
</clipPath>
</defs>
</svg>
