<svg width="22" height="10" viewBox="0 0 22 10" fill="none" xmlns="http://www.w3.org/2000/svg">
<g clip-path="url(#clip0_1882_52001)">
<path d="M0 10.0003C0 10.0003 0.179584 6.38645 3.89301 7.19273C3.89301 7.19273 4.09565 0.419695 10.0091 0.0258109C15.9225 -0.368074 16.9796 3.93985 17.3282 5.52094C17.3282 5.52094 22.5047 4.64359 21.9599 10.0003H0Z" fill="#F7AB2A"/>
<path d="M12.0707 3.10682L12.1469 4.38322C12.1633 4.6598 12.3617 4.89463 12.6379 4.96493L13.9124 5.2891C14.0225 5.31703 14.031 5.4653 13.9254 5.50521L12.698 5.96997C12.4319 6.07065 12.263 6.32606 12.2794 6.60295L12.3557 7.87935C12.3623 7.98955 12.2197 8.04327 12.1478 7.95793L11.3133 6.96886C11.1324 6.75459 10.83 6.67754 10.5639 6.77823L9.33651 7.24299C9.23053 7.2832 9.13373 7.1684 9.1951 7.07538L9.90656 5.99944C10.0606 5.76614 10.0426 5.46315 9.86164 5.24888L9.02712 4.25981C8.955 4.17447 9.03756 4.04953 9.14765 4.07747L10.4222 4.40163C10.6984 4.47193 10.9897 4.36142 11.1441 4.12843L11.8555 3.05248C11.9169 2.95977 12.065 2.99723 12.0713 3.10743L12.0707 3.10682Z" fill="#6D3498"/>
<path d="M2.73052 8.3968V8.42308C2.73052 8.62483 2.86322 8.80364 3.05907 8.86583L3.0844 8.87397C3.17475 8.90285 3.17475 9.0276 3.0844 9.05648L3.05907 9.06462C2.86322 9.12681 2.73052 9.30562 2.73052 9.50737V9.53366C2.73052 9.62657 2.60916 9.66544 2.5532 9.58992L2.53733 9.56882C2.41634 9.40557 2.2016 9.33745 2.00576 9.39965L1.98043 9.40779C1.89007 9.43667 1.81521 9.33523 1.87079 9.26008L1.88666 9.23898C2.00765 9.07573 2.00765 8.85472 1.88666 8.69147L1.87079 8.67037C1.81483 8.59522 1.89007 8.49379 1.98043 8.52266L2.00576 8.53081C2.2016 8.593 2.41634 8.52488 2.53733 8.36163L2.5532 8.34053C2.60916 8.26538 2.73052 8.30388 2.73052 8.3968Z" fill="#6D3498"/>
<path d="M19.2613 7.29317L19.2923 7.48493C19.3249 7.68409 19.4844 7.84031 19.6878 7.87178L19.8837 7.90213C19.9774 7.91657 19.9975 8.04022 19.9128 8.08242L19.7362 8.17052C19.5528 8.26233 19.4504 8.45927 19.4829 8.65844L19.5139 8.8502C19.5286 8.942 19.4148 8.99901 19.3479 8.93312L19.2077 8.79578C19.0617 8.65325 18.839 8.61883 18.6553 8.71063L18.4787 8.79874C18.394 8.84094 18.3037 8.75246 18.3468 8.66991L18.4368 8.49666C18.5302 8.31675 18.4946 8.09871 18.3491 7.95618L18.2088 7.81884C18.1415 7.75332 18.1997 7.64152 18.2935 7.65633L18.4893 7.68668C18.6927 7.71815 18.8939 7.61783 18.9872 7.43791L19.0772 7.26466C19.1203 7.18174 19.2466 7.20136 19.2613 7.29317Z" fill="#6D3498"/>
</g>
<defs>
<clipPath id="clip0_1882_52001">
<rect width="22" height="10" fill="white"/>
</clipPath>
</defs>
</svg>
