<?xml version="1.0" standalone="no"?>
<!DOCTYPE svg PUBLIC "-//W3C//DTD SVG 1.1//EN" "http://www.w3.org/Graphics/SVG/1.1/DTD/svg11.dtd" >
<svg xmlns="http://www.w3.org/2000/svg" xmlns:xlink="http://www.w3.org/1999/xlink" version="1.1">
<metadata>
Created by FontForge 20170731 at Fri Jul  1 15:29:06 2022
 By Aleksey,,,
Copyright 2022 The Noto Project Authors (https://github.com/notofonts/georgian)
</metadata>
<defs>
<font id="NotoSansGeorgian-SemiBold" horiz-adv-x="572" >
  <font-face 
    font-family="Noto Sans Georgian SemiBold"
    font-weight="600"
    font-stretch="normal"
    units-per-em="1000"
    panose-1="2 11 5 2 4 5 4 2 2 4"
    ascent="800"
    descent="-200"
    x-height="542"
    cap-height="714"
    bbox="-516 -250 1119 1067"
    underline-thickness="50"
    underline-position="-175"
    unicode-range="U+000D-2D2D"
  />
<missing-glyph horiz-adv-x="600" 
d="M94 0v714h411v-714h-411zM145 51h309v612h-309v-612z" />
    <glyph glyph-name=".notdef" horiz-adv-x="600" 
d="M94 0v714h411v-714h-411zM145 51h309v612h-309v-612z" />
    <glyph glyph-name=".null" horiz-adv-x="0" 
 />
    <glyph glyph-name="nonmarkingreturn" horiz-adv-x="333" 
 />
    <glyph glyph-name="NULL" horiz-adv-x="0" 
 />
    <glyph glyph-name="NULL" horiz-adv-x="0" 
 />
    <glyph glyph-name="CR" unicode="&#xd;" horiz-adv-x="260" 
 />
    <glyph glyph-name="space" unicode=" " horiz-adv-x="260" 
 />
    <glyph glyph-name="exclam" unicode="!" horiz-adv-x="280" 
d="M188 223h-96l-25 491h146zM63 64q0 42 22 59.5t55 17.5q31 0 53.5 -17t22.5 -60q0 -41 -22.5 -59t-53.5 -18q-33 0 -55 18t-22 59z" />
    <glyph glyph-name="quotedbl" unicode="&#x22;" horiz-adv-x="448" 
d="M186 714l-20 -258h-81l-20 258h121zM383 714l-20 -258h-81l-20 258h121z" />
    <glyph glyph-name="numbersign" unicode="#" horiz-adv-x="646" 
d="M485 421l-26 -131h130v-88h-147l-39 -202h-93l39 202h-113l-38 -202h-92l37 202h-120v88h137l26 131h-127v88h143l39 204h93l-38 -204h114l39 204h91l-38 -204h120v-88h-137zM252 290h114l26 131h-114z" />
    <glyph glyph-name="dollar" unicode="$" 
d="M253 43q-61 2 -112.5 12t-89.5 27v112q38 -18 94 -33t108 -17v170q-73 26 -117.5 52.5t-65 61t-20.5 82.5q0 50 25.5 86t71.5 57.5t106 25.5v80h66v-78q55 -2 102 -13t90 -29l-39 -99q-37 15 -76.5 24.5t-76.5 12.5v-166q58 -19 105.5 -42t75 -57.5t27.5 -89.5
q0 -72 -53 -119t-155 -57v-104h-66v101zM319 148q43 6 63.5 23t20.5 44q0 18 -8.5 31t-27 23.5t-48.5 20.5v-142zM253 575q-26 -3 -43.5 -11t-26.5 -21t-9 -30q0 -18 7.5 -31.5t25 -24.5t46.5 -21v139z" />
    <glyph glyph-name="percent" unicode="%" horiz-adv-x="875" 
d="M197 724q81 0 122.5 -58.5t41.5 -164.5t-39.5 -165.5t-123.5 -59.5q-78 0 -119 59.5t-41 165.5t38 164.5t121 58.5zM198 637q-29 0 -42.5 -34t-13.5 -102q0 -69 13.5 -103.5t42.5 -34.5q30 0 44 34.5t14 102.5q0 69 -14 103t-44 34zM686 714l-396 -714h-102l396 714h102z
M674 439q80 0 121.5 -58.5t41.5 -164.5t-39.5 -165.5t-123.5 -59.5q-78 0 -119 59.5t-41 165.5t38 164.5t122 58.5zM674 351q-29 0 -42.5 -33.5t-13.5 -102.5t13.5 -103.5t42.5 -34.5q30 0 44.5 34t14.5 104q0 69 -14.5 102.5t-44.5 33.5z" />
    <glyph glyph-name="ampersand" unicode="&#x26;" horiz-adv-x="743" 
d="M308 724q56 0 98.5 -18t67 -52.5t24.5 -83.5q0 -67 -41 -113t-102 -81l159 -154q22 33 37.5 71.5t26.5 79.5h130q-16 -59 -43 -119.5t-69 -110.5l146 -143h-159l-68 66q-29 -23 -63.5 -40t-74 -26.5t-86.5 -9.5q-76 0 -131.5 24.5t-85 69.5t-29.5 106q0 51 16.5 88t48 65
t75.5 52q-25 28 -42 54.5t-26 54t-9 59.5q0 50 25 86.5t70 55.5t105 19zM259 319q-26 -16 -44 -33.5t-28 -38t-10 -47.5q0 -47 34 -75t87 -28q45 0 79.5 13t60.5 33zM306 626q-31 0 -55 -16.5t-24 -52.5q0 -29 14.5 -55t41.5 -55q49 27 72.5 53t23.5 60q0 32 -21.5 49
t-51.5 17z" />
    <glyph glyph-name="quotesingle" unicode="'" horiz-adv-x="251" 
d="M186 714l-20 -258h-81l-20 258h121z" />
    <glyph glyph-name="parenleft" unicode="(" horiz-adv-x="324" 
d="M40 274q0 82 15.5 160t48.5 149t83 131h107q-68 -94 -103.5 -207t-35.5 -232q0 -77 16 -153.5t46.5 -147t75.5 -132.5h-106q-50 59 -83 128.5t-48.5 146.5t-15.5 157z" />
    <glyph glyph-name="parenright" unicode=")" horiz-adv-x="324" 
d="M284 274q0 -80 -15.5 -157t-48 -146.5t-83.5 -128.5h-106q45 62 76 133t47 147t16 153q0 79 -16 156t-46.5 149t-77.5 134h107q51 -60 83.5 -131t48 -149t15.5 -160z" />
    <glyph glyph-name="asterisk" unicode="*" horiz-adv-x="547" 
d="M331 760l-20 -185l185 53l16 -112l-173 -13l113 -150l-102 -54l-79 161l-71 -161l-105 54l111 150l-171 14l17 111l182 -53l-20 185h117z" />
    <glyph glyph-name="plus" unicode="+" 
d="M332 399h193v-93h-193v-195h-94v195h-192v93h192v197h94v-197z" />
    <glyph glyph-name="comma" unicode="," horiz-adv-x="279" 
d="M212 105q-9 -35 -23 -75.5t-30 -81t-33 -77.5h-91q10 39 19 82.5t17 85.5t13 77h121z" />
    <glyph glyph-name="hyphen" unicode="-" horiz-adv-x="322" 
d="M34 215v106h254v-106h-254z" />
    <glyph glyph-name="period" unicode="." horiz-adv-x="279" 
d="M63 64q0 42 22 59.5t54 17.5t54.5 -17t22.5 -60q0 -41 -22.5 -59t-54.5 -18t-54 18t-22 59z" />
    <glyph glyph-name="slash" unicode="/" horiz-adv-x="398" 
d="M391 714l-266 -714h-117l266 714h117z" />
    <glyph glyph-name="zero" unicode="0" 
d="M530 358q0 -87 -13 -155t-42.5 -115.5t-76 -72.5t-113.5 -25q-84 0 -138 44t-80 126.5t-26 197.5t24 197t77.5 126t142.5 44q84 0 138 -43.5t80.5 -126t26.5 -197.5zM168 357q0 -87 11 -145.5t36.5 -88t69.5 -29.5t69.5 29t37 88t11.5 146q0 88 -11.5 146.5t-37 88
t-69.5 29.5t-69.5 -29.5t-36.5 -87.5t-11 -147z" />
    <glyph glyph-name="one" unicode="1" 
d="M391 0h-126v445q0 22 0.5 45t1.5 46.5t2 43.5q-10 -10 -25 -23.5t-31 -27.5l-80 -64l-63 78l216 171h105v-714z" />
    <glyph glyph-name="two" unicode="2" 
d="M532 0h-489v93l182 184q54 55 88.5 94.5t51 73.5t16.5 74q0 49 -28 73.5t-74 24.5q-45 0 -84 -18.5t-81 -52.5l-69 83q30 26 64 47.5t77 34.5t100 13q69 0 118.5 -24.5t76.5 -67.5t27 -100q0 -58 -23 -107t-66.5 -96.5t-103.5 -104.5l-113 -109v-6h330v-109z" />
    <glyph glyph-name="three" unicode="3" 
d="M504 551q0 -48 -19.5 -84t-53.5 -58.5t-79 -32.5v-3q86 -10 130 -53t44 -114q0 -62 -30 -111t-92.5 -77t-160.5 -28q-58 0 -108 9.5t-94 29.5v111q45 -23 96 -35t96 -12q87 0 123 31.5t36 87.5q0 36 -18 59t-58.5 34.5t-105.5 11.5h-60v101h61q63 0 99.5 14t52 39
t15.5 58q0 43 -28 67t-84 24q-36 0 -65 -8t-53 -20.5t-45 -26.5l-60 87q40 30 96.5 51t132.5 21q111 0 171.5 -46.5t60.5 -126.5z" />
    <glyph glyph-name="four" unicode="4" 
d="M554 153h-93v-153h-124v153h-318v94l321 469h121v-460h93v-103zM337 416q0 21 0.5 43.5t1.5 44.5t2 40t2 28h-4q-9 -19 -19.5 -39.5t-23.5 -38.5l-162 -238h203v160z" />
    <glyph glyph-name="five" unicode="5" 
d="M291 449q68 0 120 -25t81.5 -72.5t29.5 -116.5q0 -76 -32 -131t-94 -84.5t-152 -29.5q-56 0 -105 10t-85 29v112q37 -20 89 -33t98 -13q48 0 82 13.5t52 42t18 72.5q0 60 -38 91t-118 31q-28 0 -60.5 -5t-53.5 -10l-54 30l27 354h376v-110h-265l-15 -165q17 3 40.5 6.5
t58.5 3.5z" />
    <glyph glyph-name="six" unicode="6" 
d="M43 304q0 62 8.5 122t30.5 113.5t61.5 95t99.5 65t146 23.5q21 0 48 -2t45 -6v-104q-19 6 -41.5 8.5t-44.5 2.5q-68 0 -112.5 -18.5t-70 -52.5t-37 -78.5t-14.5 -98.5h6q15 24 36.5 43t52.5 30t72 11q62 0 108 -26.5t71.5 -76t25.5 -120.5q0 -76 -29 -131t-82 -84.5
t-126 -29.5q-54 0 -100 19t-81 57.5t-54 98t-19 139.5zM294 93q52 0 84 34.5t32 106.5q0 58 -28 91.5t-84 33.5q-39 0 -67.5 -16.5t-44.5 -42t-16 -52.5q0 -28 7.5 -55t23.5 -50t39.5 -36.5t53.5 -13.5z" />
    <glyph glyph-name="seven" unicode="7" 
d="M120 0l278 605h-365v109h500v-85l-278 -629h-135z" />
    <glyph glyph-name="eight" unicode="8" 
d="M286 723q62 0 112 -19t80 -57t30 -95q0 -43 -17.5 -75.5t-47 -56.5t-66.5 -43q41 -20 76 -46.5t56.5 -62t21.5 -83.5q0 -59 -30.5 -103t-85.5 -68t-128 -24q-79 0 -134 23t-84 66t-29 102q0 49 19.5 85t51.5 62.5t70 44.5q-33 20 -60 45.5t-42.5 58t-15.5 76.5
q0 56 30.5 94t81 57t111.5 19zM160 187q0 -44 31 -72.5t94 -28.5q62 0 94 27.5t32 73.5q0 30 -17 53t-44 41t-60 33l-14 7q-36 -16 -62 -35.5t-40 -43.5t-14 -55zM285 628q-44 0 -72.5 -22t-28.5 -62q0 -29 14 -50t37.5 -36t51.5 -29q28 13 50.5 28t36 36t13.5 51
q0 40 -28.5 62t-73.5 22z" />
    <glyph glyph-name="nine" unicode="9" 
d="M530 409q0 -61 -9 -121.5t-31 -114t-61 -95t-99.5 -65t-146.5 -23.5q-20 0 -47.5 2t-45.5 6v104q19 -5 41.5 -8t44.5 -3q68 0 112.5 18.5t70 52t37.5 79t14 97.5h-6q-15 -23 -35.5 -42t-51 -30t-76.5 -11q-61 0 -106.5 26t-70.5 75.5t-25 120.5q0 77 29 132t82.5 84.5
t125.5 29.5q54 0 100 -19.5t80.5 -58t54 -97.5t19.5 -139zM278 619q-51 0 -83 -34t-32 -106q0 -59 27.5 -92.5t84.5 -33.5q39 0 67.5 17t44.5 42t16 53q0 27 -8 54.5t-23.5 50.5t-39 36t-54.5 13z" />
    <glyph glyph-name="colon" unicode=":" horiz-adv-x="279" 
d="M63 64q0 42 22 59.5t54 17.5t54.5 -17t22.5 -60q0 -41 -22.5 -59t-54.5 -18t-54 18t-22 59zM63 476q0 43 22 60.5t54 17.5t54.5 -17t22.5 -61q0 -41 -22.5 -59t-54.5 -18t-54 18t-22 59z" />
    <glyph glyph-name="semicolon" unicode=";" horiz-adv-x="279" 
d="M209 105q-9 -35 -23 -75.5t-30.5 -81t-32.5 -77.5h-92q7 29 14 61t14 64.5t12.5 63t9.5 56.5h121zM62 476q0 43 22.5 60.5t53.5 17.5q32 0 54.5 -17t22.5 -61q0 -41 -22.5 -59t-54.5 -18q-31 0 -53.5 18t-22.5 59z" />
    <glyph glyph-name="less" unicode="&#x3c;" 
d="M525 105l-479 212v62l479 240v-103l-350 -163l350 -145v-103z" />
    <glyph glyph-name="equal" unicode="=" 
d="M48 402v93h475v-93h-475zM48 209v93h475v-93h-475z" />
    <glyph glyph-name="greater" unicode="&#x3e;" 
d="M46 208l350 144l-350 164v103l479 -240v-62l-479 -212v103z" />
    <glyph glyph-name="question" unicode="?" horiz-adv-x="461" 
d="M137 256q0 35 8.5 61.5t28 50.5t52.5 49q34 26 53.5 45t28.5 37.5t9 42.5q0 38 -26.5 58t-75.5 20q-44 0 -84 -12.5t-80 -33.5l-45 94q46 24 100 40t119 16q100 0 155.5 -49t55.5 -127q0 -43 -13.5 -73.5t-39.5 -56.5t-64 -55q-31 -24 -47.5 -41t-22 -33.5t-5.5 -40.5
v-25h-107v33zM118 64q0 43 22.5 60t54.5 17q31 0 53.5 -17t22.5 -60q0 -41 -22.5 -59t-53.5 -18q-32 0 -54.5 18t-22.5 59z" />
    <glyph glyph-name="at" unicode="@" horiz-adv-x="898" 
d="M845 358q0 -46 -11 -91t-33.5 -81t-55.5 -57.5t-78 -21.5q-41 0 -68.5 20.5t-36.5 51.5h-6q-20 -30 -54 -51t-83 -21q-84 0 -130 52.5t-46 137.5q0 67 28 118t79 80.5t120 29.5q46 0 93.5 -8t73.5 -18l-10 -204q-1 -13 -1 -22.5v-12.5q0 -45 14.5 -60t32.5 -15
q26 0 43.5 24t26.5 63t9 87q0 87 -35.5 148t-96.5 93t-139 32q-82 0 -144 -26t-104.5 -72.5t-64 -109.5t-21.5 -138q0 -93 33.5 -157.5t98 -98t158.5 -33.5q59 0 119 13t109 31v-84q-46 -19 -103 -31t-123 -12q-122 0 -208 44t-132 126.5t-46 198.5q0 92 29.5 170.5
t85.5 137t135 91t177 32.5q79 0 146 -24.5t116 -71t76 -112t27 -148.5zM343 295q0 -58 24 -84t64 -26q52 0 74 38.5t26 100.5l6 115q-12 3 -28 5t-35 2q-48 0 -77 -22t-41.5 -56.5t-12.5 -72.5z" />
    <glyph glyph-name="A" unicode="A" horiz-adv-x="671" 
d="M534 0l-65 189h-269l-64 -189h-136l262 717h146l262 -717h-136zM374 483q-4 14 -12 38t-15.5 49.5t-11.5 42.5q-5 -20 -12.5 -46t-14 -49t-10.5 -35l-63 -184h201z" />
    <glyph glyph-name="B" unicode="B" horiz-adv-x="664" 
d="M308 714q139 0 210.5 -40t71.5 -139q0 -41 -14 -74t-40.5 -54t-65.5 -28v-5q40 -7 71.5 -25.5t50 -53t18.5 -90.5q0 -65 -31 -111t-88.5 -70t-136.5 -24h-261v714h215zM325 423q76 0 104.5 24t28.5 71q0 48 -34 69t-109 21h-94v-185h104zM221 320v-213h116q78 0 108.5 30
t30.5 80q0 32 -13 55t-45 35.5t-87 12.5h-110z" />
    <glyph glyph-name="C" unicode="C" horiz-adv-x="635" 
d="M397 616q-49 0 -87 -18t-64.5 -52t-40 -82t-13.5 -108q0 -81 22 -138.5t67.5 -88.5t114.5 -31q46 0 88.5 9.5t89.5 25.5v-109q-44 -18 -88.5 -26t-102.5 -8q-110 0 -182 45.5t-107 128t-35 193.5q0 81 22.5 148t65 116t105.5 76t145 27q54 0 106.5 -12.5t98.5 -34.5
l-44 -105q-38 17 -78.5 30.5t-82.5 13.5z" />
    <glyph glyph-name="D" unicode="D" horiz-adv-x="736" 
d="M677 364q0 -120 -45.5 -201t-131 -122t-206.5 -41h-201v714h222q111 0 192 -40t125.5 -117.5t44.5 -192.5zM543 360q0 85 -26 140t-77 81.5t-125 26.5h-94v-501h77q124 0 184.5 63.5t60.5 189.5z" />
    <glyph glyph-name="E" unicode="E" horiz-adv-x="558" 
d="M499 0h-406v714h406v-107h-278v-182h260v-107h-260v-210h278v-108z" />
    <glyph glyph-name="F" unicode="F" horiz-adv-x="538" 
d="M219 0h-126v714h405v-107h-279v-210h260v-107h-260v-290z" />
    <glyph glyph-name="G" unicode="G" horiz-adv-x="726" 
d="M378 392h270v-363q-57 -19 -117 -29t-136 -10q-108 0 -183 43t-114 125t-39 200q0 112 44 194t126.5 127t201.5 45q58 0 112.5 -11.5t99.5 -31.5l-44 -105q-34 17 -78.5 28.5t-92.5 11.5q-73 0 -126 -32t-81.5 -90.5t-28.5 -137.5q0 -76 22 -134.5t70 -91t125 -32.5
q38 0 64.5 3.5t48.5 9.5v172h-144v109z" />
    <glyph glyph-name="H" unicode="H" horiz-adv-x="756" 
d="M663 0h-128v317h-314v-317h-128v714h128v-288h314v288h128v-714z" />
    <glyph glyph-name="I" unicode="I" horiz-adv-x="370" 
d="M335 0h-300v73l86 32v503l-86 33v73h300v-73l-86 -33v-503l86 -32v-73z" />
    <glyph glyph-name="J" unicode="J" horiz-adv-x="309" 
d="M8 -202q-28 0 -48 3.5t-36 7.5v107q16 -4 34 -7t38 -3q25 0 47 10t35 37t13 77v684h128v-681q0 -84 -26.5 -135.5t-74 -75.5t-110.5 -24z" />
    <glyph glyph-name="K" unicode="K" horiz-adv-x="647" 
d="M647 0h-147l-212 316l-67 -53v-263h-128v714h128v-336q20 25 41 51l42 52l193 233h145l-262 -314z" />
    <glyph glyph-name="L" unicode="L" horiz-adv-x="550" 
d="M93 0v714h128v-606h298v-108h-426z" />
    <glyph glyph-name="M" unicode="M" horiz-adv-x="929" 
d="M400 0l-196 585h-4q1 -20 3 -56.5t3.5 -79t1.5 -79.5v-370h-115v714h178l188 -561h4l196 561h178v-714h-122v376q0 34 1.5 74.5t3 77t2.5 56.5h-4l-204 -584h-114z" />
    <glyph glyph-name="N" unicode="N" horiz-adv-x="793" 
d="M700 0h-159l-338 560h-4q2 -30 3.5 -63t3 -67.5t2.5 -69.5v-360h-115v714h158l337 -556h3q-1 26 -2 59t-2.5 67.5t-2.5 66.5v363h116v-714z" />
    <glyph glyph-name="O" unicode="O" horiz-adv-x="790" 
d="M731 358q0 -83 -20.5 -150.5t-62 -116.5t-105 -75t-148.5 -26q-86 0 -149.5 26.5t-104.5 75t-61.5 116.5t-20.5 151q0 111 36.5 193t111 127.5t189.5 45.5q113 0 187 -45.5t111 -128t37 -193.5zM194 358q0 -81 21.5 -139t66 -89t113.5 -31q71 0 115 31t65 89t21 139
q0 121 -47 190t-153 69q-70 0 -114.5 -31t-66 -89t-21.5 -139z" />
    <glyph glyph-name="P" unicode="P" horiz-adv-x="619" 
d="M306 714q139 0 202.5 -58t63.5 -160q0 -46 -14 -87.5t-47 -74.5t-86.5 -52t-132.5 -19h-71v-263h-128v714h213zM298 608h-77v-239h58q52 0 88.5 12.5t55.5 39.5t19 70q0 59 -35 88t-109 29z" />
    <glyph glyph-name="Q" unicode="Q" horiz-adv-x="790" 
d="M731 358q0 -83 -20.5 -150.5t-62 -116.5t-105.5 -74l172 -187h-170l-133 160h-8.5h-8.5q-86 0 -149.5 26.5t-104.5 75t-61.5 116.5t-20.5 151q0 111 36.5 193t111 127.5t189.5 45.5q113 0 187 -45.5t111 -128t37 -193.5zM194 358q0 -81 21.5 -139t66 -89t113.5 -31
q71 0 115 31t65 89t21 139q0 121 -47 190t-153 69q-70 0 -114.5 -31t-66 -89t-21.5 -139z" />
    <glyph glyph-name="R" unicode="R" horiz-adv-x="646" 
d="M296 714q94 0 155 -23t91 -69.5t30 -117.5q0 -52 -19.5 -89t-50.5 -61.5t-67 -39.5l205 -314h-144l-171 282h-104v-282h-128v714h203zM288 607h-67v-220h71q79 0 114.5 28.5t35.5 84.5q0 39 -17 62.5t-50.5 34t-86.5 10.5z" />
    <glyph glyph-name="S" unicode="S" horiz-adv-x="550" 
d="M508 195q0 -63 -31 -109t-89.5 -71t-139.5 -25q-39 0 -74.5 4.5t-67 13.5t-58.5 22v120q45 -20 99 -36.5t110 -16.5q43 0 70.5 11.5t40.5 32t13 47.5q0 30 -17 51t-50 39t-82 38q-33 14 -64.5 31.5t-56.5 42.5t-40 59t-15 80q0 61 29.5 105t83 67t124.5 23q57 0 107 -12
t99 -34l-41 -103q-44 19 -85 30t-84 11q-34 0 -58 -10.5t-36 -29.5t-12 -44q0 -29 15 -49t46.5 -37.5t81.5 -39.5q58 -25 98 -52t62 -65t22 -94z" />
    <glyph glyph-name="T" unicode="T" horiz-adv-x="570" 
d="M349 0h-128v606h-205v108h538v-108h-205v-606z" />
    <glyph glyph-name="U" unicode="U" horiz-adv-x="747" 
d="M659 252q0 -74 -31.5 -133.5t-95.5 -94t-162 -34.5q-139 0 -211 72.5t-72 191.5v460h128v-447q0 -87 40 -127.5t119 -40.5q56 0 90.5 19t51 57.5t16.5 92.5v446h127v-462z" />
    <glyph glyph-name="V" unicode="V" horiz-adv-x="631" 
d="M631 714l-247 -714h-137l-247 714h131l144 -437q7 -18 14.5 -46.5t15 -58t11.5 -52.5q3 23 10.5 52.5t15.5 58t14 46.5l144 437h131z" />
    <glyph glyph-name="W" unicode="W" horiz-adv-x="953" 
d="M948 714l-185 -714h-141l-113 410q-4 15 -9 37t-10.5 45.5t-9.5 44t-5 30.5q-1 -10 -5 -30.5t-9 -44t-10 -46t-10 -38.5l-110 -408h-142l-184 714h128l98 -407q5 -20 10 -43.5t10 -48t9 -48t6 -41.5q2 19 6 42.5t9 48t10 47t10 38.5l112 412h124l114 -413
q5 -17 10.5 -39.5t10.5 -47t8.5 -47.5t6.5 -41q3 25 8.5 57t13 65t13.5 59l98 407h128z" />
    <glyph glyph-name="X" unicode="X" horiz-adv-x="636" 
d="M635 0h-146l-175 285l-176 -285h-136l237 370l-222 344h141l162 -266l161 266h137l-223 -349z" />
    <glyph glyph-name="Y" unicode="Y" horiz-adv-x="602" 
d="M301 399l163 315h138l-237 -436v-278h-128v273l-237 441h139z" />
    <glyph glyph-name="Z" unicode="Z" horiz-adv-x="576" 
d="M547 0h-518v87l355 519h-345v108h498v-87l-354 -519h364v-108z" />
    <glyph glyph-name="bracketleft" unicode="[" horiz-adv-x="330" 
d="M305 -158h-231v872h231v-91h-120v-690h120v-91z" />
    <glyph glyph-name="backslash" unicode="\" horiz-adv-x="398" 
d="M124 714l266 -714h-116l-266 714h116z" />
    <glyph glyph-name="bracketright" unicode="]" horiz-adv-x="330" 
d="M25 -67h120v690h-120v91h231v-872h-231v91z" />
    <glyph glyph-name="asciicircum" unicode="^" 
d="M29 259l213 459h62l239 -459h-102l-166 331l-145 -331h-101z" />
    <glyph glyph-name="underscore" unicode="_" horiz-adv-x="423" 
d="M425 -156h-427v66h427v-66z" />
    <glyph glyph-name="grave" unicode="`" horiz-adv-x="331" 
d="M184 766q13 -22 32 -49.5t39.5 -53t35.5 -44.5v-13h-83q-19 13 -42.5 32.5t-48 41.5t-45 42t-32.5 34v10h144z" />
    <glyph glyph-name="a" unicode="a" horiz-adv-x="588" 
d="M297 552q105 0 159.5 -45.5t54.5 -142.5v-364h-89l-25 75h-4q-23 -29 -47.5 -48.5t-56 -28t-76.5 -8.5q-48 0 -86.5 18t-60.5 55.5t-22 94.5q0 84 61.5 126.5t186.5 46.5l94 3v27q0 52 -25 74t-70 22q-41 0 -79 -12t-74 -28l-40 88q40 21 91.5 34t107.5 13zM320 254
q-83 -3 -115 -28.5t-32 -68.5q0 -38 23 -55t59 -17q55 0 93 31.5t38 93.5v46z" />
    <glyph glyph-name="b" unicode="b" horiz-adv-x="626" 
d="M207 580q0 -32 -2 -62t-4 -47h6q22 34 60 57.5t99 23.5q95 0 153 -71t58 -209q0 -93 -26.5 -156t-75 -94.5t-112.5 -31.5q-61 0 -97.5 22t-58.5 51h-9l-23 -63h-94v760h126v-180zM330 450q-46 0 -72.5 -18t-38.5 -55t-12 -94v-11q0 -87 26.5 -133t98.5 -46q56 0 86 46.5
t30 133.5q0 88 -30.5 132.5t-87.5 44.5z" />
    <glyph glyph-name="c" unicode="c" horiz-adv-x="501" 
d="M300 -10q-77 0 -133.5 29.5t-87 91t-30.5 157.5q0 100 33.5 162.5t92.5 92t135 29.5q51 0 91 -10t68 -24l-37 -99q-31 12 -62 20.5t-60 8.5q-45 0 -74.5 -20t-43.5 -59.5t-14 -99.5q0 -58 14.5 -97t43.5 -58.5t72 -19.5q46 0 81 11t66 30v-109q-31 -19 -66.5 -27.5
t-88.5 -8.5z" />
    <glyph glyph-name="d" unicode="d" horiz-adv-x="626" 
d="M260 -10q-94 0 -152.5 70.5t-58.5 209.5t59 210.5t155 71.5q40 0 70.5 -10.5t52.5 -28.5t37 -40h6q-3 14 -6 43t-3 54v190h126v-760h-98l-23 71h-5q-15 -22 -37 -40.5t-52 -29.5t-71 -11zM298 92q70 0 99 40t29 121v16q0 88 -27.5 134t-102.5 46q-57 0 -88 -47.5
t-31 -133.5t31 -131t90 -45z" />
    <glyph glyph-name="e" unicode="e" horiz-adv-x="581" 
d="M299 552q73 0 125.5 -29.5t81.5 -84t29 -132.5v-64h-358q2 -74 41 -114.5t108 -40.5q53 0 94.5 10.5t85.5 30.5v-101q-40 -19 -83 -28t-103 -9q-79 0 -140.5 30.5t-96 92.5t-34.5 154q0 93 31.5 156.5t87.5 96t131 32.5zM299 459q-50 0 -81.5 -32.5t-37.5 -96.5h233
q0 38 -12.5 67t-37.5 45.5t-64 16.5z" />
    <glyph glyph-name="f" unicode="f" horiz-adv-x="371" 
d="M362 447h-131v-447h-126v447h-87v60l87 36v37q0 70 22 110t64 57.5t99 17.5q40 0 72 -6.5t53 -14.5l-32 -94q-17 5 -37.5 9.5t-44.5 4.5q-36 0 -53 -23t-17 -64v-35h131v-95z" />
    <glyph glyph-name="g" unicode="g" horiz-adv-x="626" 
d="M263 552q51 0 92 -20t69 -60h5l12 70h105v-546q0 -77 -29 -129.5t-87 -79.5t-145 -27q-58 0 -107 7.5t-93 25.5v104q46 -20 98.5 -31t109.5 -11q62 0 94.5 35t32.5 100v14q0 15 1.5 35t2.5 32h-4q-28 -42 -68 -61.5t-92 -19.5q-99 0 -155 74t-56 206t57 207t157 75z
M296 449q-38 0 -64.5 -20.5t-40 -60.5t-13.5 -100q0 -88 30 -133t90 -45q34 0 58 8.5t39.5 28t23.5 50t8 73.5v19q0 65 -14 104.5t-42.5 57.5t-74.5 18z" />
    <glyph glyph-name="h" unicode="h" horiz-adv-x="642" 
d="M207 579q0 -32 -2.5 -62.5t-4.5 -45.5h8q17 28 42 45.5t55.5 26.5t63.5 9q61 0 105 -21t67.5 -64.5t23.5 -113.5v-353h-126v328q0 62 -24 92t-76 30q-50 0 -79 -21.5t-41 -63t-12 -101.5v-264h-126v760h126v-181z" />
    <glyph glyph-name="i" unicode="i" horiz-adv-x="287" 
d="M207 542v-542h-126v542h126zM144 751q28 0 49 -14.5t21 -51.5q0 -36 -21 -51.5t-49 -15.5q-29 0 -49.5 15.5t-20.5 51.5q0 37 20.5 51.5t49.5 14.5z" />
    <glyph glyph-name="j" unicode="j" horiz-adv-x="287" 
d="M29 -240q-25 0 -49 3.5t-41 8.5v100q17 -4 33 -7t36 -3q31 0 52 17.5t21 66.5v596h126v-609q0 -50 -18 -89t-57 -61.5t-103 -22.5zM74 685q0 37 20.5 51.5t49.5 14.5q28 0 49 -14.5t21 -51.5q0 -36 -21 -51.5t-49 -15.5q-29 0 -49.5 15.5t-20.5 51.5z" />
    <glyph glyph-name="k" unicode="k" horiz-adv-x="588" 
d="M206 399q0 -26 -2 -54.5t-4 -55.5h3q8 12 19 26.5t22.5 29t22.5 26.5l160 171h143l-217 -234l231 -308h-147l-168 232l-63 -52v-180h-125v760h125v-361z" />
    <glyph glyph-name="l" unicode="l" horiz-adv-x="287" 
d="M207 0h-126v760h126v-760z" />
    <glyph glyph-name="m" unicode="m" horiz-adv-x="964" 
d="M702 552q92 0 138.5 -47t46.5 -152v-353h-126v329q0 60 -22 90.5t-70 30.5q-66 0 -94 -43t-28 -125v-282h-126v329q0 40 -10 67t-30.5 40.5t-52.5 13.5q-45 0 -72 -21.5t-38 -62.5t-11 -101v-265h-126v542h97l18 -71h7q17 28 41.5 46t55 26.5t61.5 8.5q61 0 103 -20.5
t63 -63.5h10q25 44 70.5 64t94.5 20z" />
    <glyph glyph-name="n" unicode="n" horiz-adv-x="642" 
d="M371 552q91 0 142.5 -47t51.5 -152v-353h-126v328q0 61 -24 91.5t-76 30.5q-76 0 -104 -47.5t-28 -137.5v-265h-126v542h97l18 -71h7q18 28 44 46t58 26.5t66 8.5z" />
    <glyph glyph-name="o" unicode="o" horiz-adv-x="614" 
d="M565 272q0 -68 -18 -120t-51.5 -88.5t-82 -55t-107.5 -18.5q-56 0 -103 18.5t-81.5 55t-53.5 88.5t-19 120q0 90 31 152.5t89.5 95t138.5 32.5q76 0 133.5 -32.5t90.5 -95t33 -152.5zM178 272q0 -57 13.5 -97.5t42 -61.5t73.5 -21q46 0 74.5 21t41.5 61.5t13 97.5
q0 58 -13.5 97.5t-42 60t-73.5 20.5q-68 0 -98.5 -46t-30.5 -132z" />
    <glyph glyph-name="p" unicode="p" horiz-adv-x="626" 
d="M366 552q95 0 153 -70.5t58 -209.5q0 -92 -27 -155t-75 -95t-112 -32q-39 0 -69 10.5t-51 27t-36 35.5h-8q4 -18 6 -40.5t2 -42.5v-220h-126v782h102l18 -72h6q15 23 36.5 41.5t52 29.5t70.5 11zM330 450q-44 0 -71 -17.5t-39 -53.5t-13 -90v-16q0 -58 11.5 -98t39 -61
t74.5 -21q40 0 65.5 22t38 62.5t12.5 96.5q0 84 -28.5 130t-89.5 46z" />
    <glyph glyph-name="q" unicode="q" horiz-adv-x="626" 
d="M420 -11q0 19 1 41.5t4 40.5h-6q-22 -33 -60 -57t-100 -24q-94 0 -152 70.5t-58 209.5q0 93 27 155.5t75 94.5t111 32q61 0 100 -23.5t62 -57.5h4l13 71h105v-782h-126v229zM299 90q46 0 73.5 17.5t40 53.5t13.5 90v18q0 88 -28 134t-101 46q-60 0 -89.5 -47.5
t-29.5 -133.5q0 -87 29.5 -132.5t91.5 -45.5z" />
    <glyph glyph-name="r" unicode="r" horiz-adv-x="439" 
d="M365 552q12 0 28 -1t27 -4l-11 -117q-9 2 -23.5 3.5t-25.5 1.5q-30 0 -57.5 -9.5t-49 -28t-34 -47.5t-12.5 -69v-281h-126v542h97l18 -94h6q16 29 40 52.5t55.5 37.5t67.5 14z" />
    <glyph glyph-name="s" unicode="s" horiz-adv-x="490" 
d="M450 157q0 -54 -26 -91.5t-76.5 -56.5t-123.5 -19q-57 0 -98 8t-78 25v107q40 -19 89 -32t91 -13q52 0 75 16t23 43q0 16 -9 29t-35 27.5t-79 36.5q-52 21 -86.5 42t-52 50.5t-17.5 74.5q0 73 58 110.5t153 37.5q50 0 94.5 -9.5t89.5 -30.5l-40 -93q-37 16 -73.5 27
t-74.5 11q-41 0 -62 -12.5t-21 -34.5q0 -17 10.5 -29.5t37 -25t75.5 -32.5q49 -19 83.5 -39.5t53.5 -50.5t19 -76z" />
    <glyph glyph-name="t" unicode="t" horiz-adv-x="406" 
d="M291 91q24 0 46 4.5t41 10.5v-94q-20 -9 -52 -15.5t-67 -6.5q-46 0 -83.5 15.5t-60 53.5t-22.5 106v282h-73v55l80 44l40 115h79v-119h154v-95h-154v-281q0 -38 20 -56.5t52 -18.5z" />
    <glyph glyph-name="u" unicode="u" horiz-adv-x="642" 
d="M562 542v-542h-99l-17 70h-6q-17 -28 -44 -45.5t-59 -26t-66 -8.5q-60 0 -104 21t-67 64.5t-23 112.5v354h126v-329q0 -60 24 -90.5t76 -30.5q51 0 80 21.5t41 62.5t12 101v265h126z" />
    <glyph glyph-name="v" unicode="v" horiz-adv-x="546" 
d="M206 0l-206 542h133l108 -313q7 -19 13 -41.5t10.5 -44t5.5 -37.5h4q2 17 7 38.5t11.5 43.5t12.5 41l108 313h133l-206 -542h-134z" />
    <glyph glyph-name="w" unicode="w" horiz-adv-x="830" 
d="M465 233q-5 19 -12 47.5t-14.5 59.5t-14 57t-8.5 40h-4q-3 -14 -9 -40t-13 -57t-14.5 -60t-12.5 -48l-63 -232h-138l-152 543h127l67 -259q7 -26 13.5 -59t11.5 -63.5t7 -49.5h4q2 13 5 34.5t7.5 45t9 43.5t7.5 31l78 277h138l75 -277q5 -18 11 -47t11 -58t6 -48h4
q2 17 7 46.5t12 63.5t15 61l68 259h125l-154 -543h-140z" />
    <glyph glyph-name="x" unicode="x" horiz-adv-x="560" 
d="M198 277l-179 265h143l118 -184l118 184h143l-181 -265l190 -277h-143l-127 197l-127 -197h-143z" />
    <glyph glyph-name="y" unicode="y" horiz-adv-x="547" 
d="M0 542h137l108 -306q7 -20 12.5 -38.5t9.5 -37.5t6 -38h4q4 25 12.5 55t17.5 59l104 306h136l-231 -614q-20 -53 -50.5 -91t-72 -57.5t-93.5 -19.5q-24 0 -42.5 2.5t-32.5 5.5v100q11 -2 26.5 -4t32.5 -2q31 0 53.5 12.5t38 34.5t25.5 49l16 44z" />
    <glyph glyph-name="z" unicode="z" horiz-adv-x="481" 
d="M448 0h-416v77l266 369h-251v96h393v-85l-261 -360h269v-97z" />
    <glyph glyph-name="braceleft" unicode="{" horiz-adv-x="389" 
d="M352 -158q-76 0 -122 15.5t-66 47.5t-20 82v151q0 33 -14.5 52.5t-41.5 28.5t-68 9v100q41 0 68 9t41.5 29t14.5 51v153q0 50 20.5 81.5t66.5 47t121 15.5v-96q-29 0 -50.5 -7.5t-33 -24t-11.5 -46.5v-145q0 -48 -28.5 -76.5t-83.5 -37.5v-6q56 -8 84 -36.5t28 -76.5
v-146q0 -30 11.5 -46.5t32.5 -23.5t51 -8v-96z" />
    <glyph glyph-name="bar" unicode="|" horiz-adv-x="551" 
d="M228 758h95v-990h-95v990z" />
    <glyph glyph-name="braceright" unicode="}" horiz-adv-x="389" 
d="M37 -62q29 1 50.5 8t33 24t11.5 46v146q0 48 28.5 76t83.5 37v6q-55 9 -83.5 37t-28.5 76v146q0 30 -11.5 46.5t-32.5 24t-51 7.5v96q77 0 122 -15.5t65.5 -47t20.5 -82.5v-151q0 -32 14.5 -52t42 -29t67.5 -9v-100q-40 0 -67.5 -9t-42 -28.5t-14.5 -52.5v-152
q0 -50 -20.5 -81.5t-66 -47t-121.5 -15.5v96z" />
    <glyph glyph-name="asciitilde" unicode="~" 
d="M269 308q-37 16 -62 21.5t-47 5.5q-28 0 -59 -17t-55 -42v100q24 26 55 39.5t68 13.5q29 0 58 -6t76 -26q36 -16 61 -21.5t47 -5.5q29 0 59.5 17t54.5 42v-99q-24 -26 -55 -40t-68 -14q-28 0 -57.5 6.5t-75.5 25.5z" />
    <glyph glyph-name="uni00A0" unicode="&#xa0;" horiz-adv-x="260" 
 />
    <glyph glyph-name="exclamdown" unicode="&#xa1;" horiz-adv-x="280" 
d="M90 309h96l25 -490h-146zM216 469q0 -43 -22.5 -60t-54.5 -17q-31 0 -53.5 17t-22.5 59t22.5 60t53.5 18q32 0 54.5 -18t22.5 -59z" />
    <glyph glyph-name="cent" unicode="&#xa2;" 
d="M359 646q43 -2 78 -11.5t62 -21.5l-37 -100q-31 13 -62.5 21.5t-60.5 8.5q-45 0 -74 -20t-43.5 -60t-14.5 -100t15 -98.5t44 -57.5t71 -19q46 0 79 9.5t69 25.5v-107q-29 -14 -59.5 -22t-67.5 -10v-94h-79v98q-62 9 -107 40t-69.5 89t-24.5 145q0 93 25 151t70.5 89
t105.5 40v82h80v-78z" />
    <glyph glyph-name="sterling" unicode="&#xa3;" 
d="M339 724q54 0 101 -12t84 -29l-40 -96q-32 14 -67 24t-70 10q-41 0 -67 -23t-26 -77v-111h191v-91h-191v-83q0 -37 -10.5 -62t-27 -40t-34.5 -25h364v-109h-509v103q28 10 48.5 25.5t32 41t11.5 65.5v84h-90v91h90v115q0 69 27.5 112.5t75 65t107.5 21.5z" />
    <glyph glyph-name="yen" unicode="&#xa5;" 
d="M285 399l148 315h130l-192 -369h106v-78h-132v-73h132v-78h-132v-116h-120v116h-132v78h132v73h-132v78h104l-190 369h131z" />
    <glyph glyph-name="section" unicode="&#xa7;" horiz-adv-x="496" 
d="M62 393q0 45 21 75.5t49 46.5q-33 20 -51 48t-18 66q0 62 53.5 99t144.5 37q52 0 93.5 -10.5t81.5 -27.5l-36 -84q-33 16 -67.5 27t-75.5 11q-48 0 -68.5 -12.5t-20.5 -37.5q0 -17 11.5 -30.5t36.5 -26.5t67 -29q49 -19 84 -41.5t54.5 -52t19.5 -69.5q0 -50 -19.5 -80.5
t-47.5 -48.5q32 -19 49 -45t17 -63q0 -71 -57.5 -112t-158.5 -41q-53 0 -94.5 9.5t-74.5 27.5v91q24 -12 53 -22.5t60 -17t58 -6.5q62 0 85 18.5t23 44.5q0 17 -8.5 30t-32 26.5t-71.5 32.5q-50 21 -86 42t-55 51t-19 74zM158 403q0 -21 12.5 -39t40.5 -34.5t72 -33.5l12 -5
q18 12 33 30.5t15 47.5q0 22 -11 40t-39 34.5t-80 33.5q-21 -7 -38 -26.5t-17 -47.5z" />
    <glyph glyph-name="dieresis" unicode="&#xa8;" horiz-adv-x="597" 
d="M141 684q0 32 17.5 46t42.5 14q24 0 42.5 -14t18.5 -46q0 -30 -18.5 -44.5t-42.5 -14.5q-25 0 -42.5 14.5t-17.5 44.5zM335 684q0 32 17.5 46t42.5 14q24 0 42.5 -14t18.5 -46q0 -30 -18.5 -44.5t-42.5 -14.5q-25 0 -42.5 14.5t-17.5 44.5z" />
    <glyph glyph-name="copyright" unicode="&#xa9;" horiz-adv-x="832" 
d="M431 130q-101 0 -151 62.5t-50 164.5q0 66 24 117t69.5 80.5t111.5 29.5q31 0 63 -8t60 -22l-29 -65q-25 13 -48.5 19.5t-44.5 6.5q-59 0 -91.5 -42t-32.5 -116q0 -76 28.5 -117.5t94.5 -41.5q23 0 51.5 6.5t53.5 16.5v-67q-24 -10 -49 -17t-60 -7zM416 -10
q-80 0 -147 27t-116.5 76.5t-76.5 116.5t-27 147q0 78 27.5 144.5t77 116.5t116.5 78t146 28q76 0 142.5 -27t117 -76.5t79 -116.5t28.5 -147t-27 -147t-76.5 -116.5t-116.5 -76.5t-147 -27zM416 50q63 0 117.5 22.5t96 64t65 97.5t23.5 123q0 64 -22.5 119.5t-63.5 98
t-96 66.5t-120 24q-66 0 -121 -23t-96 -64t-64 -97.5t-23 -123.5q0 -66 22.5 -122t63 -97.5t96 -64.5t122.5 -23z" />
    <glyph glyph-name="ordfeminine" unicode="&#xaa;" horiz-adv-x="373" 
d="M191 722q69 0 103 -32.5t34 -92.5v-218h-59l-14 50q-20 -26 -50 -41t-66 -15q-34 0 -59.5 11.5t-39.5 35t-14 58.5q0 37 19 60.5t56.5 35t90.5 13.5l52 2v13q0 27 -18 40t-48 13q-24 0 -50.5 -8t-53.5 -20l-28 59q30 15 66.5 25.5t78.5 10.5zM196 533q-51 -2 -67 -17.5
t-16 -36.5t12 -31t32 -10q43 0 65 22t22 56v20z" />
    <glyph glyph-name="guillemotleft" unicode="&#xab;" horiz-adv-x="575" 
d="M40 276l176 214l91 -49l-138 -171l138 -170l-91 -50l-176 213v13zM269 276l176 214l90 -49l-137 -171l137 -170l-90 -50l-176 213v13z" />
    <glyph glyph-name="registered" unicode="&#xae;" horiz-adv-x="832" 
d="M276 138v440h131q82 0 120 -33.5t38 -98.5q0 -47 -24 -74.5t-54 -39.5l116 -194h-89l-97 170h-62v-170h-79zM405 373q39 0 59.5 20t20.5 51q0 35 -18.5 51t-62.5 16h-49v-138h50zM416 -10q-80 0 -147 27t-116.5 76.5t-76.5 116.5t-27 147q0 78 27.5 144.5t77 116.5
t116.5 78t146 28q76 0 142.5 -27t117 -76.5t79 -116.5t28.5 -147t-27 -147t-76.5 -116.5t-116.5 -76.5t-147 -27zM416 50q63 0 117.5 22.5t96 64t65 97.5t23.5 123q0 64 -22.5 119.5t-63.5 98t-96 66.5t-120 24q-66 0 -121 -23t-96 -64t-64 -97.5t-23 -123.5
q0 -66 22.5 -122t63 -97.5t96 -64.5t122.5 -23z" />
    <glyph glyph-name="overscore" unicode="&#xaf;" horiz-adv-x="500" 
d="M503 760h-506v86h506v-86z" />
    <glyph glyph-name="degree" unicode="&#xb0;" horiz-adv-x="428" 
d="M214 398q-50 0 -88 21t-59.5 57.5t-21.5 84.5t21.5 84.5t59.5 57.5t88 21t88 -20.5t59 -57.5t21 -85t-21 -84.5t-59 -57.5t-88 -21zM214 478q38 0 60.5 23t22.5 60q0 39 -22.5 61.5t-60.5 22.5q-37 0 -60 -22.5t-23 -61.5q0 -37 23 -60t60 -23z" />
    <glyph glyph-name="acute" unicode="&#xb4;" horiz-adv-x="331" 
d="M291 756q-12 -14 -32.5 -34t-45 -42t-48 -41.5t-41.5 -32.5h-84v13q16 19 36 44.5t39.5 53t31.5 49.5h144v-10z" />
    <glyph glyph-name="paragraph" unicode="&#xb6;" horiz-adv-x="655" 
d="M562 -127h-71v805h-89v-805h-71v400q-15 -4 -33.5 -6.5t-37.5 -2.5q-62 0 -108 23t-71.5 77t-25.5 145q0 96 27.5 150.5t77.5 77.5t115 23h287v-887z" />
    <glyph glyph-name="periodcentered" unicode="&#xb7;" horiz-adv-x="279" 
d="M63 352q0 42 22 59.5t54 17.5t54.5 -17t22.5 -60q0 -41 -22.5 -59t-54.5 -18t-54 18t-22 59z" />
    <glyph glyph-name="cedilla" unicode="&#xb8;" horiz-adv-x="213" 
d="M207 -128q0 -53 -34 -82.5t-116 -29.5q-19 0 -35 2.5t-28 5.5v72q12 -3 30.5 -5.5t33.5 -2.5q22 0 35.5 7.5t13.5 27.5q0 21 -21 34.5t-63 19.5l39 79h81l-18 -39q22 -5 40.5 -17t30 -29.5t11.5 -42.5z" />
    <glyph glyph-name="ordmasculine" unicode="&#xba;" horiz-adv-x="383" 
d="M354 548q0 -83 -44 -129t-119 -46q-70 0 -115.5 45.5t-45.5 129.5t43.5 129t119.5 45q47 0 83.5 -20t57 -58.5t20.5 -95.5zM115 548q0 -52 18 -78.5t59 -26.5q40 0 58 26.5t18 78.5q0 53 -18 78.5t-58 25.5q-41 0 -59 -25.5t-18 -78.5z" />
    <glyph glyph-name="guillemotright" unicode="&#xbb;" horiz-adv-x="575" 
d="M535 263l-177 -213l-90 50l138 170l-138 171l90 49l177 -214v-13zM306 263l-176 -213l-90 50l137 170l-137 171l90 49l176 -214v-13z" />
    <glyph glyph-name="questiondown" unicode="&#xbf;" horiz-adv-x="461" 
d="M325 276q0 -35 -8.5 -61.5t-28 -50t-53.5 -49.5q-33 -25 -52.5 -44t-28.5 -37.5t-9 -43.5q0 -37 26.5 -57.5t74.5 -20.5q45 0 85 13t80 33l45 -94q-46 -24 -100 -40t-119 -16q-100 0 -155.5 49t-55.5 127q0 43 13.5 73.5t39.5 56.5t64 55q32 25 48 41.5t21.5 33.5t5.5 40
v25h107v-33zM344 468q0 -43 -22.5 -60t-54.5 -17q-31 0 -53.5 17t-22.5 60q0 41 22.5 59t53.5 18q32 0 54.5 -18t22.5 -59z" />
    <glyph glyph-name="Agrave" unicode="&#xc0;" horiz-adv-x="671" 
d="M534 0l-65 189h-269l-64 -189h-136l262 717h146l262 -717h-136zM374 483q-4 14 -12 38t-15.5 49.5t-11.5 42.5q-5 -20 -12.5 -46t-14 -49t-10.5 -35l-63 -184h201zM317 938q13 -22 32 -49.5t39.5 -53t35.5 -44.5v-13h-83q-19 13 -42.5 32.5t-48 41.5t-45 42t-32.5 34v10
h144z" />
    <glyph glyph-name="Aacute" unicode="&#xc1;" horiz-adv-x="671" 
d="M534 0l-65 189h-269l-64 -189h-136l262 717h146l262 -717h-136zM374 483q-4 14 -12 38t-15.5 49.5t-11.5 42.5q-5 -20 -12.5 -46t-14 -49t-10.5 -35l-63 -184h201zM724 938v-10q-12 -14 -33 -34t-45 -42t-47.5 -41.5t-42.5 -32.5h-84v13q16 19 36 44.5t39.5 53t32.5 49.5
h144z" />
    <glyph glyph-name="Acircumflex" unicode="&#xc2;" horiz-adv-x="671" 
d="M534 0l-65 189h-269l-64 -189h-136l262 717h146l262 -717h-136zM374 483q-4 14 -12 38t-15.5 49.5t-11.5 42.5q-5 -20 -12.5 -46t-14 -49t-10.5 -35l-63 -184h201zM404 938q13 -22 35.5 -49.5t46.5 -53.5t43 -45v-12h-85q-26 16 -56 38.5t-56 49.5q-27 -27 -55.5 -49
t-54.5 -39h-85v12q19 20 42.5 45.5t46 53t35.5 49.5h143z" />
    <glyph glyph-name="Atilde" unicode="&#xc3;" horiz-adv-x="671" 
d="M534 0l-65 189h-269l-64 -189h-136l262 717h146l262 -717h-136zM374 483q-4 14 -12 38t-15.5 49.5t-11.5 42.5q-5 -20 -12.5 -46t-14 -49t-10.5 -35l-63 -184h201zM140 777q3 36 13.5 62.5t27 44.5t37.5 27t46 9q21 0 41 -8t38.5 -19t36.5 -19t35 -8q18 0 31.5 14
t19.5 41h65q-6 -70 -40.5 -106.5t-83.5 -36.5q-21 0 -40 8t-38.5 19t-37 19t-35.5 8t-31.5 -13.5t-19.5 -41.5h-65z" />
    <glyph glyph-name="Adieresis" unicode="&#xc4;" horiz-adv-x="671" 
d="M534 0l-65 189h-269l-64 -189h-136l262 717h146l262 -717h-136zM374 483q-4 14 -12 38t-15.5 49.5t-11.5 42.5q-5 -20 -12.5 -46t-14 -49t-10.5 -35l-63 -184h201zM178 844q0 31 17.5 45t42.5 14q24 0 42.5 -13.5t18.5 -45.5q0 -30 -18.5 -44.5t-42.5 -14.5
q-25 0 -42.5 14.5t-17.5 44.5zM371 844q0 31 18 45t43 14q24 0 42 -13.5t18 -45.5q0 -30 -18 -44.5t-42 -14.5q-25 0 -43 14.5t-18 44.5z" />
    <glyph glyph-name="Aring" unicode="&#xc5;" horiz-adv-x="671" 
d="M534 0l-65 189h-269l-64 -189h-136l262 717h146l262 -717h-136zM374 483q-4 14 -12 38t-15.5 49.5t-11.5 42.5q-5 -20 -12.5 -46t-14 -49t-10.5 -35l-63 -184h201zM334 655q-53 0 -85 30t-32 83q0 52 32 81.5t84 29.5q51 0 85.5 -29.5t34.5 -80.5q0 -54 -34 -84t-85 -30z
M333 717q22 0 36.5 13.5t14.5 37.5q0 23 -14.5 36.5t-35.5 13.5q-22 0 -36.5 -13.5t-14.5 -36.5q0 -24 13 -37.5t37 -13.5z" />
    <glyph glyph-name="AE" unicode="&#xc6;" horiz-adv-x="925" 
d="M866 0h-406v189h-244l-85 -189h-131l327 714h539v-107h-278v-182h259v-107h-259v-210h278v-108zM264 299h196v304h-60z" />
    <glyph glyph-name="Ccedilla" unicode="&#xc7;" horiz-adv-x="635" 
d="M397 616q-49 0 -87 -18t-64.5 -52t-40 -82t-13.5 -108q0 -81 22 -138.5t67.5 -88.5t114.5 -31q46 0 88.5 9.5t89.5 25.5v-109q-44 -18 -88.5 -26t-102.5 -8q-110 0 -182 45.5t-107 128t-35 193.5q0 81 22.5 148t65 116t105.5 76t145 27q54 0 106.5 -12.5t98.5 -34.5
l-44 -105q-38 17 -78.5 30.5t-82.5 13.5zM481 -128q0 -53 -34 -82.5t-116 -29.5q-19 0 -35 2.5t-28 5.5v72q12 -3 30.5 -5.5t33.5 -2.5q22 0 35.5 7.5t13.5 27.5q0 21 -21 34.5t-63 19.5l39 79h81l-18 -39q22 -5 40.5 -17t30 -29.5t11.5 -42.5z" />
    <glyph glyph-name="Egrave" unicode="&#xc8;" horiz-adv-x="558" 
d="M499 0h-406v714h406v-107h-278v-182h260v-107h-260v-210h278v-108zM285 938q13 -22 32 -49.5t39.5 -53t35.5 -44.5v-13h-83q-19 13 -42.5 32.5t-48 41.5t-45 42t-32.5 34v10h144z" />
    <glyph glyph-name="Eacute" unicode="&#xc9;" horiz-adv-x="558" 
d="M499 0h-406v714h406v-107h-278v-182h260v-107h-260v-210h278v-108zM692 938v-10q-12 -14 -33 -34t-45 -42t-47.5 -41.5t-42.5 -32.5h-84v13q16 19 36 44.5t39.5 53t32.5 49.5h144z" />
    <glyph glyph-name="Ecircumflex" unicode="&#xca;" horiz-adv-x="558" 
d="M499 0h-406v714h406v-107h-278v-182h260v-107h-260v-210h278v-108zM372 938q13 -22 35.5 -49.5t46.5 -53.5t43 -45v-12h-85q-26 16 -56 38.5t-56 49.5q-27 -27 -55.5 -49t-54.5 -39h-85v12q19 20 42.5 45.5t46 53t35.5 49.5h143z" />
    <glyph glyph-name="Edieresis" unicode="&#xcb;" horiz-adv-x="558" 
d="M499 0h-406v714h406v-107h-278v-182h260v-107h-260v-210h278v-108zM145 844q0 31 17.5 45t42.5 14q24 0 42.5 -13.5t18.5 -45.5q0 -30 -18.5 -44.5t-42.5 -14.5q-25 0 -42.5 14.5t-17.5 44.5zM338 844q0 31 18 45t43 14q24 0 42 -13.5t18 -45.5q0 -30 -18 -44.5
t-42 -14.5q-25 0 -43 14.5t-18 44.5z" />
    <glyph glyph-name="Igrave" unicode="&#xcc;" horiz-adv-x="370" 
d="M335 0h-300v73l86 32v503l-86 33v73h300v-73l-86 -33v-503l86 -32v-73zM168 938q13 -22 32 -49.5t39.5 -53t35.5 -44.5v-13h-83q-19 13 -42.5 32.5t-48 41.5t-45 42t-32.5 34v10h144z" />
    <glyph glyph-name="Iacute" unicode="&#xcd;" horiz-adv-x="370" 
d="M335 0h-300v73l86 32v503l-86 33v73h300v-73l-86 -33v-503l86 -32v-73zM575 938v-10q-12 -14 -33 -34t-45 -42t-47.5 -41.5t-42.5 -32.5h-84v13q16 19 36 44.5t39.5 53t32.5 49.5h144z" />
    <glyph glyph-name="Icircumflex" unicode="&#xce;" horiz-adv-x="370" 
d="M335 0h-300v73l86 32v503l-86 33v73h300v-73l-86 -33v-503l86 -32v-73zM255 938q13 -22 35.5 -49.5t46.5 -53.5t43 -45v-12h-85q-26 16 -56 38.5t-56 49.5q-27 -27 -55.5 -49t-54.5 -39h-85v12q19 20 42.5 45.5t46 53t35.5 49.5h143z" />
    <glyph glyph-name="Idieresis" unicode="&#xcf;" horiz-adv-x="370" 
d="M335 0h-300v73l86 32v503l-86 33v73h300v-73l-86 -33v-503l86 -32v-73zM28 844q0 31 17.5 45t42.5 14q24 0 42.5 -13.5t18.5 -45.5q0 -30 -18.5 -44.5t-42.5 -14.5q-25 0 -42.5 14.5t-17.5 44.5zM221 844q0 31 18 45t43 14q24 0 42 -13.5t18 -45.5q0 -30 -18 -44.5
t-42 -14.5q-25 0 -43 14.5t-18 44.5z" />
    <glyph glyph-name="Eth" unicode="&#xd0;" horiz-adv-x="736" 
d="M315 714q110 0 191.5 -40t126 -117.5t44.5 -192.5q0 -120 -45.5 -201t-131.5 -122t-207 -41h-198v300h-69v106h69v308h220zM315 608h-92v-202h140v-106h-140v-193h74q124 0 185 64t61 190q0 84 -27 139t-78 81.5t-123 26.5z" />
    <glyph glyph-name="Ntilde" unicode="&#xd1;" horiz-adv-x="793" 
d="M700 0h-159l-338 560h-4q2 -30 3.5 -63t3 -67.5t2.5 -69.5v-360h-115v714h158l337 -556h3q-1 26 -2 59t-2.5 67.5t-2.5 66.5v363h116v-714zM202 777q3 36 13.5 62.5t27 44.5t37.5 27t46 9q21 0 41 -8t38.5 -19t36.5 -19t35 -8q18 0 31.5 14t19.5 41h65
q-6 -70 -40.5 -106.5t-83.5 -36.5q-21 0 -40 8t-38.5 19t-37 19t-35.5 8t-31.5 -13.5t-19.5 -41.5h-65z" />
    <glyph glyph-name="Ograve" unicode="&#xd2;" horiz-adv-x="790" 
d="M731 358q0 -83 -20.5 -150.5t-62 -116.5t-105 -75t-148.5 -26q-86 0 -149.5 26.5t-104.5 75t-61.5 116.5t-20.5 151q0 111 36.5 193t111 127.5t189.5 45.5q113 0 187 -45.5t111 -128t37 -193.5zM194 358q0 -81 21.5 -139t66 -89t113.5 -31q71 0 115 31t65 89t21 139
q0 121 -47 190t-153 69q-70 0 -114.5 -31t-66 -89t-21.5 -139zM378 938q13 -22 32 -49.5t39.5 -53t35.5 -44.5v-13h-83q-19 13 -42.5 32.5t-48 41.5t-45 42t-32.5 34v10h144z" />
    <glyph glyph-name="Oacute" unicode="&#xd3;" horiz-adv-x="790" 
d="M731 358q0 -83 -20.5 -150.5t-62 -116.5t-105 -75t-148.5 -26q-86 0 -149.5 26.5t-104.5 75t-61.5 116.5t-20.5 151q0 111 36.5 193t111 127.5t189.5 45.5q113 0 187 -45.5t111 -128t37 -193.5zM194 358q0 -81 21.5 -139t66 -89t113.5 -31q71 0 115 31t65 89t21 139
q0 121 -47 190t-153 69q-70 0 -114.5 -31t-66 -89t-21.5 -139zM785 938v-10q-12 -14 -33 -34t-45 -42t-47.5 -41.5t-42.5 -32.5h-84v13q16 19 36 44.5t39.5 53t32.5 49.5h144z" />
    <glyph glyph-name="Ocircumflex" unicode="&#xd4;" horiz-adv-x="790" 
d="M731 358q0 -83 -20.5 -150.5t-62 -116.5t-105 -75t-148.5 -26q-86 0 -149.5 26.5t-104.5 75t-61.5 116.5t-20.5 151q0 111 36.5 193t111 127.5t189.5 45.5q113 0 187 -45.5t111 -128t37 -193.5zM194 358q0 -81 21.5 -139t66 -89t113.5 -31q71 0 115 31t65 89t21 139
q0 121 -47 190t-153 69q-70 0 -114.5 -31t-66 -89t-21.5 -139zM465 938q13 -22 35.5 -49.5t46.5 -53.5t43 -45v-12h-85q-26 16 -56 38.5t-56 49.5q-27 -27 -55.5 -49t-54.5 -39h-85v12q19 20 42.5 45.5t46 53t35.5 49.5h143z" />
    <glyph glyph-name="Otilde" unicode="&#xd5;" horiz-adv-x="790" 
d="M731 358q0 -83 -20.5 -150.5t-62 -116.5t-105 -75t-148.5 -26q-86 0 -149.5 26.5t-104.5 75t-61.5 116.5t-20.5 151q0 111 36.5 193t111 127.5t189.5 45.5q113 0 187 -45.5t111 -128t37 -193.5zM194 358q0 -81 21.5 -139t66 -89t113.5 -31q71 0 115 31t65 89t21 139
q0 121 -47 190t-153 69q-70 0 -114.5 -31t-66 -89t-21.5 -139zM201 777q3 36 13.5 62.5t27 44.5t37.5 27t46 9q21 0 41 -8t38.5 -19t36.5 -19t35 -8q18 0 31.5 14t19.5 41h65q-6 -70 -40.5 -106.5t-83.5 -36.5q-21 0 -40 8t-38.5 19t-37 19t-35.5 8t-31.5 -13.5t-19.5 -41.5
h-65z" />
    <glyph glyph-name="Odieresis" unicode="&#xd6;" horiz-adv-x="790" 
d="M731 358q0 -83 -20.5 -150.5t-62 -116.5t-105 -75t-148.5 -26q-86 0 -149.5 26.5t-104.5 75t-61.5 116.5t-20.5 151q0 111 36.5 193t111 127.5t189.5 45.5q113 0 187 -45.5t111 -128t37 -193.5zM194 358q0 -81 21.5 -139t66 -89t113.5 -31q71 0 115 31t65 89t21 139
q0 121 -47 190t-153 69q-70 0 -114.5 -31t-66 -89t-21.5 -139zM238 844q0 31 17.5 45t42.5 14q24 0 42.5 -13.5t18.5 -45.5q0 -30 -18.5 -44.5t-42.5 -14.5q-25 0 -42.5 14.5t-17.5 44.5zM431 844q0 31 18 45t43 14q24 0 42 -13.5t18 -45.5q0 -30 -18 -44.5t-42 -14.5
q-25 0 -43 14.5t-18 44.5z" />
    <glyph glyph-name="multiply" unicode="&#xd7;" 
d="M442 575l65 -65l-157 -157l156 -156l-65 -66l-157 156l-155 -155l-65 65l154 156l-155 155l66 67l155 -156z" />
    <glyph glyph-name="Oslash" unicode="&#xd8;" horiz-adv-x="790" 
d="M731 358q0 -83 -20.5 -150.5t-62 -116.5t-105 -75t-148.5 -26q-51 0 -94 9.5t-78 28.5l-45 -67l-72 48l47 69q-47 49 -70.5 120.5t-23.5 160.5q0 111 36.5 193t111 127.5t189.5 45.5q51 0 94 -10t78 -28l43 63l72 -47l-46 -67q47 -48 70.5 -118.5t23.5 -159.5zM596 358
q0 104 -34 166l-273 -399q21 -13 47.5 -19.5t58.5 -6.5q71 0 115 31t65 89t21 139zM194 358q0 -51 8.5 -93.5t26.5 -74.5l274 400q-22 13 -48.5 20t-58.5 7q-70 0 -114.5 -31t-66 -89t-21.5 -139z" />
    <glyph glyph-name="Ugrave" unicode="&#xd9;" horiz-adv-x="747" 
d="M659 252q0 -74 -31.5 -133.5t-95.5 -94t-162 -34.5q-139 0 -211 72.5t-72 191.5v460h128v-447q0 -87 40 -127.5t119 -40.5q56 0 90.5 19t51 57.5t16.5 92.5v446h127v-462zM356 938q13 -22 32 -49.5t39.5 -53t35.5 -44.5v-13h-83q-19 13 -42.5 32.5t-48 41.5t-45 42
t-32.5 34v10h144z" />
    <glyph glyph-name="Uacute" unicode="&#xda;" horiz-adv-x="747" 
d="M659 252q0 -74 -31.5 -133.5t-95.5 -94t-162 -34.5q-139 0 -211 72.5t-72 191.5v460h128v-447q0 -87 40 -127.5t119 -40.5q56 0 90.5 19t51 57.5t16.5 92.5v446h127v-462zM763 938v-10q-12 -14 -33 -34t-45 -42t-47.5 -41.5t-42.5 -32.5h-84v13q16 19 36 44.5t39.5 53
t32.5 49.5h144z" />
    <glyph glyph-name="Ucircumflex" unicode="&#xdb;" horiz-adv-x="747" 
d="M659 252q0 -74 -31.5 -133.5t-95.5 -94t-162 -34.5q-139 0 -211 72.5t-72 191.5v460h128v-447q0 -87 40 -127.5t119 -40.5q56 0 90.5 19t51 57.5t16.5 92.5v446h127v-462zM443 938q13 -22 35.5 -49.5t46.5 -53.5t43 -45v-12h-85q-26 16 -56 38.5t-56 49.5
q-27 -27 -55.5 -49t-54.5 -39h-85v12q19 20 42.5 45.5t46 53t35.5 49.5h143z" />
    <glyph glyph-name="Udieresis" unicode="&#xdc;" horiz-adv-x="747" 
d="M659 252q0 -74 -31.5 -133.5t-95.5 -94t-162 -34.5q-139 0 -211 72.5t-72 191.5v460h128v-447q0 -87 40 -127.5t119 -40.5q56 0 90.5 19t51 57.5t16.5 92.5v446h127v-462zM216 844q0 31 17.5 45t42.5 14q24 0 42.5 -13.5t18.5 -45.5q0 -30 -18.5 -44.5t-42.5 -14.5
q-25 0 -42.5 14.5t-17.5 44.5zM409 844q0 31 18 45t43 14q24 0 42 -13.5t18 -45.5q0 -30 -18 -44.5t-42 -14.5q-25 0 -43 14.5t-18 44.5z" />
    <glyph glyph-name="Yacute" unicode="&#xdd;" horiz-adv-x="602" 
d="M301 399l163 315h138l-237 -436v-278h-128v273l-237 441h139zM690 938v-10q-12 -14 -33 -34t-45 -42t-47.5 -41.5t-42.5 -32.5h-84v13q16 19 36 44.5t39.5 53t32.5 49.5h144z" />
    <glyph glyph-name="Thorn" unicode="&#xde;" horiz-adv-x="619" 
d="M572 378q0 -45 -14 -86.5t-45.5 -74t-84 -51t-130.5 -18.5h-77v-148h-128v714h128v-117h90q137 0 199 -59t62 -160zM278 252q56 0 92 12.5t54 40t18 71.5q0 59 -36 87.5t-114 28.5h-71v-240h57z" />
    <glyph glyph-name="germandbls" unicode="&#xdf;" horiz-adv-x="681" 
d="M577 610q0 -36 -14 -62.5t-35 -46t-42 -35t-35 -29t-14 -28.5q0 -12 8.5 -23t30 -25.5t58.5 -38.5q34 -22 58 -45t37 -51.5t13 -68.5q0 -56 -24.5 -93.5t-71.5 -55.5t-114 -18q-48 0 -83.5 8t-63.5 24v103q16 -10 39.5 -20t50 -16t49.5 -6q45 0 67.5 18t22.5 52
q0 20 -7.5 35t-27.5 31t-57 39q-42 25 -65.5 45.5t-33.5 42t-10 47.5q0 31 13.5 53t34 38.5t41 31.5t34 33t13.5 43q0 35 -33.5 54t-83.5 19q-35 0 -63.5 -10t-45 -32t-16.5 -60v-563h-126v567q0 69 33 113t89.5 64.5t128.5 20.5q71 0 126 -17.5t87 -52t32 -85.5z" />
    <glyph glyph-name="agrave" unicode="&#xe0;" horiz-adv-x="588" 
d="M297 552q105 0 159.5 -45.5t54.5 -142.5v-364h-89l-25 75h-4q-23 -29 -47.5 -48.5t-56 -28t-76.5 -8.5q-48 0 -86.5 18t-60.5 55.5t-22 94.5q0 84 61.5 126.5t186.5 46.5l94 3v27q0 52 -25 74t-70 22q-41 0 -79 -12t-74 -28l-40 88q40 21 91.5 34t107.5 13zM320 254
q-83 -3 -115 -28.5t-32 -68.5q0 -38 23 -55t59 -17q55 0 93 31.5t38 93.5v46zM276 766q13 -22 32 -49.5t39.5 -53t35.5 -44.5v-13h-83q-19 13 -42.5 32.5t-48 41.5t-45 42t-32.5 34v10h144z" />
    <glyph glyph-name="aacute" unicode="&#xe1;" horiz-adv-x="588" 
d="M297 552q105 0 159.5 -45.5t54.5 -142.5v-364h-89l-25 75h-4q-23 -29 -47.5 -48.5t-56 -28t-76.5 -8.5q-48 0 -86.5 18t-60.5 55.5t-22 94.5q0 84 61.5 126.5t186.5 46.5l94 3v27q0 52 -25 74t-70 22q-41 0 -79 -12t-74 -28l-40 88q40 21 91.5 34t107.5 13zM320 254
q-83 -3 -115 -28.5t-32 -68.5q0 -38 23 -55t59 -17q55 0 93 31.5t38 93.5v46zM683 766v-10q-12 -14 -33 -34t-45 -42t-47.5 -41.5t-42.5 -32.5h-84v13q16 19 36 44.5t39.5 53t32.5 49.5h144z" />
    <glyph glyph-name="acircumflex" unicode="&#xe2;" horiz-adv-x="588" 
d="M297 552q105 0 159.5 -45.5t54.5 -142.5v-364h-89l-25 75h-4q-23 -29 -47.5 -48.5t-56 -28t-76.5 -8.5q-48 0 -86.5 18t-60.5 55.5t-22 94.5q0 84 61.5 126.5t186.5 46.5l94 3v27q0 52 -25 74t-70 22q-41 0 -79 -12t-74 -28l-40 88q40 21 91.5 34t107.5 13zM320 254
q-83 -3 -115 -28.5t-32 -68.5q0 -38 23 -55t59 -17q55 0 93 31.5t38 93.5v46zM364 766q13 -22 35.5 -49.5t46.5 -53.5t43 -45v-12h-85q-26 16 -56 38.5t-56 49.5q-27 -27 -55.5 -49t-54.5 -39h-85v12q19 20 42.5 45.5t46 53t35.5 49.5h143z" />
    <glyph glyph-name="atilde" unicode="&#xe3;" horiz-adv-x="588" 
d="M297 552q105 0 159.5 -45.5t54.5 -142.5v-364h-89l-25 75h-4q-23 -29 -47.5 -48.5t-56 -28t-76.5 -8.5q-48 0 -86.5 18t-60.5 55.5t-22 94.5q0 84 61.5 126.5t186.5 46.5l94 3v27q0 52 -25 74t-70 22q-41 0 -79 -12t-74 -28l-40 88q40 21 91.5 34t107.5 13zM320 254
q-83 -3 -115 -28.5t-32 -68.5q0 -38 23 -55t59 -17q55 0 93 31.5t38 93.5v46zM99 605q3 36 13.5 62.5t27 44.5t37.5 27t46 9q21 0 41 -8t38.5 -19t36.5 -19t35 -8q18 0 31.5 14t19.5 41h65q-6 -70 -40.5 -106.5t-83.5 -36.5q-21 0 -40 8t-38.5 19t-37 19t-35.5 8
t-31.5 -13.5t-19.5 -41.5h-65z" />
    <glyph glyph-name="adieresis" unicode="&#xe4;" horiz-adv-x="588" 
d="M297 552q105 0 159.5 -45.5t54.5 -142.5v-364h-89l-25 75h-4q-23 -29 -47.5 -48.5t-56 -28t-76.5 -8.5q-48 0 -86.5 18t-60.5 55.5t-22 94.5q0 84 61.5 126.5t186.5 46.5l94 3v27q0 52 -25 74t-70 22q-41 0 -79 -12t-74 -28l-40 88q40 21 91.5 34t107.5 13zM320 254
q-83 -3 -115 -28.5t-32 -68.5q0 -38 23 -55t59 -17q55 0 93 31.5t38 93.5v46zM137 672q0 31 17.5 45t42.5 14q24 0 42.5 -13.5t18.5 -45.5q0 -30 -18.5 -44.5t-42.5 -14.5q-25 0 -42.5 14.5t-17.5 44.5zM330 672q0 31 18 45t43 14q24 0 42 -13.5t18 -45.5q0 -30 -18 -44.5
t-42 -14.5q-25 0 -43 14.5t-18 44.5z" />
    <glyph glyph-name="aring" unicode="&#xe5;" horiz-adv-x="588" 
d="M297 552q105 0 159.5 -45.5t54.5 -142.5v-364h-89l-25 75h-4q-23 -29 -47.5 -48.5t-56 -28t-76.5 -8.5q-48 0 -86.5 18t-60.5 55.5t-22 94.5q0 84 61.5 126.5t186.5 46.5l94 3v27q0 52 -25 74t-70 22q-41 0 -79 -12t-74 -28l-40 88q40 21 91.5 34t107.5 13zM320 254
q-83 -3 -115 -28.5t-32 -68.5q0 -38 23 -55t59 -17q55 0 93 31.5t38 93.5v46zM293 605q-53 0 -85 30t-32 83q0 52 32 81.5t84 29.5q51 0 85.5 -29.5t34.5 -80.5q0 -54 -34 -84t-85 -30zM292 667q22 0 36.5 13.5t14.5 37.5q0 23 -14.5 36.5t-35.5 13.5q-22 0 -36.5 -13.5
t-14.5 -36.5q0 -24 13 -37.5t37 -13.5z" />
    <glyph glyph-name="ae" unicode="&#xe6;" horiz-adv-x="897" 
d="M627 552q67 0 117.5 -29.5t78.5 -84t28 -131.5v-65h-349q2 -75 39 -115t104 -40q50 0 92.5 10.5t85.5 30.5v-101q-41 -19 -83 -28t-101 -9q-45 0 -84.5 11.5t-70.5 35t-54 59.5q-27 -35 -55.5 -58.5t-66 -35.5t-92.5 -12q-47 0 -86.5 18t-62.5 55.5t-23 94.5
q0 56 26.5 93.5t79.5 57t133 22.5l91 3v38q0 46 -24.5 65.5t-67.5 19.5q-40 0 -77 -11t-73 -28l-40 87q40 21 92 34t106 13q58 0 99 -17.5t67 -54.5q30 36 72 54t99 18zM311 254q-78 -3 -108 -28.5t-30 -68.5q0 -38 21 -55t57 -17q35 0 62.5 14t44 42t16.5 69v46zM624 459
q-52 0 -83.5 -32.5t-36.5 -96.5h225q0 38 -12 67t-35 45.5t-58 16.5z" />
    <glyph glyph-name="ccedilla" unicode="&#xe7;" horiz-adv-x="501" 
d="M300 -10q-77 0 -133.5 29.5t-87 91t-30.5 157.5q0 100 33.5 162.5t92.5 92t135 29.5q51 0 91 -10t68 -24l-37 -99q-31 12 -62 20.5t-60 8.5q-45 0 -74.5 -20t-43.5 -59.5t-14 -99.5q0 -58 14.5 -97t43.5 -58.5t72 -19.5q46 0 81 11t66 30v-109q-31 -19 -66.5 -27.5
t-88.5 -8.5zM398 -128q0 -53 -34 -82.5t-116 -29.5q-19 0 -35 2.5t-28 5.5v72q12 -3 30.5 -5.5t33.5 -2.5q22 0 35.5 7.5t13.5 27.5q0 21 -21 34.5t-63 19.5l39 79h81l-18 -39q22 -5 40.5 -17t30 -29.5t11.5 -42.5z" />
    <glyph glyph-name="egrave" unicode="&#xe8;" horiz-adv-x="581" 
d="M299 552q73 0 125.5 -29.5t81.5 -84t29 -132.5v-64h-358q2 -74 41 -114.5t108 -40.5q53 0 94.5 10.5t85.5 30.5v-101q-40 -19 -83 -28t-103 -9q-79 0 -140.5 30.5t-96 92.5t-34.5 154q0 93 31.5 156.5t87.5 96t131 32.5zM299 459q-50 0 -81.5 -32.5t-37.5 -96.5h233
q0 38 -12.5 67t-37.5 45.5t-64 16.5zM274 766q13 -22 32 -49.5t39.5 -53t35.5 -44.5v-13h-83q-19 13 -42.5 32.5t-48 41.5t-45 42t-32.5 34v10h144z" />
    <glyph glyph-name="eacute" unicode="&#xe9;" horiz-adv-x="581" 
d="M299 552q73 0 125.5 -29.5t81.5 -84t29 -132.5v-64h-358q2 -74 41 -114.5t108 -40.5q53 0 94.5 10.5t85.5 30.5v-101q-40 -19 -83 -28t-103 -9q-79 0 -140.5 30.5t-96 92.5t-34.5 154q0 93 31.5 156.5t87.5 96t131 32.5zM299 459q-50 0 -81.5 -32.5t-37.5 -96.5h233
q0 38 -12.5 67t-37.5 45.5t-64 16.5zM681 766v-10q-12 -14 -33 -34t-45 -42t-47.5 -41.5t-42.5 -32.5h-84v13q16 19 36 44.5t39.5 53t32.5 49.5h144z" />
    <glyph glyph-name="ecircumflex" unicode="&#xea;" horiz-adv-x="581" 
d="M299 552q73 0 125.5 -29.5t81.5 -84t29 -132.5v-64h-358q2 -74 41 -114.5t108 -40.5q53 0 94.5 10.5t85.5 30.5v-101q-40 -19 -83 -28t-103 -9q-79 0 -140.5 30.5t-96 92.5t-34.5 154q0 93 31.5 156.5t87.5 96t131 32.5zM299 459q-50 0 -81.5 -32.5t-37.5 -96.5h233
q0 38 -12.5 67t-37.5 45.5t-64 16.5zM361 766q13 -22 35.5 -49.5t46.5 -53.5t43 -45v-12h-85q-26 16 -56 38.5t-56 49.5q-27 -27 -55.5 -49t-54.5 -39h-85v12q19 20 42.5 45.5t46 53t35.5 49.5h143z" />
    <glyph glyph-name="edieresis" unicode="&#xeb;" horiz-adv-x="581" 
d="M299 552q73 0 125.5 -29.5t81.5 -84t29 -132.5v-64h-358q2 -74 41 -114.5t108 -40.5q53 0 94.5 10.5t85.5 30.5v-101q-40 -19 -83 -28t-103 -9q-79 0 -140.5 30.5t-96 92.5t-34.5 154q0 93 31.5 156.5t87.5 96t131 32.5zM299 459q-50 0 -81.5 -32.5t-37.5 -96.5h233
q0 38 -12.5 67t-37.5 45.5t-64 16.5zM135 672q0 31 17.5 45t42.5 14q24 0 42.5 -13.5t18.5 -45.5q0 -30 -18.5 -44.5t-42.5 -14.5q-25 0 -42.5 14.5t-17.5 44.5zM328 672q0 31 18 45t43 14q24 0 42 -13.5t18 -45.5q0 -30 -18 -44.5t-42 -14.5q-25 0 -43 14.5t-18 44.5z" />
    <glyph glyph-name="igrave" unicode="&#xec;" horiz-adv-x="287" 
d="M207 0h-126v542h126v-542zM126 766q13 -22 32 -49.5t39.5 -53t35.5 -44.5v-13h-83q-19 13 -42.5 32.5t-48 41.5t-45 42t-32.5 34v10h144z" />
    <glyph glyph-name="iacute" unicode="&#xed;" horiz-adv-x="287" 
d="M207 0h-126v542h126v-542zM533 766v-10q-12 -14 -33 -34t-45 -42t-47.5 -41.5t-42.5 -32.5h-84v13q16 19 36 44.5t39.5 53t32.5 49.5h144z" />
    <glyph glyph-name="icircumflex" unicode="&#xee;" horiz-adv-x="287" 
d="M207 0h-126v542h126v-542zM214 766q13 -22 35.5 -49.5t46.5 -53.5t43 -45v-12h-85q-26 16 -56 38.5t-56 49.5q-27 -27 -55.5 -49t-54.5 -39h-85v12q19 20 42.5 45.5t46 53t35.5 49.5h143z" />
    <glyph glyph-name="idieresis" unicode="&#xef;" horiz-adv-x="287" 
d="M207 0h-126v542h126v-542zM-13 672q0 31 17.5 45t42.5 14q24 0 42.5 -13.5t18.5 -45.5q0 -30 -18.5 -44.5t-42.5 -14.5q-25 0 -42.5 14.5t-17.5 44.5zM180 672q0 31 18 45t43 14q24 0 42 -13.5t18 -45.5q0 -30 -18 -44.5t-42 -14.5q-25 0 -43 14.5t-18 44.5z" />
    <glyph glyph-name="eth" unicode="&#xf0;" horiz-adv-x="614" 
d="M221 765q34 -16 66 -33t60 -37l112 67l45 -67l-89 -53q48 -43 81 -97.5t51 -120.5t18 -146q0 -93 -31.5 -157.5t-89.5 -97.5t-139 -33q-74 0 -132 29t-91 84.5t-33 133.5q0 77 29.5 131.5t82.5 83.5t123 29q34 0 61 -5.5t47.5 -17t33.5 -29.5l4 2q-16 47 -42.5 85
t-62.5 71l-119 -71l-45 68l96 57q-19 12 -39 24t-41 24zM307 386q-46 0 -74.5 -17.5t-42 -50.5t-13.5 -83q0 -44 13.5 -77.5t42.5 -52.5t74 -19q69 0 99.5 43.5t30.5 127.5q0 26 -7.5 49.5t-24 41t-40.5 28t-58 10.5z" />
    <glyph glyph-name="ntilde" unicode="&#xf1;" horiz-adv-x="642" 
d="M371 552q91 0 142.5 -47t51.5 -152v-353h-126v328q0 61 -24 91.5t-76 30.5q-76 0 -104 -47.5t-28 -137.5v-265h-126v542h97l18 -71h7q18 28 44 46t58 26.5t66 8.5zM127 605q3 36 13.5 62.5t27 44.5t37.5 27t46 9q21 0 41 -8t38.5 -19t36.5 -19t35 -8q18 0 31.5 14
t19.5 41h65q-6 -70 -40.5 -106.5t-83.5 -36.5q-21 0 -40 8t-38.5 19t-37 19t-35.5 8t-31.5 -13.5t-19.5 -41.5h-65z" />
    <glyph glyph-name="ograve" unicode="&#xf2;" horiz-adv-x="614" 
d="M565 272q0 -68 -18 -120t-51.5 -88.5t-82 -55t-107.5 -18.5q-56 0 -103 18.5t-81.5 55t-53.5 88.5t-19 120q0 90 31 152.5t89.5 95t138.5 32.5q76 0 133.5 -32.5t90.5 -95t33 -152.5zM178 272q0 -57 13.5 -97.5t42 -61.5t73.5 -21q46 0 74.5 21t41.5 61.5t13 97.5
q0 58 -13.5 97.5t-42 60t-73.5 20.5q-68 0 -98.5 -46t-30.5 -132zM290 766q13 -22 32 -49.5t39.5 -53t35.5 -44.5v-13h-83q-19 13 -42.5 32.5t-48 41.5t-45 42t-32.5 34v10h144z" />
    <glyph glyph-name="oacute" unicode="&#xf3;" horiz-adv-x="614" 
d="M565 272q0 -68 -18 -120t-51.5 -88.5t-82 -55t-107.5 -18.5q-56 0 -103 18.5t-81.5 55t-53.5 88.5t-19 120q0 90 31 152.5t89.5 95t138.5 32.5q76 0 133.5 -32.5t90.5 -95t33 -152.5zM178 272q0 -57 13.5 -97.5t42 -61.5t73.5 -21q46 0 74.5 21t41.5 61.5t13 97.5
q0 58 -13.5 97.5t-42 60t-73.5 20.5q-68 0 -98.5 -46t-30.5 -132zM697 766v-10q-12 -14 -33 -34t-45 -42t-47.5 -41.5t-42.5 -32.5h-84v13q16 19 36 44.5t39.5 53t32.5 49.5h144z" />
    <glyph glyph-name="ocircumflex" unicode="&#xf4;" horiz-adv-x="614" 
d="M565 272q0 -68 -18 -120t-51.5 -88.5t-82 -55t-107.5 -18.5q-56 0 -103 18.5t-81.5 55t-53.5 88.5t-19 120q0 90 31 152.5t89.5 95t138.5 32.5q76 0 133.5 -32.5t90.5 -95t33 -152.5zM178 272q0 -57 13.5 -97.5t42 -61.5t73.5 -21q46 0 74.5 21t41.5 61.5t13 97.5
q0 58 -13.5 97.5t-42 60t-73.5 20.5q-68 0 -98.5 -46t-30.5 -132zM377 766q13 -22 35.5 -49.5t46.5 -53.5t43 -45v-12h-85q-26 16 -56 38.5t-56 49.5q-27 -27 -55.5 -49t-54.5 -39h-85v12q19 20 42.5 45.5t46 53t35.5 49.5h143z" />
    <glyph glyph-name="otilde" unicode="&#xf5;" horiz-adv-x="614" 
d="M565 272q0 -68 -18 -120t-51.5 -88.5t-82 -55t-107.5 -18.5q-56 0 -103 18.5t-81.5 55t-53.5 88.5t-19 120q0 90 31 152.5t89.5 95t138.5 32.5q76 0 133.5 -32.5t90.5 -95t33 -152.5zM178 272q0 -57 13.5 -97.5t42 -61.5t73.5 -21q46 0 74.5 21t41.5 61.5t13 97.5
q0 58 -13.5 97.5t-42 60t-73.5 20.5q-68 0 -98.5 -46t-30.5 -132zM113 605q3 36 13.5 62.5t27 44.5t37.5 27t46 9q21 0 41 -8t38.5 -19t36.5 -19t35 -8q18 0 31.5 14t19.5 41h65q-6 -70 -40.5 -106.5t-83.5 -36.5q-21 0 -40 8t-38.5 19t-37 19t-35.5 8t-31.5 -13.5
t-19.5 -41.5h-65z" />
    <glyph glyph-name="odieresis" unicode="&#xf6;" horiz-adv-x="614" 
d="M565 272q0 -68 -18 -120t-51.5 -88.5t-82 -55t-107.5 -18.5q-56 0 -103 18.5t-81.5 55t-53.5 88.5t-19 120q0 90 31 152.5t89.5 95t138.5 32.5q76 0 133.5 -32.5t90.5 -95t33 -152.5zM178 272q0 -57 13.5 -97.5t42 -61.5t73.5 -21q46 0 74.5 21t41.5 61.5t13 97.5
q0 58 -13.5 97.5t-42 60t-73.5 20.5q-68 0 -98.5 -46t-30.5 -132zM150 672q0 31 17.5 45t42.5 14q24 0 42.5 -13.5t18.5 -45.5q0 -30 -18.5 -44.5t-42.5 -14.5q-25 0 -42.5 14.5t-17.5 44.5zM343 672q0 31 18 45t43 14q24 0 42 -13.5t18 -45.5q0 -30 -18 -44.5t-42 -14.5
q-25 0 -43 14.5t-18 44.5z" />
    <glyph glyph-name="divide" unicode="&#xf7;" 
d="M46 306v93h479v-93h-479zM285 113q-26 0 -44.5 16.5t-18.5 52.5q0 38 18.5 53.5t44.5 15.5q25 0 44 -15.5t19 -53.5q0 -36 -19 -52.5t-44 -16.5zM285 454q-26 0 -44.5 16.5t-18.5 52.5q0 38 18.5 53.5t44.5 15.5q25 0 44 -15.5t19 -53.5q0 -36 -19 -52.5t-44 -16.5z" />
    <glyph glyph-name="oslash" unicode="&#xf8;" horiz-adv-x="614" 
d="M565 272q0 -90 -31.5 -153t-90 -96t-138.5 -33q-33 0 -63 7t-56 19l-36 -51l-69 46l38 54q-33 37 -51.5 88.5t-18.5 118.5q0 135 69.5 207.5t189.5 72.5q35 0 66.5 -7.5t58.5 -21.5l32 46l68 -47l-34 -50q31 -35 48.5 -85.5t17.5 -114.5zM178 272q0 -29 3.5 -54t10.5 -45
l180 260q-13 8 -29.5 12.5t-36.5 4.5q-67 0 -97.5 -46t-30.5 -132zM436 272q0 27 -3 49t-9 40l-177 -256q13 -6 28 -9.5t32 -3.5q46 0 74.5 21t41.5 61.5t13 97.5z" />
    <glyph glyph-name="ugrave" unicode="&#xf9;" horiz-adv-x="642" 
d="M562 542v-542h-99l-17 70h-6q-17 -28 -44 -45.5t-59 -26t-66 -8.5q-60 0 -104 21t-67 64.5t-23 112.5v354h126v-329q0 -60 24 -90.5t76 -30.5q51 0 80 21.5t41 62.5t12 101v265h126zM304 766q13 -22 32 -49.5t39.5 -53t35.5 -44.5v-13h-83q-19 13 -42.5 32.5t-48 41.5
t-45 42t-32.5 34v10h144z" />
    <glyph glyph-name="uacute" unicode="&#xfa;" horiz-adv-x="642" 
d="M562 542v-542h-99l-17 70h-6q-17 -28 -44 -45.5t-59 -26t-66 -8.5q-60 0 -104 21t-67 64.5t-23 112.5v354h126v-329q0 -60 24 -90.5t76 -30.5q51 0 80 21.5t41 62.5t12 101v265h126zM711 766v-10q-12 -14 -33 -34t-45 -42t-47.5 -41.5t-42.5 -32.5h-84v13q16 19 36 44.5
t39.5 53t32.5 49.5h144z" />
    <glyph glyph-name="ucircumflex" unicode="&#xfb;" horiz-adv-x="642" 
d="M562 542v-542h-99l-17 70h-6q-17 -28 -44 -45.5t-59 -26t-66 -8.5q-60 0 -104 21t-67 64.5t-23 112.5v354h126v-329q0 -60 24 -90.5t76 -30.5q51 0 80 21.5t41 62.5t12 101v265h126zM391 766q13 -22 35.5 -49.5t46.5 -53.5t43 -45v-12h-85q-26 16 -56 38.5t-56 49.5
q-27 -27 -55.5 -49t-54.5 -39h-85v12q19 20 42.5 45.5t46 53t35.5 49.5h143z" />
    <glyph glyph-name="udieresis" unicode="&#xfc;" horiz-adv-x="642" 
d="M562 542v-542h-99l-17 70h-6q-17 -28 -44 -45.5t-59 -26t-66 -8.5q-60 0 -104 21t-67 64.5t-23 112.5v354h126v-329q0 -60 24 -90.5t76 -30.5q51 0 80 21.5t41 62.5t12 101v265h126zM164 672q0 31 17.5 45t42.5 14q24 0 42.5 -13.5t18.5 -45.5q0 -30 -18.5 -44.5
t-42.5 -14.5q-25 0 -42.5 14.5t-17.5 44.5zM357 672q0 31 18 45t43 14q24 0 42 -13.5t18 -45.5q0 -30 -18 -44.5t-42 -14.5q-25 0 -43 14.5t-18 44.5z" />
    <glyph glyph-name="yacute" unicode="&#xfd;" horiz-adv-x="547" 
d="M0 542h137l108 -306q7 -20 12.5 -38.5t9.5 -37.5t6 -38h4q4 25 12.5 55t17.5 59l104 306h136l-231 -614q-20 -53 -50.5 -91t-72 -57.5t-93.5 -19.5q-24 0 -42.5 2.5t-32.5 5.5v100q11 -2 26.5 -4t32.5 -2q31 0 53.5 12.5t38 34.5t25.5 49l16 44zM663 766v-10
q-12 -14 -33 -34t-45 -42t-47.5 -41.5t-42.5 -32.5h-84v13q16 19 36 44.5t39.5 53t32.5 49.5h144z" />
    <glyph glyph-name="thorn" unicode="&#xfe;" horiz-adv-x="626" 
d="M577 272q0 -92 -26.5 -155t-74 -95t-110.5 -32q-40 0 -70 9.5t-52 26t-37 35.5h-7q2 -9 3.5 -23.5t2.5 -29.5t1 -26v-222h-126v1000h126v-203q0 -21 -2 -46.5t-4 -39.5h6q15 23 36.5 41t52 29t70.5 11q95 0 153 -70.5t58 -209.5zM448 274q0 88 -28 132t-89 44
q-67 0 -94.5 -39.5t-29.5 -120.5v-17q0 -87 26.5 -133.5t98.5 -46.5q40 0 65.5 21t38 61.5t12.5 98.5z" />
    <glyph glyph-name="ydieresis" unicode="&#xff;" horiz-adv-x="547" 
d="M0 542h137l108 -306q7 -20 12.5 -38.5t9.5 -37.5t6 -38h4q4 25 12.5 55t17.5 59l104 306h136l-231 -614q-20 -53 -50.5 -91t-72 -57.5t-93.5 -19.5q-24 0 -42.5 2.5t-32.5 5.5v100q11 -2 26.5 -4t32.5 -2q31 0 53.5 12.5t38 34.5t25.5 49l16 44zM116 672q0 31 17.5 45
t42.5 14q24 0 42.5 -13.5t18.5 -45.5q0 -30 -18.5 -44.5t-42.5 -14.5q-25 0 -42.5 14.5t-17.5 44.5zM309 672q0 31 18 45t43 14q24 0 42 -13.5t18 -45.5q0 -30 -18 -44.5t-42 -14.5q-25 0 -43 14.5t-18 44.5z" />
    <glyph glyph-name="Amacron" unicode="&#x100;" horiz-adv-x="671" 
d="M534 0l-65 189h-269l-64 -189h-136l262 717h146l262 -717h-136zM374 483q-4 14 -12 38t-15.5 49.5t-11.5 42.5q-5 -20 -12.5 -46t-14 -49t-10.5 -35l-63 -184h201zM493 879v-91h-318v91h318z" />
    <glyph glyph-name="amacron" unicode="&#x101;" horiz-adv-x="588" 
d="M297 552q105 0 159.5 -45.5t54.5 -142.5v-364h-89l-25 75h-4q-23 -29 -47.5 -48.5t-56 -28t-76.5 -8.5q-48 0 -86.5 18t-60.5 55.5t-22 94.5q0 84 61.5 126.5t186.5 46.5l94 3v27q0 52 -25 74t-70 22q-41 0 -79 -12t-74 -28l-40 88q40 21 91.5 34t107.5 13zM320 254
q-83 -3 -115 -28.5t-32 -68.5q0 -38 23 -55t59 -17q55 0 93 31.5t38 93.5v46zM452 707v-91h-318v91h318z" />
    <glyph glyph-name="Abreve" unicode="&#x102;" horiz-adv-x="671" 
d="M534 0l-65 189h-269l-64 -189h-136l262 717h146l262 -717h-136zM374 483q-4 14 -12 38t-15.5 49.5t-11.5 42.5q-5 -20 -12.5 -46t-14 -49t-10.5 -35l-63 -184h201zM512 931q-3 -45 -26 -79.5t-62 -54t-92 -19.5q-81 0 -126.5 42t-49.5 111h72q3 -27 17 -40.5t37 -17
t51 -3.5q25 0 48 4.5t39 17.5t19 39h73z" />
    <glyph glyph-name="abreve" unicode="&#x103;" horiz-adv-x="588" 
d="M297 552q105 0 159.5 -45.5t54.5 -142.5v-364h-89l-25 75h-4q-23 -29 -47.5 -48.5t-56 -28t-76.5 -8.5q-48 0 -86.5 18t-60.5 55.5t-22 94.5q0 84 61.5 126.5t186.5 46.5l94 3v27q0 52 -25 74t-70 22q-41 0 -79 -12t-74 -28l-40 88q40 21 91.5 34t107.5 13zM320 254
q-83 -3 -115 -28.5t-32 -68.5q0 -38 23 -55t59 -17q55 0 93 31.5t38 93.5v46zM472 759q-3 -45 -26 -79.5t-62 -54t-92 -19.5q-81 0 -126.5 42t-49.5 111h72q3 -27 17 -40.5t37 -17t51 -3.5q25 0 48 4.5t39 17.5t19 39h73z" />
    <glyph glyph-name="Aogonek" unicode="&#x104;" horiz-adv-x="671" 
d="M534 0l-65 189h-269l-64 -189h-136l262 717h146l262 -717h-136zM374 483q-4 14 -12 38t-15.5 49.5t-11.5 42.5q-5 -20 -12.5 -46t-14 -49t-10.5 -35l-63 -184h201zM563 -113q0 -21 11.5 -31.5t30.5 -10.5q16 0 29.5 3t23.5 5v-75q-16 -4 -32.5 -7t-38.5 -3q-55 0 -85 29
t-30 76q0 29 15 56t38 49t50 38l59 -16q-34 -32 -52.5 -58.5t-18.5 -54.5z" />
    <glyph glyph-name="aogonek" unicode="&#x105;" horiz-adv-x="588" 
d="M297 552q105 0 159.5 -45.5t54.5 -142.5v-364h-89l-25 75h-4q-23 -29 -47.5 -48.5t-56 -28t-76.5 -8.5q-48 0 -86.5 18t-60.5 55.5t-22 94.5q0 84 61.5 126.5t186.5 46.5l94 3v27q0 52 -25 74t-70 22q-41 0 -79 -12t-74 -28l-40 88q40 21 91.5 34t107.5 13zM320 254
q-83 -3 -115 -28.5t-32 -68.5q0 -38 23 -55t59 -17q55 0 93 31.5t38 93.5v46zM432 -113q0 -21 11.5 -31.5t30.5 -10.5q16 0 29.5 3t23.5 5v-75q-16 -4 -32.5 -7t-38.5 -3q-55 0 -85 29t-30 76q0 29 15 56t38 49t50 38l59 -16q-34 -32 -52.5 -58.5t-18.5 -54.5z" />
    <glyph glyph-name="Cacute" unicode="&#x106;" horiz-adv-x="635" 
d="M397 616q-49 0 -87 -18t-64.5 -52t-40 -82t-13.5 -108q0 -81 22 -138.5t67.5 -88.5t114.5 -31q46 0 88.5 9.5t89.5 25.5v-109q-44 -18 -88.5 -26t-102.5 -8q-110 0 -182 45.5t-107 128t-35 193.5q0 81 22.5 148t65 116t105.5 76t145 27q54 0 106.5 -12.5t98.5 -34.5
l-44 -105q-38 17 -78.5 30.5t-82.5 13.5zM767 938v-10q-12 -14 -33 -34t-45 -42t-47.5 -41.5t-42.5 -32.5h-84v13q16 19 36 44.5t39.5 53t32.5 49.5h144z" />
    <glyph glyph-name="cacute" unicode="&#x107;" horiz-adv-x="501" 
d="M300 -10q-77 0 -133.5 29.5t-87 91t-30.5 157.5q0 100 33.5 162.5t92.5 92t135 29.5q51 0 91 -10t68 -24l-37 -99q-31 12 -62 20.5t-60 8.5q-45 0 -74.5 -20t-43.5 -59.5t-14 -99.5q0 -58 14.5 -97t43.5 -58.5t72 -19.5q46 0 81 11t66 30v-109q-31 -19 -66.5 -27.5
t-88.5 -8.5zM675 766v-10q-12 -14 -33 -34t-45 -42t-47.5 -41.5t-42.5 -32.5h-84v13q16 19 36 44.5t39.5 53t32.5 49.5h144z" />
    <glyph glyph-name="Cdotaccent" unicode="&#x10a;" horiz-adv-x="635" 
d="M397 616q-49 0 -87 -18t-64.5 -52t-40 -82t-13.5 -108q0 -81 22 -138.5t67.5 -88.5t114.5 -31q46 0 88.5 9.5t89.5 25.5v-109q-44 -18 -88.5 -26t-102.5 -8q-110 0 -182 45.5t-107 128t-35 193.5q0 81 22.5 148t65 116t105.5 76t145 27q54 0 106.5 -12.5t98.5 -34.5
l-44 -105q-38 17 -78.5 30.5t-82.5 13.5zM378 923q28 0 49 -14.5t21 -51.5q0 -36 -21 -51.5t-49 -15.5q-29 0 -49.5 15.5t-20.5 51.5q0 37 20.5 51.5t49.5 14.5z" />
    <glyph glyph-name="cdotaccent" unicode="&#x10b;" horiz-adv-x="501" 
d="M300 -10q-77 0 -133.5 29.5t-87 91t-30.5 157.5q0 100 33.5 162.5t92.5 92t135 29.5q51 0 91 -10t68 -24l-37 -99q-31 12 -62 20.5t-60 8.5q-45 0 -74.5 -20t-43.5 -59.5t-14 -99.5q0 -58 14.5 -97t43.5 -58.5t72 -19.5q46 0 81 11t66 30v-109q-31 -19 -66.5 -27.5
t-88.5 -8.5zM286 751q28 0 49 -14.5t21 -51.5q0 -36 -21 -51.5t-49 -15.5q-29 0 -49.5 15.5t-20.5 51.5q0 37 20.5 51.5t49.5 14.5z" />
    <glyph glyph-name="Ccaron" unicode="&#x10c;" horiz-adv-x="635" 
d="M397 616q-49 0 -87 -18t-64.5 -52t-40 -82t-13.5 -108q0 -81 22 -138.5t67.5 -88.5t114.5 -31q46 0 88.5 9.5t89.5 25.5v-109q-44 -18 -88.5 -26t-102.5 -8q-110 0 -182 45.5t-107 128t-35 193.5q0 81 22.5 148t65 116t105.5 76t145 27q54 0 106.5 -12.5t98.5 -34.5
l-44 -105q-38 17 -78.5 30.5t-82.5 13.5zM306 778q-13 23 -35.5 50t-46 53t-42.5 44v13h84q26 -16 55.5 -38.5t54.5 -49.5q27 27 57 49.5t56 38.5h85v-13q-19 -18 -43 -44t-46.5 -53t-35.5 -50h-143z" />
    <glyph glyph-name="ccaron" unicode="&#x10d;" horiz-adv-x="501" 
d="M300 -10q-77 0 -133.5 29.5t-87 91t-30.5 157.5q0 100 33.5 162.5t92.5 92t135 29.5q51 0 91 -10t68 -24l-37 -99q-31 12 -62 20.5t-60 8.5q-45 0 -74.5 -20t-43.5 -59.5t-14 -99.5q0 -58 14.5 -97t43.5 -58.5t72 -19.5q46 0 81 11t66 30v-109q-31 -19 -66.5 -27.5
t-88.5 -8.5zM214 606q-13 23 -35.5 50t-46 53t-42.5 44v13h84q26 -16 55.5 -38.5t54.5 -49.5q27 27 57 49.5t56 38.5h85v-13q-19 -18 -43 -44t-46.5 -53t-35.5 -50h-143z" />
    <glyph glyph-name="Dcaron" unicode="&#x10e;" horiz-adv-x="736" 
d="M677 364q0 -120 -45.5 -201t-131 -122t-206.5 -41h-201v714h222q111 0 192 -40t125.5 -117.5t44.5 -192.5zM543 360q0 85 -26 140t-77 81.5t-125 26.5h-94v-501h77q124 0 184.5 63.5t60.5 189.5zM295 778q-13 23 -35.5 50t-46 53t-42.5 44v13h84q26 -16 55.5 -38.5
t54.5 -49.5q27 27 57 49.5t56 38.5h85v-13q-19 -18 -43 -44t-46.5 -53t-35.5 -50h-143z" />
    <glyph glyph-name="dcaron" unicode="&#x10f;" horiz-adv-x="626" 
d="M260 -10q-94 0 -152.5 70.5t-58.5 209.5t59 210.5t155 71.5q40 0 70.5 -10.5t52.5 -28.5t37 -40h6q-3 14 -6 43t-3 54v190h126v-760h-98l-23 71h-5q-15 -22 -37 -40.5t-52 -29.5t-71 -11zM298 92q70 0 99 40t29 121v16q0 88 -27.5 134t-102.5 46q-57 0 -88 -47.5
t-31 -133.5t31 -131t90 -45zM731 750q-8 -20 -20 -45.5t-26.5 -52.5t-31.5 -52h-72v13q5 14 9.5 33t8.5 39t7.5 39.5t5.5 35.5h119v-10z" />
    <glyph glyph-name="Dcroat" unicode="&#x110;" horiz-adv-x="736" 
d="M315 714q110 0 191.5 -40t126 -117.5t44.5 -192.5q0 -120 -45.5 -201t-131.5 -122t-207 -41h-198v300h-69v106h69v308h220zM315 608h-92v-202h140v-106h-140v-193h74q124 0 185 64t61 190q0 84 -27 139t-78 81.5t-123 26.5z" />
    <glyph glyph-name="dcroat" unicode="&#x111;" horiz-adv-x="637" 
d="M260 -10q-94 0 -152.5 68.5t-58.5 201.5q0 136 59 204t155 68q40 0 70.5 -10.5t52.5 -28.5t37 -40h6q-4 18 -6.5 48.5t-2.5 51.5v39h-177v85h177v83h126v-83h76v-85h-76v-592h-99l-23 71h-5q-15 -22 -37 -40.5t-51.5 -29.5t-70.5 -11zM298 92q70 0 99 37.5t29 114.5v15
q0 83 -27.5 127t-102.5 44q-57 0 -87.5 -45t-30.5 -127q0 -81 30.5 -123.5t89.5 -42.5z" />
    <glyph glyph-name="Emacron" unicode="&#x112;" horiz-adv-x="558" 
d="M499 0h-406v714h406v-107h-278v-182h260v-107h-260v-210h278v-108zM461 879v-91h-318v91h318z" />
    <glyph glyph-name="emacron" unicode="&#x113;" horiz-adv-x="581" 
d="M299 552q73 0 125.5 -29.5t81.5 -84t29 -132.5v-64h-358q2 -74 41 -114.5t108 -40.5q53 0 94.5 10.5t85.5 30.5v-101q-40 -19 -83 -28t-103 -9q-79 0 -140.5 30.5t-96 92.5t-34.5 154q0 93 31.5 156.5t87.5 96t131 32.5zM299 459q-50 0 -81.5 -32.5t-37.5 -96.5h233
q0 38 -12.5 67t-37.5 45.5t-64 16.5zM450 707v-91h-318v91h318z" />
    <glyph glyph-name="Edotaccent" unicode="&#x116;" horiz-adv-x="558" 
d="M499 0h-406v714h406v-107h-278v-182h260v-107h-260v-210h278v-108zM303 923q28 0 49 -14.5t21 -51.5q0 -36 -21 -51.5t-49 -15.5q-29 0 -49.5 15.5t-20.5 51.5q0 37 20.5 51.5t49.5 14.5z" />
    <glyph glyph-name="edotaccent" unicode="&#x117;" horiz-adv-x="581" 
d="M299 552q73 0 125.5 -29.5t81.5 -84t29 -132.5v-64h-358q2 -74 41 -114.5t108 -40.5q53 0 94.5 10.5t85.5 30.5v-101q-40 -19 -83 -28t-103 -9q-79 0 -140.5 30.5t-96 92.5t-34.5 154q0 93 31.5 156.5t87.5 96t131 32.5zM299 459q-50 0 -81.5 -32.5t-37.5 -96.5h233
q0 38 -12.5 67t-37.5 45.5t-64 16.5zM292 751q28 0 49 -14.5t21 -51.5q0 -36 -21 -51.5t-49 -15.5q-29 0 -49.5 15.5t-20.5 51.5q0 37 20.5 51.5t49.5 14.5z" />
    <glyph glyph-name="Eogonek" unicode="&#x118;" horiz-adv-x="558" 
d="M499 0h-406v714h406v-107h-278v-182h260v-107h-260v-210h278v-108zM403 -113q0 -21 11.5 -31.5t30.5 -10.5q16 0 29.5 3t23.5 5v-75q-16 -4 -32.5 -7t-38.5 -3q-55 0 -85 29t-30 76q0 29 15 56t38 49t50 38l59 -16q-34 -32 -52.5 -58.5t-18.5 -54.5z" />
    <glyph glyph-name="eogonek" unicode="&#x119;" horiz-adv-x="581" 
d="M404 -113q0 -21 11.5 -31.5t29.5 -10.5q17 0 30.5 3l22.5 5v-75q-15 -4 -31.5 -7t-39.5 -3q-54 0 -84 29t-30 76q0 29 14.5 56t38.5 49t50 38l90 11q-40 -33 -62 -58t-31 -44t-9 -38zM299 552q73 0 125.5 -29.5t81.5 -84t29 -132.5v-64h-358q2 -74 41 -114.5t108 -40.5
q53 0 94.5 10.5t85.5 30.5v-101q-40 -19 -83 -28t-103 -9q-79 0 -140.5 30.5t-96 92.5t-34.5 154q0 93 31.5 156.5t87.5 96t131 32.5zM299 459q-50 0 -81.5 -32.5t-37.5 -96.5h233q0 38 -12.5 67t-37.5 45.5t-64 16.5z" />
    <glyph glyph-name="Ecaron" unicode="&#x11a;" horiz-adv-x="558" 
d="M499 0h-406v714h406v-107h-278v-182h260v-107h-260v-210h278v-108zM231 778q-13 23 -35.5 50t-46 53t-42.5 44v13h84q26 -16 55.5 -38.5t54.5 -49.5q27 27 57 49.5t56 38.5h85v-13q-19 -18 -43 -44t-46.5 -53t-35.5 -50h-143z" />
    <glyph glyph-name="ecaron" unicode="&#x11b;" horiz-adv-x="581" 
d="M299 552q73 0 125.5 -29.5t81.5 -84t29 -132.5v-64h-358q2 -74 41 -114.5t108 -40.5q53 0 94.5 10.5t85.5 30.5v-101q-40 -19 -83 -28t-103 -9q-79 0 -140.5 30.5t-96 92.5t-34.5 154q0 93 31.5 156.5t87.5 96t131 32.5zM299 459q-50 0 -81.5 -32.5t-37.5 -96.5h233
q0 38 -12.5 67t-37.5 45.5t-64 16.5zM220 606q-13 23 -35.5 50t-46 53t-42.5 44v13h84q26 -16 55.5 -38.5t54.5 -49.5q27 27 57 49.5t56 38.5h85v-13q-19 -18 -43 -44t-46.5 -53t-35.5 -50h-143z" />
    <glyph glyph-name="Gbreve" unicode="&#x11e;" horiz-adv-x="726" 
d="M378 392h270v-363q-57 -19 -117 -29t-136 -10q-108 0 -183 43t-114 125t-39 200q0 112 44 194t126.5 127t201.5 45q58 0 112.5 -11.5t99.5 -31.5l-44 -105q-34 17 -78.5 28.5t-92.5 11.5q-73 0 -126 -32t-81.5 -90.5t-28.5 -137.5q0 -76 22 -134.5t70 -91t125 -32.5
q38 0 64.5 3.5t48.5 9.5v172h-144v109zM579 931q-3 -45 -26 -79.5t-62 -54t-92 -19.5q-81 0 -126.5 42t-49.5 111h72q3 -27 17 -40.5t37 -17t51 -3.5q25 0 48 4.5t39 17.5t19 39h73z" />
    <glyph glyph-name="gbreve" unicode="&#x11f;" horiz-adv-x="626" 
d="M263 552q51 0 92 -20t69 -60h5l12 70h105v-546q0 -77 -29 -129.5t-87 -79.5t-145 -27q-58 0 -107 7.5t-93 25.5v104q46 -20 98.5 -31t109.5 -11q62 0 94.5 35t32.5 100v14q0 15 1.5 35t2.5 32h-4q-28 -42 -68 -61.5t-92 -19.5q-99 0 -155 74t-56 206t57 207t157 75z
M296 449q-38 0 -64.5 -20.5t-40 -60.5t-13.5 -100q0 -88 30 -133t90 -45q34 0 58 8.5t39.5 28t23.5 50t8 73.5v19q0 65 -14 104.5t-42.5 57.5t-74.5 18zM485 759q-3 -45 -26 -79.5t-62 -54t-92 -19.5q-81 0 -126.5 42t-49.5 111h72q3 -27 17 -40.5t37 -17t51 -3.5
q25 0 48 4.5t39 17.5t19 39h73z" />
    <glyph glyph-name="Gdotaccent" unicode="&#x120;" horiz-adv-x="726" 
d="M378 392h270v-363q-57 -19 -117 -29t-136 -10q-108 0 -183 43t-114 125t-39 200q0 112 44 194t126.5 127t201.5 45q58 0 112.5 -11.5t99.5 -31.5l-44 -105q-34 17 -78.5 28.5t-92.5 11.5q-73 0 -126 -32t-81.5 -90.5t-28.5 -137.5q0 -76 22 -134.5t70 -91t125 -32.5
q38 0 64.5 3.5t48.5 9.5v172h-144v109zM402 923q28 0 49 -14.5t21 -51.5q0 -36 -21 -51.5t-49 -15.5q-29 0 -49.5 15.5t-20.5 51.5q0 37 20.5 51.5t49.5 14.5z" />
    <glyph glyph-name="gdotaccent" unicode="&#x121;" horiz-adv-x="626" 
d="M263 552q51 0 92 -20t69 -60h5l12 70h105v-546q0 -77 -29 -129.5t-87 -79.5t-145 -27q-58 0 -107 7.5t-93 25.5v104q46 -20 98.5 -31t109.5 -11q62 0 94.5 35t32.5 100v14q0 15 1.5 35t2.5 32h-4q-28 -42 -68 -61.5t-92 -19.5q-99 0 -155 74t-56 206t57 207t157 75z
M296 449q-38 0 -64.5 -20.5t-40 -60.5t-13.5 -100q0 -88 30 -133t90 -45q34 0 58 8.5t39.5 28t23.5 50t8 73.5v19q0 65 -14 104.5t-42.5 57.5t-74.5 18zM308 751q28 0 49 -14.5t21 -51.5q0 -36 -21 -51.5t-49 -15.5q-29 0 -49.5 15.5t-20.5 51.5q0 37 20.5 51.5t49.5 14.5z
" />
    <glyph glyph-name="uni0122" unicode="&#x122;" horiz-adv-x="726" 
d="M378 392h270v-363q-57 -19 -117 -29t-136 -10q-108 0 -183 43t-114 125t-39 200q0 112 44 194t126.5 127t201.5 45q58 0 112.5 -11.5t99.5 -31.5l-44 -105q-34 17 -78.5 28.5t-92.5 11.5q-73 0 -126 -32t-81.5 -90.5t-28.5 -137.5q0 -76 22 -134.5t70 -91t125 -32.5
q38 0 64.5 3.5t48.5 9.5v172h-144v109zM471 -71q-8 -20 -20.5 -45.5t-27.5 -52.5t-33 -52h-72v13q7 18 13.5 44.5t12.5 54t8 48.5h119v-10z" />
    <glyph glyph-name="uni0123" unicode="&#x123;" horiz-adv-x="626" 
d="M263 552q51 0 92 -20t69 -60h5l12 70h105v-546q0 -77 -29 -129.5t-87 -79.5t-145 -27q-58 0 -107 7.5t-93 25.5v104q46 -20 98.5 -31t109.5 -11q62 0 94.5 35t32.5 100v14q0 15 1.5 35t2.5 32h-4q-28 -42 -68 -61.5t-92 -19.5q-99 0 -155 74t-56 206t57 207t157 75z
M296 449q-38 0 -64.5 -20.5t-40 -60.5t-13.5 -100q0 -88 30 -133t90 -45q34 0 58 8.5t39.5 28t23.5 50t8 73.5v19q0 65 -14 104.5t-42.5 57.5t-74.5 18zM381 753q-7 -18 -13.5 -44.5t-12.5 -53.5t-9 -49h-119v10q8 20 20.5 45.5t28 53t32.5 51.5h73v-13z" />
    <glyph glyph-name="Hbar" unicode="&#x126;" horiz-adv-x="756" 
d="M93 0v522h-93v88h93v104h128v-104h314v104h128v-104h93v-88h-93v-522h-128v317h-314v-317h-128zM221 426h314v96h-314v-96z" />
    <glyph glyph-name="hbar" unicode="&#x127;" horiz-adv-x="642" 
d="M207 760v-83h176v-85h-176v-39q0 -32 -2.5 -62.5t-4.5 -45.5h8q18 28 42.5 45.5t55 26.5t64.5 9q61 0 105 -21t67 -64.5t23 -113.5v-327h-126v302q0 61 -24 91.5t-76 30.5q-50 0 -79 -21.5t-41 -62.5t-12 -101v-239h-126v592h-76v85h76v83h126z" />
    <glyph glyph-name="Imacron" unicode="&#x12a;" horiz-adv-x="370" 
d="M335 0h-300v73l86 32v503l-86 33v73h300v-73l-86 -33v-503l86 -32v-73zM344 879v-91h-318v91h318z" />
    <glyph glyph-name="imacron" unicode="&#x12b;" horiz-adv-x="287" 
d="M207 0h-126v542h126v-542zM302 707v-91h-318v91h318z" />
    <glyph glyph-name="Iogonek" unicode="&#x12e;" horiz-adv-x="370" 
d="M335 0h-300v73l86 32v503l-86 33v73h300v-73l-86 -33v-503l86 -32v-73zM236 -113q0 -21 11.5 -31.5t30.5 -10.5q16 0 29.5 3t23.5 5v-75q-16 -4 -32.5 -7t-38.5 -3q-55 0 -85 29t-30 76q0 29 15 56t38 49t50 38l59 -16q-34 -32 -52.5 -58.5t-18.5 -54.5z" />
    <glyph glyph-name="iogonek" unicode="&#x12f;" horiz-adv-x="287" 
d="M207 542v-542h-126v542h126zM144 751q28 0 49 -14.5t21 -51.5q0 -36 -21 -51.5t-49 -15.5q-29 0 -49.5 15.5t-20.5 51.5q0 37 20.5 51.5t49.5 14.5zM129 -113q0 -21 11.5 -31.5t30.5 -10.5q16 0 29.5 3t23.5 5v-75q-16 -4 -32.5 -7t-38.5 -3q-55 0 -85 29t-30 76
q0 29 15 56t38 49t50 38l59 -16q-34 -32 -52.5 -58.5t-18.5 -54.5z" />
    <glyph glyph-name="Idotaccent" unicode="&#x130;" horiz-adv-x="370" 
d="M335 0h-300v73l86 32v503l-86 33v73h300v-73l-86 -33v-503l86 -32v-73zM186 923q28 0 49 -14.5t21 -51.5q0 -36 -21 -51.5t-49 -15.5q-29 0 -49.5 15.5t-20.5 51.5q0 37 20.5 51.5t49.5 14.5z" />
    <glyph glyph-name="dotlessi" unicode="&#x131;" horiz-adv-x="287" 
d="M207 0h-126v542h126v-542z" />
    <glyph glyph-name="IJ" unicode="&#x132;" horiz-adv-x="679" 
d="M335 0h-300v73l86 32v503l-86 33v73h300v-73l-86 -33v-503l86 -32v-73zM378 -202q-28 0 -48 3.5t-36 7.5v107q16 -4 34 -7t38 -3q25 0 47 10t35 37t13 77v684h128v-681q0 -84 -26.5 -135.5t-74 -75.5t-110.5 -24z" />
    <glyph glyph-name="ij" unicode="&#x133;" horiz-adv-x="575" 
d="M207 542v-542h-126v542h126zM144 751q28 0 49 -14.5t21 -51.5q0 -36 -21 -51.5t-49 -15.5q-29 0 -49.5 15.5t-20.5 51.5q0 37 20.5 51.5t49.5 14.5zM316 -240q-25 0 -49 3.5t-41 8.5v100q17 -4 33 -7t36 -3q31 0 52 17.5t21 66.5v596h126v-609q0 -50 -18 -89t-57 -61.5
t-103 -22.5zM361 685q0 37 20.5 51.5t49.5 14.5q28 0 49 -14.5t21 -51.5q0 -36 -21 -51.5t-49 -15.5q-29 0 -49.5 15.5t-20.5 51.5z" />
    <glyph glyph-name="uni0136" unicode="&#x136;" horiz-adv-x="647" 
d="M647 0h-147l-212 316l-67 -53v-263h-128v714h128v-336q20 25 41 51l42 52l193 233h145l-262 -314zM418 -71q-8 -20 -20.5 -45.5t-27.5 -52.5t-33 -52h-72v13q7 18 13.5 44.5t12.5 54t8 48.5h119v-10z" />
    <glyph glyph-name="uni0137" unicode="&#x137;" horiz-adv-x="588" 
d="M206 399q0 -26 -2 -54.5t-4 -55.5h3q8 12 19 26.5t22.5 29t22.5 26.5l160 171h143l-217 -234l231 -308h-147l-168 232l-63 -52v-180h-125v760h125v-361zM370 -71q-8 -20 -20.5 -45.5t-27.5 -52.5t-33 -52h-72v13q7 18 13.5 44.5t12.5 54t8 48.5h119v-10z" />
    <glyph glyph-name="Lacute" unicode="&#x139;" horiz-adv-x="550" 
d="M93 0v714h128v-606h298v-108h-426zM544 938v-10q-12 -14 -33 -34t-45 -42t-47.5 -41.5t-42.5 -32.5h-84v13q16 19 36 44.5t39.5 53t32.5 49.5h144z" />
    <glyph glyph-name="lacute" unicode="&#x13a;" horiz-adv-x="287" 
d="M207 0h-126v760h126v-760zM533 984v-10q-12 -14 -33 -34t-45 -42t-47.5 -41.5t-42.5 -32.5h-84v13q16 19 36 44.5t39.5 53t32.5 49.5h144z" />
    <glyph glyph-name="uni013B" unicode="&#x13b;" horiz-adv-x="550" 
d="M93 0v714h128v-606h298v-108h-426zM382 -71q-8 -20 -20.5 -45.5t-27.5 -52.5t-33 -52h-72v13q7 18 13.5 44.5t12.5 54t8 48.5h119v-10z" />
    <glyph glyph-name="uni013C" unicode="&#x13c;" horiz-adv-x="287" 
d="M207 0h-126v760h126v-760zM220 -71q-8 -20 -20.5 -45.5t-27.5 -52.5t-33 -52h-72v13q7 18 13.5 44.5t12.5 54t8 48.5h119v-10z" />
    <glyph glyph-name="Lcaron" unicode="&#x13d;" horiz-adv-x="550" 
d="M93 0v714h128v-606h298v-108h-426zM536 704q-8 -20 -20 -45.5t-26.5 -52.5t-31.5 -52h-72v13q5 14 9.5 33t8.5 39t7.5 39.5t5.5 35.5h119v-10z" />
    <glyph glyph-name="lcaron" unicode="&#x13e;" horiz-adv-x="287" 
d="M207 0h-126v760h126v-760zM390 750q-8 -20 -20 -45.5t-26.5 -52.5t-31.5 -52h-72v13q5 14 9.5 33t8.5 39t7.5 39.5t5.5 35.5h119v-10z" />
    <glyph glyph-name="Lslash" unicode="&#x141;" horiz-adv-x="550" 
d="M93 0v243l-40 -23l-47 82l87 53v359h128v-282l95 57l49 -83l-144 -86v-212h298v-108h-426z" />
    <glyph glyph-name="lslash" unicode="&#x142;" horiz-adv-x="287" 
d="M78 0v253l-41 -26l-48 83l89 55v395h126v-317l45 30l50 -82l-95 -60v-331h-126z" />
    <glyph glyph-name="Nacute" unicode="&#x143;" horiz-adv-x="793" 
d="M700 0h-159l-338 560h-4q2 -30 3.5 -63t3 -67.5t2.5 -69.5v-360h-115v714h158l337 -556h3q-1 26 -2 59t-2.5 67.5t-2.5 66.5v363h116v-714zM786 938v-10q-12 -14 -33 -34t-45 -42t-47.5 -41.5t-42.5 -32.5h-84v13q16 19 36 44.5t39.5 53t32.5 49.5h144z" />
    <glyph glyph-name="nacute" unicode="&#x144;" horiz-adv-x="642" 
d="M371 552q91 0 142.5 -47t51.5 -152v-353h-126v328q0 61 -24 91.5t-76 30.5q-76 0 -104 -47.5t-28 -137.5v-265h-126v542h97l18 -71h7q18 28 44 46t58 26.5t66 8.5zM711 766v-10q-12 -14 -33 -34t-45 -42t-47.5 -41.5t-42.5 -32.5h-84v13q16 19 36 44.5t39.5 53t32.5 49.5
h144z" />
    <glyph glyph-name="uni0145" unicode="&#x145;" horiz-adv-x="793" 
d="M700 0h-159l-338 560h-4q2 -30 3.5 -63t3 -67.5t2.5 -69.5v-360h-115v714h158l337 -556h3q-1 26 -2 59t-2.5 67.5t-2.5 66.5v363h116v-714zM473 -71q-8 -20 -20.5 -45.5t-27.5 -52.5t-33 -52h-72v13q7 18 13.5 44.5t12.5 54t8 48.5h119v-10z" />
    <glyph glyph-name="uni0146" unicode="&#x146;" horiz-adv-x="642" 
d="M371 552q91 0 142.5 -47t51.5 -152v-353h-126v328q0 61 -24 91.5t-76 30.5q-76 0 -104 -47.5t-28 -137.5v-265h-126v542h97l18 -71h7q18 28 44 46t58 26.5t66 8.5zM398 -71q-8 -20 -20.5 -45.5t-27.5 -52.5t-33 -52h-72v13q7 18 13.5 44.5t12.5 54t8 48.5h119v-10z" />
    <glyph glyph-name="Ncaron" unicode="&#x147;" horiz-adv-x="793" 
d="M700 0h-159l-338 560h-4q2 -30 3.5 -63t3 -67.5t2.5 -69.5v-360h-115v714h158l337 -556h3q-1 26 -2 59t-2.5 67.5t-2.5 66.5v363h116v-714zM325 778q-13 23 -35.5 50t-46 53t-42.5 44v13h84q26 -16 55.5 -38.5t54.5 -49.5q27 27 57 49.5t56 38.5h85v-13q-19 -18 -43 -44
t-46.5 -53t-35.5 -50h-143z" />
    <glyph glyph-name="ncaron" unicode="&#x148;" horiz-adv-x="642" 
d="M371 552q91 0 142.5 -47t51.5 -152v-353h-126v328q0 61 -24 91.5t-76 30.5q-76 0 -104 -47.5t-28 -137.5v-265h-126v542h97l18 -71h7q18 28 44 46t58 26.5t66 8.5zM250 606q-13 23 -35.5 50t-46 53t-42.5 44v13h84q26 -16 55.5 -38.5t54.5 -49.5q27 27 57 49.5t56 38.5
h85v-13q-19 -18 -43 -44t-46.5 -53t-35.5 -50h-143z" />
    <glyph glyph-name="Eng" unicode="&#x14a;" horiz-adv-x="793" 
d="M488 -202q-29 0 -51 3.5t-37 7.5v102q17 -4 36.5 -7t42.5 -3q33 0 56.5 9.5t37 31.5t13.5 59l-383 559h-4q2 -25 4 -61.5t3.5 -74.5t1.5 -69v-355h-115v714h158l337 -490h3q-1 26 -3 61t-3 71.5t-1 65.5v292h116v-712q0 -70 -26 -115.5t-74 -67t-112 -21.5z" />
    <glyph glyph-name="eng" unicode="&#x14b;" horiz-adv-x="642" 
d="M401 -240q-24 0 -45.5 3.5t-37.5 8.5v100q15 -4 28.5 -7t30.5 -3q26 0 44 17.5t18 66.5v389q0 58 -24.5 86.5t-74.5 28.5q-51 0 -80 -21.5t-41 -62.5t-12 -101v-265h-126v542h97l18 -71h8q18 28 43.5 46t57.5 26.5t66 8.5q61 0 104.5 -20.5t66.5 -64.5t23 -113v-421
q0 -50 -16.5 -89t-52.5 -61.5t-95 -22.5z" />
    <glyph glyph-name="Omacron" unicode="&#x14c;" horiz-adv-x="790" 
d="M731 358q0 -83 -20.5 -150.5t-62 -116.5t-105 -75t-148.5 -26q-86 0 -149.5 26.5t-104.5 75t-61.5 116.5t-20.5 151q0 111 36.5 193t111 127.5t189.5 45.5q113 0 187 -45.5t111 -128t37 -193.5zM194 358q0 -81 21.5 -139t66 -89t113.5 -31q71 0 115 31t65 89t21 139
q0 121 -47 190t-153 69q-70 0 -114.5 -31t-66 -89t-21.5 -139zM553 879v-91h-318v91h318z" />
    <glyph glyph-name="omacron" unicode="&#x14d;" horiz-adv-x="614" 
d="M565 272q0 -68 -18 -120t-51.5 -88.5t-82 -55t-107.5 -18.5q-56 0 -103 18.5t-81.5 55t-53.5 88.5t-19 120q0 90 31 152.5t89.5 95t138.5 32.5q76 0 133.5 -32.5t90.5 -95t33 -152.5zM178 272q0 -57 13.5 -97.5t42 -61.5t73.5 -21q46 0 74.5 21t41.5 61.5t13 97.5
q0 58 -13.5 97.5t-42 60t-73.5 20.5q-68 0 -98.5 -46t-30.5 -132zM465 707v-91h-318v91h318z" />
    <glyph glyph-name="Ohungarumlaut" unicode="&#x150;" horiz-adv-x="790" 
d="M731 358q0 -83 -20.5 -150.5t-62 -116.5t-105 -75t-148.5 -26q-86 0 -149.5 26.5t-104.5 75t-61.5 116.5t-20.5 151q0 111 36.5 193t111 127.5t189.5 45.5q113 0 187 -45.5t111 -128t37 -193.5zM194 358q0 -81 21.5 -139t66 -89t113.5 -31q71 0 115 31t65 89t21 139
q0 121 -47 190t-153 69q-70 0 -114.5 -31t-66 -89t-21.5 -139zM599 928q-8 -13 -25.5 -33t-40.5 -42t-45.5 -41.5t-40.5 -33.5h-68v13q14 19 31.5 45t34 53t26.5 49h128v-10zM412 928q-8 -13 -25.5 -33t-40.5 -42t-45.5 -41.5t-40.5 -33.5h-68v13q14 19 31 45t33 53t28 49
h128v-10z" />
    <glyph glyph-name="ohungarumlaut" unicode="&#x151;" horiz-adv-x="614" 
d="M565 272q0 -68 -18 -120t-51.5 -88.5t-82 -55t-107.5 -18.5q-56 0 -103 18.5t-81.5 55t-53.5 88.5t-19 120q0 90 31 152.5t89.5 95t138.5 32.5q76 0 133.5 -32.5t90.5 -95t33 -152.5zM178 272q0 -57 13.5 -97.5t42 -61.5t73.5 -21q46 0 74.5 21t41.5 61.5t13 97.5
q0 58 -13.5 97.5t-42 60t-73.5 20.5q-68 0 -98.5 -46t-30.5 -132zM511 756q-8 -13 -25.5 -33t-40.5 -42t-45.5 -41.5t-40.5 -33.5h-68v13q14 19 31.5 45t34 53t26.5 49h128v-10zM324 756q-8 -13 -25.5 -33t-40.5 -42t-45.5 -41.5t-40.5 -33.5h-68v13q14 19 31 45t33 53
t28 49h128v-10z" />
    <glyph glyph-name="OE" unicode="&#x152;" horiz-adv-x="956" 
d="M382 725q26 0 54.5 -3t50.5 -8h410v-107h-280v-182h261v-107h-261v-210h280v-108h-409q-22 -4 -50.5 -7t-54.5 -3q-110 0 -182 46t-107 129t-35 194t35 193t106.5 127.5t181.5 45.5zM385 617q-50 0 -86.5 -17.5t-60 -51.5t-35 -81.5t-11.5 -108.5q0 -81 20.5 -139t63 -89
t108.5 -31q28 0 57 4.5t49 13.5v481q-20 9 -48.5 14t-56.5 5z" />
    <glyph glyph-name="oe" unicode="&#x153;" horiz-adv-x="966" 
d="M681 552q74 0 127.5 -29.5t82.5 -84t29 -132.5v-64h-361q2 -76 41 -115.5t107 -39.5q55 0 97.5 10.5t86.5 30.5v-101q-41 -19 -84 -28t-104 -9q-64 0 -116.5 22t-87.5 67q-33 -44 -83 -66.5t-111 -22.5q-75 0 -132.5 33t-91 96t-33.5 153t30.5 152t88.5 95t138 33
q58 0 107.5 -22.5t81.5 -66.5q23 30 51 49.5t62.5 29.5t73.5 10zM304 450q-67 0 -96.5 -44.5t-29.5 -133.5q0 -59 13 -99t41 -60.5t73 -20.5t72.5 20.5t40.5 60t13 98.5q0 60 -13 99.5t-41 59.5t-73 20zM682 459q-51 0 -83 -32.5t-37 -96.5h235q0 38 -12.5 67t-37.5 45.5
t-65 16.5z" />
    <glyph glyph-name="Racute" unicode="&#x154;" horiz-adv-x="646" 
d="M296 714q94 0 155 -23t91 -69.5t30 -117.5q0 -52 -19.5 -89t-50.5 -61.5t-67 -39.5l205 -314h-144l-171 282h-104v-282h-128v714h203zM288 607h-67v-220h71q79 0 114.5 28.5t35.5 84.5q0 39 -17 62.5t-50.5 34t-86.5 10.5zM717 938v-10q-12 -14 -33 -34t-45 -42
t-47.5 -41.5t-42.5 -32.5h-84v13q16 19 36 44.5t39.5 53t32.5 49.5h144z" />
    <glyph glyph-name="racute" unicode="&#x155;" horiz-adv-x="439" 
d="M365 552q12 0 28 -1t27 -4l-11 -117q-9 2 -23.5 3.5t-25.5 1.5q-30 0 -57.5 -9.5t-49 -28t-34 -47.5t-12.5 -69v-281h-126v542h97l18 -94h6q16 29 40 52.5t55.5 37.5t67.5 14zM638 766v-10q-12 -14 -33 -34t-45 -42t-47.5 -41.5t-42.5 -32.5h-84v13q16 19 36 44.5
t39.5 53t32.5 49.5h144z" />
    <glyph glyph-name="uni0156" unicode="&#x156;" horiz-adv-x="646" 
d="M296 714q94 0 155 -23t91 -69.5t30 -117.5q0 -52 -19.5 -89t-50.5 -61.5t-67 -39.5l205 -314h-144l-171 282h-104v-282h-128v714h203zM288 607h-67v-220h71q79 0 114.5 28.5t35.5 84.5q0 39 -17 62.5t-50.5 34t-86.5 10.5zM423 -71q-8 -20 -20.5 -45.5t-27.5 -52.5
t-33 -52h-72v13q7 18 13.5 44.5t12.5 54t8 48.5h119v-10z" />
    <glyph glyph-name="uni0157" unicode="&#x157;" horiz-adv-x="439" 
d="M365 552q12 0 28 -1t27 -4l-11 -117q-9 2 -23.5 3.5t-25.5 1.5q-30 0 -57.5 -9.5t-49 -28t-34 -47.5t-12.5 -69v-281h-126v542h97l18 -94h6q16 29 40 52.5t55.5 37.5t67.5 14zM221 -71q-8 -20 -20.5 -45.5t-27.5 -52.5t-33 -52h-72v13q7 18 13.5 44.5t12.5 54t8 48.5h119
v-10z" />
    <glyph glyph-name="Rcaron" unicode="&#x158;" horiz-adv-x="646" 
d="M296 714q94 0 155 -23t91 -69.5t30 -117.5q0 -52 -19.5 -89t-50.5 -61.5t-67 -39.5l205 -314h-144l-171 282h-104v-282h-128v714h203zM288 607h-67v-220h71q79 0 114.5 28.5t35.5 84.5q0 39 -17 62.5t-50.5 34t-86.5 10.5zM256 778q-13 23 -35.5 50t-46 53t-42.5 44v13
h84q26 -16 55.5 -38.5t54.5 -49.5q27 27 57 49.5t56 38.5h85v-13q-19 -18 -43 -44t-46.5 -53t-35.5 -50h-143z" />
    <glyph glyph-name="rcaron" unicode="&#x159;" horiz-adv-x="439" 
d="M365 552q12 0 28 -1t27 -4l-11 -117q-9 2 -23.5 3.5t-25.5 1.5q-30 0 -57.5 -9.5t-49 -28t-34 -47.5t-12.5 -69v-281h-126v542h97l18 -94h6q16 29 40 52.5t55.5 37.5t67.5 14zM177 606q-13 23 -35.5 50t-46 53t-42.5 44v13h84q26 -16 55.5 -38.5t54.5 -49.5
q27 27 57 49.5t56 38.5h85v-13q-19 -18 -43 -44t-46.5 -53t-35.5 -50h-143z" />
    <glyph glyph-name="Sacute" unicode="&#x15a;" horiz-adv-x="550" 
d="M508 195q0 -63 -31 -109t-89.5 -71t-139.5 -25q-39 0 -74.5 4.5t-67 13.5t-58.5 22v120q45 -20 99 -36.5t110 -16.5q43 0 70.5 11.5t40.5 32t13 47.5q0 30 -17 51t-50 39t-82 38q-33 14 -64.5 31.5t-56.5 42.5t-40 59t-15 80q0 61 29.5 105t83 67t124.5 23q57 0 107 -12
t99 -34l-41 -103q-44 19 -85 30t-84 11q-34 0 -58 -10.5t-36 -29.5t-12 -44q0 -29 15 -49t46.5 -37.5t81.5 -39.5q58 -25 98 -52t62 -65t22 -94zM674 938v-10q-12 -14 -33 -34t-45 -42t-47.5 -41.5t-42.5 -32.5h-84v13q16 19 36 44.5t39.5 53t32.5 49.5h144z" />
    <glyph glyph-name="sacute" unicode="&#x15b;" horiz-adv-x="490" 
d="M450 157q0 -54 -26 -91.5t-76.5 -56.5t-123.5 -19q-57 0 -98 8t-78 25v107q40 -19 89 -32t91 -13q52 0 75 16t23 43q0 16 -9 29t-35 27.5t-79 36.5q-52 21 -86.5 42t-52 50.5t-17.5 74.5q0 73 58 110.5t153 37.5q50 0 94.5 -9.5t89.5 -30.5l-40 -93q-37 16 -73.5 27
t-74.5 11q-41 0 -62 -12.5t-21 -34.5q0 -17 10.5 -29.5t37 -25t75.5 -32.5q49 -19 83.5 -39.5t53.5 -50.5t19 -76zM635 766v-10q-12 -14 -33 -34t-45 -42t-47.5 -41.5t-42.5 -32.5h-84v13q16 19 36 44.5t39.5 53t32.5 49.5h144z" />
    <glyph glyph-name="Scedilla" unicode="&#x15e;" horiz-adv-x="550" 
d="M508 195q0 -63 -31 -109t-89.5 -71t-139.5 -25q-39 0 -74.5 4.5t-67 13.5t-58.5 22v120q45 -20 99 -36.5t110 -16.5q43 0 70.5 11.5t40.5 32t13 47.5q0 30 -17 51t-50 39t-82 38q-33 14 -64.5 31.5t-56.5 42.5t-40 59t-15 80q0 61 29.5 105t83 67t124.5 23q57 0 107 -12
t99 -34l-41 -103q-44 19 -85 30t-84 11q-34 0 -58 -10.5t-36 -29.5t-12 -44q0 -29 15 -49t46.5 -37.5t81.5 -39.5q58 -25 98 -52t62 -65t22 -94zM370 -128q0 -53 -34 -82.5t-116 -29.5q-19 0 -35 2.5t-28 5.5v72q12 -3 30.5 -5.5t33.5 -2.5q22 0 35.5 7.5t13.5 27.5
q0 21 -21 34.5t-63 19.5l39 79h81l-18 -39q22 -5 40.5 -17t30 -29.5t11.5 -42.5z" />
    <glyph glyph-name="scedilla" unicode="&#x15f;" horiz-adv-x="490" 
d="M450 157q0 -54 -26 -91.5t-76.5 -56.5t-123.5 -19q-57 0 -98 8t-78 25v107q40 -19 89 -32t91 -13q52 0 75 16t23 43q0 16 -9 29t-35 27.5t-79 36.5q-52 21 -86.5 42t-52 50.5t-17.5 74.5q0 73 58 110.5t153 37.5q50 0 94.5 -9.5t89.5 -30.5l-40 -93q-37 16 -73.5 27
t-74.5 11q-41 0 -62 -12.5t-21 -34.5q0 -17 10.5 -29.5t37 -25t75.5 -32.5q49 -19 83.5 -39.5t53.5 -50.5t19 -76zM352 -128q0 -53 -34 -82.5t-116 -29.5q-19 0 -35 2.5t-28 5.5v72q12 -3 30.5 -5.5t33.5 -2.5q22 0 35.5 7.5t13.5 27.5q0 21 -21 34.5t-63 19.5l39 79h81
l-18 -39q22 -5 40.5 -17t30 -29.5t11.5 -42.5z" />
    <glyph glyph-name="Scaron" unicode="&#x160;" horiz-adv-x="550" 
d="M508 195q0 -63 -31 -109t-89.5 -71t-139.5 -25q-39 0 -74.5 4.5t-67 13.5t-58.5 22v120q45 -20 99 -36.5t110 -16.5q43 0 70.5 11.5t40.5 32t13 47.5q0 30 -17 51t-50 39t-82 38q-33 14 -64.5 31.5t-56.5 42.5t-40 59t-15 80q0 61 29.5 105t83 67t124.5 23q57 0 107 -12
t99 -34l-41 -103q-44 19 -85 30t-84 11q-34 0 -58 -10.5t-36 -29.5t-12 -44q0 -29 15 -49t46.5 -37.5t81.5 -39.5q58 -25 98 -52t62 -65t22 -94zM213 778q-13 23 -35.5 50t-46 53t-42.5 44v13h84q26 -16 55.5 -38.5t54.5 -49.5q27 27 57 49.5t56 38.5h85v-13
q-19 -18 -43 -44t-46.5 -53t-35.5 -50h-143z" />
    <glyph glyph-name="scaron" unicode="&#x161;" horiz-adv-x="490" 
d="M450 157q0 -54 -26 -91.5t-76.5 -56.5t-123.5 -19q-57 0 -98 8t-78 25v107q40 -19 89 -32t91 -13q52 0 75 16t23 43q0 16 -9 29t-35 27.5t-79 36.5q-52 21 -86.5 42t-52 50.5t-17.5 74.5q0 73 58 110.5t153 37.5q50 0 94.5 -9.5t89.5 -30.5l-40 -93q-37 16 -73.5 27
t-74.5 11q-41 0 -62 -12.5t-21 -34.5q0 -17 10.5 -29.5t37 -25t75.5 -32.5q49 -19 83.5 -39.5t53.5 -50.5t19 -76zM174 606q-13 23 -35.5 50t-46 53t-42.5 44v13h84q26 -16 55.5 -38.5t54.5 -49.5q27 27 57 49.5t56 38.5h85v-13q-19 -18 -43 -44t-46.5 -53t-35.5 -50h-143z
" />
    <glyph glyph-name="Tcaron" unicode="&#x164;" horiz-adv-x="570" 
d="M349 0h-128v606h-205v108h538v-108h-205v-606zM214 778q-13 23 -35.5 50t-46 53t-42.5 44v13h84q26 -16 55.5 -38.5t54.5 -49.5q27 27 57 49.5t56 38.5h85v-13q-19 -18 -43 -44t-46.5 -53t-35.5 -50h-143z" />
    <glyph glyph-name="tcaron" unicode="&#x165;" horiz-adv-x="406" 
d="M291 91q24 0 46 4.5t41 10.5v-94q-20 -9 -52 -15.5t-67 -6.5q-46 0 -83.5 15.5t-60 53.5t-22.5 106v282h-73v55l80 44l40 115h79v-119h154v-95h-154v-281q0 -38 20 -56.5t52 -18.5zM532 750q-8 -20 -20 -45.5t-26.5 -52.5t-31.5 -52h-72v13q5 14 9.5 33t8.5 39t7.5 39.5
t5.5 35.5h119v-10z" />
    <glyph glyph-name="Umacron" unicode="&#x16a;" horiz-adv-x="747" 
d="M659 252q0 -74 -31.5 -133.5t-95.5 -94t-162 -34.5q-139 0 -211 72.5t-72 191.5v460h128v-447q0 -87 40 -127.5t119 -40.5q56 0 90.5 19t51 57.5t16.5 92.5v446h127v-462zM531 879v-91h-318v91h318z" />
    <glyph glyph-name="umacron" unicode="&#x16b;" horiz-adv-x="642" 
d="M562 542v-542h-99l-17 70h-6q-17 -28 -44 -45.5t-59 -26t-66 -8.5q-60 0 -104 21t-67 64.5t-23 112.5v354h126v-329q0 -60 24 -90.5t76 -30.5q51 0 80 21.5t41 62.5t12 101v265h126zM479 707v-91h-318v91h318z" />
    <glyph glyph-name="Ubreve" unicode="&#x16c;" horiz-adv-x="747" 
d="M659 252q0 -74 -31.5 -133.5t-95.5 -94t-162 -34.5q-139 0 -211 72.5t-72 191.5v460h128v-447q0 -87 40 -127.5t119 -40.5q56 0 90.5 19t51 57.5t16.5 92.5v446h127v-462zM551 931q-3 -45 -26 -79.5t-62 -54t-92 -19.5q-81 0 -126.5 42t-49.5 111h72q3 -27 17 -40.5
t37 -17t51 -3.5q25 0 48 4.5t39 17.5t19 39h73z" />
    <glyph glyph-name="ubreve" unicode="&#x16d;" horiz-adv-x="642" 
d="M562 542v-542h-99l-17 70h-6q-17 -28 -44 -45.5t-59 -26t-66 -8.5q-60 0 -104 21t-67 64.5t-23 112.5v354h126v-329q0 -60 24 -90.5t76 -30.5q51 0 80 21.5t41 62.5t12 101v265h126zM499 759q-3 -45 -26 -79.5t-62 -54t-92 -19.5q-81 0 -126.5 42t-49.5 111h72
q3 -27 17 -40.5t37 -17t51 -3.5q25 0 48 4.5t39 17.5t19 39h73z" />
    <glyph glyph-name="Uring" unicode="&#x16e;" horiz-adv-x="747" 
d="M659 252q0 -74 -31.5 -133.5t-95.5 -94t-162 -34.5q-139 0 -211 72.5t-72 191.5v460h128v-447q0 -87 40 -127.5t119 -40.5q56 0 90.5 19t51 57.5t16.5 92.5v446h127v-462zM372 777q-53 0 -85 30t-32 83q0 52 32 81.5t84 29.5q51 0 85.5 -29.5t34.5 -80.5q0 -54 -34 -84
t-85 -30zM371 839q22 0 36.5 13.5t14.5 37.5q0 23 -14.5 36.5t-35.5 13.5q-22 0 -36.5 -13.5t-14.5 -36.5q0 -24 13 -37.5t37 -13.5z" />
    <glyph glyph-name="uring" unicode="&#x16f;" horiz-adv-x="642" 
d="M562 542v-542h-99l-17 70h-6q-17 -28 -44 -45.5t-59 -26t-66 -8.5q-60 0 -104 21t-67 64.5t-23 112.5v354h126v-329q0 -60 24 -90.5t76 -30.5q51 0 80 21.5t41 62.5t12 101v265h126zM320 605q-53 0 -85 30t-32 83q0 52 32 81.5t84 29.5q51 0 85.5 -29.5t34.5 -80.5
q0 -54 -34 -84t-85 -30zM319 667q22 0 36.5 13.5t14.5 37.5q0 23 -14.5 36.5t-35.5 13.5q-22 0 -36.5 -13.5t-14.5 -36.5q0 -24 13 -37.5t37 -13.5z" />
    <glyph glyph-name="Uhungarumlaut" unicode="&#x170;" horiz-adv-x="747" 
d="M659 252q0 -74 -31.5 -133.5t-95.5 -94t-162 -34.5q-139 0 -211 72.5t-72 191.5v460h128v-447q0 -87 40 -127.5t119 -40.5q56 0 90.5 19t51 57.5t16.5 92.5v446h127v-462zM577 928q-8 -13 -25.5 -33t-40.5 -42t-45.5 -41.5t-40.5 -33.5h-68v13q14 19 31.5 45t34 53
t26.5 49h128v-10zM390 928q-8 -13 -25.5 -33t-40.5 -42t-45.5 -41.5t-40.5 -33.5h-68v13q14 19 31 45t33 53t28 49h128v-10z" />
    <glyph glyph-name="uhungarumlaut" unicode="&#x171;" horiz-adv-x="642" 
d="M562 542v-542h-99l-17 70h-6q-17 -28 -44 -45.5t-59 -26t-66 -8.5q-60 0 -104 21t-67 64.5t-23 112.5v354h126v-329q0 -60 24 -90.5t76 -30.5q51 0 80 21.5t41 62.5t12 101v265h126zM525 756q-8 -13 -25.5 -33t-40.5 -42t-45.5 -41.5t-40.5 -33.5h-68v13q14 19 31.5 45
t34 53t26.5 49h128v-10zM338 756q-8 -13 -25.5 -33t-40.5 -42t-45.5 -41.5t-40.5 -33.5h-68v13q14 19 31 45t33 53t28 49h128v-10z" />
    <glyph glyph-name="Uogonek" unicode="&#x172;" horiz-adv-x="747" 
d="M478 -103q0 -26 12 -39t30 -13q17 0 30 3t22 5v-75q-15 -4 -31.5 -7t-39.5 -3q-55 0 -84.5 29.5t-29.5 83.5q0 33 15 63.5t39.5 56t50.5 41.5l82 13q-33 -33 -54.5 -60.5t-31.5 -51t-10 -46.5zM659 252q0 -74 -31.5 -133.5t-95.5 -94t-162 -34.5q-139 0 -211 72.5
t-72 191.5v460h128v-447q0 -87 40 -127.5t119 -40.5q56 0 90.5 19t51 57.5t16.5 92.5v446h127v-462z" />
    <glyph glyph-name="uogonek" unicode="&#x173;" horiz-adv-x="642" 
d="M562 542v-542h-99l-17 70h-6q-17 -28 -44 -45.5t-59 -26t-66 -8.5q-60 0 -104 21t-67 64.5t-23 112.5v354h126v-329q0 -60 24 -90.5t76 -30.5q51 0 80 21.5t41 62.5t12 101v265h126zM465 -113q0 -21 11.5 -31.5t30.5 -10.5q16 0 29.5 3t23.5 5v-75q-16 -4 -32.5 -7
t-38.5 -3q-55 0 -85 29t-30 76q0 29 15 56t38 49t50 38l59 -16q-34 -32 -52.5 -58.5t-18.5 -54.5z" />
    <glyph glyph-name="Wcircumflex" unicode="&#x174;" horiz-adv-x="953" 
d="M948 714l-185 -714h-141l-113 410q-4 15 -9 37t-10.5 45.5t-9.5 44t-5 30.5q-1 -10 -5 -30.5t-9 -44t-10 -46t-10 -38.5l-110 -408h-142l-184 714h128l98 -407q5 -20 10 -43.5t10 -48t9 -48t6 -41.5q2 19 6 42.5t9 48t10 47t10 38.5l112 412h124l114 -413
q5 -17 10.5 -39.5t10.5 -47t8.5 -47.5t6.5 -41q3 25 8.5 57t13 65t13.5 59l98 407h128zM546 938q13 -22 35.5 -49.5t46.5 -53.5t43 -45v-12h-85q-26 16 -56 38.5t-56 49.5q-27 -27 -55.5 -49t-54.5 -39h-85v12q19 20 42.5 45.5t46 53t35.5 49.5h143z" />
    <glyph glyph-name="wcircumflex" unicode="&#x175;" horiz-adv-x="830" 
d="M465 233q-5 19 -12 47.5t-14.5 59.5t-14 57t-8.5 40h-4q-3 -14 -9 -40t-13 -57t-14.5 -60t-12.5 -48l-63 -232h-138l-152 543h127l67 -259q7 -26 13.5 -59t11.5 -63.5t7 -49.5h4q2 13 5 34.5t7.5 45t9 43.5t7.5 31l78 277h138l75 -277q5 -18 11 -47t11 -58t6 -48h4
q2 17 7 46.5t12 63.5t15 61l68 259h125l-154 -543h-140zM484 766q13 -22 35.5 -49.5t46.5 -53.5t43 -45v-12h-85q-26 16 -56 38.5t-56 49.5q-27 -27 -55.5 -49t-54.5 -39h-85v12q19 20 42.5 45.5t46 53t35.5 49.5h143z" />
    <glyph glyph-name="Ycircumflex" unicode="&#x176;" horiz-adv-x="602" 
d="M301 399l163 315h138l-237 -436v-278h-128v273l-237 441h139zM371 938q13 -22 35.5 -49.5t46.5 -53.5t43 -45v-12h-85q-26 16 -56 38.5t-56 49.5q-27 -27 -55.5 -49t-54.5 -39h-85v12q19 20 42.5 45.5t46 53t35.5 49.5h143z" />
    <glyph glyph-name="ycircumflex" unicode="&#x177;" horiz-adv-x="547" 
d="M0 542h137l108 -306q7 -20 12.5 -38.5t9.5 -37.5t6 -38h4q4 25 12.5 55t17.5 59l104 306h136l-231 -614q-20 -53 -50.5 -91t-72 -57.5t-93.5 -19.5q-24 0 -42.5 2.5t-32.5 5.5v100q11 -2 26.5 -4t32.5 -2q31 0 53.5 12.5t38 34.5t25.5 49l16 44zM343 766
q13 -22 35.5 -49.5t46.5 -53.5t43 -45v-12h-85q-26 16 -56 38.5t-56 49.5q-27 -27 -55.5 -49t-54.5 -39h-85v12q19 20 42.5 45.5t46 53t35.5 49.5h143z" />
    <glyph glyph-name="Ydieresis" unicode="&#x178;" horiz-adv-x="602" 
d="M301 399l163 315h138l-237 -436v-278h-128v273l-237 441h139zM144 844q0 31 17.5 45t42.5 14q24 0 42.5 -13.5t18.5 -45.5q0 -30 -18.5 -44.5t-42.5 -14.5q-25 0 -42.5 14.5t-17.5 44.5zM337 844q0 31 18 45t43 14q24 0 42 -13.5t18 -45.5q0 -30 -18 -44.5t-42 -14.5
q-25 0 -43 14.5t-18 44.5z" />
    <glyph glyph-name="Zacute" unicode="&#x179;" horiz-adv-x="576" 
d="M547 0h-518v87l355 519h-345v108h498v-87l-354 -519h364v-108zM682 938v-10q-12 -14 -33 -34t-45 -42t-47.5 -41.5t-42.5 -32.5h-84v13q16 19 36 44.5t39.5 53t32.5 49.5h144z" />
    <glyph glyph-name="zacute" unicode="&#x17a;" horiz-adv-x="481" 
d="M448 0h-416v77l266 369h-251v96h393v-85l-261 -360h269v-97zM630 766v-10q-12 -14 -33 -34t-45 -42t-47.5 -41.5t-42.5 -32.5h-84v13q16 19 36 44.5t39.5 53t32.5 49.5h144z" />
    <glyph glyph-name="Zdotaccent" unicode="&#x17b;" horiz-adv-x="576" 
d="M547 0h-518v87l355 519h-345v108h498v-87l-354 -519h364v-108zM293 923q28 0 49 -14.5t21 -51.5q0 -36 -21 -51.5t-49 -15.5q-29 0 -49.5 15.5t-20.5 51.5q0 37 20.5 51.5t49.5 14.5z" />
    <glyph glyph-name="zdotaccent" unicode="&#x17c;" horiz-adv-x="481" 
d="M448 0h-416v77l266 369h-251v96h393v-85l-261 -360h269v-97zM241 751q28 0 49 -14.5t21 -51.5q0 -36 -21 -51.5t-49 -15.5q-29 0 -49.5 15.5t-20.5 51.5q0 37 20.5 51.5t49.5 14.5z" />
    <glyph glyph-name="Zcaron" unicode="&#x17d;" horiz-adv-x="576" 
d="M547 0h-518v87l355 519h-345v108h498v-87l-354 -519h364v-108zM221 778q-13 23 -35.5 50t-46 53t-42.5 44v13h84q26 -16 55.5 -38.5t54.5 -49.5q27 27 57 49.5t56 38.5h85v-13q-19 -18 -43 -44t-46.5 -53t-35.5 -50h-143z" />
    <glyph glyph-name="zcaron" unicode="&#x17e;" horiz-adv-x="481" 
d="M448 0h-416v77l266 369h-251v96h393v-85l-261 -360h269v-97zM169 606q-13 23 -35.5 50t-46 53t-42.5 44v13h84q26 -16 55.5 -38.5t54.5 -49.5q27 27 57 49.5t56 38.5h85v-13q-19 -18 -43 -44t-46.5 -53t-35.5 -50h-143z" />
    <glyph glyph-name="uni01CD" unicode="&#x1cd;" horiz-adv-x="671" 
d="M534 0l-65 189h-269l-64 -189h-136l262 717h146l262 -717h-136zM374 483q-4 14 -12 38t-15.5 49.5t-11.5 42.5q-5 -20 -12.5 -46t-14 -49t-10.5 -35l-63 -184h201zM264 778q-13 23 -35.5 50t-46 53t-42.5 44v13h84q26 -16 55.5 -38.5t54.5 -49.5q27 27 57 49.5t56 38.5
h85v-13q-19 -18 -43 -44t-46.5 -53t-35.5 -50h-143z" />
    <glyph glyph-name="uni01CE" unicode="&#x1ce;" horiz-adv-x="588" 
d="M297 552q105 0 159.5 -45.5t54.5 -142.5v-364h-89l-25 75h-4q-23 -29 -47.5 -48.5t-56 -28t-76.5 -8.5q-48 0 -86.5 18t-60.5 55.5t-22 94.5q0 84 61.5 126.5t186.5 46.5l94 3v27q0 52 -25 74t-70 22q-41 0 -79 -12t-74 -28l-40 88q40 21 91.5 34t107.5 13zM320 254
q-83 -3 -115 -28.5t-32 -68.5q0 -38 23 -55t59 -17q55 0 93 31.5t38 93.5v46zM224 606q-13 23 -35.5 50t-46 53t-42.5 44v13h84q26 -16 55.5 -38.5t54.5 -49.5q27 27 57 49.5t56 38.5h85v-13q-19 -18 -43 -44t-46.5 -53t-35.5 -50h-143z" />
    <glyph glyph-name="uni0218" unicode="&#x218;" horiz-adv-x="550" 
d="M508 195q0 -63 -31 -109t-89.5 -71t-139.5 -25q-39 0 -74.5 4.5t-67 13.5t-58.5 22v120q45 -20 99 -36.5t110 -16.5q43 0 70.5 11.5t40.5 32t13 47.5q0 30 -17 51t-50 39t-82 38q-33 14 -64.5 31.5t-56.5 42.5t-40 59t-15 80q0 61 29.5 105t83 67t124.5 23q57 0 107 -12
t99 -34l-41 -103q-44 19 -85 30t-84 11q-34 0 -58 -10.5t-36 -29.5t-12 -44q0 -29 15 -49t46.5 -37.5t81.5 -39.5q58 -25 98 -52t62 -65t22 -94zM340 -71q-8 -20 -20.5 -45.5t-27.5 -52.5t-33 -52h-72v13q7 18 13.5 44.5t12.5 54t8 48.5h119v-10z" />
    <glyph glyph-name="uni0219" unicode="&#x219;" horiz-adv-x="490" 
d="M450 157q0 -54 -26 -91.5t-76.5 -56.5t-123.5 -19q-57 0 -98 8t-78 25v107q40 -19 89 -32t91 -13q52 0 75 16t23 43q0 16 -9 29t-35 27.5t-79 36.5q-52 21 -86.5 42t-52 50.5t-17.5 74.5q0 73 58 110.5t153 37.5q50 0 94.5 -9.5t89.5 -30.5l-40 -93q-37 16 -73.5 27
t-74.5 11q-41 0 -62 -12.5t-21 -34.5q0 -17 10.5 -29.5t37 -25t75.5 -32.5q49 -19 83.5 -39.5t53.5 -50.5t19 -76zM322 -71q-8 -20 -20.5 -45.5t-27.5 -52.5t-33 -52h-72v13q7 18 13.5 44.5t12.5 54t8 48.5h119v-10z" />
    <glyph glyph-name="uni021A" unicode="&#x21a;" horiz-adv-x="570" 
d="M349 0h-128v606h-205v108h538v-108h-205v-606zM362 -71q-8 -20 -20.5 -45.5t-27.5 -52.5t-33 -52h-72v13q7 18 13.5 44.5t12.5 54t8 48.5h119v-10z" />
    <glyph glyph-name="uni021B" unicode="&#x21b;" horiz-adv-x="406" 
d="M291 91q24 0 46 4.5t41 10.5v-94q-20 -9 -52 -15.5t-67 -6.5q-46 0 -83.5 15.5t-60 53.5t-22.5 106v282h-73v55l80 44l40 115h79v-119h154v-95h-154v-281q0 -38 20 -56.5t52 -18.5zM307 -71q-8 -20 -20.5 -45.5t-27.5 -52.5t-33 -52h-72v13q7 18 13.5 44.5t12.5 54
t8 48.5h119v-10z" />
    <glyph glyph-name="uni0237" unicode="&#x237;" horiz-adv-x="287" 
d="M29 -240q-25 0 -49 3.5t-41 8.5v100q17 -4 33 -7t36 -3q31 0 52 17.5t21 66.5v596h126v-609q0 -50 -18 -89t-57 -61.5t-103 -22.5z" />
    <glyph glyph-name="circumflex" unicode="&#x2c6;" horiz-adv-x="472" 
d="M307 766q13 -22 35.5 -49.5t46.5 -53.5t43 -45v-12h-85q-26 16 -56 38.5t-57 49.5q-26 -27 -55 -49t-55 -39h-84v12q19 20 42.5 45.5t46 53t35.5 49.5h143z" />
    <glyph glyph-name="caron" unicode="&#x2c7;" horiz-adv-x="472" 
d="M164 606q-13 23 -35.5 50t-46 53t-42.5 44v13h84q26 -16 55.5 -38.5t54.5 -49.5q27 27 57 49.5t56 38.5h85v-13q-19 -18 -43 -44t-46.5 -53t-35.5 -50h-143z" />
    <glyph glyph-name="macronmod" unicode="&#x2c9;" horiz-adv-x="398" 
d="M358 697v-91h-318v91h318z" />
    <glyph glyph-name="breve" unicode="&#x2d8;" horiz-adv-x="436" 
d="M396 759q-3 -45 -26 -79.5t-62 -54t-92 -19.5q-81 0 -126.5 42t-49.5 111h72q3 -27 17 -40.5t37 -17t51 -3.5q25 0 48 4.5t39 17.5t19 39h73z" />
    <glyph glyph-name="dotaccent" unicode="&#x2d9;" horiz-adv-x="220" 
d="M110 751q28 0 49 -14.5t21 -51.5q0 -36 -21 -51.5t-49 -15.5q-29 0 -49.5 15.5t-20.5 51.5q0 37 20.5 51.5t49.5 14.5z" />
    <glyph glyph-name="ring" unicode="&#x2da;" horiz-adv-x="316" 
d="M157 605q-53 0 -85 30t-32 83q0 52 32 81.5t84 29.5q51 0 85.5 -29.5t34.5 -80.5q0 -54 -34 -84t-85 -30zM156 667q22 0 36.5 13.5t14.5 37.5q0 23 -14.5 36.5t-35.5 13.5q-22 0 -36.5 -13.5t-14.5 -36.5q0 -24 13 -37.5t37 -13.5z" />
    <glyph glyph-name="ogonek" unicode="&#x2db;" horiz-adv-x="266" 
d="M131 -113q0 -21 11.5 -31.5t30.5 -10.5q16 0 29.5 3t23.5 5v-75q-16 -4 -32.5 -7t-38.5 -3q-55 0 -85 29t-30 76q0 29 15 56t38 49t50 38l59 -16q-34 -32 -52.5 -58.5t-18.5 -54.5z" />
    <glyph glyph-name="tilde" unicode="&#x2dc;" horiz-adv-x="471" 
d="M40 605q3 36 13.5 62.5t27 44.5t37.5 27t46 9q21 0 41 -8t38.5 -19t36.5 -19t35 -8q18 0 31.5 14t19.5 41h65q-6 -70 -40.5 -106.5t-83.5 -36.5q-21 0 -40 8t-38.5 19t-37 19t-35.5 8t-31.5 -13.5t-19.5 -41.5h-65z" />
    <glyph glyph-name="hungarumlaut" unicode="&#x2dd;" horiz-adv-x="487" 
d="M447 756q-8 -13 -25.5 -33t-40.5 -42t-45.5 -41.5t-40.5 -33.5h-68v13q14 19 31.5 45t34 53t26.5 49h128v-10zM260 756q-8 -13 -25.5 -33t-40.5 -42t-45.5 -41.5t-40.5 -33.5h-68v13q14 19 31 45t33 53t28 49h128v-10z" />
    <glyph glyph-name="gravecomb" unicode="&#x300;" horiz-adv-x="0" 
d="M-372 766q13 -22 32 -49.5t39.5 -53t35.5 -44.5v-13h-83q-19 13 -42.5 32.5t-48 41.5t-45 42t-32.5 34v10h144z" />
    <glyph glyph-name="acutecomb" unicode="&#x301;" horiz-adv-x="0" 
d="M126 766v-10q-12 -14 -33 -34t-45 -42t-47.5 -41.5t-42.5 -32.5h-84v13q16 19 36 44.5t39.5 53t32.5 49.5h144z" />
    <glyph glyph-name="uni0302" unicode="&#x302;" horiz-adv-x="0" 
d="M71 766q13 -22 35.5 -49.5t46.5 -53.5t43 -45v-12h-85q-26 16 -56 38.5t-56 49.5q-27 -27 -55.5 -49t-54.5 -39h-85v12q19 20 42.5 45.5t46 53t35.5 49.5h143z" />
    <glyph glyph-name="tildecomb" unicode="&#x303;" horiz-adv-x="0" 
d="M-507 605q3 36 13.5 62.5t27 44.5t37.5 27t46 9q21 0 41 -8t38.5 -19t36.5 -19t35 -8q18 0 31.5 14t19.5 41h65q-6 -70 -40.5 -106.5t-83.5 -36.5q-21 0 -40 8t-38.5 19t-37 19t-35.5 8t-31.5 -13.5t-19.5 -41.5h-65z" />
    <glyph glyph-name="uni0304" unicode="&#x304;" horiz-adv-x="0" 
d="M159 707v-91h-318v91h318z" />
    <glyph glyph-name="uni0306" unicode="&#x306;" horiz-adv-x="0" 
d="M180 759q-3 -45 -26 -79.5t-62 -54t-92 -19.5q-81 0 -126.5 42t-49.5 111h72q3 -27 17 -40.5t37 -17t51 -3.5q25 0 48 4.5t39 17.5t19 39h73z" />
    <glyph glyph-name="uni0307" unicode="&#x307;" horiz-adv-x="0" 
d="M0 751q28 0 49 -14.5t21 -51.5q0 -36 -21 -51.5t-49 -15.5q-29 0 -49.5 15.5t-20.5 51.5q0 37 20.5 51.5t49.5 14.5z" />
    <glyph glyph-name="uni0308" unicode="&#x308;" horiz-adv-x="0" 
d="M-157 672q0 31 17.5 45t42.5 14q24 0 42.5 -13.5t18.5 -45.5q0 -30 -18.5 -44.5t-42.5 -14.5q-25 0 -42.5 14.5t-17.5 44.5zM36 672q0 31 18 45t43 14q24 0 42 -13.5t18 -45.5q0 -30 -18 -44.5t-42 -14.5q-25 0 -43 14.5t-18 44.5z" />
    <glyph glyph-name="uni030A" unicode="&#x30a;" horiz-adv-x="0" 
d="M2 605q-53 0 -85 30t-32 83q0 52 32 81.5t84 29.5q51 0 85.5 -29.5t34.5 -80.5q0 -54 -34 -84t-85 -30zM1 667q22 0 36.5 13.5t14.5 37.5q0 23 -14.5 36.5t-35.5 13.5q-22 0 -36.5 -13.5t-14.5 -36.5q0 -24 13 -37.5t37 -13.5z" />
    <glyph glyph-name="uni030B" unicode="&#x30b;" horiz-adv-x="0" 
d="M265 756q-8 -13 -25.5 -33t-40.5 -42t-45.5 -41.5t-40.5 -33.5h-68v13q14 19 31.5 45t34 53t26.5 49h128v-10zM78 756q-8 -13 -25.5 -33t-40.5 -42t-45.5 -41.5t-40.5 -33.5h-68v13q14 19 31 45t33 53t28 49h128v-10z" />
    <glyph glyph-name="uni030C" unicode="&#x30c;" horiz-adv-x="0" 
d="M-71 606q-13 23 -35.5 50t-46 53t-42.5 44v13h84q26 -16 55.5 -38.5t54.5 -49.5q27 27 57 49.5t56 38.5h85v-13q-19 -18 -43 -44t-46.5 -53t-35.5 -50h-143z" />
    <glyph glyph-name="uni0312" unicode="&#x312;" horiz-adv-x="0" 
d="M-90 480q9 36 23 76t30.5 81t32.5 77h91q-9 -39 -18.5 -82.5t-17.5 -85.5t-13 -77h-121z" />
    <glyph glyph-name="uni0326" unicode="&#x326;" horiz-adv-x="0" 
d="M77 -71q-8 -20 -20.5 -45.5t-27.5 -52.5t-33 -52h-72v13q7 18 13.5 44.5t12.5 54t8 48.5h119v-10z" />
    <glyph glyph-name="uni0327" unicode="&#x327;" horiz-adv-x="0" 
d="M107 -128q0 -53 -34 -82.5t-116 -29.5q-19 0 -35 2.5t-28 5.5v72q12 -3 30.5 -5.5t33.5 -2.5q22 0 35.5 7.5t13.5 27.5q0 21 -21 34.5t-63 19.5l39 79h81l-18 -39q22 -5 40.5 -17t30 -29.5t11.5 -42.5z" />
    <glyph glyph-name="uni0328" unicode="&#x328;" horiz-adv-x="0" 
d="M-2 -113q0 -21 11.5 -31.5t30.5 -10.5q16 0 29.5 3t23.5 5v-75q-16 -4 -32.5 -7t-38.5 -3q-55 0 -85 29t-30 76q0 29 15 56t38 49t50 38l59 -16q-34 -32 -52.5 -58.5t-18.5 -54.5z" />
    <glyph glyph-name="uni0589" unicode="&#x589;" horiz-adv-x="279" 
d="M63 64q0 42 22 59.5t54 17.5t54.5 -17t22.5 -60q0 -41 -22.5 -59t-54.5 -18t-54 18t-22 59zM63 476q0 43 22 60.5t54 17.5t54.5 -17t22.5 -61q0 -41 -22.5 -59t-54.5 -18t-54 18t-22 59z" />
    <glyph glyph-name="uni10A0" unicode="&#x10a0;" horiz-adv-x="635" 
d="M402 -10q-102 0 -179.5 41t-120.5 115.5t-43 173.5q0 66 21.5 122t57.5 98t81 67v4h-142v103h511v-108h-130q-84 0 -143 -34t-90 -95t-31 -141q0 -75 26 -128.5t75 -81.5t118 -28q47 0 90 10t85 25v-110q-42 -17 -87 -25t-99 -8z" />
    <glyph glyph-name="uni10A1" unicode="&#x10a1;" horiz-adv-x="827" 
d="M492 0v205q0 18 1.5 45t4.5 61h-7q-30 -47 -81.5 -72.5t-116.5 -25.5q-74 0 -128 31.5t-82.5 91t-28.5 141.5q0 42 9 84.5t24.5 81.5t36.5 71h137q-23 -27 -39.5 -65t-25.5 -80.5t-9 -87.5q0 -53 15 -89t45.5 -53.5t78.5 -17.5q57 0 93.5 21.5t54.5 65.5t18 111v195h128
v-607h200v-107h-328z" />
    <glyph glyph-name="uni10A2" unicode="&#x10a2;" horiz-adv-x="769" 
d="M440 0v605h-239v-227h-128v336h495v-607h194v-107h-322z" />
    <glyph glyph-name="uni10A3" unicode="&#x10a3;" horiz-adv-x="771" 
d="M385 -10q-102 0 -175 34t-112 97.5t-39 152.5q0 81 31.5 140t91 94.5t144.5 44.5v54h-242v107h603v-107h-241v-54q85 -8 144.5 -43.5t90.5 -95.5t31 -141q0 -89 -38.5 -152t-111.5 -97t-177 -34zM385 97q64 0 107 20t65 59t22 97q0 59 -22 98.5t-64.5 60t-106.5 20.5
q-63 0 -106 -20.5t-65.5 -60t-22.5 -98.5q0 -57 21.5 -96.5t65 -59.5t106.5 -20z" />
    <glyph glyph-name="uni10A4" unicode="&#x10a4;" horiz-adv-x="661" 
d="M440 0v605h-239v-227h-128v336h495v-714h-128z" />
    <glyph glyph-name="uni10A5" unicode="&#x10a5;" horiz-adv-x="861" 
d="M446 0v606h-246v-226h-127v334h501v-288h246v-252h-116v144h-130v-318h-128z" />
    <glyph glyph-name="uni10A6" unicode="&#x10a6;" horiz-adv-x="790" 
d="M456 -10q-83 0 -144 34.5t-94 97.5t-33 149v336h-186v107h314v-139q0 -16 -0.5 -35.5t-2 -39.5t-3.5 -38h7q36 50 78 70t102 20q76 0 130 -34.5t83 -97.5t29 -148q0 -87 -33.5 -150.5t-96 -97.5t-150.5 -34zM457 98q47 0 80 20t50 58.5t17 95.5q0 58 -16.5 96t-47.5 57
t-78 19q-51 0 -84 -19.5t-49 -59t-16 -99.5q0 -81 36 -124.5t108 -43.5z" />
    <glyph glyph-name="uni10A7" unicode="&#x10a7;" horiz-adv-x="930" 
d="M644 426h245v-252h-116v144h-129v-318h-209q-181 0 -278.5 93.5t-97.5 265.5q0 113 44 192.5t126.5 121t199.5 41.5h215v-288zM516 107v501h-87q-118 0 -177 -63t-59 -188q0 -124 60 -187t178 -63h85z" />
    <glyph glyph-name="uni10A8" unicode="&#x10a8;" horiz-adv-x="503" 
d="M282 0v606h-283v108h411v-714h-128z" />
    <glyph glyph-name="uni10A9" unicode="&#x10a9;" horiz-adv-x="705" 
d="M501 0v91q0 21 2 46t4 49h-7q-34 -47 -77 -67t-104 -20q-74 0 -127 32.5t-82 91.5t-29 139v352h128v-77q0 -18 -2 -41.5t-5 -53.5h8q35 48 77.5 67.5t102.5 19.5q74 0 127.5 -33t82.5 -92t29 -138v-366h-128zM352 207q47 0 80.5 17.5t51 53t17.5 88.5q0 51 -17.5 85.5
t-49.5 52t-76 17.5q-47 0 -80.5 -17.5t-51 -52.5t-17.5 -90q0 -50 17.5 -85t49.5 -52t76 -17z" />
    <glyph glyph-name="uni10AA" unicode="&#x10aa;" horiz-adv-x="1005" 
d="M671 -10q-83 0 -144 34.5t-94 97.5t-33 149v334h-199v-227h-128v336h455v-153q0 -9 -0.5 -24t-2 -34t-3.5 -41h7q36 50 78 70t103 20q76 0 130 -35t82.5 -97.5t28.5 -147.5q0 -87 -34 -150.5t-96.5 -97.5t-149.5 -34zM672 98q48 0 80.5 20t49.5 58.5t17 95.5t-16 95
t-47.5 57.5t-78.5 19.5q-50 0 -83 -19.5t-49.5 -59t-16.5 -99.5q0 -81 36 -124.5t108 -43.5z" />
    <glyph glyph-name="uni10AB" unicode="&#x10ab;" horiz-adv-x="776" 
d="M329 -10q-82 0 -143 29t-94 83.5t-33 131.5q0 79 32 133t93 82.5t148 28.5h138v129h-358v107h485v-236h138v-104h-138v-128q0 -77 -30.5 -134.5t-90.5 -89.5t-147 -32zM328 97q73 0 107.5 40t34.5 109v128h-137q-46 0 -78.5 -15.5t-49 -46.5t-16.5 -77q0 -68 37 -103
t102 -35z" />
    <glyph glyph-name="uni10AC" unicode="&#x10ac;" horiz-adv-x="736" 
d="M93 0v714h527v-108h-399v-119q0 -12 -1.5 -37.5t-4.5 -61.5h5q23 32 52.5 53.5t66.5 32t80 10.5q70 0 121.5 -30t79.5 -86.5t28 -136.5v-231h-128v221q0 75 -34 115t-101 40q-85 0 -124.5 -46.5t-39.5 -142.5v-187h-128z" />
    <glyph glyph-name="uni10AD" unicode="&#x10ad;" horiz-adv-x="899" 
d="M395 -10q-86 0 -149.5 26.5t-104.5 75t-61.5 116.5t-20.5 151q0 110 36.5 192t111 127.5t189.5 45.5q113 0 187 -45.5t111 -127.5t37 -193q0 -77 -18 -141.5t-55 -111.5q17 -13 32 -19t33 -6q29 0 43.5 21t14.5 62h111q0 -53 -14.5 -92.5t-47 -60t-87.5 -20.5
q-39 0 -73.5 16.5t-65.5 44.5q-39 -30 -91.5 -45.5t-117.5 -15.5zM395 99q71 0 115 31t65 89t21 139q0 120 -47 189t-153 69q-70 0 -114.5 -31t-66 -88.5t-21.5 -138.5t21.5 -139t66 -89t113.5 -31z" />
    <glyph glyph-name="uni10AE" unicode="&#x10ae;" horiz-adv-x="846" 
d="M471 -10q-135 0 -210.5 70t-75.5 193v354h-186v107h314v-446q0 -85 38.5 -127t119.5 -42q54 0 89 18.5t52.5 56.5t17.5 94v446h128v-461q0 -84 -35.5 -142.5t-100 -89.5t-151.5 -31z" />
    <glyph glyph-name="uni10AF" unicode="&#x10af;" horiz-adv-x="758" 
d="M537 0v184q0 31 2 59.5t5 60.5h-5q-29 -41 -81.5 -67t-117.5 -26q-70 0 -123 29t-82.5 81t-29.5 119q0 58 20.5 98.5t49.5 64.5v4h-171v107h333v-99q-38 -11 -60 -35t-31 -53.5t-9 -58.5q0 -75 35 -112.5t101 -37.5q55 0 91.5 20.5t55 63t18.5 106.5v206h127v-714h-128z
" />
    <glyph glyph-name="uni10B0" unicode="&#x10b0;" horiz-adv-x="955" 
d="M320 -10q-83 0 -142.5 34t-91.5 91t-32 126q0 48 15 92t47 86l109 -46q-19 -29 -28.5 -61.5t-9.5 -65.5q0 -41 15.5 -74.5t44.5 -53t70 -19.5q65 0 99.5 41t34.5 127v447h128v-134q0 -17 -1 -43t-5 -66h6q29 44 66.5 62.5t86.5 18.5q59 0 99.5 -29t61.5 -74.5t21 -97.5
q0 -37 -11 -73t-31 -67l-112 35q12 21 18 44t6 45q0 30 -11 54.5t-33 40t-55 15.5q-32 0 -56 -14.5t-37 -42t-13 -66.5v-67q0 -83 -30.5 -142.5t-88.5 -91t-140 -31.5z" />
    <glyph glyph-name="uni10B1" unicode="&#x10b1;" horiz-adv-x="668" 
d="M348 -10q-83 0 -141 31.5t-88.5 91t-30.5 142.5v459h128v-447q0 -86 35 -127t99 -41q41 0 70 18.5t44.5 52.5t15.5 76q0 35 -9.5 66.5t-27.5 60.5l109 46q32 -42 47 -86.5t15 -91.5q0 -68 -32 -125.5t-92 -91.5t-142 -34z" />
    <glyph glyph-name="uni10B2" unicode="&#x10b2;" horiz-adv-x="632" 
d="M93 0v714h213q132 0 199 -54.5t67 -163.5q0 -57 -18.5 -100t-54.5 -73t-88 -45t-119 -15h-71v-155h320v-108h-448zM221 369h66q55 0 89 13.5t50 40.5t16 68q0 59 -35 88t-109 29h-77v-239z" />
    <glyph glyph-name="uni10B3" unicode="&#x10b3;" horiz-adv-x="789" 
d="M597 -179q-11 0 -24 1.5t-29 4.5v98q12 -2 24.5 -3.5t22.5 -1.5q29 0 45.5 16.5t16.5 45.5q0 22 -13.5 40t-35.5 29q-42 -31 -94.5 -46t-114.5 -15q-81 0 -143.5 24t-105 71.5t-65 116t-22.5 157.5q0 118 39 199t114.5 123.5t183.5 42.5t182.5 -43t113.5 -124.5
t39 -198.5q0 -70 -17.5 -132t-52.5 -112q32 -12 57 -31.5t39.5 -47.5t14.5 -65q0 -68 -45.5 -108.5t-129.5 -40.5zM395 99q67 0 111.5 28.5t67 86.5t22.5 144q0 129 -50 193.5t-150 64.5q-66 0 -111 -29t-68 -86.5t-23 -142.5t22.5 -143t67.5 -87t111 -29z" />
    <glyph glyph-name="uni10B4" unicode="&#x10b4;" horiz-adv-x="862" 
d="M372 0v168q-93 0 -163.5 33.5t-110 95.5t-39.5 147q0 72 27 125t76 87t117.5 51t151.5 17q91 0 160.5 -18t116.5 -53t71 -87.5t24 -121.5q0 -87 -40 -148.5t-110.5 -94.5t-162.5 -33v-168h-118zM372 269v349q-59 0 -101.5 -21t-65.5 -59.5t-23 -92.5t22.5 -93.5t65 -61
t102.5 -21.5zM490 269q61 0 103 21.5t64.5 61t22.5 93.5t-22.5 92t-65 59.5t-102.5 21.5v-349z" />
    <glyph glyph-name="uni10B5" unicode="&#x10b5;" horiz-adv-x="651" 
d="M257 0v370h-208v108h208v236h127v-236h208v-108h-208v-370h-127z" />
    <glyph glyph-name="uni10B6" unicode="&#x10b6;" horiz-adv-x="748" 
d="M88 0v462q0 84 36 142t101 89t152 31q135 0 209 -70.5t74 -193.5v-460h-128v447q0 85 -38 126.5t-121 41.5q-53 0 -88 -18.5t-52 -56t-17 -94.5v-446h-128z" />
    <glyph glyph-name="uni10B7" unicode="&#x10b7;" horiz-adv-x="713" 
d="M492 0v205q0 18 1.5 45t4.5 61h-7q-30 -47 -81.5 -72.5t-116.5 -25.5q-74 0 -128 31.5t-82.5 91t-28.5 141.5q0 42 9 84.5t24.5 81.5t36.5 71h137q-23 -27 -39.5 -65t-25.5 -80.5t-9 -87.5q0 -53 15 -89t45.5 -53.5t78.5 -17.5q57 0 93.5 21.5t54.5 65.5t18 111v195h128
v-714h-128z" />
    <glyph glyph-name="uni10B8" unicode="&#x10b8;" horiz-adv-x="722" 
d="M362 -10q-76 0 -135.5 26t-94 72t-34.5 107q0 25 5.5 47t17.5 44l114 -37q-3 -12 -4.5 -22t-1.5 -21q0 -33 16 -57.5t45.5 -38t70.5 -13.5q42 0 73.5 18t49 52t17.5 82v68q0 13 0.5 29t2.5 34.5t4 40.5h-6q-34 -48 -79.5 -72t-103.5 -24q-72 0 -124 30.5t-79.5 89
t-27.5 139.5v130h128v-124q0 -80 36 -119t98 -39q71 0 111 47.5t40 134.5v100h128v-462q0 -83 -32.5 -142t-92.5 -89.5t-142 -30.5z" />
    <glyph glyph-name="uni10B9" unicode="&#x10b9;" horiz-adv-x="705" 
d="M91 0v714h128v-257h403v-457h-128v350h-275v-350h-128z" />
    <glyph glyph-name="uni10BA" unicode="&#x10ba;" horiz-adv-x="716" 
d="M365 -10q-97 0 -165.5 44t-104.5 126t-36 198q0 114 43.5 196t124.5 126t194 44q55 0 107 -11t99 -32l-45 -104q-40 20 -81 29.5t-81 9.5q-70 0 -121.5 -32t-79 -90.5t-27.5 -137.5q0 -81 22.5 -139t65.5 -88.5t103 -30.5q39 0 75 9t69 27v161h128v-295h-128v31
q-37 -20 -77.5 -30.5t-84.5 -10.5z" />
    <glyph glyph-name="uni10BB" unicode="&#x10bb;" horiz-adv-x="920" 
d="M318 -10q-79 0 -137 30.5t-90 85.5t-32 130t31 130t89.5 85t141.5 30h123v233h128v-233h265v-481h-117v376h-148v-130q0 -82 -30.5 -139t-87 -87t-136.5 -30zM316 98q63 0 95.5 36t32.5 108v134h-118q-66 0 -101 -35.5t-35 -103.5q0 -65 33.5 -102t92.5 -37z" />
    <glyph glyph-name="uni10BC" unicode="&#x10bc;" horiz-adv-x="620" 
d="M93 0v714h213q132 0 199 -51.5t67 -153.5q0 -71 -32.5 -120.5t-94.5 -74.5t-153 -25h-71v-66h251v-183h-118v77h-133v-117h-128zM221 395h58q56 0 92 12t53.5 36t17.5 61q0 52 -35 78t-109 26h-77v-213z" />
    <glyph glyph-name="uni10BD" unicode="&#x10bd;" horiz-adv-x="589" 
d="M286 -10q-118 0 -179.5 51t-61.5 140q0 15 1.5 28t5.5 25h126q-4 -11 -5.5 -22t-1.5 -24q0 -42 29.5 -66.5t89.5 -24.5t90 24t30 68q0 32 -20 53.5t-54.5 39t-81.5 36.5q-45 18 -80 38.5t-58 46t-35 56.5t-12 70q0 61 28 104.5t79.5 67t119.5 23.5q73 0 122.5 -22
t75.5 -63.5t26 -100.5q0 -5 -0.5 -10.5t-1.5 -10.5h-126q1 4 1.5 10t0.5 10q0 25 -11.5 42.5t-33.5 27t-54 9.5q-47 0 -73 -22.5t-26 -60.5q0 -30 16 -50.5t49.5 -38t83.5 -38.5q62 -23 104.5 -51t64.5 -66t22 -95q0 -95 -65.5 -149.5t-184.5 -54.5z" />
    <glyph glyph-name="uni10BE" unicode="&#x10be;" horiz-adv-x="717" 
d="M93 714h128v-330h275v330h128v-437h-403v-170h388v-107h-516v714z" />
    <glyph glyph-name="uni10BF" unicode="&#x10bf;" horiz-adv-x="677" 
d="M35 0l240 364l-160 246h-97v104h583v-95l-170 -259l239 -360h-141l-179 280l-178 -280h-137zM356 443l105 167h-208z" />
    <glyph glyph-name="uni10C0" unicode="&#x10c0;" horiz-adv-x="980" 
d="M660 -10q-82 0 -140.5 31.5t-89 91t-30.5 142.5v350h-199v-227h-128v336h455v-447q0 -86 35 -127t99 -41q41 0 70 18.5t44.5 52.5t15.5 76q0 35 -9.5 66.5t-27.5 60.5l109 46q32 -42 47 -86.5t15 -91.5q0 -68 -32 -125.5t-92 -91.5t-142 -34z" />
    <glyph glyph-name="uni10C1" unicode="&#x10c1;" horiz-adv-x="741" 
d="M93 0v714h128v-145q0 -15 -1.5 -42t-4.5 -64h7q21 29 47 49t58.5 30t70.5 10q96 0 151.5 -55t62.5 -156h109v-108h-236v72q0 70 -29 104.5t-91 34.5q-50 0 -82 -19t-47 -60t-15 -107v-258h-128z" />
    <glyph glyph-name="uni10C2" unicode="&#x10c2;" horiz-adv-x="645" 
d="M233 -10q-53 0 -96.5 7.5t-90.5 26.5v109q51 -18 96.5 -26.5t87.5 -8.5q71 0 121 26t77 74.5t27 115.5q0 52 -14 90.5t-42 64.5t-71 39.5t-100 13.5h-154v192h119v-84h49q85 0 149.5 -20.5t108.5 -61t66 -99t22 -135.5q0 -102 -44.5 -174.5t-124.5 -111t-186 -38.5z" />
    <glyph glyph-name="uni10C3" unicode="&#x10c3;" horiz-adv-x="697" 
d="M476 0v172q0 19 1.5 46t4.5 60h-7q-30 -47 -82.5 -72.5t-113.5 -25.5q-67 0 -117.5 26.5t-79 76.5t-28.5 120q0 48 15 92t47 85l109 -45q-19 -29 -28 -57.5t-9 -59.5q0 -42 14.5 -71t43.5 -44t73 -15q51 0 86.5 21t53 63.5t17.5 107.5v234h128v-714h-128z" />
    <glyph glyph-name="uni10C4" unicode="&#x10c4;" horiz-adv-x="723" 
d="M298 0v236q-106 15 -164 83t-58 176v219h128v-206q0 -84 38 -126t121 -42q80 0 118.5 41.5t38.5 127.5v205h127v-221q0 -69 -26 -123t-75.5 -88t-119.5 -46v-236h-128z" />
    <glyph glyph-name="uni10C5" unicode="&#x10c5;" horiz-adv-x="851" 
d="M255 -10q-99 0 -154.5 43t-55.5 118q0 74 52.5 116t153.5 42h89v218q0 64 26.5 107.5t78 66.5t127.5 23q115 0 174.5 -45t59.5 -127q0 -84 -63 -128.5t-184 -44.5h-91v-70h257v-195h-118v96h-139v-22q0 -92 -55.5 -145t-157.5 -53zM259 89q42 0 61.5 23t19.5 69v29h-69
q-48 0 -70.5 -14.5t-22.5 -46.5q0 -31 20.5 -45.5t60.5 -14.5zM468 478h85q63 0 91.5 17.5t28.5 55.5q0 35 -24 54.5t-78 19.5q-52 0 -77.5 -25.5t-25.5 -73.5v-48z" />
    <glyph glyph-name="uni10C7" unicode="&#x10c7;" horiz-adv-x="589" 
d="M303 -10q-118 0 -184 54.5t-66 149.5q0 57 22 95t65 66t104 51q51 21 84 38.5t49 38t16 50.5q0 38 -26 60.5t-73 22.5q-31 0 -53.5 -9.5t-33.5 -27t-11 -42.5q0 -4 0.5 -10t1.5 -10h-127q-1 5 -1.5 10.5t-0.5 10.5q0 59 26 100.5t76 63.5t122 22q69 0 120 -23.5t79 -67
t28 -104.5q0 -39 -12 -70t-35 -56t-58 -46t-80 -39q-46 -19 -81 -36.5t-55 -39t-20 -53.5q0 -44 30.5 -68t89.5 -24q60 0 89.5 24.5t29.5 66.5q0 13 -1.5 24t-4.5 22h125q4 -12 5.5 -25t1.5 -28q0 -89 -61.5 -140t-179.5 -51z" />
    <glyph glyph-name="uni10CD" unicode="&#x10cd;" horiz-adv-x="576" 
d="M29 0v87l355 519h-345v108h498v-87l-354 -519h364v-108h-518z" />
    <glyph glyph-name="uni10D0" unicode="&#x10d0;" horiz-adv-x="570" 
d="M282 -10q-68 0 -122 24t-85 70t-31 114q0 26 4.5 46.5t10.5 36.5h120q-4 -16 -6.5 -35.5t-2.5 -40.5q0 -33 13.5 -58.5t38.5 -40t60 -14.5t59 14.5t37.5 40t13.5 58.5q0 49 -23.5 79.5t-53.5 58.5q-24 23 -48 49.5t-40 62.5t-16 87h126q0 -42 24.5 -73.5t56.5 -62.5
q25 -24 48.5 -51.5t39 -63.5t15.5 -84q0 -65 -30.5 -114t-84 -76t-124.5 -27z" />
    <glyph glyph-name="uni10D1" unicode="&#x10d1;" horiz-adv-x="614" 
d="M379 544q55 -13 97.5 -48.5t65.5 -92t23 -131.5q0 -68 -18 -120t-51.5 -88.5t-82 -55t-108.5 -18.5q-55 0 -102 18.5t-81.5 55t-53.5 88.5t-19 120q0 81 25 139t72.5 93.5t113.5 44.5q5 8 8 18.5t3 25.5q0 19 -10.5 32.5t-24.5 25.5q-20 15 -38.5 38.5t-18.5 70.5h120
q1 -22 13.5 -38t28.5 -30q20 -17 35.5 -37.5t15.5 -52.5q0 -17 -3.5 -31.5t-9.5 -26.5zM307 92q46 0 74.5 21.5t41.5 62.5t13 96q0 56 -13.5 95.5t-42 61t-74.5 21.5q-67 0 -97.5 -47t-30.5 -131q0 -55 13.5 -96t42 -62.5t73.5 -21.5z" />
    <glyph glyph-name="uni10D2" unicode="&#x10d2;" horiz-adv-x="604" 
d="M300 -250q-55 0 -102 18.5t-81.5 53.5t-53.5 85.5t-19 114.5q0 82 29 138t81 89t122 43q56 9 80 32t24 60q0 32 -20.5 53.5t-59.5 21.5q-38 0 -58 -20.5t-20 -53.5q0 -7 1.5 -15t2.5 -16h-119q-3 13 -4.5 25t-1.5 23q0 45 24.5 78.5t69.5 52.5t105 19q61 0 106.5 -21
t70 -56t24.5 -79t-22 -79t-73 -52v-3q53 -18 87 -53.5t50.5 -83t16.5 -103.5q0 -64 -18 -114.5t-51.5 -85.5t-81.5 -53.5t-109 -18.5zM302 -148q46 0 74.5 21.5t41.5 60t13 88.5q0 51 -13.5 88.5t-42 58.5t-74.5 21q-67 0 -97.5 -46t-30.5 -122q0 -50 13.5 -88.5t42 -60
t73.5 -21.5z" />
    <glyph glyph-name="uni10D3" unicode="&#x10d3;" horiz-adv-x="900" 
d="M549 -250q-24 41 -61 68.5t-77 41.5t-76 14q-41 0 -78 -10.5t-74 -29.5l-39 84q20 9 47.5 17.5t72.5 11.5v4q-67 31 -115 78.5t-74 111.5t-26 143q0 77 24 137.5t71 95.5t115 35q44 0 77.5 -12t57.5 -36t36 -60h5q21 53 69.5 80.5t107.5 27.5q72 0 125.5 -32t83.5 -93
t30 -148q0 -65 -18 -116.5t-50.5 -86.5t-76.5 -53.5t-96 -18.5q-56 0 -100.5 18.5t-76.5 53.5t-49 85.5t-17 114.5v41q0 65 -24.5 99t-71.5 34q-31 0 -52 -20.5t-32 -57.5t-11 -87q0 -65 17 -114.5t47 -85.5t69 -61.5t84 -44.5q61 -25 108.5 -49.5t82 -55.5t57.5 -77z
M608 106q41 0 66 21.5t36.5 60.5t11.5 91q0 79 -26.5 125t-86.5 46q-59 0 -86 -46t-27 -125q0 -52 11.5 -91t36.5 -60.5t64 -21.5z" />
    <glyph glyph-name="uni10D4" unicode="&#x10d4;" horiz-adv-x="598" 
d="M288 -250q-56 0 -101 17t-77 49t-49 76.5t-17 98.5q0 29 5.5 54.5t14.5 45.5h119q-5 -18 -9 -43t-4 -47q0 -41 12.5 -75t38.5 -54t67 -20q44 0 70 20t37 56t11 85v304q0 64 -25 98.5t-79 34.5q-32 0 -56 -13t-37 -37.5t-13 -60.5q0 -20 2 -39t7 -39h-120
q-6 17 -10.5 37.5t-4.5 45.5q0 68 30.5 114t83 70t117.5 24q71 0 123 -28t80 -80t28 -125v-309q0 -82 -28.5 -140.5t-83 -89t-132.5 -30.5z" />
    <glyph glyph-name="uni10D5" unicode="&#x10d5;" horiz-adv-x="593" 
d="M297 -250q-59 0 -106 17t-80 46.5t-50 69t-17 85.5q0 28 5 52t12 42h120q-4 -16 -7.5 -38.5t-3.5 -41.5q0 -34 13 -63.5t41.5 -48t72.5 -18.5t71 19t40 51t13 72t-15 70.5t-44 47.5t-72 17h-39v101h43q60 0 85 34.5t25 81.5q0 31 -12 54.5t-34.5 36.5t-56.5 13t-57 -11.5
t-34.5 -33.5t-11.5 -55q0 -14 1.5 -27t5.5 -27h-122q-5 16 -8 31.5t-3 32.5q0 57 29.5 100.5t81.5 67.5t119 24q69 0 120.5 -26t79.5 -69.5t28 -97.5q0 -73 -38.5 -117t-101.5 -59v-3q42 -7 78.5 -31t59 -64.5t22.5 -97.5q0 -71 -31 -124.5t-87.5 -83t-134.5 -29.5z" />
    <glyph glyph-name="uni10D6" unicode="&#x10d6;" horiz-adv-x="636" 
d="M338 -10q-54 0 -99 18.5t-78.5 53t-51.5 83t-18 110.5q0 53 14.5 97.5t45.5 75.5v3q-40 12 -68.5 34.5t-43.5 56t-15 75.5q0 44 21.5 83.5t63.5 64.5t105 25q59 0 101.5 -23t65 -60t22.5 -78q0 -26 -6.5 -47.5t-17.5 -36.5v-3q3 0 7 -1t7 -2q43 -8 78.5 -28.5t61.5 -53
t40.5 -76.5t14.5 -98q0 -64 -18 -114.5t-50.5 -86t-78.5 -54t-103 -18.5zM340 92q42 0 68.5 21.5t38.5 60t12 89.5q0 50 -12 87.5t-38.5 58.5t-69.5 21q-64 0 -91.5 -45.5t-27.5 -121.5q0 -51 12 -89.5t38.5 -60t69.5 -21.5zM214 499q37 0 54.5 26t17.5 66q0 37 -17 63
t-56 26q-38 0 -55.5 -26t-17.5 -63q0 -36 17.5 -64t56.5 -28z" />
    <glyph glyph-name="uni10D7" unicode="&#x10d7;" horiz-adv-x="900" 
d="M289 -10q-51 0 -95 18.5t-76.5 55t-50.5 88.5t-18 120q0 90 30 152.5t83.5 95t125.5 32.5q59 0 108.5 -27.5t70.5 -80.5h5q14 36 37 60t56.5 36t78.5 12q67 0 113 -34.5t70 -94.5t24 -138q0 -55 -7 -103.5t-21 -92t-36 -89.5h-124q32 68 46.5 135t14.5 143
q0 54 -10.5 93.5t-32 61t-53.5 21.5q-46 0 -70.5 -35t-24.5 -106v-43q0 -67 -17 -119t-49 -88t-76.5 -54.5t-101.5 -18.5zM291 92q40 0 64.5 22t36.5 62.5t12 95.5q0 84 -27 131t-87 47q-59 0 -85.5 -47t-26.5 -131q0 -55 11.5 -95.5t36.5 -62.5t65 -22z" />
    <glyph glyph-name="uni10D8" unicode="&#x10d8;" horiz-adv-x="590" 
d="M107 0q-19 46 -32 88.5t-19.5 88.5t-6.5 98q0 84 27.5 146t82 96.5t135.5 34.5q82 0 137 -34.5t82.5 -96.5t27.5 -146q0 -52 -6.5 -98t-19.5 -88.5t-33 -88.5h-123q28 68 41 134.5t13 139.5q0 59 -14 98t-40.5 58.5t-64.5 19.5q-37 0 -63.5 -19t-40.5 -58.5t-14 -99.5
q0 -49 6 -94.5t18 -89.5t31 -89h-124z" />
    <glyph glyph-name="uni10D9" unicode="&#x10d9;" horiz-adv-x="578" 
d="M283 -250q-74 0 -129 29t-85 78.5t-30 110.5q0 28 5 52t12 42h120q-4 -16 -7.5 -38.5t-3.5 -41.5q0 -34 12.5 -63.5t39 -48t66.5 -18.5q43 0 70 19t40 52t13 74q0 46 -15.5 80.5t-44 53.5t-71.5 19h-39v98h42q41 0 65 15.5t35 39.5t11 49q0 28 -11.5 51t-34 37t-53.5 14
v98q67 0 118 -24.5t79 -66t28 -92.5q0 -65 -38.5 -108t-101.5 -58v-3q42 -7 78.5 -32t59 -69.5t22.5 -108.5q0 -72 -31 -126t-87 -84t-134 -30z" />
    <glyph glyph-name="uni10DA" unicode="&#x10da;" horiz-adv-x="1121" 
d="M687 -250q-22 37 -54.5 64t-70.5 44t-77.5 25t-77.5 8q-56 0 -103 -15t-87 -37l-44 83q17 10 38 18.5t44 14.5t46 8v3q-55 17 -101 45.5t-79.5 69t-52.5 93.5t-19 119q0 76 24.5 134.5t71 91.5t113.5 33q60 0 97.5 -28t54.5 -75h5q17 48 53.5 75.5t91.5 27.5t92 -27.5
t53 -75.5h5q18 47 56 75t96 28q68 0 114.5 -34.5t71 -96t24.5 -142.5q0 -68 -14.5 -125.5t-45.5 -116.5l-110 40q23 50 32 98t9 103q0 87 -24.5 129.5t-69.5 42.5q-39 0 -59.5 -32.5t-20.5 -92.5v-150h-121v156q0 51 -20 85t-68 34q-44 0 -65.5 -32.5t-21.5 -86.5v-156h-121
v150q0 56 -19.5 90.5t-61.5 34.5q-43 0 -68.5 -38.5t-25.5 -120.5q0 -63 20.5 -111.5t57.5 -83.5t87 -58.5t110 -37.5q73 -16 138 -42.5t114.5 -65.5t76.5 -94z" />
    <glyph glyph-name="uni10DB" unicode="&#x10db;" horiz-adv-x="611" 
d="M300 -10q-76 0 -132.5 31.5t-87.5 93t-31 150.5q0 131 59 198.5t155 67.5q40 0 70 -9.5t51 -26.5t37 -40h5q-2 15 -4.5 34.5t-2.5 39.5v42q0 30 -11 54t-35.5 38t-62.5 14q-32 0 -54.5 -10t-35.5 -27.5t-13 -40.5q0 -5 0.5 -10.5t1.5 -10.5h-123q-3 10 -4 19t-1 17
q0 48 31 83t82.5 54t115.5 19q73 0 126 -27t81.5 -75t28.5 -111v-292q0 -134 -63.5 -204.5t-182.5 -70.5zM300 92q66 0 96 43.5t30 113.5v18q0 75 -27.5 120t-101.5 45q-58 0 -88.5 -46.5t-30.5 -123.5t28.5 -123.5t93.5 -46.5z" />
    <glyph glyph-name="uni10DC" unicode="&#x10dc;" horiz-adv-x="612" 
d="M311 -10q-118 0 -181.5 71t-63.5 208v297q0 71 26.5 113.5t70.5 61.5t96 19h249v-100h-234q-38 0 -60 -18.5t-22 -63.5v-26q0 -16 -2 -41t-4 -41h4q17 23 38 40t51 26.5t70 9.5q96 0 155 -69.5t59 -206.5q0 -91 -30.5 -153.5t-87 -94.5t-134.5 -32zM311 92q65 0 94 47
t29 128q0 84 -30.5 131.5t-88.5 47.5q-49 0 -77.5 -20.5t-40 -58t-11.5 -88.5v-25q0 -75 30 -118.5t95 -43.5z" />
    <glyph glyph-name="uni10DD" unicode="&#x10dd;" horiz-adv-x="841" 
d="M112 0q-21 48 -35.5 91.5t-21 89t-6.5 98.5q0 81 24.5 142.5t72.5 96t118 34.5q62 0 99.5 -28t54.5 -75h5q18 48 56 75.5t97 27.5q71 0 119 -34.5t73 -96t25 -142.5q0 -53 -7 -98.5t-21 -89t-36 -91.5h-125q32 68 46.5 135t14.5 143q0 53 -11 91.5t-33 59.5t-57 21
q-42 0 -62.5 -32t-20.5 -92v-149h-120v149q0 57 -20 90.5t-64 33.5q-49 0 -75 -42t-26 -132q0 -50 6.5 -96.5t20 -90.5t34.5 -89h-125z" />
    <glyph glyph-name="uni10DE" unicode="&#x10de;" horiz-adv-x="588" 
d="M289 -10q-72 0 -127.5 24t-86.5 70t-31 114q0 24 4.5 43.5t9.5 33.5h120q-4 -14 -6 -32t-2 -38q0 -35 14 -60t40.5 -39t64.5 -14q42 0 69 18.5t40 50.5t13 70q0 40 -15 71.5t-44.5 49.5t-75.5 18h-41v98h49q35 0 56.5 9t31.5 24.5t10 36.5q0 35 -22 54.5t-49 35.5
q-23 13 -45.5 29t-36.5 41.5t-14 67.5h126q1 -26 23 -42.5t53 -33.5q23 -12 44.5 -30t36 -43.5t14.5 -62.5q0 -59 -37 -89t-94 -42v-4q38 -7 74.5 -31t60.5 -65t24 -103q0 -67 -30.5 -119t-87 -81.5t-133.5 -29.5z" />
    <glyph glyph-name="uni10DF" unicode="&#x10df;" horiz-adv-x="634" 
d="M319 -250q-55 0 -100 16t-77.5 44.5t-49.5 67t-17 83.5q0 31 4.5 51.5t13.5 38.5h119q-5 -18 -8 -36.5t-3 -40.5q0 -32 13 -60t39.5 -45t66.5 -17q42 0 68 19t38 54.5t12 85.5v436q-32 -13 -68.5 -22.5t-75.5 -15.5v-3q31 -13 48.5 -40t17.5 -64q0 -40 -19 -71.5
t-55.5 -49.5t-89.5 -18q-71 0 -113.5 38t-42.5 94q0 10 1 19t4 18h100l-2 -12t-1 -11q0 -26 14.5 -42.5t39.5 -16.5q28 0 43 18t15 45q0 35 -16.5 54.5t-48.5 22.5v87q72 7 141 23t124 42h110v-532q0 -82 -29 -140.5t-83 -89t-133 -30.5z" />
    <glyph glyph-name="uni10E0" unicode="&#x10e0;" horiz-adv-x="834" 
d="M111 0q-21 48 -35 92t-20.5 90t-6.5 97v39q0 123 30 208.5t95 136.5t170 71q52 10 109 19t117 17l16 -105q-30 -4 -62 -8.5t-62 -9t-57 -9t-47 -8.5q-41 -7 -81.5 -22t-72 -43t-49.5 -77h4q18 23 36.5 35.5t37.5 17t39 4.5q52 0 88.5 -28t52.5 -75h6q17 48 55 75.5
t96 27.5q70 0 118 -34.5t72.5 -95t24.5 -140.5q0 -52 -7 -97t-21 -87.5t-35 -90.5h-127q32 68 46.5 133.5t14.5 140.5q0 52 -10.5 90t-32 58t-55.5 20q-40 0 -61 -33t-21 -92v-139h-120v139q0 56 -19.5 90.5t-61.5 34.5q-48 0 -74 -42t-26 -127q0 -50 6.5 -95.5t20 -89
t34.5 -88.5h-125z" />
    <glyph glyph-name="uni10E1" unicode="&#x10e1;" horiz-adv-x="617" 
d="M317 -10q-123 0 -187 70.5t-64 203.5v496h126v-506q0 -74 30 -118t94 -44q42 0 69.5 19.5t41 52t13.5 72.5q0 41 -11 69t-28 53q-22 36 -42.5 78.5t-20.5 105.5h126q1 -45 18 -78.5t41 -70.5q19 -29 32.5 -66t13.5 -88q0 -76 -31 -132t-87.5 -86.5t-133.5 -30.5z" />
    <glyph glyph-name="uni10E2" unicode="&#x10e2;" horiz-adv-x="774" 
d="M386 -250q-80 0 -143 27t-106.5 78.5t-65.5 128.5t-22 176q0 111 33 193t96.5 132t153.5 62q-3 20 -5 38.5t-2 34.5v47h122v-46q0 -15 -2.5 -34.5t-4.5 -38.5q92 -12 155.5 -61.5t96.5 -132.5t33 -195q0 -95 -22 -170.5t-65 -129t-106 -81.5t-146 -28zM386 -148
q69 0 115.5 34t70.5 102t24 171q0 88 -17.5 149.5t-52.5 97.5t-86 47q2 -20 4.5 -42.5t2.5 -50.5v-185h-122v186q0 28 2 49.5t5 40.5q-51 -10 -85.5 -46t-52 -97.5t-17.5 -148.5q0 -102 24.5 -170.5t71.5 -102.5t113 -34z" />
    <glyph glyph-name="uni10E3" unicode="&#x10e3;" horiz-adv-x="623" 
d="M309 -250q-59 0 -106.5 17t-80 49t-50 76.5t-17.5 98.5q0 29 5.5 54.5t14.5 45.5h119q-5 -18 -9 -43t-4 -47q0 -41 13 -75t41.5 -54t73.5 -20t72 20.5t39 56.5t12 84v339q0 50 -17 74.5t-51 24.5q-31 0 -49 -24.5t-18 -72.5v-118h-120v120q0 45 -18 67.5t-53 22.5h-69
v101h70q51 0 83.5 -21.5t47.5 -65.5h4q17 44 53 68t86 24q56 0 95.5 -23.5t60.5 -65t21 -96.5v-357q0 -82 -29 -140.5t-84 -89t-136 -30.5z" />
    <glyph glyph-name="uni10E4" unicode="&#x10e4;" horiz-adv-x="881" 
d="M531 -250q-89 0 -154.5 22.5t-101 64t-35.5 101.5q0 10 1 20t3 20h120q-1 -7 -1 -12.5v-11.5q0 -34 20.5 -56.5t58.5 -34t89 -11.5q53 0 87 18t51 46.5t17 62.5q0 29 -11 53t-33 38.5t-57 14.5h-21v103h39q32 0 55 17t36 47.5t13 70.5q0 37 -10 65t-30 45t-50 17
q-45 0 -70.5 -32.5t-25.5 -95.5v-26q0 -54 -16.5 -100t-48 -79t-75 -51t-97.5 -18q-52 0 -95 18t-75 51.5t-48.5 80t-16.5 102.5q0 76 29.5 133t82 88t121.5 31q57 0 105.5 -27.5t69.5 -80.5h6q19 50 60.5 79t108.5 29q63 0 108 -30t69 -77.5t24 -102.5q0 -61 -18.5 -102.5
t-50 -65.5t-72.5 -33v-4q40 -9 67 -32.5t41.5 -57t14.5 -74.5q0 -63 -34 -114t-97 -80t-153 -29zM286 150q38 0 62 21t35.5 55t11.5 74q0 42 -11.5 76t-36 54t-62.5 20t-62 -20t-36 -54t-12 -76q0 -40 12 -74t36.5 -55t62.5 -21z" />
    <glyph glyph-name="uni10E5" unicode="&#x10e5;" horiz-adv-x="598" 
d="M288 -250q-56 0 -101 17t-77 49t-49 76.5t-17 98.5q0 29 5.5 54.5t14.5 45.5h119q-5 -18 -9 -43t-4 -47q0 -41 12.5 -75t38.5 -54t67 -20q44 0 70 20t37 56t11 85v265q0 80 -25.5 126t-87.5 46q-28 0 -50 -13t-34.5 -37.5t-12.5 -60.5q0 -20 2 -39t7 -39h-120
q-6 17 -10.5 38t-4.5 49q0 66 27 111.5t70 69t90 23.5q37 0 65 -10.5t49 -28.5t37 -40h5q-2 15 -4.5 45t-2.5 52v190h126v-750q0 -82 -28.5 -140.5t-83 -89t-132.5 -30.5z" />
    <glyph glyph-name="uni10E6" unicode="&#x10e6;" horiz-adv-x="833" 
d="M525 -250q-23 41 -56.5 69t-70.5 42t-73 14q-42 0 -78.5 -10.5t-73.5 -29.5l-39 83q21 10 49.5 18.5t72.5 11.5v4q-101 45 -154 128.5t-53 196.5q0 81 24.5 143t71.5 97t115 35q61 0 99 -27.5t54 -75.5h6q18 48 56 75.5t97 27.5q68 0 115.5 -34.5t72.5 -96t25 -142.5
q0 -68 -15 -125.5t-45 -115.5l-108 39q23 50 32 98t9 103q0 52 -11 90.5t-32.5 60t-55.5 21.5q-42 0 -62.5 -32t-20.5 -90v-153h-119v153q0 55 -19.5 88.5t-62.5 33.5q-47 0 -73 -42.5t-26 -130.5q0 -62 15 -109.5t42.5 -82.5t65.5 -60t82 -44q61 -25 105.5 -50t76 -56.5
t54.5 -77.5z" />
    <glyph glyph-name="uni10E7" unicode="&#x10e7;" horiz-adv-x="607" 
d="M296 -250q-56 0 -101.5 16t-77 44.5t-48 67t-16.5 83.5q0 31 4.5 51.5t12.5 38.5h119q-5 -18 -7.5 -36.5t-2.5 -40.5q0 -32 12.5 -60t39 -45t66.5 -17q44 0 70 19t37.5 54.5t11.5 85.5v103q0 18 0.5 35.5t2 35t2.5 35.5h-6q-23 -38 -63.5 -60.5t-95.5 -22.5
q-64 0 -110.5 26t-71.5 78t-25 128q0 50 11.5 93.5t27.5 79.5h124q-15 -39 -24.5 -77t-9.5 -87q0 -44 12.5 -74t37 -45.5t59.5 -15.5q43 0 71.5 17t43 50t14.5 81v151h125v-532q0 -82 -29 -140.5t-83 -89t-133 -30.5z" />
    <glyph glyph-name="uni10E8" unicode="&#x10e8;" horiz-adv-x="613" 
d="M302 -10q-77 0 -133.5 31.5t-87.5 90.5t-31 143q0 82 27 139t75.5 87t111.5 30q40 0 70 -9.5t51.5 -26.5t36.5 -40h5q-2 15 -4.5 34.5t-2.5 39.5v85q0 25 -7 42.5t-20.5 27t-32.5 9.5q-27 0 -43 -17t-16 -47v-39h-122v35q0 32 -18.5 47.5t-42.5 15.5q-16 0 -31.5 -4
t-29.5 -9l-30 93q22 11 47.5 16.5t51.5 5.5q34 0 66.5 -17t48.5 -60h3q18 43 54.5 60t80.5 17q45 0 83 -19t61.5 -58.5t23.5 -99.5v-338q0 -84 -28 -143t-83 -90.5t-134 -31.5zM302 93q66 0 95.5 42t29.5 104v18q0 44 -12 78t-39.5 53.5t-75.5 19.5q-39 0 -66 -20.5
t-40.5 -55.5t-13.5 -80q0 -46 12.5 -82t39.5 -56.5t70 -20.5z" />
    <glyph glyph-name="uni10E9" unicode="&#x10e9;" horiz-adv-x="614" 
d="M68 0v570q0 60 24 105t69.5 70t110.5 25q59 0 103.5 -21t68.5 -56.5t24 -80.5q0 -28 -11.5 -58t-43.5 -54v-3q69 -19 108 -78t39 -151q0 -53 -7.5 -103t-18.5 -92.5t-23 -72.5h-126q10 28 20.5 68t17.5 87.5t7 95.5q0 53 -14 88.5t-39 54t-61 18.5q-37 0 -64 -18.5
t-42 -55.5t-15 -91v-247h-127zM189 431h6q13 20 29.5 34.5t43.5 29.5q24 13 40.5 26.5t25 31.5t8.5 44q0 36 -19.5 56t-53.5 20q-32 0 -53.5 -22t-21.5 -66v-86q0 -8 -0.5 -19t-1.5 -23.5t-3 -25.5z" />
    <glyph glyph-name="uni10EA" unicode="&#x10ea;" horiz-adv-x="684" 
d="M359 -250q-75 0 -133 25.5t-97 77t-59.5 129.5t-20.5 182q0 72 10 139t30 127.5t47 111.5h125q-27 -53 -45.5 -112.5t-29 -125.5t-10.5 -139q0 -101 18 -170.5t59 -105.5t107 -36q74 0 113 38t39 109q0 39 -15 70.5t-45.5 50.5t-77.5 19h-38v102h59q35 0 57 8.5t32.5 25
t10.5 38.5q0 33 -13.5 53.5t-32.5 36.5q-27 23 -51 54t-24 84h126q3 -26 20.5 -46t43.5 -42t43 -53.5t17 -74.5q0 -59 -37.5 -89.5t-94.5 -43.5v-3q38 -7 72 -31.5t55.5 -67t21.5 -105.5q0 -72 -35 -125t-98.5 -82t-148.5 -29z" />
    <glyph glyph-name="uni10EB" unicode="&#x10eb;" horiz-adv-x="612" 
d="M300 -10q-76 0 -132.5 32t-87.5 94.5t-31 153.5q0 139 59 210.5t155 71.5q40 0 70 -10.5t51.5 -28.5t36.5 -40h6q-2 15 -4.5 45t-2.5 53v189h126v-491q0 -137 -63.5 -208t-182.5 -71zM300 92q67 0 96.5 43.5t29.5 118.5v17q0 86 -27.5 132t-102.5 46q-57 0 -87.5 -47.5
t-30.5 -134.5q0 -81 29 -128t93 -47z" />
    <glyph glyph-name="uni10EC" unicode="&#x10ec;" horiz-adv-x="613" 
d="M311 -10q-79 0 -133.5 31.5t-83 90.5t-28.5 143v338q0 60 23.5 99.5t62 58.5t82.5 19q45 0 81 -17t54 -60h3q16 43 48.5 60t66.5 17q27 0 52 -5.5t47 -16.5l-30 -93q-14 5 -29.5 9t-31.5 4q-23 0 -42 -15t-19 -46v-37h-122v41q0 28 -16 45t-43 17q-18 0 -31.5 -9.5
t-21 -27t-7.5 -42.5v-85q0 -20 -2.5 -39.5t-4.5 -34.5h5q16 23 37.5 40t51 26.5t69.5 9.5q64 0 112 -30t75 -87t27 -139q0 -84 -31 -143t-87 -90.5t-134 -31.5zM311 93q44 0 70.5 20.5t39 56.5t12.5 82q0 45 -13 80t-39.5 55.5t-65.5 20.5q-48 0 -76 -19.5t-40.5 -53.5
t-12.5 -78v-18q0 -62 30 -104t95 -42z" />
    <glyph glyph-name="uni10ED" unicode="&#x10ed;" horiz-adv-x="610" 
d="M313 -250q-56 0 -101.5 17t-77.5 48t-49.5 73.5t-17.5 92.5q0 29 5.5 54.5t14.5 45.5h119q-5 -18 -9 -43t-4 -47q0 -36 13 -67.5t39.5 -51t67.5 -19.5q43 0 69 20t38.5 52.5t12.5 68.5q0 42 -11.5 74.5t-29.5 62.5q-18 31 -32.5 64t-22.5 73h-4q-23 -29 -55 -43t-75 -14
q-37 0 -74 19t-61 55.5t-24 90.5q0 52 23 89t64 57t94 20h89v218h124v-218h117v-102h-117v-67q0 -62 21 -106.5t47 -88.5q23 -37 39 -81.5t16 -100.5q0 -73 -30 -128t-85.5 -86.5t-132.5 -31.5zM238 307q38 0 58 23.5t20 55.5v56h-76q-39 0 -57.5 -18t-18.5 -48
q0 -32 20 -50.5t54 -18.5z" />
    <glyph glyph-name="uni10EE" unicode="&#x10ee;" horiz-adv-x="612" 
d="M312 -10q-119 0 -182.5 71t-63.5 208v491h126v-189q0 -23 -2 -53t-5 -45h5q17 22 38 40t51 28.5t70 10.5q96 0 155 -71.5t59 -210.5q0 -91 -31 -153.5t-87 -94.5t-133 -32zM311 92q65 0 94 47t29 128q0 87 -30.5 134.5t-87.5 47.5q-75 0 -102.5 -46t-27.5 -132v-17
q0 -75 29.5 -118.5t95.5 -43.5z" />
    <glyph glyph-name="uni10EF" unicode="&#x10ef;" horiz-adv-x="578" 
d="M350 313q0 -28 13 -52.5t33.5 -48t45.5 -48.5q24 -24 45 -52t34 -63t13 -80q0 -66 -30 -115.5t-85.5 -76.5t-130.5 -27q-56 0 -101 16t-77 44.5t-49 67t-17 83.5q0 31 4.5 51.5t12.5 38.5h119q-5 -18 -7.5 -36.5t-2.5 -40.5q0 -32 12.5 -60t38.5 -45t67 -17q36 0 63 14.5
t41.5 39.5t14.5 58t-11.5 59.5t-30 49.5t-40.5 45q-24 26 -47 54t-38 62.5t-15 79.5v33l-171 31v99l171 -30v105h125v-127l174 -31v-100l-174 31v-12z" />
    <glyph glyph-name="uni10F0" unicode="&#x10f0;" horiz-adv-x="579" 
d="M283 -10q-76 0 -130.5 26t-82.5 67.5t-28 89.5q0 11 1.5 21.5t4.5 20.5h121q-1 -5 -2 -12t-1 -13q0 -26 12 -48.5t38 -36t68 -13.5q41 0 66.5 10t37.5 26.5t12 36.5q0 33 -24 55t-86 22h-46v101h63q41 0 62 11.5t21 40.5q0 26 -22 39t-67 13h-57v100h62q38 0 51.5 11.5
t13.5 27.5q0 20 -17 30t-50 21q-24 9 -47 23.5t-38 38.5t-15 61h127q2 -20 24 -32.5t53 -25.5q23 -9 44.5 -22.5t36 -34.5t14.5 -53q0 -33 -28 -56t-75 -33v-4q26 -2 54 -14t47 -34.5t19 -55.5q0 -38 -17.5 -59.5t-45 -31.5t-56.5 -15v-4q37 -6 66 -22.5t46 -42.5t17 -63
q0 -52 -32.5 -89.5t-88 -57.5t-126.5 -20z" />
    <glyph glyph-name="uni10F1" unicode="&#x10f1;" horiz-adv-x="691" 
d="M382 -10q-111 0 -185 45.5t-111 137t-37 227.5q0 63 10 126t30 123t47 111h126q-26 -53 -45.5 -112t-29.5 -121t-10 -126q0 -101 21.5 -169.5t67 -104t117.5 -35.5q60 0 94.5 20.5t34.5 54.5q0 32 -23 54.5t-82 22.5h-51v98h67q38 0 58.5 11.5t20.5 41.5q0 25 -21.5 38.5
t-63.5 13.5h-61v99h62q25 0 39 7t19.5 18t5.5 22q0 23 -11.5 35.5t-27.5 22.5q-15 11 -30.5 24t-26 33t-10.5 52h127q2 -20 15.5 -33.5t31.5 -25.5q24 -15 44 -38.5t20 -67.5q0 -39 -28 -60.5t-74 -31.5v-4q26 -2 54 -14t47 -34.5t19 -55.5q0 -38 -17.5 -59.5t-45 -31.5
t-56.5 -15v-4q37 -6 66 -21.5t46 -41.5t17 -65q0 -48 -32.5 -85.5t-91 -59.5t-136.5 -22z" />
    <glyph glyph-name="uni10F2" unicode="&#x10f2;" horiz-adv-x="600" 
d="M59 0v98q35 0 66.5 3.5t72.5 8.5v4q-50 25 -83 60t-49.5 76.5t-16.5 82.5t15.5 80t47 70.5t78.5 50t110 18.5t110.5 -18.5t78.5 -50t46.5 -70.5t15.5 -80t-16 -82.5t-49.5 -76.5t-83.5 -60v-4q42 -5 73 -8.5t66 -3.5v-98q-73 0 -131.5 13.5t-110.5 36.5
q-50 -23 -109 -36.5t-131 -13.5zM300 146q37 18 65 44t43 60t15 76q0 36 -14 64.5t-41 45.5t-68 17q-40 0 -67.5 -17t-41.5 -45.5t-14 -64.5q0 -42 15.5 -76t43 -60t64.5 -44z" />
    <glyph glyph-name="uni10F3" unicode="&#x10f3;" horiz-adv-x="593" 
d="M297 -250q-59 0 -106 17t-80 46.5t-50 69t-17 85.5q0 28 5 52t12 42h120q-4 -16 -7.5 -38.5t-3.5 -41.5q0 -33 13 -62.5t41.5 -48.5t72.5 -19t71 19t40 51.5t13 71.5q0 74 -37.5 113.5t-104.5 39.5h-69v84l164 209h-287v102h436v-84l-175 -219q50 -6 96 -34.5t76 -80.5
t30 -131q0 -73 -31 -128t-87.5 -85t-134.5 -30z" />
    <glyph glyph-name="uni10F4" unicode="&#x10f4;" horiz-adv-x="583" 
d="M289 -250q-72 0 -127.5 24t-86.5 70t-31 114q0 24 4.5 43.5t9.5 33.5h120q-4 -14 -6 -32t-2 -38q0 -35 14 -60t40.5 -39t64.5 -14q42 0 69 19.5t40 51t13 68.5q0 39 -15 70t-44.5 49.5t-75.5 18.5h-41v102h49q35 0 56.5 10t31.5 29.5t10 45.5t-13.5 44t-37.5 32.5
t-56 29.5q-41 19 -78.5 42.5t-61 58.5t-23.5 89q0 49 23.5 84.5t66.5 54.5t103 19q43 0 83.5 -11t75.5 -33l-40 -92q-29 16 -57 25t-55 9q-38 0 -56.5 -14.5t-18.5 -40.5q0 -25 14.5 -42t40.5 -30.5t59 -29.5q38 -17 75 -39t61.5 -55.5t24.5 -86.5q0 -67 -37 -101t-94 -46
v-4q38 -7 74.5 -31t60.5 -65t24 -103q0 -68 -30.5 -120t-87 -81t-133.5 -29z" />
    <glyph glyph-name="uni10F5" unicode="&#x10f5;" horiz-adv-x="657" 
d="M286 -10q-114 0 -175.5 47t-61.5 132q0 82 59 126.5t164 44.5h131v94h-144q-95 0 -148 42t-53 122q0 81 60.5 126.5t172.5 45.5q74 0 126 -23t79.5 -67.5t27.5 -108.5v-39h106v-98h-106v-94h106v-97h-106v-39q0 -105 -60.5 -159.5t-177.5 -54.5zM288 88q59 0 87 30t28 86
v39h-128q-48 0 -75 -19t-27 -56q0 -38 30.5 -59t84.5 -21zM271 532h132v37q0 52 -29.5 77.5t-84.5 25.5q-52 0 -79.5 -18.5t-27.5 -54.5q0 -34 22.5 -50.5t66.5 -16.5z" />
    <glyph glyph-name="uni10F6" unicode="&#x10f6;" horiz-adv-x="928" 
d="M374 -250q-23 0 -44.5 4t-35.5 13v95q11 -4 25 -7t28 -3q26 0 40.5 15.5t14.5 59.5v57q0 20 2 45.5t4 40.5h-5q-16 -25 -38 -43t-48.5 -27.5t-61.5 -9.5q-95 0 -150.5 73t-55.5 209q0 135 54.5 207.5t148.5 72.5q36 0 63.5 -9.5t48.5 -28t38 -43.5h4q-1 18 -2.5 37
t-1.5 40v49q0 66 19 104t54 53.5t80 15.5q27 0 49.5 -5.5t32.5 -11.5v-96q-8 4 -23 7.5t-32 3.5q-25 0 -40 -15.5t-15 -59.5v-45q0 -21 -1.5 -40t-3.5 -37h5q17 25 38 43.5t49 28t63 9.5q94 0 148.5 -72.5t54.5 -207.5q0 -136 -55.5 -209t-150.5 -73q-34 0 -61.5 9.5
t-48.5 27.5t-38 43h-6q2 -15 4.5 -41t2.5 -46v-57q0 -60 -17.5 -99t-51 -58t-84.5 -19zM289 96q63 0 91 42t28 131v20q0 83 -28.5 120.5t-89.5 37.5q-53 0 -83 -43.5t-30 -129.5t30 -132t82 -46zM640 96q52 0 81.5 46t29.5 132t-29.5 129.5t-83.5 43.5q-60 0 -88.5 -37.5
t-28.5 -120.5v-20q0 -89 28 -131t91 -42z" />
    <glyph glyph-name="uni10F7" unicode="&#x10f7;" horiz-adv-x="573" 
d="M285 -250q-74 0 -128 26.5t-83.5 74.5t-29.5 115q0 74 28 123t75.5 83.5t105.5 61.5q51 24 79.5 43.5t40.5 42t12 50.5q0 36 -24 57.5t-73 21.5q-53 0 -76.5 -22t-23.5 -60q0 -6 1 -12.5t2 -13.5h-124q-2 10 -3 18t-1 17q0 53 26.5 92.5t76 61.5t120.5 22q74 0 124 -22.5
t76 -64t26 -97.5q0 -53 -21 -92.5t-64.5 -72.5t-112.5 -66q-43 -21 -75 -43.5t-49 -53.5t-17 -78q0 -50 31 -79.5t81 -29.5q54 0 85.5 28.5t31.5 83.5q0 19 -2.5 36t-7.5 29h127q5 -16 7.5 -33.5t2.5 -39.5q0 -70 -30.5 -116t-85.5 -68.5t-128 -22.5z" />
    <glyph glyph-name="uni10F8" unicode="&#x10f8;" horiz-adv-x="607" 
d="M310 -250q-78 0 -132.5 30.5t-83 89t-28.5 140.5v532h125v-151q0 -48 14.5 -81t43 -50t70.5 -17q36 0 60 15.5t37 45.5t13 74q0 49 -9.5 87t-24.5 77h123q17 -36 28.5 -79.5t11.5 -93.5q0 -76 -25 -128t-71.5 -78t-110.5 -26q-54 0 -94.5 22.5t-65.5 60.5h-6
q2 -18 3.5 -35.5t2 -35t0.5 -35.5v-103q0 -50 11.5 -85.5t38 -54.5t68.5 -19q41 0 67 17t39 45t13 60q0 22 -2.5 40.5t-7.5 36.5h119q8 -18 12.5 -38.5t4.5 -51.5q0 -45 -16.5 -83.5t-48.5 -67t-77 -44.5t-102 -16z" />
    <glyph glyph-name="uni10F9" unicode="&#x10f9;" horiz-adv-x="614" 
d="M309 552q55 0 102.5 -18.5t81.5 -53.5t53 -85.5t19 -114.5q0 -81 -28.5 -137.5t-81 -89t-122.5 -43.5q-56 -8 -80 -31.5t-24 -60.5q0 -32 21 -53t59 -21t58 20.5t20 52.5q0 8 -0.5 15.5t-2.5 15.5h118q4 -12 5.5 -24t1.5 -23q0 -45 -25 -79t-69.5 -53t-105.5 -19
t-106.5 21t-70 56.5t-24.5 78.5q0 44 22 79t73 52v3q-53 18 -87 53.5t-50.5 83t-16.5 103.5q0 64 18 114.5t52 85.5t81.5 53.5t108.5 18.5zM307 450q-45 0 -73.5 -21.5t-42 -59.5t-13.5 -89q0 -50 13.5 -88t42 -58.5t74.5 -20.5q67 0 97.5 45.5t30.5 121.5q0 51 -13 89
t-42 59.5t-74 21.5z" />
    <glyph glyph-name="uni10FA" unicode="&#x10fa;" horiz-adv-x="498" 
d="M104 -117v112l85 33v3q-40 14 -72 46.5t-50 81.5t-18 113q0 98 35 160t95 91t136 29q44 0 85.5 -9.5t70.5 -24.5l-38 -98q-26 10 -57.5 19t-61.5 9q-44 0 -74.5 -20t-45.5 -59.5t-15 -98.5q0 -58 15.5 -97t45 -58.5t71.5 -19.5q43 0 79.5 10.5t68.5 27.5v-118z" />
    <glyph glyph-name="uni10FB" unicode="&#x10fb;" horiz-adv-x="558" 
d="M428 193q-36 0 -56.5 20t-20.5 58t20 57.5t57 19.5t57 -20t20 -58q0 -36 -20.5 -56.5t-56.5 -20.5zM140 -13q-37 0 -57 20t-20 57q0 38 19.5 57.5t57.5 19.5q36 0 56 -19.5t20 -57.5q0 -36 -20.5 -56.5t-55.5 -20.5zM140 399q-37 0 -57 20t-20 57q0 39 19.5 58.5
t56.5 19.5q38 0 57.5 -20.5t19.5 -57.5t-20.5 -57t-55.5 -20z" />
    <glyph glyph-name="uni10FC" unicode="&#x10fc;" horiz-adv-x="360" 
d="M182 409q-70 0 -107.5 41.5t-37.5 118.5v159q0 44 17 70t44.5 37t58.5 11h148v-72h-137q-17 0 -26 -7.5t-9 -24.5v-12q0 -10 -1.5 -23.5t-3.5 -25.5h3q12 20 32.5 31.5t52.5 11.5q52 0 84.5 -38t32.5 -115t-39.5 -119.5t-111.5 -42.5zM181 483q31 0 43 23t12 63
t-14.5 60.5t-38.5 20.5q-32 0 -44.5 -20.5t-12.5 -55.5v-12q0 -39 14 -59t41 -20z" />
    <glyph glyph-name="uni10FD" unicode="&#x10fd;" horiz-adv-x="573" 
d="M288 -10q-74 0 -128.5 22.5t-85 68.5t-30.5 116q0 22 2.5 39.5t7.5 33.5h127q-4 -12 -7 -29t-3 -36q0 -55 32 -83.5t85 -28.5q50 0 81 29.5t31 79.5q0 45 -17 72t-48.5 46.5t-75.5 40.5q-68 34 -112 65t-65 69t-21 91q0 56 26 97.5t76.5 64t123.5 22.5q71 0 120.5 -22
t76 -61.5t26.5 -92.5q0 -9 -1 -17.5t-3 -17.5h-124q2 7 2.5 13t0.5 13q0 38 -23.5 60t-76.5 22q-49 0 -73 -21.5t-24 -57.5q0 -29 12 -49t41 -38.5t79 -42.5q44 -20 82 -42t66.5 -50.5t44.5 -67t16 -92.5q0 -67 -29.5 -115t-83 -74.5t-128.5 -26.5z" />
    <glyph glyph-name="uni10FE" unicode="&#x10fe;" horiz-adv-x="600" 
d="M59 542q72 0 131 -13t109 -37q52 24 110.5 37t131.5 13v-98q-35 0 -66 -3t-73 -9v-4q50 -23 83.5 -58.5t49.5 -77t16 -83.5q0 -41 -15.5 -80t-46.5 -70.5t-78.5 -50t-110.5 -18.5t-110 18.5t-78.5 50t-47 70.5t-15.5 80q0 42 16.5 83.5t49.5 77t83 58.5v4q-41 6 -72.5 9
t-66.5 3v98zM300 397q-37 -19 -64.5 -45t-43 -60t-15.5 -76q0 -35 14 -64t41.5 -46t67.5 -17q41 0 68 17t41 46t14 64q0 42 -15 76t-43 60t-65 45z" />
    <glyph glyph-name="uni10FF" unicode="&#x10ff;" horiz-adv-x="614" 
d="M565 272q0 -68 -18 -120t-51.5 -88.5t-82 -55t-107.5 -18.5q-56 0 -103 18.5t-81.5 55t-53.5 88.5t-19 120q0 90 31 152.5t89.5 95t138.5 32.5q76 0 133.5 -32.5t90.5 -95t33 -152.5zM178 272q0 -57 13.5 -97.5t42 -61.5t73.5 -21q46 0 74.5 21t41.5 61.5t13 97.5
q0 58 -13.5 97.5t-42 60t-73.5 20.5q-68 0 -98.5 -46t-30.5 -132z" />
    <glyph glyph-name="uni1C90" unicode="&#x1c90;" horiz-adv-x="614" 
d="M303 -10q-77 0 -134.5 29t-89 82t-31.5 125q0 29 3.5 57t18.5 69h131q-13 -37 -16 -66.5t-3 -50.5q0 -59 30 -98t91 -39q44 0 70.5 19t39 51.5t12.5 74.5q0 46 -12.5 82.5t-31.5 67.5t-41 59q-30 40 -56 77.5t-39.5 82t-5.5 102.5h130q-3 -40 8 -73.5t32.5 -64.5
t45.5 -64q26 -33 50 -71.5t39.5 -86.5t15.5 -110q0 -77 -31 -134t-88 -88.5t-138 -31.5z" />
    <glyph glyph-name="uni1C91" unicode="&#x1c91;" horiz-adv-x="633" 
d="M315 -10q-53 0 -100.5 18t-83.5 52t-56.5 83.5t-20.5 114.5q0 84 34 143t93.5 89.5t136.5 30.5q72 0 131 -30.5t94 -89.5t35 -143q0 -65 -19.5 -114.5t-54.5 -84t-83.5 -52t-105.5 -17.5zM317 98q40 0 68 19.5t43.5 55.5t15.5 85q0 48 -15.5 83t-44 53.5t-68.5 18.5
q-59 0 -93 -41.5t-34 -113.5q0 -49 15.5 -85t44.5 -55.5t68 -19.5zM384 497l-121 8q9 8 13 20t4 25q0 19 -12.5 31.5t-27.5 22.5q-14 10 -27.5 25t-21.5 36.5t-4 48.5h125q0 -20 11.5 -33t29.5 -26q22 -16 38 -37.5t16 -51.5q0 -20 -6 -36.5t-17 -32.5z" />
    <glyph glyph-name="uni1C92" unicode="&#x1c92;" horiz-adv-x="621" 
d="M309 -9q-53 0 -100.5 17t-83.5 49.5t-56.5 79.5t-20.5 105q0 78 31 130.5t86 81.5t127 36q53 5 76.5 23t23.5 50q0 29 -22 46t-60 17t-60.5 -18.5t-22.5 -48.5q0 -6 1 -12t2 -14h-127q-2 13 -3.5 23.5t-1.5 19.5q0 44 27.5 77.5t75.5 52t109 18.5q65 0 112.5 -19
t73.5 -53.5t26 -79.5q0 -38 -19.5 -69.5t-66.5 -47.5v-4q59 -20 97.5 -71.5t38.5 -137.5q0 -58 -19.5 -105t-54.5 -79.5t-83.5 -49.5t-105.5 -17zM311 99q38 0 66.5 18.5t44.5 51t16 73.5q0 45 -16 77t-45 49t-67 17t-66.5 -17.5t-44.5 -49t-16 -76.5q0 -41 16 -73.5t45 -51
t67 -18.5z" />
    <glyph glyph-name="uni1C93" unicode="&#x1c93;" horiz-adv-x="942" 
d="M570 0q-4 24 -23 41.5t-47 29.5t-61 18t-67 6q-46 0 -90.5 -10t-80.5 -30l-45 84q20 13 46 22t59 11v4q-63 24 -109.5 67t-72 102.5t-25.5 130.5q0 70 25 126t74.5 89t121.5 33q43 0 77.5 -11.5t59.5 -33.5t38 -55h5q14 31 41 53.5t64 34.5t80 12q75 0 130.5 -30
t86.5 -85t31 -130q0 -55 -18.5 -99t-52.5 -75.5t-79.5 -48.5t-100.5 -17q-58 0 -104.5 16.5t-79 48t-50 75t-17.5 96.5v27q0 37 -11.5 63.5t-33.5 41t-53 14.5q-33 0 -56 -18.5t-34 -51.5t-11 -76q0 -66 23 -113.5t62 -79.5t88 -52.5t102 -33.5q42 -11 82 -25.5t72.5 -36
t54 -54.5t25.5 -80h-126zM635 341q41 0 67 18t39 49.5t13 72.5q0 40 -12.5 72t-38.5 50t-67 18q-39 0 -65 -18t-38.5 -49.5t-12.5 -72.5t12.5 -72.5t38 -49.5t64.5 -18z" />
    <glyph glyph-name="uni1C94" unicode="&#x1c94;" horiz-adv-x="626" 
d="M303 -10q-77 0 -134.5 28.5t-89 79t-31.5 114.5q0 25 3.5 47t10.5 41h129q-4 -16 -6.5 -37t-2.5 -39q0 -35 13 -63.5t41 -45.5t68 -17q45 0 71.5 16.5t39 47.5t12.5 71v272q0 53 -30 82t-79 29q-32 0 -57 -11t-38.5 -33.5t-13.5 -55.5q0 -14 2 -30.5t5 -33.5h-130
q-4 16 -7.5 34.5t-3.5 41.5q0 65 32.5 108t87 65.5t121.5 22.5q72 0 125.5 -26t83 -74t29.5 -116v-278q0 -75 -30 -129t-85.5 -82.5t-135.5 -28.5z" />
    <glyph glyph-name="uni1C95" unicode="&#x1c95;" horiz-adv-x="623" 
d="M312 -10q-83 0 -142 27.5t-90.5 75t-31.5 106.5q0 20 3 38t9 36h129q-4 -17 -6 -31.5t-2 -28.5q0 -54 33 -86.5t99 -32.5q44 0 72 16.5t41.5 44t13.5 59.5q0 37 -15.5 62.5t-44.5 38t-69 12.5h-43v103h47q57 0 82 29.5t25 69.5q0 27 -12.5 47.5t-36 32t-56.5 11.5
q-34 0 -58.5 -11t-37 -31t-12.5 -47q0 -12 1 -22.5t3 -24.5h-128q-5 16 -7 30t-2 29q0 54 31 95t85.5 63.5t124.5 22.5q72 0 125.5 -24.5t83.5 -66t30 -96.5q0 -62 -33.5 -101t-89.5 -53v-3q37 -6 69 -27t52.5 -57.5t20.5 -88.5q0 -63 -32 -112t-90.5 -77t-140.5 -28z" />
    <glyph glyph-name="uni1C96" unicode="&#x1c96;" horiz-adv-x="668" 
d="M354 -10q-56 0 -103 17.5t-81.5 50t-54 78t-19.5 102.5q0 47 14 88t43 69v3q-40 11 -68.5 33t-43.5 54t-15 71q0 42 23 80.5t67 63t109 24.5q62 0 106 -22.5t68 -58t24 -76.5q0 -22 -6.5 -43t-17.5 -37v-3h7.5t10.5 -2q58 -7 102.5 -38.5t69.5 -82t25 -115.5
q0 -60 -18.5 -107t-52.5 -80.5t-82 -51t-107 -17.5zM356 97q44 0 71 18.5t39.5 52.5t12.5 78t-12.5 77t-39.5 51t-72 18q-66 0 -94.5 -40t-28.5 -106q0 -44 12.5 -77.5t39.5 -52.5t72 -19zM225 471q37 0 56 22.5t19 55.5q0 32 -18 55.5t-58 23.5q-38 0 -56.5 -23.5
t-18.5 -55.5q0 -30 18 -54t58 -24z" />
    <glyph glyph-name="uni1C97" unicode="&#x1c97;" horiz-adv-x="975" 
d="M687 724q63 0 115 -32t83 -102.5t31 -185.5q0 -88 -9.5 -157.5t-26.5 -128.5t-40 -118h-132q22 59 38 120t25.5 130.5t9.5 152.5q0 79 -13 125.5t-37 66.5t-57 20t-55 -15.5t-33 -42.5t-11 -62q0 -24 2 -47.5t3.5 -46.5t1.5 -48q0 -120 -28 -201t-86.5 -121.5
t-147.5 -40.5t-147 41t-86 123t-28 203q0 123 28.5 204.5t86.5 122t145 40.5q43 0 79 -10.5t64 -33.5t45 -60h3q16 38 45 61t63.5 33t68.5 10zM320 99q47 0 75 27.5t40.5 84.5t12.5 147q0 91 -13 147.5t-41 83t-74 26.5q-45 0 -73 -27t-41 -84t-13 -147q0 -91 13 -148
t41 -83.5t73 -26.5z" />
    <glyph glyph-name="uni1C98" unicode="&#x1c98;" horiz-adv-x="640" 
d="M116 0q-17 49 -30 103.5t-20 125t-7 162.5q0 119 34.5 192t93.5 107t133 34t133.5 -34t94 -107t34.5 -192q0 -92 -7.5 -162t-20 -125t-29.5 -104h-131q16 50 28 106.5t18.5 126t6.5 158.5q0 83 -15 132t-44 71t-68 22t-67.5 -21.5t-44 -71t-15.5 -132.5q0 -90 6.5 -159.5
t19 -125.5t27.5 -106h-130z" />
    <glyph glyph-name="uni1C99" unicode="&#x1c99;" horiz-adv-x="607" 
d="M298 -10q-78 0 -135.5 27.5t-88.5 75t-31 106.5q0 20 3 38t9 36h129q-4 -17 -6 -31.5t-2 -28.5q0 -54 31.5 -86.5t90.5 -32.5q44 0 72.5 16.5t42 45t13.5 64.5q0 37 -14 65.5t-41 44t-69 15.5h-40v105h43q39 0 61.5 12.5t32 32.5t9.5 41q0 23 -10.5 42.5t-31.5 30.5
t-52 11v104q70 0 120.5 -22.5t77.5 -60.5t27 -85q0 -61 -31.5 -100t-81.5 -53v-3q33 -6 63.5 -28.5t50 -62t19.5 -98.5q0 -66 -31.5 -115.5t-90.5 -77.5t-139 -28z" />
    <glyph glyph-name="uni1C9A" unicode="&#x1c9a;" horiz-adv-x="1173" 
d="M714 0q-3 24 -19.5 44.5t-42.5 35t-58.5 25t-68 16t-69.5 5.5q-71 0 -125 -16.5t-96 -38.5l-49 82q16 9 34 17.5t38 14.5t42 8v3q-58 14 -103.5 39.5t-77.5 62t-48.5 84t-16.5 106.5q0 67 24 120.5t72 84.5t118 31q61 0 102.5 -27.5t58.5 -75.5h5q18 50 56.5 76.5
t94.5 26.5q59 0 97.5 -28t53.5 -75h6q18 48 58 75.5t99 27.5q71 0 119.5 -32.5t74.5 -89.5t26 -131q0 -61 -14 -115.5t-43 -109.5l-120 41q24 48 34 93.5t10 94.5q0 71 -26.5 106t-71.5 35q-28 0 -47 -17t-28.5 -46t-9.5 -65v-112h-127v121q0 32 -9.5 59t-29 43.5
t-52.5 16.5q-29 0 -49 -15.5t-30 -42.5t-10 -61v-121h-127v112q0 33 -8.5 62.5t-27 47.5t-49.5 18q-44 0 -70.5 -32.5t-26.5 -102.5q0 -60 21.5 -103t62 -72.5t97 -47t127.5 -24.5q69 -7 129 -24t106 -45t75 -68.5t36 -96.5h-127z" />
    <glyph glyph-name="uni1C9B" unicode="&#x1c9b;" horiz-adv-x="640" 
d="M316 -10q-80 0 -139 30.5t-91 88t-32 138.5q0 122 62 186.5t161 64.5q40 0 70.5 -9.5t53 -25t38.5 -35.5h5q-2 15 -4.5 33t-2.5 36v36q0 27 -13 47.5t-38.5 31.5t-63.5 11q-29 0 -54 -8.5t-39.5 -25t-14.5 -41.5v-4.5v-4.5h-131q-1 9 -1 13.5v8.5q0 51 34 87.5t88.5 56
t117.5 19.5q76 0 130.5 -25.5t84.5 -71t30 -105.5v-273q0 -125 -65 -192t-186 -67zM316 95q45 0 73 17.5t41.5 49.5t13.5 72v15q0 38 -10.5 70.5t-38.5 53t-83 20.5q-59 0 -91.5 -40.5t-32.5 -107.5q0 -66 31 -108t97 -42z" />
    <glyph glyph-name="uni1C9C" unicode="&#x1c9c;" horiz-adv-x="640" 
d="M324 -10q-121 0 -186.5 68t-65.5 195v264q0 54 16 91.5t44 60.5t63.5 34t75.5 11h264v-107h-250q-39 0 -61 -18.5t-22 -61.5v-30q0 -15 -2 -33.5t-5 -32.5h5q17 22 40 38t53.5 26t69.5 10q66 0 116.5 -30.5t78.5 -87.5t28 -136q0 -84 -32 -142t-90.5 -88.5t-139.5 -30.5z
M325 96q45 0 73.5 19.5t42 54t13.5 78.5q0 45 -14.5 79t-42.5 52.5t-68 18.5q-49 0 -77.5 -20.5t-41.5 -53.5t-13 -74v-16q0 -40 13.5 -71t42 -49t72.5 -18z" />
    <glyph glyph-name="uni1C9D" unicode="&#x1c9d;" horiz-adv-x="916" 
d="M135 0q-18 44 -32 88.5t-24 93t-15 103.5t-5 119q0 116 32.5 186.5t85.5 102t114 31.5q31 0 63.5 -9t60 -32.5t42.5 -65.5h3q16 42 43 65t59.5 32.5t65.5 9.5q60 0 112.5 -32t85 -102.5t32.5 -185.5q0 -89 -10 -158.5t-27 -128t-39 -117.5h-133q22 60 38.5 121.5
t25.5 130.5t9 151q0 79 -14 125.5t-37.5 67t-54.5 20.5t-51 -18t-29.5 -51.5t-9.5 -80.5v-257h-135v257q0 50 -10.5 83.5t-31 50t-51.5 16.5q-28 0 -52.5 -20t-38.5 -66.5t-14 -126.5q0 -81 9 -150t26 -130.5t39 -122.5h-132z" />
    <glyph glyph-name="uni1C9E" unicode="&#x1c9e;" horiz-adv-x="619" 
d="M306 -10q-79 0 -137.5 27.5t-89.5 75t-31 106.5q0 20 3 38t9 36h129q-4 -17 -6 -31.5t-2 -28.5q0 -54 32 -86.5t93 -32.5q43 0 70.5 17t40.5 45t13 62q0 28 -9 50.5t-27 37.5t-43.5 23.5t-58.5 8.5h-44v102h59q35 0 57 7.5t32 21t10 30.5q0 21 -10 34t-26.5 22t-35.5 17
q-28 11 -53 29t-39.5 45.5t-11.5 67.5h134q1 -24 23 -40t53 -30q25 -11 48.5 -28.5t39 -44t15.5 -65.5q0 -31 -14.5 -54.5t-39.5 -38.5t-57 -23v-3q24 -6 47.5 -20t43 -36t31 -53t11.5 -71q0 -63 -31.5 -112t-89.5 -77t-138 -28z" />
    <glyph glyph-name="uni1C9F" unicode="&#x1c9f;" horiz-adv-x="665" 
d="M334 -10q-77 0 -134.5 27.5t-88.5 75t-31 106.5q0 18 2.5 36t9.5 38h128q-4 -17 -5.5 -32.5t-1.5 -27.5q0 -54 31.5 -86.5t89.5 -32.5q46 0 72.5 17t38.5 47t12 71v380q-32 -12 -66.5 -19t-67.5 -11v-2q22 -11 35.5 -34t13.5 -56q0 -37 -21 -67t-58 -48t-87 -18
q-48 0 -84.5 17t-57 45.5t-20.5 63.5q0 8 1.5 17t3.5 16h101q-1 -5 -1 -8.5v-7.5q0 -23 15 -38t41 -15q29 0 45 16.5t16 39.5q0 27 -15.5 44t-51.5 17v94q73 7 146.5 21.5t130.5 37.5h111v-485q0 -73 -29 -127t-85.5 -83t-138.5 -29z" />
    <glyph glyph-name="uni1CA0" unicode="&#x1ca0;" horiz-adv-x="873" 
d="M107 0q-20 52 -31.5 96.5t-16.5 91t-5 104.5q0 87 16.5 155.5t51.5 117.5t93 81t142 46q34 6 71.5 11.5t79.5 11t87 10.5l16 -110q-33 -4 -67 -7.5t-65.5 -8t-59.5 -8t-50 -7.5q-40 -6 -80.5 -18.5t-73.5 -37t-50 -65.5h4q17 19 36 29.5t40.5 15t41.5 4.5q54 0 92 -27.5
t56 -76.5h3q18 51 60 77.5t106 26.5q71 0 118.5 -33t72 -90t24.5 -131q0 -46 -6 -88.5t-18.5 -84t-30.5 -85.5h-132q26 64 40 125t14 132q0 44 -10 78.5t-31.5 54.5t-57.5 20q-29 0 -48.5 -15t-29.5 -43.5t-10 -66.5v-129h-126v129q0 42 -10 69.5t-30 41.5t-49 14
q-49 0 -73.5 -38t-24.5 -117q0 -70 14 -131t39 -124h-132z" />
    <glyph glyph-name="uni1CA1" unicode="&#x1ca1;" horiz-adv-x="640" 
d="M329 -10q-125 0 -191 68t-66 192v464h128v-474q0 -43 14 -75t42.5 -49.5t72.5 -17.5q41 0 68.5 17t40.5 44.5t13 60.5q0 44 -15 73.5t-35 56.5q-23 31 -40.5 69t-12.5 92h133q-1 -39 14 -66.5t37 -57.5q22 -31 38 -68.5t16 -94.5q0 -69 -31.5 -122t-89.5 -82.5
t-136 -29.5z" />
    <glyph glyph-name="uni1CA2" unicode="&#x1ca2;" horiz-adv-x="818" 
d="M409 -10q-85 0 -150.5 25.5t-111.5 73t-69.5 114t-23.5 148.5q0 148 75.5 240t215.5 109q-1 11 -2 20.5t-1 18.5v14h133v-14q0 -9 -0.5 -18.5t-2.5 -19.5q141 -17 216.5 -109t75.5 -242q0 -79 -23.5 -145t-69 -114t-111.5 -74.5t-151 -26.5zM408 99q71 0 120 29t74 85.5
t25 137.5q0 111 -41 172t-120 75q2 -13 4.5 -34t2.5 -52v-166h-129v167q0 28 2 48t5 37q-81 -15 -121 -78t-40 -169q0 -81 25.5 -137.5t74.5 -85.5t118 -29z" />
    <glyph glyph-name="uni1CA3" unicode="&#x1ca3;" horiz-adv-x="641" 
d="M316 -10q-77 0 -134 28.5t-88.5 79t-31.5 114.5q0 28 3 48.5t9 39.5h130q-4 -15 -6.5 -35.5t-2.5 -40.5q0 -35 13.5 -63.5t41 -45.5t67.5 -17q44 0 71.5 17t39.5 47.5t12 70.5v302q0 28 -8 46.5t-23 28t-39 9.5q-33 0 -52 -20t-19 -62v-104h-125v104q0 38 -18.5 56.5
t-52.5 18.5h-63v107h65q45 0 80.5 -18t53.5 -63h3q12 29 33.5 48.5t50 28.5t61.5 9q58 0 98.5 -22t61.5 -62t21 -93v-318q0 -75 -29.5 -128.5t-85.5 -82t-137 -28.5z" />
    <glyph glyph-name="uni1CA4" unicode="&#x1ca4;" horiz-adv-x="934" 
d="M559 -10q-90 0 -158.5 21t-105.5 60t-37 93q0 10 1 19t3 17h128q-1 -4 -1.5 -9.5t-0.5 -8.5q0 -31 22 -50.5t61.5 -29t90.5 -9.5q55 0 91 15.5t54 41t18 55.5q0 25 -11.5 45t-34.5 32.5t-59 12.5h-19v101h37q33 0 57 15t37 41.5t13 58.5t-9.5 57t-30 39t-52.5 14
q-30 0 -51.5 -13.5t-33.5 -38.5t-12 -59v-30q0 -50 -17 -92.5t-50 -73t-79.5 -47t-105.5 -16.5q-54 0 -99.5 17t-79.5 48t-52.5 73.5t-18.5 94.5q0 73 31 126.5t87 83.5t131 30q42 0 78.5 -11.5t64.5 -33t42 -54.5h4q13 33 38 54.5t59.5 33t77.5 11.5q68 0 115.5 -26.5
t72.5 -71t25 -96.5q0 -81 -36 -123.5t-90 -57.5v-3q35 -9 58.5 -30t35.5 -50t12 -65q0 -60 -34.5 -107.5t-102 -75.5t-164.5 -28zM306 353q40 0 66 18t38.5 48t12.5 67q0 38 -12.5 68.5t-38.5 48.5t-67 18q-39 0 -65.5 -18t-39 -48.5t-12.5 -68.5q0 -37 13 -67t39 -48
t66 -18z" />
    <glyph glyph-name="uni1CA5" unicode="&#x1ca5;" horiz-adv-x="625" 
d="M303 -10q-78 0 -135.5 27.5t-88.5 75t-31 106.5q0 20 3 38t9 36h129q-4 -17 -6 -31.5t-2 -28.5q0 -54 31.5 -86.5t90.5 -32.5q45 0 71.5 18.5t38.5 51t12 74.5v125q0 42 -10.5 76t-35.5 54.5t-69 20.5q-30 0 -53 -10.5t-36 -32t-13 -52.5q0 -9 1 -19t2 -21h-129
q-3 12 -4.5 25t-1.5 29q0 58 28 99t72.5 63t94.5 22q39 0 68.5 -9.5t51 -25.5t36.5 -36h4q-3 16 -5 39.5t-2 46.5v82h128v-478q0 -77 -28.5 -132.5t-84 -84.5t-136.5 -29z" />
    <glyph glyph-name="uni1CA6" unicode="&#x1ca6;" horiz-adv-x="876" 
d="M527 0q-5 37 -32.5 60.5t-67 35.5t-82.5 12q-46 0 -87 -10t-77 -29l-44 83q18 12 45 21.5t61 11.5v4q-59 24 -101 64t-65 95t-23 123q0 74 25 130t73.5 88.5t119.5 32.5q63 0 104.5 -25.5t58.5 -71.5h6q19 49 60 73t99 24q72 0 121 -32t75 -88.5t26 -130.5
q0 -63 -15 -117.5t-48 -109.5l-112 42q23 44 32.5 89t9.5 94q0 44 -11.5 77.5t-34 53t-58.5 19.5q-28 0 -47 -13t-28 -38t-9 -61v-136h-126v136q0 35 -8.5 60t-27.5 38.5t-49 13.5q-49 0 -76 -35t-27 -112q0 -67 20.5 -111.5t56 -73t81.5 -46.5t98 -32q53 -15 99 -41.5
t76 -68t35 -99.5h-126z" />
    <glyph glyph-name="uni1CA7" unicode="&#x1ca7;" horiz-adv-x="634" 
d="M309 -10q-78 0 -135.5 27.5t-88.5 75t-31 106.5q0 18 3 36.5t9 37.5h129q-4 -17 -6 -31.5t-2 -28.5q0 -54 31.5 -86.5t90.5 -32.5q45 0 72.5 18t39.5 49t12 71v89q0 14 0.5 27.5t1.5 28t3 28.5h-3q-25 -33 -68 -54t-99 -21q-64 0 -112 26.5t-74.5 77.5t-26.5 124
q0 46 9.5 85.5t23.5 70.5h132q-14 -36 -22.5 -70t-8.5 -82q0 -37 13.5 -65.5t38.5 -44t60 -15.5q43 0 72.5 16.5t44.5 48.5t15 80v132h128v-481q0 -77 -29 -131t-85.5 -83t-137.5 -29z" />
    <glyph glyph-name="uni1CA8" unicode="&#x1ca8;" horiz-adv-x="643" 
d="M319 -10q-81 0 -140 30.5t-90.5 88t-31.5 138.5q0 120 61.5 183t161.5 63q40 0 70 -9t53 -24.5t39 -35.5h4q-1 14 -3.5 32.5t-2.5 36.5v67q0 21 -8 36t-22.5 23.5t-34.5 8.5q-26 0 -43 -16.5t-17 -44.5v-32h-127v24q0 31 -19.5 47t-45.5 16q-16 0 -31 -4t-29 -9l-33 93
q24 11 51 16.5t53 5.5q35 0 68.5 -16.5t49.5 -56.5h4q19 41 57.5 57t82.5 16q46 0 85.5 -18.5t64 -56t24.5 -95.5v-305q0 -125 -65 -192t-186 -67zM319 95q45 0 73.5 17.5t42 49.5t13.5 72v12q0 37 -10.5 69.5t-39 53t-83.5 20.5q-59 0 -91.5 -39.5t-32.5 -104.5
q0 -66 31 -108t97 -42z" />
    <glyph glyph-name="uni1CA9" unicode="&#x1ca9;" horiz-adv-x="630" 
d="M72 0v521q0 62 25.5 107.5t73.5 70.5t116 25q93 0 149 -40t56 -108q0 -30 -12 -57.5t-47 -49.5v-3q69 -19 106 -76.5t37 -146.5q0 -45 -5.5 -90t-15 -84.5t-21.5 -68.5h-128q11 25 19 63t13 83.5t5 91.5q0 67 -30 109.5t-86 42.5q-38 0 -66.5 -17t-44.5 -50t-16 -83v-240
h-128zM194 414h5q13 18 33.5 34.5t45.5 27.5q24 12 43 23.5t30.5 27t11.5 37.5q0 29 -21 45t-58 16q-38 0 -61 -23t-23 -64v-61q0 -8 -0.5 -18.5t-2 -21.5t-3.5 -23z" />
    <glyph glyph-name="uni1CAA" unicode="&#x1caa;" horiz-adv-x="717" 
d="M376 -10q-79 0 -139 23.5t-100.5 71t-61.5 119.5t-21 171q0 63 10 122.5t27.5 114t40.5 102.5h128q-21 -51 -37 -104t-25 -111t-9 -124q0 -91 19 -153t60.5 -93t108.5 -31q77 0 118 32.5t41 92.5q0 33 -16.5 59.5t-48 42t-79.5 15.5h-39v105h65q34 0 57.5 7.5t35.5 21.5
t12 33q0 23 -15.5 40t-35.5 32q-17 14 -33.5 30.5t-26.5 41.5t-9 63h131q0 -25 16 -42.5t36 -33.5q25 -19 47.5 -46.5t22.5 -74.5q0 -35 -15 -60t-41.5 -40t-62.5 -21v-4q36 -6 66 -27.5t48 -59t18 -93.5q0 -68 -37 -118t-103 -77t-153 -27z" />
    <glyph glyph-name="uni1CAB" unicode="&#x1cab;" horiz-adv-x="640" 
d="M315 -10q-78 0 -137 30.5t-91.5 90t-32.5 145.5q0 87 29 146t79 89t115 30q40 0 71 -10t54.5 -27t39.5 -38h5q-2 15 -4.5 45.5t-2.5 51.5v171h128v-461q0 -127 -66 -195t-187 -68zM315 97q45 0 74 18t43 50.5t14 75.5v16q0 38 -10 73t-39 57.5t-86 22.5
q-38 0 -65.5 -18.5t-42.5 -53.5t-15 -85q0 -70 31 -113t96 -43z" />
    <glyph glyph-name="uni1CAC" unicode="&#x1cac;" horiz-adv-x="643" 
d="M324 -10q-121 0 -186.5 67t-65.5 192v305q0 58 24.5 95.5t64.5 56t85 18.5q44 0 82.5 -16t58.5 -57h3q17 40 51 56.5t68 16.5q25 0 53 -5.5t51 -16.5l-33 -93q-14 6 -29.5 9.5t-31.5 3.5q-26 0 -45 -16t-19 -47v-24h-128v32q0 28 -16 44.5t-44 16.5q-19 0 -33.5 -8.5
t-23 -23.5t-8.5 -36v-67q0 -18 -2 -36t-4 -33h5q16 20 38.5 35.5t53 24.5t70.5 9q100 0 161.5 -63t61.5 -183q0 -81 -32 -138.5t-90.5 -88t-139.5 -30.5zM325 95q66 0 97.5 41.5t31.5 108.5q0 65 -32.5 104.5t-91.5 39.5q-52 0 -81 -20t-40.5 -53t-11.5 -70v-12
q0 -40 13.5 -71.5t42 -49.5t72.5 -18z" />
    <glyph glyph-name="uni1CAD" unicode="&#x1cad;" horiz-adv-x="639" 
d="M332 -10q-76 0 -133 25.5t-88.5 71t-31.5 105.5q0 7 1 16t4 23h128q-1 -9 -1 -15v-11q0 -49 31.5 -80t89.5 -31q43 0 69.5 17t38.5 44.5t12 58.5q0 21 -5 38.5t-13 32t-17 28.5t-19 29t-18 32h-3q-20 -26 -46 -41.5t-55.5 -22t-60.5 -6.5q-41 0 -79.5 18t-63 52t-24.5 82
q0 46 23.5 80t64 52.5t90.5 18.5h101v107h129v-107h93v-100h-86v-18q0 -26 12.5 -49t30.5 -46t36 -49.5t30.5 -59t12.5 -72.5q0 -66 -30 -116t-86.5 -78.5t-136.5 -28.5zM246 401q39 0 60.5 19.5t21.5 47.5v42h-80q-37 0 -58 -14.5t-21 -39.5q0 -26 22 -40.5t55 -14.5z" />
    <glyph glyph-name="uni1CAE" unicode="&#x1cae;" horiz-adv-x="640" 
d="M324 -10q-119 0 -185.5 68t-66.5 195v461h128v-171q0 -21 -2 -52t-5 -47h6q16 22 38.5 39.5t53 27.5t70.5 10q66 0 116.5 -30t79.5 -89t29 -146q0 -86 -33 -145.5t-91.5 -90t-137.5 -30.5zM325 97q65 0 96.5 43t31.5 113q0 49 -15 84.5t-43 54t-67 18.5
q-55 0 -83.5 -22.5t-39.5 -58t-11 -72.5v-16q0 -43 14.5 -75.5t43.5 -50.5t73 -18z" />
    <glyph glyph-name="uni1CAF" unicode="&#x1caf;" horiz-adv-x="608" 
d="M302 -10q-77 0 -134 27.5t-88.5 75t-31.5 106.5q0 20 3 38t9 36h129q-4 -17 -6 -31.5t-2 -28.5q0 -54 31.5 -86.5t89.5 -32.5q39 0 66.5 12.5t42.5 34t15 49.5t-11.5 50t-31 41t-44.5 36q-31 23 -54 51t-35.5 59.5t-12.5 65.5v30l-179 26v102l179 -27v90h130v-112
l181 -27v-102l-182 27v-11q0 -22 12 -41.5t33.5 -39t52.5 -43.5q25 -19 46.5 -43.5t35 -56t13.5 -71.5q0 -60 -31 -106t-88.5 -72t-137.5 -26z" />
    <glyph glyph-name="uni1CB0" unicode="&#x1cb0;" horiz-adv-x="609" 
d="M300 -10q-81 0 -138 24.5t-86.5 63.5t-29.5 84q0 8 1.5 18t3.5 21h126q-1 -4 -1.5 -10t-0.5 -11q0 -22 12.5 -42t39.5 -33t72 -13q64 0 92.5 19.5t28.5 45.5q0 28 -24.5 48t-88.5 20h-49v99h72q33 0 56 9.5t23 37.5q0 25 -22.5 35.5t-56.5 10.5h-72v100h70q33 0 47 9.5
t14 23.5q0 18 -20 27t-51 19q-23 8 -46 22t-37.5 37.5t-13.5 58.5h130q3 -21 23.5 -31.5t54.5 -23.5q25 -9 46.5 -22.5t36 -33t14.5 -47.5q0 -22 -9 -39t-29 -29t-52 -17v-3q28 -1 52 -13t39.5 -32.5t15.5 -51.5q0 -48 -30.5 -69t-75.5 -28v-3q35 -6 61.5 -22.5t41 -42
t14.5 -58.5q0 -50 -33 -85t-90.5 -54t-130.5 -19z" />
    <glyph glyph-name="uni1CB1" unicode="&#x1cb1;" horiz-adv-x="725" 
d="M405 -10q-113 0 -191.5 42t-119 127.5t-40.5 217.5q0 57 10.5 116t29 115.5t44.5 105.5h130q-24 -52 -42.5 -107t-28.5 -112.5t-10 -117.5q0 -93 23.5 -156t72 -95t122.5 -32q64 0 98 18t34 48q0 27 -24 46.5t-79 19.5h-59v98h68q23 0 41.5 3.5t30 14t11.5 30.5
q0 25 -23.5 34.5t-64.5 9.5h-63v100h68q25 0 39 5t19.5 13.5t5.5 17.5q0 18 -13.5 30t-29.5 22q-16 11 -31 25.5t-24 35t-6 49.5h130q1 -13 8 -24t18 -19.5t22 -16.5q24 -16 43 -38.5t19 -59.5q0 -34 -20 -55t-67 -30v-3q29 -1 53 -14t38 -34t14 -49q0 -45 -28 -68.5
t-75 -30.5v-2q36 -6 61.5 -21t38.5 -39.5t13 -60.5q0 -46 -33.5 -81.5t-93.5 -56.5t-139 -21z" />
    <glyph glyph-name="uni1CB2" unicode="&#x1cb2;" horiz-adv-x="635" 
d="M84 0v109q29 1 60 6t67 17v2q-50 38 -85 87t-53.5 106t-18.5 120q0 91 35 152.5t95 93t133 31.5q75 0 134.5 -31.5t94.5 -93t35 -152.5q0 -63 -18 -120t-53 -106t-85 -87v-2q34 -12 65 -17t62 -6v-109q-64 2 -123.5 17t-111.5 40q-53 -25 -111 -40t-122 -17zM317 181
q38 28 67 67t45.5 89t16.5 111q0 81 -34.5 124.5t-94.5 43.5q-58 0 -93 -43.5t-35 -124.5q0 -60 16.5 -110t45.5 -89t66 -68z" />
    <glyph glyph-name="uni1CB3" unicode="&#x1cb3;" horiz-adv-x="623" 
d="M312 -10q-83 0 -142 27.5t-90.5 75t-31.5 106.5q0 20 3 38t9 36h129q-4 -17 -6 -31.5t-2 -28.5q0 -54 33 -86.5t99 -32.5q44 0 72 17t41.5 45t13.5 62q0 41 -17 70t-48.5 44t-77.5 15h-76v90l166 173h-300v104h463v-90l-184 -184q54 -7 101.5 -34t77.5 -74.5t30 -116.5
q0 -67 -32 -118t-90.5 -79t-140.5 -28z" />
    <glyph glyph-name="uni1CB4" unicode="&#x1cb4;" horiz-adv-x="605" 
d="M302 -10q-81 0 -138 24.5t-86.5 63.5t-29.5 84q0 8 1.5 18t3.5 21h126q-1 -4 -1.5 -10t-0.5 -11q0 -22 12.5 -42t39.5 -33t73 -13q63 0 91.5 19.5t28.5 45.5q0 28 -24.5 48t-87.5 20h-47v99h69q33 0 55.5 9t22.5 32q0 18 -13.5 27.5t-36 16.5t-49.5 15q-31 9 -63.5 20
t-60.5 29t-45 45.5t-17 69.5q0 40 25 70.5t70.5 48t107.5 17.5q45 0 87.5 -10t81.5 -33l-44 -92q-28 15 -59 24t-67 9t-56 -9.5t-20 -25.5t11 -25.5t34.5 -16.5t59.5 -17q33 -8 66 -19.5t61 -28.5t45 -42.5t17 -63.5q0 -42 -30 -66.5t-76 -33.5v-3q35 -6 61.5 -22.5t41 -42
t14.5 -58.5q0 -50 -33 -85t-90.5 -54t-130.5 -19z" />
    <glyph glyph-name="uni1CB5" unicode="&#x1cb5;" horiz-adv-x="696" 
d="M304 -10q-119 0 -184.5 45t-65.5 125q0 52 28.5 88.5t81.5 55.5t125 19h134v80h-146q-101 0 -157.5 40.5t-56.5 116.5t65 120t179 44q78 0 133 -21.5t84 -63.5t29 -103v-36h108v-97h-108v-80h108v-96h-108v-37q0 -64 -28.5 -109t-84.5 -68t-136 -23zM306 88
q44 0 69.5 13.5t36.5 36.5t11 51v38h-129q-30 0 -54 -7t-38 -21.5t-14 -38.5q0 -35 32 -53.5t86 -18.5zM289 500h134v35q0 42 -27.5 66.5t-88.5 24.5q-54 0 -82.5 -17t-28.5 -49q0 -21 11.5 -34t32.5 -19.5t49 -6.5z" />
    <glyph glyph-name="uni1CB6" unicode="&#x1cb6;" horiz-adv-x="852" 
d="M485 724v-88q117 -3 185.5 -39.5t98 -96t29.5 -130.5q0 -46 -15 -93.5t-51 -86.5t-96 -63.5t-151 -26.5v-110h-118v110q-92 2 -152.5 27t-96 64.5t-50 86.5t-14.5 92q0 52 16.5 99.5t53 84t96.5 58.5t147 24v88h118zM367 534q-71 -3 -112.5 -24t-59.5 -56.5t-18 -82.5
q0 -50 20 -87.5t62 -58.5t108 -24v333zM485 534v-333q67 3 109 24.5t61.5 58.5t19.5 87q0 47 -17.5 82.5t-59.5 56.5t-113 24z" />
    <glyph glyph-name="uni1CB7" unicode="&#x1cb7;" horiz-adv-x="602" 
d="M300 -10q-74 0 -131 25t-89 70.5t-32 107.5q0 50 17.5 86t47 61.5t67 43.5t76.5 34q50 20 83 37t49 36.5t16 46.5q0 40 -27.5 61.5t-72.5 21.5q-55 0 -79.5 -22.5t-24.5 -58.5q0 -5 0.5 -11t1.5 -10h-130q-1 7 -2 15.5t-1 15.5q0 51 28 90t80 61.5t124 22.5t125 -23
t82 -65.5t29 -101.5q0 -44 -15 -76t-43 -56.5t-66 -44.5t-84 -39q-44 -17 -77 -35t-51.5 -39.5t-18.5 -52.5q0 -46 33.5 -72t86.5 -26q37 0 63.5 11.5t41 34.5t14.5 55q0 9 -0.5 18t-2.5 16h131q2 -10 3.5 -21t1.5 -22q0 -65 -31.5 -108t-88.5 -65t-134 -22z" />
    <glyph glyph-name="uni1CB8" unicode="&#x1cb8;" horiz-adv-x="634" 
d="M325 -10q-81 0 -137.5 29t-86 83t-29.5 131v481h128v-132q0 -48 15.5 -80t45 -48.5t72.5 -16.5q35 0 59.5 15.5t38 44t13.5 65.5q0 48 -8 82t-22 70h131q15 -31 24.5 -70.5t9.5 -85.5q0 -73 -26.5 -124t-74.5 -77.5t-112 -26.5q-56 0 -99.5 21t-67.5 54h-3
q2 -14 2.5 -28.5t1 -28t0.5 -27.5v-89q0 -40 12.5 -71t40 -49t72.5 -18q59 0 90.5 32.5t31.5 86.5q0 14 -1.5 28.5t-6.5 31.5h129q6 -19 9 -37.5t3 -36.5q0 -59 -31.5 -106.5t-88.5 -75t-135 -27.5z" />
    <glyph glyph-name="uni1CB9" unicode="&#x1cb9;" horiz-adv-x="621" 
d="M311 723q54 0 101.5 -17t83 -49.5t56 -79t20.5 -105.5q0 -78 -30.5 -130.5t-85 -81.5t-127.5 -36q-54 -5 -77.5 -23t-23.5 -50q0 -29 22 -46t60 -17q39 0 61 18.5t22 48.5q0 6 -0.5 12.5t-2.5 13.5h127q3 -13 4 -23.5t1 -19.5q0 -44 -27 -77.5t-74.5 -52t-110.5 -18.5
q-64 0 -111.5 19t-73.5 54t-26 79q0 38 19.5 69.5t66.5 47.5v4q-59 20 -98 72t-39 137q0 59 19.5 105.5t55 79t83.5 49.5t105 17zM309 615q-37 0 -65.5 -18t-44.5 -51t-16 -74q0 -45 16 -77t44.5 -49t66.5 -17q39 0 67.5 17.5t44.5 49.5t16 76q0 41 -16 73.5t-44.5 51
t-68.5 18.5z" />
    <glyph glyph-name="uni1CBA" unicode="&#x1cba;" horiz-adv-x="547" 
d="M113 -9v123l122 49v3q-50 12 -91.5 46t-65.5 89t-24 127q0 68 20 122.5t57 93t89 59.5t116 21q51 0 98.5 -12.5t82.5 -32.5l-46 -103q-33 17 -63 26.5t-66 9.5q-35 0 -63.5 -12.5t-48 -37t-30 -60t-10.5 -80.5q0 -61 18.5 -103t53 -63.5t82.5 -21.5q44 0 76.5 10t74.5 29
v-124z" />
    <glyph glyph-name="uni1CBD" unicode="&#x1cbd;" horiz-adv-x="602" 
d="M301 -10q-76 0 -132.5 22t-88.5 65t-32 108q0 11 1.5 22t4.5 21h130q-1 -7 -2 -16t-1 -18q0 -32 14.5 -55t41.5 -34.5t64 -11.5q54 0 86.5 26t32.5 72q0 31 -20 52t-53.5 37t-73.5 32q-44 19 -82 38.5t-66.5 45t-44 59.5t-15.5 79q0 59 29.5 101.5t82.5 65.5t124 23
q73 0 125 -22.5t79.5 -61.5t27.5 -90q0 -7 -1 -15t-3 -16h-128q1 5 1.5 10.5t0.5 10.5q0 36 -24.5 58.5t-80.5 22.5q-44 0 -72.5 -21.5t-28.5 -61.5q0 -31 18 -52t52 -38.5t80 -36.5q39 -16 76 -33.5t66.5 -41.5t47 -58t17.5 -82q0 -63 -32 -109.5t-88.5 -71.5t-132.5 -25z
" />
    <glyph glyph-name="uni1CBE" unicode="&#x1cbe;" horiz-adv-x="635" 
d="M84 714q64 -2 122 -17t111 -40q52 25 111.5 40t123.5 17v-109q-31 -1 -62 -6t-65 -17v-2q50 -38 85 -86.5t53 -106t18 -120.5q0 -90 -35 -152t-94.5 -93.5t-134.5 -31.5q-73 0 -133 31.5t-95 93.5t-35 152q0 63 18.5 120.5t53.5 106t85 86.5v2q-36 12 -67 17t-60 6v109z
M317 533q-37 -28 -66 -67.5t-45.5 -89t-16.5 -110.5q0 -81 35 -124.5t93 -43.5q60 0 94.5 44t34.5 124q0 61 -16.5 111t-45.5 89t-67 67z" />
    <glyph glyph-name="uni1CBF" unicode="&#x1cbf;" horiz-adv-x="664" 
d="M332 -10q-136 0 -204.5 93.5t-68.5 273.5q0 122 30.5 203.5t91.5 122.5t151 41q136 0 205 -93t69 -274q0 -121 -31.5 -203t-92 -123t-150.5 -41zM332 98q72 0 105.5 63t33.5 196q0 90 -15.5 147.5t-46 84.5t-77.5 27q-71 0 -105 -63t-34 -196q0 -90 15.5 -147.5t46 -84.5
t77.5 -27z" />
    <glyph glyph-name="Wgrave" unicode="&#x1e80;" horiz-adv-x="953" 
d="M948 714l-185 -714h-141l-113 410q-4 15 -9 37t-10.5 45.5t-9.5 44t-5 30.5q-1 -10 -5 -30.5t-9 -44t-10 -46t-10 -38.5l-110 -408h-142l-184 714h128l98 -407q5 -20 10 -43.5t10 -48t9 -48t6 -41.5q2 19 6 42.5t9 48t10 47t10 38.5l112 412h124l114 -413
q5 -17 10.5 -39.5t10.5 -47t8.5 -47.5t6.5 -41q3 25 8.5 57t13 65t13.5 59l98 407h128zM459 938q13 -22 32 -49.5t39.5 -53t35.5 -44.5v-13h-83q-19 13 -42.5 32.5t-48 41.5t-45 42t-32.5 34v10h144z" />
    <glyph glyph-name="wgrave" unicode="&#x1e81;" horiz-adv-x="830" 
d="M465 233q-5 19 -12 47.5t-14.5 59.5t-14 57t-8.5 40h-4q-3 -14 -9 -40t-13 -57t-14.5 -60t-12.5 -48l-63 -232h-138l-152 543h127l67 -259q7 -26 13.5 -59t11.5 -63.5t7 -49.5h4q2 13 5 34.5t7.5 45t9 43.5t7.5 31l78 277h138l75 -277q5 -18 11 -47t11 -58t6 -48h4
q2 17 7 46.5t12 63.5t15 61l68 259h125l-154 -543h-140zM397 766q13 -22 32 -49.5t39.5 -53t35.5 -44.5v-13h-83q-19 13 -42.5 32.5t-48 41.5t-45 42t-32.5 34v10h144z" />
    <glyph glyph-name="Wacute" unicode="&#x1e82;" horiz-adv-x="953" 
d="M948 714l-185 -714h-141l-113 410q-4 15 -9 37t-10.5 45.5t-9.5 44t-5 30.5q-1 -10 -5 -30.5t-9 -44t-10 -46t-10 -38.5l-110 -408h-142l-184 714h128l98 -407q5 -20 10 -43.5t10 -48t9 -48t6 -41.5q2 19 6 42.5t9 48t10 47t10 38.5l112 412h124l114 -413
q5 -17 10.5 -39.5t10.5 -47t8.5 -47.5t6.5 -41q3 25 8.5 57t13 65t13.5 59l98 407h128zM866 938v-10q-12 -14 -33 -34t-45 -42t-47.5 -41.5t-42.5 -32.5h-84v13q16 19 36 44.5t39.5 53t32.5 49.5h144z" />
    <glyph glyph-name="wacute" unicode="&#x1e83;" horiz-adv-x="830" 
d="M465 233q-5 19 -12 47.5t-14.5 59.5t-14 57t-8.5 40h-4q-3 -14 -9 -40t-13 -57t-14.5 -60t-12.5 -48l-63 -232h-138l-152 543h127l67 -259q7 -26 13.5 -59t11.5 -63.5t7 -49.5h4q2 13 5 34.5t7.5 45t9 43.5t7.5 31l78 277h138l75 -277q5 -18 11 -47t11 -58t6 -48h4
q2 17 7 46.5t12 63.5t15 61l68 259h125l-154 -543h-140zM804 766v-10q-12 -14 -33 -34t-45 -42t-47.5 -41.5t-42.5 -32.5h-84v13q16 19 36 44.5t39.5 53t32.5 49.5h144z" />
    <glyph glyph-name="Wdieresis" unicode="&#x1e84;" horiz-adv-x="953" 
d="M948 714l-185 -714h-141l-113 410q-4 15 -9 37t-10.5 45.5t-9.5 44t-5 30.5q-1 -10 -5 -30.5t-9 -44t-10 -46t-10 -38.5l-110 -408h-142l-184 714h128l98 -407q5 -20 10 -43.5t10 -48t9 -48t6 -41.5q2 19 6 42.5t9 48t10 47t10 38.5l112 412h124l114 -413
q5 -17 10.5 -39.5t10.5 -47t8.5 -47.5t6.5 -41q3 25 8.5 57t13 65t13.5 59l98 407h128zM320 844q0 31 17.5 45t42.5 14q24 0 42.5 -13.5t18.5 -45.5q0 -30 -18.5 -44.5t-42.5 -14.5q-25 0 -42.5 14.5t-17.5 44.5zM513 844q0 31 18 45t43 14q24 0 42 -13.5t18 -45.5
q0 -30 -18 -44.5t-42 -14.5q-25 0 -43 14.5t-18 44.5z" />
    <glyph glyph-name="wdieresis" unicode="&#x1e85;" horiz-adv-x="830" 
d="M465 233q-5 19 -12 47.5t-14.5 59.5t-14 57t-8.5 40h-4q-3 -14 -9 -40t-13 -57t-14.5 -60t-12.5 -48l-63 -232h-138l-152 543h127l67 -259q7 -26 13.5 -59t11.5 -63.5t7 -49.5h4q2 13 5 34.5t7.5 45t9 43.5t7.5 31l78 277h138l75 -277q5 -18 11 -47t11 -58t6 -48h4
q2 17 7 46.5t12 63.5t15 61l68 259h125l-154 -543h-140zM258 672q0 31 17.5 45t42.5 14q24 0 42.5 -13.5t18.5 -45.5q0 -30 -18.5 -44.5t-42.5 -14.5q-25 0 -42.5 14.5t-17.5 44.5zM451 672q0 31 18 45t43 14q24 0 42 -13.5t18 -45.5q0 -30 -18 -44.5t-42 -14.5
q-25 0 -43 14.5t-18 44.5z" />
    <glyph glyph-name="uni1E9E" unicode="&#x1e9e;" horiz-adv-x="743" 
d="M372 724q76 0 131 -22.5t89.5 -64t47.5 -98.5l-123 -125q58 -7 101.5 -32t68 -68t24.5 -104q0 -65 -27.5 -114.5t-84.5 -77.5t-146 -28q-53 0 -98.5 9t-86.5 29v110q40 -22 85.5 -33.5t84.5 -11.5q77 0 110 32t33 87q0 53 -37.5 81.5t-119.5 28.5h-51v90l130 134
q-12 25 -30.5 40t-44 22t-59.5 7q-54 0 -88 -19t-50 -57t-16 -93v-446h-128v456q0 83 33.5 143t97.5 92.5t154 32.5z" />
    <glyph glyph-name="Ygrave" unicode="&#x1ef2;" horiz-adv-x="602" 
d="M301 399l163 315h138l-237 -436v-278h-128v273l-237 441h139zM283 938q13 -22 32 -49.5t39.5 -53t35.5 -44.5v-13h-83q-19 13 -42.5 32.5t-48 41.5t-45 42t-32.5 34v10h144z" />
    <glyph glyph-name="ygrave" unicode="&#x1ef3;" horiz-adv-x="547" 
d="M0 542h137l108 -306q7 -20 12.5 -38.5t9.5 -37.5t6 -38h4q4 25 12.5 55t17.5 59l104 306h136l-231 -614q-20 -53 -50.5 -91t-72 -57.5t-93.5 -19.5q-24 0 -42.5 2.5t-32.5 5.5v100q11 -2 26.5 -4t32.5 -2q31 0 53.5 12.5t38 34.5t25.5 49l16 44zM256 766q13 -22 32 -49.5
t39.5 -53t35.5 -44.5v-13h-83q-19 13 -42.5 32.5t-48 41.5t-45 42t-32.5 34v10h144z" />
    <glyph glyph-name="uni2010" unicode="&#x2010;" horiz-adv-x="322" 
d="M34 215v106h254v-106h-254z" />
    <glyph glyph-name="endash" unicode="&#x2013;" horiz-adv-x="500" 
d="M40 219v99h420v-99h-420z" />
    <glyph glyph-name="emdash" unicode="&#x2014;" horiz-adv-x="1000" 
d="M40 219v99h920v-99h-920z" />
    <glyph glyph-name="quoteleft" unicode="&#x2018;" horiz-adv-x="201" 
d="M12 480q9 36 23 76t30.5 81t32.5 77h91q-9 -39 -18.5 -82.5t-17.5 -85.5t-13 -77h-121z" />
    <glyph glyph-name="quoteright" unicode="&#x2019;" horiz-adv-x="201" 
d="M189 703q-9 -35 -23 -75.5t-30 -81t-33 -77.5h-91q7 29 14.5 61t13.5 64.5t11.5 63t9.5 56.5h121z" />
    <glyph glyph-name="quotesinglbase" unicode="&#x201a;" horiz-adv-x="272" 
d="M208 105q-9 -35 -23 -75.5t-30 -81t-33 -77.5h-91q7 29 14.5 61t13.5 64.5t11.5 63t9.5 56.5h121z" />
    <glyph glyph-name="quotedblleft" unicode="&#x201c;" horiz-adv-x="413" 
d="M401 714q-9 -39 -19 -83t-18 -85.5t-13 -76.5h-121l-7 11q9 36 23 76t30.5 81t32.5 77h92zM189 714q-9 -39 -19 -83t-18 -85.5t-13 -76.5h-120l-7 11q9 36 23 76t30.5 81t32.5 77h91z" />
    <glyph glyph-name="quotedblright" unicode="&#x201d;" horiz-adv-x="413" 
d="M401 703q-9 -35 -23 -75.5t-30.5 -81t-32.5 -77.5h-92q10 39 19 82.5t17.5 85.5t13.5 77h121zM189 703q-9 -35 -23 -75.5t-30.5 -81t-32.5 -77.5h-91q7 29 14 61t13.5 64.5t12 63t9.5 56.5h121z" />
    <glyph glyph-name="quotedblbase" unicode="&#x201e;" horiz-adv-x="476" 
d="M420 105q-9 -35 -23 -75.5t-30.5 -81t-32.5 -77.5h-92q10 39 19 82.5t17.5 85.5t13.5 77h121zM208 105q-9 -35 -23 -75.5t-30.5 -81t-32.5 -77.5h-91q7 29 14 61t13.5 64.5t12 63t9.5 56.5h121z" />
    <glyph glyph-name="bullet" unicode="&#x2022;" horiz-adv-x="376" 
d="M59 365q0 52 17 83.5t46.5 45.5t65.5 14t65 -14t46.5 -45.5t17.5 -83.5q0 -51 -17.5 -82.5t-46.5 -46t-65 -14.5t-65.5 14.5t-46.5 46t-17 82.5z" />
    <glyph glyph-name="ellipsis" unicode="&#x2026;" horiz-adv-x="831" 
d="M63 64q0 42 22 59.5t54 17.5t54.5 -17t22.5 -60q0 -41 -22.5 -59t-54.5 -18t-54 18t-22 59zM339 64q0 42 22 59.5t54 17.5t54.5 -17t22.5 -60q0 -41 -22.5 -59t-54.5 -18t-54 18t-22 59zM615 64q0 42 22 59.5t54 17.5t54.5 -17t22.5 -60q0 -41 -22.5 -59t-54.5 -18
t-54 18t-22 59z" />
    <glyph glyph-name="guilsinglleft" unicode="&#x2039;" horiz-adv-x="346" 
d="M40 276l176 214l91 -49l-138 -171l138 -170l-91 -50l-176 213v13z" />
    <glyph glyph-name="guilsinglright" unicode="&#x203a;" horiz-adv-x="346" 
d="M130 490l176 -214v-13l-176 -213l-90 50l137 170l-137 171z" />
    <glyph glyph-name="Euro" unicode="&#x20ac;" 
d="M387 721q50 0 92.5 -10.5t82.5 -32.5l-44 -97q-31 15 -63.5 25t-67.5 10q-32 0 -59 -9.5t-47.5 -29t-35 -49t-21.5 -67.5h215v-78h-222q0 -7 -0.5 -14.5t-0.5 -16.5v-16.5t1 -17.5h191v-79h-183q10 -45 32 -76.5t57.5 -48t82.5 -16.5q38 0 74 8t65 21v-107
q-29 -13 -64.5 -21.5t-82.5 -8.5q-79 0 -138.5 29.5t-97.5 85.5t-52 134h-72v79h63q-1 7 -1.5 16t-0.5 18t0.5 17.5t0.5 13.5h-62v78h70q13 80 51 138.5t98.5 90t138.5 31.5z" />
    <glyph glyph-name="uni20BE" unicode="&#x20be;" horiz-adv-x="779" 
d="M101 0v90l97 10v3q-48 29 -79 71t-45.5 93t-14.5 107q0 97 38.5 171.5t113 117t182.5 42.5q110 0 183.5 -44.5t111 -124.5t37.5 -190h-130q0 85 -20 144t-64.5 89.5t-117.5 30.5q-72 0 -117 -29.5t-66 -85.5t-21 -135q0 -77 28 -134.5t79 -89t119 -31.5h267v-105h-581z
M290 346v424h70v-424h-70zM426 346v424h70v-424h-70z" />
    <glyph glyph-name="trademark" unicode="&#x2122;" horiz-adv-x="773" 
d="M325 362v352h94l94 -271l97 271h91v-352h-64v204q0 8 1 31.5t2 35.5h-4l-101 -271h-53l-96 271h-4q1 -16 2 -36t1 -26v-209h-60zM118 362v298h-101v54h266v-54h-102v-298h-63z" />
    <glyph glyph-name="minus" unicode="&#x2212;" horiz-adv-x="322" 
d="M34 215v106h254v-106h-254z" />
    <glyph glyph-name="uni2D00" unicode="&#x2d00;" horiz-adv-x="715" 
d="M365 0q-70 0 -115.5 17.5t-68.5 56.5t-23 103v198q0 38 -16.5 52.5t-46.5 14.5h-78v100h148q36 0 64.5 -15.5t44.5 -57.5h6q18 28 43.5 46.5t57.5 27.5t68 9q92 0 143 -47t51 -152v-106h-125v81q0 61 -24.5 91.5t-76.5 30.5q-50 0 -79.5 -21t-41.5 -60t-12 -93v-88
q0 -47 24 -67.5t78 -20.5h224v-100h-245z" />
    <glyph glyph-name="uni2D01" unicode="&#x2d01;" horiz-adv-x="669" 
d="M349 -250q-48 0 -88.5 3.5t-75.5 11.5t-69 20v108q48 -19 101.5 -30t116.5 -11q61 0 101 11t60.5 33.5t20.5 54.5q0 25 -6.5 43.5t-15.5 32.5q-12 16 -20 33t-12 36h-5q-19 -39 -48.5 -62t-65 -33.5t-74.5 -10.5q-60 0 -104 21t-67 64.5t-23 112.5v354h126v-329
q0 -61 24 -91t76 -30q72 0 102.5 45t30.5 140v265h126v-361q0 -34 11 -58.5t26 -46.5q18 -26 31.5 -55.5t13.5 -76.5q0 -65 -36 -107.5t-101.5 -64.5t-155.5 -22z" />
    <glyph glyph-name="uni2D02" unicode="&#x2d02;" horiz-adv-x="675" 
d="M354 -250q-48 0 -88.5 3.5t-75.5 11.5t-69 20v108q48 -19 101.5 -30t116.5 -11q61 0 101.5 11t61 34t20.5 58q0 27 -10.5 48.5t-26.5 41.5q-17 24 -31 54.5t-14 77.5v151q0 61 -24.5 91.5t-76.5 30.5q-76 0 -104 -47.5t-28 -137.5v-265h-126v542h97l18 -73h6
q18 28 43.5 46.5t57.5 27.5t68 9q92 0 143 -47t51 -152v-166q0 -35 11 -58.5t27 -46.5q18 -25 31.5 -56.5t13.5 -81.5q0 -65 -36 -107.5t-102 -64.5t-156 -22z" />
    <glyph glyph-name="uni2D03" unicode="&#x2d03;" horiz-adv-x="614" 
d="M305 -10q-77 0 -135 31t-89.5 89.5t-31.5 139.5q0 49 13.5 90.5t39.5 75t63.5 59.5t86.5 44q-13 21 -19.5 51t-6.5 67v21h-154v102h465v-102h-188v-20q0 -29 6.5 -51.5t23 -41.5t43.5 -40q52 -38 83 -76t45.5 -82t14.5 -105q0 -82 -31.5 -138t-90 -85t-138.5 -29zM305 92
q62 0 96.5 37.5t34.5 116.5q0 36 -9 65t-28 54t-50 50q-12 10 -22 19.5t-15 16.5q-32 -12 -57 -30.5t-42 -42.5t-26 -55t-9 -71q0 -79 34.5 -119.5t92.5 -40.5z" />
    <glyph glyph-name="uni2D04" unicode="&#x2d04;" horiz-adv-x="642" 
d="M371 552q91 0 142.5 -47t51.5 -152v-593h-126v568q0 62 -24 92t-76 30q-76 0 -104 -47.5t-28 -137.5v-265h-126v542h97l18 -71h7q18 28 44 46t58 26.5t66 8.5z" />
    <glyph glyph-name="uni2D05" unicode="&#x2d05;" horiz-adv-x="964" 
d="M702 552q92 0 138.5 -47t46.5 -152v-353h-126v329q0 60 -22 90.5t-70 30.5q-66 0 -94 -43t-28 -125v-522h-126v569q0 40 -10 67t-30.5 40.5t-52.5 13.5q-45 0 -72 -21.5t-38 -62.5t-11 -101v-265h-126v542h97l18 -71h7q17 28 41.5 46t55 26.5t61.5 8.5q61 0 103 -20.5
t63 -63.5h10q25 44 70.5 64t94.5 20z" />
    <glyph glyph-name="uni2D06" unicode="&#x2d06;" horiz-adv-x="703" 
d="M442 552q99 0 155.5 -73t56.5 -207q0 -90 -28 -153.5t-84 -96t-137 -32.5q-121 0 -184 72t-63 211v319q0 38 -15.5 53t-47.5 15h-78v100h132q49 0 78.5 -17.5t43 -47t13.5 -65.5v-50q0 -27 -2 -54t-4 -55h6q24 38 63.5 59.5t94.5 21.5zM406 92q42 0 68 21.5t38.5 62
t12.5 96.5q0 89 -30 133.5t-88 44.5q-42 0 -69.5 -16.5t-40.5 -52t-13 -93.5v-19q0 -87 28.5 -132t93.5 -45z" />
    <glyph glyph-name="uni2D07" unicode="&#x2d07;" horiz-adv-x="961" 
d="M263 -10q-62 0 -103 21t-62 64.5t-21 112.5v354h98l17 -71h7q16 26 39.5 44t54 27.5t65.5 9.5q62 0 104.5 -22t63.5 -67h5q23 44 68 66.5t99 22.5q94 0 140 -48t46 -151v-353h-126v329q0 61 -22.5 91t-69.5 30q-62 0 -92.5 -40.5t-30.5 -127.5v-282h-97l-18 70h-6
q-14 -24 -38 -42t-54.5 -28t-66.5 -10zM295 92q64 0 93.5 43.5t29.5 141.5v52q0 40 -10 67t-30.5 40.5t-52.5 13.5q-42 0 -69 -19t-40 -59.5t-13 -106.5v-52q0 -61 23 -91t69 -30z" />
    <glyph glyph-name="uni2D08" unicode="&#x2d08;" horiz-adv-x="456" 
d="M254 0v337q0 55 -22.5 79t-74.5 24h-140v102h157q75 0 120.5 -20t65.5 -63.5t20 -114.5v-344h-126z" />
    <glyph glyph-name="uni2D09" unicode="&#x2d09;" horiz-adv-x="647" 
d="M444 -240v202q0 26 1.5 53.5t4.5 55.5h-6q-24 -39 -63.5 -60t-95.5 -21q-98 0 -153 73.5t-55 207.5v489h126v-180q0 -27 -1.5 -54t-4.5 -55h6q25 38 64.5 59.5t94.5 21.5q99 0 153.5 -73.5t54.5 -207.5v-511h-126zM321 92q42 0 69.5 16.5t40.5 53.5t13 95v19q0 58 -13 96
t-39.5 58t-65.5 20q-41 0 -68.5 -16.5t-41 -53t-13.5 -97.5v-18q0 -85 30 -129t88 -44z" />
    <glyph glyph-name="uni2D0A" unicode="&#x2d0a;" horiz-adv-x="964" 
d="M606 -10q-61 0 -102.5 21t-62 64.5t-20.5 112.5v141q0 40 -9.5 67t-30 40.5t-53.5 13.5q-42 0 -69 -19t-39.5 -59.5t-12.5 -106.5v-265h-126v542h97l18 -71h7q15 25 38.5 43.5t54 28t65.5 9.5q62 0 104.5 -21.5t63.5 -67.5h5q24 44 68.5 66.5t99.5 22.5q92 0 138.5 -47
t46.5 -152v-353h-97l-18 70h-7q-15 -25 -39 -43t-54 -27.5t-66 -9.5zM639 92q64 0 93 43t29 142v52q0 61 -22.5 91t-69.5 30q-62 0 -92 -40.5t-30 -127.5v-69q0 -61 22 -91t70 -30z" />
    <glyph glyph-name="uni2D0B" unicode="&#x2d0b;" horiz-adv-x="622" 
d="M297 -10q-79 0 -134.5 33.5t-84.5 96t-29 149.5q0 139 58 206t177 67h136v34q0 28 -9 46t-27.5 26.5t-47.5 8.5h-223v103h238q66 0 109 -19.5t64.5 -59.5t21.5 -102v-309q0 -141 -61.5 -210.5t-187.5 -69.5zM299 92q68 0 94.5 45t26.5 130v173h-121q-46 0 -72.5 -18
t-38 -55.5t-11.5 -96.5q0 -88 31 -133t91 -45z" />
    <glyph glyph-name="uni2D0C" unicode="&#x2d0c;" horiz-adv-x="639" 
d="M77 0v563q0 68 22.5 111.5t68 64.5t115.5 21h257v-103h-245q-50 0 -71 -21.5t-21 -72.5v-20q0 -15 -1.5 -35.5t-4.5 -36.5h7q17 26 40.5 44t54 27.5t67.5 9.5q65 0 108.5 -22t65.5 -66t22 -111v-353h-126v328q0 61 -24.5 91.5t-75.5 30.5q-46 0 -75.5 -19t-43.5 -59.5
t-14 -106.5v-265h-126z" />
    <glyph glyph-name="uni2D0D" unicode="&#x2d0d;" horiz-adv-x="964" 
d="M263 -10q-93 0 -139.5 47.5t-46.5 151.5v353h126v-328q0 -61 22.5 -91.5t69.5 -30.5q62 0 92.5 40.5t30.5 127.5v282h125v-329q0 -40 10 -67t30.5 -40.5t52.5 -13.5q42 0 69 19t40 60t13 106v265h126v-542h-98l-18 71h-6q-16 -26 -40 -44t-54 -27.5t-65 -9.5
q-62 0 -104.5 20.5t-63.5 66.5h-5q-23 -43 -68 -65t-99 -22z" />
    <glyph glyph-name="uni2D0E" unicode="&#x2d0e;" horiz-adv-x="724" 
d="M517 542h126v-542h-98l-18 70h-6q-16 -25 -41 -43t-57 -27.5t-71 -9.5q-63 0 -106.5 22t-65.5 66t-22 110v187q0 37 -15.5 52t-47.5 15h-78v100h132q49 0 79 -17.5t43 -47t13 -65.5v-199q0 -61 24 -91t76 -30q70 0 101.5 43t31.5 142v265z" />
    <glyph glyph-name="uni2D0F" unicode="&#x2d0f;" horiz-adv-x="724" 
d="M517 -240v213q0 28 2 49.5t10 47.5h-8q-16 -25 -41 -43t-57 -27.5t-71 -9.5q-63 0 -106.5 22t-65.5 66t-22 110v187q0 37 -15.5 52t-47.5 15h-78v100h132q49 0 79 -17.5t43 -47t13 -65.5v-199q0 -61 24 -91t76 -30q70 0 101.5 43t31.5 142v265h126v-782h-126z" />
    <glyph glyph-name="uni2D10" unicode="&#x2d10;" horiz-adv-x="962" 
d="M262 -10q-60 0 -101 21.5t-62.5 66t-21.5 110.5v354h126v-329q0 -60 22.5 -90.5t70.5 -30.5q63 0 92.5 43t29.5 142v483h126v-181q0 -37 -1.5 -64t-5.5 -44h5q16 27 39 44.5t53.5 27t66.5 9.5q60 0 101 -21.5t62 -66t21 -111.5v-353h-126v328q0 61 -22.5 91.5t-69.5 30.5
q-64 0 -93.5 -43t-29.5 -142v-265h-106l-14 70h-4q-16 -26 -40 -44t-54 -27t-64 -9z" />
    <glyph glyph-name="uni2D11" unicode="&#x2d11;" horiz-adv-x="643" 
d="M272 -10q-64 0 -107.5 22t-65.5 66.5t-22 109.5v572h127v-547q0 -61 24 -91t75 -30q47 0 76.5 18.5t43 59.5t13.5 107v265h126v-542h-98l-17 70h-7q-16 -25 -41 -43t-57 -27.5t-70 -9.5z" />
    <glyph glyph-name="uni2D12" unicode="&#x2d12;" horiz-adv-x="626" 
d="M364 552q100 0 156.5 -75t56.5 -207t-56 -206t-155 -74q-51 0 -91 19.5t-68 61.5h-4q1 -12 2 -32t1 -35v-24q0 -65 33 -100t95 -35q56 0 109 11t98 31v-104q-44 -18 -92.5 -25.5t-107.5 -7.5q-87 0 -144.5 27t-86.5 79.5t-29 129.5v556h105l12 -70h4q29 40 70 60t92 20z
M330 449q-45 0 -74 -18t-42.5 -57.5t-13.5 -104.5v-19q0 -43 7.5 -73.5t23 -50t40 -28t57.5 -8.5q61 0 90.5 45t29.5 133q0 60 -13 100t-39.5 60.5t-65.5 20.5z" />
    <glyph glyph-name="uni2D13" unicode="&#x2d13;" horiz-adv-x="964" 
d="M758 -240v213q0 18 1 33t3.5 30.5t5.5 34.5h-6q-16 -25 -40.5 -43t-55 -28t-63.5 -10q-62 0 -103 21t-62 63h-10q-24 -39 -67.5 -61.5t-97.5 -22.5q-93 0 -139.5 47.5t-46.5 151.5v353h126v-328q0 -61 22.5 -91.5t69.5 -30.5q62 0 92.5 40.5t30.5 127.5v282h125v-329
q0 -40 10 -67t30.5 -40.5t52.5 -13.5q42 0 69 19t40 60t13 106v483h126v-1000h-126z" />
    <glyph glyph-name="uni2D14" unicode="&#x2d14;" horiz-adv-x="928" 
d="M402 -240v211q0 25 2 54t4 45h-5q-16 -25 -38 -43t-48.5 -27.5t-61.5 -9.5q-95 0 -150.5 73t-55.5 209q0 135 54.5 207.5t148.5 72.5q36 0 63.5 -9.5t48.5 -28t38 -43.5h4l24 71h69l24 -71h5q16 25 37 43.5t49 28t64 9.5q93 0 147.5 -72.5t54.5 -207.5q0 -136 -55.5 -209
t-150.5 -73q-34 0 -61 9.5t-48.5 27.5t-38.5 43h-5q3 -16 5 -45t2 -54v-211h-126zM290 94q62 0 90 42.5t28 136.5v16q0 85 -28.5 123t-88.5 38q-53 0 -83 -43.5t-30 -132.5q0 -88 30 -134t82 -46zM640 94q52 0 81.5 46t29.5 134q0 89 -29.5 132.5t-83.5 43.5q-60 0 -88 -38
t-28 -123v-16q0 -94 27.5 -136.5t90.5 -42.5z" />
    <glyph glyph-name="uni2D15" unicode="&#x2d15;" horiz-adv-x="509" 
d="M191 -240v680h-174v102h174v218h126v-218h175v-102h-175v-680h-126z" />
    <glyph glyph-name="uni2D16" unicode="&#x2d16;" horiz-adv-x="642" 
d="M371 552q91 0 142.5 -47t51.5 -152v-353h-126v328q0 61 -24 91.5t-76 30.5q-76 0 -104 -47.5t-28 -137.5v-265h-126v542h97l18 -71h7q18 28 44 46t58 26.5t66 8.5z" />
    <glyph glyph-name="uni2D17" unicode="&#x2d17;" horiz-adv-x="643" 
d="M436 -240v213q0 28 3 51t9 46h-8q-16 -25 -41 -43t-57 -27.5t-70 -9.5q-64 0 -107.5 22t-65.5 66.5t-22 109.5v354h127v-329q0 -61 24 -91t75 -30q71 0 102 43t31 142v265h126v-782h-126z" />
    <glyph glyph-name="uni2D18" unicode="&#x2d18;" horiz-adv-x="643" 
d="M311 -250q-63 0 -115 8t-94 25v107q44 -19 93 -28.5t105 -9.5q70 0 103 31t33 92v21q0 15 1.5 33t4.5 38h-7q-16 -25 -39.5 -42t-54.5 -26t-69 -9q-64 0 -107.5 22t-65.5 66.5t-22 109.5v354h127v-329q0 -61 24 -91t75 -30q71 0 102 43t31 142v265h126v-541
q0 -131 -60 -191t-191 -60z" />
    <glyph glyph-name="uni2D19" unicode="&#x2d19;" horiz-adv-x="642" 
d="M81 -240v1000h126v-181q0 -27 -1.5 -51t-5.5 -57h8q16 26 40 44t54.5 27.5t66.5 9.5q65 0 108.5 -22t65.5 -66t22 -111v-353h-126v328q0 61 -24.5 91.5t-75.5 30.5q-46 0 -75.5 -19t-43 -59.5t-13.5 -106.5v-505h-126z" />
    <glyph glyph-name="uni2D1A" unicode="&#x2d1a;" horiz-adv-x="642" 
d="M318 -250q-121 0 -179 58.5t-58 178.5v555h97l18 -71h7q17 27 42 45t57 27t69 9q96 0 145 -50t49 -149v-353h-126v328q0 61 -24 91.5t-76 30.5q-69 0 -100.5 -43t-31.5 -142v-287q0 -65 31 -95.5t94 -30.5q56 0 106.5 10.5t95.5 27.5v-107q-45 -17 -99 -25t-117 -8z" />
    <glyph glyph-name="uni2D1B" unicode="&#x2d1b;" horiz-adv-x="945" 
d="M250 -10q-94 0 -147.5 74t-53.5 206q0 133 54 207.5t149 74.5q34 0 62 -8.5t51 -26t40 -44.5h6q-4 23 -6.5 52t-2.5 57v178h126v-181q0 -34 -2.5 -61t-6.5 -47h5q17 26 40.5 44t53.5 27.5t65 9.5q61 0 102 -22t62 -66t21 -111v-353h-126v328q0 61 -22 91.5t-70 30.5
q-64 0 -93 -42.5t-29 -142.5v-265h-98l-23 71h-5q-18 -27 -40.5 -45t-50.5 -27t-61 -9zM289 92q61 0 90 37t29 124v16q0 98 -29 139t-91 41q-53 0 -82 -46.5t-29 -134.5q0 -87 29 -131.5t83 -44.5z" />
    <glyph glyph-name="uni2D1C" unicode="&#x2d1c;" horiz-adv-x="964" 
d="M81 -240v782h97l18 -71h7q15 25 38.5 43.5t54 28t65.5 9.5q62 0 103.5 -21t62.5 -63h10q23 40 66 62t99 22q92 0 138.5 -47.5t46.5 -151.5v-353h-126v329q0 61 -22.5 91t-69.5 30q-62 0 -92 -40.5t-30 -127.5v-282h-126v329q0 40 -9.5 67t-30 40.5t-53.5 13.5
q-42 0 -69 -19t-39.5 -59.5t-12.5 -106.5v-505h-126z" />
    <glyph glyph-name="uni2D1D" unicode="&#x2d1d;" horiz-adv-x="637" 
d="M295 -250q-64 0 -116.5 8t-96.5 27v107q42 -20 93 -30.5t110 -10.5q83 0 118 23.5t35 57.5q0 28 -13 43.5t-38 22t-59 6.5h-247v538h97l18 -73h6q18 28 43.5 46.5t57.5 27.5t68 9q92 0 143 -47t51 -152v-106h-125v81q0 61 -24.5 91.5t-76.5 30.5q-50 0 -79 -21t-41 -60
t-12 -93v-173h142q64 0 112 -17.5t75.5 -55t27.5 -95.5q0 -54 -29 -96t-88.5 -65.5t-151.5 -23.5z" />
    <glyph glyph-name="uni2D1E" unicode="&#x2d1e;" horiz-adv-x="642" 
d="M318 -250q-121 0 -179 57t-58 180v555h126v-265q0 -99 31.5 -142t100.5 -43q52 0 76 30.5t24 91.5v328h126v-350q0 -67 -21.5 -112t-64.5 -67.5t-108 -22.5q-37 0 -68 9t-55 26.5t-40 42.5h-8q5 -22 6 -46t1 -43q0 -68 29 -97.5t96 -29.5q54 0 106.5 10t99.5 28v-107
q-44 -17 -99 -25t-121 -8z" />
    <glyph glyph-name="uni2D1F" unicode="&#x2d1f;" horiz-adv-x="570" 
d="M-61 -240l311 471l-153 214h-77v97h531v-86l-156 -223l169 -233h-141l-98 148l-247 -388h-139zM322 308l94 139h-189z" />
    <glyph glyph-name="uni2D20" unicode="&#x2d20;" horiz-adv-x="969" 
d="M606 -10q-61 0 -102 22t-62 66.5t-21 109.5v140q0 61 -22 91.5t-70 30.5q-43 0 -70 -18.5t-39.5 -59.5t-12.5 -107v-265h-126v542h98l14 -81h5q15 30 38.5 50.5t55.5 30.5t71 10q91 0 137.5 -50t46.5 -149v-140q0 -61 22.5 -91t70.5 -30q64 0 93 43.5t29 141.5v265h126
v-542h-98l-17 70h-7q-15 -24 -38.5 -42t-54.5 -28t-67 -10z" />
    <glyph glyph-name="uni2D21" unicode="&#x2d21;" horiz-adv-x="588" 
d="M81 -240v1000h126v-277h3q14 23 33 38.5t44 23t57 7.5q64 0 99 -32t35 -92q0 -31 12 -46t40 -15h41v-101h-74q-47 0 -79.5 14t-49 41t-16.5 66q0 33 -13.5 48.5t-42.5 15.5t-49 -16.5t-30 -47.5t-10 -77v-550h-126z" />
    <glyph glyph-name="uni2D22" unicode="&#x2d22;" horiz-adv-x="612" 
d="M297 -10q-76 0 -132 27.5t-86 75t-30 105.5q0 15 2 30t6 30h123q-2 -13 -3.5 -24t-1.5 -22q0 -56 33.5 -89.5t88.5 -33.5q45 0 75.5 21t46 61.5t15.5 98.5q0 84 -39.5 129t-124.5 45h-203v98h208q95 0 158.5 -30t96.5 -89.5t33 -150.5q0 -87 -30.5 -150.5t-90 -97.5
t-145.5 -34z" />
    <glyph glyph-name="uni2D23" unicode="&#x2d23;" horiz-adv-x="643" 
d="M436 -240v213q0 28 3 51t9 46h-8q-16 -25 -41 -43t-57 -27.5t-70 -9.5q-64 0 -107.5 22t-65.5 66.5t-22 109.5v354h127v-329q0 -61 24 -91t75 -30q71 0 102 43t31 142v483h126v-1000h-126z" />
    <glyph glyph-name="uni2D24" unicode="&#x2d24;" horiz-adv-x="632" 
d="M253 -240v237q-87 14 -131.5 69t-44.5 149v327h126v-328q0 -57 29.5 -89t83.5 -32t83.5 31.5t29.5 89.5v328h126v-329q0 -91 -46 -146.5t-130 -69.5v-237h-126z" />
    <glyph glyph-name="uni2D25" unicode="&#x2d25;" horiz-adv-x="945" 
d="M683 552q61 0 102 -22t62 -66t21 -111v-353h-126v328q0 61 -22 91.5t-70 30.5q-64 0 -93 -42.5t-29 -142.5v-265h-98l-23 71h-5q-18 -27 -40.5 -45t-50.5 -27t-61 -9q-94 0 -147.5 74t-53.5 206q0 133 54 207.5t149 74.5q34 0 62 -8.5t51 -26t40 -44.5h6q-4 23 -6.5 50.5
t-2.5 45.5v17q1 85 51.5 129.5t154.5 44.5h235v-103h-230q-43 0 -64 -19t-21 -59v-20q0 -19 -2.5 -43.5t-6.5 -44.5h5q17 26 40.5 44t53.5 27.5t65 9.5zM408 253v16q0 98 -29 139t-91 41q-53 0 -82 -46.5t-29 -134.5q0 -87 29 -131.5t83 -44.5q61 0 90 37t29 124z" />
    <glyph glyph-name="uni2D27" unicode="&#x2d27;" horiz-adv-x="553" 
d="M275 -250q-69 0 -121 26.5t-81 74.5t-29 115q0 55 16 96t43.5 71.5t63.5 54.5t76 46q45 25 72 45t38.5 41.5t11.5 49.5q0 36 -22.5 57.5t-64.5 21.5q-46 0 -68 -22t-22 -60q0 -6 1 -12.5t2 -13.5h-124q-2 10 -3 18t-1 17q0 53 26 92.5t73.5 61.5t113.5 22q69 0 117 -22.5
t73.5 -64t25.5 -97.5q0 -53 -21 -91.5t-63 -71t-104 -68.5q-38 -22 -67.5 -44.5t-46.5 -53t-17 -77.5q0 -50 30 -79.5t72 -29.5q46 0 76.5 28.5t30.5 83.5q0 19 -2.5 36t-7.5 29h127q5 -16 7.5 -33.5t2.5 -39.5q0 -70 -30 -116t-83 -68.5t-121 -22.5z" />
    <glyph glyph-name="uni2D2D" unicode="&#x2d2d;" horiz-adv-x="481" 
d="M448 0h-416v77l266 369h-251v96h393v-85l-261 -360h269v-97z" />
    <glyph glyph-name="uni1C900301" horiz-adv-x="614" 
d="M303 -10q-77 0 -134.5 29t-89 82t-31.5 125q0 29 3.5 57t18.5 69h131q-13 -37 -16 -66.5t-3 -50.5q0 -59 30 -98t91 -39q44 0 70.5 19t39 51.5t12.5 74.5q0 46 -12.5 82.5t-31.5 67.5t-41 59q-30 40 -56 77.5t-39.5 82t-5.5 102.5h130q-3 -40 8 -73.5t32.5 -64.5
t45.5 -64q26 -33 50 -71.5t39.5 -86.5t15.5 -110q0 -77 -31 -134t-88 -88.5t-138 -31.5zM451 938v-10q-12 -14 -33 -34t-45 -42t-47.5 -41.5t-42.5 -32.5h-84v13q16 19 36 44.5t39.5 53t32.5 49.5h144z" />
    <glyph glyph-name="uni1C900308" horiz-adv-x="614" 
d="M303 -10q-77 0 -134.5 29t-89 82t-31.5 125q0 29 3.5 57t18.5 69h131q-13 -37 -16 -66.5t-3 -50.5q0 -59 30 -98t91 -39q44 0 70.5 19t39 51.5t12.5 74.5q0 46 -12.5 82.5t-31.5 67.5t-41 59q-30 40 -56 77.5t-39.5 82t-5.5 102.5h130q-3 -40 8 -73.5t32.5 -64.5
t45.5 -64q26 -33 50 -71.5t39.5 -86.5t15.5 -110q0 -77 -31 -134t-88 -88.5t-138 -31.5zM147 844q0 31 17.5 45t42.5 14q24 0 42.5 -13.5t18.5 -45.5q0 -30 -18.5 -44.5t-42.5 -14.5q-25 0 -42.5 14.5t-17.5 44.5zM340 844q0 31 18 45t43 14q24 0 42 -13.5t18 -45.5
q0 -30 -18 -44.5t-42 -14.5q-25 0 -43 14.5t-18 44.5z" />
    <glyph glyph-name="uni1C900304" horiz-adv-x="614" 
d="M303 -10q-77 0 -134.5 29t-89 82t-31.5 125q0 29 3.5 57t18.5 69h131q-13 -37 -16 -66.5t-3 -50.5q0 -59 30 -98t91 -39q44 0 70.5 19t39 51.5t12.5 74.5q0 46 -12.5 82.5t-31.5 67.5t-41 59q-30 40 -56 77.5t-39.5 82t-5.5 102.5h130q-3 -40 8 -73.5t32.5 -64.5
t45.5 -64q26 -33 50 -71.5t39.5 -86.5t15.5 -110q0 -77 -31 -134t-88 -88.5t-138 -31.5zM464 879v-91h-318v91h318z" />
    <glyph glyph-name="uni1C9003040308" horiz-adv-x="614" 
d="M303 -10q-77 0 -134.5 29t-89 82t-31.5 125q0 29 3.5 57t18.5 69h131q-13 -37 -16 -66.5t-3 -50.5q0 -59 30 -98t91 -39q44 0 70.5 19t39 51.5t12.5 74.5q0 46 -12.5 82.5t-31.5 67.5t-41 59q-30 40 -56 77.5t-39.5 82t-5.5 102.5h130q-3 -40 8 -73.5t32.5 -64.5
t45.5 -64q26 -33 50 -71.5t39.5 -86.5t15.5 -110q0 -77 -31 -134t-88 -88.5t-138 -31.5zM464 879v-91h-318v91h318zM147 1008q0 31 17.5 45t42.5 14q24 0 42.5 -13.5t18.5 -45.5q0 -30 -18.5 -44.5t-42.5 -14.5q-25 0 -42.5 14.5t-17.5 44.5zM340 1008q0 31 18 45t43 14
q24 0 42 -13.5t18 -45.5q0 -30 -18 -44.5t-42 -14.5q-25 0 -43 14.5t-18 44.5z" />
    <glyph glyph-name="uni1C940301" horiz-adv-x="626" 
d="M303 -10q-77 0 -134.5 28.5t-89 79t-31.5 114.5q0 25 3.5 47t10.5 41h129q-4 -16 -6.5 -37t-2.5 -39q0 -35 13 -63.5t41 -45.5t68 -17q45 0 71.5 16.5t39 47.5t12.5 71v272q0 53 -30 82t-79 29q-32 0 -57 -11t-38.5 -33.5t-13.5 -55.5q0 -14 2 -30.5t5 -33.5h-130
q-4 16 -7.5 34.5t-3.5 41.5q0 65 32.5 108t87 65.5t121.5 22.5q72 0 125.5 -26t83 -74t29.5 -116v-278q0 -75 -30 -129t-85.5 -82.5t-135.5 -28.5zM457 938v-10q-12 -14 -33 -34t-45 -42t-47.5 -41.5t-42.5 -32.5h-84v13q16 19 36 44.5t39.5 53t32.5 49.5h144z" />
    <glyph glyph-name="uni1C940304" horiz-adv-x="626" 
d="M303 -10q-77 0 -134.5 28.5t-89 79t-31.5 114.5q0 25 3.5 47t10.5 41h129q-4 -16 -6.5 -37t-2.5 -39q0 -35 13 -63.5t41 -45.5t68 -17q45 0 71.5 16.5t39 47.5t12.5 71v272q0 53 -30 82t-79 29q-32 0 -57 -11t-38.5 -33.5t-13.5 -55.5q0 -14 2 -30.5t5 -33.5h-130
q-4 16 -7.5 34.5t-3.5 41.5q0 65 32.5 108t87 65.5t121.5 22.5q72 0 125.5 -26t83 -74t29.5 -116v-278q0 -75 -30 -129t-85.5 -82.5t-135.5 -28.5zM470 879v-91h-318v91h318z" />
    <glyph glyph-name="uni1C980301" horiz-adv-x="640" 
d="M116 0q-17 49 -30 103.5t-20 125t-7 162.5q0 119 34.5 192t93.5 107t133 34t133.5 -34t94 -107t34.5 -192q0 -92 -7.5 -162t-20 -125t-29.5 -104h-131q16 50 28 106.5t18.5 126t6.5 158.5q0 83 -15 132t-44 71t-68 22t-67.5 -21.5t-44 -71t-15.5 -132.5q0 -90 6.5 -159.5
t19 -125.5t27.5 -106h-130zM466 942v-10q-12 -14 -33 -34t-45 -42t-47.5 -41.5t-42.5 -32.5h-84v13q16 19 36 44.5t39.5 53t32.5 49.5h144z" />
    <glyph glyph-name="uni1C980304" horiz-adv-x="640" 
d="M116 0q-17 49 -30 103.5t-20 125t-7 162.5q0 119 34.5 192t93.5 107t133 34t133.5 -34t94 -107t34.5 -192q0 -92 -7.5 -162t-20 -125t-29.5 -104h-131q16 50 28 106.5t18.5 126t6.5 158.5q0 83 -15 132t-44 71t-68 22t-67.5 -21.5t-44 -71t-15.5 -132.5q0 -90 6.5 -159.5
t19 -125.5t27.5 -106h-130zM479 883v-91h-318v91h318z" />
    <glyph glyph-name="uni1C9D0301" horiz-adv-x="916" 
d="M135 0q-18 44 -32 88.5t-24 93t-15 103.5t-5 119q0 116 32.5 186.5t85.5 102t114 31.5q31 0 63.5 -9t60 -32.5t42.5 -65.5h3q16 42 43 65t59.5 32.5t65.5 9.5q60 0 112.5 -32t85 -102.5t32.5 -185.5q0 -89 -10 -158.5t-27 -128t-39 -117.5h-133q22 60 38.5 121.5
t25.5 130.5t9 151q0 79 -14 125.5t-37.5 67t-54.5 20.5t-51 -18t-29.5 -51.5t-9.5 -80.5v-257h-135v257q0 50 -10.5 83.5t-31 50t-51.5 16.5q-28 0 -52.5 -20t-38.5 -66.5t-14 -126.5q0 -81 9 -150t26 -130.5t39 -122.5h-132zM604 938v-10q-12 -14 -33 -34t-45 -42
t-47.5 -41.5t-42.5 -32.5h-84v13q16 19 36 44.5t39.5 53t32.5 49.5h144z" />
    <glyph glyph-name="uni1C9D0308" horiz-adv-x="916" 
d="M135 0q-18 44 -32 88.5t-24 93t-15 103.5t-5 119q0 116 32.5 186.5t85.5 102t114 31.5q31 0 63.5 -9t60 -32.5t42.5 -65.5h3q16 42 43 65t59.5 32.5t65.5 9.5q60 0 112.5 -32t85 -102.5t32.5 -185.5q0 -89 -10 -158.5t-27 -128t-39 -117.5h-133q22 60 38.5 121.5
t25.5 130.5t9 151q0 79 -14 125.5t-37.5 67t-54.5 20.5t-51 -18t-29.5 -51.5t-9.5 -80.5v-257h-135v257q0 50 -10.5 83.5t-31 50t-51.5 16.5q-28 0 -52.5 -20t-38.5 -66.5t-14 -126.5q0 -81 9 -150t26 -130.5t39 -122.5h-132zM300 844q0 31 17.5 45t42.5 14q24 0 42.5 -13.5
t18.5 -45.5q0 -30 -18.5 -44.5t-42.5 -14.5q-25 0 -42.5 14.5t-17.5 44.5zM493 844q0 31 18 45t43 14q24 0 42 -13.5t18 -45.5q0 -30 -18 -44.5t-42 -14.5q-25 0 -43 14.5t-18 44.5z" />
    <glyph glyph-name="uni1C9D0304" horiz-adv-x="900" 
d="M135 0q-18 44 -32 88.5t-24 93t-15 103.5t-5 119q0 116 32.5 186.5t85.5 102t114 31.5q31 0 63.5 -9t60 -32.5t42.5 -65.5h3q16 42 43 65t59.5 32.5t65.5 9.5q60 0 112.5 -32t85 -102.5t32.5 -185.5q0 -89 -10 -158.5t-27 -128t-39 -117.5h-133q22 60 38.5 121.5
t25.5 130.5t9 151q0 79 -14 125.5t-37.5 67t-54.5 20.5t-51 -18t-29.5 -51.5t-9.5 -80.5v-257h-135v257q0 50 -10.5 83.5t-31 50t-51.5 16.5q-28 0 -52.5 -20t-38.5 -66.5t-14 -126.5q0 -81 9 -150t26 -130.5t39 -122.5h-132zM608 885v-91h-318v91h318z" />
    <glyph glyph-name="uni1C9D03040308" horiz-adv-x="916" 
d="M135 0q-18 44 -32 88.5t-24 93t-15 103.5t-5 119q0 116 32.5 186.5t85.5 102t114 31.5q31 0 63.5 -9t60 -32.5t42.5 -65.5h3q16 42 43 65t59.5 32.5t65.5 9.5q60 0 112.5 -32t85 -102.5t32.5 -185.5q0 -89 -10 -158.5t-27 -128t-39 -117.5h-133q22 60 38.5 121.5
t25.5 130.5t9 151q0 79 -14 125.5t-37.5 67t-54.5 20.5t-51 -18t-29.5 -51.5t-9.5 -80.5v-257h-135v257q0 50 -10.5 83.5t-31 50t-51.5 16.5q-28 0 -52.5 -20t-38.5 -66.5t-14 -126.5q0 -81 9 -150t26 -130.5t39 -122.5h-132zM617 879v-91h-318v91h318zM300 1008
q0 31 17.5 45t42.5 14q24 0 42.5 -13.5t18.5 -45.5q0 -30 -18.5 -44.5t-42.5 -14.5q-25 0 -42.5 14.5t-17.5 44.5zM493 1008q0 31 18 45t43 14q24 0 42 -13.5t18 -45.5q0 -30 -18 -44.5t-42 -14.5q-25 0 -43 14.5t-18 44.5z" />
    <glyph glyph-name="uni1CA30301" horiz-adv-x="641" 
d="M316 -10q-77 0 -134 28.5t-88.5 79t-31.5 114.5q0 28 3 48.5t9 39.5h130q-4 -15 -6.5 -35.5t-2.5 -40.5q0 -35 13.5 -63.5t41 -45.5t67.5 -17q44 0 71.5 17t39.5 47.5t12 70.5v302q0 28 -8 46.5t-23 28t-39 9.5q-33 0 -52 -20t-19 -62v-104h-125v104q0 38 -18.5 56.5
t-52.5 18.5h-63v107h65q45 0 80.5 -18t53.5 -63h3q12 29 33.5 48.5t50 28.5t61.5 9q58 0 98.5 -22t61.5 -62t21 -93v-318q0 -75 -29.5 -128.5t-85.5 -82t-137 -28.5zM464 938v-10q-12 -14 -33 -34t-45 -42t-47.5 -41.5t-42.5 -32.5h-84v13q16 19 36 44.5t39.5 53t32.5 49.5
h144z" />
    <glyph glyph-name="uni1CA30302" horiz-adv-x="641" 
d="M316 -10q-77 0 -134 28.5t-88.5 79t-31.5 114.5q0 28 3 48.5t9 39.5h130q-4 -15 -6.5 -35.5t-2.5 -40.5q0 -35 13.5 -63.5t41 -45.5t67.5 -17q44 0 71.5 17t39.5 47.5t12 70.5v302q0 28 -8 46.5t-23 28t-39 9.5q-33 0 -52 -20t-19 -62v-104h-125v104q0 38 -18.5 56.5
t-52.5 18.5h-63v107h65q45 0 80.5 -18t53.5 -63h3q12 29 33.5 48.5t50 28.5t61.5 9q58 0 98.5 -22t61.5 -62t21 -93v-318q0 -75 -29.5 -128.5t-85.5 -82t-137 -28.5zM389 938q13 -22 35.5 -49.5t46.5 -53.5t43 -45v-12h-85q-26 16 -56 38.5t-56 49.5q-27 -27 -55.5 -49
t-54.5 -39h-85v12q19 20 42.5 45.5t46 53t35.5 49.5h143z" />
    <glyph glyph-name="uni1CA30308" horiz-adv-x="641" 
d="M316 -10q-77 0 -134 28.5t-88.5 79t-31.5 114.5q0 28 3 48.5t9 39.5h130q-4 -15 -6.5 -35.5t-2.5 -40.5q0 -35 13.5 -63.5t41 -45.5t67.5 -17q44 0 71.5 17t39.5 47.5t12 70.5v302q0 28 -8 46.5t-23 28t-39 9.5q-33 0 -52 -20t-19 -62v-104h-125v104q0 38 -18.5 56.5
t-52.5 18.5h-63v107h65q45 0 80.5 -18t53.5 -63h3q12 29 33.5 48.5t50 28.5t61.5 9q58 0 98.5 -22t61.5 -62t21 -93v-318q0 -75 -29.5 -128.5t-85.5 -82t-137 -28.5zM160 844q0 31 17.5 45t42.5 14q24 0 42.5 -13.5t18.5 -45.5q0 -30 -18.5 -44.5t-42.5 -14.5
q-25 0 -42.5 14.5t-17.5 44.5zM353 844q0 31 18 45t43 14q24 0 42 -13.5t18 -45.5q0 -30 -18 -44.5t-42 -14.5q-25 0 -43 14.5t-18 44.5z" />
    <glyph glyph-name="uni1CA30304" horiz-adv-x="625" 
d="M316 -10q-77 0 -134 28.5t-88.5 79t-31.5 114.5q0 28 3 48.5t9 39.5h130q-4 -15 -6.5 -35.5t-2.5 -40.5q0 -35 13.5 -63.5t41 -45.5t67.5 -17q44 0 71.5 17t39.5 47.5t12 70.5v302q0 28 -8 46.5t-23 28t-39 9.5q-33 0 -52 -20t-19 -62v-104h-125v104q0 38 -18.5 56.5
t-52.5 18.5h-63v107h65q45 0 80.5 -18t53.5 -63h3q12 29 33.5 48.5t50 28.5t61.5 9q58 0 98.5 -22t61.5 -62t21 -93v-318q0 -75 -29.5 -128.5t-85.5 -82t-137 -28.5zM463 885v-91h-318v91h318z" />
    <glyph glyph-name="uni1CA303040308" horiz-adv-x="641" 
d="M316 -10q-77 0 -134 28.5t-88.5 79t-31.5 114.5q0 28 3 48.5t9 39.5h130q-4 -15 -6.5 -35.5t-2.5 -40.5q0 -35 13.5 -63.5t41 -45.5t67.5 -17q44 0 71.5 17t39.5 47.5t12 70.5v302q0 28 -8 46.5t-23 28t-39 9.5q-33 0 -52 -20t-19 -62v-104h-125v104q0 38 -18.5 56.5
t-52.5 18.5h-63v107h65q45 0 80.5 -18t53.5 -63h3q12 29 33.5 48.5t50 28.5t61.5 9q58 0 98.5 -22t61.5 -62t21 -93v-318q0 -75 -29.5 -128.5t-85.5 -82t-137 -28.5zM477 879v-91h-318v91h318zM160 1008q0 31 17.5 45t42.5 14q24 0 42.5 -13.5t18.5 -45.5q0 -30 -18.5 -44.5
t-42.5 -14.5q-25 0 -42.5 14.5t-17.5 44.5zM353 1008q0 31 18 45t43 14q24 0 42 -13.5t18 -45.5q0 -30 -18 -44.5t-42 -14.5q-25 0 -43 14.5t-18 44.5z" />
    <glyph glyph-name="uni1CB70301" horiz-adv-x="602" 
d="M300 -10q-74 0 -131 25t-89 70.5t-32 107.5q0 50 17.5 86t47 61.5t67 43.5t76.5 34q50 20 83 37t49 36.5t16 46.5q0 40 -27.5 61.5t-72.5 21.5q-55 0 -79.5 -22.5t-24.5 -58.5q0 -5 0.5 -11t1.5 -10h-130q-1 7 -2 15.5t-1 15.5q0 51 28 90t80 61.5t124 22.5t125 -23
t82 -65.5t29 -101.5q0 -44 -15 -76t-43 -56.5t-66 -44.5t-84 -39q-44 -17 -77 -35t-51.5 -39.5t-18.5 -52.5q0 -46 33.5 -72t86.5 -26q37 0 63.5 11.5t41 34.5t14.5 55q0 9 -0.5 18t-2.5 16h131q2 -10 3.5 -21t1.5 -22q0 -65 -31.5 -108t-88.5 -65t-134 -22zM447 938v-10
q-12 -14 -33 -34t-45 -42t-47.5 -41.5t-42.5 -32.5h-84v13q16 19 36 44.5t39.5 53t32.5 49.5h144z" />
    <glyph glyph-name="uni1CB70304" horiz-adv-x="602" 
d="M300 -10q-74 0 -131 25t-89 70.5t-32 107.5q0 50 17.5 86t47 61.5t67 43.5t76.5 34q50 20 83 37t49 36.5t16 46.5q0 40 -27.5 61.5t-72.5 21.5q-55 0 -79.5 -22.5t-24.5 -58.5q0 -5 0.5 -11t1.5 -10h-130q-1 7 -2 15.5t-1 15.5q0 51 28 90t80 61.5t124 22.5t125 -23
t82 -65.5t29 -101.5q0 -44 -15 -76t-43 -56.5t-66 -44.5t-84 -39q-44 -17 -77 -35t-51.5 -39.5t-18.5 -52.5q0 -46 33.5 -72t86.5 -26q37 0 63.5 11.5t41 34.5t14.5 55q0 9 -0.5 18t-2.5 16h131q2 -10 3.5 -21t1.5 -22q0 -65 -31.5 -108t-88.5 -65t-134 -22zM460 879v-91
h-318v91h318z" />
    <glyph glyph-name="uni10D00301" horiz-adv-x="570" 
d="M282 -10q-68 0 -122 24t-85 70t-31 114q0 26 4.5 46.5t10.5 36.5h120q-4 -16 -6.5 -35.5t-2.5 -40.5q0 -33 13.5 -58.5t38.5 -40t60 -14.5t59 14.5t37.5 40t13.5 58.5q0 49 -23.5 79.5t-53.5 58.5q-24 23 -48 49.5t-40 62.5t-16 87h126q0 -42 24.5 -73.5t56.5 -62.5
q25 -24 48.5 -51.5t39 -63.5t15.5 -84q0 -65 -30.5 -114t-84 -76t-124.5 -27zM431 766v-10q-12 -14 -33 -34t-45 -42t-47.5 -41.5t-42.5 -32.5h-84v13q16 19 36 44.5t39.5 53t32.5 49.5h144z" />
    <glyph glyph-name="uni10D00308" horiz-adv-x="570" 
d="M282 -10q-68 0 -122 24t-85 70t-31 114q0 26 4.5 46.5t10.5 36.5h120q-4 -16 -6.5 -35.5t-2.5 -40.5q0 -33 13.5 -58.5t38.5 -40t60 -14.5t59 14.5t37.5 40t13.5 58.5q0 49 -23.5 79.5t-53.5 58.5q-24 23 -48 49.5t-40 62.5t-16 87h126q0 -42 24.5 -73.5t56.5 -62.5
q25 -24 48.5 -51.5t39 -63.5t15.5 -84q0 -65 -30.5 -114t-84 -76t-124.5 -27zM127 672q0 31 17.5 45t42.5 14q24 0 42.5 -13.5t18.5 -45.5q0 -30 -18.5 -44.5t-42.5 -14.5q-25 0 -42.5 14.5t-17.5 44.5zM320 672q0 31 18 45t43 14q24 0 42 -13.5t18 -45.5q0 -30 -18 -44.5
t-42 -14.5q-25 0 -43 14.5t-18 44.5z" />
    </font>
</defs>
</svg>
