<svg id="Layer_1" xmlns="http://www.w3.org/2000/svg" viewBox="-163 255 284 284"><style>.st0,.st1{stroke-width:.5;stroke-miterlimit:22.9256}.st0{fill:#e6e7e8;stroke:#e6e7e8}.st1{stroke:#ed1c24}.st1,.st2{fill:#ed1c24}.st3{fill:#2959a9;stroke:#2959a9;stroke-width:.5;stroke-miterlimit:22.9256}</style><path class="st0" d="M-21.3 538.7c77.9 0 141.5-63.6 141.5-141.5S56.6 255.6-21.3 255.6s-141.4 63.6-141.4 141.6 63.5 141.5 141.4 141.5z"/><path class="st1" d="M-47.7 369h165.2c1.8 9 2.7 18.3 2.7 27.8 0 10.2-1.1 20.2-3.1 29.8h-276.2c-2-9.6-3.1-19.6-3.1-29.8 0-9.3.9-18.6 2.7-27.8h111.8z"/><path class="st1" d="M10.2 259l-.1 276c-9.9 2.2-20.3 3.4-30.9 3.4-9.1 0-18-.9-26.6-2.5l-.2-277.8c8.7-1.7 17.7-2.5 26.8-2.5 10.7 0 21.1 1.1 31 3.4z"/><path class="st1" d="M-119.4 295.3c-4.6 4.5-8.2 8.4-11.8 13l63 62.2 22.9.6-74.1-75.8z"/><path class="st2" d="M81.7 300c-4.9-5.1-8.9-8.8-14.3-13.2L8.8 347.9l.1 22.4L81.7 300z"/><path class="st1" d="M-104.9 510.6c-4.6-3.4-9.7-7.6-14.5-12.3l74.3-74.1-2.4 25.5-57.4 60.9zm196.6-28.5c-4.1 5.5-8.2 9.9-12.7 14.5L9.3 425.9l24.3.8 58.1 55.4z"/><path class="st3" d="M-155.4 442.4l58.5-.1-39.1 37.4c-8.1-11.3-15.2-24.7-19.4-37.3zm55.9 72.6l36.5-39v56.6c-12.5-4.1-25.2-9.9-36.5-17.6zm159.6-2.3L25.5 476v54.8c12.5-4.4 23.1-10.1 34.6-18.1zm34.8-34.9L58 443.3l54.3.2c-3.5 9.9-7.7 20-17.4 34.3zM62.2 283.1l-36.6 38.7v-58c15.9 5.4 29.9 13.9 36.6 19.3zm34.1 35.6l-38 35.3 55.2.1c-4.2-12.2-9.3-24.1-17.2-35.4zm-252.4 35.1h59.2l-40-38.2c-8.8 12.2-14.4 24.1-19.2 38.2zm50-69.7l36.5 38.6v-58.3c-15.8 5.4-29.8 14.4-36.5 19.7z"/></svg>