<svg id="Layer_1" xmlns="http://www.w3.org/2000/svg" viewBox="0 0 283.7 283.7"><style>.st0{fill:#ed1c24;stroke:#ed1c24}.st0,.st1,.st2{fill-rule:evenodd;clip-rule:evenodd;stroke-width:.5;stroke-miterlimit:22.9256}.st1{fill:#00a651;stroke:#00a651}.st2{fill:#e6e7e8;stroke:#e6e7e8}</style><path class="st0" d="M185.5 277.1c57.7-17.9 97.4-71.6 97.4-135C282.9 78.5 243 24.8 185.2 7l.3 270.1z"/><path class="st1" d="M97.4 6.9C39.4 24.6-.5 78.4-.5 142c0 63.5 39.8 117.2 97.6 135.1l.3-270.2z"/><path class="st2" d="M189.5 8.3l.3 267.3c-15.1 5.7-30.7 7.7-45.9 7.8-15.4 0-36.5-1.9-51.3-7.7l.5-267.5C108.8 2.8 129.7 0 144.5 0c15.5-.1 29.2 2.1 45 8.3z"/></svg>