<svg id="Layer_1" xmlns="http://www.w3.org/2000/svg" viewBox="0 0 340.7 198.9"><style>.st0{fill:#e6e7e8;stroke:#e6e7e8}.st0,.st1,.st2{fill-rule:evenodd;clip-rule:evenodd;stroke-width:.5;stroke-miterlimit:22.9256}.st1{fill:#ed1c24;stroke:#ed1c24}.st2{fill:#2959a9;stroke:#2959a9}</style><path class="st0" d="M.3.3h340.2v198.4H.3z"/><path class="st1" d="M147.2 76.3l193.2-.1v47.2l-340.1.1V76.3h127.5z"/><path class="st1" d="M194.6.3l-.1 198.4h-47.1L147.1.3z"/><path class="st1" d="M52.5.3l77.7 77.2 18.8.6L72.6.3zm220.7 0h-23.8l-56 58.6.1 18.5zM93.5 198.7H70.9l78.3-77.2-1.9 20.9zm199.5 0h-24.1l-75.1-75.8 20 .6z"/><path class="st2" d="M.3 136.9l106.4.2-63.8 61.6H.3zm103 61.8l31.9-34.8-1.5 34.8zm137.5 0l-33.6-34.8v34.8zm63 0l-63.6-61.5 100.2.1v61.4zM240.6.3l-33.4 35V.3zm59.4 0l-66.3 63.6 106.7-.3V.3zM.3 63.8h106.4L39.8.3H.3zM92.8.3l36.3 38V.3z"/></svg>