<svg id="Layer_1" xmlns="http://www.w3.org/2000/svg" viewBox="0 0 340.7 198.9"><style>.st0,.st1{fill-rule:evenodd;clip-rule:evenodd;fill:#e6e7e8;stroke:#e6e7e8;stroke-width:.5;stroke-miterlimit:22.9256}.st1{fill:#ed1c24;stroke:#ed1c24}</style><path class="st0" d="M.3.3h340.2v198.4H.3z"/><path class="st1" d="M275.4 16.6h-15.5l3.9 15.5-15.5-3.9.1 15.5 15.4-3.9-3.9 15.5h15.5l-3.8-15.5 15.5 3.9V28.2l-15.5 3.9zM83 16.6H67.5l3.9 15.5-15.5-3.9.1 15.5 15.4-3.9-3.9 15.5H83l-3.9-15.5 15.5 3.9V28.2l-15.5 3.9zm192.4 125.6h-15.5l3.9 15.5-15.5-3.8.1 15.5 15.4-3.9-3.9 15.5h15.5l-3.8-15.5 15.5 3.9v-15.5l-15.5 3.8zm-192.4 0H67.5l3.9 15.5-15.5-3.8.1 15.5 15.4-3.9-3.9 15.5H83l-3.9-15.5 15.5 3.9v-15.5l-15.5 3.8zm57.1-69.7h200.3v56.6l-340.1.1V72.5h116.1z"/><path class="st1" d="M199.8.3l-.2 198.4h-56.3L143.1.3z"/></svg>