<?xml version="1.0" standalone="no"?><!DOCTYPE svg PUBLIC "-//W3C//DTD SVG 1.1//EN" "http://www.w3.org/Graphics/SVG/1.1/DTD/svg11.dtd" ><svg xmlns="http://www.w3.org/2000/svg"><metadata></metadata><defs><font id="Segoe UI Black" horiz-adv-x="3027"><font-face font-family="Segoe UI Black" font-weight="900" font-stretch="normal" units-per-em="2048" panose-1="2 11 10 2 4 2 4 2 2 3" ascent="2188" descent="-578" x-height="3" bbox="-936 -514 3027 2210" underline-thickness="119" underline-position="-178" unicode-range="U+000d-fffd" /><missing-glyph horiz-adv-x="1322" d="M166 0 l0 1398 l990 0 l0 -1398 l-990 0 ZM314 148 l694 0 l0 1102 l-694 0 l0 -1102 Z" /><glyph glyph-name="" unicode="" d="" /><glyph glyph-name="" unicode=" " d="" /><glyph glyph-name="" unicode="!" d="M543 483 l-342 0 l-54 951 l449 0 l-53 -951 ZM612 178 q0 -89 -64.5 -146 q-64.5 -57 -172.5 -57 q-105 0 -171.5 58 q-66.5 58 -66.5 145 q0 88 64.5 142.5 q64.5 54.5 173.5 54.5 q106 0 171.5 -54.5 q65.5 -54.5 65.5 -142.5 Z" /><glyph glyph-name="" unicode="&quot;" d="M965 1024 l-258 0 l-52 444 l359 0 l-49 -444 ZM481 1024 l-262 0 l-45 444 l356 0 l-49 -444 Z" /><glyph glyph-name="" unicode="#" d="M1126 864 l-122 0 l-52 -221 l142 0 l-58 -235 l-135 0 l-67 -302 l-248 0 l63 302 l-219 0 l-65 -302 l-252 0 l63 302 l-127 0 l49 235 l129 0 l52 221 l-144 0 l47 236 l146 0 l67 317 l256 0 l-67 -317 l215 0 l67 317 l256 0 l-67 -317 l123 0 l-52 -236 ZM530 864 l-51 -221 l219 0 l52 221 l-220 0 Z" /><glyph glyph-name="" unicode="$" d="M1100 442 q0 -94 -41 -175.5 q-41 -81.5 -120.5 -142 q-79.5 -60.5 -193.5 -89.5 l0 -230 l-237 0 l0 203 q-112 2 -226.5 27.5 q-114.5 25.5 -148.5 54.5 l0 375 q207 -152 402 -152 q53 0 83.5 26 q30.5 26 30.5 71 q0 38 -19 60.5 q-19 22.5 -62.5 46.5 q-43.5 24 -129.5 58 q-323 128 -323 412 q0 165 104.5 277 q104.5 112 288.5 145 l0 199 l237 0 l0 -189 q177 -10 285 -45 l0 -364 q-77 48 -172.5 77 q-95.5 29 -187.5 29 q-55 0 -89 -25.5 q-34 -25.5 -34 -64.5 q0 -48 40.5 -81.5 q40.5 -33.5 131.5 -70.5 q198 -81 289.5 -185.5 q91.5 -104.5 91.5 -246.5 Z" /><glyph glyph-name="" unicode="%" d="M1737 367 q0 -175 -103 -281 q-103 -106 -278 -106 q-162 0 -259.5 99 q-97.5 99 -97.5 261 q0 178 104 282.5 q104 104.5 277 104.5 q166 0 261.5 -95 q95.5 -95 95.5 -265 ZM1475 354 q0 71 -27 111.5 q-27 40.5 -74 40.5 q-52 0 -80 -42.5 q-28 -42.5 -28 -115.5 q0 -69 25.5 -108 q25.5 -39 76.5 -39 q52 0 79.5 40 q27.5 40 27.5 113 ZM618 0 l-315 0 l922 1434 l315 0 l-922 -1434 ZM838 1092 q0 -178 -103.5 -282.5 q-103.5 -104.5 -275.5 -104.5 q-162 0 -259.5 99 q-97.5 99 -97.5 261 q0 176 101.5 282.5 q101.5 106.5 277.5 106.5 q166 0 261.5 -97 q95.5 -97 95.5 -265 ZM575 1081 q0 69 -25.5 109.5 q-25.5 40.5 -72.5 40.5 q-52 0 -80 -42.5 q-28 -42.5 -28 -115.5 q0 -69 25.5 -108 q25.5 -39 76.5 -39 q50 0 77 40 q27 40 27 115 Z" /><glyph glyph-name="" unicode="&amp;" d="M1081 -2 l-84 98 q-67 -52 -187.5 -86.5 q-120.5 -34.5 -231.5 -34.5 q-245 0 -381 106.5 q-136 106.5 -136 297.5 q0 113 82 216 q82 103 250 187 q-143 158 -143 316 q0 160 125.5 260 q125.5 100 326.5 100 q191 0 307.5 -89.5 q116.5 -89.5 116.5 -238.5 q0 -119 -69 -205 q-69 -86 -219 -155 l204 -231 q45 90 45 243 l326 0 q0 -145 -41 -260.5 q-41 -115.5 -133 -210.5 l287 -313 l-445 0 ZM797 1108 q0 43 -31.5 73.5 q-31.5 30.5 -73.5 30.5 q-50 0 -80 -27 q-30 -27 -30 -75 q0 -31 18.5 -63.5 q18.5 -32.5 85.5 -108.5 q62 38 86.5 78.5 q24.5 40.5 24.5 91.5 ZM543 608 q-42 -20 -70.5 -69.5 q-28.5 -49.5 -28.5 -110.5 q0 -85 56.5 -136.5 q56.5 -51.5 138.5 -51.5 q51 0 98.5 16.5 q47.5 16.5 79.5 42.5 l-274 309 Z" /><glyph glyph-name="" unicode="&#39;" d="M481 1026 l-262 0 l-45 442 l356 0 l-49 -442 Z" /><glyph glyph-name="" unicode="(" d="M512 -326 q-172 186 -254 400 q-82 214 -82 475 q0 487 334 885 l336 0 q-150 -210 -222.5 -428.5 q-72.5 -218.5 -72.5 -456.5 q0 -247 73 -458.5 q73 -211.5 224 -416.5 l-336 0 Z" /><glyph glyph-name="" unicode=")" d="M686 549 q0 -263 -82.5 -477 q-82.5 -214 -253.5 -398 l-336 0 q299 401 299 875 q0 233 -71.5 451.5 q-71.5 218.5 -225.5 433.5 l336 0 q334 -396 334 -885 Z" /><glyph glyph-name="" unicode="*" d="M649 989 l207 -194 l-231 -158 l-129 250 l-129 -248 l-232 156 l207 194 l-281 27 l91 256 l251 -119 l-59 281 l303 0 l-59 -281 l252 119 l90 -256 l-281 -27 Z" /><glyph glyph-name="" unicode="+" d="M856 455 l0 -373 l-248 0 l0 373 l-370 0 l0 247 l370 0 l0 371 l248 0 l0 -371 l373 0 l0 -247 l-373 0 Z" /><glyph glyph-name="" unicode="," d="M387 -238 l-344 0 l102 510 l385 0 l-143 -510 Z" /><glyph glyph-name="" unicode="-" d="M143 393 l0 287 l547 0 l0 -287 l-547 0 Z" /><glyph glyph-name="" unicode="." d="M565 178 q0 -91 -64 -147 q-64 -56 -177 -56 q-103 0 -168.5 58.5 q-65.5 58.5 -65.5 144.5 q0 88 64.5 142.5 q64.5 54.5 173.5 54.5 q106 0 171.5 -54.5 q65.5 -54.5 65.5 -142.5 Z" /><glyph glyph-name="" unicode="/" d="M307 -238 l-375 0 l709 1672 l375 0 l-709 -1672 Z" /><glyph glyph-name="" unicode="0" d="M1163 729 q0 -369 -140.5 -561.5 q-140.5 -192.5 -410.5 -192.5 q-276 0 -412.5 177 q-136.5 177 -136.5 548 q0 372 147.5 565 q147.5 193 426.5 193 q526 0 526 -729 ZM743 729 q0 214 -30 316 q-30 102 -97 102 q-131 0 -131 -438 q0 -215 30.5 -318.5 q30.5 -103.5 96.5 -103.5 q131 0 131 442 Z" /><glyph glyph-name="" unicode="1" d="M395 0 l0 1032 q-70 -41 -145 -62.5 q-75 -21.5 -170 -31.5 l0 320 q135 23 251.5 72.5 q116.5 49.5 238.5 135.5 l251 0 l0 -1466 l-426 0 Z" /><glyph glyph-name="" unicode="2" d="M90 0 l0 115 q0 122 30 212 q30 90 94.5 169 q64.5 79 224.5 203 q114 90 151.5 129.5 q37.5 39.5 56 76.5 q18.5 37 18.5 80 q0 143 -172 143 q-175 0 -331 -127 l0 349 q119 60 222.5 83 q103.5 23 212.5 23 q234 0 362 -111 q128 -111 128 -313 q0 -155 -67 -263 q-67 -108 -249 -225 q-139 -90 -184.5 -131.5 q-45.5 -41.5 -46.5 -70.5 l560 0 l0 -342 l-1010 0 Z" /><glyph glyph-name="" unicode="3" d="M1080 410 q0 -207 -150 -321 q-150 -114 -429 -114 q-104 0 -206 17.5 q-102 17.5 -175 46.5 l0 334 q67 -40 153 -63 q86 -23 174 -23 q102 0 156.5 36.5 q54.5 36.5 54.5 104.5 q0 69 -67 108 q-67 39 -187 39 l-138 0 l0 314 l122 0 q121 0 178.5 37.5 q57.5 37.5 57.5 97.5 q0 57 -43.5 90 q-43.5 33 -133.5 33 q-139 0 -278 -80 l0 319 q174 72 366 72 q238 0 373 -97 q135 -97 135 -269 q0 -134 -72.5 -225 q-72.5 -91 -203.5 -119 l0 -5 q145 -20 229 -110.5 q84 -90.5 84 -222.5 Z" /><glyph glyph-name="" unicode="4" d="M1028 1434 l0 -904 l203 0 l0 -284 l-204 0 l0 -246 l-375 0 l0 246 l-607 0 l0 295 q160 184 318.5 427 q158.5 243 257.5 466 l407 0 ZM651 530 l0 420 q-92 -203 -253 -420 l253 0 Z" /><glyph glyph-name="" unicode="5" d="M1090 485 q0 -147 -69.5 -263.5 q-69.5 -116.5 -200.5 -181.5 q-131 -65 -309 -65 q-99 0 -206.5 17 q-107.5 17 -176.5 43 l0 332 q150 -80 317 -80 q110 0 166.5 40 q56.5 40 56.5 113 q0 158 -262 158 q-131 0 -243 -25 l54 861 l810 0 l0 -332 l-480 0 l-14 -201 q58 6 109 6 q210 0 329 -113.5 q119 -113.5 119 -308.5 Z" /><glyph glyph-name="" unicode="6" d="M1167 496 q0 -144 -66.5 -263.5 q-66.5 -119.5 -188 -187.5 q-121.5 -68 -269.5 -68 q-263 0 -405 175 q-142 175 -142 495 q0 242 86 429.5 q86 187.5 241.5 284.5 q155.5 97 369.5 97 q164 0 264 -37 l0 -334 q-99 60 -234 60 q-137 0 -222.5 -89.5 q-85.5 -89.5 -94.5 -236.5 l6 0 q101 123 289 123 q169 0 267.5 -124 q98.5 -124 98.5 -324 ZM762 477 q0 79 -30.5 124.5 q-30.5 45.5 -92.5 45.5 q-59 0 -91 -47.5 q-32 -47.5 -32 -128.5 q0 -76 34.5 -125 q34.5 -49 88.5 -49 q57 0 90 48.5 q33 48.5 33 131.5 Z" /><glyph glyph-name="" unicode="7" d="M273 0 q30 197 85 367 q55 170 131.5 328 q76.5 158 232.5 407 l-624 0 l0 332 l1049 0 l0 -252 q-143 -255 -216.5 -426 q-73.5 -171 -127 -355.5 q-53.5 -184.5 -87.5 -400.5 l-443 0 Z" /><glyph glyph-name="" unicode="8" d="M67 390 q0 132 67 222 q67 90 197 147 q-109 55 -164 141 q-55 86 -55 189 q0 102 65.5 187.5 q65.5 85.5 182 133.5 q116.5 48 257.5 48 q147 0 264 -47.5 q117 -47.5 181 -132.5 q64 -85 64 -190 q0 -101 -59 -189 q-59 -88 -172 -142 q140 -61 202 -151.5 q62 -90.5 62 -212.5 q0 -120 -69.5 -216 q-69.5 -96 -195 -148 q-125.5 -52 -281.5 -52 q-242 0 -394 116 q-152 116 -152 297 ZM454 425 q0 -77 44 -121 q44 -44 116 -44 q73 0 117 47 q44 47 44 118 q0 72 -46 119.5 q-46 47.5 -115 47.5 q-68 0 -114 -46.5 q-46 -46.5 -46 -120.5 ZM490 1040 q0 -59 37.5 -104 q37.5 -45 92.5 -45 q56 0 93.5 45 q37.5 45 37.5 104 q0 64 -38 107 q-38 43 -93 43 q-56 0 -93 -43 q-37 -43 -37 -107 Z" /><glyph glyph-name="" unicode="9" d="M1141 776 q0 -376 -175 -588.5 q-175 -212.5 -483 -212.5 q-189 0 -329 56 l0 329 q42 -30 123.5 -51.5 q81.5 -21.5 146.5 -21.5 q150 0 229.5 83 q79.5 83 81.5 244 l-6 0 q-94 -120 -274 -120 q-107 0 -196.5 55.5 q-89.5 55.5 -140 155 q-50.5 99.5 -50.5 227.5 q0 158 66.5 278 q66.5 120 188 184 q121.5 64 279.5 64 q164 0 289 -85 q125 -85 187.5 -236 q62.5 -151 62.5 -361 ZM719 963 q0 73 -33 124.5 q-33 51.5 -88 51.5 q-54 0 -89.5 -43.5 q-35.5 -43.5 -35.5 -134.5 q0 -85 35 -129 q35 -44 88 -44 q60 0 91.5 48.5 q31.5 48.5 31.5 126.5 Z" /><glyph glyph-name="" unicode=":" d="M565 827 q0 -91 -64.5 -146.5 q-64.5 -55.5 -176.5 -55.5 q-102 0 -168 58 q-66 58 -66 144 q0 88 64.5 142.5 q64.5 54.5 173.5 54.5 q106 0 171.5 -54.5 q65.5 -54.5 65.5 -142.5 ZM565 178 q0 -91 -64 -147 q-64 -56 -177 -56 q-103 0 -168.5 58.5 q-65.5 58.5 -65.5 144.5 q0 88 64.5 142.5 q64.5 54.5 173.5 54.5 q106 0 171.5 -54.5 q65.5 -54.5 65.5 -142.5 Z" /><glyph glyph-name="" unicode=";" d="M575 827 q0 -91 -64.5 -146.5 q-64.5 -55.5 -176.5 -55.5 q-102 0 -168 58 q-66 58 -66 144 q0 88 64.5 142.5 q64.5 54.5 173.5 54.5 q106 0 171.5 -54.5 q65.5 -54.5 65.5 -142.5 ZM387 -238 l-344 0 l102 510 l385 0 l-143 -510 Z" /><glyph glyph-name="" unicode="&lt;" d="M238 436 l0 240 l991 407 l0 -292 l-703 -236 l0 -4 l703 -236 l0 -292 l-991 413 Z" /><glyph glyph-name="" unicode="=" d="M238 666 l0 247 l991 0 l0 -247 l-991 0 ZM238 236 l0 247 l991 0 l0 -247 l-991 0 Z" /><glyph glyph-name="" unicode="&gt;" d="M238 43 l0 295 l700 233 l0 4 l-700 234 l0 295 l991 -408 l0 -239 l-991 -414 Z" /><glyph glyph-name="" unicode="?" d="M907 1100 q0 -222 -215 -391 q-73 -58 -103 -102 q-30 -44 -30 -109 l0 -35 l-336 0 l0 88 q0 183 121 287 q79 67 101.5 92 q22.5 25 32 48 q9.5 23 9.5 54 q0 38 -33.5 64 q-33.5 26 -86.5 26 q-161 0 -338 -129 l0 393 q65 37 175.5 64 q110.5 27 198.5 27 q245 0 374.5 -96.5 q129.5 -96.5 129.5 -280.5 ZM641 178 q0 -89 -64.5 -146 q-64.5 -57 -173.5 -57 q-105 0 -171 58.5 q-66 58.5 -66 144.5 q0 88 64.5 142.5 q64.5 54.5 172.5 54.5 q107 0 172.5 -54.5 q65.5 -54.5 65.5 -142.5 Z" /><glyph glyph-name="" unicode="@" d="M1843 766 q0 -173 -66.5 -306 q-66.5 -133 -187 -206.5 q-120.5 -73.5 -268.5 -73.5 q-88 0 -156 43 q-68 43 -84 107 l-6 0 q-35 -67 -95 -108.5 q-60 -41.5 -132 -41.5 q-141 0 -225 102.5 q-84 102.5 -84 278.5 q0 145 47 259 q47 114 140 183.5 q93 69.5 192 69.5 q136 0 180 -108 l4 0 l8 86 l301 0 q-10 -92 -27.5 -306.5 q-17.5 -214.5 -17.5 -259.5 l0 -20 q0 -25 13 -42 q13 -17 38 -17 q60 0 98.5 90.5 q38.5 90.5 38.5 265.5 q0 137 -58 243.5 q-58 106.5 -169 166 q-111 59.5 -266 59.5 q-183 0 -334.5 -87 q-151.5 -87 -240.5 -242.5 q-89 -155.5 -89 -332.5 q0 -259 155 -398.5 q155 -139.5 441 -139.5 q98 0 207.5 25.5 q109.5 25.5 194.5 66.5 l0 -236 q-177 -75 -447 -75 q-254 0 -450.5 97.5 q-196.5 97.5 -297 269.5 q-100.5 172 -100.5 405 q0 234 121 438.5 q121 204.5 331.5 317 q210.5 112.5 475.5 112.5 q248 0 432 -82.5 q184 -82.5 283.5 -238.5 q99.5 -156 99.5 -365 ZM1092 715 q0 65 -29.5 102 q-29.5 37 -77.5 37 q-63 0 -106 -85 q-43 -85 -43 -200 q0 -79 25.5 -124.5 q25.5 -45.5 72.5 -45.5 q71 0 114.5 88.5 q43.5 88.5 43.5 227.5 Z" /><glyph glyph-name="" unicode="a" d="M1040 0 l-63 264 l-428 0 l-68 -264 l-467 0 l494 1434 l536 0 l465 -1434 l-469 0 ZM768 1122 l-10 0 q-2 -24 -14 -79 q-12 -55 -121 -472 l274 0 l-100 390 q-21 86 -29 161 Z" /><glyph glyph-name="" unicode="b" d="M1366 440 q0 -211 -148 -325.5 q-148 -114.5 -423 -114.5 l-654 0 l0 1434 l609 0 q571 0 571 -347 q0 -75 -36 -137.5 q-36 -62.5 -109.5 -109.5 q-73.5 -47 -161.5 -64 l0 -4 q102 -12 183 -60.5 q81 -48.5 125 -121 q44 -72.5 44 -150.5 ZM862 1012 q0 133 -209 133 l-80 0 l0 -271 l125 0 q72 0 118 38.5 q46 38.5 46 99.5 ZM907 442 q0 62 -45 102 q-45 40 -119 40 l-170 0 l0 -293 l144 0 q88 0 139 40.5 q51 40.5 51 110.5 Z" /><glyph glyph-name="" unicode="c" d="M1208 39 q-178 -64 -411 -64 q-229 0 -395 87.5 q-166 87.5 -253.5 249 q-87.5 161.5 -87.5 372.5 q0 227 98 404 q98 177 277 273.5 q179 96.5 412 96.5 q186 0 360 -45 l0 -399 q-60 36 -143 56 q-83 20 -168 20 q-176 0 -277.5 -101 q-101.5 -101 -101.5 -274 q0 -172 101.5 -271.5 q101.5 -99.5 271.5 -99.5 q157 0 317 80 l0 -385 Z" /><glyph glyph-name="" unicode="d" d="M1493 735 q0 -218 -91.5 -385.5 q-91.5 -167.5 -261.5 -258.5 q-170 -91 -392 -91 l-607 0 l0 1434 l594 0 q758 0 758 -699 ZM1034 731 q0 105 -42.5 189 q-42.5 84 -121.5 130 q-79 46 -186 46 l-111 0 l0 -758 l121 0 q155 0 247.5 106.5 q92.5 106.5 92.5 286.5 Z" /><glyph glyph-name="" unicode="e" d="M141 0 l0 1434 l893 0 l0 -338 l-461 0 l0 -209 l433 0 l0 -338 l-433 0 l0 -211 l494 0 l0 -338 l-926 0 Z" /><glyph glyph-name="" unicode="f" d="M573 1096 l0 -258 l426 0 l0 -338 l-426 0 l0 -500 l-432 0 l0 1434 l899 0 l0 -338 l-467 0 Z" /><glyph glyph-name="" unicode="g" d="M1397 94 q-81 -46 -242 -82.5 q-161 -36.5 -307 -36.5 q-377 0 -582 188.5 q-205 188.5 -205 528.5 q0 228 103.5 405 q103.5 177 291.5 269 q188 92 443 92 q187 0 399 -53 l0 -377 q-99 45 -190 62.5 q-91 17.5 -199 17.5 q-178 0 -283.5 -107 q-105.5 -107 -105.5 -294 q0 -179 88.5 -280 q88.5 -101 247.5 -101 q74 0 109 8 l0 205 l-275 0 l0 327 l707 0 l0 -772 Z" /><glyph glyph-name="" unicode="h" d="M1069 0 l0 535 l-496 0 l0 -535 l-432 0 l0 1434 l432 0 l0 -531 l496 0 l0 531 l432 0 l0 -1434 l-432 0 Z" /><glyph glyph-name="" unicode="i" d="M141 0 l0 1434 l432 0 l0 -1434 l-432 0 Z" /><glyph glyph-name="" unicode="j" d="M922 612 q0 -637 -619 -637 q-50 0 -120 12 q-70 12 -142 36 l0 399 q51 -35 113.5 -56.5 q62.5 -21.5 103.5 -21.5 q116 0 173.5 71.5 q57.5 71.5 57.5 221.5 l0 797 l433 0 l0 -822 Z" /><glyph glyph-name="" unicode="k" d="M934 0 l-318 606 q-32 72 -38 99 l-5 0 l0 -705 l-432 0 l0 1434 l432 0 l0 -682 l5 0 q19 54 43 100 l286 582 l512 0 l-407 -684 l446 -750 l-524 0 Z" /><glyph glyph-name="" unicode="l" d="M141 0 l0 1434 l432 0 l0 -1096 l494 0 l0 -338 l-926 0 Z" /><glyph glyph-name="" unicode="m" d="M1454 0 l0 786 q0 111 7 244 l3 66 l-12 0 q-32 -169 -49 -234 l-211 -862 l-406 0 l-221 852 q-9 32 -47 244 l-12 0 q14 -336 14 -420 l0 -676 l-379 0 l0 1434 l647 0 l197 -779 q7 -24 18.5 -97.5 q11.5 -73.5 14.5 -113.5 l6 0 q11 91 35 215 l184 775 l637 0 l0 -1434 l-426 0 Z" /><glyph glyph-name="" unicode="n" d="M1143 0 l-506 692 q-60 82 -98 148 l-4 0 q6 -106 6 -238 l0 -602 l-400 0 l0 1434 l408 0 l485 -658 q9 -13 22 -31 q13 -18 26 -37 q13 -19 24.5 -37 q11.5 -18 17.5 -32 l4 0 q-6 44 -6 152 l0 643 l400 0 l0 -1434 l-379 0 Z" /><glyph glyph-name="" unicode="o" d="M1505 721 q0 -216 -93 -386.5 q-93 -170.5 -260 -265 q-167 -94.5 -374 -94.5 q-202 0 -367.5 91.5 q-165.5 91.5 -257.5 257 q-92 165.5 -92 374.5 q0 219 93 394 q93 175 261 270.5 q168 95.5 382 95.5 q206 0 368.5 -91.5 q162.5 -91.5 251 -261 q88.5 -169.5 88.5 -384.5 ZM1047 709 q0 177 -68 279 q-68 102 -186 102 q-129 0 -201 -98 q-72 -98 -72 -277 q0 -175 71.5 -273 q71.5 -98 194.5 -98 q75 0 135 44 q60 44 93 126 q33 82 33 195 Z" /><glyph glyph-name="" unicode="p" d="M1313 961 q0 -147 -74.5 -261 q-74.5 -114 -212.5 -176.5 q-138 -62.5 -321 -62.5 l-132 0 l0 -461 l-432 0 l0 1434 l588 0 q303 0 443.5 -115 q140.5 -115 140.5 -358 ZM856 946 q0 88 -51 133 q-51 45 -150 45 l-82 0 l0 -354 l97 0 q186 0 186 176 Z" /><glyph glyph-name="" unicode="q" d="M1505 721 q0 -333 -215 -548 l379 -366 l-542 0 l-182 185 q-80 -17 -167 -17 q-202 0 -367.5 91.5 q-165.5 91.5 -257.5 257 q-92 165.5 -92 374.5 q0 219 93 394 q93 175 261 270.5 q168 95.5 382 95.5 q206 0 368.5 -91.5 q162.5 -91.5 251 -261 q88.5 -169.5 88.5 -384.5 ZM1047 709 q0 177 -68 279 q-68 102 -186 102 q-129 0 -201 -98 q-72 -98 -72 -277 q0 -175 71.5 -273 q71.5 -98 194.5 -98 q117 0 189 99 q72 99 72 266 Z" /><glyph glyph-name="" unicode="r" d="M885 0 l-107 309 q-31 91 -80.5 143 q-49.5 52 -107.5 52 l-17 0 l0 -504 l-432 0 l0 1434 l574 0 q301 0 444.5 -98.5 q143.5 -98.5 143.5 -295.5 q0 -148 -83.5 -248 q-83.5 -100 -248.5 -145 l0 -4 q91 -28 151.5 -91 q60.5 -63 108.5 -187 l141 -365 l-487 0 ZM844 979 q0 72 -44 114 q-44 42 -138 42 l-89 0 l0 -328 l78 0 q87 0 140 49 q53 49 53 123 Z" /><glyph glyph-name="" unicode="s" d="M1137 434 q0 -143 -76.5 -249 q-76.5 -106 -214.5 -158 q-138 -52 -332 -52 q-225 0 -412 76 l0 393 q90 -66 199 -106.5 q109 -40.5 203 -40.5 q71 0 110 25.5 q39 25.5 39 74.5 q0 35 -19.5 61.5 q-19.5 26.5 -59 49.5 q-39.5 23 -146.5 63 q-346 133 -346 430 q0 208 158 332.5 q158 124.5 424 124.5 q75 0 138 -6 q63 -6 114.5 -15 q51.5 -9 144.5 -34 l0 -365 q-181 99 -356 99 q-72 0 -116 -27 q-44 -27 -44 -74 q0 -45 35.5 -74.5 q35.5 -29.5 148.5 -76.5 q223 -90 315.5 -197 q92.5 -107 92.5 -254 Z" /><glyph glyph-name="" unicode="t" d="M866 1096 l0 -1096 l-434 0 l0 1096 l-401 0 l0 338 l1241 0 l0 -338 l-406 0 Z" /><glyph glyph-name="" unicode="u" d="M1391 655 q0 -345 -157.5 -512.5 q-157.5 -167.5 -485.5 -167.5 q-306 0 -464.5 167.5 q-158.5 167.5 -158.5 504.5 l0 787 l434 0 l0 -803 q0 -138 51.5 -212.5 q51.5 -74.5 147.5 -74.5 q97 0 147.5 70 q50.5 70 50.5 207 l0 813 l435 0 l0 -779 Z" /><glyph glyph-name="" unicode="v" d="M958 0 l-485 0 l-463 1434 l465 0 l219 -883 q26 -107 29 -160 l10 0 q6 67 31 166 l213 877 l450 0 l-469 -1434 Z" /><glyph glyph-name="" unicode="w" d="M1774 0 l-459 0 l-199 817 q-9 35 -20 174 l-4 0 q-15 -123 -29 -174 l-215 -817 l-486 0 l-342 1434 l474 0 l120 -844 q3 -16 9 -93 l6 -83 l6 0 q2 26 12 88.5 q10 62.5 19 93.5 l221 838 l471 0 l184 -850 l13 -85 l10 -83 l4 0 l3 35 l13 139 l125 844 l426 0 l-362 -1434 Z" /><glyph glyph-name="" unicode="x" d="M930 0 l-178 393 q-17 37 -22.5 72.5 q-5.5 35.5 -8.5 58.5 l-4 0 q-6 -24 -14 -63 q-8 -39 -23 -76 l-166 -385 l-514 0 l430 715 l-391 719 l522 0 l139 -379 q19 -53 35 -140 l4 0 q16 98 37 142 l162 377 l481 0 l-403 -711 l422 -723 l-508 0 Z" /><glyph glyph-name="" unicode="y" d="M874 498 l0 -498 l-432 0 l0 492 l-442 942 l496 0 l155 -451 q16 -46 22.5 -80 q6.5 -34 14.5 -69 l4 0 q13 91 29 141 l153 459 l457 0 l-457 -936 Z" /><glyph glyph-name="" unicode="z" d="M616 338 l648 0 l0 -338 l-1203 0 l0 303 l662 793 l-621 0 l0 338 l1141 0 l0 -301 l-627 -795 Z" /><glyph glyph-name="" unicode="[" d="M233 -326 l0 1760 l543 0 l0 -258 l-201 0 l0 -1244 l201 0 l0 -258 l-543 0 Z" /><glyph glyph-name="" unicode="\" d="M719 -238 l-699 1672 l373 0 l697 -1672 l-371 0 Z" /><glyph glyph-name="" unicode="]" d="M86 -326 l0 258 l201 0 l0 1244 l-201 0 l0 258 l543 0 l0 -1760 l-543 0 Z" /><glyph glyph-name="" unicode="^" d="M971 629 l-236 553 l-6 0 l-235 -553 l-306 0 l424 829 l240 0 l424 -829 l-305 0 Z" /><glyph glyph-name="" unicode="_" d="M0 -297 l0 119 l850 0 l0 -119 l-850 0 Z" /><glyph glyph-name="" unicode="`" d="M385 1186 l-356 321 l358 0 l299 -321 l-301 0 Z" /><glyph glyph-name="" unicode="a" d="M670 0 l0 156 l-4 0 q-102 -181 -312 -181 q-145 0 -227 86 q-82 86 -82 230 q0 302 371 350 l254 33 q0 50 -45 82 q-45 32 -121 32 q-172 0 -363 -98 l0 277 q83 36 208 59 q125 23 214 23 q261 0 378.5 -111.5 q117.5 -111.5 117.5 -372.5 l0 -565 l-389 0 ZM418 348 q0 -42 26.5 -69 q26.5 -27 75.5 -27 q67 0 108.5 50 q41.5 50 41.5 128 l0 39 l-144 -20 q-108 -18 -108 -101 Z" /><glyph glyph-name="" unicode="b" d="M1257 543 q0 -168 -55.5 -297.5 q-55.5 -129.5 -157.5 -200 q-102 -70.5 -231 -70.5 q-99 0 -169.5 36.5 q-70.5 36.5 -111.5 94.5 l-4 0 l0 -106 l-426 0 l0 1516 l426 0 l0 -631 l4 0 q50 76 135.5 120 q85.5 44 188.5 44 q194 0 297.5 -129 q103.5 -129 103.5 -377 ZM825 530 q0 103 -39.5 155 q-39.5 52 -113.5 52 q-65 0 -108.5 -54.5 q-43.5 -54.5 -43.5 -141.5 l0 -62 q0 -88 39 -140 q39 -52 105 -52 q77 0 119 63.5 q42 63.5 42 179.5 Z" /><glyph glyph-name="" unicode="c" d="M946 29 q-41 -24 -129 -39 q-88 -15 -203 -15 q-162 0 -289.5 65.5 q-127.5 65.5 -197.5 183.5 q-70 118 -70 265 q0 176 74.5 301.5 q74.5 125.5 212.5 192 q138 66.5 320 66.5 q100 0 179.5 -13 q79.5 -13 102.5 -30 l0 -332 q-32 25 -92 44 q-60 19 -111 19 q-125 0 -189.5 -59.5 q-64.5 -59.5 -64.5 -167.5 q0 -106 63.5 -164.5 q63.5 -58.5 174.5 -58.5 q119 0 219 57 l0 -315 Z" /><glyph glyph-name="" unicode="d" d="M786 0 l0 119 l-4 0 q-51 -67 -133 -105.5 q-82 -38.5 -162 -38.5 q-131 0 -231 64.5 q-100 64.5 -149.5 180.5 q-49.5 116 -49.5 274 q0 163 59 289 q59 126 166 196 q107 70 240 70 q63 0 116.5 -18 q53.5 -18 93 -48.5 q39.5 -30.5 50.5 -60.5 l4 0 l0 594 l426 0 l0 -1516 l-426 0 ZM795 543 q0 92 -40.5 143 q-40.5 51 -109.5 51 q-69 0 -112.5 -63.5 q-43.5 -63.5 -43.5 -169.5 q0 -217 150 -217 q71 0 113.5 58.5 q42.5 58.5 42.5 170.5 l0 27 Z" /><glyph glyph-name="" unicode="e" d="M469 391 q11 -66 76 -103.5 q65 -37.5 172 -37.5 q149 0 282 57 l0 -270 q-155 -62 -376 -62 q-268 0 -417 137 q-149 137 -149 377 q0 165 65.5 291 q65.5 126 194 197.5 q128.5 71.5 283.5 71.5 q159 0 272 -62 q113 -62 171.5 -174 q58.5 -112 58.5 -262 l0 -160 l-633 0 ZM725 614 q0 177 -127 177 q-53 0 -89 -48.5 q-36 -48.5 -42 -128.5 l258 0 Z" /><glyph glyph-name="" unicode="f" d="M891 1206 q-66 23 -123 23 q-71 0 -105 -36.5 q-34 -36.5 -34 -98.5 l0 -70 l237 0 l0 -295 l-237 0 l0 -729 l-426 0 l0 729 l-172 0 l0 295 l172 0 l0 94 q0 125 58 220.5 q58 95.5 168.5 148.5 q110.5 53 268.5 53 q114 0 193 -22 l0 -312 Z" /><glyph glyph-name="" unicode="g" d="M1212 143 q0 -295 -185.5 -459.5 q-185.5 -164.5 -541.5 -164.5 q-96 0 -186 15 q-90 15 -129 34 l0 334 q64 -40 150 -64 q86 -24 153 -24 q143 0 229 69 q86 69 86 183 l0 63 l-4 0 q-46 -70 -126.5 -112 q-80.5 -42 -172.5 -42 q-198 0 -313 137.5 q-115 137.5 -115 379.5 q0 166 60 293 q60 127 167 195.5 q107 68.5 236 68.5 q177 0 264 -131 l4 0 l0 106 l424 0 l0 -881 ZM795 541 q0 90 -40.5 143 q-40.5 53 -107.5 53 q-72 0 -115 -64 q-43 -64 -43 -171 q0 -99 36 -157 q36 -58 114 -58 q73 0 114.5 59.5 q41.5 59.5 41.5 159.5 l0 35 Z" /><glyph glyph-name="" unicode="h" d="M762 0 l0 584 q0 153 -117 153 q-57 0 -87 -43.5 q-30 -43.5 -30 -111.5 l0 -582 l-426 0 l0 1516 l426 0 l0 -631 l4 0 q55 79 133.5 121.5 q78.5 42.5 168.5 42.5 q166 0 253 -106.5 q87 -106.5 87 -313.5 l0 -629 l-412 0 Z" /><glyph glyph-name="" unicode="i" d="M553 1300 q0 -90 -65.5 -146 q-65.5 -56 -172.5 -56 q-104 0 -170.5 58 q-66.5 58 -66.5 144 q0 88 64.5 142.5 q64.5 54.5 172.5 54.5 q107 0 172.5 -54.5 q65.5 -54.5 65.5 -142.5 ZM102 0 l0 1024 l426 0 l0 -1024 l-426 0 Z" /><glyph glyph-name="" unicode="j" d="M553 1300 q0 -90 -65.5 -146 q-65.5 -56 -172.5 -56 q-104 0 -170.5 58 q-66.5 58 -66.5 144 q0 88 64.5 142.5 q64.5 54.5 172.5 54.5 q107 0 172.5 -54.5 q65.5 -54.5 65.5 -142.5 ZM528 -10 q0 -135 -53 -246.5 q-53 -111.5 -156 -168 q-103 -56.5 -245 -56.5 q-78 0 -170 30 l0 312 q56 -31 102 -31 q53 0 74.5 35.5 q21.5 35.5 21.5 107.5 l0 1051 l426 0 l0 -1034 Z" /><glyph glyph-name="" unicode="k" d="M760 0 l-228 526 l-4 0 l0 -526 l-426 0 l0 1516 l426 0 l0 -973 l4 0 l207 481 l480 0 l-277 -469 l293 -555 l-475 0 Z" /><glyph glyph-name="" unicode="l" d="M102 0 l0 1516 l426 0 l0 -1516 l-426 0 Z" /><glyph glyph-name="" unicode="m" d="M1430 0 l0 590 q0 74 -26.5 110.5 q-26.5 36.5 -86.5 36.5 q-59 0 -92 -44.5 q-33 -44.5 -33 -123.5 l0 -569 l-426 0 l0 580 q0 157 -107 157 q-65 0 -98 -45.5 q-33 -45.5 -33 -130.5 l0 -561 l-426 0 l0 1024 l426 0 l0 -162 l4 0 q24 43 76.5 87.5 q52.5 44.5 118.5 72 q66 27.5 143 27.5 q109 0 183.5 -43 q74.5 -43 124.5 -136 q54 86 144 132.5 q90 46.5 200 46.5 q161 0 247 -105 q86 -105 86 -303 l0 -641 l-425 0 Z" /><glyph glyph-name="" unicode="n" d="M766 0 l0 559 q0 95 -28.5 136.5 q-28.5 41.5 -92.5 41.5 q-55 0 -86 -43 q-31 -43 -31 -110 l0 -584 l-426 0 l0 1024 l426 0 l0 -160 l4 0 q51 88 137 136.5 q86 48.5 187 48.5 q336 0 336 -424 l0 -625 l-426 0 Z" /><glyph glyph-name="" unicode="o" d="M1241 530 q0 -259 -156.5 -407 q-156.5 -148 -437.5 -148 q-279 0 -434.5 144.5 q-155.5 144.5 -155.5 398.5 q0 163 73 283 q73 120 208 184 q135 64 311 64 q182 0 315.5 -67 q133.5 -67 205 -186 q71.5 -119 71.5 -266 ZM809 528 q0 209 -160 209 q-160 0 -160 -219 q0 -231 162 -231 q158 0 158 241 Z" /><glyph glyph-name="" unicode="p" d="M1257 543 q0 -168 -57 -297 q-57 -129 -161 -200 q-104 -71 -234 -71 q-180 0 -273 131 l-4 0 l0 -577 l-426 0 l0 1495 l426 0 l0 -139 l4 0 q51 77 132 120.5 q81 43.5 184 43.5 q198 0 303.5 -132 q105.5 -132 105.5 -374 ZM825 530 q0 97 -37.5 152 q-37.5 55 -115.5 55 q-68 0 -110 -58 q-42 -58 -42 -159 l0 -20 q0 -97 36 -155 q36 -58 108 -58 q77 0 119 63.5 q42 63.5 42 179.5 Z" /><glyph glyph-name="" unicode="q" d="M786 -471 l0 588 l-4 0 q-48 -64 -129.5 -103 q-81.5 -39 -167.5 -39 q-127 0 -223.5 60 q-96.5 60 -150.5 174.5 q-54 114.5 -54 282.5 q0 166 60 293 q60 127 167 195.5 q107 68.5 236 68.5 q175 0 262 -131 l4 0 l0 106 l426 0 l0 -1495 l-426 0 ZM795 539 q0 93 -40.5 145.5 q-40.5 52.5 -107.5 52.5 q-70 0 -114 -64 q-44 -64 -44 -171 q0 -99 37 -157 q37 -58 111 -58 q74 0 116 58 q42 58 42 161 l0 33 Z" /><glyph glyph-name="" unicode="r" d="M872 659 q-24 11 -65 20 q-41 9 -68 9 q-211 0 -211 -244 l0 -444 l-426 0 l0 1024 l426 0 l0 -180 l4 0 q39 97 111 147.5 q72 50.5 168 50.5 q35 0 61 -12 l0 -371 Z" /><glyph glyph-name="" unicode="s" d="M934 340 q0 -174 -132.5 -269.5 q-132.5 -95.5 -369.5 -95.5 q-69 0 -170.5 14 q-101.5 14 -165.5 34 l0 299 q189 -84 316 -84 q125 0 125 65 q0 27 -29 44.5 q-29 17.5 -152 58.5 q-136 43 -198 114 q-62 71 -62 185 q0 159 126.5 251.5 q126.5 92.5 355.5 92.5 q134 0 284 -39 l0 -287 q-63 27 -138 45 q-75 18 -126 18 q-42 0 -67 -14 q-25 -14 -25 -39 q0 -29 27 -47 q27 -18 108 -43 q157 -46 225 -118 q68 -72 68 -185 Z" /><glyph glyph-name="" unicode="t" d="M823 14 q-29 -14 -95 -26.5 q-66 -12.5 -159 -12.5 q-178 0 -278.5 98 q-100.5 98 -100.5 279 l0 377 l-161 0 l0 295 l161 0 l0 201 l420 116 l0 -317 l213 0 l0 -295 l-213 0 l0 -307 q0 -135 107 -135 q50 0 106 22 l0 -295 Z" /><glyph glyph-name="" unicode="u" d="M754 0 l0 158 l-4 0 q-53 -73 -95.5 -107 q-42.5 -34 -96 -55 q-53.5 -21 -124.5 -21 q-168 0 -256 109 q-88 109 -88 322 l0 618 l426 0 l0 -586 q0 -151 113 -151 q62 0 93.5 41 q31.5 41 31.5 116 l0 580 l426 0 l0 -1024 l-426 0 Z" /><glyph glyph-name="" unicode="v" d="M848 0 l-506 0 l-342 1024 l444 0 l125 -559 q30 -135 33 -203 l6 0 q2 20 5.5 41 q3.5 21 148.5 721 l442 0 l-356 -1024 Z" /><glyph glyph-name="" unicode="w" d="M1430 0 l-443 0 l-102 498 q-19 90 -19 159 l-6 0 q-11 -106 -22 -153 l-111 -504 l-442 0 l-271 1024 l428 0 l88 -596 l15 -133 l6 0 q13 117 18 137 l131 592 l406 0 l113 -592 l9 -71 l5 -64 l6 0 l3 29 l91 698 l383 0 l-286 -1024 Z" /><glyph glyph-name="" unicode="x" d="M944 545 l330 -545 l-490 0 l-110 233 q-19 39 -43 107 l-4 0 q-21 -68 -27 -83.5 q-6 -15.5 -117 -256.5 l-487 0 l340 516 l-320 508 l492 0 l110 -238 q22 -41 44 -112 l4 0 q29 87 41 114 l104 236 l465 0 l-332 -479 Z" /><glyph glyph-name="" unicode="y" d="M301 -481 q-60 0 -129 10.5 q-69 10.5 -123 30.5 l0 321 q25 -19 74.5 -35 q49.5 -16 93.5 -16 q119 0 158 94 l33 80 l-428 1020 l471 0 l124 -494 q36 -138 39 -186 l4 0 q3 22 8.5 49 q5.5 27 155.5 631 l414 0 l-377 -1053 q-85 -242 -210.5 -347 q-125.5 -105 -307.5 -105 Z" /><glyph glyph-name="" unicode="z" d="M584 295 l422 0 l0 -295 l-981 0 l0 197 l460 532 l-417 0 l0 295 l929 0 l0 -242 l-413 -487 Z" /><glyph glyph-name="" unicode="{" d="M762 -326 q-185 0 -292 38.5 q-107 38.5 -154.5 120 q-47.5 81.5 -47.5 249.5 l0 180 q0 180 -149 180 l0 224 q149 0 149 182 l0 168 q0 176 46.5 258.5 q46.5 82.5 153 121 q106.5 38.5 294.5 38.5 l0 -224 q-82 0 -121 -37 q-39 -37 -39 -126 l0 -142 q0 -136 -37 -222 q-37 -86 -121 -126 l0 -4 q83 -40 120.5 -129 q37.5 -89 37.5 -234 l0 -127 q0 -90 37 -127.5 q37 -37.5 123 -37.5 l0 -224 Z" /><glyph glyph-name="" unicode="|" d="M244 -481 l0 2048 l327 0 l0 -2048 l-327 0 Z" /><glyph glyph-name="" unicode="}" d="M743 442 q-149 0 -149 -182 l0 -168 q0 -176 -46.5 -258.5 q-46.5 -82.5 -153 -121 q-106.5 -38.5 -294.5 -38.5 l0 224 q83 0 121.5 37 q38.5 37 38.5 126 l0 142 q0 135 36.5 221 q36.5 86 121.5 127 l0 4 q-83 41 -120.5 131 q-37.5 90 -37.5 232 l0 126 q0 89 -36 127.5 q-36 38.5 -124 38.5 l0 224 q186 0 292.5 -38.5 q106.5 -38.5 154 -120 q47.5 -81.5 47.5 -249.5 l0 -180 q0 -180 149 -180 l0 -224 Z" /><glyph glyph-name="" unicode="~" d="M1270 776 q-6 -175 -93 -281 q-87 -106 -231 -106 q-80 0 -139 20.5 q-59 20.5 -134 64.5 q-76 44 -116 44 q-48 0 -78.5 -36 q-30.5 -36 -36.5 -105 l-247 0 q5 181 93 285 q88 104 238 104 q69 0 121.5 -17 q52.5 -17 102.5 -44 q47 -26 86 -47 q39 -21 77 -21 q48 0 77 39.5 q29 39.5 32 99.5 l248 0 Z" /><glyph glyph-name="" unicode="å" d="M1040 0 l-63 264 l-428 0 l-68 -264 l-467 0 l494 1434 q-27 54 -27 114 q0 116 81.5 186 q81.5 70 209.5 70 q136 0 216.5 -71 q80.5 -71 80.5 -185 q0 -67 -25 -114 l465 -1434 l-469 0 ZM879 1548 q0 35 -26.5 61.5 q-26.5 26.5 -80.5 26.5 q-49 0 -73.5 -25.5 q-24.5 -25.5 -24.5 -62.5 q0 -37 27 -62.5 q27 -25.5 71 -25.5 q48 0 77.5 25 q29.5 25 29.5 63 ZM768 1106 l-10 0 q-9 -57 -13 -74 q-4 -17 -114 -430 l258 0 l-94 359 q-14 55 -19 90 l-8 55 Z" /><glyph glyph-name="" unicode="ç" d="M1208 39 q-132 -50 -346 -62 l0 -43 q195 -14 195 -178 q0 -111 -90.5 -170 q-90.5 -59 -257.5 -59 q-53 0 -115 6 l0 172 q37 -8 82 -8 q57 0 86 16.5 q29 16.5 29 42.5 q0 31 -23.5 45.5 q-23.5 14.5 -79.5 14.5 l-18 0 l-21 -2 l0 172 q-184 25 -316 118 q-132 93 -202 241.5 q-70 148.5 -70 338.5 q0 227 98 404 q98 177 277 273.5 q179 96.5 412 96.5 q186 0 360 -45 l0 -399 q-60 36 -143 56 q-83 20 -168 20 q-176 0 -277.5 -101 q-101.5 -101 -101.5 -274 q0 -172 101.5 -271.5 q101.5 -99.5 271.5 -99.5 q157 0 317 80 l0 -385 Z" /><glyph glyph-name="" unicode="ç" d="M946 29 q-84 -50 -316 -54 l0 -41 q195 -14 195 -178 q0 -111 -90.5 -170 q-90.5 -59 -257.5 -59 q-54 0 -115 6 l0 172 q37 -8 82 -8 q57 0 86 16.5 q29 16.5 29 42.5 q0 31 -23 45.5 q-23 14.5 -80 14.5 l-18 0 l-21 -2 l0 189 q-169 52 -264.5 182 q-95.5 130 -95.5 304 q0 176 74.5 301.5 q74.5 125.5 212.5 192 q138 66.5 320 66.5 q100 0 179.5 -13 q79.5 -13 102.5 -30 l0 -332 q-32 25 -92 44 q-60 19 -111 19 q-126 0 -190 -59 q-64 -59 -64 -168 q0 -106 63 -164.5 q63 -58.5 175 -58.5 q119 0 219 57 l0 -315 Z" /><glyph glyph-name="" unicode="&#x2020;" d="M575 907 l0 -665 l-266 0 l0 665 l-248 0 l0 228 l248 0 l0 299 l266 0 l0 -299 l248 0 l0 -228 l-248 0 Z" /><glyph glyph-name="" unicode="°" d="M700 1184 q0 -74 -37.5 -138 q-37.5 -64 -104 -101.5 q-66.5 -37.5 -140.5 -37.5 q-118 0 -200.5 80.5 q-82.5 80.5 -82.5 196.5 q0 113 81.5 193.5 q81.5 80.5 201.5 80.5 q117 0 199.5 -80 q82.5 -80 82.5 -194 ZM522 1184 q0 46 -30 77 q-30 31 -74 31 q-47 0 -78 -31 q-31 -31 -31 -77 q0 -46 32 -78.5 q32 -32.5 77 -32.5 q43 0 73.5 32.5 q30.5 32.5 30.5 78.5 Z" /><glyph glyph-name="" unicode="¢" d="M1032 205 q-48 -27 -147 -41 l0 -195 l-238 0 l0 185 q-139 8 -258 79.5 q-119 71.5 -178 182.5 q-59 111 -59 252 q0 151 57 267.5 q57 116.5 172.5 192 q115.5 75.5 265.5 91.5 l0 206 l238 0 l0 -206 q103 -10 147 -37 l0 -334 q-25 23 -98.5 44 q-73.5 21 -126.5 21 q-131 0 -201.5 -58 q-70.5 -58 -70.5 -167 q0 -105 67 -165 q67 -60 186 -60 q58 0 126 15 q68 15 118 44 l0 -317 Z" /><glyph glyph-name="" unicode="£" d="M166 0 l0 291 q95 24 139.5 83.5 q44.5 59.5 44.5 164.5 l0 65 l-164 0 l0 262 l164 0 l0 144 q0 209 130.5 328.5 q130.5 119.5 363.5 119.5 q117 0 241 -55 l0 -324 q-31 26 -92.5 47 q-61.5 21 -105.5 21 q-82 0 -120 -48 q-38 -48 -38 -126 l0 -107 l246 0 l0 -262 l-246 0 l0 -33 q0 -77 -33 -144.5 q-33 -67.5 -90 -115.5 l584 0 l0 -311 l-1024 0 Z" /><glyph glyph-name="" unicode="§" d="M971 713 q0 -72 -42 -146 q-42 -74 -108 -121 q34 -34 55 -79 q21 -45 21 -88 q0 -160 -112.5 -252.5 q-112.5 -92.5 -303.5 -92.5 q-80 0 -171 22 q-91 22 -154 56 l0 303 q212 -127 352 -127 q47 0 73.5 20 q26.5 20 26.5 58 q0 28 -19.5 47 q-19.5 19 -66.5 39 l-96 41 q-115 52 -168.5 96.5 q-53.5 44.5 -84 103.5 q-30.5 59 -30.5 138 q0 77 33 132 q33 55 80 98 q-34 38 -56 90.5 q-22 52.5 -22 111.5 q0 151 106.5 239.5 q106.5 88.5 293.5 88.5 q70 0 149 -18 q79 -18 135 -43 l0 -312 q-93 66 -157.5 95.5 q-64.5 29.5 -126.5 29.5 q-99 0 -99 -72 q0 -32 33 -58 q33 -26 105 -52 l81 -31 q150 -58 211.5 -133.5 q61.5 -75.5 61.5 -183.5 ZM694 682 q0 38 -18 58 q-18 20 -63 43 q-45 23 -146 63 q-51 -34 -51 -86 q0 -55 51.5 -94.5 q51.5 -39.5 165.5 -83.5 q23 11 42 36.5 q19 25.5 19 63.5 Z" /><glyph glyph-name="" unicode="&#x2022;" d="M739 487 q0 -77 -40 -145 q-40 -68 -108.5 -107.5 q-68.5 -39.5 -144.5 -39.5 q-118 0 -203 85 q-85 85 -85 207 q0 119 83.5 204 q83.5 85 204.5 85 q124 0 208.5 -86.5 q84.5 -86.5 84.5 -202.5 Z" /><glyph glyph-name="" unicode="¶" d="M948 1225 l0 -1225 l-227 0 l0 1225 l-98 0 l0 -1225 l-228 0 l0 774 q-125 14 -204.5 108 q-79.5 94 -79.5 226 q0 141 93.5 233.5 q93.5 92.5 237.5 92.5 l615 0 l0 -209 l-109 0 Z" /><glyph glyph-name="" unicode="ß" d="M1360 416 q0 -126 -69 -230.5 q-69 -104.5 -185 -157.5 q-116 -53 -266 -53 q-50 0 -99 5.5 q-49 5.5 -133 27.5 l0 330 q88 -51 172 -51 q75 0 111.5 40 q36.5 40 36.5 109 q0 87 -84 134.5 q-84 47.5 -236 47.5 l0 283 q98 0 156.5 41.5 q58.5 41.5 58.5 132.5 q0 65 -38.5 109.5 q-38.5 44.5 -102.5 44.5 q-74 0 -114 -55.5 q-40 -55.5 -40 -149.5 l0 -1024 l-426 0 l0 989 q0 167 70.5 291 q70.5 124 206 192 q135.5 68 328.5 68 q168 0 291.5 -55.5 q123.5 -55.5 190 -153.5 q66.5 -98 66.5 -217 q0 -114 -63 -198.5 q-63 -84.5 -172 -118.5 l0 -4 q159 -34 249.5 -131 q90.5 -97 90.5 -246 Z" /><glyph glyph-name="" unicode="­" d="M143 393 l0 287 l547 0 l0 -287 l-547 0 Z" /><glyph glyph-name="" unicode="®" d="M1653 717 q0 -206 -103.5 -377 q-103.5 -171 -283 -268 q-179.5 -97 -392.5 -97 q-219 0 -396.5 94.5 q-177.5 94.5 -276.5 264.5 q-99 170 -99 379 q0 207 102 378 q102 171 281 269 q179 98 398 98 q215 0 392.5 -94.5 q177.5 -94.5 277.5 -265 q100 -170.5 100 -381.5 ZM1485 713 q0 171 -78 309.5 q-78 138.5 -217 215.5 q-139 77 -311 77 q-172 0 -312.5 -79 q-140.5 -79 -218.5 -217 q-78 -138 -78 -304 q0 -169 79 -306.5 q79 -137.5 220 -213.5 q141 -76 310 -76 q165 0 305 77 q140 77 220.5 214 q80.5 137 80.5 303 ZM979 276 l-53 242 q-8 38 -27.5 61 q-19.5 23 -44.5 23 l-70 0 l0 -326 l-266 0 l0 898 l365 0 q186 0 284.5 -65.5 q98.5 -65.5 98.5 -199.5 q0 -170 -197 -229 l0 -4 q39 -7 76 -42 q37 -35 49 -75 l96 -283 l-311 0 ZM977 879 q0 34 -25.5 58 q-25.5 24 -85.5 24 l-82 0 l0 -170 l101 0 q42 0 67 23.5 q25 23.5 25 64.5 Z" /><glyph glyph-name="" unicode="©" d="M1653 719 q0 -206 -102 -376.5 q-102 -170.5 -282 -269 q-180 -98.5 -395 -98.5 q-219 0 -396.5 94.5 q-177.5 94.5 -276.5 264.5 q-99 170 -99 379 q0 207 102 378 q102 171 281 269 q179 98 398 98 q217 0 394 -94.5 q177 -94.5 276.5 -265 q99.5 -170.5 99.5 -379.5 ZM1485 715 q0 170 -77 307.5 q-77 137.5 -216 215 q-139 77.5 -313 77.5 q-172 0 -312.5 -79 q-140.5 -79 -218.5 -217 q-78 -138 -78 -304 q0 -169 79 -306.5 q79 -137.5 220 -213.5 q141 -76 310 -76 q164 0 304 77.5 q140 77.5 221 215 q81 137.5 81 303.5 ZM1186 324 q-128 -66 -273 -66 q-135 0 -244.5 57 q-109.5 57 -171 158.5 q-61.5 101.5 -61.5 224.5 q0 216 141 348 q141 132 369 132 q120 0 240 -58 l0 -284 q-42 31 -103.5 52 q-61.5 21 -130.5 21 q-89 0 -148 -56 q-59 -56 -59 -144 q0 -82 62.5 -135.5 q62.5 -53.5 150.5 -53.5 q133 0 228 72 l0 -268 Z" /><glyph glyph-name="" unicode="&#x2122;" d="M1210 772 l0 434 l-6 0 l-106 -434 l-207 0 l-90 438 l-6 0 l0 -438 l-181 0 l0 662 l291 0 l94 -435 l5 0 l118 435 l264 0 l0 -662 l-176 0 ZM403 1296 l0 -524 l-182 0 l0 524 l-149 0 l0 138 l489 0 l0 -138 l-158 0 Z" /><glyph glyph-name="" unicode="´" d="M285 1186 l-301 0 l299 321 l358 0 l-356 -321 Z" /><glyph glyph-name="" unicode="¨" d="M954 1339 q0 -73 -52 -118.5 q-52 -45.5 -140 -45.5 q-84 0 -138.5 46.5 q-54.5 46.5 -54.5 117.5 q0 71 53 115 q53 44 140 44 q87 0 139.5 -44.5 q52.5 -44.5 52.5 -114.5 ZM453 1339 q0 -71 -51.5 -117.5 q-51.5 -46.5 -141.5 -46.5 q-85 0 -138.5 47.5 q-53.5 47.5 -53.5 116.5 q0 71 53 115 q53 44 139 44 q87 0 140 -43.5 q53 -43.5 53 -115.5 Z" /><glyph glyph-name="" unicode="&#x2260;" d="M709 236 l-125 -236 l-316 0 l125 236 l-155 0 l0 247 l286 0 l97 183 l-383 0 l0 247 l514 0 l143 275 l315 0 l-143 -275 l162 0 l0 -247 l-293 0 l-96 -183 l389 0 l0 -247 l-520 0 Z" /><glyph glyph-name="" unicode="æ" d="M1040 0 l0 264 l-432 0 l-119 -264 l-501 0 l747 1434 l1198 0 l0 -338 l-460 0 l0 -209 l432 0 l0 -338 l-432 0 l0 -211 l493 0 l0 -338 l-926 0 ZM1040 1096 l-55 0 l-240 -525 l295 0 l0 525 Z" /><glyph glyph-name="" unicode="ø" d="M1505 721 q0 -216 -93 -386.5 q-93 -170.5 -260 -265 q-167 -94.5 -374 -94.5 q-228 0 -409 117 l-146 -164 l-160 133 l150 172 q-152 193 -152 465 q0 219 93 394 q93 175 261 270.5 q168 95.5 382 95.5 q230 0 401 -112 l127 143 l162 -133 l-133 -152 q151 -195 151 -483 ZM1094 707 q0 86 -11 194 l-481 -547 q82 -61 186 -61 q84 0 155 51.5 q71 51.5 111 144 q40 92.5 40 218.5 ZM969 1083 q-79 58 -174 58 q-150 0 -236 -119.5 q-86 -119.5 -86 -319.5 q0 -97 10 -165 l486 546 Z" /><glyph glyph-name="" unicode="&#x221e;" d="M1599 569 q0 -107 -51.5 -200 q-51.5 -93 -141 -146 q-89.5 -53 -196.5 -53 q-127 0 -218.5 61.5 q-91.5 61.5 -160.5 180.5 q-66 -101 -168 -162.5 q-102 -61.5 -212 -61.5 q-171 0 -279.5 113.5 q-108.5 113.5 -108.5 300.5 q0 107 51.5 199.5 q51.5 92.5 141.5 146 q90 53.5 197 53.5 q127 0 217.5 -61 q90.5 -61 158.5 -180 q66 101 170 162 q104 61 213 61 q172 0 279.5 -114 q107.5 -114 107.5 -300 ZM1303 573 q0 65 -41.5 104.5 q-41.5 39.5 -108.5 39.5 q-105 0 -186 -142 q57 -85 98 -113 q41 -28 92 -28 q58 0 102 40.5 q44 40.5 44 98.5 ZM696 596 q-43 64 -68 89 q-25 25 -54.5 38.5 q-29.5 13.5 -67.5 13.5 q-61 0 -103.5 -41.5 q-42.5 -41.5 -42.5 -97.5 q0 -64 42.5 -103.5 q42.5 -39.5 107.5 -39.5 q104 0 186 141 Z" /><glyph glyph-name="" unicode="±" d="M856 725 l0 -373 l-248 0 l0 373 l-364 0 l0 248 l364 0 l0 383 l248 0 l0 -383 l375 0 l0 -248 l-375 0 ZM238 0 l0 248 l985 0 l0 -248 l-985 0 Z" /><glyph glyph-name="" unicode="&#x2264;" d="M238 643 l0 258 l991 356 l0 -292 l-703 -195 l0 -4 l703 -195 l0 -292 l-991 364 ZM238 0 l0 248 l991 0 l0 -248 l-991 0 Z" /><glyph glyph-name="" unicode="&#x2265;" d="M238 279 l0 292 l700 195 l0 4 l-700 195 l0 292 l991 -356 l0 -258 l-991 -364 ZM238 0 l0 248 l991 0 l0 -248 l-991 0 Z" /><glyph glyph-name="" unicode="¥" d="M877 793 l243 0 l0 -209 l-293 0 l0 -123 l293 0 l0 -213 l-293 0 l0 -248 l-409 0 l0 248 l-301 0 l0 213 l301 0 l0 123 l-301 0 l0 209 l245 0 l-344 641 l406 0 l192 -478 l25 -59 l4 0 l25 59 l182 478 l385 0 l-360 -641 Z" /><glyph glyph-name="" unicode="µ" d="M772 0 l2 137 l-4 0 q-18 -59 -68 -103 q-50 -44 -102 -44 q-48 0 -76 14 l-4 0 l4 -305 l-422 0 l0 1325 l426 0 l0 -539 q0 -186 107 -186 q45 0 79.5 23 q34.5 23 51.5 65 l0 637 l426 0 l0 -1024 l-420 0 Z" /><glyph glyph-name="" unicode="&#x2202;" d="M1227 907 q0 -289 -88.5 -504 q-88.5 -215 -249.5 -321.5 q-161 -106.5 -383 -106.5 q-220 0 -338.5 112.5 q-118.5 112.5 -118.5 322.5 q0 156 69 297 q69 141 183.5 213.5 q114.5 72.5 257.5 72.5 q175 0 264 -131 l4 0 l2 22 l0 21 q0 156 -58 228.5 q-58 72.5 -179 72.5 q-66 0 -141.5 -17 q-75.5 -17 -143.5 -48 l80 311 q159 57 307 57 q265 0 399 -148 q134 -148 134 -454 ZM762 608 q-11 54 -38.5 83.5 q-27.5 29.5 -68.5 29.5 q-49 0 -91 -44.5 q-42 -44.5 -68.5 -117 q-26.5 -72.5 -26.5 -137.5 q0 -71 27 -103 q27 -32 69 -32 q65 0 118 87.5 q53 87.5 79 233.5 Z" /><glyph glyph-name="" unicode="&#x2211;" d="M49 -471 l0 240 l559 723 l-536 690 l0 252 l1220 0 l0 -338 l-618 0 l428 -594 l-455 -635 l680 0 l0 -338 l-1278 0 Z" /><glyph glyph-name="" unicode="&#x220f;" d="M1130 -471 l0 1536 l-557 0 l0 -1536 l-432 0 l0 1905 l1422 0 l0 -1905 l-433 0 Z" /><glyph glyph-name="" unicode="&#x222b;" d="M1090 1206 q-66 23 -123 23 q-72 0 -106 -36.5 q-34 -36.5 -34 -98.5 l0 -1168 q0 -125 -58 -220.5 q-58 -95.5 -168.5 -148.5 q-110.5 -53 -268.5 -53 q-40 0 -98 6.5 q-58 6.5 -95 16.5 l0 311 q63 -22 123 -22 q71 0 105 36.5 q34 36.5 34 98.5 l0 1167 q0 125 58 220.5 q58 95.5 168.5 148.5 q110.5 53 269.5 53 q114 0 193 -22 l0 -312 Z" /><glyph glyph-name="" unicode="ª" d="M498 717 l0 88 l-4 0 q-58 -66 -104.5 -87.5 q-46.5 -21.5 -113.5 -21.5 q-92 0 -154.5 62.5 q-62.5 62.5 -62.5 156.5 q0 115 69 174.5 q69 59.5 210 77.5 l160 21 q0 45 -34 63.5 q-34 18.5 -102 18.5 q-39 0 -108.5 -22 q-69.5 -22 -128.5 -50 l0 203 q64 24 144.5 38.5 q80.5 14.5 158.5 14.5 q132 0 203.5 -32 q71.5 -32 106 -103 q34.5 -71 34.5 -191 l0 -411 l-274 0 ZM336 961 q0 -32 22.5 -51 q22.5 -19 53.5 -19 q35 0 60.5 28.5 q25.5 28.5 25.5 63.5 l0 59 l-76 -8 q-34 -3 -60 -21 q-26 -18 -26 -52 Z" /><glyph glyph-name="" unicode="º" d="M893 1087 q0 -183 -110.5 -287 q-110.5 -104 -309.5 -104 q-196 0 -306 102 q-110 102 -110 281 q0 174 112 274.5 q112 100.5 306 100.5 q131 0 225 -48 q94 -48 143.5 -131.5 q49.5 -83.5 49.5 -187.5 ZM586 1083 q0 73 -30 113.5 q-30 40.5 -81 40.5 q-113 0 -113 -158 q0 -164 113 -164 q54 0 82.5 43.5 q28.5 43.5 28.5 124.5 Z" /><glyph glyph-name="" unicode="&#x2126;" d="M858 0 l0 338 q113 113 157 217 q44 104 44 233 q0 132 -72 217 q-72 85 -182 85 q-77 0 -139 -38 q-62 -38 -98 -110.5 q-36 -72.5 -36 -173.5 q0 -79 21.5 -148.5 q21.5 -69.5 58.5 -132.5 q37 -63 115 -149 l0 -338 l-657 0 l0 338 l336 0 q-166 89 -249 223.5 q-83 134.5 -83 304.5 q0 170 93.5 306 q93.5 136 260.5 211 q167 75 367 75 q210 0 371.5 -73.5 q161.5 -73.5 256.5 -211.5 q95 -138 95 -299 q0 -184 -89 -315.5 q-89 -131.5 -262 -220.5 l349 0 l0 -338 l-658 0 Z" /><glyph glyph-name="" unicode="æ" d="M1038 391 q31 -141 250 -141 q149 0 285 59 l0 -270 q-163 -64 -395 -64 q-133 0 -242.5 41 q-109.5 41 -171.5 111 l-4 0 q-143 -152 -344 -152 q-181 0 -276 84.5 q-95 84.5 -95 237.5 q0 146 96 235.5 q96 89.5 271 106.5 l258 25 q0 59 -45 91.5 q-45 32.5 -123 32.5 q-81 0 -177 -25.5 q-96 -25.5 -184 -72.5 l0 277 q95 36 207 59 q112 23 187 23 q206 0 342 -93 l4 0 q149 93 307 93 q220 0 351.5 -136.5 q131.5 -136.5 131.5 -367.5 l0 -154 l-633 0 ZM1294 614 q0 177 -127 177 q-53 0 -91 -52 q-38 -52 -38 -125 l256 0 ZM668 459 l-138 -10 q-55 -5 -84.5 -33.5 q-29.5 -28.5 -29.5 -69.5 q0 -40 30 -67 q30 -27 76 -27 q65 0 105.5 49 q40.5 49 40.5 123 l0 35 Z" /><glyph glyph-name="" unicode="ø" d="M1116 862 q125 -148 125 -338 q0 -256 -153.5 -401.5 q-153.5 -145.5 -440.5 -145.5 q-198 0 -338 78 l-133 -135 l-143 125 l133 135 q-109 144 -109 340 q0 163 73 283 q73 120 208 184 q135 64 311 64 q182 0 318 -70 l125 125 l143 -125 l-119 -119 ZM750 762 q-48 20 -99 20 q-105 0 -152.5 -66.5 q-47.5 -66.5 -47.5 -193.5 l0 -29 l2 -26 l297 295 ZM850 528 l0 33 l-2 33 l-318 -320 q49 -28 121 -28 q97 0 148 71.5 q51 71.5 51 210.5 Z" /><glyph glyph-name="" unicode="¿" d="M721 846 q0 -88 -64.5 -142.5 q-64.5 -54.5 -173.5 -54.5 q-106 0 -171.5 54.5 q-65.5 54.5 -65.5 142.5 q0 89 64.5 146 q64.5 57 172.5 57 q106 0 172 -58.5 q66 -58.5 66 -144.5 ZM858 -362 q-65 -37 -176.5 -64 q-111.5 -27 -198.5 -27 q-245 0 -374 96.5 q-129 96.5 -129 280.5 q0 222 215 391 q73 58 103 102 q30 44 30 109 l0 35 l336 0 l0 -88 q0 -90 -28 -160.5 q-28 -70.5 -93 -126.5 q-91 -77 -109.5 -98.5 q-18.5 -21.5 -26.5 -43 q-8 -21.5 -8 -50.5 q0 -40 33.5 -66 q33.5 -26 87.5 -26 q156 0 338 129 l0 -393 Z" /><glyph glyph-name="" unicode=" " d="" /><glyph glyph-name="" unicode="¡" d="M612 846 q0 -88 -64.5 -142.5 q-64.5 -54.5 -172.5 -54.5 q-108 0 -173 55.5 q-65 55.5 -65 141.5 q0 89 64.5 146 q64.5 57 173.5 57 q105 0 171 -58.5 q66 -58.5 66 -144.5 ZM154 -410 l53 951 l342 0 l53 -951 l-448 0 Z" /><glyph glyph-name="" unicode="¬" d="M981 236 l0 342 l-743 0 l0 247 l991 0 l0 -589 l-248 0 Z" /><glyph glyph-name="" unicode="&#x221a;" d="M838 -2 l-263 0 l-319 711 l-188 0 l0 206 l409 0 l221 -505 l306 1106 l249 0 l-415 -1518 Z" /><glyph glyph-name="" unicode="&#x192;" d="M1044 1174 q-64 30 -133 30 q-124 0 -147 -137 l-23 -137 l158 0 l0 -215 l-192 0 l-91 -594 q-30 -196 -140 -311 q-110 -115 -277 -115 q-50 0 -121 20 l0 242 q39 -20 92 -20 q123 0 154 202 l88 576 l-105 0 l0 215 l142 0 l22 149 q25 167 135 267 q110 100 279 100 q82 0 159 -23 l0 -249 Z" /><glyph glyph-name="" unicode="&#x2248;" d="M1270 1012 q-6 -178 -94 -283.5 q-88 -105.5 -230 -105.5 q-78 0 -137 20 q-59 20 -136 65 q-76 44 -116 44 q-47 0 -78 -35.5 q-31 -35.5 -37 -104.5 l-247 0 q5 179 92.5 283 q87.5 104 238.5 104 q115 0 224 -61 q47 -26 86 -47 q39 -21 77 -21 q48 0 77.5 41 q29.5 41 31.5 101 l248 0 ZM1270 539 q-6 -175 -93 -281 q-87 -106 -231 -106 q-78 0 -137 20 q-59 20 -136 65 q-76 44 -116 44 q-48 0 -78.5 -36 q-30.5 -36 -36.5 -106 l-247 0 q5 181 93 285 q88 104 238 104 q115 0 224 -61 q47 -26 86 -47 q39 -21 77 -21 q47 0 77 40 q30 40 32 100 l248 0 Z" /><glyph glyph-name="" unicode="&#x394;" d="M74 0 l0 164 l477 1270 l536 0 l453 -1270 l0 -164 l-1466 0 ZM811 1106 l-10 0 q-2 -12 -7.5 -50 q-5.5 -38 -21.5 -87 l-207 -631 l473 0 l-200 623 q-21 60 -25 124 l-2 21 Z" /><glyph glyph-name="" unicode="«" d="M926 201 l-346 336 l346 344 l334 0 l-351 -344 l353 -336 l-336 0 ZM379 201 l-346 336 l346 344 l334 0 l-351 -344 l353 -336 l-336 0 Z" /><glyph glyph-name="" unicode="»" d="M915 201 l-335 0 l352 336 l-350 344 l333 0 l347 -344 l-347 -336 ZM369 201 l-336 0 l352 336 l-350 344 l334 0 l346 -344 l-346 -336 Z" /><glyph glyph-name="" unicode="&#x2026;" d="M2021 178 q0 -91 -64 -147 q-64 -56 -177 -56 q-103 0 -168.5 58.5 q-65.5 58.5 -65.5 144.5 q0 88 64.5 142.5 q64.5 54.5 173.5 54.5 q106 0 171.5 -54.5 q65.5 -54.5 65.5 -142.5 ZM1309 178 q0 -91 -64 -147 q-64 -56 -178 -56 q-103 0 -168 59 q-65 59 -65 144 q0 88 64.5 142.5 q64.5 54.5 172.5 54.5 q105 0 171.5 -54 q66.5 -54 66.5 -143 ZM596 178 q0 -91 -64 -147 q-64 -56 -178 -56 q-103 0 -168 59 q-65 59 -65 144 q0 88 64.5 142.5 q64.5 54.5 172.5 54.5 q107 0 172.5 -54.5 q65.5 -54.5 65.5 -142.5 Z" /><glyph glyph-name="" unicode="&#x152;" d="M979 0 q-84 -25 -221 -25 q-202 0 -361 93 q-159 93 -247.5 261 q-88.5 168 -88.5 369 q0 222 89.5 396 q89.5 174 253 269 q163.5 95 372.5 95 q62 0 126 -7 q64 -7 97 -17 l859 0 l0 -338 l-461 0 l0 -209 l432 0 l0 -338 l-432 0 l0 -211 l493 0 l0 -338 l-911 0 ZM946 1022 q-65 68 -153 68 q-130 0 -201.5 -99.5 q-71.5 -99.5 -71.5 -285.5 q0 -170 70.5 -265.5 q70.5 -95.5 195.5 -95.5 q94 0 160 66 l0 612 Z" /><glyph glyph-name="" unicode="&#x153;" d="M1221 391 q11 -67 75.5 -104 q64.5 -37 171.5 -37 q73 0 150 16 q77 16 133 41 l0 -270 q-70 -28 -163 -45 q-93 -17 -173 -17 q-235 0 -401 166 l-4 0 q-63 -74 -167.5 -119 q-104.5 -45 -240.5 -45 q-156 0 -280.5 65 q-124.5 65 -194.5 188 q-70 123 -70 290 q0 160 68.5 280.5 q68.5 120.5 192 185.5 q123.5 65 278.5 65 q117 0 220 -37 q103 -37 173 -107 l4 0 q64 70 161.5 106 q97.5 36 215.5 36 q151 0 260 -63 q109 -63 166 -177 q57 -114 57 -258 l0 -160 l-632 0 ZM1477 614 q0 177 -127 177 q-54 0 -89.5 -49.5 q-35.5 -49.5 -41.5 -127.5 l258 0 ZM809 526 q0 98 -41 155.5 q-41 57.5 -117 57.5 q-162 0 -162 -219 q0 -231 162 -231 q158 0 158 237 Z" /><glyph glyph-name="" unicode="&#x2013;" d="M0 393 l0 287 l1024 0 l0 -287 l-1024 0 Z" /><glyph glyph-name="" unicode="&#x2014;" d="M0 393 l0 287 l2048 0 l0 -287 l-2048 0 Z" /><glyph glyph-name="" unicode="&#x201c;" d="M950 1024 l-368 0 l239 444 l250 0 l-121 -444 ZM457 1024 l-369 0 l240 444 l250 0 l-121 -444 Z" /><glyph glyph-name="" unicode="&#x201d;" d="M858 1024 l-248 0 l123 444 l367 0 l-242 -444 ZM365 1024 l-248 0 l123 444 l366 0 l-241 -444 Z" /><glyph glyph-name="" unicode="&#x2018;" d="M457 1024 l-369 0 l240 444 l250 0 l-121 -444 Z" /><glyph glyph-name="" unicode="&#x2019;" d="M365 1024 l-248 0 l123 444 l366 0 l-241 -444 Z" /><glyph glyph-name="" unicode="÷" d="M893 983 q0 -69 -45 -114.5 q-45 -45.5 -113 -45.5 q-67 0 -115.5 47.5 q-48.5 47.5 -48.5 110.5 q0 68 46.5 117 q46.5 49 117.5 49 q70 0 114 -46.5 q44 -46.5 44 -117.5 ZM238 455 l0 247 l991 0 l0 -247 l-991 0 ZM893 170 q0 -69 -45 -114.5 q-45 -45.5 -113 -45.5 q-67 0 -115.5 47.5 q-48.5 47.5 -48.5 110.5 q0 69 46 116.5 q46 47.5 118 47.5 q68 0 113 -44.5 q45 -44.5 45 -117.5 Z" /><glyph glyph-name="" unicode="&#x25ca;" d="M1128 717 l-473 -717 l-114 0 l-469 715 l469 719 l114 0 l473 -717 ZM899 717 l-299 471 l-299 -471 l299 -471 l299 471 Z" /><glyph glyph-name="" unicode="&#x2044;&#x2215;" d="M197 0 l-316 0 l922 1434 l315 0 l-921 -1434 Z" /><glyph glyph-name="" unicode="&#x20ac;" d="M1145 41 q-46 -31 -138.5 -49.5 q-92.5 -18.5 -187.5 -18.5 q-226 0 -377 119 q-151 119 -202 340 l-136 0 l0 213 l101 0 l-2 55 l0 34 l2 34 l-101 0 l0 209 l132 0 q53 231 214 356 q161 125 408 125 q78 0 160 -15.5 q82 -15.5 127 -39.5 l0 -322 q-114 95 -248 95 q-108 0 -180 -51.5 q-72 -51.5 -103 -147.5 l381 0 l0 -209 l-417 0 l-3 -66 l3 -57 l417 0 l0 -213 l-374 0 q34 -85 100 -131.5 q66 -46.5 162 -46.5 q142 0 262 94 l0 -307 Z" /><glyph glyph-name="" unicode="&#x2039;" d="M381 201 l-348 336 l348 344 l334 0 l-350 -344 l352 -336 l-336 0 Z" /><glyph glyph-name="" unicode="&#x203a;" d="M369 201 l-336 0 l352 336 l-350 344 l334 0 l348 -344 l-348 -336 Z" /><glyph glyph-name="" unicode="&#xfb01;" d="M1436 1300 q0 -90 -65.5 -146 q-65.5 -56 -172.5 -56 q-104 0 -170.5 58 q-66.5 58 -66.5 144 q0 88 64.5 142.5 q64.5 54.5 172.5 54.5 q105 0 171.5 -54 q66.5 -54 66.5 -143 ZM985 0 l0 1024 l426 0 l0 -1024 l-426 0 ZM891 1206 q-66 23 -123 23 q-71 0 -105 -36.5 q-34 -36.5 -34 -98.5 l0 -70 l237 0 l0 -295 l-237 0 l0 -729 l-426 0 l0 729 l-172 0 l0 295 l172 0 l0 94 q0 125 58 220.5 q58 95.5 168.5 148.5 q110.5 53 268.5 53 q114 0 193 -22 l0 -312 Z" /><glyph glyph-name="" unicode="&#xfb02;" d="M985 0 l0 1516 l426 0 l0 -1516 l-426 0 ZM891 1206 q-66 23 -123 23 q-71 0 -105 -36.5 q-34 -36.5 -34 -98.5 l0 -70 l237 0 l0 -295 l-237 0 l0 -729 l-426 0 l0 729 l-172 0 l0 295 l172 0 l0 94 q0 125 58 220.5 q58 95.5 168.5 148.5 q110.5 53 268.5 53 q114 0 193 -22 l0 -312 Z" /><glyph glyph-name="" unicode="&#x2021;" d="M575 543 l0 -301 l-266 0 l0 301 l-248 0 l0 221 l248 0 l0 160 l-248 0 l0 227 l248 0 l0 283 l266 0 l0 -283 l248 0 l0 -227 l-248 0 l0 -160 l248 0 l0 -221 l-248 0 Z" /><glyph glyph-name="" unicode="·" d="M565 713 q0 -91 -64 -147 q-64 -56 -177 -56 q-102 0 -168 58 q-66 58 -66 145 q0 89 65.5 142.5 q65.5 53.5 172.5 53.5 q105 0 171 -53.5 q66 -53.5 66 -142.5 Z" /><glyph glyph-name="" unicode="&#x201a;" d="M336 -225 l-248 0 l123 444 l367 0 l-242 -444 Z" /><glyph glyph-name="" unicode="&#x201e;" d="M829 -225 l-247 0 l123 444 l366 0 l-242 -444 ZM336 -225 l-248 0 l123 444 l367 0 l-242 -444 Z" /><glyph glyph-name="" unicode="&#x2030;" d="M2540 367 q0 -175 -103 -281 q-103 -106 -278 -106 q-162 0 -259.5 99 q-97.5 99 -97.5 261 q0 178 104 282.5 q104 104.5 277 104.5 q166 0 261.5 -95 q95.5 -95 95.5 -265 ZM1737 367 q0 -175 -103 -281 q-103 -106 -278 -106 q-162 0 -259.5 99 q-97.5 99 -97.5 261 q0 178 104 282.5 q104 104.5 277 104.5 q166 0 261.5 -95 q95.5 -95 95.5 -265 ZM618 0 l-315 0 l922 1434 l315 0 l-922 -1434 ZM838 1092 q0 -178 -103.5 -282.5 q-103.5 -104.5 -275.5 -104.5 q-162 0 -259.5 99 q-97.5 99 -97.5 261 q0 176 101.5 282.5 q101.5 106.5 277.5 106.5 q166 0 261.5 -97 q95.5 -97 95.5 -265 ZM2277 354 q0 71 -27 111.5 q-27 40.5 -73 40.5 q-53 0 -81 -43.5 q-28 -43.5 -28 -114.5 q0 -70 26 -108.5 q26 -38.5 77 -38.5 q52 0 79 40.5 q27 40.5 27 112.5 ZM1475 354 q0 71 -27 111.5 q-27 40.5 -74 40.5 q-52 0 -80 -42.5 q-28 -42.5 -28 -115.5 q0 -69 25.5 -108 q25.5 -39 76.5 -39 q52 0 79.5 40 q27.5 40 27.5 113 ZM575 1081 q0 69 -25.5 109.5 q-25.5 40.5 -72.5 40.5 q-52 0 -80 -42.5 q-28 -42.5 -28 -115.5 q0 -69 25.5 -108 q25.5 -39 76.5 -39 q50 0 77 40 q27 40 27 115 Z" /><glyph glyph-name="" unicode="&#x131;" d="M102 0 l0 1024 l426 0 l0 -1024 l-426 0 Z" /><glyph glyph-name="" unicode="&#x2c6;" d="M539 1186 l-148 153 l-147 -153 l-262 0 l256 321 l317 0 l256 -321 l-272 0 Z" /><glyph glyph-name="" unicode="&#x2dc;" d="M784 1540 q0 -165 -60 -252.5 q-60 -87.5 -173 -87.5 q-88 0 -170 49 q-34 20 -62.5 38 q-28.5 18 -60.5 18 q-38 0 -60 -31 q-22 -31 -22 -88 l-174 0 q0 170 61.5 255 q61.5 85 167.5 85 q102 0 189 -58 q29 -18 55 -32.5 q26 -14.5 57 -14.5 q34 0 55 29.5 q21 29.5 21 89.5 l176 0 Z" /><glyph glyph-name="" unicode="&#x2c9;" d="M16 1187 l0 223 l655 0 l0 -223 l-655 0 Z" /><glyph glyph-name="" unicode="&#x2d8;" d="M743 1532 q-16 -167 -117 -256.5 q-101 -89.5 -276 -89.5 q-112 0 -199 44 q-87 44 -136 124 q-49 80 -50 178 l240 0 q10 -55 49 -87 q39 -32 102 -32 q62 0 100 32 q38 32 48 87 l239 0 Z" /><glyph glyph-name="" unicode="&#x2d9;" d="M489 1350 q0 -73 -53 -118.5 q-53 -45.5 -139 -45.5 q-84 0 -138.5 47 q-54.5 47 -54.5 117 q0 72 53.5 115.5 q53.5 43.5 139.5 43.5 q87 0 139.5 -43.5 q52.5 -43.5 52.5 -115.5 Z" /><glyph glyph-name="" unicode="&#x2da;" d="M541 1421 q0 -106 -75.5 -170.5 q-75.5 -64.5 -195.5 -64.5 q-115 0 -189.5 65.5 q-74.5 65.5 -74.5 169.5 q0 72 34.5 124.5 q34.5 52.5 95.5 81 q61 28.5 134 28.5 q124 0 197.5 -64.5 q73.5 -64.5 73.5 -169.5 ZM367 1421 q0 32 -23.5 56 q-23.5 24 -73.5 24 q-45 0 -67.5 -23 q-22.5 -23 -22.5 -57 q0 -34 25.5 -57 q25.5 -23 64.5 -23 q42 0 69.5 22.5 q27.5 22.5 27.5 57.5 Z" /><glyph glyph-name="" unicode="¸" d="M514 -244 q0 -111 -90.5 -170 q-90.5 -59 -257.5 -59 q-53 0 -115 6 l0 172 q37 -8 82 -8 q57 0 86 16.5 q29 16.5 29 42.5 q0 31 -23.5 45.5 q-23.5 14.5 -79.5 14.5 l-18 0 l-21 -2 l0 186 l213 0 l0 -66 q195 -14 195 -178 Z" /><glyph glyph-name="" unicode="&#x2dd;" d="M777 1186 l-303 0 l217 323 l346 0 l-260 -323 ZM291 1186 l-303 0 l217 323 l346 0 l-260 -323 Z" /><glyph glyph-name="" unicode="&#x2db;" d="M375 0 q-24 -38 -42 -85.5 q-18 -47.5 -18 -85.5 q0 -37 20 -56 q20 -19 53 -19 q56 0 118 28 l0 -154 q-34 -19 -86.5 -31.5 q-52.5 -12.5 -93.5 -12.5 q-116 0 -174 54.5 q-58 54.5 -58 148.5 q0 58 27.5 113.5 q27.5 55.5 76.5 99.5 l177 0 Z" /><glyph glyph-name="" unicode="&#x2c7;" d="M811 1507 l-256 -321 l-317 0 l-256 321 l262 0 l147 -153 l148 153 l272 0 Z" /><glyph glyph-name="" unicode="&#x141;" d="M141 0 l0 406 l-153 -66 l0 338 l153 65 l0 691 l432 0 l0 -506 l261 110 l0 -338 l-261 -110 l0 -252 l494 0 l0 -338 l-926 0 Z" /><glyph glyph-name="" unicode="&#x142;" d="M559 651 l0 -651 l-426 0 l0 399 l-98 -57 l0 322 l98 57 l0 795 l426 0 l0 -543 l103 59 l0 -321 l-103 -60 Z" /><glyph glyph-name="" unicode="¦" d="M244 657 l0 910 l327 0 l0 -910 l-327 0 ZM244 -481 l0 934 l327 0 l0 -934 l-327 0 Z" /><glyph glyph-name="" unicode="ð" d="M1493 735 q0 -218 -91.5 -385.5 q-91.5 -167.5 -261.5 -258.5 q-170 -91 -392 -91 l-607 0 l0 549 l-166 0 l0 338 l166 0 l0 547 l594 0 q758 0 758 -699 ZM1034 731 q0 105 -42.5 189 q-42.5 84 -121.5 130 q-79 46 -186 46 l-111 0 l0 -209 l240 0 l0 -338 l-240 0 l0 -211 l121 0 q155 0 247.5 106.5 q92.5 106.5 92.5 286.5 Z" /><glyph glyph-name="" unicode="ð" d="M1221 590 q0 -180 -74.5 -321 q-74.5 -141 -209 -217.5 q-134.5 -76.5 -306.5 -76.5 q-270 0 -422 146.5 q-152 146.5 -152 406.5 q0 146 61 261.5 q61 115.5 171.5 180 q110.5 64.5 245.5 64.5 q53 0 109 -20 q56 -20 101 -58 l5 2 q-81 135 -201 226 l-285 -137 l-102 167 l221 103 l-272 199 l438 0 l102 -70 l262 127 l91 -168 l-177 -86 q190 -137 292 -325.5 q102 -188.5 102 -403.5 ZM788 528 q0 213 -147 213 q-71 0 -111.5 -59 q-40.5 -59 -40.5 -160 q0 -118 41 -174.5 q41 -56.5 107 -56.5 q72 0 111.5 60 q39.5 60 39.5 177 Z" /><glyph glyph-name="" unicode="þ" d="M1313 758 q0 -147 -74.5 -261 q-74.5 -114 -212.5 -176.5 q-138 -62.5 -321 -62.5 l-132 0 l0 -258 l-432 0 l0 1434 l432 0 l0 -203 l156 0 q303 0 443.5 -115 q140.5 -115 140.5 -358 ZM856 743 q0 88 -50.5 133.5 q-50.5 45.5 -150.5 45.5 l-82 0 l0 -355 l97 0 q186 0 186 176 Z" /><glyph glyph-name="" unicode="þ" d="M1257 543 q0 -168 -57 -297 q-57 -129 -161 -200 q-104 -71 -234 -71 q-180 0 -273 131 l-4 0 l0 -577 l-426 0 l0 1987 l426 0 l0 -631 l4 0 q51 77 132 120.5 q81 43.5 184 43.5 q198 0 303.5 -132 q105.5 -132 105.5 -374 ZM825 530 q0 97 -37.5 152 q-37.5 55 -115.5 55 q-68 0 -110 -58 q-42 -58 -42 -159 l0 -20 q0 -97 36 -155 q36 -58 108 -58 q77 0 119 63.5 q42 63.5 42 179.5 Z" /><glyph glyph-name="" unicode="&#x2212;" d="M238 455 l0 247 l991 0 l0 -247 l-991 0 Z" /><glyph glyph-name="" unicode="×" d="M1071 66 l-336 340 l-336 -340 l-178 176 l336 333 l-338 340 l170 179 l346 -340 l344 340 l164 -189 l-334 -330 l338 -335 l-176 -174 Z" /><glyph glyph-name="" unicode="½" d="M111 584 l0 215 l178 0 l0 405 l-199 -33 l0 215 l459 68 l0 -655 l164 0 l0 -215 l-602 0 ZM707 0 l-316 0 l922 1434 l315 0 l-921 -1434 ZM1221 0 l0 190 l258 232 q49 44 66.5 70.5 q17.5 26.5 17.5 70.5 q0 28 -19.5 50 q-19.5 22 -66.5 22 q-31 0 -83.5 -21.5 q-52.5 -21.5 -121.5 -78.5 l0 258 q60 32 123 54.5 q63 22.5 135 22.5 q154 0 239.5 -70.5 q85.5 -70.5 85.5 -197.5 q0 -41 -11 -77.5 q-11 -36.5 -35 -75 q-24 -38.5 -62 -77 q-38 -38.5 -186 -153.5 l0 -4 l299 0 l0 -215 l-639 0 Z" /><glyph glyph-name="" unicode="¼" d="M84 584 l0 215 l178 0 l0 405 l-199 -33 l0 215 l459 68 l0 -655 l164 0 l0 -215 l-602 0 ZM700 0 l-315 0 l922 1434 l315 0 l-922 -1434 ZM1886 156 l-110 0 l0 -156 l-242 0 l0 156 l-404 0 l0 178 l343 516 l303 0 l0 -498 l110 0 l0 -196 ZM1538 623 l-8 0 q-14 -41 -39 -76 l-123 -195 l166 0 l0 187 q0 46 4 84 Z" /><glyph glyph-name="" unicode="¾" d="M711 836 q0 -125 -106.5 -199 q-106.5 -74 -276.5 -74 q-59 0 -112.5 11 q-53.5 11 -123.5 40 l0 197 q106 -53 217 -53 q135 0 135 80 q0 37 -34.5 58.5 q-34.5 21.5 -100.5 21.5 l-139 0 l0 194 l131 0 q56 0 87.5 20 q31.5 20 31.5 56 q0 32 -27 52 q-27 20 -76 20 q-112 0 -202 -56 l0 193 q124 57 256 57 q147 0 230 -59.5 q83 -59.5 83 -163.5 q0 -74 -37.5 -123.5 q-37.5 -49.5 -103.5 -67.5 l0 -4 q77 -16 122.5 -70.5 q45.5 -54.5 45.5 -129.5 ZM727 0 l-315 0 l921 1434 l316 0 l-922 -1434 ZM1911 156 l-111 0 l0 -156 l-241 0 l0 156 l-404 0 l0 178 l342 516 l303 0 l0 -498 l111 0 l0 -196 ZM1563 623 l-9 0 q-15 -44 -38 -76 l-123 -195 l166 0 l0 187 q0 46 4 84 Z" /><glyph glyph-name="" unicode="&#x20a3;" d="M573 182 l0 -182 l-432 0 l0 182 l-121 0 l0 213 l121 0 l0 1039 l899 0 l0 -338 l-467 0 l0 -228 l426 0 l0 -338 l-426 0 l0 -135 l278 0 l0 -213 l-278 0 Z" /><glyph glyph-name="" unicode="&#x15e;" d="M1137 434 q0 -181 -120.5 -300 q-120.5 -119 -349.5 -149 l0 -51 q195 -14 195 -178 q0 -111 -90.5 -170 q-90.5 -59 -257.5 -59 q-53 0 -115 6 l0 172 q37 -8 82 -8 q57 0 86 16.5 q29 16.5 29 42.5 q0 31 -23.5 45.5 q-23.5 14.5 -79.5 14.5 l-18 0 l-21 -2 l1 163 q-193 8 -353 74 l0 393 q90 -66 199 -106.5 q109 -40.5 203 -40.5 q71 0 110 25.5 q39 25.5 39 74.5 q0 35 -19.5 61.5 q-19.5 26.5 -59 49.5 q-39.5 23 -146.5 63 q-346 133 -346 430 q0 208 158 332.5 q158 124.5 424 124.5 q75 0 138 -6 q63 -6 114.5 -15 q51.5 -9 144.5 -34 l0 -365 q-181 99 -356 99 q-72 0 -116 -27 q-44 -27 -44 -74 q0 -45 35.5 -74.5 q35.5 -29.5 148.5 -76.5 q223 -90 315.5 -197 q92.5 -107 92.5 -254 Z" /><glyph glyph-name="" unicode="&#x15f;" d="M934 340 q0 -147 -94.5 -238.5 q-94.5 -91.5 -268.5 -116.5 l0 -51 q195 -14 195 -178 q0 -111 -90.5 -170 q-90.5 -59 -257.5 -59 q-53 0 -115 6 l0 172 q37 -8 82 -8 q57 0 86 16.5 q29 16.5 29 42.5 q0 31 -23.5 45.5 q-23.5 14.5 -79.5 14.5 l-18 0 l-21 -2 l1 164 q-152 13 -263 45 l0 299 q189 -84 316 -84 q125 0 125 65 q0 27 -29 44.5 q-29 17.5 -152 58.5 q-136 43 -198 114 q-62 71 -62 185 q0 159 126.5 251.5 q126.5 92.5 355.5 92.5 q134 0 284 -39 l0 -287 q-63 27 -138 45 q-75 18 -126 18 q-42 0 -67 -14 q-25 -14 -25 -39 q0 -29 27 -47 q27 -18 108 -43 q157 -46 225 -118 q68 -72 68 -185 Z" /><glyph glyph-name="" unicode="&#x111;" d="M786 0 l0 119 l-4 0 q-51 -67 -133 -105.5 q-82 -38.5 -162 -38.5 q-131 0 -231 64.5 q-100 64.5 -149.5 180.5 q-49.5 116 -49.5 274 q0 163 59 289 q59 126 166 196 q107 70 240 70 q63 0 116.5 -18 q53.5 -18 93 -48.5 q39.5 -30.5 50.5 -60.5 l4 0 l0 233 l-275 0 l0 195 l275 0 l0 166 l426 0 l0 -166 l103 0 l0 -195 l-103 0 l0 -1155 l-426 0 ZM795 543 q0 92 -40.5 143 q-40.5 51 -109.5 51 q-69 0 -112.5 -63.5 q-43.5 -63.5 -43.5 -169.5 q0 -217 150 -217 q71 0 113.5 58.5 q42.5 58.5 42.5 170.5 l0 27 Z" /><glyph glyph-name="" unicode="¯" d="M43 1145 l0 223 l655 0 l0 -223 l-655 0 Z" /><glyph glyph-name="" unicode="&#x2219;" d="M520 713 q0 -74 -51.5 -119.5 q-51.5 -45.5 -144.5 -45.5 q-80 0 -134.5 46 q-54.5 46 -54.5 119 q0 73 54 115.5 q54 42.5 139 42.5 q86 0 139 -43.5 q53 -43.5 53 -114.5 Z" /><glyph glyph-name="" unicode="&#x104;" d="M1333 0 q-24 -38 -42 -85.5 q-18 -47.5 -18 -85.5 q0 -37 20 -56 q20 -19 53 -19 q56 0 118 28 l0 -154 q-34 -19 -86.5 -31.5 q-52.5 -12.5 -93.5 -12.5 q-116 0 -174 54.5 q-58 54.5 -58 148.5 q0 58 27.5 113.5 q27.5 55.5 76.5 99.5 l-116 0 l-63 264 l-428 0 l-68 -264 l-467 0 l494 1434 l536 0 l465 -1434 l-176 0 ZM768 1122 l-10 0 q-2 -24 -14 -79 q-12 -55 -121 -472 l274 0 l-100 390 q-21 86 -29 161 Z" /><glyph glyph-name="" unicode="&#x105;" d="M932 0 q-24 -38 -42 -85.5 q-18 -47.5 -18 -85.5 q0 -37 20 -56 q20 -19 53 -19 q56 0 118 28 l0 -154 q-34 -19 -86.5 -31.5 q-52.5 -12.5 -93.5 -12.5 q-116 0 -174 54.5 q-58 54.5 -58 148.5 q0 58 27.5 113.5 q27.5 55.5 76.5 99.5 l-85 0 l0 156 l-4 0 q-102 -181 -312 -181 q-145 0 -227 86 q-82 86 -82 230 q0 302 371 350 l254 33 q0 50 -45 82 q-45 32 -121 32 q-172 0 -363 -98 l0 277 q83 36 208 59 q125 23 214 23 q261 0 378.5 -111.5 q117.5 -111.5 117.5 -372.5 l0 -565 l-127 0 ZM418 348 q0 -42 26.5 -69 q26.5 -27 75.5 -27 q67 0 108.5 50 q41.5 50 41.5 128 l0 39 l-144 -20 q-108 -18 -108 -101 Z" /><glyph glyph-name="" unicode="&#x110;" d="M1493 735 q0 -218 -91.5 -385.5 q-91.5 -167.5 -261.5 -258.5 q-170 -91 -392 -91 l-607 0 l0 549 l-166 0 l0 338 l166 0 l0 547 l594 0 q758 0 758 -699 ZM1034 731 q0 105 -42.5 189 q-42.5 84 -121.5 130 q-79 46 -186 46 l-111 0 l0 -209 l240 0 l0 -338 l-240 0 l0 -211 l121 0 q155 0 247.5 106.5 q92.5 106.5 92.5 286.5 Z" /><glyph glyph-name="" unicode="&#x118;" d="M909 0 q-24 -38 -42 -85.5 q-18 -47.5 -18 -85.5 q0 -37 20 -56 q20 -19 53 -19 q56 0 118 28 l0 -154 q-34 -19 -86.5 -31.5 q-52.5 -12.5 -93.5 -12.5 q-116 0 -174 54.5 q-58 54.5 -58 148.5 q0 58 27.5 113.5 q27.5 55.5 76.5 99.5 l-591 0 l0 1434 l893 0 l0 -338 l-461 0 l0 -209 l433 0 l0 -338 l-433 0 l0 -211 l494 0 l0 -338 l-158 0 Z" /><glyph glyph-name="" unicode="&#x119;" d="M469 391 q11 -66 76 -103.5 q65 -37.5 172 -37.5 q149 0 282 57 l0 -270 q-127 -52 -306 -60 q-46 -80 -46 -148 q0 -37 20 -56 q20 -19 53 -19 q56 0 118 28 l0 -154 q-34 -19 -86.5 -31.5 q-52.5 -12.5 -93.5 -12.5 q-116 0 -174 54.5 q-58 54.5 -58 148.5 q0 105 85 195 q-220 29 -337 163 q-117 134 -117 344 q0 165 65.5 291 q65.5 126 194 197.5 q128.5 71.5 283.5 71.5 q159 0 272 -62 q113 -62 171.5 -174 q58.5 -112 58.5 -262 l0 -160 l-633 0 ZM725 614 q0 177 -127 177 q-53 0 -89 -48.5 q-36 -48.5 -42 -128.5 l258 0 Z" /><glyph glyph-name="" unicode="&#x162;" d="M866 1096 l0 -1096 l-157 0 l0 -66 q195 -14 195 -178 q0 -111 -90.5 -170 q-90.5 -59 -257.5 -59 q-53 0 -115 6 l0 172 q37 -8 82 -8 q57 0 86 16.5 q29 16.5 29 42.5 q0 31 -23.5 45.5 q-23.5 14.5 -79.5 14.5 l-18 0 l-21 -2 l1 186 l-65 0 l0 1096 l-401 0 l0 338 l1241 0 l0 -338 l-406 0 Z" /><glyph glyph-name="" unicode="&#x163;" d="M823 14 q-29 -14 -95 -26.5 q-66 -12.5 -158 -12.5 l0 -41 q195 -14 195 -178 q0 -111 -90.5 -170 q-90.5 -59 -257.5 -59 q-53 0 -115 6 l0 172 q37 -8 82 -8 q57 0 86 16.5 q29 16.5 29 42.5 q0 31 -23.5 45.5 q-23.5 14.5 -79.5 14.5 l-18 0 l-21 -2 l1 208 q-86 48 -127 134 q-41 86 -41 196 l0 377 l-161 0 l0 295 l161 0 l0 201 l420 116 l0 -317 l213 0 l0 -295 l-213 0 l0 -307 q0 -135 107 -135 q50 0 106 22 l0 -295 Z" /><glyph glyph-name="" unicode="&#x393;" d="M573 1096 l0 -1096 l-432 0 l0 1434 l926 0 l0 -338 l-494 0 Z" /><glyph glyph-name="" unicode="&#x398;" d="M1505 721 q0 -216 -93 -386.5 q-93 -170.5 -260 -265 q-167 -94.5 -374 -94.5 q-202 0 -367.5 91.5 q-165.5 91.5 -257.5 257 q-92 165.5 -92 374.5 q0 219 93 394 q93 175 261 270.5 q168 95.5 382 95.5 q206 0 368.5 -91.5 q162.5 -91.5 251 -261 q88.5 -169.5 88.5 -384.5 ZM1047 709 q0 177 -68 279 q-68 102 -186 102 q-129 0 -201 -98 q-72 -98 -72 -277 q0 -175 71.5 -273 q71.5 -98 194.5 -98 q75 0 135 44 q60 44 93 126 q33 82 33 195 ZM602 569 l0 297 l365 0 l0 -297 l-365 0 Z" /><glyph glyph-name="" unicode="&#x3a6;" d="M1731 756 q0 -165 -80 -298.5 q-80 -133.5 -222.5 -208.5 q-142.5 -75 -312.5 -75 l-16 0 l0 -199 l-408 0 l0 199 l-16 0 q-176 0 -318 74 q-142 74 -219.5 204.5 q-77.5 130.5 -77.5 292.5 q0 158 81.5 286.5 q81.5 128.5 226.5 201 q145 72.5 307 72.5 l16 0 l0 153 l408 0 l0 -155 l18 0 q168 0 309.5 -70.5 q141.5 -70.5 222.5 -196.5 q81 -126 81 -280 ZM1309 741 q0 110 -53.5 181 q-53.5 71 -143.5 71 l-12 0 l0 -510 l10 0 q86 0 142.5 73 q56.5 73 56.5 185 ZM696 993 l-10 0 q-90 0 -144.5 -73 q-54.5 -73 -54.5 -183 q0 -116 56.5 -185 q56.5 -69 142.5 -69 l10 0 l0 510 Z" /><glyph glyph-name="" unicode="&#x3b1;" d="M750 524 q-21 122 -52.5 167.5 q-31.5 45.5 -85.5 45.5 q-58 0 -96.5 -63.5 q-38.5 -63.5 -38.5 -167.5 q0 -104 29.5 -161.5 q29.5 -57.5 81.5 -57.5 q46 0 84 49 q38 49 63 133 l15 55 ZM845 176 q-128 -201 -366 -201 q-196 0 -309 138 q-113 138 -113 368 q0 162 61 292.5 q61 130.5 171 203 q110 72.5 248 72.5 q233 0 313 -144 l4 0 l35 119 l424 0 l-229 -515 q17 -100 55 -153 q38 -53 88 -53 q52 0 96 21 l0 -303 q-72 -39 -204 -39 q-107 0 -173 46.5 q-66 46.5 -95 147.5 l-6 0 Z" /><glyph glyph-name="" unicode="&#x3b4;" d="M1241 497 q0 -159 -70 -276.5 q-70 -117.5 -205.5 -181.5 q-135.5 -64 -324.5 -64 q-168 0 -298 58.5 q-130 58.5 -208 174 q-78 115.5 -78 253.5 q0 148 81 267 q81 119 240 196 q-177 124 -177 284 q0 104 60 178.5 q60 74.5 168.5 114 q108.5 39.5 248.5 39.5 q106 0 191.5 -15 q85.5 -15 224.5 -59 l0 -356 q-91 58 -189 88.5 q-98 30.5 -182 30.5 q-35 0 -62.5 -15.5 q-27.5 -15.5 -27.5 -46.5 q0 -28 41.5 -59.5 q41.5 -31.5 128.5 -73.5 l110 -56 q169 -89 248.5 -208 q79.5 -119 79.5 -273 ZM809 494 q0 76 -48.5 142.5 q-48.5 66.5 -129.5 98.5 q-59 -20 -100.5 -89 q-41.5 -69 -41.5 -146 q0 -99 42.5 -156 q42.5 -57 117.5 -57 q76 0 118 54.5 q42 54.5 42 152.5 Z" /><glyph glyph-name="" unicode="&#x3b5;" d="M932 23 q-165 -48 -402 -48 q-236 0 -356.5 73.5 q-120.5 73.5 -120.5 217.5 q0 102 56 168 q56 66 159 94 l0 4 q-83 24 -130.5 86 q-47.5 62 -47.5 148 q0 138 119.5 210.5 q119.5 72.5 347.5 72.5 q171 0 332 -39 l0 -265 l-62 19 q-91 27 -178 27 q-57 0 -92 -19.5 q-35 -19.5 -35 -56.5 q0 -86 160 -86 q41 0 92 7 l25 3 l0 -242 q-84 9 -152 9 q-74 0 -118 -20 q-44 -20 -44 -62 q0 -91 166 -91 q78 0 147 18 q69 18 134 40 l0 -268 Z" /><glyph glyph-name="" unicode="&#x3c3;" d="M1116 729 q34 -47 57 -118.5 q23 -71.5 23 -143.5 q0 -235 -146.5 -363.5 q-146.5 -128.5 -410.5 -128.5 q-272 0 -427 146.5 q-155 146.5 -155 396.5 q0 235 149 370.5 q149 135.5 419 135.5 l690 0 l0 -295 l-199 0 ZM764 520 q0 43 -9 90.5 q-9 47.5 -36 118.5 l-49 0 q-82 0 -131.5 -57.5 q-49.5 -57.5 -49.5 -171.5 q0 -95 39 -154 q39 -59 105 -59 q63 0 97 59.5 q34 59.5 34 173.5 Z" /><glyph glyph-name="" unicode="&#x3c4;" d="M827 729 l0 -295 q0 -69 29.5 -102 q29.5 -33 79.5 -33 q29 0 49.5 6 q20.5 6 48.5 17 l0 -308 q-29 -14 -95 -26.5 q-66 -12.5 -159 -12.5 q-178 0 -278.5 98 q-100.5 98 -100.5 279 l0 377 l-49 0 q-178 0 -315 -104 l0 321 q136 78 360 78 l774 0 l0 -295 l-344 0 Z" /><glyph glyph-name="" unicode="&#x3c6;" d="M1589 496 q0 -153 -67.5 -272 q-67.5 -119 -194 -184 q-126.5 -65 -293.5 -65 l-24 0 l0 -456 l-385 0 l0 456 l-25 0 q-161 0 -284.5 66.5 q-123.5 66.5 -191 189 q-67.5 122.5 -67.5 279.5 q0 127 34.5 259 q34.5 132 101.5 255 l413 0 q-61 -67 -110.5 -217 q-49.5 -150 -49.5 -268 q0 -113 43.5 -183.5 q43.5 -70.5 116.5 -70.5 l19 0 l0 299 q0 224 119 344.5 q119 120.5 339 120.5 q247 0 376.5 -143.5 q129.5 -143.5 129.5 -409.5 ZM1198 522 q0 217 -108 217 q-80 0 -80 -123 l0 -331 l30 0 q74 0 116 64.5 q42 64.5 42 172.5 Z" /><glyph glyph-name="" unicode="&#x2017;" d="M0 -273 l0 105 l850 0 l0 -105 l-850 0 ZM0 -514 l0 104 l850 0 l0 -104 l-850 0 Z" /><glyph glyph-name="" unicode="&#x203c;" d="M543 483 l-342 0 l-54 951 l449 0 l-53 -951 ZM612 178 q0 -89 -64.5 -146 q-64.5 -57 -172.5 -57 q-105 0 -171.5 58 q-66.5 58 -66.5 145 q0 88 64.5 142.5 q64.5 54.5 173.5 54.5 q106 0 171.5 -54.5 q65.5 -54.5 65.5 -142.5 ZM1145 483 l-342 0 l-54 951 l449 0 l-53 -951 ZM1214 178 q0 -89 -64.5 -146 q-64.5 -57 -172.5 -57 q-105 0 -171.5 58 q-66.5 58 -66.5 145 q0 88 64.5 142.5 q64.5 54.5 173.5 54.5 q106 0 171.5 -54.5 q65.5 -54.5 65.5 -142.5 Z" /><glyph glyph-name="" unicode="&#x207f;" d="M574 715 l0 414 q0 123 -96 123 q-46 0 -75 -31 q-29 -31 -29 -78 l0 -428 l-268 0 l0 719 l268 0 l0 -96 l3 0 q78 111 228 111 q237 0 237 -254 l0 -480 l-268 0 Z" /><glyph glyph-name="" unicode="&#x20a7;" d="M1223 961 q0 -147 -74.5 -261 q-74.5 -114 -212.5 -176.5 q-138 -62.5 -321 -62.5 l-62 0 l0 -461 l-412 0 l0 1434 l498 0 q303 0 443.5 -115 q140.5 -115 140.5 -358 ZM786 946 q0 88 -51 133 q-51 45 -150 45 l-32 0 l0 -354 l47 0 q186 0 186 176 ZM2011 14 q-29 -14 -95 -26.5 q-66 -12.5 -159 -12.5 q-174 0 -266.5 95.5 q-92.5 95.5 -92.5 281.5 l0 198 l-161 0 l0 275 l161 0 l0 139 l400 116 l0 -255 l213 0 l0 -275 l-213 0 l0 -128 q0 -135 107 -135 q50 0 106 22 l0 -295 ZM2838 279 q0 -143 -118 -221.5 q-118 -78.5 -336 -78.5 q-74 0 -160.5 12.5 q-86.5 12.5 -142.5 27.5 l0 245 q66 -26 138.5 -47.5 q72.5 -21.5 146.5 -21.5 q62 0 87.5 11 q25.5 11 25.5 34 q0 23 -34.5 39 q-34.5 16 -128.5 44 q-119 34 -177 96.5 q-58 62.5 -58 158.5 q0 133 115.5 207.5 q115.5 74.5 319.5 74.5 q56 0 131.5 -9.5 q75.5 -9.5 125.5 -22.5 l0 -235 q-156 52 -239 52 q-83 0 -83 -39 q0 -24 28.5 -37.5 q28.5 -13.5 93.5 -31.5 q129 -35 197 -96 q68 -61 68 -162 Z" /><glyph glyph-name="" unicode="&#x149;" d="M223 1024 l-248 0 l123 444 l366 0 l-241 -444 ZM1094 0 l0 559 q0 95 -28.5 136.5 q-28.5 41.5 -92.5 41.5 q-55 0 -86 -43 q-31 -43 -31 -110 l0 -584 l-426 0 l0 1024 l426 0 l0 -160 l4 0 q51 88 137 136.5 q86 48.5 187 48.5 q336 0 336 -424 l0 -625 l-426 0 Z" /><glyph glyph-name="" unicode="&#x2032;" d="M365 912 l-248 0 l123 522 l296 0 l-171 -522 Z" /><glyph glyph-name="" unicode="&#x2033;" d="M365 912 l-248 0 l123 522 l296 0 l-171 -522 ZM901 912 l-248 0 l123 522 l296 0 l-171 -522 Z" /><glyph glyph-name="" unicode="&#x2105;" d="M1627 416 q0 -128 -51 -231 q-51 -103 -141.5 -154 q-90.5 -51 -214.5 -51 q-158 0 -250 86.5 q-92 86.5 -92 226.5 q0 126 52.5 230 q52.5 104 145 154 q92.5 50 217.5 50 q156 0 245 -82 q89 -82 89 -229 ZM334 0 l-318 0 l1227 1434 l316 0 l-1225 -1434 ZM1359 410 q0 48 -23 75 q-23 27 -59 27 q-60 0 -94.5 -57 q-34.5 -57 -34.5 -158 q0 -46 22.5 -73 q22.5 -27 59.5 -27 q59 0 94 60 q35 60 35 153 ZM608 1201 q-81 46 -161 46 q-71 0 -113.5 -60 q-42.5 -60 -42.5 -157 q0 -53 26 -82 q26 -29 71 -29 q82 0 187 48 l-38 -216 q-84 -44 -185 -44 q-153 0 -241.5 82 q-88.5 82 -88.5 232 q0 122 53.5 221 q53.5 99 151 155.5 q97.5 56.5 217.5 56.5 q118 0 194 -42 l-30 -211 Z" /><glyph glyph-name="" unicode="&#x2113;" d="M193 657 l0 455 q0 215 57.5 297 q57.5 82 175.5 82 q100 0 159.5 -67.5 q59.5 -67.5 59.5 -172.5 q0 -103 -67 -239.5 q-67 -136.5 -218 -345.5 l0 -416 q0 -65 4 -83 q11 -48 54 -48 q24 0 59.5 16 q35.5 16 138.5 90 l0 -162 q-112 -88 -225 -88 q-198 0 -198 242 l0 225 l-80 -98 l-99 78 l179 235 ZM360 899 q83 142 95 168 q51 105 51 184 q0 53 -20.5 86 q-20.5 33 -55.5 33 q-31 0 -45 -24 q-25 -43 -25 -220 l0 -227 Z" /><glyph glyph-name="" unicode="&#x25a1;" d="M1090 0 l-945 0 l0 944 l945 0 l0 -944 ZM1014 76 l0 792 l-793 0 l0 -792 l793 0 Z" /><glyph glyph-name="" unicode="&#x25aa;" d="M594 444 l-463 0 l0 463 l463 0 l0 -463 Z" /><glyph glyph-name="" unicode="&#x25ab;" d="M594 444 l-463 0 l0 463 l463 0 l0 -463 ZM518 520 l0 311 l-311 0 l0 -311 l311 0 Z" /><glyph glyph-name="" unicode="&#x25cf;" d="M621 137 q-182 0 -312.5 127.5 q-130.5 127.5 -130.5 313.5 q0 112 58.5 218 q58.5 106 163 164 q104.5 58 218.5 58 q117 0 224.5 -62 q107.5 -62 162 -167.5 q54.5 -105.5 54.5 -210.5 q0 -180 -127.5 -310.5 q-127.5 -130.5 -310.5 -130.5 Z" /><glyph glyph-name="" unicode="&#x25e6;" d="M362 426 q-104 0 -176.5 73.5 q-72.5 73.5 -72.5 178.5 q0 102 73 176 q73 74 176 74 q105 0 178.5 -73.5 q73.5 -73.5 73.5 -176.5 q0 -105 -73.5 -178.5 q-73.5 -73.5 -178.5 -73.5 ZM362 852 q-73 0 -123.5 -52.5 q-50.5 -52.5 -50.5 -121.5 q0 -74 51.5 -125 q51.5 -51 125.5 -51 q71 0 122.5 51.5 q51.5 51.5 51.5 124.5 q0 67 -49.5 120.5 q-49.5 53.5 -127.5 53.5 Z" /><glyph glyph-name="" unicode="&#x123;" d="M651 1541 l219 0 l-84 -322 l-358 0 l223 322 ZM1212 143 q0 -295 -185.5 -459.5 q-185.5 -164.5 -541.5 -164.5 q-96 0 -186 15 q-90 15 -129 34 l0 334 q64 -40 150 -64 q86 -24 153 -24 q143 0 229 69 q86 69 86 183 l0 63 l-4 0 q-46 -70 -126.5 -112 q-80.5 -42 -172.5 -42 q-198 0 -313 137.5 q-115 137.5 -115 379.5 q0 166 60 293 q60 127 167 195.5 q107 68.5 236 68.5 q177 0 264 -131 l4 0 l0 106 l424 0 l0 -881 ZM795 541 q0 90 -40.5 143 q-40.5 53 -107.5 53 q-72 0 -115 -64 q-43 -64 -43 -171 q0 -99 36 -157 q36 -58 114 -58 q73 0 114.5 59.5 q41.5 59.5 41.5 159.5 l0 35 Z" /><glyph glyph-name="" unicode="&#x126;" d="M1069 0 l0 535 l-496 0 l0 -535 l-432 0 l0 1058 l-110 0 l0 195 l110 0 l0 181 l432 0 l0 -181 l496 0 l0 181 l432 0 l0 -181 l113 0 l0 -195 l-113 0 l0 -1058 l-432 0 ZM1069 903 l0 155 l-496 0 l0 -155 l496 0 Z" /><glyph glyph-name="" unicode="&#x127;" d="M528 1155 l0 -300 l4 0 q55 79 133.5 121.5 q78.5 42.5 168.5 42.5 q166 0 253 -106.5 q87 -106.5 87 -313.5 l0 -599 l-412 0 l0 554 q0 153 -117 153 q-57 0 -87 -43.5 q-30 -43.5 -30 -111.5 l0 -552 l-426 0 l0 1155 l-102 0 l0 195 l102 0 l0 166 l426 0 l0 -166 l276 0 l0 -195 l-276 0 Z" /><glyph glyph-name="" unicode="&#x12f;" d="M390 0 q-24 -38 -42 -85.5 q-18 -47.5 -18 -85.5 q0 -37 20 -56 q20 -19 53 -19 q56 0 118 28 l0 -154 q-34 -19 -86.5 -31.5 q-52.5 -12.5 -93.5 -12.5 q-116 0 -174 54.5 q-58 54.5 -58 148.5 q0 58 27.5 113.5 q27.5 55.5 76.5 99.5 l-111 0 l0 1024 l426 0 l0 -1024 l-138 0 ZM553 1300 q0 -90 -65.5 -146 q-65.5 -56 -172.5 -56 q-104 0 -170.5 58 q-66.5 58 -66.5 144 q0 88 64.5 142.5 q64.5 54.5 172.5 54.5 q107 0 172.5 -54.5 q65.5 -54.5 65.5 -142.5 Z" /><glyph glyph-name="" unicode="&#x138;" d="M760 0 l-228 526 l-4 0 l0 -526 l-426 0 l0 1023 l426 0 l0 -480 l4 0 l207 481 l480 0 l-277 -469 l293 -555 l-475 0 Z" /><glyph glyph-name="" unicode="&#x13b;" d="M679 0 l0 -66 q195 -14 195 -178 q0 -111 -90.5 -170 q-90.5 -59 -257.5 -59 q-53 0 -115 6 l0 172 q37 -8 82 -8 q57 0 86 16.5 q29 16.5 29 42.5 q0 31 -23.5 45.5 q-23.5 14.5 -79.5 14.5 l-18 0 l-21 -2 l0 186 l-325 0 l0 1434 l432 0 l0 -1096 l494 0 l0 -338 l-388 0 Z" /><glyph glyph-name="" unicode="&#x13c;" d="M379 0 l0 -66 q195 -14 195 -178 q0 -111 -90.5 -170 q-90.5 -59 -257.5 -59 q-53 0 -115 6 l0 172 q37 -8 82 -8 q57 0 86 16.5 q29 16.5 29 42.5 q0 31 -23.5 45.5 q-23.5 14.5 -79.5 14.5 l-18 0 l-21 -2 l0 186 l-64 0 l0 1516 l426 0 l0 -1516 l-149 0 Z" /><glyph glyph-name="" unicode="&#x14a;" d="M1522 108 q0 -300 -135.5 -444.5 q-135.5 -144.5 -403.5 -144.5 q-46 0 -115 13 q-69 13 -117 32 l0 378 q33 -19 91 -36.5 q58 -17.5 96 -17.5 q77 0 117 41.5 q40 41.5 55 115.5 l-473 647 q-60 82 -98 148 l-4 0 q6 -106 6 -238 l0 -602 l-400 0 l0 1434 l408 0 l485 -658 q9 -13 22 -31 q13 -18 26 -37 q13 -19 24.5 -37 q11.5 -18 17.5 -32 l4 0 q-6 44 -6 152 l0 643 l400 0 l0 -1326 Z" /><glyph glyph-name="" unicode="&#x14b;" d="M766 559 q0 95 -28.5 136.5 q-28.5 41.5 -92.5 41.5 q-55 0 -86 -43 q-31 -43 -31 -110 l0 -584 l-426 0 l0 1024 l426 0 l0 -160 l4 0 q51 88 137 136.5 q86 48.5 187 48.5 q336 0 336 -424 l0 -625 q-5 -135 -60.5 -240 q-55.5 -105 -156 -158 q-100.5 -53 -237.5 -53 q-78 0 -170 30 l0 312 q56 -31 102 -31 q53 0 74.5 35.5 q21.5 35.5 21.5 107.5 l0 556 Z" /><glyph glyph-name="" unicode="&#x166;" d="M866 1096 l0 -300 l286 0 l0 -194 l-286 0 l0 -602 l-434 0 l0 602 l-291 0 l0 194 l291 0 l0 300 l-401 0 l0 338 l1241 0 l0 -338 l-406 0 Z" /><glyph glyph-name="" unicode="&#x167;" d="M823 14 q-29 -14 -95 -26.5 q-66 -12.5 -159 -12.5 q-178 0 -278.5 98 q-100.5 98 -100.5 279 l0 74 l-129 0 l0 195 l129 0 l0 108 l-161 0 l0 295 l161 0 l0 201 l420 116 l0 -317 l213 0 l0 -295 l-213 0 l0 -108 l167 0 l0 -195 l-167 0 l0 -4 q0 -135 107 -135 q50 0 106 22 l0 -295 Z" /><glyph glyph-name="" unicode="&#x172;" d="M1391 655 q0 -321 -135.5 -487.5 q-135.5 -166.5 -412.5 -188.5 q-47 -82 -47 -150 q0 -37 20 -56 q20 -19 53 -19 q56 0 118 28 l0 -154 q-34 -19 -86.5 -31.5 q-52.5 -12.5 -93.5 -12.5 q-116 0 -174 54.5 q-58 54.5 -58 148.5 q0 103 82 192 q-262 23 -397 190 q-135 167 -135 478 l0 787 l434 0 l0 -803 q0 -138 51.5 -212.5 q51.5 -74.5 147.5 -74.5 q97 0 147.5 70 q50.5 70 50.5 207 l0 813 l435 0 l0 -779 Z" /><glyph glyph-name="" unicode="&#x17f;" d="M782 1206 q-66 23 -123 23 q-71 0 -105 -36.5 q-34 -36.5 -34 -98.5 l0 -1094 l-426 0 l0 1118 q0 125 58 220.5 q58 95.5 168.5 148.5 q110.5 53 268.5 53 q114 0 193 -22 l0 -312 Z" /><glyph glyph-name="" unicode="&#x387;" d="M565 713 q0 -91 -64 -147 q-64 -56 -177 -56 q-102 0 -168 58 q-66 58 -66 145 q0 89 65.5 142.5 q65.5 53.5 172.5 53.5 q105 0 171 -53.5 q66 -53.5 66 -142.5 Z" /><glyph glyph-name="" unicode="&#x201b;" d="M117 1468 l366 0 l123 -444 l-248 0 l-241 444 Z" /><glyph glyph-name="" unicode="&#x203e;" d="M850 1397 l-850 0 l0 119 l850 0 l0 -119 Z" /><glyph glyph-name="" unicode="&#x20a4;" d="M714 472 q-30 -95 -108 -161 l584 0 l0 -311 l-1024 0 l0 291 q84 21 125.5 66.5 q41.5 45.5 53.5 114.5 l-159 0 l0 173 l164 0 l0 143 l-164 0 l0 169 l164 0 l0 53 q0 209 130.5 328.5 q130.5 119.5 363.5 119.5 q117 0 241 -55 l0 -324 q-31 26 -92.5 47 q-61.5 21 -105.5 21 q-82 0 -120 -48 q-38 -48 -38 -126 l0 -16 l246 0 l0 -169 l-246 0 l0 -143 l246 0 l0 -173 l-261 0 Z" /><glyph glyph-name="" unicode="&#x212e;" d="M1144 530 l-828 0 l1 -370 q120 -121 296 -121 q255 0 396 246 l71 -43 q-104 -151 -212.5 -214 q-108.5 -63 -253.5 -63 q-237 0 -383 161 q-146 161 -146 404 q0 251 144.5 408.5 q144.5 157.5 381.5 157.5 q237 0 379 -154 q142 -154 154 -412 ZM912 604 l0 297 q-130 123 -303 123 q-174 0 -293 -123 l0 -297 l596 0 Z" /><glyph glyph-name="" unicode="&#x215b;" d="M106 584 l0 215 l179 0 l0 405 l-199 -33 l0 215 l459 68 l0 -655 l164 0 l0 -215 l-603 0 ZM698 0 l-315 0 l922 1434 l315 0 l-922 -1434 ZM1997 236 q0 -117 -99.5 -185.5 q-99.5 -68.5 -275.5 -68.5 q-165 0 -259.5 65.5 q-94.5 65.5 -94.5 175.5 q0 148 172 219 l0 2 q-71 25 -111.5 74.5 q-40.5 49.5 -40.5 114.5 q0 104 95.5 171.5 q95.5 67.5 244.5 67.5 q166 0 260 -63 q94 -63 94 -166 q0 -142 -182 -197 l0 -2 q89 -21 143 -78.5 q54 -57.5 54 -129.5 ZM1718 621 q0 34 -22 52.5 q-22 18.5 -60 18.5 q-34 0 -59 -18 q-25 -18 -25 -56 q0 -54 84 -86 q45 15 63.5 36.5 q18.5 21.5 18.5 52.5 ZM1735 248 q0 71 -109 104 q-54 -20 -74 -46 q-20 -26 -20 -60 q0 -37 29 -59.5 q29 -22.5 71 -22.5 q103 0 103 84 Z" /><glyph glyph-name="" unicode="&#x215c;" d="M698 0 l-315 0 l922 1434 l315 0 l-922 -1434 ZM1997 236 q0 -117 -99.5 -185.5 q-99.5 -68.5 -275.5 -68.5 q-165 0 -259.5 65.5 q-94.5 65.5 -94.5 175.5 q0 148 172 219 l0 2 q-71 25 -111.5 74.5 q-40.5 49.5 -40.5 114.5 q0 104 95.5 171.5 q95.5 67.5 244.5 67.5 q166 0 260 -63 q94 -63 94 -166 q0 -142 -182 -197 l0 -2 q89 -21 143 -78.5 q54 -57.5 54 -129.5 ZM1718 621 q0 34 -22 52.5 q-22 18.5 -60 18.5 q-34 0 -59 -18 q-25 -18 -25 -56 q0 -54 84 -86 q45 15 63.5 36.5 q18.5 21.5 18.5 52.5 ZM1735 248 q0 71 -109 104 q-54 -20 -74 -46 q-20 -26 -20 -60 q0 -37 29 -59.5 q29 -22.5 71 -22.5 q103 0 103 84 ZM690 836 q0 -125 -106.5 -199 q-106.5 -74 -276.5 -74 q-80 0 -136 16.5 q-56 16.5 -99 34.5 l0 197 q106 -53 217 -53 q135 0 135 80 q0 37 -34.5 58.5 q-34.5 21.5 -100.5 21.5 l-139 0 l0 194 l131 0 q56 0 87 20 q31 20 31 56 q0 32 -27 52 q-27 20 -75 20 q-113 0 -203 -56 l0 193 q124 57 256 57 q147 0 230.5 -59 q83.5 -59 83.5 -164 q0 -74 -38 -123.5 q-38 -49.5 -104 -67.5 l0 -4 q77 -16 122.5 -70 q45.5 -54 45.5 -130 Z" /><glyph glyph-name="" unicode="&#x215d;" d="M698 0 l-315 0 l922 1434 l315 0 l-922 -1434 ZM1997 236 q0 -117 -99.5 -185.5 q-99.5 -68.5 -275.5 -68.5 q-165 0 -259.5 65.5 q-94.5 65.5 -94.5 175.5 q0 148 172 219 l0 2 q-71 25 -111.5 74.5 q-40.5 49.5 -40.5 114.5 q0 104 95.5 171.5 q95.5 67.5 244.5 67.5 q166 0 260 -63 q94 -63 94 -166 q0 -142 -182 -197 l0 -2 q89 -21 143 -78.5 q54 -57.5 54 -129.5 ZM1718 621 q0 34 -22 52.5 q-22 18.5 -60 18.5 q-34 0 -59 -18 q-25 -18 -25 -56 q0 -54 84 -86 q45 15 63.5 36.5 q18.5 21.5 18.5 52.5 ZM1735 248 q0 71 -109 104 q-54 -20 -74 -46 q-20 -26 -20 -60 q0 -37 29 -59.5 q29 -22.5 71 -22.5 q103 0 103 84 ZM682 868 q0 -138 -99.5 -221.5 q-99.5 -83.5 -265.5 -83.5 q-134 0 -241 45 l0 197 q31 -16 89 -31.5 q58 -15.5 111 -15.5 q140 0 140 84 q0 46 -42 71 q-42 25 -122 25 q-58 0 -154 -16 l0 512 l545 0 l0 -195 l-328 0 l0 -121 q34 4 84 4 q134 0 208.5 -67.5 q74.5 -67.5 74.5 -186.5 Z" /><glyph glyph-name="" unicode="&#x215e;" d="M575 0 l-315 0 l922 1434 l315 0 l-922 -1434 ZM1874 236 q0 -117 -99.5 -185.5 q-99.5 -68.5 -275.5 -68.5 q-165 0 -259.5 65.5 q-94.5 65.5 -94.5 175.5 q0 148 172 219 l0 2 q-71 25 -111.5 74.5 q-40.5 49.5 -40.5 114.5 q0 104 95.5 171.5 q95.5 67.5 244.5 67.5 q165 0 260 -63 q95 -63 95 -166 q0 -141 -183 -197 l0 -2 q89 -21 143 -78.5 q54 -57.5 54 -129.5 ZM1595 621 q0 34 -22 52.5 q-22 18.5 -60 18.5 q-34 0 -58.5 -18 q-24.5 -18 -24.5 -56 q0 -54 83 -86 q36 13 59 31.5 q23 18.5 23 57.5 ZM1612 248 q0 71 -109 104 q-54 -20 -74 -46 q-20 -26 -20 -60 q0 -37 29 -59.5 q29 -22.5 71 -22.5 q103 0 103 84 ZM135 584 l309 655 l-395 0 l0 195 l658 0 l0 -134 l-287 -716 l-285 0 Z" /><glyph glyph-name="" unicode="&#x37e;" d="M575 827 q0 -91 -64.5 -146.5 q-64.5 -55.5 -176.5 -55.5 q-102 0 -168 58 q-66 58 -66 144 q0 88 64.5 142.5 q64.5 54.5 173.5 54.5 q106 0 171.5 -54.5 q65.5 -54.5 65.5 -142.5 ZM387 -238 l-344 0 l102 510 l385 0 l-143 -510 Z" /><glyph glyph-name="" unicode="&#x384;" d="M424 1153 l-219 0 l84 322 l358 0 l-223 -322 Z" /><glyph glyph-name="" unicode="&#x385;" d="M1065 1305 q0 -68 -48.5 -108 q-48.5 -40 -125.5 -40 q-76 0 -124 41.5 q-48 41.5 -48 106.5 q0 64 47.5 103.5 q47.5 39.5 124.5 39.5 q77 0 125.5 -40 q48.5 -40 48.5 -103 ZM596 1229 l-188 0 l63 383 l338 0 l-213 -383 ZM362 1305 q0 -68 -47.5 -108 q-47.5 -40 -124.5 -40 q-75 0 -124.5 41.5 q-49.5 41.5 -49.5 106.5 q0 65 48.5 104 q48.5 39 125.5 39 q77 0 124.5 -39 q47.5 -39 47.5 -104 Z" /><glyph glyph-name="" unicode="&#x39b;" d="M1040 0 l-245 961 q-14 55 -19 90 l-8 55 l-10 0 q-6 -34 -16.5 -81.5 q-10.5 -47.5 -260.5 -1024.5 l-467 0 l494 1434 l536 0 l465 -1434 l-469 0 Z" /><glyph glyph-name="" unicode="&#x39e;" d="M86 1096 l0 338 l1040 0 l0 -338 l-1040 0 ZM240 549 l0 338 l733 0 l0 -338 l-733 0 ZM66 0 l0 338 l1081 0 l0 -338 l-1081 0 Z" /><glyph glyph-name="" unicode="&#x3a0;" d="M1069 0 l0 1065 l-496 0 l0 -1065 l-432 0 l0 1434 l1360 0 l0 -1434 l-432 0 Z" /><glyph glyph-name="" unicode="&#x3a3;" d="M29 0 l0 240 l487 477 l-465 465 l0 252 l1118 0 l0 -338 l-510 0 l351 -359 l-383 -399 l598 0 l0 -338 l-1196 0 Z" /><glyph glyph-name="" unicode="&#x3a8;" d="M1075 684 l10 0 q96 2 145.5 62 q49.5 60 49.5 188 l0 500 l369 0 l0 -543 q0 -165 -70.5 -288.5 q-70.5 -123.5 -199 -193.5 q-128.5 -70 -296.5 -79 l-8 0 l0 -330 l-368 0 l0 330 l-9 0 q-168 8 -300 82 q-132 74 -198.5 196.5 q-66.5 122.5 -66.5 280.5 l0 545 l369 0 l0 -500 q0 -246 194 -250 l11 0 l0 750 l368 0 l0 -750 Z" /><glyph glyph-name="" unicode="&#x3a9;" d="M858 0 l0 338 q113 113 157 217 q44 104 44 233 q0 132 -72 217 q-72 85 -182 85 q-77 0 -139 -38 q-62 -38 -98 -110.5 q-36 -72.5 -36 -173.5 q0 -79 21.5 -148.5 q21.5 -69.5 58.5 -132.5 q37 -63 115 -149 l0 -338 l-657 0 l0 338 l336 0 q-166 89 -249 223.5 q-83 134.5 -83 304.5 q0 170 93.5 306 q93.5 136 260.5 211 q167 75 367 75 q210 0 371.5 -73.5 q161.5 -73.5 256.5 -211.5 q95 -138 95 -299 q0 -184 -89 -315.5 q-89 -131.5 -262 -220.5 l349 0 l0 -338 l-658 0 Z" /><glyph glyph-name="" unicode="&#x3b2;" d="M1319 408 q0 -194 -143.5 -313.5 q-143.5 -119.5 -382.5 -119.5 q-127 0 -265 39 l0 -407 l-426 0 l0 1382 q0 253 154 402 q154 149 416 149 q179 0 309 -53.5 q130 -53.5 198 -150.5 q68 -97 68 -224 q0 -109 -61 -191 q-61 -82 -180 -124 l0 -4 q144 -43 228.5 -147.5 q84.5 -104.5 84.5 -237.5 ZM887 436 q0 82 -76.5 132 q-76.5 50 -202.5 50 l0 283 q207 0 207 174 q0 69 -38 111.5 q-38 42.5 -99 42.5 q-74 0 -112 -55.5 q-38 -55.5 -38 -149.5 l0 -682 q93 -55 185 -55 q82 0 128 40.5 q46 40.5 46 108.5 Z" /><glyph glyph-name="" unicode="&#x3b3;" d="M1186 907 q0 -524 -398 -981 l0 -110 q0 -231 -4 -297 l-424 0 q8 79 13.5 232 q5.5 153 5.5 269 q-28 157 -146.5 432.5 q-118.5 275.5 -279.5 571.5 l493 0 q78 -172 148 -360.5 q70 -188.5 92 -292.5 l4 0 q96 206 96 508 q0 61 -12 145 l404 0 q8 -77 8 -117 Z" /><glyph glyph-name="" unicode="&#x3b6;" d="M997 -68 q0 -128 -100 -241 l-448 0 q55 38 85.5 83.5 q30.5 45.5 30.5 88.5 q0 29 -18 52 q-18 23 -53.5 45.5 q-35.5 22.5 -171.5 84.5 q-265 124 -265 412 q0 153 108.5 331 q108.5 178 369.5 429 l0 4 l-359 0 l0 295 l766 0 l0 -295 q-188 -188 -277 -302 q-89 -114 -132.5 -212.5 q-43.5 -98.5 -43.5 -178.5 q0 -87 46 -146.5 q46 -59.5 170 -113.5 q162 -72 227 -151.5 q65 -79.5 65 -184.5 Z" /><glyph glyph-name="" unicode="&#x3b7;" d="M766 -395 l0 913 q0 95 -28.5 136.5 q-28.5 41.5 -92.5 41.5 q-55 0 -86 -43 q-31 -43 -31 -110 l0 -543 l-426 0 l0 668 q0 116 -11 216 q-11 100 -30 140 l433 0 q14 -25 23 -71 q9 -46 9 -93 l4 0 q52 89 137.5 139 q85.5 50 188.5 50 q336 0 336 -424 l0 -1020 l-426 0 Z" /><glyph glyph-name="" unicode="&#x3b8;" d="M1241 786 q0 -377 -156.5 -594 q-156.5 -217 -437.5 -217 q-279 0 -434.5 210 q-155.5 210 -155.5 583 q0 237 72.5 412.5 q72.5 175.5 207.5 268.5 q135 93 312 93 q175 0 307.5 -91 q132.5 -91 208.5 -269.5 q76 -178.5 76 -395.5 ZM805 907 q-9 153 -48 235.5 q-39 82.5 -108 82.5 q-133 0 -155 -318 l311 0 ZM494 612 q12 -160 50 -241.5 q38 -81.5 107 -81.5 q127 0 152 323 l-309 0 Z" /><glyph glyph-name="" unicode="&#x3b9;" d="M748 14 q-78 -39 -228 -39 q-178 0 -278.5 98 q-100.5 98 -100.5 279 l0 672 l426 0 l0 -590 q0 -135 88 -135 q41 0 93 25 l0 -310 Z" /><glyph glyph-name="" unicode="&#x3ba;" d="M813 0 l-201 369 l-84 -72 l0 -297 l-426 0 l0 1024 l426 0 l0 -374 q211 224 255 267 q44 43 82 69 q38 26 79.5 40 q41.5 14 92.5 14 q39 0 86.5 -6 q47.5 -6 62.5 -12 l0 -332 q-39 15 -89 15 q-75 0 -130 -48 l-52 -44 l361 -613 l-463 0 Z" /><glyph glyph-name="" unicode="&#x3bb;" d="M756 0 l-148 639 l-133 -639 l-448 0 l426 1020 l-13 31 q-21 56 -65 88 q-44 32 -105 32 q-79 0 -147 -51 l0 344 q109 41 246 41 q174 0 293.5 -98 q119.5 -98 187.5 -309 l346 -1098 l-440 0 Z" /><glyph glyph-name="" unicode="&#x3bc;" d="M784 133 q-50 -156 -188 -156 q-43 0 -66 13 l-2 0 l0 -385 l-426 0 l0 1419 l426 0 l0 -537 q0 -70 14 -110.5 q14 -40.5 36 -59 q22 -18.5 63 -18.5 q125 0 125 229 l0 496 l426 0 l0 -587 q0 -135 88 -135 q26 0 60 10 l0 -295 q-108 -40 -256 -40 q-116 0 -188.5 37.5 q-72.5 37.5 -107.5 118.5 l-4 0 Z" /><glyph glyph-name="" unicode="&#x3bd;" d="M1110 741 q0 -92 -22.5 -179 q-22.5 -87 -61 -168.5 q-38.5 -81.5 -99 -167.5 q-60.5 -86 -190.5 -226 l-370 0 l-414 1024 l442 0 l217 -707 q55 70 85 169.5 q30 99.5 30 209.5 q0 92 -25.5 197.5 q-25.5 105.5 -52.5 130.5 l410 0 q21 -28 36 -108 q15 -80 15 -175 Z" /><glyph glyph-name="" unicode="&#x3be;" d="M1028 -41 q0 -146 -100 -268 l-449 0 q48 29 82.5 69.5 q34.5 40.5 34.5 87.5 q0 54 -42 84.5 q-42 30.5 -138 59.5 q-199 58 -279 149 q-80 91 -80 236 q0 142 92.5 256.5 q92.5 114.5 251.5 171.5 q-78 23 -127 75.5 q-49 52.5 -49 116.5 q0 142 205 217 l0 7 l-291 0 l0 295 l791 0 l0 -279 q-167 -38 -255 -99 q-88 -61 -88 -134 q0 -38 32 -70 q32 -32 88 -41 q76 0 184 10 l0 -319 q-30 4 -117 4 l-41 0 q-114 0 -179 -42.5 q-65 -42.5 -65 -115.5 q0 -62 45 -100.5 q45 -38.5 138 -61.5 q195 -50 275.5 -122.5 q80.5 -72.5 80.5 -186.5 Z" /><glyph glyph-name="" unicode="&#x3c1;" d="M1257 516 q0 -154 -58.5 -279 q-58.5 -125 -164.5 -193.5 q-106 -68.5 -239 -68.5 q-68 0 -138.5 18.5 q-70.5 18.5 -124.5 55.5 l-4 0 l0 -444 l-426 0 l0 891 q0 266 152 409.5 q152 143.5 434 143.5 q271 0 420 -138.5 q149 -138.5 149 -394.5 ZM825 514 q0 102 -42 162.5 q-42 60.5 -113 60.5 q-67 0 -104.5 -47 q-37.5 -47 -37.5 -129 l0 -223 q29 -19 58.5 -35 q29.5 -16 75.5 -16 q81 0 122 62 q41 62 41 165 Z" /><glyph glyph-name="" unicode="&#x3c2;" d="M999 -66 q0 -65 -27 -130.5 q-27 -65.5 -73 -112.5 l-434 0 q54 38 85.5 83 q31.5 45 31.5 89 q0 97 -166 149 q-170 54 -264.5 168.5 q-94.5 114.5 -94.5 265.5 q0 171 76 305.5 q76 134.5 222.5 216 q146.5 81.5 312.5 81.5 q196 0 284 -48 l0 -331 q-80 67 -194 67 q-117 0 -193 -74 q-76 -74 -76 -184 q0 -76 47 -124.5 q47 -48.5 179 -90.5 q146 -46 215 -126.5 q69 -80.5 69 -203.5 Z" /><glyph glyph-name="" unicode="&#x3c5;" d="M141 590 q0 60 -15.5 89 q-15.5 29 -58.5 29 q-33 0 -65 -13 l0 298 q72 39 225 39 q178 0 259 -76.5 q81 -76.5 81 -255.5 l0 -228 q0 -78 38.5 -125.5 q38.5 -47.5 105.5 -47.5 q65 0 100 47.5 q35 47.5 35 138.5 q0 139 -28 268.5 q-28 129.5 -86 270.5 l438 0 q102 -260 102 -512 q0 -257 -150.5 -397 q-150.5 -140 -427.5 -140 q-180 0 -303.5 57.5 q-123.5 57.5 -186.5 164.5 q-63 107 -63 260 l0 133 Z" /><glyph glyph-name="" unicode="&#x3c7;" d="M1167 -449 q-49 -30 -180 -30 q-134 0 -226 80 q-92 80 -163 254 l-53 131 l-156 -445 l-440 0 l428 778 l-96 228 q-54 123 -86 156.5 q-32 33.5 -74 33.5 q-45 0 -94 -32 l0 317 q49 27 174 27 q125 0 209 -59.5 q84 -59.5 135 -184.5 l57 -146 l111 365 l444 0 l-377 -698 l113 -260 q26 -58 45.5 -101 q19.5 -43 40 -71.5 q20.5 -28.5 45 -43 q24.5 -14.5 59.5 -14.5 q32 0 49 7 q17 7 35 20 l0 -312 Z" /><glyph glyph-name="" unicode="&#x3c8;" d="M1599 559 q0 -178 -65 -311 q-65 -133 -183.5 -203 q-118.5 -70 -271.5 -70 l-41 0 l0 -456 l-385 0 l0 456 l-39 0 q-153 0 -272 71 q-119 71 -183.5 203 q-64.5 132 -64.5 310 l0 465 l383 0 l0 -465 q0 -135 38 -204.5 q38 -69.5 120 -69.5 l18 0 l0 1046 l385 0 l0 -1046 l21 0 q155 0 155 274 l0 465 l385 0 l0 -465 Z" /><glyph glyph-name="" unicode="&#x3c9;" d="M1677 508 q0 -247 -128 -390 q-128 -143 -349 -143 q-111 0 -199 48 q-88 48 -131 131 l-4 0 q-40 -81 -125.5 -130 q-85.5 -49 -199.5 -49 q-144 0 -251.5 66 q-107.5 66 -164.5 188.5 q-57 122.5 -57 280.5 q0 248 133 514 l411 0 q-72 -127 -114.5 -265 q-42.5 -138 -42.5 -247 q0 -97 32.5 -155 q32.5 -58 83.5 -58 q60 0 84.5 45 q24.5 45 24.5 129 l0 277 l385 0 l0 -277 q0 -88 26 -131 q26 -43 83 -43 q51 0 83.5 59.5 q32.5 59.5 32.5 153.5 q0 110 -43 248.5 q-43 138.5 -114 263.5 l411 0 q133 -266 133 -516 Z" /><glyph glyph-name="" unicode="&#x402;" d="M1604 432 q0 -133 -50.5 -234 q-50.5 -101 -146.5 -156.5 q-96 -55.5 -231 -55.5 q-55 0 -118 8 q-63 8 -100 21 l0 292 q55 -24 111 -24 q54 0 88.5 39.5 q34.5 39.5 34.5 107.5 q0 164 -201 164 l-125 0 l0 -594 l-434 0 l0 1096 l-401 0 l0 338 l1241 0 l0 -338 l-406 0 l0 -207 l228 0 q245 0 377.5 -120 q132.5 -120 132.5 -337 Z" /><glyph glyph-name="" unicode="&#x404;" d="M1208 39 q-178 -64 -411 -64 q-229 0 -393.5 82 q-164.5 82 -253.5 243.5 q-89 161.5 -89 383.5 q0 365 208 569.5 q208 204.5 579 204.5 q186 0 360 -45 l0 -375 q-61 36 -148 57 q-87 21 -171 21 q-148 0 -237 -62 q-89 -62 -113 -182 l521 0 l0 -327 l-517 0 q23 -113 110 -170.5 q87 -57.5 232 -57.5 q159 0 323 82 l0 -360 Z" /><glyph glyph-name="" unicode="&#x409;" d="M2177 510 q0 -242 -152 -376 q-152 -134 -432 -134 l-587 0 l0 1083 l-226 0 q-50 -426 -92.5 -613.5 q-42.5 -187.5 -100.5 -288 q-58 -100.5 -145.5 -150 q-87.5 -49.5 -205.5 -49.5 q-117 0 -201 22 l0 340 q34 -12 80 -12 q56 0 101.5 54.5 q45.5 54.5 79.5 183 q34 128.5 71.5 359 q37.5 230.5 66.5 505.5 l1004 0 l0 -482 l180 0 q194 0 317.5 -47.5 q123.5 -47.5 182.5 -141.5 q59 -94 59 -253 ZM1720 477 q0 84 -46 125 q-46 41 -142 41 l-94 0 l0 -334 l84 0 q102 0 150 41.5 q48 41.5 48 126.5 Z" /><glyph glyph-name="" unicode="&#x40a;" d="M2241 504 q0 -242 -152 -373 q-152 -131 -432 -131 l-588 0 l0 561 l-496 0 l0 -561 l-432 0 l0 1434 l432 0 l0 -510 l496 0 l0 510 l432 0 l0 -488 l180 0 q289 0 424.5 -105.5 q135.5 -105.5 135.5 -336.5 ZM1784 471 q0 77 -42 114.5 q-42 37.5 -147 37.5 l-94 0 l0 -310 l84 0 q110 0 154.5 39 q44.5 39 44.5 119 Z" /><glyph glyph-name="" unicode="&#x40b;" d="M1253 0 l0 332 q0 190 -219 190 l-168 0 l0 -522 l-432 0 l-2 1096 l-401 0 l0 338 l1241 0 l0 -338 l-406 0 l0 -215 l277 0 q267 0 405 -128 q138 -128 138 -374 l0 -379 l-433 0 Z" /><glyph glyph-name="" unicode="&#x40e;" d="M289 -25 q-114 0 -178 33 l0 383 q32 -22 76 -36.5 q44 -14.5 87 -14.5 q61 0 99 29.5 q38 29.5 80 105.5 l-453 959 l496 0 l151 -420 q24 -61 33 -152 l4 0 q13 94 33 144 l157 428 l457 0 l-457 -988 q-86 -184 -165 -284 q-79 -100 -173 -143.5 q-94 -43.5 -247 -43.5 ZM1140 1942 q-17 -180 -137.5 -278 q-120.5 -98 -325.5 -98 q-134 0 -236 48 q-102 48 -159 134 q-57 86 -60 194 l279 0 q14 -79 60.5 -124 q46.5 -45 121.5 -45 q71 0 118 45.5 q47 45.5 59 123.5 l280 0 Z" /><glyph glyph-name="" unicode="&#x40f;" d="M1013 0 l0 -403 l-388 0 l0 403 l-484 0 l0 1434 l432 0 l0 -1067 l496 0 l0 1067 l432 0 l0 -1434 l-488 0 Z" /><glyph glyph-name="" unicode="&#x411;" d="M1366 473 q0 -227 -139 -350 q-139 -123 -402 -123 l-684 0 l0 1434 l1039 0 l0 -338 l-607 0 l0 -222 l304 0 q159 0 268.5 -50 q109.5 -50 165 -140 q55.5 -90 55.5 -211 ZM907 442 q0 65 -40 103.5 q-40 38.5 -111 38.5 l-183 0 l0 -293 l164 0 q81 0 125.5 38.5 q44.5 38.5 44.5 112.5 Z" /><glyph glyph-name="" unicode="&#x413;" d="M573 1096 l0 -1096 l-432 0 l0 1434 l926 0 l0 -338 l-494 0 Z" /><glyph glyph-name="" unicode="&#x414;" d="M1212 -402 l0 402 l-817 0 l0 -402 l-380 0 l0 746 l142 0 q258 457 284 1090 l938 0 l0 -1090 l222 0 l0 -746 l-389 0 ZM947 1083 l-161 0 q-30 -366 -197 -739 l358 0 l0 739 Z" /><glyph glyph-name="" unicode="&#x416;" d="M1593 0 l-322 598 q-26 51 -35 82 l-4 0 l0 -680 l-412 0 l0 680 l-4 0 q-11 -39 -35 -82 l-321 -598 l-505 0 l461 750 l-422 684 l492 0 l313 -623 l17 -41 l4 0 l0 664 l412 0 l0 -664 l4 0 l18 41 l312 623 l492 0 l-422 -684 l461 -750 l-504 0 Z" /><glyph glyph-name="" unicode="&#x417;" d="M1126 410 q0 -213 -161 -324 q-161 -111 -463 -111 q-134 0 -249.5 20.5 q-115.5 20.5 -193.5 57.5 l0 342 q84 -51 188 -79.5 q104 -28.5 208 -28.5 q233 0 233 141 q0 70 -67.5 108.5 q-67.5 38.5 -190.5 38.5 l-207 0 l0 314 l197 0 q114 0 172.5 32.5 q58.5 32.5 58.5 102.5 q0 63 -48 93 q-48 30 -148 30 q-153 0 -328 -90 l0 321 q207 80 436 80 q252 0 387 -95.5 q135 -95.5 135 -270.5 q0 -133 -78 -224.5 q-78 -91.5 -221 -119.5 l0 -5 q157 -19 248.5 -109.5 q91.5 -90.5 91.5 -223.5 Z" /><glyph glyph-name="" unicode="&#x418;" d="M1122 0 l0 602 q0 132 6 238 l-4 0 q-20 -34 -46 -73 q-26 -39 -558 -767 l-379 0 l0 1434 l400 0 l0 -625 q0 -116 -6 -170 l4 0 q4 9 10.5 20 q6.5 11 79.5 117 l485 658 l408 0 l0 -1434 l-400 0 Z" /><glyph glyph-name="" unicode="&#x419;" d="M1122 0 l0 602 q0 132 6 238 l-4 0 q-20 -34 -46 -73 q-26 -39 -558 -767 l-379 0 l0 1434 l400 0 l0 -643 q0 -108 -6 -152 l4 0 q4 9 10.5 20 q6.5 11 79.5 117 l485 658 l408 0 l0 -1434 l-400 0 ZM1306 1942 q-17 -180 -137.5 -278 q-120.5 -98 -325.5 -98 q-134 0 -236 48 q-102 48 -159 134 q-57 86 -60 194 l279 0 q14 -79 60.5 -124 q46.5 -45 121.5 -45 q71 0 118 45.5 q47 45.5 59 123.5 l280 0 Z" /><glyph glyph-name="" unicode="&#x41b;" d="M780 1083 q-50 -426 -92.5 -613.5 q-42.5 -187.5 -100.5 -288 q-58 -100.5 -145.5 -150 q-87.5 -49.5 -205.5 -49.5 q-117 0 -201 22 l0 340 q34 -12 80 -12 q56 0 101.5 54.5 q45.5 54.5 79.5 183 q34 128.5 71.5 359 q37.5 230.5 66.5 505.5 l1004 0 l0 -1434 l-432 0 l0 1083 l-226 0 Z" /><glyph glyph-name="" unicode="&#x41f;" d="M1069 0 l0 1067 l-496 0 l0 -1067 l-432 0 l0 1434 l1360 0 l0 -1434 l-432 0 Z" /><glyph glyph-name="" unicode="&#x423;" d="M289 -25 q-114 0 -178 33 l0 383 q32 -22 76 -36.5 q44 -14.5 87 -14.5 q61 0 99 29.5 q38 29.5 80 105.5 l-453 959 l496 0 l151 -420 q24 -61 33 -152 l4 0 q13 94 33 144 l157 428 l457 0 l-457 -988 q-86 -184 -165 -284 q-79 -100 -173 -143.5 q-94 -43.5 -247 -43.5 Z" /><glyph glyph-name="" unicode="&#x424;" d="M1855 725 q0 -182 -75.5 -316 q-75.5 -134 -220.5 -206 q-145 -72 -347 -72 l-45 0 l0 -177 l-432 0 l0 177 l-45 0 q-199 0 -343.5 72.5 q-144.5 72.5 -221 206.5 q-76.5 134 -76.5 315 q0 274 164.5 424.5 q164.5 150.5 466.5 150.5 l55 0 l0 180 l432 0 l0 -180 l56 0 q300 0 466 -150.5 q166 -150.5 166 -424.5 ZM1399 713 q0 129 -57.5 203.5 q-57.5 74.5 -157.5 74.5 l-17 0 l0 -551 l11 0 q104 0 162.5 72 q58.5 72 58.5 201 ZM735 991 l-16 0 q-100 0 -156.5 -73.5 q-56.5 -73.5 -56.5 -204.5 q0 -131 58 -202 q58 -71 161 -71 l10 0 l0 551 Z" /><glyph glyph-name="" unicode="&#x426;" d="M1334 -373 l0 373 l-1193 0 l0 1434 l432 0 l0 -1067 l496 0 l0 1067 l432 0 l0 -1067 l221 0 l0 -740 l-388 0 Z" /><glyph glyph-name="" unicode="&#x427;" d="M993 0 l0 466 q-79 -25 -188.5 -42.5 q-109.5 -17.5 -212.5 -17.5 q-479 0 -479 473 l0 555 l432 0 l0 -508 q0 -162 178 -162 q107 0 270 42 l0 628 l432 0 l0 -1434 l-432 0 Z" /><glyph glyph-name="" unicode="&#x428;" d="M141 0 l0 1434 l432 0 l0 -1067 l271 0 l0 1067 l432 0 l0 -1067 l270 0 l0 1067 l432 0 l0 -1434 l-1837 0 Z" /><glyph glyph-name="" unicode="&#x429;" d="M1811 -402 l0 402 l-1670 0 l0 1434 l432 0 l0 -1067 l271 0 l0 1067 l432 0 l0 -1067 l270 0 l0 1067 l432 0 l0 -1067 l222 0 l0 -769 l-389 0 Z" /><glyph glyph-name="" unicode="&#x42a;" d="M1606 510 q0 -242 -152 -376 q-152 -134 -432 -134 l-590 0 l0 1096 l-401 0 l0 338 l835 0 l0 -482 l181 0 q194 0 317.5 -47.5 q123.5 -47.5 182.5 -141.5 q59 -94 59 -253 ZM1149 477 q0 84 -46 125 q-46 41 -142 41 l-95 0 l0 -334 l84 0 q103 0 151 42 q48 42 48 126 Z" /><glyph glyph-name="" unicode="&#x42b;" d="M1452 0 l0 1434 l432 0 l0 -1434 l-432 0 ZM1313 510 q0 -242 -152 -376 q-152 -134 -432 -134 l-588 0 l0 1434 l432 0 l0 -482 l181 0 q194 0 317.5 -47.5 q123.5 -47.5 182.5 -141.5 q59 -94 59 -253 ZM856 477 q0 84 -46 125 q-46 41 -142 41 l-95 0 l0 -334 l84 0 q103 0 151 42 q48 42 48 126 Z" /><glyph glyph-name="" unicode="&#x42c;" d="M1313 510 q0 -242 -152 -376 q-152 -134 -432 -134 l-588 0 l0 1434 l432 0 l0 -482 l181 0 q194 0 317.5 -47.5 q123.5 -47.5 182.5 -141.5 q59 -94 59 -253 ZM856 477 q0 84 -46 125 q-46 41 -142 41 l-95 0 l0 -334 l84 0 q103 0 151 42 q48 42 48 126 Z" /><glyph glyph-name="" unicode="&#x42d;" d="M1229 731 q0 -227 -91.5 -400.5 q-91.5 -173.5 -260.5 -264.5 q-169 -91 -398 -91 q-101 0 -197 14 q-96 14 -200 50 l0 358 q160 -80 321 -80 q151 0 235.5 55 q84.5 55 111.5 173 l-520 0 l0 327 l526 0 q-34 126 -117.5 185 q-83.5 59 -228.5 59 q-189 0 -328 -72 l0 359 q212 55 391 55 q372 0 564 -185.5 q192 -185.5 192 -541.5 Z" /><glyph glyph-name="" unicode="&#x42e;" d="M2163 721 q0 -217 -88.5 -387 q-88.5 -170 -248 -264.5 q-159.5 -94.5 -360.5 -94.5 q-165 0 -306.5 68.5 q-141.5 68.5 -237 196.5 q-95.5 128 -127.5 297 l-222 0 l0 -537 l-432 0 l0 1434 l432 0 l0 -543 l228 0 q56 261 240.5 414 q184.5 153 443.5 153 q197 0 353 -92.5 q156 -92.5 240.5 -260.5 q84.5 -168 84.5 -384 ZM1704 709 q0 177 -59 279 q-59 102 -164 102 q-113 0 -177.5 -100 q-64.5 -100 -64.5 -275 q0 -177 62.5 -274 q62.5 -97 173.5 -97 q105 0 167 97 q62 97 62 268 Z" /><glyph glyph-name="" unicode="&#x42f;" d="M838 0 l0 518 l-34 0 q-168 0 -220 -199 l-84 -319 l-488 0 l122 373 q35 109 102.5 177 q67.5 68 182.5 105 l0 4 q-306 75 -306 365 q0 197 153.5 303.5 q153.5 106.5 454.5 106.5 l549 0 l0 -1434 l-432 0 ZM838 1126 l-73 0 q-94 0 -143.5 -37.5 q-49.5 -37.5 -49.5 -109.5 q0 -71 53.5 -116.5 q53.5 -45.5 141.5 -45.5 l71 0 l0 309 Z" /><glyph glyph-name="" unicode="&#x431;" d="M1241 520 q0 -162 -73.5 -286 q-73.5 -124 -211 -191.5 q-137.5 -67.5 -321.5 -67.5 q-283 0 -430.5 168.5 q-147.5 168.5 -147.5 501.5 q0 271 82.5 457.5 q82.5 186.5 247.5 275.5 q51 28 136 48.5 q85 20.5 283 43.5 q137 16 173 25 q36 9 74.5 24.5 q38.5 15.5 62.5 32.5 l0 -313 q-30 -29 -72 -45 q-42 -16 -160 -31 q-206 -25 -263.5 -45.5 q-57.5 -20.5 -86 -75.5 q-28.5 -55 -38.5 -159 l4 0 q117 110 286 110 q224 0 339.5 -119 q115.5 -119 115.5 -354 ZM811 510 q0 197 -160 197 q-47 0 -93.5 -25.5 q-46.5 -25.5 -63.5 -54.5 q-5 -37 -5 -70 l0 -29 q0 -109 42 -175 q42 -66 116 -66 q72 0 118 59 q46 59 46 164 Z" /><glyph glyph-name="" unicode="&#x432;" d="M1186 315 q0 -156 -98.5 -235.5 q-98.5 -79.5 -290.5 -79.5 l-695 0 l0 1024 l662 0 q201 0 295 -61 q94 -61 94 -187 q0 -60 -29 -106 q-29 -46 -78 -77.5 q-49 -31.5 -104 -41.5 q108 -12 176 -78 q68 -66 68 -158 ZM715 715 q0 45 -26.5 63.5 q-26.5 18.5 -82.5 18.5 l-78 0 l0 -168 l80 0 q53 0 80 24.5 q27 24.5 27 61.5 ZM745 328 q0 40 -27.5 63 q-27.5 23 -78.5 23 l-111 0 l0 -181 l99 0 q118 0 118 95 Z" /><glyph glyph-name="" unicode="&#x433;" d="M528 709 l0 -709 l-426 0 l0 1024 l732 0 l0 -315 l-306 0 Z" /><glyph glyph-name="" unicode="&#x434;" d="M1007 -373 l0 373 l-641 0 l0 -373 l-335 0 l0 660 l88 0 q98 171 145.5 349 q47.5 178 57.5 388 l858 0 l0 -737 l168 0 l0 -660 l-341 0 ZM756 748 l-117 0 q-18 -249 -125 -461 l242 0 l0 461 Z" /><glyph glyph-name="" unicode="&#x436;" d="M1301 0 l-221 514 l-4 0 l0 -514 l-406 0 l0 514 l-4 0 l-219 -514 l-456 0 l295 543 l-292 481 l444 0 l228 -494 l4 0 l0 494 l406 0 l0 -494 l4 0 l227 494 l444 0 l-292 -481 l297 -543 l-455 0 Z" /><glyph glyph-name="" unicode="&#x437;" d="M993 299 q0 -117 -64 -184.5 q-64 -67.5 -191 -100 q-127 -32.5 -316 -32.5 q-173 0 -340 47 l0 264 q148 -57 280 -57 q102 0 145.5 18.5 q43.5 18.5 43.5 62.5 q0 52 -38.5 72.5 q-38.5 20.5 -145.5 20.5 l-197 0 l0 227 l201 0 q87 0 122 20 q35 20 35 68 q0 40 -37 57 q-37 17 -122 17 q-119 0 -248 -45 l0 247 q180 48 348 48 q265 0 383.5 -63.5 q118.5 -63.5 118.5 -209.5 q0 -93 -67 -156.5 q-67 -63.5 -195 -84.5 l0 -3 q136 -10 210 -71.5 q74 -61.5 74 -161.5 Z" /><glyph glyph-name="" unicode="&#x438;" d="M852 0 l0 555 q-39 -75 -82 -139 l-291 -416 l-377 0 l0 1024 l392 0 l0 -524 q27 58 75 127 l271 397 l401 0 l0 -1024 l-389 0 Z" /><glyph glyph-name="" unicode="&#x439;" d="M852 0 l0 555 q-39 -75 -82 -139 l-291 -416 l-377 0 l0 1024 l392 0 l0 -524 q27 58 75 127 l271 397 l401 0 l0 -1024 l-389 0 ZM1146 1501 q-17 -180 -137.5 -278 q-120.5 -98 -325.5 -98 q-134 0 -236 48 q-102 48 -159 134 q-57 86 -60 194 l279 0 q14 -79 60.5 -124 q46.5 -45 121.5 -45 q71 0 118 45.5 q47 45.5 59 123.5 l280 0 Z" /><glyph glyph-name="" unicode="&#x43a;" d="M760 0 l-228 526 l-4 0 l0 -526 l-426 0 l0 1024 l426 0 l0 -481 l4 0 l207 481 l480 0 l-277 -469 l293 -555 l-475 0 Z" /><glyph glyph-name="" unicode="&#x43b;" d="M825 0 l0 737 l-163 0 q-30 -230 -68 -374 q-38 -144 -89 -224 q-51 -80 -127 -115.5 q-76 -35.5 -214 -35.5 q-92 0 -144 18 l0 264 q28 -10 64 -10 q70 0 112 74.5 q42 74.5 77 241 q35 166.5 70 448.5 l908 0 l0 -1024 l-426 0 Z" /><glyph glyph-name="" unicode="&#x43c;" d="M1186 0 l0 772 q-13 -69 -24 -118.5 q-11 -49.5 -175 -653.5 l-366 0 l-154 582 q-2 10 -7.5 32 q-5.5 22 -12 49 q-6.5 27 -12 54.5 q-5.5 27.5 -7.5 48.5 l0 -766 l-326 0 l0 1024 l564 0 l141 -526 q20 -85 29 -160 q3 22 7.5 49.5 q4.5 27.5 16 83.5 q11.5 56 146.5 553 l565 0 l0 -1024 l-385 0 Z" /><glyph glyph-name="" unicode="&#x43d;" d="M766 0 l0 399 l-238 0 l0 -399 l-426 0 l0 1024 l426 0 l0 -348 l238 0 l0 348 l426 0 l0 -1024 l-426 0 Z" /><glyph glyph-name="" unicode="&#x43f;" d="M766 0 l0 737 l-238 0 l0 -737 l-426 0 l0 1024 l1090 0 l0 -1024 l-426 0 Z" /><glyph glyph-name="" unicode="&#x442;" d="M705 709 l0 -709 l-426 0 l0 709 l-248 0 l0 315 l921 0 l0 -315 l-247 0 Z" /><glyph glyph-name="" unicode="&#x444;" d="M1724 518 q0 -156 -67 -273 q-67 -117 -196 -181 q-129 -64 -306 -64 l-65 0 l0 -471 l-404 0 l0 471 l-65 0 q-176 0 -304.5 64 q-128.5 64 -197 181 q-68.5 117 -68.5 273 q0 154 65.5 268 q65.5 114 191.5 176 q126 62 304 62 l74 0 l0 451 l404 0 l0 -451 l73 0 q265 0 413 -133.5 q148 -133.5 148 -372.5 ZM1294 508 q0 109 -50 172 q-50 63 -140 63 l-14 0 l0 -462 l8 0 q94 0 145 60.5 q51 60.5 51 166.5 ZM686 743 l-14 0 q-89 0 -140 -62 q-51 -62 -51 -173 q0 -109 51 -168 q51 -59 144 -59 l10 0 l0 462 Z" /><glyph glyph-name="" unicode="&#x446;" d="M1025 -373 l0 373 l-923 0 l0 1024 l426 0 l0 -737 l238 0 l0 737 l426 0 l0 -737 l174 0 l0 -660 l-341 0 Z" /><glyph glyph-name="" unicode="&#x447;" d="M733 0 l0 315 q-149 -84 -303 -84 q-163 0 -251.5 88.5 q-88.5 88.5 -88.5 245.5 l0 459 l402 0 l0 -375 q0 -53 27 -82.5 q27 -29.5 77 -29.5 q68 0 137 45 l0 442 l426 0 l0 -1024 l-426 0 Z" /><glyph glyph-name="" unicode="&#x448;" d="M102 0 l0 1024 l416 0 l0 -737 l194 0 l0 737 l416 0 l0 -737 l195 0 l0 737 l416 0 l0 -1024 l-1637 0 Z" /><glyph glyph-name="" unicode="&#x449;" d="M1572 -373 l0 373 l-1470 0 l0 1024 l416 0 l0 -737 l194 0 l0 737 l416 0 l0 -737 l195 0 l0 737 l416 0 l0 -737 l174 0 l0 -660 l-341 0 Z" /><glyph glyph-name="" unicode="&#x44a;" d="M1376 362 q0 -174 -101.5 -268 q-101.5 -94 -287.5 -94 l-694 0 l0 709 l-273 0 l0 315 l699 0 l0 -330 l274 0 q186 0 284.5 -88 q98.5 -88 98.5 -244 ZM936 352 q0 101 -123 101 l-94 0 l0 -209 l84 0 q70 0 101.5 25.5 q31.5 25.5 31.5 82.5 Z" /><glyph glyph-name="" unicode="&#x44b;" d="M1290 0 l0 1024 l426 0 l0 -1024 l-426 0 ZM1186 362 q0 -174 -101.5 -268 q-101.5 -94 -287.5 -94 l-695 0 l0 1024 l426 0 l0 -330 l275 0 q183 0 283 -87.5 q100 -87.5 100 -244.5 ZM745 352 q0 101 -122 101 l-95 0 l0 -209 l84 0 q70 0 101.5 25.5 q31.5 25.5 31.5 82.5 Z" /><glyph glyph-name="" unicode="&#x44c;" d="M1186 362 q0 -174 -101.5 -268 q-101.5 -94 -287.5 -94 l-695 0 l0 1024 l426 0 l0 -330 l275 0 q183 0 283 -87.5 q100 -87.5 100 -244.5 ZM745 352 q0 101 -122 101 l-95 0 l0 -209 l84 0 q70 0 101.5 25.5 q31.5 25.5 31.5 82.5 Z" /><glyph glyph-name="" unicode="&#x44d;" d="M952 510 q0 -149 -69 -272.5 q-69 -123.5 -196.5 -193 q-127.5 -69.5 -295.5 -69.5 q-84 0 -152 12 q-68 12 -165 52 l0 262 q42 -25 104.5 -41 q62.5 -16 124.5 -16 q180 0 225 147 l-354 0 l0 225 l361 0 q-37 166 -244 166 q-53 0 -115.5 -15.5 q-62.5 -15.5 -101.5 -39.5 l0 266 q58 24 141 40 q83 16 166 16 q280 0 425.5 -136.5 q145.5 -136.5 145.5 -402.5 Z" /><glyph glyph-name="" unicode="&#x44e;" d="M1864 530 q0 -259 -156.5 -407 q-156.5 -148 -437.5 -148 q-238 0 -388.5 107.5 q-150.5 107.5 -189.5 302.5 l-164 0 l0 -385 l-426 0 l0 1024 l426 0 l0 -348 l172 0 q48 178 199 275.5 q151 97.5 373 97.5 q182 0 315.5 -67 q133.5 -67 205 -186 q71.5 -119 71.5 -266 ZM1432 528 q0 209 -160 209 q-160 0 -160 -219 q0 -231 162 -231 q158 0 158 241 Z" /><glyph glyph-name="" unicode="&#x44f;" d="M752 0 l0 350 l-25 0 q-48 0 -83 -31 q-35 -31 -62 -108 l-78 -211 l-465 0 l113 256 q38 87 94 134 q56 47 143 69 q-131 25 -196.5 87.5 q-65.5 62.5 -65.5 178.5 q0 153 120 226 q120 73 361 73 l570 0 l0 -1024 l-426 0 ZM752 782 l-58 0 q-81 0 -112 -26.5 q-31 -26.5 -31 -77.5 q0 -107 147 -107 l54 0 l0 211 Z" /><glyph glyph-name="" unicode="&#x452;" d="M532 854 q56 81 133.5 122.5 q77.5 41.5 167.5 41.5 q195 0 285 -167 q90 -167 90 -509 q0 -323 -54 -491.5 q-54 -168.5 -172.5 -250 q-118.5 -81.5 -320.5 -81.5 q-75 0 -131 28 l0 297 q43 -30 90 -30 q65 0 99.5 48.5 q34.5 48.5 49.5 158 q15 109.5 15 305.5 q0 208 -32.5 294.5 q-32.5 86.5 -106.5 86.5 q-54 0 -85.5 -41.5 q-31.5 -41.5 -31.5 -114.5 l0 -551 l-426 0 l0 1155 l-102 0 l0 195 l102 0 l0 166 l426 0 l0 -166 l276 0 l0 -195 l-276 0 l0 -301 l4 0 Z" /><glyph glyph-name="" unicode="&#x454;" d="M936 39 q-86 -37 -162.5 -50.5 q-76.5 -13.5 -163.5 -13.5 q-161 0 -287.5 65 q-126.5 65 -196 183.5 q-69.5 118.5 -69.5 265.5 q0 176 73.5 302 q73.5 126 210.5 192 q137 66 318 66 q147 0 277 -48 l0 -276 q-32 22 -94 39.5 q-62 17.5 -121 17.5 q-103 0 -162.5 -41 q-59.5 -41 -81.5 -125 l359 0 l0 -225 l-355 0 q45 -147 226 -147 q52 0 114 15.5 q62 15.5 115 45.5 l0 -266 Z" /><glyph glyph-name="" unicode="&#x457;" d="M98 0 l0 1024 l426 0 l0 -1024 l-426 0 ZM750 1309 q0 -71 -51.5 -117.5 q-51.5 -46.5 -141.5 -46.5 q-85 0 -138.5 47 q-53.5 47 -53.5 117 q0 73 53 116 q53 43 139 43 q86 0 139.5 -44 q53.5 -44 53.5 -115 ZM248 1309 q0 -71 -51.5 -117.5 q-51.5 -46.5 -141.5 -46.5 q-82 0 -137 47 q-55 47 -55 117 q0 71 53 115 q53 44 139 44 q87 0 140 -43.5 q53 -43.5 53 -115.5 Z" /><glyph glyph-name="" unicode="&#x459;" d="M825 737 l-163 0 q-30 -230 -68 -374 q-38 -144 -89 -224 q-51 -80 -127 -115.5 q-76 -35.5 -214 -35.5 q-92 0 -144 18 l0 264 q28 -10 64 -10 q70 0 112 74.5 q42 74.5 77 241 q35 166.5 70 448.5 l908 0 l0 -330 l275 0 q183 0 283 -87.5 q100 -87.5 100 -244.5 q0 -174 -101.5 -268 q-101.5 -94 -287.5 -94 l-695 0 l0 737 ZM1468 352 q0 101 -122 101 l-95 0 l0 -209 l84 0 q70 0 101.5 25.5 q31.5 25.5 31.5 82.5 Z" /><glyph glyph-name="" unicode="&#x45a;" d="M1849 358 q0 -174 -101.5 -266 q-101.5 -92 -287.5 -92 l-694 0 l0 408 l-238 0 l0 -408 l-426 0 l0 1024 l426 0 l0 -340 l238 0 l0 340 l426 0 l0 -338 l274 0 q185 0 284 -85.5 q99 -85.5 99 -242.5 ZM1409 348 q0 92 -123 92 l-94 0 l0 -192 l84 0 q74 0 103.5 24 q29.5 24 29.5 76 Z" /><glyph glyph-name="" unicode="&#x45b;" d="M528 1155 l0 -300 l4 0 q55 79 133.5 121.5 q78.5 42.5 168.5 42.5 q166 0 253 -106.5 q87 -106.5 87 -313.5 l0 -599 l-412 0 l0 554 q0 153 -117 153 q-57 0 -87 -43.5 q-30 -43.5 -30 -111.5 l0 -552 l-426 0 l0 1155 l-102 0 l0 195 l102 0 l0 166 l426 0 l0 -166 l276 0 l0 -195 l-276 0 Z" /><glyph glyph-name="" unicode="&#x45e;" d="M301 -481 q-60 0 -129 10.5 q-69 10.5 -123 30.5 l0 321 q25 -19 74.5 -35 q49.5 -16 93.5 -16 q119 0 158 94 l33 80 l-428 1020 l471 0 l124 -494 q36 -138 39 -186 l4 0 q3 22 8.5 49 q5.5 27 155.5 631 l414 0 l-377 -1053 q-85 -242 -210.5 -347 q-125.5 -105 -307.5 -105 ZM1069 1501 q-17 -180 -137.5 -278 q-120.5 -98 -325.5 -98 q-134 0 -236 48 q-102 48 -159 134 q-57 86 -60 194 l279 0 q14 -79 60.5 -124 q46.5 -45 121.5 -45 q71 0 118 45.5 q47 45.5 59 123.5 l280 0 Z" /><glyph glyph-name="" unicode="&#x45f;" d="M821 0 l0 -373 l-341 0 l0 373 l-378 0 l0 1024 l426 0 l0 -737 l238 0 l0 737 l426 0 l0 -1024 l-371 0 Z" /><glyph glyph-name="" unicode="&#x490;" d="M573 1096 l0 -1096 l-432 0 l0 1434 l572 0 l0 301 l389 0 l0 -639 l-529 0 Z" /><glyph glyph-name="" unicode="&#x491;" d="M528 715 l0 -715 l-426 0 l0 1024 l483 0 l0 271 l342 0 l0 -580 l-399 0 Z" /><glyph glyph-name="" unicode="&#x2015;" d="M850 1397 l-850 0 l0 119 l850 0 l0 -119 Z" /><glyph glyph-name="" unicode="&#x2116;" d="M2507 1039 q0 -206 -123.5 -323.5 q-123.5 -117.5 -345.5 -117.5 q-218 0 -342.5 113.5 q-124.5 113.5 -124.5 316.5 q0 195 126 307.5 q126 112.5 343 112.5 q145 0 250 -52.5 q105 -52.5 161 -147 q56 -94.5 56 -209.5 ZM1589 176 l0 285 l887 0 l0 -285 l-887 0 ZM1061 0 l-434 668 l-49 84 l-39 69 l-4 0 q6 -104 6 -237 l0 -584 l-400 0 l0 1434 l408 0 l414 -631 q54 -88 79 -146 l5 0 q-7 53 -7 152 l0 625 l400 0 l0 -1434 l-379 0 ZM2161 1037 q0 157 -121 157 q-123 0 -123 -166 q0 -174 123 -174 q121 0 121 183 Z" /><glyph glyph-name="" unicode="&#x3c0;" d="M1255 729 l0 -268 q0 -94 21.5 -128 q21.5 -34 66.5 -34 q41 0 91 25 l0 -310 q-101 -39 -213 -39 q-193 0 -292.5 98.5 q-99.5 98.5 -99.5 293.5 l0 362 l-155 0 l0 -399 q0 -104 -9 -179.5 q-9 -75.5 -38 -150.5 l-432 0 q53 159 53 360 l0 369 q-42 0 -110 -22 q-68 -22 -130 -60 l0 330 q46 20 112.5 33.5 q66.5 13.5 133.5 13.5 l1221 0 l0 -295 l-220 0 Z" /><glyph glyph-name="" unicode="¤" d="M946 188 l-145 142 q-110 -60 -232 -60 q-121 0 -231 60 l-145 -142 l-173 174 l146 138 q-62 113 -62 225 q0 116 62 225 l-146 140 l173 174 l145 -142 q110 60 231 60 q122 0 232 -60 l145 142 l172 -174 l-145 -140 q61 -108 61 -225 q0 -114 -61 -225 l145 -138 l-172 -174 ZM788 727 q0 87 -66 150 q-66 63 -153 63 q-92 0 -155.5 -63 q-63.5 -63 -63.5 -150 q0 -88 64 -151.5 q64 -63.5 155 -63.5 q89 0 154 62 q65 62 65 153 Z" /><glyph glyph-name="" unicode="&#x1a0;" d="M1505 721 q0 -216 -93 -386.5 q-93 -170.5 -260 -265 q-167 -94.5 -374 -94.5 q-202 0 -367.5 91.5 q-165.5 91.5 -257.5 257 q-92 165.5 -92 374.5 q0 219 93 394 q93 175 261 270.5 q168 95.5 382 95.5 q83 0 163.5 -17.5 q80.5 -17.5 180.5 -61.5 q47 -20 93 -20 q65 0 97 36.5 q32 36.5 32 99.5 q0 49 -16 104 l258 0 q23 -71 23 -148 q0 -115 -67 -185 q-67 -70 -196 -78 q140 -192 140 -467 ZM1047 709 q0 177 -68 279 q-68 102 -186 102 q-129 0 -201 -98 q-72 -98 -72 -277 q0 -175 71.5 -273 q71.5 -98 194.5 -98 q75 0 135 44 q60 44 93 126 q33 82 33 195 Z" /><glyph glyph-name="" unicode="&#x1a1;" d="M1241 530 q0 -259 -156.5 -407 q-156.5 -148 -437.5 -148 q-279 0 -434.5 144.5 q-155.5 144.5 -155.5 398.5 q0 163 73 283 q73 120 208 184 q135 64 311 64 q61 0 129 -7 q68 -7 116 -7 q71 0 105 37 q34 37 34 100 q0 49 -16 104 l258 0 q23 -71 23 -148 q0 -99 -50.5 -165.5 q-50.5 -66.5 -147.5 -88.5 q141 -135 141 -344 ZM809 528 q0 209 -160 209 q-160 0 -160 -219 q0 -231 162 -231 q158 0 158 241 Z" /><glyph glyph-name="" unicode="&#x1af;" d="M1391 655 q0 -345 -157.5 -512.5 q-157.5 -167.5 -485.5 -167.5 q-306 0 -464.5 167.5 q-158.5 167.5 -158.5 504.5 l0 787 l434 0 l0 -803 q0 -138 51.5 -212.5 q51.5 -74.5 147.5 -74.5 q97 0 147.5 70 q50.5 70 50.5 207 l0 813 l321 0 q157 0 157 148 q0 49 -16 104 l258 0 q23 -71 23 -148 q0 -127 -81 -198 q-81 -71 -227 -77 l0 -608 Z" /><glyph glyph-name="" unicode="&#x1b0;" d="M754 0 l0 158 l-4 0 q-53 -73 -95.5 -107 q-42.5 -34 -96 -55 q-53.5 -21 -124.5 -21 q-168 0 -256 109 q-88 109 -88 322 l0 618 l426 0 l0 -586 q0 -151 113 -151 q125 0 125 157 l0 580 l280 0 q78 0 118.5 38.5 q40.5 38.5 40.5 109.5 q0 49 -16 104 l258 0 q23 -71 23 -148 q0 -114 -69 -187 q-69 -73 -209 -86 l0 -855 l-426 0 Z" /><glyph glyph-name="" unicode="&#x309;" d="M548 1461 q0 -76 -54.5 -128 q-54.5 -52 -140.5 -64 l0 -66 l-213 0 l0 177 q142 9 142 67 q0 59 -107 59 q-44 0 -90 -10 l0 170 q70 10 125 10 q165 0 251.5 -52.5 q86.5 -52.5 86.5 -162.5 Z" /><glyph glyph-name="" unicode="&#x323;" d="M534 -267 q0 -73 -53 -118.5 q-53 -45.5 -139 -45.5 q-86 0 -139.5 47.5 q-53.5 47.5 -53.5 116.5 q0 72 53.5 115.5 q53.5 43.5 139.5 43.5 q87 0 139.5 -43.5 q52.5 -43.5 52.5 -115.5 Z" /><glyph glyph-name="" unicode="&#x300;" d="M385 1186 l-356 321 l358 0 l299 -321 l-301 0 Z" /><glyph glyph-name="" unicode="&#x301;" d="M285 1186 l-301 0 l299 321 l358 0 l-356 -321 Z" /><glyph glyph-name="" unicode="&#x492;" d="M1214 1096 l-547 0 l0 -267 l359 0 l0 -333 l-359 0 l0 -496 l-432 0 l0 496 l-235 0 l0 333 l235 0 l0 605 l979 0 l0 -338 Z" /><glyph glyph-name="" unicode="&#x493;" d="M552 709 l0 -160 l204 0 l0 -255 l-204 0 l0 -294 l-426 0 l0 294 l-126 0 l0 255 l126 0 l0 475 l732 0 l0 -315 l-306 0 Z" /><glyph glyph-name="" unicode="&#x496;" d="M1593 0 l-322 598 q-26 51 -35 82 l-4 0 l0 -680 l-412 0 l0 680 l-4 0 q-11 -39 -35 -82 l-321 -598 l-505 0 l461 750 l-422 684 l492 0 l313 -623 l17 -41 l4 0 l0 664 l412 0 l0 -664 l4 0 l18 41 l312 623 l492 0 l-422 -684 l235 -383 l302 0 l0 -769 l-389 0 l0 402 l-191 0 Z" /><glyph glyph-name="" unicode="&#x497;" d="M1301 0 l-221 514 l-4 0 l0 -514 l-406 0 l0 514 l-4 0 l-219 -514 l-456 0 l295 543 l-292 481 l444 0 l228 -494 l4 0 l0 494 l406 0 l0 -494 l4 0 l227 494 l444 0 l-292 -481 l140 -256 l232 0 l0 -660 l-341 0 l0 373 l-189 0 Z" /><glyph glyph-name="" unicode="&#x49a;" d="M934 0 l-318 606 q-31 69 -38 99 l-5 0 l0 -705 l-432 0 l0 1434 l432 0 l0 -682 l5 0 q19 54 43 100 l286 582 l512 0 l-407 -684 l228 -383 l302 0 l0 -769 l-389 0 l0 402 l-219 0 Z" /><glyph glyph-name="" unicode="&#x49b;" d="M760 0 l-228 526 l-4 0 l0 -526 l-426 0 l0 1023 l426 0 l0 -480 l4 0 l207 481 l480 0 l-277 -469 l141 -268 l232 0 l0 -660 l-341 0 l0 373 l-214 0 Z" /><glyph glyph-name="" unicode="&#x49c;" d="M1542 0 l-508 0 l-241 399 l0 -170 l-148 0 l0 385 l-67 113 l-5 0 l0 -727 l-432 0 l0 1434 l432 0 l0 -689 l5 0 l67 109 l0 356 l148 0 l0 -140 l221 364 l485 0 l-445 -684 l488 -750 Z" /><glyph glyph-name="" unicode="&#x49d;" d="M1341 0 l-481 0 l-143 254 l0 -139 l-124 0 l0 300 l-61 103 l-4 0 l0 -518 l-426 0 l0 1024 l426 0 l0 -490 l4 0 l61 98 l0 263 l124 0 l0 -120 l134 249 l472 0 l-311 -487 l329 -537 Z" /><glyph glyph-name="" unicode="&#x4a2;" d="M1069 0 l0 535 l-496 0 l0 -535 l-432 0 l0 1434 l432 0 l0 -531 l496 0 l0 531 l432 0 l0 -1067 l222 0 l0 -769 l-389 0 l0 402 l-265 0 Z" /><glyph glyph-name="" unicode="&#x4a3;" d="M766 0 l0 399 l-238 0 l0 -399 l-426 0 l0 1024 l426 0 l0 -348 l238 0 l0 348 l426 0 l0 -737 l174 0 l0 -660 l-341 0 l0 373 l-259 0 Z" /><glyph glyph-name="" unicode="&#x4af;" d="M814 -19 l0 -452 l-426 0 l0 450 l-388 1045 l444 0 l125 -509 q30 -135 33 -203 l6 0 q5 42 14 89 q9 47 140 623 l442 0 l-390 -1043 Z" /><glyph glyph-name="" unicode="&#x4b0;" d="M183 625 l196 0 l-379 809 l496 0 l155 -451 q16 -46 22.5 -80 q6.5 -34 14.5 -69 l4 0 q13 91 29 141 l153 459 l457 0 l-395 -809 l210 0 l0 -333 l-272 0 l0 -292 l-432 0 l0 292 l-259 0 l0 333 Z" /><glyph glyph-name="" unicode="&#x4b1;" d="M120 48 l242 0 l-362 976 l444 0 l125 -509 q30 -135 33 -203 l6 0 q5 42 14 89 q9 47 140 623 l442 0 l-365 -976 l245 0 l0 -255 l-270 0 l0 -264 l-426 0 l0 264 l-268 0 l0 255 Z" /><glyph glyph-name="" unicode="&#x4b2;" d="M930 0 l-178 393 q-17 37 -22.5 72.5 q-5.5 35.5 -8.5 58.5 l-4 0 q-6 -24 -14 -63 q-8 -39 -23 -76 l-166 -385 l-514 0 l430 715 l-391 719 l522 0 l139 -379 q19 -53 35 -140 l4 0 q16 98 37 142 l162 377 l481 0 l-403 -711 l208 -356 l302 0 l0 -769 l-389 0 l0 402 l-207 0 Z" /><glyph glyph-name="" unicode="&#x4b3;" d="M944 545 l156 -258 l231 0 l0 -660 l-341 0 l0 373 l-206 0 l-110 233 q-19 39 -43 107 l-4 0 q-21 -68 -27 -83.5 q-6 -15.5 -117 -256.5 l-487 0 l340 516 l-320 508 l492 0 l110 -238 q22 -41 44 -112 l4 0 l41 114 l104 236 l465 0 l-332 -479 Z" /><glyph glyph-name="" unicode="&#x4b8;" d="M993 0 l0 466 q-57 -18 -152 -36 l0 -253 l-148 0 l0 233 q-50 -4 -101 -4 q-479 0 -479 473 l0 555 l432 0 l0 -508 q0 -148 148 -161 l0 269 l148 0 l0 -261 q86 16 152 33 l0 628 l432 0 l0 -1434 l-432 0 Z" /><glyph glyph-name="" unicode="&#x4b9;" d="M815 0 l0 325 q-49 -26 -100 -46 l0 -204 l-124 0 l0 167 q-53 -11 -119 -11 q-182 0 -282 87.5 q-100 87.5 -100 246.5 l0 459 l402 0 l0 -375 q0 -101 99 -111 l0 216 l124 0 l0 -209 q52 11 100 37 l0 442 l426 0 l0 -1024 l-426 0 Z" /><glyph glyph-name="" unicode="&#x4ba;" d="M573 1434 l0 -466 q79 25 188.5 42.5 q109.5 17.5 212.5 17.5 q479 0 479 -473 l0 -555 l-432 0 l0 508 q0 162 -178 162 q-107 0 -270 -42 l0 -628 l-432 0 l0 1434 l432 0 Z" /><glyph glyph-name="" unicode="&#x18f;" d="M62 850 l994 0 q-30 125 -128.5 187.5 q-98.5 62.5 -246.5 62.5 q-275 0 -505 -152 l0 381 q111 69 246.5 99 q135.5 30 313.5 30 q232 0 407 -86.5 q175 -86.5 269 -250.5 q94 -164 94 -386 q0 -222 -92.5 -395.5 q-92.5 -173.5 -262.5 -269 q-170 -95.5 -388 -95.5 q-205 0 -366 92 q-161 92 -248 259 q-87 167 -87 381 l0 143 ZM1060 594 l-546 0 q14 -132 83.5 -204 q69.5 -72 175.5 -72 q115 0 190.5 75.5 q75.5 75.5 96.5 200.5 Z" /><glyph glyph-name="" unicode="&#x259;" d="M678 633 q-11 66 -76 103.5 q-65 37.5 -172 37.5 q-149 0 -282 -57 l0 270 q155 62 376 62 q268 0 417 -137 q149 -137 149 -377 q0 -165 -65.5 -291 q-65.5 -126 -194 -197.5 q-128.5 -71.5 -283.5 -71.5 q-159 0 -272 62 q-113 62 -171.5 174 q-58.5 112 -58.5 262 l0 160 l633 0 ZM422 410 q0 -177 127 -177 q53 0 89 48.5 q36 48.5 42 128.5 l-258 0 Z" /><glyph glyph-name="" unicode="&#x4e8;" d="M1505 721 q0 -216 -93 -386.5 q-93 -170.5 -260 -265 q-167 -94.5 -374 -94.5 q-202 0 -367.5 91.5 q-165.5 91.5 -257.5 257 q-92 165.5 -92 374.5 q0 219 93 394 q93 175 261 270.5 q168 95.5 382 95.5 q206 0 368.5 -91.5 q162.5 -91.5 251 -261 q88.5 -169.5 88.5 -384.5 ZM793 1090 q-98 0 -165 -58.5 q-67 -58.5 -92 -165.5 l494 0 l-2 6 q-26 103 -87 160.5 q-61 57.5 -148 57.5 ZM786 344 q89 0 154 59.5 q65 59.5 91 164.5 l-496 0 q27 -107 91.5 -165.5 q64.5 -58.5 159.5 -58.5 Z" /><glyph glyph-name="" unicode="&#x4e9;" d="M1241 530 q0 -259 -156.5 -407 q-156.5 -148 -437.5 -148 q-279 0 -434.5 144.5 q-155.5 144.5 -155.5 398.5 q0 163 73 283 q73 120 208 184 q135 64 311 64 q182 0 315.5 -67 q133.5 -67 205 -186 q71.5 -119 71.5 -266 ZM651 267 q117 0 147 142 l-300 0 l3 -12 q18 -67 54 -98.5 q36 -31.5 96 -31.5 ZM649 757 q-120 0 -149 -132 l299 0 q-29 132 -150 132 Z" /><glyph glyph-name="" unicode="&#x228;" d="M667 0 l0 -66 q195 -14 195 -178 q0 -111 -90.5 -170 q-90.5 -59 -257.5 -59 q-53 0 -115 6 l0 172 q37 -8 82 -8 q57 0 86 16.5 q29 16.5 29 42.5 q0 31 -23 45.5 q-23 14.5 -80 14.5 l-18 0 l-21 -2 l0 186 l-313 0 l0 1434 l893 0 l0 -338 l-461 0 l0 -209 l433 0 l0 -338 l-433 0 l0 -211 l494 0 l0 -338 l-400 0 Z" /><glyph glyph-name="" unicode="&#x229;" d="M830 -244 q0 -111 -90.5 -170 q-90.5 -59 -257.5 -59 q-53 0 -115 6 l0 172 q37 -8 82 -8 q57 0 86 16.5 q29 16.5 29 42.5 q0 31 -23 45.5 q-23 14.5 -80 14.5 l-18 0 l-21 -2 l0 185 q-177 46 -271 174 q-94 128 -94 316 q0 165 65.5 291 q65.5 126 194 197.5 q128.5 71.5 283.5 71.5 q159 0 272 -62 q113 -62 171.5 -174 q58.5 -112 58.5 -262 l0 -160 l-633 0 q11 -66 76 -103.5 q65 -37.5 172 -37.5 q149 0 282 57 l0 -270 q-147 -59 -364 -62 l0 -41 q195 -14 195 -178 ZM725 614 q0 177 -127 177 q-54 0 -89.5 -49.5 q-35.5 -49.5 -41.5 -127.5 l258 0 Z" /><glyph glyph-name="" unicode="&#x1e28;" d="M1069 0 l0 535 l-496 0 l0 -535 l-141 0 q-24 -38 -42 -85.5 q-18 -47.5 -18 -85.5 q0 -37 20 -56 q20 -19 53 -19 q56 0 118 28 l0 -154 q-34 -19 -86.5 -31.5 q-52.5 -12.5 -93.5 -12.5 q-116 0 -174 54.5 q-58 54.5 -58 148.5 q0 58 27.5 113.5 q27.5 55.5 76.5 99.5 l-114 0 l0 1434 l432 0 l0 -531 l496 0 l0 531 l432 0 l0 -1434 l-432 0 Z" /><glyph glyph-name="" unicode="&#x1e29;" d="M762 0 l0 584 q0 153 -117 153 q-57 0 -87 -43 q-30 -43 -30 -112 l0 -582 l-138 0 q-24 -38 -42 -85.5 q-18 -47.5 -18 -85.5 q0 -37 20 -56 q20 -19 53 -19 q56 0 118 28 l0 -154 q-34 -19 -86.5 -31.5 q-52.5 -12.5 -93.5 -12.5 q-116 0 -174 54.5 q-58 54.5 -58 148.5 q0 58 27.5 113.5 q27.5 55.5 76.5 99.5 l-111 0 l0 1516 l426 0 l0 -631 l4 0 q55 79 133.5 121.5 q78.5 42.5 168.5 42.5 q166 0 253 -106.5 q87 -106.5 87 -313.5 l0 -629 l-412 0 Z" /><glyph glyph-name="" unicode="&#x1fbd;" d="M529 1114 l-68 111 q94 40 125 104 q-118 30 -118 132 q0 63 49 101.5 q49 38.5 119 38.5 q79 0 125.5 -48.5 q46.5 -48.5 46.5 -123.5 q0 -101 -73 -184.5 q-73 -83.5 -206 -130.5 Z" /><glyph glyph-name="" unicode="&#x1fbe;" d="M832 -381 q-59 -61 -111.5 -83.5 q-52.5 -22.5 -120.5 -22.5 q-100 0 -150 55.5 q-50 55.5 -50 157.5 l0 167 l232 0 l0 -126 q0 -80 50 -80 q23 0 39 9.5 q16 9.5 33 22.5 l78 -100 Z" /><glyph glyph-name="" unicode="&#x1fbf;" d="M529 1114 l-68 111 q94 40 125 104 q-118 30 -118 132 q0 63 49 101.5 q49 38.5 119 38.5 q79 0 125.5 -48.5 q46.5 -48.5 46.5 -123.5 q0 -101 -73 -184.5 q-73 -83.5 -206 -130.5 Z" /><glyph glyph-name="" unicode="&#x1fc0;" d="M237 1176 q16 167 117 256.5 q101 89.5 276 89.5 q112 0 199 -44 q87 -44 136 -124 q49 -80 50 -178 l-240 0 q-10 55 -49 87 q-39 32 -102 32 q-61 0 -99 -30.5 q-38 -30.5 -49 -88.5 l-239 0 Z" /><glyph glyph-name="" unicode="&#x1fc1;" d="M217 1516 q22 163 129 254.5 q107 91.5 284 91.5 q171 0 282.5 -96 q111.5 -96 122.5 -250 l-240 0 q-16 54 -61 86.5 q-45 32.5 -110 32.5 q-63 0 -107.5 -32.5 q-44.5 -32.5 -60.5 -86.5 l-239 0 ZM1069 1317 q0 -73 -52 -118.5 q-52 -45.5 -140 -45.5 q-84 0 -138.5 46.5 q-54.5 46.5 -54.5 117.5 q0 71 53 115 q53 44 140 44 q87 0 139.5 -44.5 q52.5 -44.5 52.5 -114.5 ZM568 1317 q0 -71 -51.5 -117.5 q-51.5 -46.5 -141.5 -46.5 q-85 0 -138.5 47.5 q-53.5 47.5 -53.5 116.5 q0 71 53 115 q53 44 139 44 q87 0 140 -43.5 q53 -43.5 53 -115.5 Z" /><glyph glyph-name="" unicode="&#x1fcd;" d="M582 1542 l334 0 l79 -390 l-207 0 l-206 390 ZM317 1128 l-61 115 q83 29 109 64 q-49 11 -77.5 42.5 q-28.5 31.5 -28.5 79.5 q0 54 45 88.5 q45 34.5 113 34.5 q73 0 117 -40.5 q44 -40.5 44 -109.5 q0 -99 -70 -169.5 q-70 -70.5 -191 -104.5 Z" /><glyph glyph-name="" unicode="&#x1fce;" d="M794 1152 l-207 0 l79 390 l334 0 l-206 -390 ZM312 1128 l-61 115 q83 29 109 64 q-49 11 -77.5 42.5 q-28.5 31.5 -28.5 79.5 q0 54 45 88.5 q45 34.5 113 34.5 q73 0 117 -40.5 q44 -40.5 44 -109.5 q0 -99 -70 -169.5 q-70 -70.5 -191 -104.5 Z" /><glyph glyph-name="" unicode="&#x1fcf;" d="M523 1069 l-61 115 q83 29 109 64 q-49 11 -77.5 42.5 q-28.5 31.5 -28.5 79.5 q0 54 45 88.5 q45 34.5 113 34.5 q73 0 117 -40.5 q44 -40.5 44 -109.5 q0 -99 -70 -169.5 q-70 -70.5 -191 -104.5 ZM182 1463 q33 157 150 247 q117 90 298 90 q177 0 296 -91.5 q119 -91.5 144 -245.5 l-230 0 q-36 66 -87 99 q-51 33 -129 33 q-150 0 -215 -132 l-227 0 Z" /><glyph glyph-name="" unicode="&#x1fdd;" d="M582 1542 l334 0 l79 -390 l-207 0 l-206 390 ZM517 1128 q-122 35 -191.5 105 q-69.5 70 -69.5 169 q0 69 44 109.5 q44 40.5 117 40.5 q68 0 113 -34.5 q45 -34.5 45 -88.5 q0 -48 -28.5 -79.5 q-28.5 -31.5 -77.5 -42.5 q26 -35 109 -64 l-61 -115 Z" /><glyph glyph-name="" unicode="&#x1fde;" d="M794 1152 l-207 0 l79 390 l334 0 l-206 -390 ZM512 1128 q-122 35 -191.5 105 q-69.5 70 -69.5 169 q0 69 44 109.5 q44 40.5 117 40.5 q68 0 113 -34.5 q45 -34.5 45 -88.5 q0 -48 -28.5 -79.5 q-28.5 -31.5 -77.5 -42.5 q26 -35 109 -64 l-61 -115 Z" /><glyph glyph-name="" unicode="&#x1fdf;" d="M724 1069 q-122 35 -191.5 105 q-69.5 70 -69.5 169 q0 69 44 109.5 q44 40.5 117 40.5 q68 0 113 -34.5 q45 -34.5 45 -88.5 q0 -48 -28.5 -79.5 q-28.5 -31.5 -77.5 -42.5 q26 -35 109 -64 l-61 -115 ZM182 1463 q33 157 150 247 q117 90 298 90 q177 0 296 -91.5 q119 -91.5 144 -245.5 l-230 0 q-36 66 -87 99 q-51 33 -129 33 q-150 0 -215 -132 l-227 0 Z" /><glyph glyph-name="" unicode="&#x1fed;" d="M1151 1305 q0 -68 -48.5 -108 q-48.5 -40 -125.5 -40 q-76 0 -124 41.5 q-48 41.5 -48 106.5 q0 64 47.5 103.5 q47.5 39.5 124.5 39.5 q77 0 125.5 -40 q48.5 -40 48.5 -103 ZM360 1612 l338 0 l63 -383 l-188 0 l-213 383 ZM448 1305 q0 -68 -47.5 -108 q-47.5 -40 -124.5 -40 q-75 0 -124.5 41.5 q-49.5 41.5 -49.5 106.5 q0 65 48.5 104 q48.5 39 125.5 39 q77 0 124.5 -39 q47.5 -39 47.5 -104 Z" /><glyph glyph-name="" unicode="&#x1fee;" d="M1151 1305 q0 -68 -48.5 -108 q-48.5 -40 -125.5 -40 q-76 0 -124 41.5 q-48 41.5 -48 106.5 q0 64 47.5 103.5 q47.5 39.5 124.5 39.5 q77 0 125.5 -40 q48.5 -40 48.5 -103 ZM682 1229 l-188 0 l63 383 l338 0 l-213 -383 ZM448 1305 q0 -68 -47.5 -108 q-47.5 -40 -124.5 -40 q-75 0 -124.5 41.5 q-49.5 41.5 -49.5 106.5 q0 65 48.5 104 q48.5 39 125.5 39 q77 0 124.5 -39 q47.5 -39 47.5 -104 Z" /><glyph glyph-name="" unicode="&#x1fef;" d="M395 1516 l359 0 l93 -363 l-219 0 l-233 363 Z" /><glyph glyph-name="" unicode="&#x1ffd;" d="M624 1153 l-219 0 l94 363 l358 0 l-233 -363 Z" /><glyph glyph-name="" unicode="&#x1ffe;" d="M723 1114 q-132 46 -205.5 130 q-73.5 84 -73.5 185 q0 75 46.5 123.5 q46.5 48.5 125.5 48.5 q70 0 119 -38.5 q49 -38.5 49 -101.5 q0 -102 -118 -132 q31 -64 125 -104 l-68 -111 Z" /><glyph glyph-name="" unicode="&#x310;" d="M11 1440 q-51 0 -84 30 q-33 30 -33 73 q0 45 33.5 73 q33.5 28 83.5 28 q51 0 83 -28.5 q32 -28.5 32 -72.5 q0 -44 -32.5 -73.5 q-32.5 -29.5 -82.5 -29.5 ZM337 1493 q-12 -141 -102.5 -224 q-90.5 -83 -237.5 -83 q-146 0 -238 85.5 q-92 85.5 -96 221.5 l178 0 q17 -135 160 -135 q137 0 156 135 l180 0 Z" /><glyph glyph-name="" unicode="&#x312;" d="M106 1470 l68 -110 q-93 -40 -125 -105 q117 -26 117 -131 q0 -64 -49 -102.5 q-49 -38.5 -119 -38.5 q-77 0 -124.5 48 q-47.5 48 -47.5 124 q0 102 74.5 185.5 q74.5 83.5 205.5 129.5 Z" /><glyph glyph-name="" unicode="&#x318;" d="M205 -444 l-148 0 l0 127 l-262 0 l0 149 l262 0 l0 127 l148 0 l0 -403 Z" /><glyph glyph-name="" unicode="&#x319;" d="M205 -317 l-262 0 l0 -127 l-148 0 l0 403 l148 0 l0 -127 l262 0 l0 -149 Z" /><glyph glyph-name="" unicode="&#x31a;" d="M307 1153 l-147 0 l0 258 l-467 0 l0 145 l614 0 l0 -403 Z" /><glyph glyph-name="" unicode="&#x31b;" d="M-195 1153 l3 158 q212 0 212 108 q0 73 -28 152 l178 0 q25 -75 25 -156 q0 -116 -76.5 -189 q-76.5 -73 -206.5 -73 l-107 0 Z" /><glyph glyph-name="" unicode="&#x321;" d="M291 63 q0 -485 -410 -485 q-88 0 -172 31 l0 248 q66 -37 117 -37 q149 0 149 233 l0 31 l316 0 l0 -21 Z" /><glyph glyph-name="" unicode="&#x322;" d="M291 -391 q-84 -31 -172 -31 q-410 0 -410 485 l0 21 l316 0 l0 -31 q0 -233 149 -233 q52 0 117 37 l0 -248 Z" /><glyph glyph-name="" unicode="&#x326;" d="M-53 -475 l-39 76 q63 19 80 75 q-117 4 -117 99 q0 46 34.5 76 q34.5 30 90.5 30 q59 0 96 -37 q37 -37 37 -92 q0 -78 -49.5 -140.5 q-49.5 -62.5 -132.5 -86.5 Z" /><glyph glyph-name="" unicode="&#x32a;" d="M377 -440 l-146 0 l0 196 l-462 0 l0 -196 l-146 0 l0 342 l754 0 l0 -342 Z" /><glyph glyph-name="" unicode="&#x32b;" d="M355 -98 q0 -110 -58 -178 q-58 -68 -155 -68 q-86 0 -142 57 q-56 -57 -144 -57 q-98 0 -154.5 67 q-56.5 67 -56.5 179 l137 0 q0 -117 75 -117 q85 0 85 117 l116 0 q0 -117 86 -117 q74 0 74 117 l137 0 Z" /><glyph glyph-name="" unicode="&#x337;" d="M412 963 l-688 -844 l-134 0 l686 844 l136 0 Z" /><glyph glyph-name="" unicode="&#x338;" d="M401 1434 l-688 -1672 l-112 0 l686 1672 l114 0 Z" /><glyph glyph-name="" unicode="&#x33b;" d="M208 -514 l-416 0 l0 416 l416 0 l0 -416 ZM77 -383 l0 154 l-154 0 l0 -154 l154 0 Z" /><glyph glyph-name="" unicode="&#x33c;" d="M371 -295 l-138 0 q-17 68 -80 68 q-41 0 -67.5 -39 q-26.5 -39 -26.5 -99 l-118 0 q0 61 -26.5 99.5 q-26.5 38.5 -68.5 38.5 q-62 0 -79 -68 l-138 0 q15 89 75 143 q60 54 141 54 q102 0 154 -78 q53 78 156 78 q79 0 140 -54.5 q61 -54.5 76 -142.5 Z" /><glyph glyph-name="" unicode="&#x33e;" d="M-119 1268 l0 135 q111 0 111 45 q0 20 -53 86 q-54 67 -54 127 q0 180 234 180 l0 -135 q-107 0 -107 -45 q0 -17 54 -84 q53 -66 53 -129 q0 -180 -238 -180 Z" /><glyph glyph-name="" unicode="&#x343;" d="M-53 1200 l-39 76 q63 19 80 76 q-117 4 -117 98 q0 46 34.5 76 q34.5 30 90.5 30 q59 0 96 -37 q37 -37 37 -92 q0 -78 -49.5 -140.5 q-49.5 -62.5 -132.5 -86.5 Z" /><glyph glyph-name="" unicode="&#x346;" d="M377 1198 l-146 0 l0 197 l-462 0 l0 -197 l-146 0 l0 342 l754 0 l0 -342 Z" /><glyph glyph-name="" unicode="&#x347;" d="M470 -218 l-940 0 l0 132 l940 0 l0 -132 ZM470 -514 l-940 0 l0 132 l940 0 l0 -132 Z" /><glyph glyph-name="" unicode="&#x34a;" d="M353 1546 q0 -229 -209 -229 q-55 0 -131 28 l-98 -176 l-91 47 l91 165 q-28 8 -49 8 q-76 0 -76 -78 l-143 0 q0 231 213 231 q62 0 131 -26 l98 177 l92 -48 l-94 -168 q26 -7 47 -7 q76 0 76 76 l143 0 Z" /><glyph glyph-name="" unicode="&#x34b;" d="M1 1677 q-51 0 -84 30 q-33 30 -33 73 q0 45 33.5 73 q33.5 28 83.5 28 q51 0 83 -28.5 q32 -28.5 32 -72.5 q0 -44 -32.5 -73.5 q-32.5 -29.5 -82.5 -29.5 ZM353 1634 q0 -229 -209 -229 q-58 0 -149 35 q-96 37 -129 37 q-76 0 -76 -78 l-143 0 q0 231 213 231 q71 0 151 -35 q83 -36 123 -36 q76 0 76 75 l143 0 ZM1 1165 q-51 0 -84 30 q-33 30 -33 73 q0 45 33.5 73 q33.5 28 83.5 28 q51 0 83 -28.5 q32 -28.5 32 -72.5 q0 -44 -32.5 -73.5 q-32.5 -29.5 -82.5 -29.5 Z" /><glyph glyph-name="" unicode="&#x34c;" d="M353 1702 q0 -229 -209 -229 q-60 0 -149 34 q-96 37 -129 37 q-76 0 -76 -78 l-143 0 q0 110 55.5 171 q55.5 61 157.5 61 q71 0 151 -35 q85 -37 123 -37 q76 0 76 76 l143 0 ZM353 1409 q0 -229 -209 -229 q-60 0 -149 34 q-96 37 -129 37 q-76 0 -76 -77 l-143 0 q0 231 213 231 q71 0 151 -35 q85 -37 123 -37 q76 0 76 76 l143 0 Z" /><glyph glyph-name="" unicode="&#x34d;" d="M374 -238 l-227 -210 l0 137 l-294 0 l0 -137 l-227 210 l227 211 l0 -137 l294 0 l0 137 l227 -211 Z" /><glyph glyph-name="" unicode="&#x34e;" d="M211 -233 l-137 0 l0 -207 l-148 0 l0 207 l-137 0 l211 226 l211 -226 Z" /><glyph glyph-name="" unicode="&#x360;" d="M754 1792 q-2 -134 -93 -223 q-91 -89 -225 -89 q-146 0 -436 91 q-290 90 -434 90 q-88 0 -144.5 -53.5 q-56.5 -53.5 -56.5 -133.5 l-119 0 q2 136 92 224 q90 88 226 88 q149 0 440 -91 q290 -91 430 -91 q87 0 144 54 q57 54 57 134 l119 0 Z" /><glyph glyph-name="" unicode="&#x361;" d="M794 1474 l-162 0 q-186 258 -633 258 q-445 0 -631 -258 l-162 0 q240 382 794 382 q554 0 794 -382 Z" /><glyph glyph-name="" unicode="&#x362;" d="M623 -238 l-227 -210 l0 137 l-1009 0 l0 147 l1009 0 l0 137 l227 -211 Z" /><glyph glyph-name="" unicode="&#x180;" d="M1257 530 q0 -165 -56 -291.5 q-56 -126.5 -158 -195 q-102 -68.5 -230 -68.5 q-99 0 -169.5 36.5 q-70.5 36.5 -111.5 94.5 l-4 0 l0 -106 l-426 0 l0 1155 l-102 0 l0 195 l102 0 l0 166 l426 0 l0 -166 l276 0 l0 -195 l-276 0 l0 -291 l4 0 q51 75 135.5 117.5 q84.5 42.5 188.5 42.5 q194 0 297.5 -125.5 q103.5 -125.5 103.5 -368.5 ZM825 516 q0 96 -39 146 q-39 50 -114 50 q-64 0 -108 -51 q-44 -51 -44 -134 l0 -59 q0 -83 38.5 -132 q38.5 -49 105.5 -49 q77 0 119 60 q42 60 42 169 Z" /><glyph glyph-name="" unicode="&#x181;" d="M1737 440 q0 -211 -148 -325.5 q-148 -114.5 -423 -114.5 l-654 0 l0 1145 l-33 0 q-88 0 -139 -50 q-51 -50 -51 -133 q0 -41 17 -90 l-304 0 q-22 62 -22 138 q0 195 135.5 309.5 q135.5 114.5 363.5 114.5 l642 0 q571 0 571 -347 q0 -75 -36 -137.5 q-36 -62.5 -109.5 -109.5 q-73.5 -47 -161.5 -64 l0 -4 q102 -12 183 -60.5 q81 -48.5 125 -121 q44 -72.5 44 -150.5 ZM1278 442 q0 62 -45 102 q-45 40 -119 40 l-170 0 l0 -293 l144 0 q88 0 139 40.5 q51 40.5 51 110.5 ZM1233 1012 q0 133 -209 133 l-80 0 l0 -271 l125 0 q72 0 118 38.5 q46 38.5 46 99.5 Z" /><glyph glyph-name="" unicode="&#x183;" d="M1257 543 q0 -168 -55.5 -297.5 q-55.5 -129.5 -157.5 -200 q-102 -70.5 -231 -70.5 q-99 0 -169.5 36.5 q-70.5 36.5 -111.5 94.5 l-4 0 l0 -106 l-426 0 l0 1516 l1010 0 l0 -295 l-584 0 l0 -336 l4 0 q50 76 135.5 120 q85.5 44 188.5 44 q194 0 297.5 -129 q103.5 -129 103.5 -377 ZM825 530 q0 103 -39.5 155 q-39.5 52 -113.5 52 q-65 0 -108.5 -54.5 q-43.5 -54.5 -43.5 -141.5 l0 -62 q0 -88 39 -140 q39 -52 105 -52 q77 0 119 63.5 q42 63.5 42 179.5 Z" /><glyph glyph-name="" unicode="&#x184;" d="M1313 510 q0 -242 -152 -376 q-152 -134 -432 -134 l-588 0 l0 1001 l-205 181 l0 30 l607 300 l30 0 l0 -560 l181 0 q194 0 317.5 -47.5 q123.5 -47.5 182.5 -141.5 q59 -94 59 -253 ZM856 477 q0 84 -46 125 q-46 41 -142 41 l-95 0 l0 -334 l84 0 q103 0 151 42 q48 42 48 126 Z" /><glyph glyph-name="" unicode="&#x185;" d="M1296 543 q0 -168 -55.5 -297.5 q-55.5 -129.5 -157.5 -200 q-102 -70.5 -231 -70.5 q-186 0 -281 131 l-4 0 l0 -106 l-426 0 l0 1058 l-205 181 l0 30 l601 299 l30 0 l0 -683 l4 0 q50 76 135.5 120 q85.5 44 188.5 44 q194 0 297.5 -129 q103.5 -129 103.5 -377 ZM864 530 q0 103 -39.5 155 q-39.5 52 -113.5 52 q-65 0 -108.5 -54.5 q-43.5 -54.5 -43.5 -141.5 l0 -62 q0 -88 39 -140 q39 -52 105 -52 q77 0 119 63.5 q42 63.5 42 179.5 Z" /><glyph glyph-name="" unicode="&#x186;" d="M82 1394 q178 64 411 64 q229 0 395 -87.5 q166 -87.5 253.5 -249 q87.5 -161.5 87.5 -372.5 q0 -227 -98 -404 q-98 -177 -277 -273.5 q-179 -96.5 -412 -96.5 q-186 0 -360 45 l0 399 q60 -36 143 -56 q83 -20 168 -20 q176 0 277.5 101 q101.5 101 101.5 274 q0 172 -101.5 271.5 q-101.5 99.5 -271.5 99.5 q-157 0 -317 -80 l0 385 Z" /><glyph glyph-name="" unicode="&#x187;" d="M1208 39 q-178 -64 -411 -64 q-229 0 -395 87.5 q-166 87.5 -253.5 249 q-87.5 161.5 -87.5 372.5 q0 227 98 404 q98 177 277 273.5 q179 96.5 412 96.5 q52 0 92 -6 q46 103 132.5 159 q86.5 56 210.5 56 q82 0 148 -19 l0 -304 q-48 14 -90 14 q-77 0 -111.5 -53.5 q-34.5 -53.5 -34.5 -141.5 q0 -70 15 -145 l-10 -7 q-94 47 -159 63 q-65 16 -144 16 q-176 0 -277.5 -101 q-101.5 -101 -101.5 -274 q0 -172 101.5 -271.5 q101.5 -99.5 271.5 -99.5 q157 0 317 80 l0 -385 Z" /><glyph glyph-name="" unicode="&#x188;" d="M946 29 q-30 -18 -111 -36 q-81 -18 -221 -18 q-162 0 -289.5 65.5 q-127.5 65.5 -197.5 183.5 q-70 118 -70 265 q0 176 74.5 301.5 q74.5 125.5 212.5 192 q138 66.5 320 66.5 l48 -4 q30 100 101 151.5 q71 51.5 176 51.5 q79 0 127 -15 l0 -270 q-38 11 -72 11 q-103 0 -103 -153 q0 -59 16 -142 l-9 -6 q-81 42 -120.5 53 q-39.5 11 -90.5 11 q-116 0 -182 -58.5 q-66 -58.5 -66 -168.5 q0 -106 63 -164.5 q63 -58.5 175 -58.5 q119 0 219 57 l0 -315 Z" /><glyph glyph-name="" unicode="&#x18a;" d="M1864 735 q0 -218 -91.5 -385.5 q-91.5 -167.5 -261.5 -258.5 q-170 -91 -392 -91 l-607 0 l0 1096 l-30 0 q-93 0 -143 -36 q-50 -36 -50 -102 q0 -37 17 -86 l-304 0 q-22 65 -22 148 q0 189 135 301.5 q135 112.5 364 112.5 l627 0 q758 0 758 -699 ZM1405 731 q0 163 -94.5 264 q-94.5 101 -255.5 101 l-111 0 l0 -758 l121 0 q155 0 247.5 106.5 q92.5 106.5 92.5 286.5 Z" /><glyph glyph-name="" unicode="&#x18b;" d="M49 453 q0 125 57 220 q57 95 166 148 q109 53 266 53 l304 0 l0 222 l-607 0 l0 338 l1039 0 l0 -1434 l-684 0 q-267 0 -404 115 q-137 115 -137 338 ZM508 442 q0 -75 44.5 -113 q44.5 -38 125.5 -38 l164 0 l0 293 l-183 0 q-72 0 -111.5 -38 q-39.5 -38 -39.5 -104 Z" /><glyph glyph-name="" unicode="&#x18c;" d="M786 0 l0 119 l-4 0 q-51 -67 -133 -105.5 q-82 -38.5 -162 -38.5 q-131 0 -231 64.5 q-100 64.5 -149.5 180.5 q-49.5 116 -49.5 274 q0 163 59 289 q59 126 166 196 q107 70 240 70 q63 0 116.5 -18 q53.5 -18 93 -48.5 q39.5 -30.5 50.5 -60.5 l4 0 l0 299 l-584 0 l0 295 l1010 0 l0 -1516 l-426 0 ZM795 543 q0 92 -40.5 143 q-40.5 51 -109.5 51 q-69 0 -112.5 -63.5 q-43.5 -63.5 -43.5 -169.5 q0 -217 150 -217 q71 0 113.5 58.5 q42.5 58.5 42.5 170.5 l0 27 Z" /><glyph glyph-name="" unicode="&#x18d;" d="M57 527 q0 159 70 276.5 q70 117.5 205.5 181.5 q135.5 64 324.5 64 q178 0 309.5 -64.5 q131.5 -64.5 203 -177 q71.5 -112.5 71.5 -244.5 q0 -148 -81 -267 q-81 -119 -240 -196 q177 -109 177 -269 q0 -146 -124.5 -229 q-124.5 -83 -340.5 -83 q-236 0 -428 74 l0 356 q193 -119 371 -119 q42 0 66 14.5 q24 14.5 24 42.5 q0 24 -34.5 48 q-34.5 24 -136.5 70 q-230 101 -333.5 224 q-103.5 123 -103.5 298 ZM489 530 q0 -76 48.5 -142.5 q48.5 -66.5 129.5 -98.5 q59 20 100.5 89 q41.5 69 41.5 146 q0 99 -42.5 156 q-42.5 57 -117.5 57 q-76 0 -118 -53.5 q-42 -53.5 -42 -153.5 Z" /><glyph glyph-name="" unicode="&#x18e;" d="M63 0 l0 338 l494 0 l0 211 l-433 0 l0 338 l433 0 l0 209 l-461 0 l0 338 l893 0 l0 -1434 l-926 0 Z" /><glyph glyph-name="" unicode="&#x190;" d="M54 399 q0 132 95.5 226.5 q95.5 94.5 254.5 117.5 l0 5 q-146 28 -222.5 111.5 q-76.5 83.5 -76.5 212.5 q0 179 137 282.5 q137 103.5 385 103.5 q228 0 436 -80 l0 -321 q-70 36 -149.5 63 q-79.5 27 -178.5 27 q-98 0 -147 -29.5 q-49 -29.5 -49 -93.5 q0 -71 59 -103 q59 -32 172 -32 l197 0 l0 -314 l-217 0 q-124 0 -191 -38.5 q-67 -38.5 -67 -108.5 q0 -68 58.5 -104.5 q58.5 -36.5 174.5 -36.5 q103 0 207.5 28.5 q104.5 28.5 188.5 79.5 l0 -342 q-81 -37 -202 -57.5 q-121 -20.5 -251 -20.5 q-299 0 -456.5 109.5 q-157.5 109.5 -157.5 314.5 Z" /><glyph glyph-name="" unicode="&#x191;" d="M573 1096 l0 -258 l426 0 l0 -338 l-426 0 l0 -513 q0 -226 -113.5 -347 q-113.5 -121 -329.5 -121 q-127 0 -221 27 l0 352 q44 -24 97 -24 q76 0 105.5 59 q29.5 59 29.5 207 l0 1294 l899 0 l0 -338 l-467 0 Z" /><glyph glyph-name="" unicode="&#x193;" d="M1397 94 q-81 -46 -242 -82.5 q-161 -36.5 -307 -36.5 q-377 0 -582 188.5 q-205 188.5 -205 528.5 q0 226 99.5 400.5 q99.5 174.5 286.5 270 q187 95.5 438 95.5 q74 0 158 -7 q97 216 343 216 q82 0 148 -19 l0 -304 q-48 14 -90 14 q-146 0 -146 -177 q0 -69 16 -149 l-10 -7 q-107 45 -198.5 64 q-91.5 19 -196.5 19 q-178 0 -283.5 -107 q-105.5 -107 -105.5 -294 q0 -179 88.5 -280 q88.5 -101 247.5 -101 q74 0 109 8 l0 205 l-275 0 l0 327 l707 0 l0 -772 Z" /><glyph glyph-name="" unicode="&#x194;" d="M717 652 q26 120 57 219 l184 563 l467 0 l-467 -1151 q82 -118 127.5 -221.5 q45.5 -103.5 45.5 -208.5 q0 -157 -111.5 -245.5 q-111.5 -88.5 -302.5 -88.5 q-192 0 -303 89 q-111 89 -111 245 q0 83 35 176.5 q35 93.5 140 254.5 l-469 1150 l467 0 l184 -563 q31 -99 57 -219 ZM788 -117 q0 60 -71 174 q-71 -114 -71 -174 q0 -100 71 -100 q71 0 71 100 Z" /><glyph glyph-name="" unicode="&#x195;" d="M528 0 l-426 0 l0 1516 l426 0 l0 -631 l4 0 q52 76 130 120 q78 44 172 44 q165 0 252.5 -104.5 q87.5 -104.5 87.5 -315.5 l0 -150 q0 -162 138 -162 q52 0 81.5 43 q29.5 43 29.5 121 q0 248 -129 543 l437 0 q118 -269 118 -533 q0 -249 -146 -383 q-146 -134 -418 -134 q-266 0 -394.5 124 q-128.5 124 -128.5 356 l0 130 q0 153 -117 153 q-57 0 -87 -43 q-30 -43 -30 -112 l0 -582 Z" /><glyph glyph-name="" unicode="&#x196;" d="M125 1434 l432 0 l0 -838 q0 -152 29 -209 q29 -57 104 -57 q53 0 97 24 l0 -352 q-94 -27 -221 -27 q-441 0 -441 468 l0 991 Z" /><glyph glyph-name="" unicode="&#x197;" d="M31 871 l141 0 l0 225 l-141 0 l0 338 l710 0 l0 -338 l-142 0 l0 -225 l143 0 l0 -295 l-143 0 l0 -238 l142 0 l0 -338 l-710 0 l0 338 l141 0 l0 238 l-141 0 l0 295 Z" /><glyph glyph-name="" unicode="&#x198;" d="M1458 0 l-524 0 l-320 611 q-4 6 -17.5 41 q-13.5 35 -18.5 53 l-5 0 l0 -705 l-432 0 l0 1434 l432 0 l0 -682 l5 0 l18 43 l154 296 q36 68 73.5 134 q37.5 66 86 117.5 q48.5 51.5 111 83.5 q62.5 32 147.5 32 q124 0 215 -29 l0 -311 q-37 11 -70 11 q-36 0 -57 -11 q-21 -11 -45 -38.5 q-24 -27.5 -50 -73.5 l-149 -256 l446 -750 Z" /><glyph glyph-name="" unicode="&#x199;" d="M760 0 l-228 526 l-4 0 l0 -526 l-426 0 l0 1165 q0 180 100.5 278.5 q100.5 98.5 278.5 98.5 q150 0 228 -39 l0 -310 q-52 25 -93 25 q-88 0 -88 -135 l0 -540 l4 0 l207 481 l480 0 l-277 -469 l293 -555 l-475 0 Z" /><glyph glyph-name="" unicode="&#x19a;" d="M133 0 l0 615 l-133 0 l0 278 l133 0 l0 623 l426 0 l0 -623 l133 0 l0 -278 l-133 0 l0 -615 l-426 0 Z" /><glyph glyph-name="" unicode="&#x19b;" d="M756 0 l-140 612 l-141 -612 l-448 0 l424 971 l-170 -82 l-86 172 l175 84 q-43 26 -100 26 q-79 0 -147 -51 l0 344 q109 41 246 41 q239 0 372 -183 l177 85 l83 -169 l-171 -83 l10 -28 l356 -1127 l-440 0 Z" /><glyph glyph-name="" unicode="&#x19c;" d="M1972 0 l-409 0 l0 188 l-4 0 q-51 -96 -142.5 -154.5 q-91.5 -58.5 -197.5 -58.5 q-118 0 -193.5 46 q-75.5 46 -131.5 154 q-63 -105 -146.5 -152.5 q-83.5 -47.5 -203.5 -47.5 q-214 0 -311.5 119 q-97.5 119 -97.5 357 l0 983 l432 0 l0 -922 q0 -168 123 -168 q64 0 106 49.5 q42 49.5 42 128.5 l0 912 l432 0 l0 -930 q0 -160 125 -160 q66 0 105.5 49.5 q39.5 49.5 39.5 134.5 l0 906 l432 0 l0 -1434 Z" /><glyph glyph-name="" unicode="&#x19d;" d="M1143 0 l-506 692 q-66 92 -98 148 l-4 0 q6 -108 6 -238 l0 -602 q0 -231 -110 -356 q-110 -125 -319 -125 q-109 0 -203 27 l0 352 q44 -24 97 -24 q76 0 105.5 59 q29.5 59 29.5 207 l0 1294 l408 0 l507 -688 q53 -72 68 -107 l4 0 q-6 44 -6 152 l0 643 l400 0 l0 -1434 l-379 0 Z" /><glyph glyph-name="" unicode="&#x19e;" d="M766 -471 l0 1030 q0 95 -28.5 136.5 q-28.5 41.5 -92.5 41.5 q-55 0 -86 -43 q-31 -43 -31 -110 l0 -584 l-426 0 l0 1024 l426 0 l0 -160 l4 0 q51 88 137 136.5 q86 48.5 187 48.5 q336 0 336 -424 l0 -1096 l-426 0 Z" /><glyph glyph-name="" unicode="&#x1a2;" d="M2074 0 l-432 0 l0 1028 q-66 -12 -132 -12 q-64 0 -138 10 l0 -932 q-240 -119 -586 -119 q-216 0 -381 90 q-165 90 -254.5 255.5 q-89.5 165.5 -89.5 377.5 q0 220 93.5 394.5 q93.5 174.5 262.5 270 q169 95.5 380 95.5 q79 0 195.5 -12 q116.5 -12 204.5 -27 q231 -39 375 -39 q271 0 502 78 l0 -1458 ZM940 374 l0 699 q-70 17 -149 17 q-127 0 -199 -100.5 q-72 -100.5 -72 -278.5 q0 -169 71 -268 q71 -99 195 -99 q100 0 154 30 Z" /><glyph glyph-name="" unicode="&#x1a3;" d="M1819 0 l-425 0 l0 678 q-47 -7 -102 -7 q-59 0 -136 11 l0 -610 q-232 -97 -516 -97 q-272 0 -427.5 146 q-155.5 146 -155.5 397 q0 243 159.5 387 q159.5 144 426.5 144 q134 0 361 -35 q193 -29 329 -29 q263 0 486 64 l0 -1049 ZM731 298 l0 429 q-34 10 -82 10 q-160 0 -160 -219 q0 -231 162 -231 q51 0 80 11 Z" /><glyph glyph-name="" unicode="&#x1a4;" d="M1684 961 q0 -226 -165.5 -363 q-165.5 -137 -442.5 -137 l-132 0 l0 -461 l-432 0 l0 1096 l-30 0 q-93 0 -143 -36 q-50 -36 -50 -102 q0 -37 17 -86 l-304 0 q-22 65 -22 148 q0 189 135 301.5 q135 112.5 364 112.5 l621 0 q303 0 443.5 -115 q140.5 -115 140.5 -358 ZM1227 946 q0 88 -51 133 q-51 45 -150 45 l-82 0 l0 -354 l97 0 q186 0 186 176 Z" /><glyph glyph-name="" unicode="&#x1a5;" d="M1257 543 q0 -168 -57 -297 q-57 -129 -161 -200 q-104 -71 -234 -71 q-180 0 -273 131 l-4 0 l0 -577 l-426 0 l0 1636 q0 180 100.5 278.5 q100.5 98.5 278.5 98.5 q150 0 228 -39 l0 -310 q-52 25 -93 25 q-88 0 -88 -135 l0 -198 l4 0 q51 77 132 120.5 q81 43.5 184 43.5 q198 0 303.5 -132 q105.5 -132 105.5 -374 ZM825 530 q0 97 -37.5 152 q-37.5 55 -115.5 55 q-68 0 -110 -58 q-42 -58 -42 -159 l0 -20 q0 -97 36 -155 q36 -58 108 -58 q77 0 119 63.5 q42 63.5 42 179.5 Z" /><glyph glyph-name="" unicode="&#x1a6;" d="M885 -195 l-107 309 q-30 90 -80 142.5 q-50 52.5 -108 52.5 l-17 0 l0 -309 l-432 0 l0 1434 l432 0 l0 -195 l142 0 q301 0 444.5 -98.5 q143.5 -98.5 143.5 -295.5 q0 -148 -83.5 -248 q-83.5 -100 -248.5 -145 l0 -4 q91 -28 151.5 -91 q60.5 -63 108.5 -187 l141 -365 l-487 0 ZM844 784 q0 72 -44 114 q-44 42 -138 42 l-89 0 l0 -328 l78 0 q87 0 140 49 q53 49 53 123 Z" /><glyph glyph-name="" unicode="&#x1a7;" d="M58 434 q0 147 92.5 254 q92.5 107 315.5 197 q112 46 148 76 q36 30 36 75 q0 47 -44 74 q-44 27 -116 27 q-175 0 -356 -99 l0 365 q103 28 158 36.5 q55 8.5 116.5 13.5 q61.5 5 122.5 5 q267 0 424.5 -124.5 q157.5 -124.5 157.5 -332.5 q0 -297 -346 -430 q-107 -41 -146 -63.5 q-39 -22.5 -59 -48.5 q-20 -26 -20 -62 q0 -48 39 -74 q39 -26 110 -26 q94 0 203.5 40.5 q109.5 40.5 198.5 106.5 l0 -393 q-187 -76 -412 -76 q-195 0 -332.5 52.5 q-137.5 52.5 -214 158.5 q-76.5 106 -76.5 248 Z" /><glyph glyph-name="" unicode="&#x1a8;" d="M75 340 q0 113 68 184.5 q68 71.5 225 118.5 q82 25 108.5 43.5 q26.5 18.5 26.5 46.5 q0 25 -25 39 q-25 14 -67 14 q-54 0 -128 -18.5 q-74 -18.5 -136 -44.5 l0 287 q150 39 284 39 q230 0 356 -92.5 q126 -92.5 126 -251.5 q0 -113 -61.5 -184.5 q-61.5 -71.5 -198.5 -114.5 q-123 -41 -152 -58.5 q-29 -17.5 -29 -44.5 q0 -65 125 -65 q127 0 316 84 l0 -299 q-67 -20 -166 -34 q-99 -14 -170 -14 q-238 0 -370 95.5 q-132 95.5 -132 269.5 Z" /><glyph glyph-name="" unicode="&#x1aa;" d="M539 -104 l0 963 q-85 -35 -175 -35 q-105 0 -188.5 42.5 q-83.5 42.5 -129.5 122 q-46 79.5 -46 186.5 q0 179 122 286 q122 107 326 107 q259 0 388 -134 q129 -134 129 -394 l0 -1062 q0 -135 88 -135 q41 0 93 25 l0 -310 q-78 -39 -228 -39 q-178 0 -278.5 98 q-100.5 98 -100.5 279 ZM537 1119 l0 15 q0 164 -125 164 q-49 0 -75.5 -29 q-26.5 -29 -26.5 -74 q0 -46 29.5 -76 q29.5 -30 78.5 -30 q61 0 119 30 Z" /><glyph glyph-name="" unicode="&#x1ab;" d="M823 63 q0 -485 -410 -485 q-89 0 -172 31 l0 248 q65 -37 117 -37 q67 0 104 40.5 q37 40.5 40 118.5 q-147 17 -229.5 114 q-82.5 97 -82.5 259 l0 377 l-161 0 l0 295 l161 0 l0 201 l420 116 l0 -317 l213 0 l0 -295 l-213 0 l0 -307 q0 -135 107 -135 q50 0 106 22 l0 -246 Z" /><glyph glyph-name="" unicode="&#x1ac;" d="M986 1096 l0 -1096 l-434 0 l0 1096 l-41 0 q-86 0 -134 -35 q-48 -35 -48 -103 q0 -37 17 -86 l-304 0 q-22 65 -22 148 q0 189 135 301.5 q135 112.5 364 112.5 l873 0 l0 -338 l-406 0 Z" /><glyph glyph-name="" unicode="&#x1ad;" d="M823 14 q-29 -14 -94.5 -26.5 q-65.5 -12.5 -159.5 -12.5 q-178 0 -278.5 98 q-100.5 98 -100.5 279 l0 377 l-161 0 l0 295 l161 0 l0 141 q0 180 97 278.5 q97 98.5 277 98.5 q150 0 228 -39 l0 -310 q-52 25 -93 25 q-88 0 -88 -135 l0 -59 l212 0 l0 -295 l-213 0 l0 -307 q0 -135 107 -135 q50 0 106 22 l0 -295 Z" /><glyph glyph-name="" unicode="&#x1ae;" d="M866 1096 l0 -956 q0 -152 29 -209 q29 -57 104 -57 q53 0 97 24 l0 -352 q-94 -27 -221 -27 q-443 0 -443 468 l0 1109 l-401 0 l0 338 l1241 0 l0 -338 l-406 0 Z" /><glyph glyph-name="" unicode="&#x1b1;" d="M730 1434 l0 -338 q-113 -113 -157 -217 q-44 -104 -44 -233 q0 -132 72 -217 q72 -85 182 -85 q77 0 139 38 q62 38 98 110.5 q36 72.5 36 173.5 q0 79 -21.5 148.5 q-21.5 69.5 -58.5 132.5 q-37 63 -115 149 l0 338 l657 0 l0 -338 l-336 0 q166 -89 249 -223.5 q83 -134.5 83 -304.5 q0 -170 -93.5 -306 q-93.5 -136 -260.5 -211 q-167 -75 -367 -75 q-210 0 -371.5 73.5 q-161.5 73.5 -256.5 211.5 q-95 138 -95 299 q0 184 89 315.5 q89 131.5 262 220.5 l-349 0 l0 338 l658 0 Z" /><glyph glyph-name="" unicode="&#x1b2;" d="M125 1434 l434 0 l0 -816 q0 -138 52.5 -206 q52.5 -68 147.5 -68 q146 0 228 121.5 q82 121.5 82 333.5 q0 299 -175 299 q-86 0 -172 -36 l-1 358 q122 38 246 38 q261 0 407 -170.5 q146 -170.5 146 -478.5 q0 -244 -94.5 -435.5 q-94.5 -191.5 -268.5 -295 q-174 -103.5 -400 -103.5 q-311 0 -471.5 165 q-160.5 165 -160.5 489 l0 805 Z" /><glyph glyph-name="" unicode="&#x1b3;" d="M496 1434 l158 -460 q9 -24 27 -104 l4 0 q13 68 32 110 l81 177 q77 169 162 235 q85 66 235 66 q81 0 162 -27 l0 -313 q-38 11 -70 11 q-44 0 -79.5 -36.5 q-35.5 -36.5 -85.5 -134.5 l-248 -475 l0 -483 l-432 0 l0 492 l-442 942 l496 0 Z" /><glyph glyph-name="" unicode="&#x1b4;" d="M1253 711 q-46 14 -83 14 q-45 0 -78.5 -41 q-33.5 -41 -68.5 -144 l-204 -569 q-91 -244 -211.5 -348 q-120.5 -104 -306.5 -104 q-73 0 -143.5 12 q-70.5 12 -108.5 29 l0 321 q78 -51 168 -51 q120 0 158 94 l33 80 l-428 1020 l471 0 l133 -530 q18 -67 24 -119 l3 0 q7 70 24 118 l65 197 q48 144 97.5 217 q49.5 73 117.5 107.5 q68 34.5 170 34.5 q91 0 168 -29 l0 -309 Z" /><glyph glyph-name="" unicode="&#x1b5;" d="M606 338 l658 0 l0 -338 l-1203 0 l0 303 l235 278 l-173 0 l0 279 l410 0 l200 236 l-631 0 l0 338 l1141 0 l0 -301 l-219 -273 l173 0 l0 -279 l-397 0 l-194 -243 Z" /><glyph glyph-name="" unicode="&#x1b6;" d="M574 295 l432 0 l0 -295 l-981 0 l0 197 l180 204 l-103 0 l0 223 l300 0 l93 105 l-427 0 l0 295 l929 0 l0 -242 l-138 -158 l107 0 l0 -223 l-300 0 l-92 -106 Z" /><glyph glyph-name="" unicode="&#x1b7;" d="M61 -372 l0 409 q218 -150 492 -150 q156 0 246 72 q90 72 90 196 q0 127 -95 190 q-95 63 -292 63 l-145 0 l0 260 l378 428 l-643 0 l0 338 l1175 0 l0 -285 l-375 -430 q230 -63 343 -198 q113 -135 113 -348 q0 -317 -205 -485.5 q-205 -168.5 -590 -168.5 q-131 0 -262 28 q-131 28 -230 81 Z" /><glyph glyph-name="" unicode="&#x1b8;" d="M1336 -372 q-97 -51 -241.5 -80 q-144.5 -29 -284.5 -29 q-370 0 -565.5 156 q-195.5 156 -195.5 461 q0 421 456 583 l-375 430 l0 285 l1175 0 l0 -338 l-643 0 l378 -428 l0 -260 l-145 0 q-387 0 -387 -258 q0 -121 88 -192 q88 -71 248 -71 q274 0 492 150 l0 -409 Z" /><glyph glyph-name="" unicode="&#x1b9;" d="M1058 -420 q-167 -61 -385 -61 q-295 0 -459.5 132.5 q-164.5 132.5 -164.5 367.5 q0 157 96 279 q96 122 255 172 l-274 312 l0 242 l919 0 l0 -295 l-417 0 l274 -305 l1 -172 l-157 0 q-126 0 -195.5 -58 q-69.5 -58 -69.5 -155 q0 -209 258 -209 q80 0 154.5 19 q74.5 19 164.5 61 l0 -330 Z" /><glyph glyph-name="" unicode="&#x1ba;" d="M910 -130 l0 -296 q-179 -55 -396 -55 q-218 0 -343.5 87.5 q-125.5 87.5 -125.5 248.5 q0 144 79 224.5 q79 80.5 270 138.5 q115 36 140.5 49 q25.5 13 37 27 q11.5 14 11.5 31 q0 39 -42.5 52 q-42.5 13 -136.5 13 l-115 0 l-1 156 l210 183 l-415 0 l0 295 l919 0 l0 -242 l-228 -203 q115 -24 177.5 -91.5 q62.5 -67.5 62.5 -168.5 q0 -103 -44 -171 q-44 -68 -145.5 -121 q-101.5 -53 -272.5 -97 q-45 -12 -71 -25 q-26 -13 -26 -45 q0 -30 41 -46 q41 -16 117 -16 q155 0 297 72 Z" /><glyph glyph-name="" unicode="&#x1bb;" d="M61 0 l0 315 l220 225 l-136 0 l0 279 l396 0 q26 35 40 68.5 q14 33.5 14 85.5 q0 73 -45.5 114 q-45.5 41 -120.5 41 q-163 0 -305 -127 l0 349 q206 106 419 106 q226 0 350 -113 q124 -113 124 -311 q0 -111 -56 -213 l92 0 l0 -279 l-327 0 l-194 -192 l0 -6 l532 0 l0 -342 l-1003 0 Z" /><glyph glyph-name="" unicode="&#x1bc;" d="M57 1434 l969 0 l0 -332 l-471 0 l-36 -201 q78 6 102 6 q210 0 329 -113.5 q119 -113.5 119 -308.5 q0 -147 -69.5 -263.5 q-69.5 -116.5 -200.5 -181.5 q-131 -65 -309 -65 q-263 0 -433 60 l0 332 q192 -80 367 -80 q111 0 167 40.5 q56 40.5 56 112.5 q0 158 -262 158 q-74 0 -149 -9 q-75 -9 -113 -16 l95 529 l-161 0 l0 332 Z" /><glyph glyph-name="" unicode="&#x1bd;" d="M78 29 l0 264 q144 -57 302 -57 q84 0 125.5 20.5 q41.5 20.5 41.5 67.5 q0 49 -50 66 q-50 17 -151 17 q-74 0 -170 -14 l44 336 l-126 0 l0 295 l858 0 l0 -295 l-373 0 l-11 -92 l78 4 q162 0 252.5 -75.5 q90.5 -75.5 90.5 -211.5 q0 -184 -134.5 -281.5 q-134.5 -97.5 -400.5 -97.5 q-245 0 -376 54 Z" /><glyph glyph-name="" unicode="&#x1be;" d="M75 1024 l188 0 l0 201 l420 116 l0 -317 l213 0 l0 -295 l-187 0 q12 -14 30 -28 q87 -68 121.5 -111 q34.5 -43 53 -95.5 q18.5 -52.5 18.5 -116.5 q0 -197 -126.5 -300 q-126.5 -103 -363.5 -103 q-118 0 -215.5 25.5 q-97.5 25.5 -158.5 62.5 l0 393 q172 -126 328 -126 q116 0 116 71 q0 21 -16 42.5 q-16 21.5 -79 68.5 q-81 61 -110.5 107.5 q-29.5 46.5 -39.5 109.5 l-192 0 l0 295 Z" /><glyph glyph-name="" unicode="&#x1bf;" d="M528 -67 l0 -404 l-426 0 l0 1495 l421 0 l0 -139 l5 0 q122 164 343 164 q176 0 281 -113.5 q105 -113.5 105 -302.5 q0 -508 -729 -700 ZM528 662 l0 -397 q297 110 297 326 q0 66 -37 106 q-37 40 -100 40 q-87 0 -160 -75 Z" /><glyph glyph-name="" unicode="&#x1c2;" d="M349 -481 l0 691 l-349 0 l0 287 l349 0 l0 207 l-349 0 l0 287 l349 0 l0 576 l327 0 l0 -576 l348 0 l0 -287 l-348 0 l0 -207 l348 0 l0 -287 l-348 0 l0 -691 l-327 0 Z" /><glyph glyph-name="" unicode="&#x1c7;" d="M141 0 l0 1434 l432 0 l0 -1096 l494 0 l0 -338 l-926 0 ZM2030 612 q0 -637 -619 -637 q-50 0 -120 12 q-70 12 -142 36 l0 399 q51 -35 113.5 -56.5 q62.5 -21.5 103.5 -21.5 q116 0 173.5 71.5 q57.5 71.5 57.5 221.5 l0 797 l433 0 l0 -822 Z" /><glyph glyph-name="" unicode="&#x1c8;" d="M141 0 l0 1434 l432 0 l0 -1096 l494 0 l0 -338 l-926 0 ZM1661 1300 q0 -90 -65.5 -146 q-65.5 -56 -172.5 -56 q-104 0 -170.5 58 q-66.5 58 -66.5 144 q0 88 64.5 142.5 q64.5 54.5 172.5 54.5 q107 0 172.5 -54.5 q65.5 -54.5 65.5 -142.5 ZM1636 -10 q0 -135 -53 -246.5 q-53 -111.5 -156 -168 q-103 -56.5 -245 -56.5 q-78 0 -170 30 l0 312 q56 -31 102 -31 q53 0 74.5 35.5 q21.5 35.5 21.5 107.5 l0 1051 l426 0 l0 -1034 Z" /><glyph glyph-name="" unicode="&#x1c9;" d="M102 0 l0 1516 l426 0 l0 -1516 l-426 0 ZM1184 1300 q0 -90 -65.5 -146 q-65.5 -56 -172.5 -56 q-104 0 -170.5 58 q-66.5 58 -66.5 144 q0 88 64.5 142.5 q64.5 54.5 172.5 54.5 q107 0 172.5 -54.5 q65.5 -54.5 65.5 -142.5 ZM1159 -10 q0 -135 -53 -246.5 q-53 -111.5 -156 -168 q-103 -56.5 -245 -56.5 q-78 0 -170 30 l0 312 q56 -31 102 -31 q53 0 74.5 35.5 q21.5 35.5 21.5 107.5 l0 1051 l426 0 l0 -1034 Z" /><glyph glyph-name="" unicode="&#x1ca;" d="M1143 0 l-506 692 q-60 82 -98 148 l-4 0 q6 -106 6 -238 l0 -602 l-400 0 l0 1434 l408 0 l485 -658 q9 -13 22 -31 q13 -18 26 -37 q13 -19 24.5 -37 q11.5 -18 17.5 -32 l4 0 q-6 44 -6 152 l0 643 l400 0 l0 -1434 l-379 0 ZM2585 612 q0 -637 -619 -637 q-50 0 -120 12 q-70 12 -142 36 l0 399 q51 -35 113.5 -56.5 q62.5 -21.5 103.5 -21.5 q116 0 173.5 71.5 q57.5 71.5 57.5 221.5 l0 797 l433 0 l0 -822 Z" /><glyph glyph-name="" unicode="&#x1cb;" d="M1143 0 l-506 692 q-60 82 -98 148 l-4 0 q6 -106 6 -238 l0 -602 l-400 0 l0 1434 l408 0 l485 -658 q9 -13 22 -31 q13 -18 26 -37 q13 -19 24.5 -37 q11.5 -18 17.5 -32 l4 0 q-6 44 -6 152 l0 643 l400 0 l0 -1434 l-379 0 ZM2216 1300 q0 -90 -65.5 -146 q-65.5 -56 -172.5 -56 q-104 0 -170.5 58 q-66.5 58 -66.5 144 q0 88 64.5 142.5 q64.5 54.5 172.5 54.5 q107 0 172.5 -54.5 q65.5 -54.5 65.5 -142.5 ZM2191 -10 q0 -135 -53 -246.5 q-53 -111.5 -156 -168 q-103 -56.5 -245 -56.5 q-78 0 -170 30 l0 312 q56 -31 102 -31 q53 0 74.5 35.5 q21.5 35.5 21.5 107.5 l0 1051 l426 0 l0 -1034 Z" /><glyph glyph-name="" unicode="&#x1cc;" d="M766 0 l0 559 q0 95 -28.5 136.5 q-28.5 41.5 -92.5 41.5 q-55 0 -86 -43 q-31 -43 -31 -110 l0 -584 l-426 0 l0 1024 l426 0 l0 -160 l4 0 q51 88 137 136.5 q86 48.5 187 48.5 q336 0 336 -424 l0 -625 l-426 0 ZM1809 1300 q0 -90 -65.5 -146 q-65.5 -56 -172.5 -56 q-104 0 -170.5 58 q-66.5 58 -66.5 144 q0 88 64.5 142.5 q64.5 54.5 172.5 54.5 q107 0 172.5 -54.5 q65.5 -54.5 65.5 -142.5 ZM1784 -10 q0 -135 -53 -246.5 q-53 -111.5 -156 -168 q-103 -56.5 -245 -56.5 q-78 0 -170 30 l0 312 q56 -31 102 -31 q53 0 74.5 35.5 q21.5 35.5 21.5 107.5 l0 1051 l426 0 l0 -1034 Z" /><glyph glyph-name="" unicode="&#x1e4;" d="M711 532 l254 0 l0 77 l-254 0 l0 257 l686 0 l0 -334 l92 0 l0 -195 l-92 0 l0 -243 q-81 -46 -242 -82.5 q-161 -36.5 -307 -36.5 q-377 0 -582 188.5 q-205 188.5 -205 528.5 q0 228 103.5 405 q103.5 177 291.5 269 q188 92 443 92 q187 0 399 -53 l0 -377 q-103 47 -193 63.5 q-90 16.5 -196 16.5 q-181 0 -285 -111.5 q-104 -111.5 -104 -306.5 q0 -206 95 -320 q95 -114 267 -114 q48 0 83 8 l0 73 l-254 0 l0 195 Z" /><glyph glyph-name="" unicode="&#x1e5;" d="M620 35 l167 0 l1 18 l0 143 l-4 0 q-46 -70 -126.5 -112 q-80.5 -42 -172.5 -42 q-197 0 -312.5 129 q-115.5 129 -115.5 356 q0 157 60.5 275.5 q60.5 118.5 166.5 182.5 q106 64 236 64 q177 0 264 -131 l4 0 l0 106 l424 0 l0 -881 q0 -61 -5 -108 l108 0 l0 -195 l-155 0 q-71 -164 -228.5 -242.5 q-157.5 -78.5 -396.5 -78.5 q-97 0 -203.5 14 q-106.5 14 -161.5 35 l0 304 q80 -39 177.5 -63.5 q97.5 -24.5 193.5 -24.5 q127 0 187 56 l-108 0 l0 195 ZM795 570 q0 76 -39.5 121.5 q-39.5 45.5 -108.5 45.5 q-71 0 -114.5 -54 q-43.5 -54 -43.5 -146 q0 -85 41 -134 q41 -49 116 -49 q69 0 109 49 q40 49 40 137 l0 30 Z" /><glyph glyph-name="" unicode="&#x1ea;" d="M1505 721 q0 -206 -85.5 -371.5 q-85.5 -165.5 -239 -263 q-153.5 -97.5 -346.5 -109.5 q-46 -80 -46 -148 q0 -37 20 -56 q20 -19 53 -19 q56 0 118 28 l0 -154 q-34 -19 -86.5 -31.5 q-52.5 -12.5 -93.5 -12.5 q-116 0 -174 54.5 q-58 54.5 -58 148.5 q0 108 87 197 q-175 28 -309.5 124 q-134.5 96 -209 248.5 q-74.5 152.5 -74.5 341.5 q0 219 93 394 q93 175 261 270.5 q168 95.5 382 95.5 q206 0 368.5 -91.5 q162.5 -91.5 251 -261 q88.5 -169.5 88.5 -384.5 ZM1047 709 q0 177 -68 279 q-68 102 -186 102 q-129 0 -201 -98 q-72 -98 -72 -277 q0 -175 71.5 -273 q71.5 -98 194.5 -98 q75 0 135 44 q60 44 93 126 q33 82 33 195 Z" /><glyph glyph-name="" unicode="&#x1eb;" d="M1241 530 q0 -245 -142.5 -392 q-142.5 -147 -398.5 -161 q-46 -80 -46 -148 q0 -37 20 -56 q20 -19 53 -19 q56 0 118 28 l0 -154 q-34 -19 -86.5 -31.5 q-52.5 -12.5 -93.5 -12.5 q-116 0 -174 54.5 q-58 54.5 -58 148.5 q0 109 86 197 q-222 32 -342 171.5 q-120 139.5 -120 362.5 q0 163 73 283 q73 120 208 184 q135 64 311 64 q182 0 315.5 -67 q133.5 -67 205 -186 q71.5 -119 71.5 -266 ZM809 528 q0 209 -160 209 q-160 0 -160 -219 q0 -231 162 -231 q158 0 158 241 Z" /><glyph glyph-name="" unicode="&#x1f1;" d="M1493 735 q0 -218 -91.5 -385.5 q-91.5 -167.5 -261.5 -258.5 q-170 -91 -392 -91 l-607 0 l0 1434 l594 0 q758 0 758 -699 ZM1034 731 q0 105 -42.5 189 q-42.5 84 -121.5 130 q-79 46 -186 46 l-111 0 l0 -758 l121 0 q155 0 247.5 106.5 q92.5 106.5 92.5 286.5 ZM2170 338 l648 0 l0 -338 l-1203 0 l0 303 l662 793 l-621 0 l0 338 l1141 0 l0 -301 l-627 -795 Z" /><glyph glyph-name="" unicode="&#x1f2;" d="M1493 735 q0 -218 -91.5 -385.5 q-91.5 -167.5 -261.5 -258.5 q-170 -91 -392 -91 l-607 0 l0 1434 l594 0 q758 0 758 -699 ZM1034 731 q0 105 -42.5 189 q-42.5 84 -121.5 130 q-79 46 -186 46 l-111 0 l0 -758 l121 0 q155 0 247.5 106.5 q92.5 106.5 92.5 286.5 ZM2138 295 l422 0 l0 -295 l-981 0 l0 197 l460 532 l-417 0 l0 295 l929 0 l0 -242 l-413 -487 Z" /><glyph glyph-name="" unicode="&#x1f3;" d="M786 0 l0 119 l-4 0 q-51 -67 -133 -105.5 q-82 -38.5 -162 -38.5 q-131 0 -231 64.5 q-100 64.5 -149.5 180.5 q-49.5 116 -49.5 274 q0 163 59 289 q59 126 166 196 q107 70 240 70 q63 0 116.5 -18 q53.5 -18 93 -48.5 q39.5 -30.5 50.5 -60.5 l4 0 l0 594 l426 0 l0 -1516 l-426 0 ZM795 543 q0 92 -40.5 143 q-40.5 51 -109.5 51 q-69 0 -112.5 -63.5 q-43.5 -63.5 -43.5 -169.5 q0 -217 150 -217 q71 0 113.5 58.5 q42.5 58.5 42.5 170.5 l0 27 ZM1899 295 l422 0 l0 -295 l-981 0 l0 197 l460 532 l-417 0 l0 295 l929 0 l0 -242 l-413 -487 Z" /><glyph glyph-name="" unicode="&#x1f6;" d="M2260 655 q0 -345 -153.5 -512.5 q-153.5 -167.5 -476.5 -167.5 q-294 0 -452.5 146 q-158.5 146 -158.5 414 l-446 0 l0 -535 l-432 0 l0 1434 l432 0 l0 -531 l446 0 l0 531 l432 0 l0 -803 q0 -140 49.5 -213.5 q49.5 -73.5 139.5 -73.5 q93 0 140.5 70 q47.5 70 47.5 207 l0 403 l432 0 l0 -369 Z" /><glyph glyph-name="" unicode="&#x1f7;" d="M573 -24 l0 -447 l-432 0 l0 1905 l427 0 l0 -146 l5 0 q189 170 408 170 q136 0 243.5 -62 q107.5 -62 166.5 -174.5 q59 -112.5 59 -257.5 q0 -197 -87.5 -365.5 q-87.5 -168.5 -271 -317 q-183.5 -148.5 -518.5 -305.5 ZM573 981 l0 -618 q189 105 304.5 256 q115.5 151 115.5 289 q0 83 -42.5 132.5 q-42.5 49.5 -111.5 49.5 q-68 0 -131 -27 q-63 -27 -135 -82 Z" /><glyph glyph-name="" unicode="&#x21c;" d="M61 -455 l0 370 q98 -27 238 -27 q202 0 314 78.5 q112 78.5 112 221.5 q0 98 -56.5 149 q-56.5 51 -156.5 51 q-107 0 -226 -40 l0 327 l125 35 q251 70 251 259 q0 80 -60 129 q-60 49 -158 49 q-172 0 -354 -94 l0 325 q74 34 193 57 q119 23 250 23 q271 0 416.5 -118 q145.5 -118 145.5 -329 q0 -135 -70.5 -235 q-70.5 -100 -205.5 -153 l0 -5 q344 -103 344 -432 q0 -201 -92.5 -350 q-92.5 -149 -276 -233 q-183.5 -84 -418.5 -84 q-189 0 -315 26 Z" /><glyph glyph-name="" unicode="&#x21d;" d="M88 -463 l0 314 q88 -21 249 -21 q162 0 256 56.5 q94 56.5 94 152.5 q0 137 -204 137 q-93 0 -202 -35 l0 302 l99 26 q129 34 186 72.5 q57 38.5 57 97.5 q0 98 -172 98 q-190 0 -336 -78 l0 326 q180 64 433 64 q234 0 364.5 -92.5 q130.5 -92.5 130.5 -261.5 q0 -225 -232 -310 l0 -2 q144 -31 226 -125.5 q82 -94.5 82 -230.5 q0 -245 -206.5 -376.5 q-206.5 -131.5 -590.5 -131.5 q-162 0 -234 18 Z" /><glyph glyph-name="" unicode="&#x220;" d="M1501 -471 l-432 0 l0 1273 q0 147 -56 217.5 q-56 70.5 -173 70.5 q-127 0 -197 -80 q-70 -80 -70 -220 l0 -790 l-432 0 l0 1434 l427 0 l0 -200 l5 0 q158 224 445 224 q231 0 357 -148 q126 -148 126 -422 l0 -1359 Z" /><glyph glyph-name="" unicode="&#x222;" d="M332 932 q-217 88 -217 315 q0 98 44 187 l413 0 q-22 -70 -22 -154 q0 -87 57.5 -139 q57.5 -52 161.5 -52 q223 0 223 191 q0 76 -23 154 l414 0 q43 -84 43 -187 q0 -106 -58.5 -187 q-58.5 -81 -158.5 -128 q140 -61 210.5 -162.5 q70.5 -101.5 70.5 -255.5 q0 -162 -88.5 -284.5 q-88.5 -122.5 -254.5 -188.5 q-166 -66 -384 -66 q-327 0 -519 139.5 q-192 139.5 -192 379.5 q0 160 70 265.5 q70 105.5 210 172.5 ZM767 730 q-125 0 -192 -51.5 q-67 -51.5 -67 -144.5 q0 -89 71.5 -140 q71.5 -51 187.5 -51 q121 0 194.5 54 q73.5 54 73.5 143 q0 87 -74 138.5 q-74 51.5 -194 51.5 Z" /><glyph glyph-name="" unicode="&#x223;" d="M308 942 q-219 117 -219 353 q0 114 37 221 l412 0 q-20 -110 -20 -199 q0 -118 35 -181.5 q35 -63.5 103 -63.5 q66 0 101 61.5 q35 61.5 35 183.5 q0 89 -20 199 l408 0 q39 -110 39 -216 q0 -114 -57 -205 q-57 -91 -169 -153 q248 -145 248 -435 q0 -159 -72 -280.5 q-72 -121.5 -208 -186.5 q-136 -65 -317 -65 q-274 0 -430.5 139.5 q-156.5 139.5 -156.5 388.5 q0 286 251 439 ZM809 528 q0 103 -41 156 q-41 53 -117 53 q-78 0 -120 -56.5 q-42 -56.5 -42 -162.5 q0 -231 162 -231 q158 0 158 241 Z" /><glyph glyph-name="" unicode="&#x224;" d="M616 338 l205 0 q237 0 364.5 -108 q127.5 -108 127.5 -306 q0 -154 -56 -272 l-362 0 q16 44 25.5 82 q9.5 38 9.5 88 q0 92 -53 135 q-53 43 -163 43 l-653 0 l0 303 l662 793 l-621 0 l0 338 l1141 0 l0 -301 l-627 -795 Z" /><glyph glyph-name="" unicode="&#x225;" d="M666 296 q204 0 309.5 -93.5 q105.5 -93.5 105.5 -270.5 q0 -131 -49 -241 l-326 0 q35 88 35 151 q0 158 -195 158 l-521 0 l0 197 l460 532 l-417 0 l0 295 l929 0 l0 -242 l-412 -486 l81 0 Z" /><glyph glyph-name="" unicode="&#x250;" d="M479 1024 l0 -156 l4 0 q102 181 312 181 q145 0 227 -86 q82 -86 82 -230 q0 -302 -371 -350 l-254 -33 q0 -50 45 -82 q45 -32 121 -32 q172 0 363 98 l0 -277 q-83 -36 -208 -59 q-125 -23 -214 -23 q-261 0 -378.5 111.5 q-117.5 111.5 -117.5 372.5 l0 565 l389 0 ZM731 676 q0 42 -26.5 69 q-26.5 27 -75.5 27 q-67 0 -108.5 -50 q-41.5 -50 -41.5 -128 l0 -39 l144 20 q108 18 108 101 Z" /><glyph glyph-name="" unicode="&#x251;" d="M786 0 l0 117 l-4 0 q-48 -64 -129.5 -103 q-81.5 -39 -167.5 -39 q-127 0 -223.5 60 q-96.5 60 -150.5 174.5 q-54 114.5 -54 282.5 q0 166 60 293 q60 127 167 195.5 q107 68.5 236 68.5 q175 0 262 -131 l4 0 l0 106 l426 0 l0 -1024 l-426 0 ZM795 539 q0 93 -40.5 145.5 q-40.5 52.5 -107.5 52.5 q-70 0 -114 -64 q-44 -64 -44 -171 q0 -99 37 -157 q37 -58 111 -58 q74 0 116 58 q42 58 42 161 l0 33 Z" /><glyph glyph-name="" unicode="&#x252;" d="M1257 543 q0 -168 -57 -297 q-57 -129 -161 -200 q-104 -71 -234 -71 q-180 0 -273 131 l-4 0 l0 -106 l-426 0 l0 1024 l426 0 l0 -139 l4 0 q51 77 132 120.5 q81 43.5 184 43.5 q198 0 303.5 -132 q105.5 -132 105.5 -374 ZM825 530 q0 97 -37.5 152 q-37.5 55 -115.5 55 q-68 0 -110 -58 q-42 -58 -42 -159 l0 -20 q0 -97 36 -155 q36 -58 108 -58 q77 0 119 63.5 q42 63.5 42 179.5 Z" /><glyph glyph-name="" unicode="&#x253;" d="M913 1200 q-101 29 -181 29 q-100 0 -152 -54 q-52 -54 -52 -151 l0 -139 l4 0 q50 76 135.5 120 q85.5 44 188.5 44 q194 0 297.5 -129 q103.5 -129 103.5 -377 q0 -168 -55.5 -297.5 q-55.5 -129.5 -157.5 -200 q-102 -70.5 -231 -70.5 q-186 0 -281 131 l-4 0 l0 -106 l-426 0 l0 1043 q0 497 528 497 q143 0 283 -27 l0 -313 ZM825 530 q0 103 -39.5 155 q-39.5 52 -113.5 52 q-65 0 -108.5 -54.5 q-43.5 -54.5 -43.5 -141.5 l0 -62 q0 -88 39 -140 q39 -52 105 -52 q77 0 119 63.5 q42 63.5 42 179.5 Z" /><glyph glyph-name="" unicode="&#x254;" d="M68 995 q41 24 129 39 q88 15 203 15 q162 0 289.5 -65.5 q127.5 -65.5 197.5 -183.5 q70 -118 70 -265 q0 -176 -74.5 -301.5 q-74.5 -125.5 -212.5 -192 q-138 -66.5 -320 -66.5 q-100 0 -179.5 13 q-79.5 13 -102.5 30 l0 332 q32 -25 92 -44 q60 -19 111 -19 q125 0 189.5 59.5 q64.5 59.5 64.5 167.5 q0 106 -63.5 164.5 q-63.5 58.5 -174.5 58.5 q-119 0 -219 -57 l0 315 Z" /><glyph glyph-name="" unicode="&#x255;" d="M436 3 q-20 -69 -24 -144 l-222 0 q8 120 51 237 q-184 156 -184 393 q0 261 161 410.5 q161 149.5 446 149.5 q175 0 282 -43 l0 -332 q-40 29 -96.5 46 q-56.5 17 -106.5 17 q-128 0 -191 -61 q-63 -61 -63 -168 q0 -49 14 -87 q102 87 232 87 q128 0 213.5 -70.5 q85.5 -70.5 85.5 -179.5 q0 -123 -108.5 -203 q-108.5 -80 -282.5 -80 q-131 0 -207 28 ZM599 251 q44 -42 119 -42 q36 0 62.5 13 q26.5 13 26.5 40 q0 45 -76 45 q-78 0 -132 -56 Z" /><glyph glyph-name="" unicode="&#x256;" d="M786 -104 l0 223 l-4 0 q-51 -67 -133 -105.5 q-82 -38.5 -162 -38.5 q-131 0 -231 64.5 q-100 64.5 -149.5 180.5 q-49.5 116 -49.5 274 q0 163 59 289 q59 126 166 196 q107 70 240 70 q63 0 116.5 -18 q53.5 -18 93 -48.5 q39.5 -30.5 50.5 -60.5 l4 0 l0 594 l426 0 l0 -1538 q0 -135 88 -135 q41 0 93 25 l0 -310 q-78 -39 -228 -39 q-178 0 -278.5 98 q-100.5 98 -100.5 279 ZM795 543 q0 92 -40.5 143 q-40.5 51 -109.5 51 q-69 0 -112.5 -63.5 q-43.5 -63.5 -43.5 -169.5 q0 -217 150 -217 q71 0 113.5 58.5 q42.5 58.5 42.5 170.5 l0 27 Z" /><glyph glyph-name="" unicode="&#x257;" d="M786 1165 q0 180 100.5 278.5 q100.5 98.5 278.5 98.5 q127 0 228 -39 l0 -310 q-52 25 -93 25 q-88 0 -88 -135 l0 -1083 l-426 0 l0 119 l-4 0 q-51 -67 -133 -105.5 q-82 -38.5 -162 -38.5 q-131 0 -231 64.5 q-100 64.5 -149.5 180.5 q-49.5 116 -49.5 274 q0 163 59 289 q59 126 166 196 q107 70 240 70 q61 0 114.5 -17.5 q53.5 -17.5 93.5 -48 q40 -30.5 52 -61.5 l4 0 l0 243 ZM795 543 q0 92 -40.5 143 q-40.5 51 -109.5 51 q-69 0 -112.5 -63.5 q-43.5 -63.5 -43.5 -169.5 q0 -217 150 -217 q72 0 114 58.5 q42 58.5 42 170.5 l0 27 Z" /><glyph glyph-name="" unicode="&#x258;" d="M45 391 l0 160 q0 150 58 261.5 q58 111.5 170.5 174 q112.5 62.5 273.5 62.5 q165 0 291.5 -69 q126.5 -69 189 -188 q62.5 -119 62.5 -280 q0 -249 -151 -393 q-151 -144 -415 -144 q-221 0 -376 62 l0 270 q133 -57 282 -57 q106 0 171.5 37.5 q65.5 37.5 76.5 103.5 l-633 0 ZM680 614 q-6 79 -41.5 128 q-35.5 49 -89.5 49 q-127 0 -127 -177 l258 0 Z" /><glyph glyph-name="" unicode="&#x25a;" d="M606 734 q-44 24 -86 32 q-42 8 -90 8 q-149 0 -282 -57 l0 270 q155 62 376 62 q262 0 411 -132 l237 132 l27 -86 q19 -60 45.5 -88.5 q26.5 -28.5 68.5 -28.5 q42 0 84 21 l0 -198 q-56 -26 -126 -26 q-137 0 -194 109 l-22 -12 q35 -94 35 -205 q0 -165 -65.5 -291 q-65.5 -126 -194 -197.5 q-128.5 -71.5 -283.5 -71.5 q-219 0 -343.5 108.5 q-124.5 108.5 -158.5 345.5 l561 305 ZM422 392 q23 -159 127 -159 q65 0 100 66 q35 66 35 183 l0 16 l-4 37 l-258 -143 Z" /><glyph glyph-name="" unicode="&#x25b;" d="M941 23 q-165 -48 -402 -48 q-236 0 -356.5 73.5 q-120.5 73.5 -120.5 217.5 q0 102 56 168 q56 66 159 94 l0 4 q-83 24 -130.5 86 q-47.5 62 -47.5 148 q0 138 119.5 210.5 q119.5 72.5 347.5 72.5 q171 0 332 -39 l0 -265 l-62 19 q-91 27 -178 27 q-57 0 -92 -19.5 q-35 -19.5 -35 -56.5 q0 -86 160 -86 l162 0 l0 -223 l-197 0 q-74 0 -118 -20 q-44 -20 -44 -62 q0 -91 166 -91 q78 0 147 18 q69 18 134 40 l0 -268 Z" /><glyph glyph-name="" unicode="&#x25d;" d="M993 299 q0 -117 -64 -184.5 q-64 -67.5 -191 -100 q-127 -32.5 -316 -32.5 q-173 0 -340 47 l0 264 q150 -57 280 -57 q102 0 145.5 18.5 q43.5 18.5 43.5 62.5 q0 52 -38.5 72.5 q-38.5 20.5 -145.5 20.5 l-197 0 l0 227 l201 0 q87 0 122 20 q35 20 35 68 q0 40 -37 57 q-37 17 -122 17 q-119 0 -248 -45 l0 247 q180 48 348 48 q193 0 309.5 -33.5 q116.5 -33.5 162.5 -113.5 l163 147 l27 -86 q19 -60 45.5 -88.5 q26.5 -28.5 68.5 -28.5 q42 0 84 21 l0 -198 q-56 -26 -126 -26 q-122 0 -179 89 l-86 -78 q-100 -92 -229 -119 l0 -3 q136 -10 210 -71.5 q74 -61.5 74 -161.5 Z" /><glyph glyph-name="" unicode="&#x25e;" d="M996 535 l0 -3 q143 -11 213.5 -74.5 q70.5 -63.5 70.5 -158.5 q0 -159 -155 -241.5 q-155 -82.5 -430 -82.5 q-307 0 -472.5 140 q-165.5 140 -165.5 403 q0 254 169 392.5 q169 138.5 474 138.5 q267 0 412.5 -72 q145.5 -72 145.5 -210 q0 -94 -67.5 -153 q-67.5 -59 -194.5 -79 ZM645 410 l0 227 l24 0 q78 0 112 20.5 q34 20.5 34 67.5 q0 74 -108 74 q-99 0 -158.5 -75 q-59.5 -75 -59.5 -212 q0 -135 57 -205.5 q57 -70.5 168 -70.5 q55 0 89.5 22 q34.5 22 34.5 59 q0 36 -16.5 55.5 q-16.5 19.5 -47.5 28.5 q-31 9 -122 9 l-7 0 Z" /><glyph glyph-name="" unicode="&#x25f;" d="M559 -10 q0 -135 -53 -246.5 q-53 -111.5 -156 -168 q-103 -56.5 -245 -56.5 q-78 0 -170 30 l0 312 q56 -31 102 -31 q53 0 74.5 35.5 q21.5 35.5 21.5 107.5 l0 394 l-133 0 l0 278 l133 0 l0 379 l426 0 l0 -379 l133 0 l0 -278 l-133 0 l0 -377 Z" /><glyph glyph-name="" unicode="&#x260;" d="M1212 143 q0 -300 -188.5 -462 q-188.5 -162 -538.5 -162 q-93 0 -181.5 14.5 q-88.5 14.5 -133.5 34.5 l0 334 q59 -36 144.5 -62 q85.5 -26 158.5 -26 q143 0 229 69 q86 69 86 183 l0 63 l-4 0 q-46 -70 -126.5 -112 q-80.5 -42 -172.5 -42 q-198 0 -313 137.5 q-115 137.5 -115 379.5 q0 166 60 293 q60 127 167 195.5 q107 68.5 236 68.5 q177 0 264 -131 l4 0 l0 247 q0 179 98.5 278 q98.5 99 278.5 99 q127 0 228 -39 l0 -310 q-52 25 -93 25 q-88 0 -88 -135 l0 -940 ZM795 541 q0 90 -40.5 143 q-40.5 53 -107.5 53 q-72 0 -115 -64 q-43 -64 -43 -171 q0 -215 150 -215 q73 0 114.5 59.5 q41.5 59.5 41.5 159.5 l0 35 Z" /><glyph glyph-name="" unicode="&#x262;" d="M1202 61 q-229 -86 -522 -86 q-291 0 -457 136 q-166 136 -166 378 q0 272 170.5 416 q170.5 144 497.5 144 q189 0 385 -39 l0 -325 q-172 55 -350 55 q-129 0 -200 -63 q-71 -63 -71 -181 q0 -118 62 -182 q62 -64 174 -64 q32 0 57 5 l0 130 l-163 0 l0 233 l583 0 l0 -557 Z" /><glyph glyph-name="" unicode="&#x263;" d="M800 1024 l448 0 l-408 -797 l50 -82 q56 -91 83 -165 q27 -74 27 -151 q0 -146 -100.5 -228 q-100.5 -82 -275.5 -82 q-175 0 -275.5 82 q-100.5 82 -100.5 228 q0 75 26 148 q26 73 84 168 l50 82 l-408 797 l448 0 l176 -428 l176 428 ZM624 15 q-60 -88 -60 -144 q0 -76 60 -76 q60 0 60 76 q0 56 -60 144 Z" /><glyph glyph-name="" unicode="&#x264;" d="M1186 704 q-68 33 -156 33 q-102 0 -200 -61 q157 -184 157 -357 q0 -153 -110.5 -248.5 q-110.5 -95.5 -292.5 -95.5 q-183 0 -284 91.5 q-101 91.5 -101 246.5 q0 179 155 364 q-38 27 -87.5 43.5 q-49.5 16.5 -98.5 16.5 q-96 0 -168 -35 l0 312 q90 35 205 35 q108 0 197 -37.5 q89 -37.5 192 -132.5 q99 92 189 131 q90 39 198 39 q122 0 205 -33 l0 -312 ZM594 483 q-79 -75 -79 -146 q0 -38 23 -62 q23 -24 58 -24 q35 0 55.5 24 q20.5 24 20.5 61 q0 73 -78 147 Z" /><glyph glyph-name="" unicode="&#x265;" d="M754 -471 l0 629 l-4 0 q-53 -73 -95.5 -107 q-42.5 -34 -96 -55 q-53.5 -21 -124.5 -21 q-168 0 -256 109 q-88 109 -88 322 l0 618 l426 0 l0 -586 q0 -151 113 -151 q62 0 93.5 41 q31.5 41 31.5 116 l0 580 l426 0 l0 -1495 l-426 0 Z" /><glyph glyph-name="" unicode="&#x266;" d="M762 0 l0 584 q0 153 -117 153 q-57 0 -87 -43 q-30 -43 -30 -112 l0 -582 l-426 0 l0 1043 q0 497 528 497 q143 0 283 -27 l0 -313 q-101 29 -181 29 q-100 0 -152 -54 q-52 -54 -52 -151 l0 -139 l4 0 q55 79 133.5 121.5 q78.5 42.5 168.5 42.5 q166 0 253 -106.5 q87 -106.5 87 -313.5 l0 -629 l-412 0 Z" /><glyph glyph-name="" unicode="&#x267;" d="M762 584 q0 153 -117 153 q-57 0 -87 -43 q-30 -43 -30 -112 l0 -582 l-426 0 l0 1043 q0 497 528 497 q143 0 283 -27 l0 -313 q-101 29 -181 29 q-100 0 -152 -54 q-52 -54 -52 -151 l0 -139 l4 0 q55 79 133.5 121.5 q78.5 42.5 168.5 42.5 q166 0 253 -106.5 q87 -106.5 87 -313.5 l0 -664 q0 -213 -115 -329.5 q-115 -116.5 -325 -116.5 q-78 0 -170 30 l0 312 q56 -31 102 -31 q54 0 75 35.5 q21 35.5 21 107.5 l0 611 Z" /><glyph glyph-name="" unicode="&#x268;" d="M133 0 l0 367 l-133 0 l0 278 l133 0 l0 379 l426 0 l0 -379 l133 0 l0 -278 l-133 0 l0 -367 l-426 0 ZM584 1300 q0 -90 -65.5 -146 q-65.5 -56 -172.5 -56 q-104 0 -170.5 58 q-66.5 58 -66.5 144 q0 88 64.5 142.5 q64.5 54.5 172.5 54.5 q107 0 172.5 -54.5 q65.5 -54.5 65.5 -142.5 Z" /><glyph glyph-name="" unicode="&#x26a;" d="M793 0 l-762 0 l0 295 l172 0 l0 434 l-172 0 l0 295 l762 0 l0 -295 l-172 0 l0 -434 l172 0 l0 -295 Z" /><glyph glyph-name="" unicode="&#x26b;" d="M712 833 q91 0 165 49 l0 -270 q-71 -41 -173 -41 l-53 4 l0 -575 l-426 0 l0 670 q-35 7 -62 7 q-90 0 -163 -49 l0 272 q71 38 171 38 q31 0 54 -4 l0 582 l426 0 l0 -676 q41 -7 61 -7 Z" /><glyph glyph-name="" unicode="&#x26c;" d="M931 615 l-133 0 l0 -615 l-426 0 l0 615 l-36 0 q-158 0 -252 73 q-94 73 -94 199 q0 114 65.5 182.5 q65.5 68.5 169.5 68.5 q86 0 147 -56 l0 434 l426 0 l0 -623 l133 0 l0 -278 ZM372 850 q-27 88 -92 88 q-45 0 -45 -41 q0 -47 100 -47 l37 0 Z" /><glyph glyph-name="" unicode="&#x26d;" d="M709 -442 q-78 -39 -228 -39 q-178 0 -278.5 98 q-100.5 98 -100.5 279 l0 1620 l426 0 l0 -1538 q0 -135 88 -135 q41 0 93 25 l0 -310 Z" /><glyph glyph-name="" unicode="&#x26e;" d="M102 0 l0 1516 l426 0 l0 -492 l919 0 l0 -242 l-274 -312 q173 -52 262 -160.5 q89 -108.5 89 -270.5 q0 -239 -167 -379.5 q-167 -140.5 -457 -140.5 q-114 0 -198.5 12 q-84.5 12 -173.5 43 l0 330 q95 -44 162 -59 q67 -15 144 -15 q258 0 258 209 q0 97 -69 155 q-69 58 -196 58 l-156 0 l0 172 l274 305 l-417 0 l0 -729 l-426 0 Z" /><glyph glyph-name="" unicode="&#x26f;" d="M516 1024 l0 -590 q0 -74 26.5 -110.5 q26.5 -36.5 86.5 -36.5 q59 0 92 44.5 q33 44.5 33 123.5 l0 569 l426 0 l0 -580 q0 -157 107 -157 q65 0 98 45.5 q33 45.5 33 130.5 l0 561 l426 0 l0 -1024 l-426 0 l0 162 l-4 0 q-24 -43 -76.5 -87.5 q-52.5 -44.5 -118.5 -72 q-66 -27.5 -143 -27.5 q-109 0 -183.5 43 q-74.5 43 -124.5 136 q-54 -86 -144 -132.5 q-90 -46.5 -200 -46.5 q-161 0 -247 105 q-86 105 -86 303 l0 641 l425 0 Z" /><glyph glyph-name="" unicode="&#x270;" d="M516 1024 l0 -590 q0 -74 26.5 -110.5 q26.5 -36.5 86.5 -36.5 q59 0 92 44.5 q33 44.5 33 123.5 l0 569 l426 0 l0 -580 q0 -157 107 -157 q65 0 98 45.5 q33 45.5 33 130.5 l0 561 l426 0 l0 -1495 l-426 0 l0 633 l-4 0 q-24 -43 -76.5 -87.5 q-52.5 -44.5 -118.5 -72 q-66 -27.5 -143 -27.5 q-109 0 -183.5 43 q-74.5 43 -124.5 136 q-54 -86 -144 -132.5 q-90 -46.5 -200 -46.5 q-161 0 -247 105 q-86 105 -86 303 l0 641 l425 0 Z" /><glyph glyph-name="" unicode="&#x271;" d="M1430 590 q0 75 -26.5 111 q-26.5 36 -86.5 36 q-60 0 -92.5 -44.5 q-32.5 -44.5 -32.5 -123.5 l0 -569 l-426 0 l0 580 q0 157 -107 157 q-131 0 -131 -176 l0 -561 l-426 0 l0 1024 l426 0 l0 -162 l4 0 q22 41 75.5 86.5 q53.5 45.5 119.5 73 q66 27.5 143 27.5 q109 0 183.5 -43 q74.5 -43 124.5 -136 q54 86 144 132.5 q90 46.5 200 46.5 q161 0 247 -105 q86 -105 86 -303 l0 -676 q0 -214 -118 -330 q-118 -116 -334 -116 q-78 0 -170 30 l0 312 q56 -31 102 -31 q54 0 74.5 35.5 q20.5 35.5 20.5 107.5 l0 617 Z" /><glyph glyph-name="" unicode="&#x272;" d="M766 0 l0 559 q0 95 -28.5 136.5 q-28.5 41.5 -92.5 41.5 q-55 0 -86 -43 q-31 -43 -31 -110 l0 -614 q0 -127 -55.5 -235.5 q-55.5 -108.5 -158.5 -162 q-103 -53.5 -240 -53.5 q-78 0 -170 30 l0 312 q56 -31 102 -31 q54 0 75 35.5 q21 35.5 21 107.5 l0 1051 l426 0 l0 -160 l4 0 q51 88 137 136.5 q86 48.5 187 48.5 q336 0 336 -424 l0 -625 l-426 0 Z" /><glyph glyph-name="" unicode="&#x273;" d="M1192 -22 q0 -135 88 -135 q41 0 93 25 l0 -310 q-78 -39 -228 -39 q-178 0 -278.5 98 q-100.5 98 -100.5 279 l0 663 q0 95 -28.5 136.5 q-28.5 41.5 -92.5 41.5 q-55 0 -86 -43 q-31 -43 -31 -110 l0 -584 l-426 0 l0 1024 l426 0 l0 -160 l4 0 q51 88 137 136.5 q86 48.5 187 48.5 q336 0 336 -424 l0 -647 Z" /><glyph glyph-name="" unicode="&#x274;" d="M102 0 l0 1024 l401 0 l271 -397 q48 -69 75 -127 l0 524 l392 0 l0 -1024 l-377 0 l-291 416 q-43 64 -82 139 l0 -555 l-389 0 Z" /><glyph glyph-name="" unicode="&#x276;" d="M848 0 q-100 -25 -201 -25 q-279 0 -434.5 144.5 q-155.5 144.5 -155.5 398.5 q0 163 73 283 q73 120 208 184 q135 64 311 64 q101 0 193 -25 l659 0 l0 -250 l-342 0 l0 -143 l322 0 l0 -238 l-322 0 l0 -143 l365 0 l0 -250 l-676 0 ZM651 287 q49 0 82 12 l0 424 q-30 14 -84 14 q-160 0 -160 -219 q0 -231 162 -231 Z" /><glyph glyph-name="" unicode="&#x277;" d="M861 154 l-6 0 q-69 -98 -151.5 -138.5 q-82.5 -40.5 -202.5 -40.5 q-198 0 -321 127.5 q-123 127.5 -123 340.5 q0 186 98 323.5 q98 137.5 284.5 210 q186.5 72.5 437.5 72.5 q372 0 580.5 -155.5 q208.5 -155.5 208.5 -439.5 q0 -232 -118.5 -355.5 q-118.5 -123.5 -347.5 -123.5 q-117 0 -198.5 42 q-81.5 42 -140.5 137 ZM669 551 l385 0 l0 -76 q0 -188 115 -188 q111 0 111 153 q0 297 -419 297 q-205 0 -311 -75 q-106 -75 -106 -216 q0 -159 113 -159 q112 0 112 188 l0 76 Z" /><glyph glyph-name="" unicode="&#x279;" d="M21 365 q24 -11 65 -20 q41 -9 68 -9 q211 0 211 244 l0 444 l426 0 l0 -1024 l-426 0 l0 180 l-4 0 q-39 -97 -111 -147.5 q-72 -50.5 -168 -50.5 q-35 0 -61 12 l0 371 Z" /><glyph glyph-name="" unicode="&#x27a;" d="M21 365 q24 -11 65 -20 q41 -9 68 -9 q211 0 211 244 l0 936 l426 0 l0 -1516 l-426 0 l0 180 l-4 0 q-39 -97 -111 -147.5 q-72 -50.5 -168 -50.5 q-35 0 -61 12 l0 371 Z" /><glyph glyph-name="" unicode="&#x27b;" d="M972 -442 q-78 -39 -228 -39 q-178 0 -278.5 98 q-100.5 98 -100.5 279 l0 284 l-4 0 q-39 -97 -111 -147.5 q-72 -50.5 -168 -50.5 q-35 0 -61 12 l0 371 q24 -11 65 -20 q41 -9 68 -9 q211 0 211 244 l0 444 l426 0 l0 -1046 q0 -135 88 -135 q41 0 93 25 l0 -310 Z" /><glyph glyph-name="" unicode="&#x27c;" d="M872 659 q-24 11 -65 20 q-41 9 -68 9 q-211 0 -211 -244 l0 -915 l-426 0 l0 1495 l426 0 l0 -180 l4 0 q39 97 111 147.5 q72 50.5 168 50.5 q35 0 61 -12 l0 -371 Z" /><glyph glyph-name="" unicode="&#x27d;" d="M872 659 q-24 11 -65 20 q-41 9 -68 9 q-211 0 -211 -244 l0 -466 q0 -135 88 -135 q41 0 93 25 l0 -310 q-78 -39 -228 -39 q-178 0 -278.5 98 q-100.5 98 -100.5 279 l0 1128 l426 0 l0 -180 l4 0 q39 97 111 147.5 q72 50.5 168 50.5 q35 0 61 -12 l0 -371 Z" /><glyph glyph-name="" unicode="&#x27e;" d="M748 700 q-52 25 -93 25 q-88 0 -88 -135 l0 -590 l-426 0 l0 672 q0 180 100.5 278.5 q100.5 98.5 278.5 98.5 q150 0 228 -39 l0 -310 Z" /><glyph glyph-name="" unicode="&#x27f;" d="M24 1010 q78 39 228 39 q178 0 278.5 -98 q100.5 -98 100.5 -279 l0 -672 l-426 0 l0 590 q0 135 -88 135 q-41 0 -93 -25 l0 310 Z" /><glyph glyph-name="" unicode="&#x280;" d="M102 0 l0 1024 l570 0 q241 0 361 -73 q120 -73 120 -226 q0 -116 -65.5 -178.5 q-65.5 -62.5 -196.5 -87.5 q87 -22 143.5 -69.5 q56.5 -47.5 93.5 -133.5 l113 -256 l-465 0 l-78 211 q-27 77 -62 108 q-35 31 -83 31 l-25 0 l0 -350 l-426 0 ZM528 571 l54 0 q147 0 147 107 q0 51 -31 77.5 q-31 26.5 -112 26.5 l-58 0 l0 -211 Z" /><glyph glyph-name="" unicode="&#x281;" d="M528 1024 l0 -350 l25 0 q48 0 83 31 q35 31 62 108 l78 211 l465 0 l-113 -256 q-38 -87 -94 -134 q-56 -47 -143 -69 q131 -25 196.5 -87.5 q65.5 -62.5 65.5 -178.5 q0 -153 -120 -226 q-120 -73 -361 -73 l-570 0 l0 1024 l426 0 ZM528 242 l58 0 q81 0 112 26.5 q31 26.5 31 77.5 q0 107 -147 107 l-54 0 l0 -211 Z" /><glyph glyph-name="" unicode="&#x282;" d="M934 340 q0 -174 -132.5 -269.5 q-132.5 -95.5 -369.5 -95.5 l-20 0 l0 -4 q0 -80 30.5 -113.5 q30.5 -33.5 88.5 -33.5 q49 0 117 32 l0 -243 q-83 -31 -172 -31 q-196 0 -288 94.5 q-92 94.5 -92 297.5 l0 348 q189 -84 316 -84 q125 0 125 65 q0 27 -29 44.5 q-29 17.5 -152 58.5 q-139 44 -199.5 115.5 q-60.5 71.5 -60.5 183.5 q0 159 126.5 251.5 q126.5 92.5 355.5 92.5 q134 0 284 -39 l0 -287 q-70 30 -142.5 46.5 q-72.5 16.5 -121.5 16.5 q-42 0 -67 -14 q-25 -14 -25 -39 q0 -29 27 -47 q27 -18 108 -43 q157 -46 225 -118 q68 -72 68 -185 Z" /><glyph glyph-name="" unicode="&#x283;" d="M848 1206 q-66 23 -123 23 q-72 0 -106 -36.5 q-34 -36.5 -34 -98.5 l0 -1168 q0 -125 -58 -220.5 q-58 -95.5 -168.5 -148.5 q-110.5 -53 -268.5 -53 q-40 0 -98 6.5 q-58 6.5 -95 16.5 l0 311 q63 -22 123 -22 q71 0 105 36.5 q34 36.5 34 98.5 l0 1167 q0 125 58 220.5 q58 95.5 168.5 148.5 q110.5 53 269.5 53 q114 0 193 -22 l0 -312 Z" /><glyph glyph-name="" unicode="&#x284;" d="M848 1206 q-66 23 -123 23 q-140 0 -140 -135 l0 -425 l133 0 l0 -278 l-133 0 l0 -465 q0 -128 -57 -222.5 q-57 -94.5 -167 -147 q-110 -52.5 -271 -52.5 q-40 0 -98 6.5 q-58 6.5 -95 16.5 l0 311 q63 -22 123 -22 q139 0 139 135 l0 440 l-133 0 l0 278 l133 0 l0 449 q0 125 58 220.5 q58 95.5 168.5 148.5 q110.5 53 269.5 53 q114 0 193 -22 l0 -312 Z" /><glyph glyph-name="" unicode="&#x285;" d="M-40 1501 q78 39 228 39 q178 0 278.5 -98.5 q100.5 -98.5 100.5 -278.5 l0 -729 q0 -135 88 -135 q41 0 93 25 l0 -310 q-78 -39 -228 -39 q-178 0 -278.5 98 q-100.5 98 -100.5 279 l0 729 q0 135 -88 135 q-41 0 -93 -25 l0 310 Z" /><glyph glyph-name="" unicode="&#x286;" d="M845 1206 q-66 23 -123 23 q-140 0 -140 -135 l0 -1094 q0 -65 -20 -133 l149 -98 l0 -250 q-128 100 -245 176 q-162 -176 -443 -176 q-163 0 -257 72.5 q-94 72.5 -94 201.5 q0 126 95.5 203.5 q95.5 77.5 248.5 77.5 q67 0 140 -18 l0 1062 q0 125 58 220.5 q58 95.5 168.5 148.5 q110.5 53 269.5 53 q114 0 193 -22 l0 -312 ZM14 -127 q-104 0 -104 -67 q0 -27 20.5 -42.5 q20.5 -15.5 54.5 -15.5 q53 0 91 31.5 q38 31.5 53 77.5 q-64 16 -115 16 Z" /><glyph glyph-name="" unicode="&#x287;" d="M29 1010 q29 14 95 26.5 q66 12.5 159 12.5 q178 0 278.5 -98 q100.5 -98 100.5 -279 l0 -377 l161 0 l0 -295 l-161 0 l0 -201 l-420 -116 l0 317 l-213 0 l0 295 l213 0 l0 307 q0 135 -107 135 q-50 0 -106 -22 l0 295 Z" /><glyph glyph-name="" unicode="&#x288;" d="M823 -442 q-29 -14 -95 -26.5 q-66 -12.5 -159 -12.5 q-178 0 -278.5 98 q-100.5 98 -100.5 279 l0 833 l-161 0 l0 295 l161 0 l0 201 l420 116 l0 -317 l213 0 l0 -295 l-213 0 l0 -763 q0 -135 107 -135 q50 0 106 22 l0 -295 Z" /><glyph glyph-name="" unicode="&#x289;" d="M754 0 l0 158 l-4 0 q-53 -73 -95.5 -107 q-42.5 -34 -96 -55 q-53.5 -21 -124.5 -21 q-168 0 -256 109 q-88 109 -88 322 l0 16 l-133 0 l0 278 l133 0 l0 324 l426 0 l0 -324 l238 0 l0 324 l426 0 l0 -324 l133 0 l0 -278 l-133 0 l0 -422 l-426 0 ZM629 287 q58 0 89 36.5 q31 36.5 35 98.5 l-237 0 q6 -135 113 -135 Z" /><glyph glyph-name="" unicode="&#x28a;" d="M1158 737 q100 -126 100 -305 q0 -209 -161 -333 q-161 -124 -438 -124 q-275 0 -429 122.5 q-154 122.5 -154 334.5 q0 179 100 305 l-145 0 l0 287 l583 0 l0 -233 q-63 -75 -85 -139.5 q-22 -64.5 -22 -143.5 q0 -100 39 -160.5 q39 -60.5 119 -60.5 q80 0 121 57 q41 57 41 164 q0 80 -22.5 144.5 q-22.5 64.5 -84.5 138.5 l0 233 l583 0 l0 -287 l-145 0 Z" /><glyph glyph-name="" unicode="&#x28b;" d="M90 1024 l426 0 l0 -568 q0 -91 28.5 -130 q28.5 -39 92.5 -39 q148 0 148 241 q0 209 -93 209 q-26 0 -56 -11 l0 302 q71 21 178 21 q198 0 300.5 -130 q102.5 -130 102.5 -389 q0 -257 -154 -406 q-154 -149 -412 -149 q-286 0 -423.5 120 q-137.5 120 -137.5 374 l0 555 Z" /><glyph glyph-name="" unicode="&#x28c;" d="M356 1024 l506 0 l342 -1024 l-444 0 l-125 559 q-30 135 -33 203 l-6 0 q-2 -20 -5.5 -41 q-3.5 -21 -148.5 -721 l-442 0 l356 1024 Z" /><glyph glyph-name="" unicode="&#x28d;" d="M300 1024 l443 0 l102 -498 q19 -90 19 -159 l6 0 q11 106 22 153 l111 504 l442 0 l271 -1024 l-428 0 l-88 596 l-15 133 l-6 0 q-13 -117 -18 -137 l-131 -592 l-406 0 l-113 592 l-8 72 l-6 63 l-6 0 l-3 -29 l-91 -698 l-383 0 l286 1024 Z" /><glyph glyph-name="" unicode="&#x28e;" d="M875 1505 q60 0 129 -10.5 q69 -10.5 123 -30.5 l0 -321 q-25 19 -74.5 35 q-49.5 16 -93.5 16 q-119 0 -158 -94 l-33 -80 l428 -1020 l-471 0 l-124 494 q-36 138 -39 186 l-4 0 q-3 -22 -8.5 -49 q-5.5 -27 -155.5 -631 l-414 0 l377 1053 q85 242 210.5 347 q125.5 105 307.5 105 Z" /><glyph glyph-name="" unicode="&#x28f;" d="M1102 1024 l-349 -688 l0 -336 l-426 0 l0 336 l-347 688 l442 0 q97 -284 108 -324.5 q11 -40.5 17 -81.5 l4 0 q13 78 42 163 l87 243 l422 0 Z" /><glyph glyph-name="" unicode="&#x290;" d="M584 295 l452 0 q-58 -182 -58 -278 q0 -51 22.5 -87.5 q22.5 -36.5 68.5 -36.5 q37 0 75 13 l0 -243 q-60 -12 -113 -12 q-360 0 -360 334 l0 15 l-646 0 l0 197 l460 532 l-417 0 l0 295 l929 0 l0 -242 l-413 -487 Z" /><glyph glyph-name="" unicode="&#x291;" d="M766 0 q-15 -74 -18 -156 l-221 0 q4 72 19 156 l-521 0 l0 197 l346 532 l-303 0 l0 295 l773 0 l0 -241 l-334 -496 l112 0 q60 156 155.5 235.5 q95.5 79.5 221.5 79.5 q132 0 204.5 -74 q72.5 -74 72.5 -206 q0 -152 -97.5 -237 q-97.5 -85 -274.5 -85 l-135 0 ZM848 287 l87 0 q58 0 88 18.5 q30 18.5 30 50.5 q0 56 -62 56 q-43 0 -81.5 -34.5 q-38.5 -34.5 -61.5 -90.5 Z" /><glyph glyph-name="" unicode="&#x292;" d="M102 -90 q92 -42 167 -61 q75 -19 152 -19 q258 0 258 209 q0 97 -69 155 q-69 58 -196 58 l-156 0 l0 172 l274 305 l-417 0 l0 295 l919 0 l0 -242 l-274 -312 q173 -52 262 -160.5 q89 -108.5 89 -270.5 q0 -239 -167 -379.5 q-167 -140.5 -457 -140.5 q-210 0 -385 61 l0 330 Z" /><glyph glyph-name="" unicode="&#x293;" d="M1161 -481 q-113 84 -212 146 q-100 -76 -214.5 -111 q-114.5 -35 -283.5 -35 q-190 0 -299.5 73 q-109.5 73 -109.5 201 q0 128 100.5 204.5 q100.5 76.5 259.5 76.5 q81 0 141 -11 q60 -11 136 -39 l0 12 q0 107 -72 161.5 q-72 54.5 -202 54.5 l-147 0 l0 172 l274 305 l-417 0 l0 295 l919 0 l0 -242 l-274 -312 q351 -108 351 -436 q0 -115 -42 -208 l92 -57 l0 -250 ZM615 -163 q-109 36 -189 36 q-57 0 -85 -17 q-28 -17 -28 -45 q0 -54 113 -54 q123 0 189 80 Z" /><glyph glyph-name="" unicode="&#x294;" d="M943 1115 q0 -96 -34.5 -177.5 q-34.5 -81.5 -136.5 -194.5 q-82 -89 -100.5 -128.5 q-18.5 -39.5 -18.5 -106.5 l0 -508 l-426 0 l0 564 q0 89 28 161 q28 72 106 156 l64 66 q48 48 67 81.5 q19 33.5 19 72.5 q0 38 -32 61 q-32 23 -91 23 q-76 0 -161.5 -29 q-85.5 -29 -163.5 -79 l0 382 q71 35 171 58 q100 23 203 23 q242 0 374 -109 q132 -109 132 -316 Z" /><glyph glyph-name="" unicode="&#x295;" d="M49 1096 q0 213 131.5 328.5 q131.5 115.5 374.5 115.5 q103 0 202.5 -22.5 q99.5 -22.5 171.5 -58.5 l0 -382 q-78 50 -163.5 79 q-85.5 29 -161.5 29 q-59 0 -91 -23 q-32 -23 -32 -61 q0 -38 18.5 -71.5 q18.5 -33.5 67.5 -82.5 q93 -93 128 -143 q35 -50 52.5 -110.5 q17.5 -60.5 17.5 -129.5 l0 -564 l-426 0 l0 508 q0 66 -18.5 106 q-18.5 40 -100.5 129 q-100 111 -135.5 189.5 q-35.5 78.5 -35.5 163.5 Z" /><glyph glyph-name="" unicode="&#x296;" d="M943 400 q0 -208 -132.5 -316.5 q-132.5 -108.5 -373.5 -108.5 q-103 0 -203 22.5 q-100 22.5 -171 58.5 l0 382 q78 -50 163.5 -79 q85.5 -29 161.5 -29 q59 0 91 23 q32 23 32 61 q0 38 -18.5 71.5 q-18.5 33.5 -67.5 82.5 q-93 93 -128 143 q-35 50 -52.5 110.5 q-17.5 60.5 -17.5 129.5 l0 565 l426 0 l0 -509 q0 -66 18.5 -106 q18.5 -40 100.5 -129 q102 -112 136.5 -194.5 q34.5 -82.5 34.5 -177.5 Z" /><glyph glyph-name="" unicode="&#x297;" d="M946 -427 q-30 -18 -111 -36 q-81 -18 -221 -18 q-264 0 -410.5 191 q-146.5 191 -146.5 541 q0 390 157 594 q157 204 450 204 q76 0 140 -8.5 q64 -8.5 142 -34.5 l0 -332 q-41 26 -95.5 44.5 q-54.5 18.5 -107.5 18.5 q-254 0 -254 -457 q0 -449 257 -449 q100 0 200 57 l0 -315 Z" /><glyph glyph-name="" unicode="&#x298;" d="M1390 784 q0 -386 -176 -597.5 q-176 -211.5 -497 -211.5 q-317 0 -492.5 207 q-175.5 207 -175.5 584 q0 238 82.5 412.5 q82.5 174.5 235.5 268 q153 93.5 352 93.5 q313 0 492 -199.5 q179 -199.5 179 -556.5 ZM958 773 q0 213 -64 334 q-64 121 -175 121 q-110 0 -174 -121.5 q-64 -121.5 -64 -336.5 q0 -234 62.5 -358.5 q62.5 -124.5 178.5 -124.5 q110 0 173 126.5 q63 126.5 63 359.5 ZM888 760 q0 -72 -46 -118 q-46 -46 -122 -46 q-75 0 -122 47.5 q-47 47.5 -47 116.5 q0 71 46.5 115 q46.5 44 122.5 44 q77 0 122.5 -44 q45.5 -44 45.5 -115 Z" /><glyph glyph-name="" unicode="&#x29a;" d="M341 535 q-127 20 -194.5 79 q-67.5 59 -67.5 153 q0 139 146 210.5 q146 71.5 412 71.5 q305 0 474 -138.5 q169 -138.5 169 -392.5 q0 -263 -166 -403 q-166 -140 -472 -140 q-277 0 -431 82.5 q-154 82.5 -154 241.5 q0 95 70.5 158.5 q70.5 63.5 213.5 74.5 l0 3 ZM685 410 q-89 0 -120.5 -8.5 q-31.5 -8.5 -48.5 -28 q-17 -19.5 -17 -56.5 q0 -37 35 -59 q35 -22 89 -22 q113 0 169 71.5 q56 71.5 56 204.5 q0 137 -59.5 212 q-59.5 75 -158.5 75 q-108 0 -108 -74 q0 -43 32 -65.5 q32 -22.5 114 -22.5 l24 0 l0 -227 l-7 0 Z" /><glyph glyph-name="" unicode="&#x29b;" d="M725 1049 q84 0 147 -9 q29 99 101.5 153.5 q72.5 54.5 177.5 54.5 q79 0 127 -15 l0 -270 q-38 11 -72 11 q-103 0 -103 -146 q0 -59 16 -142 l-9 -6 q-165 60 -350 60 q-129 0 -200 -63 q-71 -63 -71 -181 q0 -118 62 -182 q62 -64 174 -64 q32 0 57 5 l0 130 l-163 0 l0 233 l583 0 l0 -557 q-229 -86 -522 -86 q-291 0 -457 136 q-166 136 -166 378 q0 272 170.5 416 q170.5 144 497.5 144 Z" /><glyph glyph-name="" unicode="&#x29d;" d="M16 74 q67 0 140 -18 l0 968 l426 0 l0 -1024 q0 -65 -20 -133 l149 -98 l0 -250 q-128 100 -245 176 q-162 -176 -443 -176 q-163 0 -257 72.5 q-94 72.5 -94 201.5 q0 126 95.5 203.5 q95.5 77.5 248.5 77.5 ZM14 -127 q-104 0 -104 -67 q0 -27 20.5 -42.5 q20.5 -15.5 54.5 -15.5 q53 0 91 31.5 q38 31.5 53 77.5 q-64 16 -115 16 ZM607 1300 q0 -90 -65.5 -146 q-65.5 -56 -172.5 -56 q-104 0 -170.5 58 q-66.5 58 -66.5 144 q0 88 64.5 142.5 q64.5 54.5 172.5 54.5 q107 0 172.5 -54.5 q65.5 -54.5 65.5 -142.5 Z" /><glyph glyph-name="" unicode="&#x29e;" d="M454 1024 l228 -526 l4 0 l0 526 l426 0 l0 -1495 l-426 0 l0 952 l-4 0 l-207 -481 l-480 0 l277 469 l-293 555 l475 0 Z" /><glyph glyph-name="" unicode="&#x29f;" d="M906 0 l-804 0 l0 1024 l426 0 l0 -729 l378 0 l0 -295 Z" /><glyph glyph-name="" unicode="&#x2a0;" d="M786 -471 l0 588 l-4 0 q-48 -64 -129.5 -103 q-81.5 -39 -167.5 -39 q-127 0 -223.5 60 q-96.5 60 -150.5 174.5 q-54 114.5 -54 282.5 q0 166 60 293 q60 127 167 195.5 q107 68.5 236 68.5 q175 0 262 -131 l4 0 l0 247 q0 180 100.5 278.5 q100.5 98.5 278.5 98.5 q127 0 228 -39 l0 -310 q-52 25 -93 25 q-88 0 -88 -135 l0 -1554 l-426 0 ZM795 539 q0 93 -40.5 145.5 q-40.5 52.5 -107.5 52.5 q-70 0 -114 -64 q-44 -64 -44 -171 q0 -99 37 -157 q37 -58 111 -58 q74 0 116 58 q42 58 42 161 l0 33 Z" /><glyph glyph-name="" unicode="&#x2a1;" d="M943 1115 q0 -96 -34.5 -177.5 q-34.5 -81.5 -136.5 -194.5 q-70 -75 -91 -110.5 q-21 -35.5 -26 -77.5 l132 0 l0 -278 l-134 0 l0 -277 l-426 0 l0 277 l-133 0 l0 278 l133 0 l0 9 q0 89 28 161 q28 72 106 156 l64 66 q48 48 67 81.5 q19 33.5 19 72.5 q0 38 -32 61 q-32 23 -91 23 q-76 0 -161.5 -29 q-85.5 -29 -163.5 -79 l0 382 q71 35 171 58 q100 23 203 23 q242 0 374 -109 q132 -109 132 -316 Z" /><glyph glyph-name="" unicode="&#x2a2;" d="M49 1096 q0 213 131.5 328.5 q131.5 115.5 374.5 115.5 q103 0 202.5 -22.5 q99.5 -22.5 171.5 -58.5 l0 -382 q-78 50 -163.5 79 q-85.5 29 -161.5 29 q-59 0 -91 -23 q-32 -23 -32 -61 q0 -38 18.5 -71.5 q18.5 -33.5 67.5 -82.5 q93 -93 128 -143 q35 -50 52.5 -110.5 q17.5 -60.5 17.5 -129.5 l0 -9 l133 0 l0 -278 l-133 0 l0 -277 l-426 0 l0 277 l-134 0 l0 278 l131 0 q-4 38 -22.5 71.5 q-18.5 33.5 -93.5 116.5 q-100 111 -135.5 189.5 q-35.5 78.5 -35.5 163.5 Z" /><glyph glyph-name="" unicode="&#x2a3;" d="M786 0 l0 119 l-4 0 q-51 -67 -133 -105.5 q-82 -38.5 -162 -38.5 q-131 0 -231 64.5 q-100 64.5 -149.5 180.5 q-49.5 116 -49.5 274 q0 163 59 289 q59 126 166 196 q107 70 240 70 q63 0 116.5 -18 q53.5 -18 93 -48.5 q39.5 -30.5 50.5 -60.5 l4 0 l0 594 l426 0 l0 -492 l854 0 l0 -242 l-370 -487 l379 0 l0 -295 l-1289 0 ZM795 543 q0 92 -40.5 143 q-40.5 51 -109.5 51 q-69 0 -112.5 -63.5 q-43.5 -63.5 -43.5 -169.5 q0 -217 150 -217 q71 0 113.5 58.5 q42.5 58.5 42.5 170.5 l0 27 ZM1554 729 l-342 0 l0 -442 l342 442 Z" /><glyph glyph-name="" unicode="&#x2a4;" d="M786 0 l0 119 l-4 0 q-51 -67 -133 -105.5 q-82 -38.5 -162 -38.5 q-131 0 -231 64.5 q-100 64.5 -149.5 180.5 q-49.5 116 -49.5 274 q0 163 59 289 q59 126 166 196 q107 70 240 70 q61 0 114.5 -17.5 q53.5 -17.5 93.5 -48 q40 -30.5 52 -61.5 l4 0 l0 594 l426 0 l0 -492 l854 0 l0 -242 l-274 -312 q173 -52 262 -160.5 q89 -108.5 89 -270.5 q0 -239 -167 -379.5 q-167 -140.5 -457 -140.5 q-210 0 -385 61 l0 330 q92 -42 167 -61 q75 -19 152 -19 q258 0 258 209 q0 97 -69 155 q-69 58 -196 58 l-156 0 l0 172 l274 305 l-352 0 l0 -729 l-426 0 ZM795 543 q0 92 -40.5 143 q-40.5 51 -109.5 51 q-69 0 -112.5 -63.5 q-43.5 -63.5 -43.5 -169.5 q0 -217 150 -217 q72 0 114 58.5 q42 58.5 42 170.5 l0 27 Z" /><glyph glyph-name="" unicode="&#x2a5;" d="M786 0 l0 119 l-4 0 q-51 -67 -133 -105.5 q-82 -38.5 -162 -38.5 q-131 0 -231 64.5 q-100 64.5 -149.5 180.5 q-49.5 116 -49.5 274 q0 163 59 289 q59 126 166 196 q107 70 240 70 q61 0 114.5 -17.5 q53.5 -17.5 93.5 -48 q40 -30.5 52 -61.5 l4 0 l0 594 l426 0 l0 -492 l773 0 l0 -241 l-334 -496 l112 0 q60 156 155.5 235.5 q95.5 79.5 221.5 79.5 q132 0 204.5 -74 q72.5 -74 72.5 -206 q0 -152 -97.5 -237 q-97.5 -85 -274.5 -85 l-135 0 q-15 -74 -18 -156 l-221 0 q4 72 19 156 l-904 0 ZM795 543 q0 92 -40.5 143 q-40.5 51 -109.5 51 q-69 0 -112.5 -63.5 q-43.5 -63.5 -43.5 -169.5 q0 -217 150 -217 q72 0 114 58.5 q42 58.5 42 170.5 l0 27 ZM1515 729 l-303 0 l0 -466 l303 466 ZM1992 287 l87 0 q58 0 88 18.5 q30 18.5 30 50.5 q0 56 -62 56 q-43 0 -81.5 -34.5 q-38.5 -34.5 -61.5 -90.5 Z" /><glyph glyph-name="" unicode="&#x2a6;" d="M1588 340 q0 -137 -79 -216.5 q-79 -79.5 -228 -114 q-149 -34.5 -407 -34.5 q-227 0 -376 40 q-149 40 -228.5 137.5 q-79.5 97.5 -79.5 275.5 l0 301 l-161 0 l0 295 l161 0 l0 201 l420 116 l0 -317 l413 0 q96 25 209 25 q134 0 284 -39 l0 -287 q-70 30 -142.5 46.5 q-72.5 16.5 -121.5 16.5 q-42 0 -67 -14 q-25 -14 -25 -39 q0 -29 27 -47 q27 -18 108 -43 q157 -46 225 -118 q68 -72 68 -185 ZM610 473 q0 -235 300 -235 q133 0 207 18.5 q74 18.5 74 50.5 q0 25 -25.5 40.5 q-25.5 15.5 -155.5 58.5 q-139 44 -199.5 115.5 q-60.5 71.5 -60.5 183.5 l0 12 l1 12 l-141 0 l0 -256 Z" /><glyph glyph-name="" unicode="&#x2a7;" d="M1512 1206 q-66 23 -123 23 q-140 0 -140 -135 l0 -1168 q0 -125 -58 -220.5 q-58 -95.5 -168.5 -148.5 q-110.5 -53 -268.5 -53 q-40 0 -98 6.5 q-58 6.5 -95 16.5 l0 311 q63 -22 123 -22 q139 0 139 135 l0 63 q-29 -14 -94.5 -26.5 q-65.5 -12.5 -159.5 -12.5 q-178 0 -278.5 98 q-100.5 98 -100.5 279 l0 377 l-161 0 l0 295 l161 0 l0 201 l420 116 l0 -317 l213 0 l0 94 q0 125 58 220.5 q58 95.5 168.5 148.5 q110.5 53 269.5 53 q114 0 193 -22 l0 -312 ZM823 729 l-213 0 l0 -307 q0 -135 107 -135 q50 0 106 22 l0 420 Z" /><glyph glyph-name="" unicode="&#x2a8;" d="M788 489 q0 261 161 410.5 q161 149.5 446 149.5 q175 0 282 -43 l0 -332 q-40 29 -96.5 46 q-56.5 17 -106.5 17 q-128 0 -191 -61 q-63 -61 -63 -168 l3 -43 q65 28 122 35.5 q57 7.5 121 7.5 q140 0 219.5 -66.5 q79.5 -66.5 79.5 -183.5 q0 -125 -108 -204 q-108 -79 -283 -79 q-235 0 -394 116 q-103 -63 -194.5 -89.5 q-91.5 -26.5 -216.5 -26.5 q-178 0 -278.5 98 q-100.5 98 -100.5 279 l0 377 l-161 0 l0 295 l161 0 l0 201 l420 116 l0 -317 l213 0 l0 -295 l-213 0 l0 -307 q0 -135 107 -135 q54 0 101 20 q-30 88 -30 182 ZM1309 275 q19 -28 61 -47 q42 -19 79 -19 q36 0 62.5 13 q26.5 13 26.5 40 q0 45 -88 45 q-73 0 -141 -32 Z" /><glyph glyph-name="" unicode="&#x2a9;" d="M891 1206 q-66 23 -123 23 q-139 0 -139 -135 l0 -70 l663 0 l0 -160 l4 0 q51 88 137 136.5 q86 48.5 187 48.5 q336 0 336 -424 l0 -625 q0 -127 -55 -235 q-55 -108 -157 -162 q-102 -54 -242 -54 q-78 0 -170 30 l0 311 q54 -30 102 -30 q54 0 75 35.5 q21 35.5 21 107.5 l0 556 q0 95 -28.5 136.5 q-28.5 41.5 -92.5 41.5 q-55 0 -86 -43 q-31 -43 -31 -110 l0 -584 l-426 0 l0 729 l-237 0 l0 -729 l-426 0 l0 729 l-172 0 l0 295 l172 0 l0 94 q0 125 58 220.5 q58 95.5 168.5 148.5 q110.5 53 268.5 53 q114 0 193 -22 l0 -312 Z" /><glyph glyph-name="" unicode="&#x2aa;" d="M102 1516 l426 0 l0 -996 q0 -139 77.5 -210.5 q77.5 -71.5 228.5 -71.5 q107 0 166.5 17.5 q59.5 17.5 59.5 50.5 q0 25 -15 38.5 q-15 13.5 -50.5 30.5 q-35.5 17 -94.5 42 q-127 54 -180 117 q-53 63 -53 176 q0 157 129 248 q129 91 337 91 q162 0 300 -39 l0 -287 q-58 26 -134 44.5 q-76 18.5 -125 18.5 q-48 0 -72.5 -14 q-24.5 -14 -24.5 -37 q0 -26 17.5 -41.5 q17.5 -15.5 83.5 -41.5 q119 -47 163 -73.5 q44 -26.5 74 -59.5 q30 -33 43 -73 q13 -40 13 -108 q0 -363 -681 -363 q-363 0 -525.5 117 q-162.5 117 -162.5 377 l0 1047 Z" /><glyph glyph-name="" unicode="&#x2ab;" d="M1019 295 l407 0 l0 -295 l-1324 0 l0 1516 l426 0 l0 -492 l889 0 l0 -242 l-398 -487 ZM905 729 l-377 0 l0 -478 l377 478 Z" /><glyph glyph-name="" unicode="&#x2ac;" d="M1032 1434 l-160 -648 l-262 0 l-65 318 q-6 28 -10 82 l-5 0 l-10 -82 l-65 -318 l-262 0 l-150 648 l231 0 l58 -336 l6 -80 l4 0 l10 82 l68 334 l256 0 l63 -334 l9 -80 l4 0 l10 80 l47 334 l223 0 ZM1032 647 l-160 -647 l-262 0 l-65 317 q-6 28 -10 82 l-5 0 l-10 -82 l-65 -317 l-262 0 l-150 647 l231 0 l58 -336 l6 -80 l4 0 l10 82 l68 334 l256 0 l63 -334 l9 -80 l4 0 l10 80 l47 334 l223 0 Z" /><glyph glyph-name="" unicode="&#x2ad;" d="M963 922 l-209 0 l0 323 l-432 0 l0 -323 l-209 0 l0 512 l850 0 l0 -512 ZM963 0 l-209 0 l0 324 l-432 0 l0 -324 l-209 0 l0 512 l850 0 l0 -512 Z" /><glyph glyph-name="" unicode="&#x3d0;" d="M1006 797 l0 -4 q152 -47 232.5 -141 q80.5 -94 80.5 -221 q0 -456 -622 -456 q-295 0 -445 127 q-150 127 -150 370 l0 510 q0 264 155 411 q155 147 436 147 q249 0 401.5 -116.5 q152.5 -116.5 152.5 -311.5 q0 -110 -63 -192.5 q-63 -82.5 -178 -122.5 ZM608 618 l0 283 q91 4 149 51 q58 47 58 123 q0 72 -37.5 113 q-37.5 41 -99.5 41 q-150 0 -150 -219 l0 -486 q0 -237 188 -237 q78 0 124.5 38 q46.5 38 46.5 111 q0 82 -76 132 q-76 50 -203 50 Z" /><glyph glyph-name="" unicode="&#x3d1;" d="M1480 1035 q73 13 142 39 l0 -290 l-133 -40 q-21 -363 -217 -566 q-196 -203 -527 -203 q-288 0 -446 112 q-158 112 -158 313 q0 46 10 141 q9 95 9 128 q0 68 -63 68 q-25 0 -68 -18 l0 299 q134 31 254 31 q133 0 214.5 -75.5 q81.5 -75.5 81.5 -209.5 q0 -30 -18 -228 l-4 -61 q0 -88 46 -138 q46 -50 141 -50 q125 0 204.5 118 q79.5 118 93.5 319 q-233 26 -378.5 148 q-145.5 122 -145.5 297 q0 170 103 269.5 q103 99.5 278 99.5 q235 0 389 -133.5 q154 -133.5 192 -369.5 ZM1035 1008 q-14 221 -134 221 q-36 0 -58 -19.5 q-22 -19.5 -22 -46.5 q0 -61 63.5 -105.5 q63.5 -44.5 150.5 -49.5 Z" /><glyph glyph-name="" unicode="&#x3d2;" d="M496 1434 l158 -460 q9 -24 27 -104 l4 0 q13 68 32 110 l81 177 q77 169 162 235 q85 66 235 66 q81 0 162 -27 l0 -313 q-38 11 -70 11 q-44 0 -79.5 -36.5 q-35.5 -36.5 -85.5 -134.5 l-248 -475 l0 -483 l-432 0 l0 492 l-442 942 l496 0 Z" /><glyph glyph-name="" unicode="&#x3d6;" d="M1831 478 q0 -237 -127 -370 q-127 -133 -350 -133 q-108 0 -197.5 48 q-89.5 48 -132.5 131 l-4 0 q-41 -83 -127 -131 q-86 -48 -198 -48 q-220 0 -346.5 136.5 q-126.5 136.5 -126.5 368.5 q0 122 48 243 q-126 -17 -233 -98 l0 321 q136 78 360 78 l1590 0 l0 -295 l-207 0 q51 -133 51 -251 ZM609 512 q0 -97 32.5 -155 q32.5 -58 83.5 -58 q60 0 84.5 45 q24.5 45 24.5 129 l0 157 l385 0 l0 -157 q0 -88 26 -131 q26 -43 83 -43 q51 0 83.5 59.5 q32.5 59.5 32.5 153.5 q0 95 -34 217 l-767 0 q-34 -115 -34 -217 Z" /><glyph glyph-name="" unicode="&#x3d7;" d="M794 -144 q68 -32 117 -32 q60 0 89.5 35.5 q29.5 35.5 29.5 112.5 l0 13 q-274 53 -274 398 q-144 -130 -191.5 -181 q-47.5 -51 -77.5 -98 l-47 -104 l-395 0 q82 198 122 345.5 q40 147.5 40 262.5 q0 54 -20 91.5 q-20 37.5 -60 37.5 q-42 0 -98 -22 l0 303 q100 31 223 31 q182 0 272 -101 q90 -101 90 -309 q104 92 171.5 161.5 q67.5 69.5 103.5 127.5 l47 96 l422 0 q-193 -396 -193 -621 q0 -116 82 -116 q44 0 99 22 l0 -335 q0 -204 -92 -298 q-92 -94 -288 -94 q-89 0 -172 31 l0 243 Z" /><glyph glyph-name="" unicode="&#x3d8;" d="M567 0 l0 247 q-238 50 -372 204 q-134 154 -134 376 q0 182 93.5 327.5 q93.5 145.5 261.5 224.5 q168 79 381 79 q211 0 372 -75 q161 -75 248.5 -214 q87.5 -139 87.5 -323 q0 -227 -136 -384.5 q-136 -157.5 -370 -210.5 l0 -251 l-432 0 ZM1047 838 q0 117 -68 184.5 q-68 67.5 -186 67.5 q-128 0 -200.5 -64.5 q-72.5 -64.5 -72.5 -183.5 q0 -116 71.5 -181 q71.5 -65 194.5 -65 q118 0 189.5 66 q71.5 66 71.5 176 Z" /><glyph glyph-name="" unicode="&#x3d9;" d="M436 -471 l0 471 q-184 49 -281.5 183 q-97.5 134 -97.5 335 q0 163 73 283 q73 120 208 184 q135 64 311 64 q182 0 315.5 -67 q133.5 -67 205 -186 q71.5 -119 71.5 -266 q0 -199 -96.5 -338 q-96.5 -139 -282.5 -190 l0 -473 l-426 0 ZM809 528 q0 209 -160 209 q-160 0 -160 -219 q0 -231 162 -231 q158 0 158 241 Z" /><glyph glyph-name="" unicode="&#x3da;" d="M1211 -350 l-455 0 q99 107 99 184 q0 47 -44 76.5 q-44 29.5 -216 83.5 q-276 86 -405 257 q-129 171 -129 435 q0 294 143.5 485 q143.5 191 416.5 255 l214 50 q78 18 78 80 q0 44 -13 77 l404 0 q23 -72 23 -144 q0 -153 -86.5 -237 q-86.5 -84 -273.5 -130 q-195 -48 -241.5 -67.5 q-46.5 -19.5 -86 -49 q-39.5 -29.5 -65.5 -69.5 q-26 -40 -41 -93.5 q-15 -53.5 -15 -125.5 q0 -149 67.5 -235 q67.5 -86 220.5 -135 q193 -62 297 -120.5 q104 -58.5 148.5 -129 q44.5 -70.5 44.5 -191.5 q0 -66 -23 -134.5 q-23 -68.5 -62 -121.5 Z" /><glyph glyph-name="" unicode="&#x3db;" d="M899 -309 l-434 0 q59 43 88 86.5 q29 43.5 29 78.5 q0 101 -139 146 q-386 124 -386 459 q0 413 367 540 l102 35 q70 25 96.5 50 q26.5 25 26.5 68 q0 27 -13 71 l371 0 q25 -66 25 -136 q0 -98 -29.5 -161 q-29.5 -63 -94.5 -106.5 q-65 -43.5 -215 -91.5 q-99 -31 -151.5 -95 q-52.5 -64 -52.5 -156 q0 -69 39.5 -116.5 q39.5 -47.5 131.5 -79.5 l54 -18 q147 -49 216 -127.5 q69 -78.5 69 -202.5 q0 -138 -100 -244 Z" /><glyph glyph-name="" unicode="&#x3dc;" d="M573 0 l-432 0 l0 1434 l899 0 l0 -338 l-467 0 l0 -246 l132 0 q177 0 256 -72 q79 -72 79 -227 q0 -85 -21 -160 l-297 0 q9 31 9 64 q0 93 -115 93 l-43 0 l0 -548 Z" /><glyph glyph-name="" unicode="&#x3dd;" d="M897 729 l-187 0 q-103 0 -148.5 -46 q-45.5 -46 -45.5 -145 l0 -28 l341 0 l0 -295 l-341 0 l0 -686 l-426 0 l0 1010 q0 234 134.5 359.5 q134.5 125.5 385.5 125.5 l287 0 l0 -295 Z" /><glyph glyph-name="" unicode="&#x3de;" d="M1263 903 l-271 -903 l-425 0 l170 535 l-696 0 l269 899 l424 0 l-165 -531 l694 0 Z" /><glyph glyph-name="" unicode="&#x3df;" d="M1176 684 l-123 -349 q-53 -147 -79.5 -236 q-26.5 -89 -26.5 -152 q0 -115 96 -115 q46 0 92 21 l0 -303 q-42 -14 -119 -22.5 q-77 -8.5 -142 -8.5 q-171 0 -264.5 93.5 q-93.5 93.5 -93.5 267.5 q0 78 23.5 189 q23.5 111 102.5 319 l-620 0 l121 337 q107 295 107 386 q0 57 -21 86 q-21 29 -75 29 q-48 0 -93 -20 l0 307 q86 25 224 25 q187 0 291.5 -91.5 q104.5 -91.5 104.5 -258.5 q0 -77 -24.5 -190.5 q-24.5 -113.5 -100.5 -313.5 l620 0 Z" /><glyph glyph-name="" unicode="&#x3e0;" d="M1307 0 l-465 0 q163 238 186 504 l-298 -209 l-137 197 l401 280 q-30 88 -72 136 l-417 -292 l-138 197 l361 252 q-49 25 -123 25 q-221 0 -391 -235 l-214 298 q246 305 638 305 q232 0 418.5 -110 q186.5 -110 291 -304.5 q104.5 -194.5 104.5 -429.5 q0 -336 -145 -614 Z" /><glyph glyph-name="" unicode="&#x3e1;" d="M1032 -483 l-424 142 q116 159 176.5 302 q60.5 143 71.5 285 l-299 -125 l-90 215 l368 154 q-37 148 -92 228 l-372 -157 l-91 215 l321 136 q-88 101 -232.5 162.5 q-144.5 61.5 -368.5 84.5 l184 379 q344 -48 600.5 -211.5 q256.5 -163.5 391.5 -421 q135 -257.5 135 -577.5 q0 -417 -279 -811 Z" /><glyph glyph-name="" unicode="&#x3e2;" d="M1962 202 q0 -352 -175 -517.5 q-175 -165.5 -546 -165.5 q-81 0 -265 11 q-184 11 -258 11 q-143 0 -268 -39 l0 355 q132 45 329 45 q88 0 223 -8 q134 -9 198 -9 q158 0 241.5 67.5 q83.5 67.5 88.5 220.5 l-4 1 q-64 -80 -143.5 -127.5 q-79.5 -47.5 -185.5 -47.5 q-208 0 -295 162 q-120 -162 -352 -162 q-425 0 -425 476 l0 959 l432 0 l0 -898 q0 -168 131 -168 q60 0 100 50 q40 50 40 128 l0 888 l432 0 l0 -906 q0 -160 129 -160 q63 0 102 49.5 q39 49.5 39 134.5 l0 882 l432 0 l0 -1232 Z" /><glyph glyph-name="" unicode="&#x3e3;" d="M1844 229 q0 -370 -161.5 -540 q-161.5 -170 -495.5 -170 l-206 5 l-174 5 q-172 0 -288 -10 l0 309 q106 23 234 23 l309 -7 q189 0 269 71.5 q80 71.5 87 244.5 l-4 0 q-63 -88 -150.5 -136.5 q-87.5 -48.5 -184.5 -48.5 q-114 0 -189 44.5 q-75 44.5 -121 133.5 q-126 -178 -340 -178 q-169 0 -253.5 106.5 q-84.5 106.5 -84.5 305.5 l0 637 l425 0 l0 -580 q0 -86 26.5 -121.5 q26.5 -35.5 88.5 -35.5 q55 0 89 44 q34 44 34 128 l0 565 l426 0 l0 -580 q0 -84 28 -120.5 q28 -36.5 85 -36.5 q57 0 91 45.5 q34 45.5 34 139.5 l0 552 l426 0 l0 -795 Z" /><glyph glyph-name="" unicode="&#x3e4;" d="M1345 0 l-432 0 l0 493 q-163 -97 -352 -97 q-248 0 -374 131.5 q-126 131.5 -126 390.5 q0 249 116 394.5 q116 145.5 318 145.5 q103 0 220 -24 l0 -357 q-35 13 -87 13 q-51 0 -80.5 -45.5 q-29.5 -45.5 -29.5 -123.5 q0 -192 171 -192 q72 0 126 21 q54 21 98 47 l0 637 l432 0 l0 -1434 Z" /><glyph glyph-name="" unicode="&#x3e5;" d="M642 287 q62 0 103.5 47 q41.5 47 41.5 114 l0 576 l426 0 l0 -1495 l-426 0 l0 588 l-4 0 q-48 -65 -141 -103.5 q-93 -38.5 -207 -38.5 q-185 0 -281.5 142.5 q-96.5 142.5 -96.5 412.5 q0 151 48 269.5 q48 118.5 137.5 184 q89.5 65.5 210.5 65.5 q116 0 187 -21 l0 -302 q-30 11 -56 11 q-95 0 -95 -209 q0 -124 37 -182.5 q37 -58.5 116 -58.5 Z" /><glyph glyph-name="" unicode="&#x3e6;" d="M1415 203 q0 -349 -173.5 -516.5 q-173.5 -167.5 -532.5 -167.5 q-73 0 -208 11 q-135 11 -198 11 q-86 0 -145.5 -8 q-59.5 -8 -130.5 -31 l0 367 q89 33 231 33 q90 0 206 -8 q115 -9 189 -9 q330 0 330 289 l0 320 q0 126 -37.5 184.5 q-37.5 58.5 -124.5 58.5 q-111 0 -248 -73 l0 -664 l-432 0 l0 1434 l432 0 l0 -500 q128 64 226.5 89.5 q98.5 25.5 185.5 25.5 q217 0 323.5 -121.5 q106.5 -121.5 106.5 -347.5 l0 -377 Z" /><glyph glyph-name="" unicode="&#x3e7;" d="M221 0 l-262 0 q9 198 92 306 q83 108 221 108 q95 0 177 -64 q83 -63 139 -63 q49 0 77.5 47.5 q28.5 47.5 28.5 126.5 q0 29 -6 59 q-110 -47 -223 -47 q-156 0 -250 76 q-94 76 -94 203 q0 135 106 216 q106 81 271 81 q188 0 325 -88 q16 34 31 88 l252 0 q-43 -129 -113 -238 q115 -151 115 -342 q0 -145 -55.5 -257.5 q-55.5 -112.5 -160 -174.5 q-104.5 -62 -243.5 -62 q-122 0 -227 58 l-49 29 q-37 23 -54 29.5 q-17 6.5 -32 6.5 q-29 0 -44.5 -23.5 q-15.5 -23.5 -21.5 -74.5 ZM623 719 q-13 48 -56.5 82.5 q-43.5 34.5 -89.5 34.5 q-44 0 -76 -19 q-32 -19 -32 -59 q0 -72 108 -72 q80 0 146 33 Z" /><glyph glyph-name="" unicode="&#x3e8;" d="M1329 354 q-95 -148 -189.5 -226.5 q-94.5 -78.5 -214.5 -115.5 q-120 -37 -280 -37 q-285 0 -447.5 116 q-162.5 116 -162.5 321 q0 94 26 167.5 q26 73.5 75.5 128 q49.5 54.5 133.5 97.5 q84 43 242 82 q134 33 171.5 49.5 q37.5 16.5 56 37 q18.5 20.5 18.5 50.5 q0 49 -46 81 q-46 32 -120 32 q-52 0 -74 -15.5 q-22 -15.5 -22 -64.5 q0 -27 20 -62 l-373 0 q-20 62 -20 142 q0 148 125.5 234.5 q125.5 86.5 339.5 86.5 q183 0 328 -58 q145 -58 225 -164 q80 -106 80 -247 q0 -104 -46.5 -178 q-46.5 -74 -132 -125 q-85.5 -51 -264.5 -96 q-120 -29 -167.5 -50.5 q-47.5 -21.5 -70 -49.5 q-22.5 -28 -22.5 -70 q0 -68 42 -95.5 q42 -27.5 136 -27.5 q112 0 205.5 68 q93.5 68 181.5 227 l246 -238 Z" /><glyph glyph-name="" unicode="&#x3e9;" d="M1059 244 q-79 -149 -195 -209 q-116 -60 -323 -60 q-241 0 -363.5 80 q-122.5 80 -122.5 236 q0 80 37 141 q37 61 114.5 102.5 q77.5 41.5 223.5 73.5 q109 22 148.5 44 q39.5 22 39.5 53 q0 35 -37.5 58 q-37.5 23 -99.5 23 q-80 0 -80 -67 q0 -36 11 -55 l-289 0 q-17 45 -17 92 q0 82 49 149 q49 67 139.5 105.5 q90.5 38.5 215.5 38.5 q138 0 249.5 -44.5 q111.5 -44.5 174.5 -122 q63 -77.5 63 -167.5 q0 -92 -35 -150 q-35 -58 -99 -94 q-64 -36 -220 -72 q-110 -25 -136.5 -36.5 q-26.5 -11.5 -40 -26 q-13.5 -14.5 -13.5 -35.5 q0 -63 120 -63 q220 0 273 157 l213 -151 Z" /><glyph glyph-name="" unicode="&#x3ea;" d="M457 1458 q204 0 336 -147 q132 147 335 147 q92 0 168 -22 l0 -375 q-66 29 -135 29 q-57 0 -90 -16 q-33 -16 -59 -50 l499 -862 l0 -162 l-1437 0 l0 162 l499 862 q-26 34 -59 50 q-33 16 -90 16 q-69 0 -135 -29 l0 375 q76 22 168 22 ZM975 338 l-182 348 l-183 -348 l365 0 Z" /><glyph glyph-name="" unicode="&#x3eb;" d="M31 0 l0 193 l379 530 q-56 51 -123 51 q-57 0 -119 -20 l0 272 q76 23 180 23 q165 0 260 -97 q97 97 260 97 q104 0 181 -23 l0 -272 q-62 20 -119 20 q-67 0 -123 -51 l379 -530 l0 -193 l-1155 0 ZM756 295 l-148 221 l-147 -221 l295 0 Z" /></font>
</defs>
</svg>
